<svg width="26" height="26" fill="none" xmlns="http://www.w3.org/2000/svg"><g clip-path="url(#clip0_6014_46700)" fill="#fff"><path d="M8.4.517l.118-.001A49.946 49.946 0 019.17.512l.56-.001c.24 0 .479-.003.718-.005.184-.002.369-.002.553-.002L11.265.5h.584c.257.046.35.136.534.317.176.308.132.663.131 1.008 0 .116.001.233.003.349v.428c-.03.28-.127.464-.326.662-.316.141-.599.106-.944.092v1.241l.568.057c1.957.4 3.853 1.42 5.11 2.99.17-.076.287-.16.418-.291l.111-.111.12-.122.128-.128.274-.276.435-.436c.413-.412.824-.825 1.235-1.24a305.188 305.188 0 011.044-1.046 88.611 88.611 0 01.523-.526l.112-.11.096-.097a.672.672 0 01.386-.13c.13.064.238.123.34.225.03.144.03.144 0 .338-.076.104-.076.104-.176.214l-.11.12c-.162.172-.326.34-.494.506l-.11.111-.366.365-.266.265-.729.726-.705.704-2.158 2.15-.09.09a11062.32 11062.32 0 01-3.5 3.485l-.867.862-.096.096a3667.7 3667.7 0 00-3.105 3.095 2817.846 2817.846 0 01-3.194 3.181l-.452.449-.09.089-1.427 1.424-1.435 1.429c-.26.258-.52.515-.778.775a94.99 94.99 0 01-.712.707l-.257.258c-.116.117-.233.232-.35.347l-.1.103c-.174.167-.288.25-.534.255-.21-.026-.21-.026-.327-.114-.08-.205-.053-.32.003-.533.119-.166.261-.302.408-.444l.13-.128c.14-.14.282-.278.424-.417l.294-.29c.257-.255.516-.509.775-.762l.79-.778a621.38 621.38 0 011.55-1.525.97.97 0 00-.308-.396C2.06 18.65 1.134 16.438.939 14.23c-.176-2.322.538-4.677 2.051-6.466.19-.216.39-.423.592-.628l.118-.125C4.932 5.72 6.773 4.888 8.52 4.597h.284V3.356l-.351.01c-.336.01-.516-.048-.77-.264-.163-.194-.14-.427-.142-.666a1276.382 1276.382 0 01-.013-1.132c.001-.282.073-.442.254-.656.2-.134.381-.129.617-.13zm-.05.808v1.24h3.35v-1.24H8.35zm1.25 2.03v1.186h.851V3.356H9.6zM3.777 8.079C2.369 9.683 1.604 11.8 1.715 13.931c.17 2.288 1.143 4.365 2.904 5.877l.098.08c.26-.214.503-.436.738-.676a.959.959 0 00-.323-.41c-1.302-1.103-2.062-2.824-2.27-4.488-.088-1.145.038-2.26.436-3.34l.063-.176a6.513 6.513 0 011.186-1.912l.118-.14c1.105-1.274 2.66-2.012 4.31-2.286l.131-.023c1.915-.27 3.849.332 5.378 1.469.206.163.384.34.566.529h.114l.035.092c.111.19.259.32.419.472.221-.09.36-.233.525-.402l.153-.155.117-.12c-1.006-1.499-2.93-2.514-4.675-2.874a9.98 9.98 0 00-1.457-.173l-.134-.007c-2.458-.067-4.71 1.065-6.37 2.81zm2.132.525l-.113.17.147.144a1121.754 1121.754 0 01.287.282c.3.297.3.297.315.56-.011.198-.011.198-.125.311-.201.036-.337.041-.51-.076a8.931 8.931 0 01-.341-.319l-.227-.194-.17-.144a6.275 6.275 0 00-1.59 3.78l.1.003.453.018.159.005.153.007.14.005c.143.02.237.053.357.131.064.223.058.337 0 .565l-1.362.056c.135 1.455.638 2.716 1.59 3.837a6.34 6.34 0 00.6-.554c.134-.137.188-.178.379-.236.156 0 .156 0 .326.056.092.182.082.307.057.508a2.25 2.25 0 01-.369.392l-.107.1c-.086.081-.174.162-.262.242.04.113.04.113.113.225.107.05.107.05.228.057.134-.106.247-.209.365-.33l.111-.11c.123-.121.245-.244.368-.367l.263-.262c.24-.237.477-.476.715-.714l.748-.746 1.255-1.252 1.292-1.29.08-.08.4-.399a3087.55 3087.55 0 003.316-3.309l-.114-.282c-.235-.026-.235-.026-.38.148l-.17.19c-.3.323-.3.323-.516.384-.14-.002-.14-.002-.353-.045-.076-.353-.076-.353.007-.529.127-.176.273-.326.43-.476l.087-.086.214-.207c-1.01-1.046-2.445-1.496-3.86-1.636-.02.447-.038.894-.057 1.354-.398.057-.398.057-.532.014-.093-.07-.093-.07-.15-.24a5.305 5.305 0 01-.017-.263L9.63 7.85l-.006-.16-.008-.16a122.6 122.6 0 01-.017-.393c-1.327 0-2.682.65-3.69 1.467zM17.01 12.18l.207-.002h.223l.229-.001.48-.002c.205 0 .41-.001.614-.003l.588-.002.221-.002c.547.001.973.076 1.386.469.23.29.37.632.521.97.057.123.116.244.177.365l.057.114.055.109c.173.345.173.345.173.545l.124-.002c.384-.004.769-.008 1.153-.01.198-.002.396-.003.593-.006.228-.003.455-.004.682-.005l.215-.004h.2l.176-.002c.2.038.258.104.384.266.029.163.029.163.029.354l.002.22-.002.24.001.254v.69c-.002.24-.001.48-.001.72 0 .405 0 .81-.002 1.214-.002.466-.002.933-.001 1.4a432.848 432.848 0 010 1.92 95.148 95.148 0 01-.002.924c.003.951.003.951-.305 1.33l-.117.098-.115.1c-.293.203-.56.22-.907.219h-.651l-.359.002H21.25c-.64.002-1.279.002-1.919.001-.66 0-1.32 0-1.98.002a740.678 740.678 0 01-2.714.002 202.545 202.545 0 01-1.305 0h-.478l-.14.001c-.462-.005-.786-.162-1.122-.498-.184-.32-.238-.576-.24-.944v-.217l-.001-.238-.001-.251-.003-.824v-.284l-.003-1.332c0-.513-.002-1.026-.004-1.538a236.02 236.02 0 01-.003-1.19c0-.236 0-.473-.002-.71a78.239 78.239 0 01-.002-.913v-.524c.035-.213.112-.313.26-.465.152-.036.152-.036.328-.034h.2l.215.005.22.001c.194.002.387.004.58.008a154.73 154.73 0 011.752.02l.048-.156c.11-.324.256-.629.4-.938l.09-.199c.42-.905.42-.905.86-1.102l.115-.053c.214-.087.38-.11.61-.112zm-.562 1.141a5.171 5.171 0 00-.39.748l-.072.156c-.126.247-.126.247-.173.515h5.261c-.321-.89-.321-.89-.924-1.686a1.47 1.47 0 00-.43-.05l-.19-.002h-.857c-.225 0-.45-.002-.675-.004h-.429l-.204-.001h-.358c-.24.036-.392.148-.56.324zm-4.278 2.25v.533c.14.138.24.211.405.304a395.959 395.959 0 01.421.254c.224.134.442.277.661.418.177.115.354.228.53.34l.694.446.321.206.146.095c.505.324.956.556 1.56.552h.196l.201-.002h.205l.5-.003.006-.148.012-.193.01-.192c.032-.192.07-.28.203-.416.177-.027.29-.04.442.066.115.164.108.308.118.508l.012.212.006.163c1.29.04 2.064-.115 3.14-.844.28-.188.565-.369.85-.55a363.796 363.796 0 001.595-1.026l.111-.073c.085-.053.085-.053.144-.117v-.534H12.17zm0 1.541a922.004 922.004 0 00-.013 3.613 290.83 290.83 0 00-.005 1.527l-.001.59-.002.177c.001.292.003.502.195.736.183.094.379.068.58.068l.147.001a200.659 200.659 0 00.841.003 554.594 554.594 0 001.55.004l1.65.003c.79.001 1.579.003 2.368.007.554.002 1.108.003 1.663.003l.994.003c.311.002.623.002.935.002l.343.001c.156.002.312.001.468 0l.138.003c.227-.004.338-.03.521-.172.121-.17.152-.236.151-.442l.002-.165-.004-.178v-.19c0-.206-.002-.412-.004-.619l-.001-.43c-.002-.376-.004-.752-.008-1.129-.003-.384-.004-.769-.005-1.153a567.88 567.88 0 00-.014-2.263 108.74 108.74 0 00-.468.26c-.263.15-.515.317-.768.485l-.333.219-.17.111c-.274.18-.55.357-.827.534l-.149.096c-.802.51-1.463.669-2.398.701l-.212.008-.515.018-.008.164-.014.214-.012.213c-.024.18-.024.18-.14.298-.108.018-.108.018-.23.02l-.123.002a51.381 51.381 0 01-.109-.021c-.131-.202-.137-.307-.152-.545l-.013-.196-.008-.15c-.042 0-.083 0-.126-.002-1.537-.035-2.466-.345-3.745-1.205-.316-.212-.637-.417-.957-.623L13 17.595a155.89 155.89 0 01-.174-.112l-.155-.1a7.754 7.754 0 00-.5-.27z"/><path d="M8.523 8.88c.257.264.414.545.57.852l.076.145.242.47.17.329.262.509c.175.34.353.681.533 1.021a195.481 195.481 0 01.5.945l.224.425.067.125c.136.263.193.479.152.762-.117.124-.183.174-.376.202h-.368a191.268 191.268 0 01-.432-.002l-.462-.003-.698-.003a85.413 85.413 0 01-1.91-.03l-.24-.008c-.25-.045-.347-.113-.501-.276 0-.214.007-.356.185-.523.304-.122.598-.092.933-.082l.217.005a360.95 360.95 0 001.151.03l1.14.03a2428.74 2428.74 0 00-.755-1.451c-.274-.526-.55-1.05-.833-1.573l-.137-.255a37.556 37.556 0 00-.194-.356c-.06-.108-.119-.217-.177-.325l-.1-.182a1.223 1.223 0 01-.07-.6c.234-.253.462-.268.831-.18z"/></g><defs><clipPath id="clip0_6014_46700"><path fill="#fff" transform="translate(.5 .5)" d="M0 0h25v25H0z"/></clipPath></defs></svg>