<svg width="36" height="35" fill="none" xmlns="http://www.w3.org/2000/svg"><path d="M18.102 2.916a8.75 8.75 0 018.75 8.75v1.458h5.833v2.917h-1.701L29.88 29.287a1.458 1.458 0 01-1.453 1.337H7.777a1.458 1.458 0 01-1.454-1.337L5.22 16.041h-1.7v-2.917h5.833v-1.458a8.75 8.75 0 018.75-8.75zm1.459 16.042h-2.917v5.833h2.917v-5.833zm-5.834 0H10.81v5.833h2.917v-5.833zm11.667 0h-2.917v5.833h2.917v-5.833zM18.102 5.833a5.833 5.833 0 00-5.826 5.541l-.007.292v1.458h11.667v-1.458a5.834 5.834 0 00-5.542-5.826l-.292-.007z" fill="#fff"/></svg>