<svg width="35" height="35" fill="none" xmlns="http://www.w3.org/2000/svg"><path d="M4.375 7.656a1.094 1.094 0 100 2.188h2.428l2.87 11.484a2.17 2.17 0 002.119 1.64H25.43c.987 0 1.826-.655 2.086-1.607l2.835-10.424h-2.29l-2.632 9.844H11.79L8.923 9.297a2.17 2.17 0 00-2.119-1.64H4.375zM24.063 22.97a3.298 3.298 0 00-3.282 3.281c0 1.8 1.482 3.281 3.282 3.281a3.297 3.297 0 003.28-3.281c0-1.8-1.481-3.281-3.28-3.281zm-9.844 0a3.298 3.298 0 00-3.281 3.281c0 1.8 1.481 3.281 3.28 3.281 1.8 0 3.282-1.482 3.282-3.281 0-1.8-1.482-3.281-3.281-3.281zM17.5 7.656v5.469h-3.281l4.375 4.375 4.375-4.375h-3.282V7.656H17.5zm-3.281 17.5c.617 0 1.094.477 1.094 1.094 0 .617-.477 1.094-1.094 1.094a1.078 1.078 0 01-1.094-1.094c0-.617.477-1.094 1.094-1.094zm9.844 0c.616 0 1.093.477 1.093 1.094 0 .617-.477 1.094-1.093 1.094a1.078 1.078 0 01-1.094-1.094c0-.617.477-1.094 1.093-1.094z" fill="#fff"/></svg>