<svg width="338" height="24" fill="none" xmlns="http://www.w3.org/2000/svg"><rect width="48" height="24" rx="2" fill="#FBFAF8"/><path fill-rule="evenodd" clip-rule="evenodd" d="M32.166 7.448A7.545 7.545 0 0029.554 7c-2.88 0-4.909 1.446-4.926 3.516-.015 1.533 1.448 2.386 2.554 2.896 1.134.522 1.516.855 1.51 1.321-.007.715-.905 1.041-1.743 1.041-1.167 0-1.786-.16-2.743-.559l-.376-.17-.41 2.386c.682.297 1.94.556 3.247.569 3.064 0 5.054-1.429 5.076-3.64.01-1.213-.766-2.136-2.447-2.896-1.02-.493-1.643-.822-1.636-1.321 0-.442.527-.917 1.668-.917a5.377 5.377 0 012.182.409l.262.122.394-2.309zM18.682 17.842l1.823-10.656h2.914l-1.823 10.656h-2.914zM37.39 7.196h2.252L42 17.845h-2.705s-.267-1.224-.354-1.597l-2.052-.002h-.012l-1.669-.002c-.113.288-.613 1.6-.613 1.6h-3.061l4.328-9.764c.307-.695.829-.884 1.527-.884zm-1.343 6.868c.242-.614 1.162-2.979 1.162-2.979-.009.014.048-.133.125-.333.082-.21.186-.48.261-.684l.197.92.675 3.076h-2.42zm-22.661.396l2.853-7.266h3.087l-4.588 10.635-3.085.004-2.608-9.32c1.85.923 3.505 2.768 4.036 4.47l.305 1.477z" fill="#1A1F71"/><path fill-rule="evenodd" clip-rule="evenodd" d="M10.737 7.188h-4.7L6 7.407c3.657.884 6.076 3.015 7.08 5.577l-1.022-4.898c-.176-.675-.688-.876-1.32-.9" fill="#F9A51A"/><rect x="58" width="48" height="24" rx="2" fill="#FBFAF8"/><path fill-rule="evenodd" clip-rule="evenodd" d="M87.807 21C92.884 21 97 16.97 97 12s-4.116-9-9.193-9c-5.078 0-9.194 4.03-9.194 9s4.116 9 9.194 9z" fill="#F79E1B"/><path fill-rule="evenodd" clip-rule="evenodd" d="M76.194 21c5.077 0 9.193-4.03 9.193-9s-4.116-9-9.194-9C71.117 3 67 7.03 67 12s4.116 9 9.194 9z" fill="#EB001B"/><path fill-rule="evenodd" clip-rule="evenodd" d="M82 5.021c-2.067 1.65-3.387 4.164-3.387 6.978 0 2.815 1.32 5.328 3.387 6.978 2.067-1.65 3.387-4.163 3.387-6.978 0-2.814-1.32-5.327-3.387-6.978z" fill="#FF5F00"/><rect x="116" width="48" height="24" rx="2" fill="#FBFAF8"/><path fill-rule="evenodd" clip-rule="evenodd" d="M136.546 20.39l.327-1.981-.729-.016h-3.48l2.419-14.622a.186.186 0 01.067-.114.203.203 0 01.129-.046h5.868c1.948 0 3.292.387 3.994 1.15.329.358.539.732.64 1.143.107.432.108.948.005 1.577l-.008.046v.403l.329.178c.277.14.497.3.666.484.282.307.464.695.541 1.156.079.475.053 1.039-.077 1.678-.15.735-.393 1.375-.721 1.898a3.972 3.972 0 01-1.141 1.193 4.75 4.75 0 01-1.538.662 8.03 8.03 0 01-1.922.212h-.457c-.326 0-.643.112-.892.313-.25.205-.415.485-.466.792l-.034.178-.578 3.493-.026.128c-.007.04-.019.06-.037.074a.097.097 0 01-.06.021h-2.819" fill="#28356A"/><path fill-rule="evenodd" clip-rule="evenodd" d="M146.418 7.574a7.501 7.501 0 01-.06.328c-.774 3.788-3.421 5.097-6.802 5.097h-1.722a.824.824 0 00-.826.675l-1.131 6.841a.426.426 0 00.434.486h3.054c.361 0 .668-.25.725-.59l.03-.148.575-3.48.037-.19a.724.724 0 01.726-.592h.457c2.958 0 5.274-1.145 5.951-4.459.282-1.384.136-2.54-.612-3.353a2.906 2.906 0 00-.836-.615" fill="#019DDE"/><path fill-rule="evenodd" clip-rule="evenodd" d="M145.609 7.265a6.258 6.258 0 00-.753-.16A10.026 10.026 0 00143.339 7h-4.6a.76.76 0 00-.317.069.706.706 0 00-.408.523l-.978 5.909-.028.172a.824.824 0 01.826-.675h1.722c3.381 0 6.029-1.31 6.802-5.097.023-.113.043-.222.06-.328a4.166 4.166 0 00-.809-.308" fill="#00164C"/><path fill-rule="evenodd" clip-rule="evenodd" d="M138.014 7.592a.701.701 0 01.408-.522.76.76 0 01.317-.069h4.6a9.96 9.96 0 011.517.106 6.267 6.267 0 01.927.21c.228.072.44.158.636.256.23-1.4-.002-2.353-.796-3.216-.875-.95-2.455-1.357-4.476-1.357h-5.868c-.413 0-.765.286-.829.676l-2.444 14.772c-.048.292.188.556.498.556h3.622l1.888-11.412" fill="#012F86"/><rect x="174" width="48" height="24" rx="2" fill="#FBFAF8"/><path fill-rule="evenodd" clip-rule="evenodd" d="M189.329 6.404c.067.598-.179 1.199-.543 1.63-.365.432-.964.767-1.549.723-.08-.586.216-1.197.553-1.58.377-.43 1.013-.751 1.539-.773zm1.892 3.484c-.096.057-1.135.679-1.122 1.94.013 1.51 1.324 2.035 1.398 2.064l.003.001-.004.013a5.61 5.61 0 01-.719 1.44c-.435.62-.886 1.24-1.598 1.253-.341.006-.57-.09-.807-.19-.249-.106-.507-.215-.916-.215-.428 0-.698.113-.958.221-.226.094-.445.185-.752.197-.686.025-1.209-.672-1.648-1.292-.896-1.267-1.581-3.58-.661-5.143a2.562 2.562 0 012.159-1.28c.383-.007.753.137 1.077.262.247.096.468.182.646.182.16 0 .375-.083.625-.18.394-.152.877-.338 1.374-.289.34.015 1.295.136 1.909 1.013l-.006.003z" fill="#2A2D2E"/><path d="M195.418 16h1.071v-3.065h2.166c1.613 0 2.755-1.136 2.755-2.767v-.012c0-1.63-1.142-2.743-2.755-2.743h-3.237V16zm2.963-7.635c1.226 0 1.934.672 1.934 1.803v.012c0 1.13-.708 1.803-1.934 1.803h-1.892V8.365h1.892zm5.548 7.748c.862 0 1.535-.375 1.94-1.06h.095V16h1.035v-4.392c0-1.333-.875-2.136-2.44-2.136-1.368 0-2.344.678-2.511 1.684l-.006.036h1.036l.006-.018c.166-.5.672-.786 1.44-.786.958 0 1.44.429 1.44 1.22v.583l-1.839.114c-1.494.089-2.339.75-2.339 1.892v.012c0 1.166.923 1.904 2.143 1.904zm-1.083-1.928v-.012c0-.637.428-.982 1.404-1.041l1.714-.107v.583c0 .916-.768 1.606-1.821 1.606-.744 0-1.297-.38-1.297-1.029zm5.725 4.065c1.137 0 1.667-.417 2.196-1.857l2.506-6.808h-1.089l-1.756 5.278h-.095l-1.762-5.278h-1.106l2.374 6.421-.119.38c-.232.739-.589 1.006-1.178 1.006a2.47 2.47 0 01-.429-.03v.852c.143.024.322.036.458.036z" fill="#2A2D2E"/><rect x="232" width="48" height="24" rx="2" fill="#FBFAF8"/><g clip-path="url(#clip0_5695_39744)"><path d="M250.359 12.103c0-.34-.03-.68-.091-1.015h-4.984v1.921h2.854c-.058.307-.182.6-.363.86a2.39 2.39 0 01-.692.655v1.251h1.704c.997-.868 1.572-2.153 1.572-3.672z" fill="#4285F4"/><path d="M245.285 16.98c1.424 0 2.627-.442 3.502-1.204l-1.704-1.249c-.474.306-1.084.478-1.798.478-1.378 0-2.549-.877-2.967-2.06h-1.755v1.286a5.11 5.11 0 001.948 2.007 5.517 5.517 0 002.774.743z" fill="#34A853"/><path d="M242.318 12.946a2.834 2.834 0 010-1.91V9.75h-1.755a4.77 4.77 0 00-.563 2.242c0 .778.193 1.546.563 2.242l1.755-1.288z" fill="#FBBC04"/><path d="M255.134 12.862v3.517h-1.182V7.692h3.133c.374-.008.746.055 1.095.184.348.13.666.322.935.568.267.235.48.52.626.836a2.39 2.39 0 010 2.005c-.146.316-.359.6-.626.836-.549.494-1.225.74-2.03.74h-1.951v.001zm0-4.1v3.033h1.982c.314.006.623-.076.888-.236.266-.159.475-.389.603-.66s.169-.572.117-.865a1.479 1.479 0 00-.441-.812 1.54 1.54 0 00-.532-.349 1.618 1.618 0 00-.637-.112l-1.98.002zm7.552 1.48c.874 0 1.563.22 2.068.66.504.441.757 1.046.757 1.814v3.663h-1.13v-.824h-.051c-.49.68-1.141 1.02-1.953 1.019-.693 0-1.273-.194-1.74-.583a1.873 1.873 0 01-.524-.653 1.776 1.776 0 01-.176-.802c0-.615.246-1.104.739-1.467.492-.363 1.149-.545 1.97-.546.701 0 1.281.123 1.733.364v-.256a1.194 1.194 0 00-.126-.545 1.285 1.285 0 00-.361-.442 1.73 1.73 0 00-1.141-.406c-.66 0-1.182.262-1.567.788l-1.039-.62c.571-.776 1.418-1.164 2.541-1.164zm-1.529 4.318a.85.85 0 00.103.408.914.914 0 00.288.319 1.5 1.5 0 00.919.291 1.944 1.944 0 001.328-.52c.392-.349.587-.757.587-1.226-.368-.277-.882-.416-1.541-.416-.48 0-.88.109-1.201.327-.323.223-.485.493-.485.817h.002zM272 10.437L268.055 19h-1.22l1.464-2.996-2.595-5.566h1.284l1.873 4.27h.026l1.824-4.27H272z" fill="#5F6368"/><path d="M245.285 8.976a2.962 2.962 0 012.026.748L248.82 8.3a5.248 5.248 0 00-3.535-1.3c-.98 0-1.94.258-2.774.743a5.116 5.116 0 00-1.948 2.006l1.755 1.287c.418-1.183 1.589-2.06 2.967-2.06z" fill="#EA4335"/></g><g clip-path="url(#clip1_5695_39744)"><path d="M290 0h48v24h-48V0z" fill="#FFB3C7"/><path d="M330.031 13.443c-.128 0-.254.02-.372.06a1.03 1.03 0 00-.314.166.772.772 0 00-.209.248.62.62 0 00-.072.292c0 .422.432.765.969.765a1.12 1.12 0 00.685-.226.687.687 0 00.282-.54.609.609 0 00-.073-.291.77.77 0 00-.209-.248 1.023 1.023 0 00-.315-.166 1.211 1.211 0 00-.372-.06zm-3.184-.591c0-.58-.625-1.048-1.397-1.048s-1.398.469-1.398 1.048c0 .578.626 1.047 1.398 1.047.772 0 1.397-.469 1.397-1.047zm.005-2.037h1.543v4.073h-1.543v-.26a3.227 3.227 0 01-1.529.372c-.724-.003-1.417-.23-1.927-.633-.509-.403-.794-.948-.791-1.515 0-1.188 1.217-2.149 2.718-2.149.568 0 1.094.138 1.529.374v-.261zm-12.34.53v-.53h-1.579v4.073h1.582v-1.902c0-.641.879-.986 1.49-.986h.018v-1.184c-.627 0-1.201.212-1.511.53zm-3.934 1.507c0-.58-.625-1.048-1.397-1.048-.771 0-1.398.469-1.398 1.048 0 .578.627 1.047 1.398 1.047.772 0 1.397-.469 1.397-1.047zm.005-2.037h1.543v4.073h-1.543v-.26a3.23 3.23 0 01-1.528.372c-.724-.003-1.417-.23-1.926-.633-.51-.403-.794-.948-.791-1.515 0-1.188 1.216-2.149 2.717-2.149a3.21 3.21 0 011.528.374v-.261zm9.283-.109c-.617 0-1.199.152-1.589.569v-.46h-1.536v4.073h1.555v-2.14c0-.619.525-.923 1.158-.923.676 0 1.066.32 1.066.914v2.149h1.541v-2.59c0-.947-.953-1.592-2.195-1.592zm-15.775 4.182h1.615V9h-1.615v5.888zm-7.091 0h1.71V9H297v5.889zM302.978 9a3.834 3.834 0 01-.448 1.808 4.807 4.807 0 01-1.3 1.535l2.363 2.547h-2.111l-2.569-2.768.663-.393a3.74 3.74 0 001.278-1.204c.301-.473.456-.996.453-1.525h1.671z" fill="#0A0B09"/></g><defs><clipPath id="clip0_5695_39744"><path fill="#fff" transform="translate(240 7)" d="M0 0h32v12H0z"/></clipPath><clipPath id="clip1_5695_39744"><rect x="290" width="48" height="24" rx="2" fill="#fff"/></clipPath></defs></svg>