<svg width="36" height="36" fill="none" xmlns="http://www.w3.org/2000/svg"><path fill-rule="evenodd" clip-rule="evenodd" d="M12.511 10.708a5.083 5.083 0 1110.167 0 5.083 5.083 0 01-10.167 0zm5.084-6.583a6.583 6.583 0 100 13.167 6.583 6.583 0 000-13.167zM8.136 27.236c0-2.288 1.804-4.111 3.99-4.111h10.937c2.186 0 3.99 1.823 3.99 4.111v1.68H8.136v-1.68zm3.99-5.611c-3.05 0-5.49 2.53-5.49 5.611v2.43c0 .415.336.75.75.75h20.417a.75.75 0 00.75-.75v-2.43c0-3.08-2.44-5.611-5.49-5.611H12.126z" fill="#232F3E"/></svg>