<svg width="36" height="36" fill="none" xmlns="http://www.w3.org/2000/svg"><path d="M17.595 4.875l.335-.67-.335-.169-.336.168.336.671zm13.125 6.563h.75v-.464l-.415-.207-.335.67zm0 13.124l.335.671.415-.207v-.463h-.75zm-13.125 6.563l-.336.67.336.168.335-.167-.335-.671zM4.47 24.562h-.75v.464l.414.207.336-.67zm0-13.125l-.336-.67-.414.207v.463h.75zm19.666 8.021a.75.75 0 001.5 0h-1.5zm.75-5.104h.75v-.463l-.414-.208-.336.671zm-12.79-7.233a.75.75 0 10-.67 1.341l.67-1.341zm4.749 23.275a.75.75 0 001.5 0h-1.5zm.414-24.85l13.125 6.562.671-1.341L17.93 4.204l-.67 1.342zm12.71 5.891v13.126h1.5V11.438h-1.5zm.415 12.455L17.26 30.454l.671 1.342 13.125-6.563-.67-1.341zM17.93 30.454L4.805 23.892l-.67 1.341 13.124 6.563.671-1.342zM5.22 24.562V11.438h-1.5v13.126h1.5zm-.415-12.454L17.93 5.546l-.67-1.342-13.126 6.563.671 1.341zm25.58-1.341l-13.126 6.562.671 1.342 13.125-6.563-.67-1.341zM17.93 17.329L4.805 10.767l-.67 1.341 13.124 6.563.671-1.342zm7.706 2.13v-5.105h-1.5v5.104h1.5zm-.414-5.776L12.097 7.121l-.671 1.341 13.125 6.563.67-1.342zm-6.877 16.713V18h-1.5v12.396h1.5z" fill="#000"/></svg>