<svg width="36" height="36" fill="none" xmlns="http://www.w3.org/2000/svg"><g clip-path="url(#clip0_5879_44856)" fill="#000"><path d="M30.75 4.258H1.934c-1.015 0-1.84.825-1.84 1.84V24.89c0 1.014.825 1.84 1.84 1.84h20.044a.587.587 0 000-1.175H1.936a.666.666 0 01-.666-.665V6.098c0-.367.299-.666.666-.666H30.75c.367 0 .666.299.666.666v8.143a.587.587 0 001.174 0V6.098c0-1.015-.825-1.84-1.84-1.84z"/><path d="M10.078 8.645H5.067c-.67 0-1.214.544-1.214 1.213v3.759c0 .669.544 1.213 1.214 1.213h5.01c.67 0 1.215-.544 1.215-1.213V9.858c0-.67-.545-1.213-1.214-1.213zm-3.72 5.01h-1.29a.04.04 0 01-.04-.038V9.858a.04.04 0 01.04-.039H6.36v3.837zm3.759-.038a.04.04 0 01-.04.039H7.534v-1.331H8.2a.587.587 0 000-1.175h-.666V9.82h2.545a.04.04 0 01.039.04v3.758zm15.308-5.601c-.694 0-1.34.208-1.878.566a3.403 3.403 0 00-1.88-.566 3.41 3.41 0 00-3.407 3.406 3.41 3.41 0 003.406 3.406c.694 0 1.34-.21 1.879-.567a3.408 3.408 0 001.88.567 3.41 3.41 0 003.406-3.406 3.41 3.41 0 00-3.406-3.406zm-2.76 5.4a2.234 2.234 0 01-3.23-1.995 2.234 2.234 0 013.231-1.994 3.401 3.401 0 00-.001 3.99zm2.76.237c-.35 0-.692-.083-1-.237.407-.56.647-1.25.647-1.994a.587.587 0 00-1.174 0c0 .442-.13.854-.353 1.201a2.228 2.228 0 01-.352-1.201 2.234 2.234 0 012.232-2.232 2.234 2.234 0 012.231 2.232c0 1.23-1 2.231-2.231 2.231zM9.452 18.04H4.44a.587.587 0 100 1.174h5.011a.587.587 0 000-1.175zm13.154 3.757H4.44a.587.587 0 000 1.174h18.166a.587.587 0 000-1.174zm-5.638-3.757h-5.011a.587.587 0 100 1.174h5.011a.587.587 0 000-1.175zm6.264 0h-3.758a.587.587 0 100 1.174h3.758a.587.587 0 000-1.175zm10.61 4.482v-2.641a4.35 4.35 0 00-4.346-4.346 4.35 4.35 0 00-4.345 4.346v2.641a1.843 1.843 0 00-1.253 1.744v5.637c0 1.015.825 1.84 1.84 1.84h7.517c1.014 0 1.84-.825 1.84-1.84v-5.637c0-.81-.526-1.498-1.253-1.744zm-7.517-2.641a3.175 3.175 0 013.171-3.171 3.175 3.175 0 013.171 3.17v2.546h-6.342V19.88zm7.595 10.022a.666.666 0 01-.665.666h-7.517a.666.666 0 01-.666-.666v-5.637c0-.367.299-.666.666-.666h7.517c.367 0 .665.298.665.665v5.638z"/><path d="M29.496 24.93c-.842 0-1.527.685-1.527 1.527 0 .633.389 1.178.94 1.409v.783a.587.587 0 001.174 0v-.783a1.529 1.529 0 00-.587-2.936zm0 1.879a.353.353 0 110-.706.353.353 0 010 .706z"/></g><defs><clipPath id="clip0_5879_44856"><path fill="#fff" transform="translate(.095 .5)" d="M0 0h35v35H0z"/></clipPath></defs></svg>