<svg width="35" height="35" fill="none" xmlns="http://www.w3.org/2000/svg"><g clip-path="url(#clip0_6003_46744)"><mask id="path-1-inside-1_6003_46744" fill="#fff"><path d="M4.2.331L4.395.33h.216l.228-.002A377.833 377.833 0 016.005.322a1440.293 1440.293 0 015.932-.02A721.3 721.3 0 0014.61.29c.914-.005 1.83-.008 2.744-.01.514 0 1.027-.001 1.541-.006.438-.003.875-.005 1.313-.004.223 0 .446 0 .67-.003.241-.003.483-.002.726 0l.213-.005c.466.009.466.009.668.214.106.156.194.312.278.48l.124.205.104.182a240.976 240.976 0 00.449.783l.21.366c.258.451.518.901.779 1.351.08.14.16.279.238.419.11.193.232.376.358.56.642.972.718 1.765.673 2.91l-.006.47a94.614 94.614 0 01-.014.655l-.008.194-.006.17c-.037.178-.09.24-.235.349-.205.034-.205.034-.41 0-.53-.881-.206-2.049-.206-3.076H16.2l.012 4.603.001.654.002.437v.662l.002.196c0 .307-.007.552-.154.83-.182.058-.29.087-.478.069-.575-.359-1.062-.986-1.538-1.466l-.27-.27-.653-.657c-.335.278-.643.57-.944.884l-.261.267-.404.418c-.13.136-.263.27-.395.405l-.12.127c-.19.191-.287.283-.558.331-.211-.044-.264-.077-.394-.244-.025-.139-.025-.139-.025-.3v-.185c0-.067 0-.134.002-.204v-.217l.003-.7v-.43l.007-1.6.013-3.61H1.367v17.021l14.834-.068-.342-.684a3.029 3.029 0 01-.094-.683l-.01-.214c.103-.764.478-1.251 1.032-1.76.7-.607.7-.607.997-1.446l.004-.253.006-.278.007-.436c.013-.93.114-1.601.765-2.291.622-.587 1.347-.606 2.155-.602.795.003 1.353-.015 1.962-.586l.173-.161c.127-.123.25-.247.373-.374.563-.584 1.022-.905 1.855-.926l.144-.01c.563-.011 1.05.24 1.473.601.166.165.327.334.485.507.448.488.802.872 1.486.936.32.012.637.013.956.012.85-.001 1.53.097 2.163.703.401.458.549.894.558 1.494a578.018 578.018 0 00.013.69c.012.882.094 1.44.724 2.07l.217.21c.654.634 1.096 1.162 1.172 2.105-.031.93-.588 1.565-1.23 2.175-.805.763-.929 1.497-.961 2.583.005.692.213 1.092.699 1.578.287.27.585.526.894.77.21.188.29.32.326.597.006.438-.016.711-.297 1.056-.384.268-.74.311-1.198.3l-.182-.001a167.123 167.123 0 00-.956-.012c-.315-.004-.63-.008-.945-.014l.004.25c.005.307.008.614.011.921.002.133.003.266.006.398l.006.574.004.178c0 .401-.07.632-.304.96-.33.258-.576.304-.99.303-.38-.065-.636-.263-.893-.54a162.86 162.86 0 01-.267-.286c-.163-.175-.33-.347-.495-.52-.21-.219-.419-.438-.624-.661-.836-.998-.836-.998-1.96-1.494-.84.055-1.53 1.026-2.064 1.605-.205.221-.415.44-.624.657-.163.17-.325.34-.484.513l-.176.186-.152.164c-.336.3-.645.386-1.083.37-.35-.049-.566-.201-.796-.47-.165-.313-.16-.557-.151-.905v-.191c.002-.2.006-.401.01-.602l.003-.41c.003-.333.008-.666.013-1l-.25.005c-.307.005-.614.008-.921.01l-.398.006c-.191.003-.382.005-.574.006l-.178.004c-.401 0-.63-.072-.96-.304-.277-.313-.357-.616-.342-1.026.145-.57.617-1.026 1.091-1.352.413-.306.712-.574.798-1.1a7.67 7.67 0 00.004-.927l-.007-.156c-.034-.658-.11-1.168-.521-1.705-.285-.225-.503-.207-.857-.202l-.2-.002a253.236 253.236 0 01-1.143 0l-1.029.001a295.1 295.1 0 01-1.487 0 810.1 810.1 0 00-2.416 0H7.74c-.802 0-1.604 0-2.406-.002l-1.616.001a336.354 336.354 0 01-1.471 0c-.212.002-.424.001-.636 0l-.187.002c-.325-.002-.546-.017-.809-.231-.08-.16-.078-.253-.08-.43 0-.061 0-.123-.002-.187l-.001-.207-.003-.219a337.507 337.507 0 01-.011-1.253 923.198 923.198 0 01-.033-5.431v-.162c-.004-.858-.012-1.715-.02-2.573-.01-.883-.016-1.766-.017-2.649-.001-.495-.004-.99-.012-1.484C.38 5.64.38 5.64 1.45 4.324c.183-.231.322-.483.464-.74l.16-.268c.283-.477.558-.96.835-1.441l.248-.43c.086-.15.172-.299.257-.45l.13-.225.115-.205c.154-.238.273-.232.541-.234zM3.865 1.82l-.105.231c-.08.139-.16.277-.242.414a242.46 242.46 0 00-.506.882l-.068.118A153.704 153.704 0 012.227 4.7l-.205.351-.125.214-.11.19c-.088.142-.088.142-.078.287h8.34l.068-1.71.069-.136c.23-.013.23-.013.478 0 .344.515.18 1.227.205 1.846h4.512v-4.58c-1.434-.02-2.869-.037-4.303-.046-.667-.005-1.333-.011-1.999-.021-.58-.01-1.16-.015-1.742-.017a53.375 53.375 0 01-.922-.01c-.29-.006-.578-.008-.868-.007-.106 0-.212-.002-.318-.005-.71-.022-1.044.12-1.364.763zm12.336-.657v4.58h8.34c-.27-.54-.543-1.063-.85-1.581l-.251-.427-.131-.223c-.234-.399-.464-.8-.695-1.2l-.255-.443-.108-.189-.103-.175-.074-.18c-.122-.188-.122-.188-.373-.203-.103-.001-.205 0-.308.002h-.17c-.185 0-.37.003-.556.005l-.385.002c-.338.001-.676.005-1.015.008-.405.004-.81.006-1.217.008-.616.003-1.232.01-1.849.016zM10.87 6.494v6.015c.301-.258.57-.494.838-.779l.194-.201c.1-.104.2-.208.298-.314.097-.103.195-.204.294-.305l.174-.183c.185-.132.185-.132.416-.178.344.065.491.23.725.48l.13.133a206.272 206.272 0 001.076 1.113c.099.102.199.203.299.303h.068V6.494H10.87zm12.451 8.205c-.576.61-1.093.862-1.93.895-.336.008-.673.016-1.01.021l-.25.006-.228.005c-.377.05-.638.212-.88.498l-.12.136c-.22.311-.257.58-.259.958 0 .092-.002.184-.004.276l-.003.43c-.005 1.098-.268 1.79-1.046 2.562-.137.136-.275.27-.415.404-.304.294-.527.547-.596.98l-.002.201-.006.2c.119.642.664 1.062 1.118 1.487.52.501.869 1.036.922 1.775l.002.25a56.06 56.06 0 01.007.708c.003.624.01 1.113.435 1.606l.116.092.115.096c.304.198.568.238.928.242l.268.005.416.005c1.046.011 1.754.191 2.507.94.099.1.197.203.294.306.412.433.75.79 1.38.845.68-.017 1.088-.457 1.53-.919.586-.606 1.098-1.107 1.985-1.145l.253-.002.279-.005c.145-.002.29-.005.434-.005.666-.005 1.168-.02 1.668-.508.417-.62.384-1.243.384-1.961.001-.738.048-1.388.585-1.944l.161-.169a98.254 98.254 0 01.723-.715c.369-.36.556-.679.573-1.192l.008-.147c-.111-.682-.644-1.083-1.123-1.529-.45-.431-.866-.942-.9-1.593l-.003-.255a261.875 261.875 0 00-.013-.72c-.001-.936-.001-.936-.438-1.742l-.096-.113c-.295-.253-.581-.335-.965-.34l-.247-.006-.256-.002c-1.096-.016-1.92-.069-2.728-.877a43.236 43.236 0 01-.458-.49c-.389-.406-.75-.674-1.317-.744-.796.101-1.272.633-1.798 1.194zm-5.79 14.366l-.184.18-.175.174-.161.159c-.138.175-.183.278-.194.5.046.067.09.135.137.205.139.031.139.031.301.027l.189.003h.204l.21.003c.221.003.443.004.664.005l.664.007.414.003.189.002h.167c.143.018.143.018.348.155.026.134.026.134.027.3l.003.19v.204l.003.21a146.758 146.758 0 00.015 1.742c0 .062 0 .124.002.189v.166c.01.164.01.164.155.349.24.035.363.032.566-.107l.148-.15.17-.17.18-.187.186-.188c.163-.165.326-.331.487-.498.166-.17.333-.338.5-.507.326-.33.651-.663.976-.996-.167-.349-.421-.583-.692-.855l-.153-.157c-.57-.573-.957-.728-1.769-.735h-.283c-1.525-.003-1.525-.003-2.055-.44l-.128-.103c-.116-.103-.116-.103-.225-.218-.293-.275-.685.337-.886.538zm14.325-.628l-.12.157c-.172.208-.32.291-.563.407l-.214.104c-.324.139-.587.161-.94.165l-.28.004c-.146.003-.291.005-.437.006-.775.006-1.228.07-1.796.61-.109.11-.216.221-.323.333l-.167.17c-.102.104-.203.208-.303.313-.085.087-.17.174-.257.26a733.772 733.772 0 001.63 1.64c.197.2.395.398.593.597.093.093.093.093.187.19.058.056.115.114.174.173l.154.154c.132.132.132.132.338.186.16-.048.16-.048.274-.205.042-.222.038-.443.037-.669l.002-.199a110.646 110.646 0 01.008-1.263c.002-.13.002-.262.002-.393l.002-.18v-.158a.922.922 0 01.154-.42c.159-.079.255-.078.432-.08l.186-.004.2-.003.205-.004.873-.014.635-.012.2-.003.186-.003.163-.003c.138-.002.138-.002.27-.078.06-.127.06-.127.068-.274-.063-.12-.063-.12-.175-.23a91.686 91.686 0 00-.132-.141l-.172-.176-.114-.118a65.078 65.078 0 00-.386-.395l-.129-.131a139.699 139.699 0 00-.232-.234c-.093-.093-.093-.093-.233-.079z"/></mask><path d="M4.2.331L4.395.33h.216l.228-.002A377.833 377.833 0 016.005.322a1440.293 1440.293 0 015.932-.02A721.3 721.3 0 0014.61.29c.914-.005 1.83-.008 2.744-.01.514 0 1.027-.001 1.541-.006.438-.003.875-.005 1.313-.004.223 0 .446 0 .67-.003.241-.003.483-.002.726 0l.213-.005c.466.009.466.009.668.214.106.156.194.312.278.48l.124.205.104.182a240.976 240.976 0 00.449.783l.21.366c.258.451.518.901.779 1.351.08.14.16.279.238.419.11.193.232.376.358.56.642.972.718 1.765.673 2.91l-.006.47a94.614 94.614 0 01-.014.655l-.008.194-.006.17c-.037.178-.09.24-.235.349-.205.034-.205.034-.41 0-.53-.881-.206-2.049-.206-3.076H16.2l.012 4.603.001.654.002.437v.662l.002.196c0 .307-.007.552-.154.83-.182.058-.29.087-.478.069-.575-.359-1.062-.986-1.538-1.466l-.27-.27-.653-.657c-.335.278-.643.57-.944.884l-.261.267-.404.418c-.13.136-.263.27-.395.405l-.12.127c-.19.191-.287.283-.558.331-.211-.044-.264-.077-.394-.244-.025-.139-.025-.139-.025-.3v-.185c0-.067 0-.134.002-.204v-.217l.003-.7v-.43l.007-1.6.013-3.61H1.367v17.021l14.834-.068-.342-.684a3.029 3.029 0 01-.094-.683l-.01-.214c.103-.764.478-1.251 1.032-1.76.7-.607.7-.607.997-1.446l.004-.253.006-.278.007-.436c.013-.93.114-1.601.765-2.291.622-.587 1.347-.606 2.155-.602.795.003 1.353-.015 1.962-.586l.173-.161c.127-.123.25-.247.373-.374.563-.584 1.022-.905 1.855-.926l.144-.01c.563-.011 1.05.24 1.473.601.166.165.327.334.485.507.448.488.802.872 1.486.936.32.012.637.013.956.012.85-.001 1.53.097 2.163.703.401.458.549.894.558 1.494a578.018 578.018 0 00.013.69c.012.882.094 1.44.724 2.07l.217.21c.654.634 1.096 1.162 1.172 2.105-.031.93-.588 1.565-1.23 2.175-.805.763-.929 1.497-.961 2.583.005.692.213 1.092.699 1.578.287.27.585.526.894.77.21.188.29.32.326.597.006.438-.016.711-.297 1.056-.384.268-.74.311-1.198.3l-.182-.001a167.123 167.123 0 00-.956-.012c-.315-.004-.63-.008-.945-.014l.004.25c.005.307.008.614.011.921.002.133.003.266.006.398l.006.574.004.178c0 .401-.07.632-.304.96-.33.258-.576.304-.99.303-.38-.065-.636-.263-.893-.54a162.86 162.86 0 01-.267-.286c-.163-.175-.33-.347-.495-.52-.21-.219-.419-.438-.624-.661-.836-.998-.836-.998-1.96-1.494-.84.055-1.53 1.026-2.064 1.605-.205.221-.415.44-.624.657-.163.17-.325.34-.484.513l-.176.186-.152.164c-.336.3-.645.386-1.083.37-.35-.049-.566-.201-.796-.47-.165-.313-.16-.557-.151-.905v-.191c.002-.2.006-.401.01-.602l.003-.41c.003-.333.008-.666.013-1l-.25.005c-.307.005-.614.008-.921.01l-.398.006c-.191.003-.382.005-.574.006l-.178.004c-.401 0-.63-.072-.96-.304-.277-.313-.357-.616-.342-1.026.145-.57.617-1.026 1.091-1.352.413-.306.712-.574.798-1.1a7.67 7.67 0 00.004-.927l-.007-.156c-.034-.658-.11-1.168-.521-1.705-.285-.225-.503-.207-.857-.202l-.2-.002a253.236 253.236 0 01-1.143 0l-1.029.001a295.1 295.1 0 01-1.487 0 810.1 810.1 0 00-2.416 0H7.74c-.802 0-1.604 0-2.406-.002l-1.616.001a336.354 336.354 0 01-1.471 0c-.212.002-.424.001-.636 0l-.187.002c-.325-.002-.546-.017-.809-.231-.08-.16-.078-.253-.08-.43 0-.061 0-.123-.002-.187l-.001-.207-.003-.219a337.507 337.507 0 01-.011-1.253 923.198 923.198 0 01-.033-5.431v-.162c-.004-.858-.012-1.715-.02-2.573-.01-.883-.016-1.766-.017-2.649-.001-.495-.004-.99-.012-1.484C.38 5.64.38 5.64 1.45 4.324c.183-.231.322-.483.464-.74l.16-.268c.283-.477.558-.96.835-1.441l.248-.43c.086-.15.172-.299.257-.45l.13-.225.115-.205c.154-.238.273-.232.541-.234zM3.865 1.82l-.105.231c-.08.139-.16.277-.242.414a242.46 242.46 0 00-.506.882l-.068.118A153.704 153.704 0 012.227 4.7l-.205.351-.125.214-.11.19c-.088.142-.088.142-.078.287h8.34l.068-1.71.069-.136c.23-.013.23-.013.478 0 .344.515.18 1.227.205 1.846h4.512v-4.58c-1.434-.02-2.869-.037-4.303-.046-.667-.005-1.333-.011-1.999-.021-.58-.01-1.16-.015-1.742-.017a53.375 53.375 0 01-.922-.01c-.29-.006-.578-.008-.868-.007-.106 0-.212-.002-.318-.005-.71-.022-1.044.12-1.364.763zm12.336-.657v4.58h8.34c-.27-.54-.543-1.063-.85-1.581l-.251-.427-.131-.223c-.234-.399-.464-.8-.695-1.2l-.255-.443-.108-.189-.103-.175-.074-.18c-.122-.188-.122-.188-.373-.203-.103-.001-.205 0-.308.002h-.17c-.185 0-.37.003-.556.005l-.385.002c-.338.001-.676.005-1.015.008-.405.004-.81.006-1.217.008-.616.003-1.232.01-1.849.016zM10.87 6.494v6.015c.301-.258.57-.494.838-.779l.194-.201c.1-.104.2-.208.298-.314.097-.103.195-.204.294-.305l.174-.183c.185-.132.185-.132.416-.178.344.065.491.23.725.48l.13.133a206.272 206.272 0 001.076 1.113c.099.102.199.203.299.303h.068V6.494H10.87zm12.451 8.205c-.576.61-1.093.862-1.93.895-.336.008-.673.016-1.01.021l-.25.006-.228.005c-.377.05-.638.212-.88.498l-.12.136c-.22.311-.257.58-.259.958 0 .092-.002.184-.004.276l-.003.43c-.005 1.098-.268 1.79-1.046 2.562-.137.136-.275.27-.415.404-.304.294-.527.547-.596.98l-.002.201-.006.2c.119.642.664 1.062 1.118 1.487.52.501.869 1.036.922 1.775l.002.25a56.06 56.06 0 01.007.708c.003.624.01 1.113.435 1.606l.116.092.115.096c.304.198.568.238.928.242l.268.005.416.005c1.046.011 1.754.191 2.507.94.099.1.197.203.294.306.412.433.75.79 1.38.845.68-.017 1.088-.457 1.53-.919.586-.606 1.098-1.107 1.985-1.145l.253-.002.279-.005c.145-.002.29-.005.434-.005.666-.005 1.168-.02 1.668-.508.417-.62.384-1.243.384-1.961.001-.738.048-1.388.585-1.944l.161-.169a98.254 98.254 0 01.723-.715c.369-.36.556-.679.573-1.192l.008-.147c-.111-.682-.644-1.083-1.123-1.529-.45-.431-.866-.942-.9-1.593l-.003-.255a261.875 261.875 0 00-.013-.72c-.001-.936-.001-.936-.438-1.742l-.096-.113c-.295-.253-.581-.335-.965-.34l-.247-.006-.256-.002c-1.096-.016-1.92-.069-2.728-.877a43.236 43.236 0 01-.458-.49c-.389-.406-.75-.674-1.317-.744-.796.101-1.272.633-1.798 1.194zm-5.79 14.366l-.184.18-.175.174-.161.159c-.138.175-.183.278-.194.5.046.067.09.135.137.205.139.031.139.031.301.027l.189.003h.204l.21.003c.221.003.443.004.664.005l.664.007.414.003.189.002h.167c.143.018.143.018.348.155.026.134.026.134.027.3l.003.19v.204l.003.21a146.758 146.758 0 00.015 1.742c0 .062 0 .124.002.189v.166c.01.164.01.164.155.349.24.035.363.032.566-.107l.148-.15.17-.17.18-.187.186-.188c.163-.165.326-.331.487-.498.166-.17.333-.338.5-.507.326-.33.651-.663.976-.996-.167-.349-.421-.583-.692-.855l-.153-.157c-.57-.573-.957-.728-1.769-.735h-.283c-1.525-.003-1.525-.003-2.055-.44l-.128-.103c-.116-.103-.116-.103-.225-.218-.293-.275-.685.337-.886.538zm14.325-.628l-.12.157c-.172.208-.32.291-.563.407l-.214.104c-.324.139-.587.161-.94.165l-.28.004c-.146.003-.291.005-.437.006-.775.006-1.228.07-1.796.61-.109.11-.216.221-.323.333l-.167.17c-.102.104-.203.208-.303.313-.085.087-.17.174-.257.26a733.772 733.772 0 001.63 1.64c.197.2.395.398.593.597.093.093.093.093.187.19.058.056.115.114.174.173l.154.154c.132.132.132.132.338.186.16-.048.16-.048.274-.205.042-.222.038-.443.037-.669l.002-.199a110.646 110.646 0 01.008-1.263c.002-.13.002-.262.002-.393l.002-.18v-.158a.922.922 0 01.154-.42c.159-.079.255-.078.432-.08l.186-.004.2-.003.205-.004.873-.014.635-.012.2-.003.186-.003.163-.003c.138-.002.138-.002.27-.078.06-.127.06-.127.068-.274-.063-.12-.063-.12-.175-.23a91.686 91.686 0 00-.132-.141l-.172-.176-.114-.118a65.078 65.078 0 00-.386-.395l-.129-.131a139.699 139.699 0 00-.232-.234c-.093-.093-.093-.093-.233-.079z" fill="#000" stroke="#000" stroke-width="3" mask="url(#path-1-inside-1_6003_46744)"/><mask id="path-2-inside-2_6003_46744" fill="#fff"><path d="M28.933 17.601l.325.308.127.112c.914.834 1.52 2.232 1.59 3.456.055 1.734-.312 3.185-1.474 4.515-.103.11-.207.218-.312.325l-.137.142c-1.047 1.01-2.557 1.506-3.992 1.5-1.67-.039-3.131-.726-4.3-1.903-1.177-1.236-1.542-2.78-1.507-4.432.023-.54.119-1.017.298-1.528l.075-.22c.521-1.375 1.611-2.51 2.938-3.131 2.11-.935 4.616-.694 6.37.856zm-7.816 1.295c-.83 1.112-1.242 2.455-1.054 3.842.172.945.488 1.714 1.06 2.485l.102.139c.796.997 2.063 1.615 3.316 1.775 1.445.082 2.806-.288 3.91-1.256.11-.104.22-.21.328-.316l.13-.127c.994-1.053 1.275-2.375 1.256-3.777-.043-1.319-.671-2.374-1.59-3.274-.05-.05-.097-.1-.147-.153-.862-.847-2.12-1.233-3.306-1.248-1.562.02-2.995.713-4.005 1.91z"/></mask><path d="M28.933 17.601l.325.308.127.112c.914.834 1.52 2.232 1.59 3.456.055 1.734-.312 3.185-1.474 4.515-.103.11-.207.218-.312.325l-.137.142c-1.047 1.01-2.557 1.506-3.992 1.5-1.67-.039-3.131-.726-4.3-1.903-1.177-1.236-1.542-2.78-1.507-4.432.023-.54.119-1.017.298-1.528l.075-.22c.521-1.375 1.611-2.51 2.938-3.131 2.11-.935 4.616-.694 6.37.856zm-7.816 1.295c-.83 1.112-1.242 2.455-1.054 3.842.172.945.488 1.714 1.06 2.485l.102.139c.796.997 2.063 1.615 3.316 1.775 1.445.082 2.806-.288 3.91-1.256.11-.104.22-.21.328-.316l.13-.127c.994-1.053 1.275-2.375 1.256-3.777-.043-1.319-.671-2.374-1.59-3.274-.05-.05-.097-.1-.147-.153-.862-.847-2.12-1.233-3.306-1.248-1.562.02-2.995.713-4.005 1.91z" fill="#000"/><path d="M28.933 17.601l1.027-1.093-.016-.015-.017-.015-.994 1.123zm.325.308l-1.036 1.085.022.021.024.02.99-1.126zm.127.112l1.011-1.108-.01-.01-.01-.01-.99 1.128zm1.59 3.456l1.5-.047-.001-.02-.001-.018-1.498.085zm-1.474 4.515l1.093 1.028.019-.02.018-.02-1.13-.988zm-.312.325l-1.07-1.05-.01.009 1.08 1.041zm-.137.142l1.041 1.08.02-.019.019-.02-1.08-1.04zm-3.992 1.5l-.036 1.5h.03l.006-1.5zm-4.3-1.903l-1.086 1.034.01.012.012.01 1.064-1.056zm-1.507-4.432l-1.498-.062-.001.015v.015l1.5.032zm.298-1.528l1.415.497.004-.011-1.42-.486zm.075-.22l-1.403-.53-.009.022-.008.024 1.42.485zm2.938-3.131l-.608-1.372-.014.007-.015.006.637 1.359zm-1.447 2.151l-1.146-.967-.03.034-.027.036 1.203.897zm-1.054 3.842l-1.486.203.004.033.006.034 1.476-.27zm1.06 2.485l1.206-.891-.001-.002-1.205.893zm.102.139l-1.206.891.017.023.017.022 1.172-.936zm3.316 1.775l-.19 1.488.052.007.053.003.085-1.498zm3.91-1.256l.989 1.128.02-.018.018-.017-1.028-1.093zm.328-.316l-1.05-1.072-.001.003 1.051 1.07zm.13-.127l1.05 1.071.02-.02.02-.021-1.09-1.03zm1.256-3.777l1.5-.021v-.028l-1.5.049zm-1.59-3.274l-1.085 1.037.017.018.018.018 1.05-1.073zm-.147-.153l1.084-1.036-.016-.017-.017-.016-1.051 1.07zm-3.306-1.248l.02-1.5h-.04l.02 1.5zm2.784 1.708l.316.3 2.072-2.17a57.311 57.311 0 00-.334-.316l-2.054 2.186zm.362.342l.127.112 1.98-2.254-.127-.112-1.98 2.254zm.106.093c.595.542 1.054 1.558 1.104 2.434l2.995-.171c-.09-1.574-.844-3.354-2.077-4.48l-2.022 2.217zm1.102 2.396c.046 1.454-.25 2.503-1.104 3.48l2.259 1.974c1.47-1.683 1.907-3.536 1.844-5.549l-2.999.095zm-1.067 3.44a27.74 27.74 0 01-.29.302l2.141 2.1c.113-.114.224-.23.334-.347l-2.185-2.056zm-.3.31l-.137.143 2.16 2.083.137-.143-2.16-2.082zm-.098.104c-.716.69-1.825 1.085-2.946 1.08l-.01 3c1.75.007 3.66-.591 5.038-1.92l-2.082-2.16zm-2.916 1.081c-1.247-.03-2.35-.534-3.27-1.461l-2.13 2.114c1.417 1.426 3.238 2.297 5.329 2.346l.071-2.999zm-3.249-1.439c-.812-.853-1.123-1.954-1.093-3.365l-3-.064c-.04 1.895.38 3.88 1.92 5.498l2.173-2.069zm-1.094-3.335a3.59 3.59 0 01.214-1.093l-2.83-.993a6.588 6.588 0 00-.381 1.962l2.997.124zm.218-1.104l.075-.22-2.839-.97-.075.22 2.84.97zm.058-.173c.377-.994 1.181-1.842 2.172-2.306l-1.273-2.717c-1.661.779-3.037 2.2-3.704 3.96l2.805 1.063zm2.143-2.293c1.643-.727 3.508-.506 4.768.609l1.988-2.247c-2.246-1.986-5.391-2.247-7.97-1.105l1.214 2.743zM19.914 18c-1.034 1.386-1.585 3.117-1.337 4.942l2.972-.405c-.129-.95.146-1.906.77-2.743L19.914 18zm-1.327 5.009c.21 1.15.61 2.138 1.331 3.11l2.41-1.788c-.424-.572-.655-1.123-.79-1.86l-2.95.538zm1.33 3.107l.102.138 2.412-1.783-.102-.138-2.412 1.783zm.136.183c1.08 1.35 2.727 2.126 4.298 2.327l.38-2.976c-.934-.119-1.82-.58-2.334-1.223l-2.344 1.872zm4.403 2.337c1.765.1 3.534-.354 4.984-1.626l-1.98-2.255c-.755.664-1.708.95-2.834.886l-.17 2.995zm5.022-1.661c.118-.111.236-.224.353-.34l-2.103-2.139c-.1.099-.202.196-.306.294l2.056 2.185zm.35-.337c.044-.042.087-.084.13-.128l-2.098-2.143-.13.128 2.099 2.143zm.172-.17c1.367-1.447 1.687-3.22 1.665-4.827l-3 .041c.017 1.2-.225 2.07-.846 2.727l2.18 2.06zm1.664-4.855c-.059-1.823-.943-3.223-2.04-4.297l-2.099 2.145c.741.725 1.114 1.436 1.14 2.25l3-.098zm-2.006-4.261l-.146-.153-2.168 2.073.146.153 2.168-2.073zm-.179-.186c-1.21-1.19-2.882-1.66-4.338-1.679l-.038 3c.915.012 1.76.314 2.273.818l2.103-2.14zm-4.376-1.679c-2.01.026-3.849.922-5.133 2.443l2.293 1.935c.737-.873 1.762-1.364 2.878-1.378l-.038-3z" fill="#000" mask="url(#path-2-inside-2_6003_46744)"/><mask id="path-4-inside-3_6003_46744" fill="#fff"><path d="M25.575 18.192c.466.304.657.747.897 1.234.127.206.167.261.393.33.227.044.454.082.682.115.414.069.755.239 1.027.569.118.354.16.76-.002 1.106-.15.206-.312.374-.506.54-.332.273-.332.273-.473.66.021.214.056.422.092.633.055.825.055.825-.102 1.205-.255.242-.5.407-.854.454-.417-.016-.774-.21-1.135-.404-.292-.15-.465-.19-.78-.093a6.9 6.9 0 00-.397.205c-.458.236-.793.343-1.295.201-.3-.179-.506-.344-.604-.683-.049-.332-.017-.624.041-.954.085-.433.085-.433-.01-.853a3.482 3.482 0 00-.4-.377c-.57-.544-.57-.544-.633-.96-.006-.336.064-.631.29-.885.323-.227.56-.296.948-.332.525-.056.525-.056.95-.343.173-.26.297-.53.42-.816.126-.287.27-.415.554-.56a1.26 1.26 0 01.897.008zm-.659.81c-.178.243-.303.516-.434.786-.146.285-.27.487-.556.652a5.95 5.95 0 01-.692.145 50.496 50.496 0 00-.532.092c-.163.033-.163.033-.349.173.026.339.196.496.436.713.311.284.56.544.612.979l-.005.192-.005.213a17.58 17.58 0 01-.079.937l-.002.179.137.137c.365-.026.697-.224 1.021-.38.31-.143.546-.213.893-.167.205.077.396.175.59.277.37.21.37.21.779.252l.135-.05c.079-.291.052-.514 0-.808-.07-.46-.115-.808.098-1.235.203-.275.465-.503.713-.735.14-.156.19-.232.215-.436-.295-.287-.7-.298-1.088-.361-.385-.07-.62-.163-.895-.46-.15-.228-.27-.47-.392-.715l-.076-.144-.066-.131c-.076-.115-.076-.115-.22-.156-.136-.03-.136-.03-.238.051z"/></mask><path d="M25.575 18.192c.466.304.657.747.897 1.234.127.206.167.261.393.33.227.044.454.082.682.115.414.069.755.239 1.027.569.118.354.16.76-.002 1.106-.15.206-.312.374-.506.54-.332.273-.332.273-.473.66.021.214.056.422.092.633.055.825.055.825-.102 1.205-.255.242-.5.407-.854.454-.417-.016-.774-.21-1.135-.404-.292-.15-.465-.19-.78-.093a6.9 6.9 0 00-.397.205c-.458.236-.793.343-1.295.201-.3-.179-.506-.344-.604-.683-.049-.332-.017-.624.041-.954.085-.433.085-.433-.01-.853a3.482 3.482 0 00-.4-.377c-.57-.544-.57-.544-.633-.96-.006-.336.064-.631.29-.885.323-.227.56-.296.948-.332.525-.056.525-.056.95-.343.173-.26.297-.53.42-.816.126-.287.27-.415.554-.56a1.26 1.26 0 01.897.008zm-.659.81c-.178.243-.303.516-.434.786-.146.285-.27.487-.556.652a5.95 5.95 0 01-.692.145 50.496 50.496 0 00-.532.092c-.163.033-.163.033-.349.173.026.339.196.496.436.713.311.284.56.544.612.979l-.005.192-.005.213a17.58 17.58 0 01-.079.937l-.002.179.137.137c.365-.026.697-.224 1.021-.38.31-.143.546-.213.893-.167.205.077.396.175.59.277.37.21.37.21.779.252l.135-.05c.079-.291.052-.514 0-.808-.07-.46-.115-.808.098-1.235.203-.275.465-.503.713-.735.14-.156.19-.232.215-.436-.295-.287-.7-.298-1.088-.361-.385-.07-.62-.163-.895-.46-.15-.228-.27-.47-.392-.715l-.076-.144-.066-.131c-.076-.115-.076-.115-.22-.156-.136-.03-.136-.03-.238.051z" fill="#000"/><path d="M25.575 18.192l.82-1.256-.147-.096-.165-.059-.508 1.411zm.897 1.234l-1.344.665.03.063.038.06 1.276-.788zm.393.33l-.438 1.435.076.023.078.015.284-1.473zm.682.115l.246-1.48-.016-.002-.015-.003-.215 1.485zm1.027.569l1.423-.475-.088-.265-.178-.216-1.157.956zm-.002 1.106l1.213.883.085-.116.06-.13-1.357-.637zm-.506.54l.955 1.156.008-.007.008-.007-.971-1.143zm-.473.66l-1.41-.512-.116.32.033.34 1.493-.147zm.092.633l1.497-.099-.005-.076-.013-.076-1.479.251zm-.102 1.205l1.033 1.088.231-.22.122-.295-1.386-.573zm-.854.454l-.057 1.499.128.005.127-.017-.198-1.487zm-1.135-.404l.708-1.322-.01-.006-.012-.006-.686 1.334zm-.78-.093l-.443-1.433-.103.032-.097.046.643 1.355zm-.397.205l.685 1.335.023-.012.022-.012-.73-1.31zm-1.295.201l-.768 1.289.17.1.19.054.408-1.443zm-.604-.683l-1.485.217.015.103.03.1 1.44-.42zm.041-.954l-1.472-.287-.002.013-.003.013 1.477.261zm-.01-.853l1.463-.332-.086-.376-.256-.289-1.121.997zm-.4-.377l-1.037 1.085.04.038.042.035.954-1.158zm-.633-.96l-1.5.027.002.098.015.097 1.483-.223zm.29-.885l-.86-1.228-.144.1-.116.13 1.12.998zm.948-.332l.143 1.493.007-.001h.008l-.158-1.492zm.95-.343l.841 1.242.243-.165.164-.245-1.248-.832zm.42-.816l-1.372-.608-.004.009-.003.008 1.378.59zm.554-.56l-.475-1.423-.108.036-.102.052.685 1.335zm.238.818l-.934-1.173-.156.124-.118.16 1.208.89zm-.434.786l1.337.68.005-.01.006-.012-1.348-.658zm-.556.652l.417 1.44.175-.05.158-.091-.75-1.3zm-.692.145l-.245-1.48-.01.002.255 1.478zm-.368.065l.246 1.48.01-.002.008-.002-.264-1.476zm-.164.027l-.247-1.48-.024.004-.025.005.296 1.47zm-.349.173l-.904-1.197-.653.494.062.817 1.495-.114zm.436.713l1.011-1.107-.003-.004-1.008 1.111zm.612.979l1.5.042.003-.11-.013-.11-1.49.178zm-.005.192l-1.5-.042v.008l1.5.034zm-.005.213l1.498.082.001-.024v-.024l-1.499-.034zm-.079.937l-1.491-.161-.008.074v.073l1.499.014zm-.002.179l-1.5-.014-.005.63.445.444 1.06-1.06zm.137.137l-1.06 1.06.484.484.683-.048-.107-1.497zm1.021-.38l-.626-1.363-.013.005-.013.007.652 1.35zm.893-.167l.531-1.403-.162-.061-.171-.023-.198 1.487zm.59.277l.74-1.305-.02-.01-.019-.01-.701 1.325zm.779.252l-.154 1.492.352.037.332-.125-.53-1.404zm.135-.05l.53 1.402.717-.27.2-.74-1.447-.393zm0-.808l-1.483.226.003.017.003.017 1.477-.26zm.098-1.235l-1.207-.89-.077.104-.057.115 1.341.67zm.713-.735l1.027 1.093.044-.042.04-.044-1.111-1.008zm.215-.436l1.49.175.085-.732-.527-.515-1.049 1.072zm-1.088-.361l-.272 1.475.016.003.016.003.24-1.481zm-.895-.46l-1.255.823.07.107.088.094 1.097-1.023zm-.392-.715l1.34-.674-.007-.012-.006-.012-1.327.698zm-.076-.144l-1.34.673.005.013.007.012 1.328-.698zm-.066-.131l1.34-.673-.04-.081-.05-.076-1.25.83zm-.22-.156l.41-1.442-.043-.013-.044-.01-.324 1.465zm-.399.498c.018.011.043.029.095.108.03.046.065.108.112.2.052.1.095.19.166.334l2.689-1.33c-.185-.373-.544-1.252-1.423-1.825l-1.639 2.513zm.441.765c.035.057.19.327.438.549.297.264.612.372.793.428l.876-2.87c-.044-.013.137.033.326.201.084.075.133.14.147.161.009.012.008.012-.027-.045l-2.553 1.576zm1.385 1.015c.251.049.501.09.752.127l.43-2.97c-.208-.03-.411-.063-.613-.103l-.57 2.946zm.721.122a.522.522 0 01.098.026h.001l.017.018 2.313-1.91c-.539-.652-1.226-.976-1.938-1.094l-.49 2.96zm-.15-.437a.685.685 0 01.027.122c0 .007-.002-.046.035-.127l2.717 1.274c.395-.843.241-1.691.066-2.218l-2.846.95zm.208-.251a1.54 1.54 0 01-.265.279l1.942 2.286c.27-.229.517-.481.748-.799l-2.425-1.766zm-.25.265c-.071.06-.167.138-.25.213-.092.085-.21.202-.322.36-.206.288-.311.614-.355.733l2.82 1.025.023-.064.018-.05a2.44 2.44 0 01.012-.03l.003-.007.001-.003-.005.012a.776.776 0 01-.077.128.947.947 0 01-.07.086c-.017.02-.028.03-.025.027a.744.744 0 01.04-.034l.042-.036.056-.046-1.91-2.314zm-1.01 1.965c.027.275.072.536.107.738l2.957-.503a7.657 7.657 0 01-.078-.528l-2.986.293zm.089.585c.014.213.023.348.027.448.004.102.001.116.003.096a.624.624 0 01.025-.128c.002-.005 0 .004-.047.117l2.772 1.146c.07-.167.204-.466.24-.881.024-.294-.004-.648-.027-.996l-2.993.198zm.36.018a1.18 1.18 0 01-.08.073c-.016.012-.02.012-.012.008a.24.24 0 01.074-.026l.396 2.974c.793-.106 1.317-.5 1.689-.853l-2.066-2.175zm.236.043c.014 0-.006.004-.085-.028a4.324 4.324 0 01-.398-.2l-1.417 2.645c.298.16.964.55 1.787.58l.113-2.997zm-.505-.239a2.668 2.668 0 00-.861-.291 2.383 2.383 0 00-1.048.1l.886 2.865c.017-.005-.006.004-.054.01a.788.788 0 01-.196-.004c-.138-.019-.204-.066-.1-.013L26.28 23.3zm-2.11-.114a8.419 8.419 0 00-.483.25l1.46 2.62c.104-.057.207-.11.311-.16l-1.287-2.71zm-.438.226a2.221 2.221 0 01-.191.09c-.037.015-.045.015-.034.013a.218.218 0 01.05-.004c.015.001.009.003-.026-.007l-.817 2.886c.45.128.895.159 1.351.072.421-.08.775-.247 1.037-.381l-1.37-2.669zm.159.247a1.283 1.283 0 01-.093-.059c-.009-.007.006.003.03.03a.59.59 0 01.13.215l-2.88.84c.259.888.868 1.307 1.276 1.55l1.537-2.576zm.11.388c-.013-.097-.013-.203.035-.475l-2.954-.523c-.068.388-.132.865-.049 1.432l2.969-.434zm.03-.449c.031-.156.094-.44.09-.738-.003-.301-.075-.584-.11-.735l-2.925.664a14.057 14.057 0 01.041.188c.003.015-.005-.02-.005-.08-.001-.058.006-.092.003-.073a17.555 17.555 0 01-.037.198l2.944.576zm-.361-2.138a4.975 4.975 0 00-.568-.537l-1.908 2.315c.116.095.182.157.234.216l2.241-1.994zm-.485-.464l-.181-.174a5.88 5.88 0 01-.148-.149c0 .001.017.02.04.054a.913.913 0 01.116.259c.006.024.007.034.004.015a5.168 5.168 0 01-.017-.105l-2.966.446c.022.152.066.594.356 1.034.119.18.253.326.355.43.104.107.233.23.368.359l2.073-2.169zm-.17.095c0-.057.007-.05-.007-.006a.411.411 0 01-.081.147l-2.24-1.995c-.554.621-.682 1.33-.67 1.91l2.999-.056zm-.347.372a.68.68 0 01.068-.044c.006-.003.005-.002 0 0-.006.002.021-.01.16-.023l-.284-2.987c-.588.056-1.088.192-1.667.598l1.723 2.456zm.244-.069c.188-.02.534-.046.864-.165.336-.121.618-.325.77-.427l-1.684-2.484a17.504 17.504 0 01-.191.127c-.017.01.02-.014.087-.038.064-.023.105-.028.08-.024a18.645 18.645 0 01-.241.028l.315 2.983zm2.04-1.002c.253-.38.422-.758.55-1.058l-2.757-1.181a3.533 3.533 0 01-.29.574l2.497 1.665zm.543-1.041c.006-.014.001 0-.017.027a.627.627 0 01-.083.101c-.069.068-.114.081-.033.04l-1.369-2.67a2.8 2.8 0 00-.704.493 2.535 2.535 0 00-.537.794l2.743 1.215zm-.343.256l.016-.005a.31.31 0 01-.11-.002c-.01-.002-.01-.003.009.004l1.016-2.823a2.754 2.754 0 00-1.88-.02l.949 2.846zm-1.444-1.494c-.279.38-.471.806-.574 1.017l2.696 1.316c.16-.329.217-.449.294-.555l-2.416-1.778zm-.563.994a3.202 3.202 0 01-.06.113c-.011.018-.011.016 0 .003a.403.403 0 01.09-.082l1.5 2.598c.67-.386.959-.907 1.143-1.27l-2.673-1.362zm.364-.108a4.533 4.533 0 01-.52.106l.489 2.96c.236-.039.543-.091.865-.184l-.834-2.882zm-.53.108a58.89 58.89 0 00-.378.066l.53 2.953.357-.063-.509-2.956zm-.36.063l-.164.027.493 2.96.164-.028-.493-2.959zm-.213.036c-.029.006-.28.047-.537.174-.12.06-.214.123-.27.163-.054.037-.11.08-.15.11l1.808 2.394.055-.041.017-.012-.034.022a1.104 1.104 0 01-.308.133l-.026.006.036-.008-.59-2.94zm-1.548 1.758c.075.985.69 1.498.924 1.71l2.015-2.222a2.993 2.993 0 01-.107-.1c-.013-.012.005.004.032.043a.751.751 0 01.127.341l-2.991.227zm.92 1.707c.07.064.114.106.146.14l.037.041a.319.319 0 01-.049-.133l2.979-.354c-.122-1.023-.76-1.607-1.09-1.91l-2.023 2.216zm.124-.17l-.006.191 3 .084.005-.192-3-.084zm-.006.2l-.005.213 3 .067.005-.213-3-.068zm-.003.165c-.015.277-.04.56-.072.857l2.982.322c.036-.327.067-.668.086-1.016l-2.996-.163zm-.08 1.004l-.002.18 3 .026.001-.179-3-.027zm.437 1.253v.001l.001.001c.001 0 0 0 0 0h.001v.001c.004.003-.002-.002 0 0h.001v.001h.001v.001h.001v.001h.001l.001.002h.001v.001h.001v.001h.001v.001h.001v.001l.002.001v.001l.002.001v.001h.001v.001h.001v.001h.001v.002h.002v.001l.002.001c0 .001-.001 0 0 0l.001.002h.001v.001h.001v.001h.001v.001h.001l.001.002.001.001c.003.003 0 0 .002.001v.001l.002.001v.001h.001v.001l.002.001c0 .001 0 0 0 0v.002h.002v.001l.002.002h.001v.001h.001v.001h.001l.001.002.001.001.001.001c.001.001 0 0 0 0l.001.001c.004.003-.002-.003.001 0v.001l.002.001v.001h.001v.001l.002.001v.002h.001l.001.001.002.002c.003.003-.002-.002.001 0v.001h.001v.001h.001l.001.002h.001v.001l.001.001h.001v.001l.002.001v.001h.001v.001h.001v.001h.001v.001l.002.002c.003.002-.003-.003 0 0h.001v.001h.001v.001h.001l.001.002h.001v.001h.001l.001.002h.001v.001c.001 0 0 0 0 0l.001.001h.001v.001h.001v.001l.002.001v.001h.001v.001l.002.002c.002.002 0 0 0 0l.002.001v.001h.001l.001.002h.001v.001h.001v.001l.001.001h.001v.001h.001v.001h.001v.001c.003.003-.001-.002.001 0v.001l.002.001v.002h.002v.001l.002.002h.001c.002.002 0 0 0 .001h.001v.001h.001v.001l.001.001.001.001c.001.001 0 0 0 0l.001.001h.001v.001h.001v.001h.001v.001h.001v.002c.003.002 0-.002.001 0 .003.003-.002-.002 0 0l.002.002h.001v.001h.001v.001h.001l.001.002.001.001.002.001v.001l.002.001c.002.002-.001 0 0 .001h.001v.002h.002v.001h.001v.001h.001v.001h.001v.001h.001l.001.002.001.001h.001v.001l2.122-2.121-.001-.001-.001-.001c-.003-.003 0 0-.002-.001v-.001l-.001-.001-.001-.001-.002-.002-.001-.001-.001-.001-.001-.001-.001-.001-.001-.001-.001-.001-.001-.001-.001-.001-.001-.001-.001-.001-.002-.002-.001-.001c-.002-.002 0 0 0 0l-.001-.001h-.001l-.001-.002-.001-.001-.001-.001-.001-.001-.001-.001-.001-.001h-.001c-.002-.003.001 0 0-.002h-.001l-.002-.002-.001-.001-.001-.001-.002-.002-.001-.001-.001-.001-.001-.001-.001-.001-.001-.001-.001-.001-.001-.001-.001-.001-.002-.002-.001-.001-.002-.002-.001-.001-.001-.001-.001-.001-.001-.001-.001-.001-.001-.001c-.002-.002 0 0 0 0l-.001-.001-.001-.001c-.004-.004.002.002-.002-.001v-.001l-.001-.001-.001-.001-.001-.001-.001-.001c-.001-.001 0 0 0 0l-.001-.001-.001-.001-.001-.001-.001-.001-.001-.001-.001-.001-.001-.001-.001-.001c-.003-.003.002.002 0 0l-.001-.001-.001-.001-.001-.001-.001-.001-.001-.001c-.001-.001 0 0 0 0l-.001-.001-.002-.002-.001-.001c-.001-.001 0 0 0 0l-.001-.001-.002-.002-.001-.001c-.001-.001 0 0 0 0l-.001-.001-.001-.001-.001-.001-.001-.001-.001-.001c-.001-.001 0 0 0 0l-.001-.001-.001-.001-.001-.001-.001-.001-.001-.001-.001-.001-.001-.001-.001-.001-.001-.001-.001-.001-.002-.001v-.001l-.001-.001-.001-.001-.001-.001-.001-.001-.001-.001-.001-.001-.001-.001-.002-.001v-.001l-.001-.001-.001-.001-.001-.001-.001-.001-.001-.001c-.001-.001 0 0 0 0l-.001-.001-.002-.002-.001-.001-.001-.001-.001-.001-.001-.001-.001-.001-.001-.001-.001-.001-.001-.001-.001-.001-.001-.001-.001-.001-.002-.002-.001-.001c-.002-.002.001.001 0 0l-.001-.001-.002-.002-2.122 2.12zm1.304.573c.735-.053 1.43-.46 1.567-.526l-1.305-2.701c-.089.043-.2.1-.26.129a3.442 3.442 0 01-.172.08c-.093.04-.094.029-.044.025l.214 2.993zm1.541-.514c.056-.026.09-.039.108-.046.018-.006.018-.005.006-.003a.264.264 0 01-.044.006h-.001l.395-2.973c-.735-.098-1.27.085-1.717.29l1.253 2.726zm-.265-.127c.11.042.23.101.42.201l1.402-2.651a6.633 6.633 0 00-.76-.355l-1.062 2.805zm.381.18c.131.075.376.222.653.311.282.091.567.113.712.128l.308-2.984-.123-.013a1.892 1.892 0 01-.058-.007c-.012-.002.026.003.084.022.056.018.088.035.072.027a2.104 2.104 0 01-.056-.03l-.113-.064-1.479 2.61zm2.049.35l.135-.05-1.06-2.807-.135.05 1.06 2.808zm1.053-1.061c.168-.621.09-1.116.03-1.46l-2.955.52a3.113 3.113 0 01.027.184v-.018l.002-.012 2.896.786zm.035-1.427a5.597 5.597 0 01-.035-.255.787.787 0 01-.006-.098c0-.006 0 0-.003.014-.003.013-.005.015.001.002l-2.683-1.342c-.445.89-.31 1.669-.24 2.132l2.966-.453zm-.177-.119c.099-.133.22-.238.532-.532l-2.055-2.186c-.183.173-.586.524-.892.94l2.415 1.778zm.616-.617c.074-.082.24-.264.371-.516.146-.282.198-.547.222-.752l-2.98-.35c0 .004.004-.03.018-.082a.993.993 0 01.16-.33c.012-.015.014-.015-.014.015l2.223 2.015zm.152-2.515a2.561 2.561 0 00-1.194-.648c-.264-.066-.65-.113-.703-.122l-.479 2.962.177.026.136.02c.082.012.121.02.143.025.02.004.001.002-.036-.017a.572.572 0 01-.141-.101l2.097-2.145zm-1.865-.764a1.287 1.287 0 01-.118-.026c-.013-.004-.003-.002.017.008a.307.307 0 01.052.032c.01.007.004.004-.02-.02l-2.194 2.045c.236.253.506.473.845.638.32.157.63.228.875.273l.543-2.95zm.089.194c-.094-.143-.173-.3-.308-.568l-2.68 1.349c.112.22.272.548.478.863l2.51-1.644zm-.32-.592l-.076-.144-2.655 1.396.076.145 2.655-1.397zm-.063-.119l-.066-.131-2.68 1.346.065.131 2.681-1.346zm-.156-.288c-.008-.011-.056-.085-.11-.154a1.674 1.674 0 00-.777-.56 2.59 2.59 0 00-.172-.054l-.823 2.885c.054.015.03.009-.003-.002a1.326 1.326 0 01-.599-.434c-.027-.036-.046-.067-.016-.022l2.5-1.659zm-1.147-.79a2.347 2.347 0 00-.192-.037 1.627 1.627 0 00-1.14.257c-.081.055-.158.118-.163.122l1.87 2.346c.044-.036.006-.003-.044.03a1.375 1.375 0 01-.946.215c-.05-.007-.088-.017-.032-.004l.647-2.93z" fill="#000" mask="url(#path-4-inside-3_6003_46744)"/><mask id="path-6-inside-4_6003_46744" fill="#fff"><path d="M10.497 1.785c.235.06.235.06.372.265.044.271.075.565-.076.804-.095.093-.095.093-.266.221a6.901 6.901 0 01-.41-.136c-.092-.185-.082-.337-.085-.543l-.006-.22c.023-.194.023-.194.111-.323.117-.077.117-.077.36-.068z"/></mask><path d="M10.497 1.785c.235.06.235.06.372.265.044.271.075.565-.076.804-.095.093-.095.093-.266.221a6.901 6.901 0 01-.41-.136c-.092-.185-.082-.337-.085-.543l-.006-.22c.023-.194.023-.194.111-.323.117-.077.117-.077.36-.068z" fill="#000"/><path d="M10.497 1.785l.37-1.454-.156-.04-.161-.005-.053 1.499zm.372.265l1.481-.239-.052-.322-.18-.271-1.249.832zm-.076.804l1.053 1.068.121-.12.092-.144-1.266-.804zm-.266.221L10.1 4.513l.724.216.604-.454-.9-1.2zm-.41-.136l-1.341.67.266.532.558.206.517-1.408zm-.085-.543l1.5-.022V2.36l-1.5.036zm-.006-.22l-1.49-.172-.012.104.003.105 1.5-.037zm.111-.323L9.317.596 9.069.76l-.168.246 1.237.848zm-.01 1.386c.079.02.064.017.038.008a1.204 1.204 0 01-.315-.162 1.198 1.198 0 01-.253-.24c-.015-.02-.021-.03.024.037l2.496-1.664c-.023-.035-.08-.123-.142-.202a1.805 1.805 0 00-.384-.375 1.799 1.799 0 00-.485-.243c-.097-.031-.2-.057-.239-.067l-.74 2.908zm-.739-.95c.01.056.014.089.016.112.002.022 0 .02.001.002a.743.743 0 01.121-.353l2.533 1.608c.494-.777.326-1.627.291-1.847l-2.962.477zm.351-.503l-.026.026-.009.008a.55.55 0 01.024-.02c.007-.007.008-.007-.01.008l-.09.067 1.8 2.4c.069-.052.15-.113.221-.171a2.85 2.85 0 00.197-.182L9.738 1.786zm1.216-.148a5.413 5.413 0 01-.32-.107L9.6 4.347c.162.059.328.115.5.166l.856-2.875zm.504.63a.757.757 0 01.073.245c.002.02.002.025.001-.001v-.053l-.002-.085-3 .044c.002.087-.034.634.245 1.191l2.683-1.341zm.072.092l-.005-.22-3 .073.006.22 3-.073zm-.014-.012l.006-.058a1.21 1.21 0 01-.153.415l-.015.024.02-.029L8.9 1.005c-.013.019-.058.084-.099.15a1.797 1.797 0 00-.243.678c-.01.064-.017.134-.022.171l2.98.344zm-.56.761l.013-.009c-.005.003-.03.019-.067.038a1.268 1.268 0 01-.497.141l-.052.002h.02l.07.003.106-2.998C10.5.284 10.424.28 10.355.28c-.068 0-.203.002-.362.032-.388.073-.666.277-.675.283l1.639 2.513z" fill="#000" mask="url(#path-6-inside-4_6003_46744)"/><mask id="path-8-inside-5_6003_46744" fill="#fff"><path d="M25.498 10.39c.184.183.157.286.158.542l.004.22c-.025.194-.025.194-.116.32-.182.126-.31.115-.525.08-.18-.194-.218-.364-.226-.62.029-.363.029-.363.158-.543.199-.1.335-.049.547 0z"/></mask><path d="M25.498 10.39c.184.183.157.286.158.542l.004.22c-.025.194-.025.194-.116.32-.182.126-.31.115-.525.08-.18-.194-.218-.364-.226-.62.029-.363.029-.363.158-.543.199-.1.335-.049.547 0z" fill="#000"/><path d="M25.498 10.39l1.06-1.062-.305-.305-.42-.096-.335 1.462zm.158.542l-1.5.005v.018l1.5-.023zm.004.22l1.487.19.014-.107-.002-.107-1.5.023zm-.116.32l.852 1.235.213-.148.151-.21-1.216-.877zm-.525.08l-1.094 1.025.347.37.5.084.247-1.48zm-.226-.62l-1.495-.119-.007.083.003.083 1.499-.047zm.158-.543l-.67-1.342-.331.166-.216.3 1.217.876zm-.514 1.06a.874.874 0 01-.128-.17 1.13 1.13 0 01-.133-.347c-.02-.098-.02-.167-.02-.152v.157l3-.01v-.177a1.957 1.957 0 00-.598-1.421l-2.12 2.12zm-.28-.494l.003.22 3-.047-.004-.22-3 .047zm.015.007l-.008.056c.003-.014.016-.09.051-.19a1.243 1.243 0 01.132-.26l-.02.027 2.433 1.755c.007-.01.176-.224.277-.503.085-.234.108-.486.11-.506l-2.975-.38zm.519-.724a1.043 1.043 0 01.611-.16c.015.001.013.002-.036-.006l-.493 2.959c.093.015.366.065.675.033a2.02 2.02 0 00.948-.357l-1.705-2.469zm1.423.287c.012.014.04.046.071.096.032.052.06.11.08.169.035.108.03.174.027.094l-2.998.095c.005.177.023.456.125.762.11.332.29.606.506.836l2.189-2.052zm.174.525l.01-.11.004-.053c.003-.022-.002.037-.027.124a1.15 1.15 0 01-.114.262c-.014.023-.024.036-.02.032l.027-.04-2.434-1.752c-.033.045-.235.3-.34.659a2.244 2.244 0 00-.073.379c-.01.084-.017.181-.023.262l2.99.237zm-.666.68a1.024 1.024 0 01-.514.099c-.06-.004-.096-.013-.08-.01l.044.01.09.022.671-2.924-.062-.015a2.425 2.425 0 00-.44-.075c-.345-.025-.7.035-1.05.21l1.34 2.684z" fill="#000" mask="url(#path-8-inside-5_6003_46744)"/></g><defs><clipPath id="clip0_6003_46744"><path fill="#fff" d="M0 0h35v35H0z"/></clipPath></defs></svg>