<svg width="35" height="35" fill="none" xmlns="http://www.w3.org/2000/svg"><g clip-path="url(#clip0_6003_46753)" fill="#000"><path d="M16.178 8.057l.196-.002h.211l.218-.002.455-.001.696-.005.443-.001.21-.003c.618.002.618.002.876.23.059.177.08.297.09.48l.008.156.008.163.01.165.02.403.23.078c.514.176 1.009.347 1.48.62.133.064.133.064.27.048.195-.087.31-.216.456-.37.343-.36.343-.36.648-.412.391.053.566.268.836.543a110.176 110.176 0 01.488.49c.168.169.337.336.507.503l.32.323.155.15c.343.355.343.355.39.685-.042.237-.093.33-.26.5l-.131.138a7.514 7.514 0 01-.296.272l-.102.124c.028.28.137.505.26.756.2.422.355.848.491 1.294l.243.008.317.014.16.004c.311.015.533.043.784.248.066.195.078.32.08.524l.002.196v.21l.002.218.001.456c0 .232.003.464.005.696l.001.442.003.21c-.002.618-.002.618-.23.876a1.61 1.61 0 01-.48.09l-.157.009-.162.008-.165.009-.404.02c-.025.077-.05.153-.077.23-.176.514-.348 1.01-.62 1.481-.064.132-.064.132-.048.27.087.194.215.31.37.455.36.343.36.343.411.648-.052.392-.267.566-.542.836l-.158.16-.331.329a139.28 139.28 0 01-.827.828l-.151.153c-.355.344-.355.344-.684.39-.238-.041-.33-.092-.5-.26l-.139-.13a7.441 7.441 0 01-.271-.297l-.124-.102c-.28.029-.505.138-.756.26a9.45 9.45 0 01-1.295.492l-.01.245-.015.319-.007.16c-.026.52-.026.52-.173.711-.206.126-.36.155-.6.156l-.196.002h-.881c-.231 0-.463.002-.694.004H16.6l-.21.002c-.615-.004-.615-.004-.873-.232a1.607 1.607 0 01-.09-.48 92.737 92.737 0 01-.017-.319l-.01-.165-.02-.403-.23-.078c-.514-.176-1.008-.347-1.48-.62-.132-.063-.132-.063-.27-.048-.195.087-.31.216-.455.37-.344.36-.344.36-.648.412-.392-.053-.567-.267-.837-.543a42.95 42.95 0 01-.488-.49c-.167-.169-.337-.336-.507-.503a162.42 162.42 0 01-.32-.323l-.155-.15c-.343-.355-.343-.355-.39-.685.042-.237.093-.33.26-.5l.131-.138c.096-.094.195-.183.296-.272l.103-.123c-.03-.28-.138-.506-.26-.757a9.44 9.44 0 01-.492-1.294l-.242-.008-.318-.014-.16-.004c-.311-.015-.533-.043-.784-.248a1.476 1.476 0 01-.08-.524l-.002-.196v-.21l-.002-.218v-.455l-.006-.697v-.442l-.004-.21c.002-.618.002-.618.23-.876.178-.059.297-.08.48-.09l.157-.008.163-.009.165-.009.403-.02.077-.23c.176-.514.348-1.01.621-1.48.063-.133.063-.133.048-.271-.088-.194-.216-.31-.37-.455-.36-.343-.36-.343-.412-.648.053-.392.267-.566.542-.836l.158-.16c.11-.11.22-.22.332-.329.17-.167.337-.337.504-.507l.322-.32.151-.154c.355-.344.355-.344.684-.39.238.041.33.092.5.26l.139.13c.093.097.183.196.271.297.116.12.116.12.27.089a4.96 4.96 0 00.726-.286c.388-.174.771-.33 1.179-.453l.008-.242.013-.317.005-.16c.015-.312.042-.534.247-.785.196-.065.321-.077.524-.08zm.297 1.036c-.012.396-.012.396-.02.792-.017.399-.017.399-.15.57-.257.11-.521.178-.792.25a6.303 6.303 0 00-1.611.701c-.249.144-.396.216-.688.224-.274-.092-.402-.21-.597-.422l-.18-.19-.132-.147c-.347.29-.67.593-.987.914l-.132.133-.317.32a135.635 135.635 0 00.301.354c.07.079.14.156.215.23.095.1.095.1.236.305-.014.4-.153.661-.35.995-.3.532-.49 1.076-.661 1.661l-.054.187-.047.166c-.05.135-.05.135-.187.272-.128.022-.128.022-.282.028l-.15.008-.191.007-.607.025v2.05c.396.013.396.013.791.021.399.017.399.017.57.149.112.26.181.527.254.8.178.637.433 1.49.914 1.97.034.176.034.176 0 .41a3.63 3.63 0 01-.347.409c-.144.152-.274.317-.405.48l1.367 1.367c.349-.298.349-.298.684-.61.205-.141.205-.141.425-.134.298.07.514.188.776.343.532.3 1.075.49 1.66.66l.187.055.166.047c.136.05.136.05.272.186.022.129.022.129.029.283l.007.15.007.191.026.607h2.05c.012-.396.012-.396.02-.792.018-.398.018-.398.15-.57.26-.111.527-.18.8-.253.636-.178 1.489-.434 1.97-.915.175-.034.175-.034.41 0 .148.106.277.222.408.348.152.144.317.274.48.404.452-.45.903-.902 1.368-1.367-.298-.348-.298-.348-.611-.683-.141-.205-.141-.205-.133-.425.07-.299.188-.514.342-.776.3-.532.49-1.076.661-1.661l.055-.186.046-.167c.05-.135.05-.135.187-.272.128-.021.128-.021.282-.028l.15-.007.192-.007.606-.026v-2.05c-.395-.012-.395-.012-.791-.021-.399-.017-.399-.017-.57-.149-.112-.26-.181-.527-.254-.8-.178-.637-.433-1.49-.914-1.97-.034-.176-.034-.176 0-.41a3.62 3.62 0 01.347-.409c.144-.152.274-.317.405-.48l-1.367-1.367c-.349.298-.349.298-.684.61-.205.142-.205.142-.425.134-.298-.07-.514-.188-.775-.343-.533-.3-1.076-.49-1.662-.66a301.53 301.53 0 01-.186-.055l-.166-.047c-.135-.05-.135-.05-.272-.186-.022-.129-.022-.129-.029-.283l-.007-.15-.007-.191-.025-.607h-2.051z"/><path d="M14.783.633c.263.053.32.087.51.26l.145.132c.4.373.79.756 1.178 1.14l.326.319.472.464.148.143c.205.206.334.362.443.635-.04.366-.25.535-.505.786l-.268.28c-.255.262-.511.521-.768.78l-.33.335-.48.487-.148.152c-.207.206-.344.342-.626.43-.233-.004-.344-.064-.525-.208a1.258 1.258 0 01-.075-.48v-.156c.002-.054.002-.108.003-.163a100.95 100.95 0 01.004-.568 14.78 14.78 0 00-2.732 1.021A10.978 10.978 0 008.818 8.34c-.09.078-.182.154-.273.231-2.097 1.846-3.325 4.645-3.687 7.376-.04.278-.07.471-.278.665a3.241 3.241 0 01-.536.034h-.159c-.11 0-.221 0-.332-.002a115.431 115.431 0 01-.983-.002c-.349-.006-.349-.006-.517-.125-.351-.548.029-1.764.153-2.353.47-2.05 1.333-3.994 2.579-5.687l.091-.124A15.368 15.368 0 0114.15 2.46h.137l-.005-.126-.012-.57-.007-.199c-.004-.303-.006-.488.148-.754.15-.128.15-.128.372-.18zm.53 1.828c-.003.047-.004.094-.006.143l-.012.186-.01.185c-.053.22-.126.257-.315.375-.152.047-.152.047-.32.078l-.19.037-.203.039c-3.399.697-6.556 2.685-8.583 5.52l-.1.138c-1.392 1.961-2.232 4.114-2.566 6.493h.82l.075-.36c.474-2.227 1.227-4.27 2.66-6.066l.134-.176c1.862-2.385 4.784-4.258 7.795-4.746.473-.053.473-.053.66.082.12.161.126.28.139.478l.014.186.007.143c.49-.398.925-.85 1.368-1.299a1.693 1.693 0 00-.402-.554l-.157-.157-.164-.16-.164-.165c-.212-.256-.212-.256-.48-.4zm4.742-.041c.179.034.356.073.534.115l.2.047c3.303.798 6.39 2.706 8.469 5.418l.087.111c1.5 1.931 3.036 4.761 2.99 7.271l.158-.003.713-.01.25-.005.24-.002.221-.003c.221.027.313.07.468.229.042.225.057.332 0 .546-.09.13-.09.13-.209.258l-.132.144a33.66 33.66 0 01-.673.69l-.149.149a298.371 298.371 0 01-.781.781l-.3.3-.143.144-.133.131-.116.116c-.15.138-.244.16-.449.193-.28-.036-.324-.062-.52-.242l-.145-.132a33.772 33.772 0 01-.691-.674l-.149-.149a298.258 298.258 0 01-.781-.781l-.3-.3-.144-.144-.131-.132-.116-.116c-.147-.16-.16-.243-.18-.466.021-.248.021-.248.126-.4.229-.165.428-.152.698-.138l.145.003c.117.003.234.008.351.014-.218-.935-.441-1.852-.82-2.735-.03-.068-.03-.068-.058-.138a11.441 11.441 0 00-2.062-3.21c-.05-.06-.102-.119-.154-.18-.954-1.096-2.112-1.955-3.4-2.623l-.131-.068c-1.062-.545-2.187-.915-3.352-1.168-.287-.087-.287-.087-.414-.268a4.12 4.12 0 01-.03-.519v-.476c0-.163-.002-.327-.004-.49v-.312l-.002-.148c.003-.232.021-.36.16-.548.267-.188.553-.128.859-.08zm.043 1.068v.82l.345.1c.92.273 1.803.567 2.663.994l.146.072c3.09 1.521 5.494 4.254 6.635 7.5.781 2.3.781 2.3.636 3.156-.154.211-.334.227-.581.278.398.49.85.925 1.298 1.367.337-.274.646-.57.953-.876l.123-.121c.198-.16.198-.16.291-.37l-.187-.01-.244-.016-.243-.014c-.214-.028-.214-.028-.42-.165-.052-.2-.052-.2-.093-.462l-.052-.299-.028-.163c-.392-2.153-1.141-4.192-2.424-5.98l-.087-.122a15.23 15.23 0 00-1.348-1.587l-.108-.115c-1.964-2.08-4.52-3.33-7.275-3.987zm9.942 16.843l.147-.001h.31c.157.002.314 0 .471-.003h.302l.141-.003c.258.005.372.043.58.201.138.187.138.187.162.333l-.026.143-.029.162c-.062.268-.128.533-.208.796l-.055.178c-.457 1.45-1.14 2.878-2.03 4.112l-.142.198c-.841 1.15-1.802 2.216-2.935 3.083l-.115.09c-1.704 1.303-4.297 2.918-6.515 2.918l.004.126c.006.19.01.38.013.57l.007.2c.004.302.006.487-.148.753-.15.128-.15.128-.372.18-.264-.053-.322-.088-.512-.261l-.145-.132a30.969 30.969 0 01-.688-.668l-.149-.148-.307-.306a173.49 173.49 0 00-.77-.768l-.143-.14a152.693 152.693 0 00-.247-.248c-.173-.203-.238-.32-.225-.592.067-.236.145-.336.317-.51l.166-.169.18-.178.186-.187.39-.387c.166-.165.331-.331.496-.498.157-.159.317-.317.476-.475.058-.06.117-.12.178-.18l.17-.167.147-.147c.191-.137.332-.165.565-.18.312.146.312.146.41.342.006.094.008.188.007.283v.166l-.002.175-.001.176-.003.43a14.704 14.704 0 002.597-.957l.134-.064c2.866-1.395 4.986-3.948 6.087-6.908.093-.272.178-.545.26-.82.176-.44.41-.521.863-.518zm.106 1.064l-.119.3c-.572 1.427-1.186 2.788-2.137 4.007l-.084.108c-.777.984-1.68 1.92-2.718 2.626l-.14.096c-1.455.989-3.756 2.365-5.602 2.16-.16-.114-.2-.18-.24-.374l-.013-.186-.013-.186-.008-.142c-.49.398-.924.85-1.367 1.298.1.23.225.38.402.555l.156.156.164.161.164.164c.212.257.212.257.481.4l.006-.142.011-.187.01-.185c.054-.22.127-.256.315-.375.152-.047.152-.047.32-.078l.19-.037.203-.039a14.279 14.279 0 008.789-5.793l.085-.12a14.3 14.3 0 001.598-3.05l.069-.179c.118-.32.196-.617.23-.958h-.752zm-26.181-3.62c.126.09.126.09.256.208l.144.132c.234.221.464.446.691.674l.15.149a248.65 248.65 0 01.78.78 2126.31 2126.31 0 01.444.444l.131.132.116.116c.147.161.16.244.18.467-.021.248-.021.248-.122.397-.249.18-.47.17-.77.175l-.165.006a26.64 26.64 0 01-.4.011c.545 1.395 1.158 2.674 2.12 3.828.03.04.062.078.095.118 1.855 2.278 4.425 3.712 7.284 4.331.287.087.287.087.414.268.02.179.03.34.03.52v.473c0 .164.001.328.004.491v.313c0 .048 0 .097.002.148-.004.231-.021.359-.16.548-.227.16-.433.139-.697.105a12.163 12.163 0 01-.812-.18 285.3 285.3 0 00-.23-.056c-2.786-.703-5.086-2.107-7.161-4.07l-.141-.133c-1.812-1.75-3.246-4.308-3.755-6.772l-.134.004c-.2.006-.4.01-.601.013l-.21.007c-.514.007-.514.007-.741-.148-.143-.233-.141-.36-.092-.628.09-.125.09-.125.209-.255l.132-.145a31.138 31.138 0 01.822-.84 331.538 331.538 0 01.781-.781l.3-.3.143-.144.133-.132.116-.116c.223-.203.42-.196.714-.158zM3.4 19.287l-.177.177-.186.187-.187.186-.177.177-.163.163c-.126.107-.126.107-.118.196l.142.017.187.03.185.026c.17.063.17.063.283.2.123.277.195.56.27.855 1.003 3.67 3.62 6.707 6.888 8.579 1.238.686 2.565 1.117 3.94 1.435v-.82l-.334-.103c-3.045-.95-5.793-2.499-7.665-5.16l-.085-.12c-.952-1.348-2.012-3.115-1.966-4.803l.82-.136c-.273-.337-.57-.646-.875-.953l-.122-.123c-.333-.34-.333-.34-.66-.01zm17.044-5.852c.09.078.18.156.269.236l.121.092c.945.733 1.458 1.913 1.627 3.07.145 1.252-.12 2.592-.898 3.61-.077.09-.156.18-.235.268l-.092.122c-.733.945-1.913 1.458-3.07 1.626-1.253.146-2.593-.12-3.61-.897l-.269-.235-.121-.093c-.945-.732-1.458-1.913-1.627-3.07-.145-1.252.12-2.592.898-3.61.078-.09.156-.18.235-.268l.092-.122c.733-.945 1.913-1.457 3.07-1.626 1.253-.145 2.593.12 3.61.897zm-5.93 1.43a4.083 4.083 0 00-.979 2.975c.142 1.088.604 2.02 1.436 2.735.914.686 1.957 1.008 3.094.86 1.105-.202 2.003-.73 2.674-1.624.625-.962.86-1.987.653-3.116-.26-1.103-.856-1.966-1.803-2.58-1.694-.97-3.738-.691-5.075.75z"/></g><defs><clipPath id="clip0_6003_46753"><path fill="#fff" d="M0 0h35v35H0z"/></clipPath></defs></svg>