<svg width="35" height="35" fill="none" xmlns="http://www.w3.org/2000/svg"><g clip-path="url(#clip0_6003_46763)" fill="#000"><path d="M17.457-.015h.159c.756 0 1.473.028 2.208.222l.245.06a10.48 10.48 0 013.584 1.717l.169.122a9.845 9.845 0 012.291 2.476l.127.176c.953 1.378 1.518 3.265 1.527 4.931l.002.175.004.568v.197c.003.345.004.689.005 1.033 0 .284.003.568.006.852.003.344.005.688.005 1.032l.003.391c.016 1.296.016 1.296-.38 1.856l-.115.188c-.411.4-.883.641-1.456.639l-.24-.001-.252-.002a238.7 238.7 0 01-.876-.004l-.011.145c-.142 1.724-.807 3.4-2.04 4.64l.062.179c.046.144.09.29.126.436.178.682.436 1.428 1.07 1.808.8.39 1.677.606 2.534.831 2.4.64 4.378 2.3 5.629 4.421.858 1.5 1.378 3.148 1.405 4.882l.008.191.003.186c0 .055.002.11.004.166-.061.247-.186.345-.382.504a2.498 2.498 0 01-.522.043l-.158.001h-.907c-.35.002-.699.001-1.048 0-.377 0-.753 0-1.13.002h-4.79c-1.578 0-3.156 0-4.734-.002-1.44-.002-2.882-.001-4.323 0-1.618.002-3.237.003-4.855.002H5.653c-.372-.002-.745-.002-1.117-.001-.341.001-.682 0-1.022-.001h-.371c-.167.001-.335 0-.502-.001l-.147.002c-.263-.005-.369-.04-.576-.21-.146-.184-.183-.251-.181-.481v-.174l.006-.184.004-.193c.08-2.608 1.263-4.936 3.038-6.801l.134-.147c1.21-1.29 2.86-1.915 4.502-2.451l.466-.155c.282-.094.565-.188.848-.28l.18-.061c.16-.05.16-.05.393-.104.257-.122.343-.32.46-.566a63.024 63.024 0 00.454-.91l.145-.295.07-.14c.123-.248.123-.248.096-.515-.18-.232-.363-.459-.55-.684a3.43 3.43 0 01-.511-.892c-.1-.224-.1-.224-.26-.388-.284-.067-.535-.07-.824-.063-.385-.008-.639-.139-.954-.347l-.188-.116c-.288-.295-.626-.756-.636-1.183l.006-.153c.037-.628.037-.628-.213-1.167-.177-.097-.177-.097-.365-.172-.39-.177-.587-.588-.747-.969-.078-.24-.073-.475-.071-.725l-.001-.172v-1.782c.002-.35.001-.7 0-1.05a174.338 174.338 0 010-1.201C7.21 7.48 8.3 4.922 10.253 2.873c.175-.17.358-.325.547-.479l.191-.157C12.84.745 15.088-.013 17.457-.015zm-2.35 1.726l-.15.043c-1.385.412-2.563 1.155-3.61 2.144l-.17.157c-1.027.98-1.74 2.252-2.153 3.603l-.08.256a6.933 6.933 0 00-.262 1.658H9.98l.047-.577c.169-1.714.948-3.42 2.277-4.55 1.252-1.001 2.69-1.644 4.31-1.657l.201-.002.422-.002c.142 0 .284-.002.426-.004 2.031-.029 3.812.523 5.305 1.938 1.353 1.32 1.89 3.01 2.05 4.854h1.3c-.088-2.251-1.235-4.34-2.842-5.872-1.113-1.024-2.412-1.648-3.858-2.058l-.262-.075c-1.358-.317-2.913-.242-4.25.144zm-2.345 4.255a5.733 5.733 0 00-1.346 2.99l.15-.152c1.194-1.177 2.771-1.941 4.468-1.95.54.024.77.28 1.124.667.15.133.307.257.466.38l.124.097c.4.307.816.575 1.256.822l.119.067c1.273.713 2.979 1.374 4.461 1.3.064-1.759-.405-3.208-1.615-4.52-1.314-1.255-3.008-1.599-4.766-1.574-1.728.044-3.23.61-4.441 1.873zm-.696 4.48l-.209.289c-.099.136-.099.136-.201.256-.266.326-.28.567-.244.978l.013.192c.017.23.038.462.06.692l.026.29a51.037 51.037 0 00.47 3.77c.061.369.13.714.255 1.067.31.022.618.035.928.047l.264.02c.26.007.471.004.722-.067a1.95 1.95 0 00.378-.565c.21-.39.649-.597 1.058-.734.185-.015.363-.024.548-.025l.159-.002.333-.002c.168 0 .335-.004.503-.007.717-.008 1.223.067 1.794.536.493.606.618 1.124.575 1.895-.055.47-.34.868-.699 1.16-.59.407-1.074.431-1.774.438-.112.001-.224.004-.337.007-.72.02-1.314 0-1.922-.445a2.127 2.127 0 01-.482-.733c-.115-.167-.115-.167-.272-.183a6.15 6.15 0 00-.524.006l-.185.005c-.15.004-.3.01-.451.016.8 1.28 1.947 2.227 3.426 2.61a5.625 5.625 0 004.162-.764c1.488-1.06 2.298-2.599 2.597-4.375.276-1.703.547-3.467.547-5.195l-.16-.023c-2.65-.385-5.46-1.202-7.371-3.21-.125-.139-.125-.139-.352-.151-1.526.09-2.75 1.024-3.635 2.208zm-3.453.493a295.717 295.717 0 00-.015 2.04c-.003.247-.004.496-.005.744l-.003.233c0 .414.019.723.229 1.085.323.228.623.214 1.009.21l.144-.002c.117 0 .234-.002.35-.003l-.016-.167a104.127 104.127 0 01-.325-4.14H8.613zm16.407 0l-.04.578c-.182 2.6-.182 2.6-.302 3.729.79.06.79.06 1.504-.205.248-.429.232-.832.225-1.318l-.001-.242-.006-.76-.003-.517c-.002-.422-.006-.843-.01-1.265H25.02zM9.98 16.613c-.023.436-.032.786.206 1.162.158.099.298.148.478.205.09-.294.031-.542-.03-.837l-.03-.155-.076-.375H9.98zm5.674 1.572c-.167.252-.193.46-.136.752.184.241.32.357.615.41.223.017.447.016.67.017l.182.005c.385.002.656-.038.994-.227.167-.251.193-.46.136-.752-.184-.24-.32-.356-.615-.41-.223-.016-.447-.016-.67-.017l-.182-.004c-.385-.003-.656.038-.994.226zm5.362 4.679l-.152.151-.16.16-.154.155c-.287.286-.56.58-.824.886a8.166 8.166 0 01-.448.463c-.289.285-.558.58-.82.89.266.318.543.62.838.913l.118.118.368.365.25.25.613.609c.19-.167.282-.341.387-.57l.103-.223.108-.237.11-.241c.21-.467.42-.934.612-1.408l.061-.145c.154-.391.143-.66-.023-1.046a19.43 19.43 0 00-.303-.603l-.108-.211a62.06 62.06 0 00-.264-.511c-.131 0-.225.148-.312.235zm-7.48.038a49.12 49.12 0 00-.347.654l-.1.185c-.19.367-.294.595-.169 1.007.094.271.199.537.308.803l.091.227c.275.671.579 1.327.9 1.978.2.02.2.02.309-.08l.108-.11.122-.123.127-.132.131-.133c.254-.26.5-.525.734-.802.207-.235.433-.453.656-.671-.302-.362-.62-.7-.953-1.034l-.154-.154-.32-.32a206.54 206.54 0 01-.489-.492l-.31-.311-.149-.15-.137-.136-.12-.12c-.097-.1-.097-.1-.239-.086zm2.734.479c.34.412.712.787 1.093 1.162.259-.105.403-.262.586-.47l.158-.18c.123-.144.239-.29.35-.444l-.235.002a20.09 20.09 0 01-1.952-.07zm-5.2 1.993l-.163.053-.175.058-.185.06-.386.128c-.194.065-.387.128-.58.19-1.428.47-2.66 1.091-3.744 2.143-.076.073-.153.144-.23.215-1.37 1.267-2.172 3.251-2.394 5.072v.342h12.988c-.345-.637-.345-.637-.73-1.244l-.088-.13a41.38 41.38 0 00-.458-.665c-1.366-1.95-2.452-4.08-3.304-6.301-.228 0-.344.011-.55.079zm12.31-.08l-.061.152c-.883 2.213-1.9 4.415-3.359 6.314-.28.367-.522.756-.764 1.148l-.12.194c-.183.25-.183.25-.277.533h12.988c-.061-.739-.061-.739-.213-1.449l-.046-.167c-.617-2.191-2.007-4.159-4.01-5.285-.682-.355-1.383-.618-2.111-.86a258.911 258.911 0 00-.928-.314l-.168-.057a4.418 4.418 0 00-.932-.208zm-6.192 1.596l-.213.216-.113.114c-.233.238-.455.482-.67.736-.226.252-.47.485-.712.721-.279.255-.279.255-.374.598.104.282.268.512.437.758l.112.164c.178.262.358.523.539.784l.187.27.092.132c.337.489.649.993.959 1.5.24-.08.254-.12.373-.331l.096-.167.103-.182c.283-.486.58-.95.915-1.401.263-.357.522-.715.76-1.09l.132-.206c.095-.166.095-.166.066-.31-.063-.17-.143-.258-.272-.386l-.14-.14a262.173 262.173 0 00-.306-.306 467.013 467.013 0 00-1.431-1.425l-.124-.122c-.19-.159-.236-.09-.416.073z"/><path d="M27.686 28.37c.209.112.209.112.41.274l.11.083c.7.554 1.577 1.575 1.701 2.493-.04.267-.118.38-.307.569-.24.119-.492.106-.752.068-.32-.22-.49-.572-.69-.898a5.154 5.154 0 00-.575-.69c-.102-.121-.102-.121-.102-.258l-.121-.053c-.273-.15-.464-.37-.631-.63-.06-.216-.042-.318 0-.547.253-.396.496-.472.957-.41zm-2.325-1.302c.214.129.214.129.342.342.068.344.053.595-.128.897-.302.182-.554.196-.897.129-.214-.129-.214-.129-.342-.342-.068-.344-.053-.595.128-.897.302-.182.554-.196.897-.129z"/></g><defs><clipPath id="clip0_6003_46763"><path fill="#fff" d="M0 0h35v35H0z"/></clipPath></defs></svg>