<svg width="35" height="35" fill="none" xmlns="http://www.w3.org/2000/svg"><path d="M24.5 4.07c1.645 1.534 2.709 3.626 3.047 5.843l.038.247c.14 1.162.065 2.37-.175 3.512l-.036.178c-.45 2.104-1.235 4.14-2.083 6.112l-.107.248c-.781 1.803-1.649 3.568-2.55 5.314l-.07.137c-.2.384-.398.766-.622 1.136l.215.002a964.63 964.63 0 013.048.027 302.478 302.478 0 011.38.013c.177 0 .355.003.533.005h.159c.377.006.63.046.907.308.147.246.15.388.115.67-.116.263-.216.373-.478.48-.14.016-.14.016-.29.016h-.174l-.189-.001h-.2l-.654-.002h-.454l-1.195-.004-1.22-.003c-.797-.001-1.595-.004-2.392-.007l-.063.16c-.144.356-.344.685-.53 1.02l-.121.218a56.013 56.013 0 01-.98 1.68l-.145.239-.348.58h.222c1.782.004 3.565.01 5.348.016l2.587.008a1129.12 1129.12 0 013.448.01 262.834 262.834 0 011.535.005c.188 0 .376 0 .563.002l.166-.001c.31.004.511.041.76.233.177.207.22.354.2.62-.044.255-.124.386-.337.542-.244.082-.465.078-.719.078a82.676 82.676 0 01-.697 0l-.387.001h-1.068l-1.15.002a3517.184 3517.184 0 01-4.086.002l-4.344.002h-1.269c-1.515 0-3.03.002-4.544.003a4805.773 4805.773 0 01-7.422.005 974.59 974.59 0 01-3.367.001 212.52 212.52 0 01-1.419 0c-.17.002-.341.001-.512 0l-.149.002c-.299-.003-.484-.051-.723-.232-.177-.207-.22-.354-.2-.62.043-.255.124-.386.337-.542.26-.087.504-.078.775-.077h1.195l1.155.001h1.205a3476.19 3476.19 0 014.883.004l5.348.003-.092-.16-.346-.605-.148-.26c-1.427-2.492-1.427-2.492-1.602-2.94l-.257.002a913.545 913.545 0 01-3.633.014 277.724 277.724 0 01-1.644.006 84.22 84.22 0 01-.636.002l-.19.002c-.329-.002-.55-.016-.818-.23-.176-.235-.17-.468-.136-.753.113-.203.246-.377.474-.455.236-.039.473-.032.711-.03H9.02l1.037.002 1.058.002 2.077.003-.385-.739-.109-.208c-.212-.407-.426-.815-.641-1.221-4.72-8.936-4.72-8.936-4.697-13.29v-.243c.029-2.005.655-4.016 1.867-5.627l.129-.172c1.753-2.259 4.141-3.622 6.968-4.026 3.033-.338 5.932.7 8.176 2.73zM11.346 5.265l-.122.11c-1.102 1.022-1.812 2.493-2.202 3.924l-.07.25c-.317 1.364-.218 2.849.138 4.193l.048.19c.463 1.844 1.167 3.611 1.935 5.347l.055.125a92.054 92.054 0 003.336 6.834c.504.95 1.023 1.892 1.556 2.827.117.204.232.41.347.615l.119.211.221.396c.249.442.515.871.791 1.297.168-.203.318-.402.446-.632l.095-.167.1-.18a491.285 491.285 0 01.337-.594c.15-.265.305-.528.46-.79a88.578 88.578 0 002.448-4.465c.154-.3.31-.597.47-.893 1.28-2.393 2.416-4.889 3.3-7.455l.075-.215c.973-2.838 1.477-5.764.126-8.559-.448-.893-1.02-1.64-1.704-2.369l-.11-.122c-1.383-1.49-3.569-2.342-5.57-2.428-2.573-.07-4.756.793-6.625 2.55z" fill="#000"/><path d="M22.134 6.485c1.332 1.279 2.105 2.927 2.154 4.782.023 2.008-.724 3.696-2.117 5.122-1.355 1.292-3.061 1.842-4.9 1.826-1.85-.05-3.473-.837-4.76-2.15-1.272-1.353-1.835-3.099-1.794-4.934.073-1.829.898-3.467 2.208-4.733 2.64-2.332 6.643-2.32 9.21.087zm-8.119.897l-.164.124c-.973.82-1.585 2.14-1.697 3.397-.087 1.465.268 2.854 1.242 3.983.046.05.093.1.14.153l.145.161c.98 1.038 2.37 1.579 3.782 1.633a5.469 5.469 0 002.363-.564l.188-.087c.547-.27.957-.648 1.384-1.075l.139-.136c.999-1.056 1.336-2.453 1.315-3.865-.045-1.272-.625-2.43-1.48-3.352l-.18-.166-.123-.123c-.998-.949-2.309-1.412-3.677-1.406a5.33 5.33 0 00-3.377 1.323z" fill="#000"/><path d="M19.341 8.541c.094.07.186.139.278.21l.214.154c.702.671 1.06 1.543 1.099 2.508-.02.297-.076.413-.288.62-.187.153-.293.136-.542.136-.247-.043-.403-.124-.555-.334-.084-.19-.104-.366-.129-.572-.071-.576-.288-1.008-.739-1.38a2.125 2.125 0 00-1.539-.355c-.48.111-.894.33-1.195.726-.311.5-.442.987-.36 1.573.136.502.346.922.791 1.205.36.195.68.318 1.085.371.26.036.376.061.603.206.165.276.183.502.12.816-.123.196-.204.307-.41.41-.872.088-1.694-.16-2.393-.684-.741-.626-1.212-1.419-1.3-2.392a3.702 3.702 0 01.817-2.598c1.135-1.192 3.03-1.528 4.443-.62zM13.74 20.165c.366.227.508.548.694.922l.1.199a964.345 964.345 0 00.556 1.107c.16.317.319.635.477.952.203.407.408.813.613 1.219l.47.938.226.45c.106.209.21.419.315.629l.095.186c.182.373.288.704.213 1.122-.123.196-.204.307-.41.41-.315.03-.523.013-.784-.173-.218-.208-.334-.482-.465-.749l-.101-.2a963.578 963.578 0 00-.554-1.107c-.16-.316-.318-.634-.476-.952a230.82 230.82 0 00-.611-1.218c-.158-.312-.314-.625-.47-.938a76.79 76.79 0 01-.539-1.079l-.095-.186c-.181-.373-.287-.705-.212-1.122.239-.382.51-.498.957-.41zM5.81 2.94c.456.31.798.722.931 1.264.1.643.008 1.21-.347 1.764a2.227 2.227 0 01-1.335.8c-.642.058-1.2-.07-1.709-.478-.4-.375-.644-.818-.707-1.367-.02-.65.092-1.095.515-1.594.709-.744 1.751-.903 2.653-.389zM4.103 4.444a.95.95 0 000 .547c.197.225.324.326.62.38.247-.047.363-.138.542-.312.1-.198.094-.326.068-.547-.175-.296-.175-.296-.474-.447-.358-.024-.552.073-.756.379zM29.929 21.04c.54.308.845.716 1.037 1.315.08.648.057 1.217-.334 1.747-.41.494-.866.8-1.515.864a2.399 2.399 0 01-1.706-.629c-.397-.506-.602-1.06-.547-1.709.113-.576.356-.977.774-1.384.71-.462 1.501-.58 2.29-.204zm-1.518 1.465c-.13.19-.13.19-.115.431.087.286.174.405.414.581.212.03.355.016.56-.043.185-.14.248-.288.329-.504 0-.253-.062-.334-.227-.53-.362-.303-.615-.254-.96.064zm-24.38 1.011h1.367v1.435H4.031v-1.435zm0-5.399h1.367v1.436H4.031v-1.436zm0-2.667h1.367v1.435H4.031v-1.436zm26.25-6.083h1.367v1.436h-1.367V9.367zm0-2.667h1.367v1.435h-1.367V6.699zM4.031 20.852h1.367v1.367H4.031v-1.367zm26.25-8.75h1.367v1.367h-1.367v-1.367zm0-8.071h1.367v1.367h-1.367V4.031z" fill="#000"/></svg>