<svg width="35" height="35" fill="none" xmlns="http://www.w3.org/2000/svg"><g clip-path="url(#clip0_6018_47289)" fill="#010102"><path d="M7.587.821c.4.263.734.585 1.064.93.129.127.257.242.395.36.42.366.812.762 1.207 1.155l.127.126.664.661.682.676a164.734 164.734 0 01.78.775c.757.746 1.383 1.463 1.452 2.574-.02.94-.519 1.68-1.176 2.314-.16.148-.32.295-.482.441-.288.262-.565.535-.839.811l-.116.117-.586.594-.219.22c-.033.036-.067.07-.102.106a6.742 6.742 0 01-.254.24h-.136c-.088.306-.088.306-.008.6l.087.126c.21.317.377.649.549.987a14.019 14.019 0 001.229 1.98c.4.542.827 1.062 1.254 1.583.087.106.172.213.257.32a21.696 21.696 0 002.92 3.017l.209.183c2.368 2.08 2.368 2.08 5.184 3.346.541-.108.997-.752 1.37-1.134l.35-.353.54-.551c.176-.18.352-.358.529-.536l.16-.165c.672-.675 1.39-1.129 2.357-1.157 1.317.038 2.082.947 2.956 1.823a1020.201 1020.201 0 001.017 1.017c.292.293.585.584.879.876a255.682 255.682 0 011.003 1.001c1.07 1.064 1.07 1.064 1.357 1.666l.07.131c.259.5.21 1.247.088 1.786-.144.389-.369.708-.636 1.022l-.144.17a7.064 7.064 0 01-.715.725c-.346.3-.668.621-.99.945l-.312.311c-.288.288-.573.576-.837.886-.756.882-1.884 1.366-3.025 1.49-.335.023-.67.02-1.006.015l-.153-.002c-.789-.008-1.551-.052-2.32-.233l-.182-.041c-1.429-.33-2.777-.836-4.103-1.458-.15-.07-.3-.137-.45-.205-2.756-1.254-5.33-2.974-7.639-4.927l-.108-.091-.361-.306-.107-.09a36.432 36.432 0 01-2.099-1.974l-.361-.361a19.712 19.712 0 01-1.133-1.211 32.927 32.927 0 01-1.542-1.856c-.102-.13-.206-.26-.31-.388-2.446-3.037-4.486-6.691-5.489-10.467a11.6 11.6 0 01-.415-3.108c.001-.161 0-.323-.003-.485-.004-.871.15-1.65.55-2.435l.072-.139c.388-.723 1.01-1.252 1.606-1.801.307-.284.605-.575.898-.873l.113-.114c.187-.189.373-.378.558-.568C4.762.877 6.169-.02 7.587.82zM5.963 3.065l-.14.136-.15.15-.16.152c-.377.363-.747.733-1.119 1.102l-.409.404c-.2.195-.397.392-.595.588l-.184.18c-.753.755-.904 1.405-.904 2.435.044 3.43 1.955 7.063 3.85 9.836l.114.168a43.679 43.679 0 002.792 3.61l.314.37c.316.372.629.74.98 1.078.112.112.213.229.315.35.5.578 1.055 1.128 1.638 1.623.17.145.334.297.498.449.37.336.75.655 1.141.965l.131.105a36.86 36.86 0 005.201 3.45l.188.104c2.4 1.312 5.698 2.873 8.528 2.284.588-.174 1.028-.535 1.412-1.004.381-.463.791-.892 1.223-1.308l.127-.124c.175-.17.35-.34.527-.508.13-.125.26-.25.388-.377l.122-.114c.126-.12.126-.12.268-.32-.007-.497-.303-.789-.636-1.12l-.149-.142a8.408 8.408 0 01-.395-.43 16.003 16.003 0 00-.832-.876l-.147-.148a11.689 11.689 0 00-.694-.65 10.602 10.602 0 01-.701-.675l-.11-.114a60.543 60.543 0 01-.453-.468 27.12 27.12 0 00-.335-.346l-.1-.107c-.245-.247-.433-.32-.78-.325-.248.16-.415.346-.604.57-.418.48-.88.918-1.332 1.365-.61.6-.61.6-1.178 1.237-.442.49-1.009.75-1.66.812-.981.032-1.815-.421-2.677-.84l-.199-.09c-1.467-.687-2.803-1.743-4.039-2.78l-.21-.174a25.118 25.118 0 01-1.69-1.573l-.415-.413a15.23 15.23 0 01-1.25-1.375 7.26 7.26 0 00-.408-.46c-1.523-1.677-3.534-4.254-3.493-6.615.055-.976.616-1.655 1.296-2.309a189.46 189.46 0 011.28-1.248c.195-.189.388-.378.581-.569l.33-.318.2-.197.176-.172c.13-.152.13-.152.129-.325-.122-.273-.316-.454-.527-.663l-.142-.144c-.154-.156-.31-.31-.466-.466l-.323-.324-.679-.679-.869-.871a203.722 203.722 0 00-.988-.99c-.149-.151-.299-.3-.45-.449l-.132-.135c-.191-.187-.321-.3-.578-.387-.227.007-.287.042-.447.2zM19.46.052c.202.08.397.167.593.258l.222.1c2.811 1.302 5.335 3.033 7.614 5.125l.117.107a22.354 22.354 0 011.66 1.67l.162.177c1.355 1.484 2.528 3.142 3.53 4.882l.08.14a39.35 39.35 0 011.104 2.074c.634 1.274.634 1.274.409 1.964-.151.294-.343.464-.636.607-.387.11-.673.082-1.031-.096-.407-.337-.604-.84-.82-1.31-1.54-3.28-3.777-6.423-6.557-8.78-.07-.06-.14-.12-.208-.182-2.043-1.788-4.444-3.341-6.97-4.346-.388-.16-.59-.316-.82-.666a1.882 1.882 0 01.008-1.188c.396-.555.886-.728 1.544-.536zm-.3 6.366l.141.065c.152.07.303.144.453.217l.157.077a17.585 17.585 0 013.261 2.11l.2.158c1.048.851 2.073 1.846 2.863 2.944.086.118.175.234.264.35 2.444 3.198 2.444 3.198 2.279 4.615-.123.402-.285.582-.615.82-.271.136-.595.098-.89.069-.593-.264-.811-.936-1.083-1.485-.69-1.392-1.561-2.618-2.608-3.764a7.595 7.595 0 01-.312-.37 5 5 0 00-.563-.54 8.6 8.6 0 01-.294-.266c-1.142-1.076-2.512-1.864-3.916-2.547l-.12-.06-.271-.126c-.271-.127-.465-.23-.638-.485l-.098-.139c-.166-.28-.185-.564-.145-.882.13-.404.34-.648.683-.889.456-.152.829-.072 1.252.128z"/></g><defs><clipPath id="clip0_6018_47289"><path fill="#fff" d="M0 0h35v35H0z"/></clipPath></defs></svg>