<svg width="35" height="35" fill="none" xmlns="http://www.w3.org/2000/svg"><g clip-path="url(#clip0_6018_47296)" fill="#000"><path d="M12.32-.021l.164-.002a83.05 83.05 0 01.908-.003l.783-.001c.333 0 .666-.002.999-.004.258-.002.515-.002.773-.002.122 0 .245 0 .368-.002.938-.007 1.681.073 2.414.717l.126.104c.42.376.718.915.831 1.468.006.109.008.217.007.326v.184c-.002.063-.002.126-.003.19v.195l-.004.472.238-.001c.743-.006 1.486-.01 2.23-.013.381-.001.764-.003 1.145-.006l1.108-.006.42-.003c1.213-.012 2.121.16 3.143.863.963.962 1.25 2.02 1.25 3.347v.166l.002.343v.714c0 .304.002.609.005.913.002.235.002.47.002.706l.001.337c.002.156.001.313 0 .47v.27c-.055.315-.16.425-.384.65-.221.111-.444.108-.683.069-.187-.093-.266-.18-.41-.342l-.069-.41H1.502c0 6.87 0 6.904.68 12.458.378.321.858.538 1.355.54h.427l.234.002.506.002c.267 0 .533.002.8.003.758.005 1.516.008 2.274.01a402.668 402.668 0 011.92.01c.248 0 .495.001.742.003h.222c.434.004.683.048 1.013.345.127.254.128.499.081.777-.122.196-.204.307-.41.41-.11.007-.22.01-.33.01l-.211.002h-.233l-.245.002-.805.003h-.277c-.435.002-.87.003-1.306.003l-1.503.006-1.164.003c-.232 0-.463 0-.694.002-.26.002-.518.002-.777.002l-.229.002C2.56 26.276 1.71 25.871.98 25.185c-.557-.578-.989-1.347-.99-2.169l-.002-.177v-.4a317.414 317.414 0 01-.003-1.177l-.003-1.475v-.696a2672.005 2672.005 0 01-.004-3.064c0-.805-.002-1.61-.004-2.414-.002-.827-.004-1.653-.004-2.48 0-.464 0-.928-.002-1.392-.002-.437-.002-.874-.002-1.31v-.48c-.008-1.34.16-2.346 1.109-3.366.737-.685 1.635-.976 2.622-.971h.188a256.136 256.136 0 011.04.001l1.12.002 1.144.001c.748 0 1.495.002 2.243.003l-.003-.225-.002-.296-.002-.148c-.005-.847.315-1.583.885-2.207a2.895 2.895 0 012.01-.766zm-.975 1.924c-.416.581-.409.97-.409 1.718h7.246c.051-.967.051-.967-.386-1.69-.375-.344-.69-.446-1.202-.449l-.147-.001a67.125 67.125 0 00-.814-.003l-.702-.001c-.298 0-.597-.002-.895-.004-.23-.002-.461-.002-.692-.002-.11 0-.22 0-.33-.002-.904-.014-.904-.014-1.67.434zM1.929 5.955c-.87 1.234-.427 2.727-.427 4.229h26.182c.223-2.46.223-2.46-.696-4.486-.421-.41-.954-.58-1.532-.582h-.499a427.509 427.509 0 01-1.04-.003l-.823-.001-1.988-.003h-.936a4818.503 4818.503 0 00-3.92-.004h-.203c-1.083 0-2.167-.002-3.25-.004-1.113-.003-2.226-.004-3.339-.004-.624 0-1.249 0-1.874-.003-.532-.001-1.064-.002-1.596-.001l-.814-.001a81.782 81.782 0 00-.746 0l-.395-.002c-.814.006-1.571.216-2.104.865z"/><path d="M23.38 13.113l.153-.002c2.101-.015 2.101-.015 2.99.22l.164.043c1.54.405 2.972 1.069 4.211 2.077l.117.095c1.934 1.579 3.16 3.653 3.78 6.057l.037.141c.678 2.685.013 5.736-1.375 8.077-.346.566-.75 1.064-1.192 1.557l-.15.175a7.318 7.318 0 01-.944.92l-.195.16a11.182 11.182 0 01-4.18 2.095l-.164.044c-1.662.422-3.651.412-5.304-.044l-.198-.054c-1.637-.467-3.12-1.236-4.366-2.402a9.759 9.759 0 00-.43-.372c-.34-.296-.61-.646-.885-1l-.154-.192c-1.826-2.338-2.468-5.302-2.13-8.212.385-2.822 1.938-5.448 4.189-7.184 1.713-1.279 3.864-2.186 6.026-2.2zm-1.437 1.723l-.163.04c-.818.212-1.563.5-2.298.917l-.122.069c-.52.298-.996.633-1.45 1.024l-.188.16c-1.653 1.451-2.643 3.437-3.025 5.582l-.04.22c-.272 2.468.346 4.913 1.842 6.899.148.183.3.36.454.538l.133.16c.348.411.74.743 1.166 1.07l.181.141c1.972 1.485 4.42 2.089 6.867 1.808a9.285 9.285 0 002.932-.923l.226-.114c.932-.482 1.71-1.12 2.44-1.869l.103-.093c1.493-1.393 2.412-3.678 2.503-5.702.067-2.605-.597-4.934-2.332-6.92l-.134-.16c-.348-.411-.74-.742-1.165-1.07l-.177-.139c-1.254-.95-2.657-1.497-4.198-1.775l-.218-.04c-1.1-.12-2.262-.102-3.337.176z"/><path d="M24.267 15.995c.25.14.388.24.547.479.009.129.009.129-.003.277l-.012.171-.016.187-.028.407-.015.22c-.408 3.882-.408 3.882.995 7.323.678.737 1.5 1.36 2.346 1.891.213.168.335.35.386.617 0 .278-.007.423-.158.665-.233.22-.412.239-.725.23-.593-.087-1.091-.788-1.498-1.196l-.221-.221-.461-.462-.59-.589a244.84 244.84 0 01-.456-.456l-.217-.217a72.442 72.442 0 01-.303-.304l-.174-.174c-.372-.416-.384-.72-.382-1.262l-.002-.23c-.002-.252-.002-.503-.002-.754l-.001-.525v-1.099c0-.423-.002-.846-.005-1.268-.002-.408-.002-.815-.002-1.223 0-.173 0-.346-.002-.52-.002-.241 0-.483 0-.725l-.002-.217c.003-.312.007-.543.205-.795.258-.23.457-.263.796-.23zm-10.493-2.912h.19c.131 0 .263 0 .395.002a164.36 164.36 0 01.988.002h.181c.283.005.431.016.675.17.224.237.23.42.227.735-.04.27-.168.385-.366.57-.26.086-.507.082-.778.084l-.171.002-.358.002a55.08 55.08 0 00-.546.007l-.348.002-.164.004c-.36-.002-.561-.07-.848-.307-.137-.196-.154-.34-.132-.576l.011-.154c.177-.528.564-.55 1.044-.543z"/></g><defs><clipPath id="clip0_6018_47296"><path fill="#fff" d="M0 0h35v35H0z"/></clipPath></defs></svg>