<svg width="24" height="24" fill="none" xmlns="http://www.w3.org/2000/svg"><path d="M17.371 18.587l-.655-.656a.421.421 0 00-.307-.129.42.42 0 00-.307.129.412.412 0 00-.129.303c0 .117.043.218.129.304l.86.86a.577.577 0 00.419.187.577.577 0 00.419-.187l2.098-2.067a.448.448 0 00.139-.297c.007-.113-.04-.218-.139-.317a.43.43 0 00-.316-.129.431.431 0 00-.317.13l-1.894 1.869zM7.27 8.73h9.462a.488.488 0 00.5-.5.474.474 0 00-.5-.5H7.269a.487.487 0 00-.5.5.49.49 0 00.501.5zM18 22.116c-1.114 0-2.059-.388-2.835-1.165C14.388 20.175 14 19.23 14 18.116c0-1.114.388-2.06 1.165-2.836.777-.777 1.722-1.165 2.835-1.164 1.113 0 2.059.389 2.836 1.164.777.775 1.165 1.72 1.164 2.836 0 1.113-.388 2.058-1.164 2.835-.777.777-1.723 1.165-2.836 1.165zM4 5.616c0-.448.157-.83.472-1.144A1.558 1.558 0 015.616 4h12.769c.447 0 .828.157 1.143.472.315.315.472.696.472 1.144v5.317a.487.487 0 01-.5.5.49.49 0 01-.5-.5V5.616a.591.591 0 00-.192-.424.584.584 0 00-.424-.192H5.616a.591.591 0 00-.424.192.584.584 0 00-.192.424V19.05h6.344c.02.135.045.27.073.404.029.135.065.267.11.398.045.12.015.217-.09.293-.105.077-.205.08-.3.01l-.249-.17a.419.419 0 00-.469 0l-.877.607a.415.415 0 01-.234.074.42.42 0 01-.235-.074l-.877-.607a.419.419 0 00-.469 0l-.877.607a.415.415 0 01-.234.074.42.42 0 01-.235-.074l-.877-.607a.419.419 0 00-.469 0L4 20.788V5.616zm3.27 10.653h3.874a.484.484 0 00.357-.143.484.484 0 00.143-.357.493.493 0 00-.5-.5H7.27a.485.485 0 00-.357.144.48.48 0 00-.143.356c0 .141.048.26.143.357a.472.472 0 00.357.143zm0-3.769h7.204a.487.487 0 00.5-.5.49.49 0 00-.5-.5H7.269a.487.487 0 00-.499.5.495.495 0 00.143.357.48.48 0 00.357.143z" fill="#000"/></svg>