<svg width="24" height="24" fill="none" xmlns="http://www.w3.org/2000/svg"><path d="M14.917 13.325a3.562 3.562 0 10-4.334 0A6.164 6.164 0 007.8 15.413a.562.562 0 10.9.674 5.062 5.062 0 018.1 0 .563.563 0 00.9-.675 6.164 6.164 0 00-2.783-2.087zM10.313 10.5a2.438 2.438 0 114.875 0 2.438 2.438 0 01-4.876 0zM19.5 2.437H6A1.313 1.313 0 004.687 3.75v2.438H3a.563.563 0 100 1.125h1.688v4.125H3a.563.563 0 000 1.124h1.688v4.126H3a.563.563 0 000 1.125h1.688v2.437A1.313 1.313 0 006 21.563h13.5a1.313 1.313 0 001.313-1.313V3.75A1.313 1.313 0 0019.5 2.437zm.188 17.813a.188.188 0 01-.188.188H6a.188.188 0 01-.188-.188V3.75A.187.187 0 016 3.562h13.5a.188.188 0 01.188.188v16.5z" fill="#000"/></svg>