<svg width="24" height="24" fill="none" xmlns="http://www.w3.org/2000/svg"><path d="M6.5 16.501v-7a.49.49 0 01.501-.5.488.488 0 01.499.5v7a.49.49 0 01-.501.5.488.488 0 01-.499-.5zm5 0v-7a.49.49 0 01.501-.5.488.488 0 01.499.5v7a.49.49 0 01-.501.5.488.488 0 01-.499-.5zm-7.462 3.5a.485.485 0 01-.357-.144.485.485 0 01-.144-.357c0-.142.048-.26.144-.356a.485.485 0 01.356-.143h15.924c.141 0 .26.048.356.144a.481.481 0 01.143.357.489.489 0 01-.5.5H4.038zm12.461-3.5v-7a.49.49 0 01.501-.5.488.488 0 01.499.5v7a.49.49 0 01-.501.5.488.488 0 01-.499-.5zm3.54-9.5H3.916a.371.371 0 01-.27-.11.365.365 0 01-.11-.268v-.232c0-.077.02-.144.058-.199.039-.055.09-.1.153-.134L11.31 2.45a1.547 1.547 0 011.376 0l7.531 3.583a.658.658 0 01.172.163.36.36 0 01.07.22v.166a.407.407 0 01-.114.303.414.414 0 01-.308.115M6.18 6.001h11.638l-5.55-2.635a.682.682 0 00-.269-.057.69.69 0 00-.27.057L6.18 6.001z" fill="#000"/><path d="M20.038 7.001H3.918a.371.371 0 01-.27-.11.365.365 0 01-.11-.268v-.232c0-.077.018-.144.057-.199.039-.055.09-.1.153-.134L11.31 2.45a1.547 1.547 0 011.376 0l7.531 3.583a.658.658 0 01.172.163.36.36 0 01.07.22v.166a.407.407 0 01-.114.303.414.414 0 01-.308.115M6.5 16.501v-7a.49.49 0 01.501-.5.488.488 0 01.499.5v7a.49.49 0 01-.501.5.488.488 0 01-.499-.5zm5 0v-7a.49.49 0 01.501-.5.488.488 0 01.499.5v7a.49.49 0 01-.501.5.488.488 0 01-.499-.5zm-7.46 3.5a.485.485 0 01-.358-.144.485.485 0 01-.144-.357c0-.142.048-.26.144-.356a.485.485 0 01.356-.143h15.924c.141 0 .26.048.356.144a.481.481 0 01.143.357.489.489 0 01-.5.5H4.038zm12.46-3.5v-7a.49.49 0 01.501-.5.488.488 0 01.499.5v7a.49.49 0 01-.501.5.488.488 0 01-.499-.5zM6.18 6.001h11.638l-5.55-2.635a.682.682 0 00-.269-.057.69.69 0 00-.27.057L6.18 6.001z" stroke="#000" stroke-width=".5"/></svg>