<svg width="36" height="35" fill="none" xmlns="http://www.w3.org/2000/svg"><g clip-path="url(#clip0_670_15056)" fill="#000"><path d="M25.185 11.621c.26.11.503.248.748.389l.442.246.227.128c.347.195.698.382 1.048.57.54.291 1.075.59 1.607.893.581.332 1.17.645 1.765.952.526.272 1.04.56 1.554.854.362.207.726.409 1.094.605l.123.066.598.316.216.115.192.101c.157.094.255.159.367.302.026.178.026.178.027.397l.002.25v.276l.001.29c.002.262.002.524.002.787v.657c.002.516.002 1.033.002 1.55 0 .533.001 1.066.004 1.599.002.457.002.915.002 1.372 0 .274 0 .547.002.82.002.257.002.514 0 .771l.001.284v.604c-.059.254-.171.32-.385.46a11.927 11.927 0 01-.614.333c-.15.08-.3.157-.45.236l-.476.25-.322.169c-.475.249-.947.502-1.42.756a390.2 390.2 0 01-2.267 1.206c-.641.34-1.282.68-1.922 1.023l-.358.192c-.338.18-.675.362-1.01.547l-.163.09-.285.159c-.27.147-.456.194-.762.166-.186-.085-.186-.085-.376-.205-.071-.045-.142-.09-.216-.135l-.228-.147-.239-.15-.604-.383-.52-.33-.745-.474c-.337-.217-.676-.431-1.015-.645l-.161-.102a884.325 884.325 0 01-.788-.497 355.47 355.47 0 00-1.807-1.136c-.61-.38-1.219-.761-1.825-1.147a41.853 41.853 0 00-.58-.361l-.134-.084a71.186 71.186 0 00-.354-.217c-.24-.182-.37-.354-.414-.656v-.19l-.001-.22.001-.239v-1.657l.003-1.206v-1.393a500.02 500.02 0 01.004-2.709v-.459l.001-.19c.026-.255.083-.453.277-.626.398-.25.804-.473 1.223-.686a66.278 66.278 0 001.572-.833c.567-.31 1.135-.618 1.705-.922l.122-.066.615-.329 1.439-.77 1.12-.6.529-.282.252-.135.35-.187.2-.107c.124-.068.246-.14.366-.214.236-.136.367-.13.638-.092zm-.57 1.368l-.177.089-.184.094-.18.09a28.1 28.1 0 00-1.145.615v.137c.075.04.075.04.15.083l.331.182c.22.12.438.242.657.362l1.36.751c.844.467 1.69.931 2.539 1.39.399.215.796.433 1.193.654l.145.08a539.766 539.766 0 001.27.714l.193.113.183.102.162.092c.243.088.412.029.641-.077l.139-.079.156-.088.161-.092.315-.179.157-.089c.257-.146.517-.29.776-.433a1.778 1.778 0 00-.527-.388l-.196-.106-.213-.113-.449-.24-.232-.124-1.058-.571-.206-.112c-.515-.279-1.029-.56-1.543-.84a431.66 431.66 0 00-1.387-.753c-.554-.3-1.108-.6-1.662-.902l-.193-.104-.178-.097-.156-.085a5.525 5.525 0 01-.34-.213c-.222 0-.308.039-.503.137zm-3.508 1.84l-.156.095-.161.091c-.131.075-.26.151-.39.23.21.165.425.292.661.417l.234.125.123.065c.173.092.346.183.518.276l.266.14a173.354 173.354 0 011.424.769l.401.217a1443.407 1443.407 0 001.432.776l.205.11.615.334.205.111.407.22a293.395 293.395 0 001.931 1.041l.172.093.156.09.155.078c.191.206.16.448.16.716l.004.174.006.549.006.373c.005.304.008.609.01.913.427-.17.828-.398 1.231-.615v-2.598c-1.411-.78-1.411-.78-2.828-1.55a75.574 75.574 0 01-1.564-.868 72.66 72.66 0 00-1.882-1.03 62.444 62.444 0 01-1.904-1.055 23.182 23.182 0 00-.35-.197 5.868 5.868 0 01-.281-.165c-.324-.182-.506-.092-.806.076zm-2.492 1.343l-.144.077-.301.16-.459.244-.293.156-.137.073c-.259.139-.485.29-.709.481.467.284.938.557 1.414.825l.418.235.213.12.997.564.393.222.786.444.197.111.392.222a811.979 811.979 0 001.59.896c.318.18.634.362.946.552l.178.107c.11.067.22.134.33.203l.149.09.128.079c.276.092.502.002.757-.118l.216-.122.118-.066.37-.21.245-.14c.158-.088.316-.178.473-.267.277-.157.554-.312.832-.465v-.137l-.163-.086c-1.811-.959-1.811-.959-2.673-1.452a67.404 67.404 0 00-1.944-1.061 63.673 63.673 0 01-1.735-.952 62.806 62.806 0 00-1.397-.777l-.145-.079c-.438-.232-.626-.152-1.042.071zm-2.727 2.08c-.031.92-.056 1.84-.07 2.762a68.55 68.55 0 01-.033 1.282c-.015.413-.023.826-.026 1.24-.003.156-.008.313-.015.47-.06.84-.06.84.275 1.574.323.273.68.466 1.058.649.287.144.552.32.82.495l.322.203c.363.229.725.46 1.087.69a540.284 540.284 0 002.688 1.7l.158.1.913.581.207.133a170.179 170.179 0 01.747.48c.146.092.146.092.346.15.027-.994.048-1.99.06-2.985.006-.463.014-.925.028-1.387.012-.446.02-.892.022-1.339.002-.17.006-.34.013-.51.068-.866.068-.866-.236-1.64-.274-.227-.575-.367-.907-.49-.205-.081-.385-.189-.574-.301a221.229 221.229 0 00-.84-.468l-.22-.123-1.012-.57-.195-.11-.388-.22a1983.26 1983.26 0 00-2.6-1.469l-.199-.112c-.412-.233-.822-.47-1.23-.712-.115-.079-.115-.079-.199-.073zm17.802.373l-.197.107-.207.114-.201.11-.585.321-.159.066c-.324.14-.324.14-.512.42a3.581 3.581 0 00-.017.535l-.002.199c0 .209.003.417.006.626v.626c0 .13 0 .26.003.39.006.639.006.639-.071.83-.152.077-.152.077-.342.136-.124.064-.248.13-.37.196l-.213.116-.22.12-.217.118c-.403.219-.403.219-.802.443l-.164.094-.142.083c-.264.126-.477.081-.743-.007-.1-.268-.084-.556-.09-.839a62.335 62.335 0 01-.004-.164l-.013-.518-.009-.352a495.23 495.23 0 01-.02-.862c-.66.351-1.318.702-1.975 1.055l-.12.065-.35.187-.204.11c-.148.074-.148.074-.223.155-.007.1-.008.201-.008.302v.644l.001.75v.52a1007.946 1007.946 0 00.004 2.63l.003 2.88c.26-.085.5-.175.741-.302l.188-.097.199-.106.212-.111c.445-.235.886-.475 1.326-.718.71-.392 1.431-.76 2.153-1.128.845-.43 1.686-.866 2.515-1.326.402-.222.807-.439 1.211-.656v-7.93c-.136 0-.267.104-.382.168z"/><path d="M13.185-.026l.25-.007c.984-.01 1.733.341 2.454.99.61.635 1.094 1.487 1.094 2.393l.149.055c.921.389 1.792 1.161 2.244 2.064h.247l2.302.012 1.184.006c.38.001.761.004 1.142.007l.436.002c.203 0 .407.002.61.004l.182-.001c.267.004.428.022.668.148.177.217.176.344.175.623l.001.138a82.226 82.226 0 00-.003.765c0 .22 0 .44-.003.658-.003.281-.003.562-.002.843a100.125 100.125 0 01-.003.96 37.018 37.018 0 01-.005.683c-.03.227-.074.322-.232.484-.128.051-.128.051-.265.068l-.136.021c-.223-.032-.328-.139-.488-.294-.04-.184-.04-.184-.038-.395v-.244l.005-.255.001-.236c.002-.29.006-.58.011-.87l.021-1.965h-5.263l.136.615c.025.294.023.586.022.88l.003.234v.425c-.025.17-.025.17-.116.292-.255.187-.53.161-.832.16l-.16.001a188.564 188.564 0 01-.912.001 649.261 649.261 0 01-1.899.002H14.13c-.701 0-1.402 0-2.103.002a1165.941 1165.941 0 01-2.881.002 295.156 295.156 0 01-1.386 0 81.774 81.774 0 01-.657.001c-.249-.001-.437-.013-.646-.154-.19-.248-.16-.548-.158-.846l-.004-.15c0-.526.114-.922.23-1.465H1.261v27.275h23.857v-.82c.273-.273.273-.273.41-.31l.137.002.137-.002c.2.053.28.152.41.31.034.177.034.177.034.376v.218l-.004.226.001.227c-.005.635-.005.635-.236.867-.19.034-.19.034-.425.034l-.272.002-.3-.002-.317.001h-5.811c-1.277 0-2.555-.001-3.832-.003a2007.4 2007.4 0 00-3.722-.001h-4.48l-.214-.001h-1.5a617.173 617.173 0 01-2.757-.002 142.445 142.445 0 01-1.162 0l-.418-.002H.56C.37 35 .37 35 .243 34.926c-.12-.202-.103-.375-.103-.608l-.001-.149v-.856c-.002-.33-.002-.659-.001-.988V31.26l-.001-2.087v-2.43c-.002-1.53-.001-3.063 0-4.594 0-1.402 0-2.805-.002-4.207-.002-1.439-.003-2.878-.002-4.316L.132 11.2a646.13 646.13 0 010-2.064V8.083c-.002-.321-.001-.642 0-.964V6.03c.04-.257.103-.338.308-.493.137-.034.137-.034.285-.033h.17l.185.002h.196a286.777 286.777 0 001.086.006c.39 0 .78.003 1.17.006l1.195.006c.782.003 1.563.007 2.344.013l.06-.16c.375-.896 1.353-1.612 2.196-2.027h.137c0-.04.002-.078.003-.119.047-.803.35-1.476.885-2.069l.114-.14c.71-.806 1.694-1.036 2.719-1.048zm-2.072 2a7.218 7.218 0 00-.299.4c-.211.351-.24.736-.272 1.137-.025.28-.05.463-.258.659-.176.097-.176.097-.38.188a4.423 4.423 0 00-2.24 2.45 3.84 3.84 0 00-.183 1.258h11.416c-.117-1.288-.555-2.26-1.504-3.144-.42-.32-.888-.559-1.359-.796-.145-.093-.145-.093-.213-.298-.02-.164-.038-.327-.056-.491-.05-.407-.114-.743-.354-1.081l-.106-.153a2.746 2.746 0 00-1.74-1.01c-.94-.068-1.798.171-2.452.88z"/><path d="M4.154 18.857l.22-.001h.238a186.45 186.45 0 01.757-.002c.261 0 .522 0 .783-.002h.498l.237-.002a175.355 175.355 0 01.415 0c.274.026.462.095.658.29.076.22.077.432.078.664l.001.237v.255l.001.263v.55c0 .236.002.47.003.705v.674l.002.255v.446c-.025.28-.091.47-.29.668-.215.074-.419.078-.645.08l-.224.002h-.242l-.25.002-.521.001c-.266 0-.532.003-.798.005l-.507.001-.242.003h-.423c-.22-.03-.345-.1-.523-.23-.159-.238-.155-.332-.157-.612a5374.801 5374.801 0 00-.003-.529 653.78 653.78 0 00-.002-.872c0-.252-.002-.504-.005-.755a70.569 70.569 0 01-.001-.582l-.002-.279c-.002-.13-.001-.26 0-.39v-.224c.042-.252.125-.365.306-.543.207-.086.416-.077.638-.078zm.251 1.172v2.735h2.46v-2.735h-2.46zm-.371 6.004l.237-.003a1456.64 1456.64 0 011.778-.011l.674-.003.256-.004h.448c.245.043.358.13.532.306.09.213.077.434.078.663l.001.237v.256l.001.263v.55l.003.705v.674l.002.254v.447c-.018.205-.06.35-.154.531-.236.158-.328.155-.608.156l-.25.002H5.899l-.746.003-.575.001-.409.002-.25-.001h-.222c-.182-.026-.182-.026-.305-.117-.165-.23-.16-.446-.161-.72l-.002-.25-.001-.27-.001-.276-.002-.581c0-.248-.002-.496-.003-.743-.002-.191-.002-.382-.002-.573 0-.136-.002-.271-.003-.407v-.47a.98.98 0 01.23-.54c.213-.072.364-.079.587-.081zm.37 1.174v2.734h2.461v-2.734H4.404zm-.472-15.423l.255-.002.275.004h.282c.197 0 .394 0 .591.003.253.003.505.003.758.003a80.889 80.889 0 01.862.002l.39.003.225.002c.183.027.183.027.307.114.169.245.159.492.16.781v.237l.001.256a7253.044 7253.044 0 00.003 1.518l.001.673.002.255v.447a1.18 1.18 0 01-.154.531c-.241.19-.423.231-.727.23l-.228.002-.246-.002h-.253c-.177 0-.354 0-.53-.002h-.812l-.515-.002h-.245l-.23-.002h-.2a1.247 1.247 0 01-.526-.155c-.16-.217-.154-.425-.156-.688l-.003-.254v-.274a659.907 659.907 0 00-.003-.87c0-.252-.002-.503-.004-.754a70.362 70.362 0 01-.002-.582c0-.137-.001-.275-.003-.412l.001-.255v-.223c.074-.443.293-.585.724-.584zm.472 1.067v2.735h2.46V12.85h-2.46zm9.759-10.617c.524.307.829.683 1.042 1.252.151.627.098 1.25-.238 1.809-.353.486-.757.763-1.334.926-.716.073-1.263-.027-1.863-.419a2.614 2.614 0 01-.756-1.658c.05-.585.245-1.103.636-1.546.713-.597 1.654-.769 2.513-.364zM12.3 3.602a1.303 1.303 0 00-.103.841c.15.332.348.497.674.64.247.074.45.063.693-.024.257-.154.434-.338.547-.616.05-.32.03-.556-.12-.846-.252-.295-.423-.425-.826-.461-.366.021-.622.204-.865.466zm-2.581 10.06h.196l.214-.001.226-.001.742-.002.516-.001.943-.001c.462 0 .924-.002 1.386-.004a301.053 301.053 0 011.713-.004h.714l.213-.002c.366.002.635.018.948.231.087.202.086.398.069.615-.086.171-.086.171-.206.274a1.459 1.459 0 01-.528.077l-.202.001h-.454l-.766.002H13.8l-1.286.002a464.063 464.063 0 01-1.764.003H9.416a.9.9 0 01-.43-.154c-.08-.159-.083-.263-.086-.44l-.005-.162c.022-.15.022-.15.108-.267.22-.162.45-.165.716-.166zm-.512 14.287l.186-.002h.204l.215-.002a276.288 276.288 0 01.948-.003l1.272-.003c.439-.001.877-.003 1.316-.006l1.01-.003c.162 0 .324 0 .486-.002.226-.002.452-.002.678-.001l.203-.003c.296.003.46.008.718.165.14.156.173.211.163.417-.016.237-.056.383-.24.547-.193.062-.37.077-.573.078h-.18l-.197.001-.208.001-.682.002-.474.001-.994.002c-.425 0-.85.002-1.274.003a290.557 290.557 0 01-1.448.004h-.657l-.196.002c-.354-.002-.604-.03-.91-.231-.09-.18-.092-.349-.068-.547.197-.318.338-.418.702-.42zm.456-7.135l.14-.001h.774l.665.001c.284.002.568 0 .851-.001a84.431 84.431 0 01.97 0c.147-.001.293 0 .44.001h.252c.263.042.376.121.562.31.084.245.091.358-.012.597a.75.75 0 01-.398.29c-.207.019-.207.019-.452.02h-.136c-.148.002-.296.001-.443.001l-.31.001h-.647l-.828.003a113.104 113.104 0 01-.944.002h-.672a1.003 1.003 0 01-.558-.231.978.978 0 01-.068-.684c.265-.265.444-.308.814-.309z"/></g><defs><clipPath id="clip0_670_15056"><path fill="#fff" transform="translate(.166)" d="M0 0h35v35H0z"/></clipPath></defs></svg>