<svg width="36" height="35" fill="none" xmlns="http://www.w3.org/2000/svg"><path d="M2.174 6.528l.186-.002.203.002.217-.002.72.001.517-.001h2.721c.924-.001 1.847 0 2.77.001h2.377a846.4 846.4 0 012.76-.001h.294a633.574 633.574 0 001.167 0c.458-.002.916-.001 1.374 0h.505c.229 0 .458 0 .687.002l.204-.002c.449.005.449.005.67.166.113.171.13.267.13.472.002.065.002.13.003.196l-.002.21.001.218-.001.455c-.002.233 0 .465.002.697 0 .148 0 .295-.002.442l.002.21c-.006.481-.006.481-.168.706-.154.1-.234.13-.417.127l-.136.002c-.137-.036-.137-.036-.41-.31v-2.46H2.688v3.28c.305 0 .61-.002.924-.004l3.02-.01 1.83-.006c.532-.003 1.064-.005 1.596-.005l.845-.003c.265-.002.53-.003.795-.002l.292-.002c.133-.002.265-.001.398 0l.226-.001c.237.042.317.12.465.307.036.137.036.137.034.273l.002.137c-.053.201-.15.28-.31.41-.191.034-.191.034-.417.033l-.259.001-.284-.003h-.299l-.811-.003c-.283-.002-.566-.002-.849-.002L8.28 12.05l-1.83-.006a1572.55 1572.55 0 01-3.762-.014v3.623l.874-.004c.952-.005 1.904-.008 2.855-.01.578-.001 1.155-.003 1.732-.006.503-.003 1.006-.005 1.509-.005.266 0 .533-.002.8-.004.25-.002.5-.002.751-.002l.408-.003.245.001h.213c.232.042.312.125.457.307.039.151.039.151.038.307l.005.156c-.064.227-.192.296-.385.425-.19.034-.19.034-.402.033l-.244.001-.265-.003h-.281c-.254 0-.507-.001-.761-.003-.266-.002-.531-.002-.797-.002-.502 0-1.004-.003-1.507-.006l-1.716-.006c-1.176-.003-2.352-.008-3.529-.014v3.555l.867-.004c.944-.005 1.888-.008 2.832-.01l1.718-.006 1.497-.006c.264 0 .528 0 .792-.003.249-.002.498-.002.746-.002.135 0 .27-.001.404-.003l.244.001H12c.242.042.357.137.532.306.045.152.045.152.043.308l.002.156c-.067.226-.194.296-.387.425-.19.034-.19.034-.402.033l-.244.001-.265-.003h-.281c-.254 0-.507-.001-.761-.003-.266-.002-.531-.002-.797-.002l-1.507-.006-1.716-.006c-1.176-.003-2.352-.008-3.529-.014v3.623l.874-.004c.952-.005 1.904-.008 2.855-.01.578-.001 1.155-.003 1.732-.006.503-.003 1.006-.005 1.509-.005.266 0 .533-.002.8-.004.25-.002.5-.002.751-.002l.408-.003.245.001h.213c.232.042.312.125.457.307.036.136.036.136.034.273l.002.137c-.053.2-.15.28-.31.41-.183.034-.183.034-.396.033l-.245.001-.268-.003h-.283l-.768-.003c-.267-.002-.535-.002-.802-.002-.507-.001-1.013-.004-1.52-.006-.684-.004-1.369-.005-2.053-.007-1.078-.003-2.157-.008-3.235-.013v4.375a8950.696 8950.696 0 012.611-.013c.532-.002 1.065-.004 1.597-.008.43-.003.858-.004 1.287-.005l.492-.003a71.6 71.6 0 01.687-.002l.206-.003c.46.003.46.003.682.164.102.155.131.233.129.417 0 .045 0 .09.002.137-.053.198-.154.28-.31.41-.161.034-.161.034-.343.034l-.209.003-.228-.002-.241.002H7.71c-.383 0-.766 0-1.15-.002a196.37 196.37 0 00-1.329 0c-.38.002-.761.002-1.142.002h-.681c-.254 0-.507 0-.76-.002l-.229.002-.209-.003h-.18c-.221-.047-.294-.133-.435-.308-.034-.191-.034-.191-.034-.417l-.002-.26.002-.288-.002-.305v-1.742c-.002-.59-.001-1.18 0-1.77a758.214 758.214 0 000-2.061c-.001-1.3 0-2.6.001-3.899v-3.347c-.002-1.295-.002-2.59-.001-3.885v-2.057c-.002-.584-.001-1.167 0-1.751v-.894l.001-.818v-.698l.001-.226c.063-.353.265-.499.614-.499z" fill="#000"/><path d="M16.409 24.036l.238-.002.256.001h.815c.235.002.47.001.706 0h.675l.256-.001.237.002h.21c.21.03.301.088.454.232.082.148.082.148.147.319l.072.185a303.693 303.693 0 01.147.387c.061.158.122.317.181.476l.09-.231c.116-.248.116-.248.32-.384.288-.035.435-.026.686.123l.207.171.234.19.12.1c.157.129.316.253.476.378l.357.28a77.512 77.512 0 00.904.704c.29.226.29.226.366.378.008.196.012.391.012.588l.002.185.002.606.001.21c.002.364.003.728.003 1.093l.006 1.131.003.87c0 .138 0 .277.002.416.002.195.002.39.001.584l.003.174c-.002.23-.007.392-.142.583-.222.163-.41.16-.675.157l-.156.001h-.517l-.37.001h-2.06l-1.768-.001c-.682-.002-1.363-.001-2.045 0-.585.002-1.17.002-1.755.001h-1.048c-.329.001-.658 0-.986 0h-.362c-.165 0-.33 0-.494-.002l-.145.002c-.225-.004-.346-.024-.53-.159-.166-.235-.146-.477-.143-.754l-.002-.184a55.109 55.109 0 010-.604l-.002-.419v-.879c.002-.375 0-.75-.002-1.126-.002-.29-.002-.578 0-.867l-.002-.415c-.002-.193 0-.387.001-.58l-.002-.174c.004-.295.017-.404.211-.64l.176-.14.12-.106.112-.09.128-.105a101.075 101.075 0 01.278-.224 57.85 57.85 0 011.505-1.167c.09-.068.18-.14.268-.21.202-.137.362-.113.597-.08.239.186.35.32.41.615l.046-.123.21-.548.072-.192.072-.185.066-.17c.176-.324.392-.38.745-.381zm.293 1.12c-.286.473-.286.473-.277.73.096.214.225.343.392.506l.097.095a197.551 197.551 0 01.512.5l.506.494c.397-.17.676-.506.979-.804l.195-.185.184-.181.17-.165c.132-.163.132-.163.11-.37-.072-.25-.072-.25-.27-.62h-2.598zm-1.64.684l-.237.24c-.195.188-.407.355-.618.525l-.145.116c-1.076.867-1.076.867-1.53 1.17-.03.213-.03.213-.023.467v.145c0 .16.001.319.003.478v.33l.006.87.004 1.045c.002.529.006 1.057.01 1.587h3.076c.112-.606.112-.606.196-1.213l.03-.248.029-.26.031-.274a267.84 267.84 0 00.15-1.296l.064-.564.046-.397c.123-.66.123-.66-.016-1.281l-.12-.102-.128-.118-.272-.234c-.328-.3-.44-.544-.489-.986h-.068zm5.81 0l-.013.119c-.082.528-.337.739-.754 1.047-.215.185-.318.32-.35.608.013.236.036.467.067.702.028.22.052.44.076.66.054.498.112.996.17 1.494a278.806 278.806 0 01.148 1.259l.03.258.028.238.025.21c.022.18.022.18.094.377h3.076c.028-.856.028-.856.047-1.712.006-.35.013-.7.026-1.05.01-.282.016-.564.018-.847.002-.107.005-.214.01-.321.036-.588.036-.588-.195-1.11a4.322 4.322 0 00-.752-.563 3.837 3.837 0 01-.394-.294c-.37-.292-.74-.583-1.121-.862-.1-.076-.1-.076-.236-.213zm-3.623 2.734l-.479 4.238h2.461l-.478-4.238c-.268.127-.268.127-.479.274-.48.046-.48.046-.743-.137l-.146-.137h-.136zM16.14 11.472l.14-.001a87.216 87.216 0 01.616-.004l.832-.003c.285 0 .57-.003.855-.006l.661-.002.315-.003c.934-.01 1.68.158 2.405.783.745.8.843 1.695.841 2.748l.001.302v.632l.003.8a108.23 108.23 0 01.002.918c.009 1.494-.331 2.923-1.393 4.034-1.059.981-2.344 1.34-3.758 1.317-1.222-.047-2.373-.592-3.223-1.465a5.025 5.025 0 01-1.154-2.518l-.035-.226c-.053-.428-.046-.858-.047-1.288a1074.918 1074.918 0 01-.009-2.197l-.002-.407c.002-.855.15-1.533.64-2.24l.128-.188c.578-.612 1.341-.979 2.182-.986zm-1.255 1.757c-.465.527-.52 1.037-.515 1.705v.187l.002.589.001.4.004.98c.573-.564.97-1.264 1.222-2.027a1.58 1.58 0 01.213-.434c.405-.136.889-.06 1.307-.03 1.5.084 3.034-.097 4.435-.654-.083-.444-.28-.723-.615-1.025-.562-.383-1.185-.353-1.84-.353l-.237-.001h-.495l-.752-.003h-.482l-.225-.002c-.796.002-1.434.098-2.023.668zm6.247 2.017l-.17.044-.181.048c-1.39.354-2.789.405-4.217.385l-.098.208c-.445.927-.931 1.712-1.718 2.388-.228.202-.228.202-.319.482.016.142.043.27.084.408l.052.179c.416 1.014.965 1.727 1.993 2.16.989.37 1.967.37 2.945-.03.869-.397 1.5-1.019 1.865-1.907.221-.631.265-1.202.261-1.865v-.223l-.002-.702-.001-.478-.003-1.167c-.187 0-.313.022-.49.07zm10.25-13.259c.162.131.23.216.338.401.03.292-.027.441-.184.688-.218.116-.218.116-.479.137-.248-.078-.458-.213-.671-.359-.875-.59-1.918-.662-2.937-.485-1.057.291-1.87.998-2.407 1.938-.433.953-.52 2.09-.16 3.083.474 1.027 1.226 1.779 2.283 2.185.901.268 1.939.255 2.799-.141.927-.506 1.663-1.224 1.999-2.245.08-.337.132-.68.173-1.023.034-.246.06-.392.21-.595.157-.11.231-.14.42-.136l.137-.003c.206.055.284.139.41.31.174 1.102-.204 2.237-.82 3.145-.751.993-1.8 1.754-3.03 2.02-1.447.173-2.867.023-4.059-.877-1.028-.839-1.695-1.884-1.935-3.194a8.343 8.343 0 01-.025-.855l-.003-.215c.005-1.288.538-2.373 1.437-3.28a5.146 5.146 0 016.504-.5zm.289 13.838l.137-.002c.21.056.28.134.41.31.04.22.034.436.031.658v.203c0 .22-.002.44-.004.66l-.002.46c0 .402-.003.804-.006 1.206l-.006 1.232c-.003.806-.007 1.611-.013 2.417l.171-.005c.256-.005.513-.009.769-.012l.27-.007.259-.003.238-.004c.25.037.328.107.48.304.037.137.037.137.035.274l.002.136c-.054.202-.148.28-.31.41-.204.035-.204.035-.446.035l-.136.002-.449-.001-.322.001c-.291.002-.583.001-.874 0h-2.452c-.592-.002-1.184-.002-1.776 0H25.24c-.286.002-.571.001-.857 0h-.314c-.143 0-.286 0-.43-.002h-.242c-.246-.042-.326-.113-.477-.308-.036-.137-.036-.137-.034-.273l-.002-.137c.057-.216.123-.284.31-.41.234-.034.464-.026.7-.017l.194.003c.158.004.315.008.473.014l-.005-.222a92.205 92.205 0 01-.01-.815 40.827 40.827 0 01-.012-.86 148.47 148.47 0 00-.004-.158c0-.245.01-.379.16-.576.156-.112.228-.14.418-.138l.136-.002c.207.055.28.14.41.31.024.197.032.368.027.565l-.001.164c-.002.173-.005.346-.009.518 0 .118-.002.235-.003.352-.003.288-.008.575-.014.862h2.188a123447.418 123447.418 0 00-.013-1.64c-.002-.334-.004-.668-.008-1.002-.003-.27-.004-.539-.005-.809l-.003-.308a1182.663 1182.663 0 01-.004-.68c.04-.251.108-.33.306-.483.137-.036.137-.036.274-.034l.137-.002c.202.053.28.146.41.31.033.209.033.209.03.457v.138a161.62 161.62 0 00-.006.76c0 .272-.003.545-.006.818l-.006.983c-.002.497-.008.994-.012 1.492h2.187l-.004-.623c-.005-.68-.008-1.358-.01-2.037-.001-.412-.003-.823-.006-1.235l-.006-1.191c0-.152-.001-.304-.003-.455a61.347 61.347 0 01-.002-.637l-.003-.19c.003-.426.003-.426.164-.644.155-.105.231-.135.417-.132z" fill="#000"/><path d="M34.201 1.709c.154.111.198.185.265.363.014.295-.113.496-.302.718-.137.144-.276.284-.418.424l-.16.161-.528.525-.366.366-.767.764a520.712 520.712 0 00-1.74 1.735 729.444 729.444 0 00-1.022 1.019l-.14.138-.12.12c-.192.175-.379.197-.636.193-.185-.04-.262-.105-.4-.233l-.143-.131a7.273 7.273 0 00-.154-.146l-.163-.154c-.172-.163-.342-.33-.512-.496l-.177-.169c-.532-.525-.532-.525-.583-.959.085-.22.181-.321.359-.474.207-.08.317-.072.528-.006.3.152.52.418.75.66l.16.166c.131.135.261.27.39.406a1.51 1.51 0 00.489-.336l.123-.124.133-.135.142-.143.304-.308.482-.486c.457-.46.914-.92 1.37-1.382a395.207 395.207 0 011.158-1.167l.446-.45.133-.135c.357-.357.598-.553 1.1-.324z" fill="#000"/></svg>