<svg width="36" height="35" fill="none" xmlns="http://www.w3.org/2000/svg"><g clip-path="url(#clip0_670_15077)" fill="#000"><path d="M18.577 14.688h.14c.154-.002.309-.002.463-.002h.333c.301-.002.602-.002.904-.002l.565-.001 1.773-.002 2.041-.003a594.684 594.684 0 012.523-.005 154.93 154.93 0 011.213-.001c1.986-.012 3.73.644 5.168 2.038 1.248 1.293 1.881 2.966 1.877 4.752l.001.234v.757l.002.532v1.111c0 .426 0 .852.002 1.277l.001 1.238.001.523c.007 2-.345 3.815-1.735 5.337l-.142.159c-1.156 1.226-2.782 1.946-4.46 2.041-.24.005-.478.006-.718.005h-.275c-.25.002-.5.001-.75.001l-.811.001a839.1 839.1 0 01-2.878.001H19.75l-3.2.002a2258.313 2258.313 0 01-5.138.003 514.55 514.55 0 01-2.372 0c-2.383.007-4.344-.368-6.115-2.077-1.23-1.28-1.843-2.959-1.839-4.718v-.235a173.789 173.789 0 01-.002-1.293v-1.11c0-.428 0-.855-.002-1.282a321.435 321.435 0 01-.003-1.764v-.952c.004-.612.004-.612.231-.882.223-.192.396-.291.688-.303.35.039.503.134.755.369.19.304.168.571.165.922l.001.219v.714l.003.497c.002.438.003.875.003 1.313 0 .698.003 1.396.006 2.095l.001.729c.003 1.754.27 3.21 1.524 4.528.786.748 1.892 1.297 2.988 1.3h.499l.278.001.764.001.824.002a1649.593 1649.593 0 002.928.003l3.118.003h1.012l3.255.005 3.344.004c.625 0 1.251 0 1.877.002.532.002 1.065.002 1.598.002h.815c.25.002.499.002.748 0l.395.003c1.328-.01 2.502-.563 3.454-1.473 1.01-1.057 1.37-2.409 1.37-3.839v-.202l.001-.656a704.264 704.264 0 01.001-1.423l.002-1.227a375.844 375.844 0 00.002-1.402c.006-1.714-.202-3.263-1.419-4.566-.939-.944-2.172-1.396-3.486-1.4h-.31l-.332-.002-.71-.002c-.375 0-.75-.002-1.124-.003-.863-.004-1.725-.006-2.588-.008a1445.247 1445.247 0 01-3.49-.011 230.069 230.069 0 01-1.017-.003l-.44-.002h-.248c-.371-.028-.634-.082-.908-.338-.165-.256-.214-.402-.214-.705.102-.318.219-.541.479-.752.232-.078.41-.078.655-.078z"/><path d="M19.288.889c.517.431.995.91 1.472 1.383l.237.232c.776.757 1.426 1.546 1.456 2.68.01 1.2-.404 1.978-1.236 2.825-.19.193-.381.383-.573.574l-.317.318-.858.858-.899.899-1.51 1.509-1.55 1.55a1687.458 1687.458 0 01-3.428 3.428l-.307.308-.422.42-.122.124c-.798.787-1.706.977-2.796.973l-.18-.003a35.161 35.161 0 00-.544 0c-1.122-.001-2.077-.168-2.932-.954-.865-.917-.965-1.99-.961-3.193 0-.157-.002-.314-.003-.47-.007-1.579.635-2.45 1.71-3.536l.538-.54.297-.299a1205.134 1205.134 0 011.307-1.31l1.579-1.582 1.815-1.82a1095.68 1095.68 0 012.247-2.253 261.565 261.565 0 011.078-1.08C15.718.585 17.503-.346 19.288.889zm-3.266 2l-.131.13-.43.43-.31.31c-.28.278-.559.558-.838.837l-.878.878-1.473 1.475a943.26 943.26 0 01-1.704 1.703A1052.014 1052.014 0 007.92 10.99a266.176 266.176 0 00-1.122 1.123 77.576 77.576 0 00-.531.531c-.551.562-.654 1.121-.654 1.887.003.167.008.334.012.5l.002.252c.016.568.09 1.104.52 1.512.61.454 1.427.372 2.153.381l.193.005c.97.005 1.432-.499 2.089-1.15.182-.18.364-.363.546-.545l.303-.3.817-.816.51-.51a1881.716 1881.716 0 013.442-3.436 1368.772 1368.772 0 002.278-2.275 342.355 342.355 0 001.094-1.091l.4-.4.118-.117c.323-.327.53-.66.569-1.13-.02-.901-.896-1.533-1.483-2.124a30.53 30.53 0 01-.195-.2c-.6-.627-.6-.627-1.395-.935l-.177.002-.178-.002c-.503.092-.86.384-1.209.739zm2.72 18.507c.263.137.445.337.546.616.01.19.013.374.009.564l-.002.154-.007.375.19-.107c.762-.414.762-.414 1.075-.388.342.122.552.27.748.585.068.324.03.604-.112.902-.148.204-.297.302-.512.431l-.206.126-.157.092.157.095.206.127.204.125c.279.199.373.331.45.666.026.3-.04.503-.197.764-.218.203-.403.293-.696.317-.412-.016-.74-.24-1.081-.453l-.005.195c-.04.858-.04.858-.337 1.172-.261.23-.449.24-.788.229-.256-.036-.393-.12-.58-.297-.258-.414-.225-.823-.204-1.3l-.193.105-.256.135-.126.07c-.336.173-.63.238-1.005.126a1.097 1.097 0 01-.471-.452c-.08-.298-.096-.51 0-.804.236-.376.553-.572.957-.752h.137c-.208-.23-.459-.356-.727-.506-.27-.181-.354-.326-.427-.643-.026-.3.04-.503.197-.765.229-.217.421-.294.73-.316.43.015.76.226 1.115.453l.008-.177c.057-.991.057-.991.441-1.357.315-.143.578-.171.919-.107zm8.751 0c.343.166.474.335.615.684.014.186.02.354.013.538l-.003.143c-.002.115-.006.23-.01.345l.19-.108c.762-.414.762-.414 1.075-.388.29.104.434.207.65.427.1.3.117.576.067.889-.203.391-.58.613-.957.82l.158.093.206.125.204.123c.244.182.366.346.42.648 0 .387-.034.625-.304.925-.307.186-.608.196-.957.137a4.293 4.293 0 01-.684-.41l-.007.18c-.053.926-.053.926-.445 1.28a1.248 1.248 0 01-.846.112 1.26 1.26 0 01-.535-.44c-.123-.37-.132-.744-.15-1.132l-.141.087-.187.113-.185.114c-.293.166-.52.187-.853.164-.314-.104-.49-.244-.64-.545-.082-.262-.056-.494.024-.754.247-.405.616-.596 1.026-.82l-.123-.08c-.891-.588-.891-.588-.97-.945-.011-.331.021-.593.234-.855.264-.257.44-.27.799-.268.359.053.646.25.949.44l.136.067-.007-.21a256.29 256.29 0 01-.005-.277l-.006-.137a1.327 1.327 0 01.223-.811c.32-.289.612-.346 1.026-.274zm-17.568 0c.272.156.447.317.546.616.005.187.007.372.005.56l-.001.155-.003.378.19-.107c.761-.414.761-.414 1.074-.388.341.122.549.269.748.58.057.28.046.528-.03.804-.245.33-.613.534-.957.752l.14.078c.658.378.658.378.817.674.08.305.092.54-.004.842-.186.258-.362.416-.68.488-.48.038-.834-.193-1.23-.441l-.008.197-.014.26-.011.257c-.047.324-.167.502-.381.743-.294.168-.554.168-.885.115-.28-.14-.437-.254-.547-.547a7.849 7.849 0 01-.043-.53l-.008-.144a47.436 47.436 0 01-.017-.351l-.175.104c-.798.457-.798.457-1.26.374a1.204 1.204 0 01-.616-.547 1.597 1.597 0 01.085-.901c.29-.297.644-.477 1.009-.67l-.187-.108a252.35 252.35 0 01-.368-.215c-.26-.156-.417-.288-.539-.567-.06-.34-.035-.613.12-.922.178-.199.313-.285.574-.338.55-.029.911.208 1.357.508l.005-.24.012-.315.003-.158c.015-.358.08-.577.322-.859.287-.198.622-.197.957-.137z"/></g><defs><clipPath id="clip0_670_15077"><path fill="#fff" transform="translate(.832)" d="M0 0h35v35H0z"/></clipPath></defs></svg>