<svg width="75" height="75" fill="none" xmlns="http://www.w3.org/2000/svg"><path d="M75 37.5c0 1.925-2.794 3.609-3.084 5.453-.297 1.893 1.837 4.354 1.258 6.138-.59 1.815-3.767 2.552-4.624 4.228-.864 1.694.401 4.698-.71 6.225-1.116 1.534-4.366 1.253-5.704 2.592-1.338 1.338-1.058 4.587-2.592 5.704-1.527 1.11-4.53-.154-6.225.71-1.676.856-2.413 4.034-4.228 4.624-1.784.579-4.245-1.555-6.138-1.258C41.11 72.206 39.425 75 37.5 75c-1.925 0-3.61-2.794-5.453-3.084-1.893-.297-4.354 1.837-6.138 1.258-1.815-.59-2.552-3.768-4.228-4.624-1.694-.864-4.698.4-6.225-.71-1.534-1.117-1.254-4.366-2.592-5.704-1.338-1.339-4.588-1.059-5.704-2.592-1.111-1.527.154-4.531-.71-6.225-.857-1.676-4.035-2.413-4.624-4.228-.579-1.784 1.555-4.245 1.258-6.138C2.794 41.109 0 39.425 0 37.5c0-1.925 2.794-3.61 3.084-5.453.297-1.893-1.837-4.355-1.258-6.138.59-1.815 3.767-2.552 4.623-4.228.865-1.695-.4-4.699.711-6.225 1.116-1.534 4.366-1.254 5.704-2.592 1.339-1.339 1.058-4.588 2.592-5.704 1.527-1.111 4.531.154 6.225-.71 1.676-.857 2.413-4.035 4.228-4.624 1.784-.58 4.245 1.555 6.138 1.258C33.89 2.794 35.575 0 37.5 0c1.925 0 3.61 2.794 5.453 3.084 1.893.297 4.354-1.837 6.138-1.258 1.815.59 2.552 3.767 4.228 4.623 1.694.865 4.698-.4 6.225.71 1.534 1.117 1.254 4.366 2.592 5.705 1.338 1.338 4.588 1.058 5.704 2.592 1.111 1.527-.154 4.53.71 6.225.857 1.676 4.035 2.413 4.624 4.228.58 1.784-1.555 4.245-1.258 6.138C72.206 33.89 75 35.575 75 37.5z" fill="#131112"/><path d="M69.59 37.5c0 17.723-14.368 32.09-32.09 32.09-17.723 0-32.09-14.367-32.09-32.09 0-17.723 14.367-32.09 32.09-32.09 17.722 0 32.09 14.367 32.09 32.09z" fill="#fff"/><path d="M9.696 26.943l.313-.689 3.36.302-2.44-2.33.313-.69 3.301 3.22-.251.553-4.596-.366zm-.169.371l.312-.686 2.882 1.158 1.123.51-.368.81-3.949-1.792zm1.572-3.463l.313-.688 3.949 1.792-.37.814-1.122-.51-2.77-1.408zm3.092-3.498l2.216 3.067-.558.769-2.562-3.852.355-.49.55.506zm3.485 1.32l-3.604-1.156-.656-.358.359-.494 4.46 1.237-.56.77zm-1.338-.905l.566.41-1.345 1.854-.567-.411 1.346-1.853zm3.369-1.31l-.68.655-.479-.505.675-.652a1.06 1.06 0 00.317-.525.976.976 0 00-.063-.588 1.963 1.963 0 00-.425-.621l-.147-.152a2.169 2.169 0 00-.459-.373 1.168 1.168 0 00-.443-.164.86.86 0 00-.422.048c-.137.05-.268.134-.392.254l-.699.674-.486-.504.699-.674c.208-.201.434-.35.675-.445.242-.098.49-.143.744-.134.254.009.504.071.749.188.245.114.475.283.69.505l.143.148c.213.222.373.458.48.708a1.812 1.812 0 010 1.493 2.11 2.11 0 01-.477.664zm-3.326-2.817l3.011 3.12-.643.621-3.01-3.12.642-.62zm7.716-1.52l.393.576L22.585 17l-.393-.576 1.905-1.303zm-3.719-1.866l2.448 3.58-.738.504-2.447-3.58.737-.504zm2.413.49l.383.56-1.657 1.133-.383-.56 1.657-1.133zm-.751-1.626l.395.578-1.903 1.3-.395-.577 1.903-1.301zm4.557-2.229l1.654 4.01-.824.339-1.654-4.009.824-.34zm5.283-1.585l1.067 4.203-.866.22-2.404-2.389.715 2.818-.866.22-1.067-4.203.866-.22 2.408 2.39-.716-2.82.863-.219zm7.906 1.626l-.03 1.719c-.07.08-.176.166-.318.26a2.09 2.09 0 01-.55.23 2.806 2.806 0 01-.808.087 2.059 2.059 0 01-.763-.15 1.655 1.655 0 01-.588-.419 1.84 1.84 0 01-.37-.662 2.736 2.736 0 01-.118-.892l.005-.271a2.85 2.85 0 01.144-.888 1.85 1.85 0 01.384-.652 1.6 1.6 0 01.582-.398c.224-.089.472-.131.744-.126.377.006.685.073.925.2.24.126.422.298.545.517.126.217.2.464.225.743l-.866-.016a1.107 1.107 0 00-.118-.386.647.647 0 00-.26-.26.92.92 0 00-.44-.101.79.79 0 00-.697.345c-.082.116-.145.26-.19.431a2.626 2.626 0 00-.073.6l-.005.278c-.004.226.014.427.055.602.04.174.103.321.186.442.085.118.19.209.317.27.126.062.273.095.442.098.14.002.258-.008.352-.03a.883.883 0 00.23-.082.72.72 0 00.14-.099l.013-.768-.816-.015.012-.637 1.709.03zm4.11 2.279l-.13.684-2.268-.43.13-.684 2.268.43zm-1.303-3.952l-.808 4.26-.878-.166.808-4.26.878.166zm1.356 2.055l-.126.667-1.973-.374.127-.667 1.972.374zm.622-1.68l-.13.688-2.265-.43.13-.687 2.265.43zm1.786.49l1.515.566c.311.116.56.262.749.439.19.177.312.379.365.606.052.228.03.475-.07.74a1.393 1.393 0 01-.321.52c-.13.127-.282.218-.455.272a1.72 1.72 0 01-.557.071l-.318.04-1.316-.491.238-.655.979.366a.816.816 0 00.395.058.546.546 0 00.299-.136.714.714 0 00.196-.296.784.784 0 00.053-.365.522.522 0 00-.139-.3.868.868 0 00-.343-.213l-.678-.254-1.272 3.407-.837-.313 1.517-4.062zm.754 4.91l-.25-2.156.887.325.273 2.127-.015.04-.895-.335zm4.619-2.646l.64.404-.756 3.287 2.64-2.099.64.404-3.638 2.832-.514-.324.988-4.504zm-.345-.217l.637.402-1.54 2.698-.657 1.043-.753-.475 2.313-3.668zm3.217 2.028l.64.404-2.313 3.668-.756-.477.658-1.043 1.77-2.552zm3.043 3.532l-3.338 1.782-.686-.656 4.162-2.02.437.419-.575.476zm-1.778 3.275l1.632-3.414.443-.602.442.422-1.828 4.253-.688-.659zm1.078-1.203l-.484.506-1.655-1.584.484-.506 1.655 1.584zm5.65 2.76l-3.515 2.54-.523-.725 1.336-3.114-2.356 1.702-.524-.724 3.515-2.54.524.724-1.337 3.12 2.359-1.705.521.722zm1.305 2.341l-1.397 1.668 2.175-.033.419.88-3.103-.103-1.426.679-.389-.817 1.425-.68 1.876-2.476.42.882zM10.046 39.499l-.065-.938.592-.04.064.937a.77.77 0 00.096.349c.055.087.127.15.215.186a.744.744 0 00.597-.041.511.511 0 00.214-.216.656.656 0 00.061-.36l-.046-.674-3.086.212-.053-.758 3.68-.254.1 1.433c.02.289-.016.539-.106.752-.089.214-.22.382-.395.504a1.189 1.189 0 01-.613.208 1.133 1.133 0 01-.628-.122 1.069 1.069 0 01-.434-.447 1.767 1.767 0 01-.193-.731zm2.584 2.031l.294 1.343c.06.276.07.522.03.738a1.01 1.01 0 01-.265.54 1.08 1.08 0 01-.562.291 1.175 1.175 0 01-.519.01.953.953 0 01-.404-.2 1.458 1.458 0 01-.308-.366l-.175-.209-.254-1.168.578-.131.19.869c.027.13.074.233.14.309a.466.466 0 00.234.151.608.608 0 00.302.004.666.666 0 00.286-.13.444.444 0 00.15-.237.738.738 0 00-.005-.344l-.131-.601-3.022.658-.162-.742 3.604-.786zm-3.164 2.8l1.427-1.172.176.783-1.395 1.176-.035.007-.173-.794zm3.448 4.242l-.163.062c-.262.1-.51.155-.746.163a1.66 1.66 0 01-.648-.097 1.394 1.394 0 01-.51-.337 1.581 1.581 0 01-.343-.55 1.595 1.595 0 01-.11-.638c.009-.208.06-.405.156-.592a1.69 1.69 0 01.416-.508 2.33 2.33 0 01.665-.376l.163-.062c.264-.1.512-.155.746-.163a1.66 1.66 0 01.648.098c.196.075.367.187.513.335.146.15.26.334.342.55.083.218.12.431.111.639-.009.21-.062.407-.16.592a1.638 1.638 0 01-.416.506 2.27 2.27 0 01-.664.378zm-.437-.655l.168-.064c.183-.07.338-.148.464-.234a1.12 1.12 0 00.294-.28.68.68 0 00.075-.666.684.684 0 00-.498-.445 1.153 1.153 0 00-.405-.01c-.152.02-.32.064-.502.134l-.168.065a2.26 2.26 0 00-.464.233c-.127.087-.226.18-.297.282a.7.7 0 00-.125.319.724.724 0 00.048.347.68.68 0 00.5.444c.12.026.257.03.408.01.153-.02.32-.066.502-.135zm-.234 3.518l-.394-.7.519-.287.392.696a.904.904 0 00.364.373.83.83 0 00.498.074 1.67 1.67 0 00.602-.217l.157-.089c.165-.093.3-.192.405-.298a.993.993 0 00.23-.33.73.73 0 00.051-.358.945.945 0 00-.125-.377l-.406-.72.519-.292.405.72c.121.215.195.432.222.651.03.22.013.434-.049.641-.061.208-.166.4-.315.577a1.98 1.98 0 01-.563.46l-.153.085a1.98 1.98 0 01-.685.245 1.54 1.54 0 01-1.23-.319 1.819 1.819 0 01-.444-.535zm3.03-2.136L12.06 51.11l-.373-.662 3.213-1.811.374.662zM18 53.397l.465.598-1.922 1.497c-.224.174-.45.273-.678.296a1.126 1.126 0 01-.653-.124 1.715 1.715 0 01-.564-.486 1.75 1.75 0 01-.335-.67 1.14 1.14 0 01.037-.665 1.34 1.34 0 01.456-.582l1.923-1.497.466.6-1.923 1.497a.907.907 0 00-.271.31.497.497 0 00-.043.32.788.788 0 00.158.323.77.77 0 00.274.233.484.484 0 00.319.034.908.908 0 00.368-.187L18 53.397zm1.703 1.883l-2.549 2.668-.55-.525 2.55-2.667.549.525zm1.597 1.527l-2.315.307-1.237.073.398-.615.952-.17 1.528-.239.674.644zm-3.173 2.07l.392-1.983.732.047-.474 2.558-.65-.622zm5.039-.701l-2.164 2.987-.614-.444 2.164-2.987.614.444zm.919.666l-.35.482-2.437-1.766.35-.482 2.437 1.766zm2.982 2.243l-2.172 2.376-.737-.333 2.766-2.799.47.212-.327.544zm-.497 3.13l.34-3.2.185-.609.474.214-.26 3.929-.74-.333zm.522-1.27l-.244.543-1.776-.801.244-.543 1.776.801zm4.11-1.081l.729.206-.663 2.345c-.078.273-.201.487-.371.64-.168.155-.368.25-.6.287-.23.036-.477.017-.742-.058a1.751 1.751 0 01-.667-.34 1.142 1.142 0 01-.363-.56 1.34 1.34 0 01.022-.738l.663-2.345.731.207-.663 2.345a.908.908 0 00-.034.411c.021.115.073.21.154.284a.79.79 0 00.319.166.77.77 0 00.359.025c.107-.02.2-.074.277-.161a.907.907 0 00.186-.369l.663-2.345zm3.296 3.356a.489.489 0 00-.007-.18.335.335 0 00-.087-.16.947.947 0 00-.202-.16 3.126 3.126 0 00-.346-.183 4.669 4.669 0 01-.45-.242 1.963 1.963 0 01-.361-.284 1.062 1.062 0 01-.226-.349.873.873 0 01-.042-.427.865.865 0 01.154-.401.962.962 0 01.323-.286 1.33 1.33 0 01.454-.153 1.97 1.97 0 01.554-.003c.27.035.5.114.688.237.188.123.327.276.415.46.09.184.122.384.094.602l-.749-.097a.569.569 0 00-.031-.29.462.462 0 00-.176-.22.723.723 0 00-.328-.113.786.786 0 00-.334.018.439.439 0 00-.217.133.393.393 0 00-.094.213.32.32 0 00.024.174.514.514 0 00.122.16 1.4 1.4 0 00.213.152c.086.05.185.101.3.153.191.086.358.177.499.271.142.096.259.197.349.303a.95.95 0 01.19.35c.036.125.045.263.026.414a.96.96 0 01-.148.415.884.884 0 01-.31.285c-.129.072-.277.12-.446.144a2.045 2.045 0 01-.554-.003 2.083 2.083 0 01-.526-.139 1.64 1.64 0 01-.451-.28 1.11 1.11 0 01-.294-.416 1.077 1.077 0 01-.06-.552l.757.098a.712.712 0 00.015.295.486.486 0 00.124.21.65.65 0 00.218.136c.087.033.185.057.292.07.13.017.24.013.329-.013a.4.4 0 00.3-.342zm5.098 1.044l-.8.064-.043-.59.796-.065a.9.9 0 00.492-.174.83.83 0 00.276-.42 1.67 1.67 0 00.056-.638l-.015-.18a1.847 1.847 0 00-.1-.492.993.993 0 00-.203-.347.731.731 0 00-.303-.197.946.946 0 00-.395-.045l-.824.066-.047-.593.823-.066c.246-.02.474.004.685.072.212.066.399.17.561.313.162.143.292.32.39.528.1.208.16.443.181.705l.014.174c.021.261 0 .503-.066.725a1.54 1.54 0 01-.806.982 1.82 1.82 0 01-.672.178zm-.665-3.647l.294 3.677-.758.06-.294-3.676.758-.06zm5.976 2.18l.128.58-1.917.423-.128-.579 1.917-.424zm-2.343-2.652l.796 3.601-.742.164-.796-3.601.742-.164zm1.75 1.152l.124.564-1.667.368-.125-.564 1.667-.368zm-.077-1.522l.128.581-1.915.423-.128-.58 1.915-.424zm2.655-.929l.709-.266.857 2.281c.1.266.127.51.081.735-.043.224-.148.42-.313.586a1.718 1.718 0 01-.63.394 1.752 1.752 0 01-.74.121 1.141 1.141 0 01-.624-.234 1.34 1.34 0 01-.42-.607l-.858-2.282.712-.267.857 2.281c.058.155.13.273.216.352a.5.5 0 00.292.137.81.81 0 00.356-.055.769.769 0 00.303-.193.484.484 0 00.128-.294.907.907 0 00-.069-.407l-.857-2.282zm3.093-1.501l1.77 3.236-.665.363-1.77-3.236.665-.363zm.995-.545l.286.522-2.64 1.444-.286-.522 2.64-1.444zm3.499.818a.487.487 0 00-.13-.125.335.335 0 00-.172-.056.946.946 0 00-.257.023c-.103.02-.228.056-.378.107-.166.056-.33.1-.491.135-.16.034-.313.049-.458.044a1.061 1.061 0 01-.404-.096.874.874 0 01-.325-.28.865.865 0 01-.166-.396.962.962 0 01.036-.43c.044-.145.118-.287.223-.424.105-.139.239-.267.4-.385.218-.161.438-.262.66-.303a1.14 1.14 0 01.618.045c.192.07.353.194.483.371l-.608.447a.57.57 0 00-.223-.188.463.463 0 00-.279-.037.723.723 0 00-.315.144.786.786 0 00-.23.244.439.439 0 00-.064.246c.003.079.03.152.078.218.038.05.083.087.138.11a.513.513 0 00.198.03c.076-.001.163-.013.26-.036.096-.023.203-.055.322-.096.198-.07.38-.12.548-.148a1.64 1.64 0 01.462-.022.95.95 0 01.378.121c.114.066.215.16.305.282a.96.96 0 01.18.403.885.885 0 01-.028.42 1.28 1.28 0 01-.222.412 2.05 2.05 0 01-.403.38 2.086 2.086 0 01-.477.263 1.638 1.638 0 01-.52.109 1.11 1.11 0 01-.5-.098c-.16-.072-.3-.191-.423-.359l.614-.451c.068.092.14.16.216.203a.486.486 0 00.234.067.642.642 0 00.25-.053c.087-.036.174-.086.261-.15a.812.812 0 00.228-.237.4.4 0 00-.019-.454zm2.921-2.954l.54-.53c.164.188.269.394.317.617.049.221.034.446-.045.674a1.706 1.706 0 01-.44.659 1.59 1.59 0 01-.54.358c-.191.072-.389.1-.592.083a1.581 1.581 0 01-.605-.187 2.413 2.413 0 01-.587-.45l-.179-.183a2.36 2.36 0 01-.436-.598 1.618 1.618 0 01-.17-.616 1.378 1.378 0 01.097-.592c.076-.19.196-.367.362-.529.22-.214.444-.356.672-.424.23-.07.456-.075.676-.016.221.057.428.166.62.328l-.543.532a.978.978 0 00-.328-.207.503.503 0 00-.33-.007.865.865 0 00-.345.225.735.735 0 00-.188.283.616.616 0 00-.02.32c.022.114.073.235.153.362.08.125.188.258.325.398l.183.186c.133.137.261.247.383.33.121.083.238.14.35.169.112.027.22.026.322-.004a.757.757 0 00.3-.19.888.888 0 00.227-.33.525.525 0 00.01-.325.88.88 0 00-.19-.336zm1.94-3.854l.473.358-1.162 1.535-.472-.357 1.162-1.535zm-2.223.45l2.941 2.226-.459.606-2.94-2.227.458-.606zm1.353-1.788l2.941 2.226-.457.604-2.941-2.227.457-.604zm4.35-1.372l.519.29-.905 1.621-.518-.289.905-1.622zm-3.488-.1l3.222 1.797-.37.663-3.222-1.796.37-.664zm2.248-3.268l2.483 2.049-.295.752-2.936-2.62.188-.479.56.298zm3.152.338l-3.214-.177-.617-.155.189-.483 3.937.06-.295.755zm-1.295-.458l.554.217-.71 1.815-.554-.217.71-1.815zM62.36 41.62l3.599.815-.168.741-2.739.9 2.412.546-.168.741-3.598-.814.168-.742 2.742-.901-2.414-.547.167-.738zm3.886-1.777l-.058.8-.59-.047.057-.796a.901.901 0 00-.098-.512.83.83 0 00-.374-.337 1.67 1.67 0 00-.622-.152l-.18-.013a1.844 1.844 0 00-.502.025.991.991 0 00-.373.148.73.73 0 00-.241.27.946.946 0 00-.104.384l-.06.824-.593-.043.06-.824c.017-.246.075-.468.174-.666a1.54 1.54 0 01.976-.813c.22-.067.461-.091.724-.072l.174.012c.261.019.497.077.707.175a1.54 1.54 0 01.849.945c.067.212.092.442.074.692zm-3.706.106l3.68.265-.055.758-3.68-.265.055-.758z" fill="#131112"/><mask id="mask0_5695_37557" style="mask-type:luminance" maskUnits="userSpaceOnUse" x="15" y="15" width="45" height="45"><path d="M59.046 37.5c0 11.899-9.647 21.545-21.546 21.545-11.9 0-21.546-9.646-21.546-21.546 0-11.899 9.647-21.545 21.546-21.545 11.9 0 21.546 9.646 21.546 21.545z" fill="#fff"/></mask><g mask="url(#mask0_5695_37557)"><mask id="mask1_5695_37557" style="mask-type:luminance" maskUnits="userSpaceOnUse" x="13" y="15" width="49" height="16"><path d="M61.045 30.318h-47.09V15.954h47.09v14.364z" fill="#fff"/></mask><g mask="url(#mask1_5695_37557)"><path d="M17.179 30.33v-.08h.026v-.08h.027v-.08h.027v-.08h.026v-.052h.027v-.08h.026v-.053h.027v-.08h.027v-.053h.026v-.08h.027v-.053h.026v-.08h.027v-.08h.026v-.053h.027v-.08h.027v-.053h.026v-.08h.027v-.053h.026v-.053h.027v-.08h.027v-.053h.026v-.053h.027v-.053h.026v-.054h.027v-.08h.027v-.053h.026v-.053h.027v-.053h.026v-.053h.027v-.08h.027v-.053h.026v-.053h.027v-.054h.026v-.053h.027v-.053h.027v-.053h.026v-.053h.027v-.053h.026v-.054h.027v-.053h.026v-.053h.027v-.053h.027v-.053h.026v-.054h.027v-.053h.026v-.053h.027v-.053h.027v-.053h.026v-.054h.027v-.053h.027v-.053h.026v-.053h.027v-.027h.026v-.053h.027v-.053h.027v-.027h.026v-.053h.027v-.053h.026v-.053h.027v-.027h.026v-.053h.027v-.053h.027v-.053h.026v-.027h.027v-.053h.026v-.053h.027V26.5h.027v-.026h.026v-.053h.027v-.054h.026v-.053h.027v-.026h.027v-.054h.026v-.026h.027v-.053h.026v-.027h.027v-.053h.027v-.053h.026v-.027h.027v-.053h.026v-.027h.027v-.053h.027v-.027h.026v-.053h.027v-.026h.026v-.054h.027v-.053h.026v-.026h.027v-.054h.027v-.026h.026v-.053h.027v-.027h.026v-.053h.027v-.027h.027v-.053h.026v-.026h.027v-.027h.027v-.053h.026v-.027h.027v-.053h.026v-.027h.027v-.026h.027v-.053h.026v-.027h.027v-.053h.026v-.027h.027v-.027h.026v-.053h.027v-.026h.027v-.053h.026v-.027h.027v-.053h.026v-.027h.027v-.026h.027v-.054h.026v-.026h.027v-.027h.026v-.053h.027v-.027h.027v-.026h.026v-.027h.027v-.053h.026v-.027h.027v-.026h.027v-.027h.026v-.053h.027v-.027h.026v-.026h.027v-.053h.027v-.027h.026v-.026h.027v-.027h.026v-.053h.027v-.027h.026v-.026h.027v-.027h.027v-.053h.026v-.027h.027v-.026h.026v-.027h.027v-.053h.027v-.027h.026v-.027h.027v-.026h.027v-.027h.026v-.026h.027v-.027h.026v-.053h.027v-.027h.027v-.026h.026v-.027h.027v-.026h.026v-.027h.027v-.053h.026v-.027h.027v-.026h.027v-.027h.026v-.027h.027v-.026h.026v-.027h.027v-.053h.027v-.027h.026v-.026h.027v-.027h.026v-.026h.027v-.027h.027v-.027h.026v-.026h.027v-.027h.026v-.026h.027v-.027h.027v-.053h.026v-.027h.027v-.026h.026v-.027h.027v-.026h.027v-.027h.026v-.027h.027v-.026h.026v-.027h.027v-.026h.026v-.027h.027v-.027h.027v-.026h.026v-.027h.027v-.027h.026v-.026h.027v-.027h.027v-.026h.026v-.027h.027v-.026h.027v-.027h.026v-.027h.027v-.026h.026v-.027h.027v-.026h.027v-.027h.026v-.027h.027v-.026h.026v-.027h.027v-.026h.026v-.027h.027v-.027h.027v-.026h.026v-.027h.027v-.026h.026v-.027h.027v-.027h.027v-.026h.026v-.027h.027v-.026h.026v-.027h.054v-.027h.026v-.026h.027v-.027h.026v-.026h.027v-.027h.027v-.026h.026v-.027h.027V21.5h.026v-.026h.027v-.027h.027v-.026h.053v-.027h.026v-.027h.027v-.026h.026v-.027h.027v-.026h.027v-.027h.053v-.027h.026v-.026h.027v-.027h.027v-.027h.026v-.026h.027v-.027h.027v-.026h.053v-.027h.026v-.026h.027v-.027h.027v-.027h.026v-.026h.027v-.027h.053v-.026h.026v-.027h.027v-.027h.027v-.026h.026v-.027h.053v-.026h.027v-.027h.027v-.027h.053v-.026h.026v-.027h.027v-.026h.027v-.027h.053v-.027h.026v-.026h.027v-.027h.027v-.026h.053v-.027h.026v-.027h.027v-.026h.053v-.027h.027v-.026h.026v-.027h.027v-.026h.053v-.027h.027v-.027h.026v-.026h.027v-.027h.053v-.026h.027v-.027h.053v-.027h.027v-.026h.053v-.027h.026v-.026h.027v-.027h.053v-.027h.027v-.026h.053v-.027h.026v-.027h.027v-.026h.053v-.027h.027v-.026h.053v-.027h.027v-.026h.026v-.027h.053v-.027h.027v-.026h.053v-.027h.027v-.026h.026v-.027h.054v-.027h.053v-.026h.026v-.027h.054v-.026h.026v-.027h.053v-.027h.027v-.026h.053v-.027h.027v-.026h.053v-.027h.053v-.027h.027v-.026h.053v-.027h.027v-.026h.053v-.027h.026v-.027h.053v-.026h.027v-.027h.053v-.026h.053v-.027h.027v-.026h.053v-.027h.053V19h.027v-.026h.053v-.027h.053v-.026h.054v-.027h.026v-.027h.053v-.026h.054v-.027h.053v-.026h.026v-.027h.054v-.027h.053v-.026h.026v-.027h.053v-.027h.054v-.026h.053v-.027h.026v-.026h.054v-.027h.053v-.026h.053v-.027h.053v-.027h.053v-.026h.054v-.027h.053v-.026h.053v-.027h.053v-.027h.053v-.026h.054v-.027h.053v-.026h.026v-.027h.054v-.027h.053v-.026h.053v-.027h.053v-.026h.053v-.027h.054v-.027h.053v-.026h.053v-.027h.08v-.026h.053v-.027h.053v-.027h.053v-.026h.054v-.027h.08v-.026h.053v-.027h.053v-.026h.053v-.027h.08v-.027h.053v-.026h.053v-.027h.053v-.026h.053v-.027h.08v-.027h.053v-.026h.08v-.027h.053v-.026h.08v-.027h.053v-.027h.08v-.026h.053v-.027h.08v-.027h.08v-.026h.053v-.027h.08v-.026h.053v-.027h.08v-.026h.053v-.027h.08v-.027h.08v-.026h.08v-.027h.08v-.026h.079v-.027h.08v-.027h.08v-.026h.08v-.027h.08v-.026h.079v-.027h.08v-.027h.08v-.026h.053v-.027h.106v-.026h.08v-.027h.106v-.027h.107v-.026h.08v-.027h.106v-.026h.08v-.027h.106v-.027h.08v-.026h.106v-.027h.08v-.026h.133v-.027h.106v-.026h.107v-.027h.133V16.5h.106v-.026h.106v-.027h.133v-.026h.107v-.027h.106v-.027h.16v-.026h.133v-.027h.16v-.026h.159v-.027h.133v-.027h.16v-.026h.132v-.027h.213v-.027h.213v-.026h.213v-.027h.186v-.026h.213v-.027h.319v-.026h.346v-.027h.345v-.027h.612v-.026h1.33v.026h.612v.027h.345v.027h.346v.026h.32v.027h.212v.026h.213v.027h.186v.026h.213v.027h.212v.027h.133v.026h.16v.027h.16v.027h.132v.026h.16v.027h.133v.026h.16v.027h.106v.027h.133v.026h.106v.027h.107v.026h.133v.027h.106v.026h.106v.027h.133v.027h.107v.026h.08v.027h.106v.026h.106v.027h.08v.027h.107v.026h.08v.027h.106v.026h.08v.027h.106v.027h.08v.026h.106v.027h.08v.026h.08v.027h.08v.027h.053v.026h.08v.027h.08v.026h.079v.027h.08v.027h.08v.026h.08v.027h.08v.026h.079v.027h.08v.027h.053v.026h.08v.027h.08v.026h.053v.027h.08v.026h.053v.027h.08v.027h.053v.026h.08v.027h.053v.027h.08v.026h.053v.027h.08v.026h.053v.027h.08v.027h.052v.026h.054v.027h.053v.026h.08v.027h.053v.026h.053v.027h.053v.027h.053v.026h.08v.027h.053v.026h.054v.027h.053v.027h.053v.026h.08v.027h.053v.026h.053v.027h.053v.027h.053v.026h.054v.027h.053v.026h.053v.027h.053v.027h.053v.026h.054v.027h.053v.026h.026v.027h.054v.027h.053v.026h.053v.027h.053v.026h.053v.027h.054v.027h.053v.026h.053v.027h.053v.026h.027v.027h.053v.026h.053v.027h.053v.027h.027v.026h.053v.027h.053v.027h.053v.026h.027v.027h.053v.026h.053v.027h.054v.027h.026v.026h.053v.027h.054V19h.053v.027h.026v.026h.054v.027h.053v.027h.027v.026h.053v.027h.026v.026h.053v.027h.027v.027h.053v.026h.027v.027h.053v.026h.053v.027h.027v.027h.053v.026h.027v.027h.053v.026h.026v.027h.054v.027h.026v.026h.053v.027h.053v.026h.027v.027h.053v.027h.027v.026h.027v.027h.053v.026h.026v.027h.053v.027h.027v.026h.053v.027h.027v.026h.026v.027h.054v.026h.026v.027h.054v.027h.026v.026h.027v.027h.053v.027h.026v.026h.054v.027h.026v.026h.027v.027h.053v.027h.027v.026h.053v.027h.026v.026h.027v.027h.053v.026h.027v.027h.026v.027h.027v.026h.053v.027h.027v.026h.026v.027h.027v.027h.053v.026h.027v.027h.026v.026h.053v.027h.027v.027h.027v.026h.026v.027h.053v.026h.027v.027h.027v.027h.026v.026h.053v.027h.027v.026h.027v.027h.026v.027h.054v.026h.026v.027h.027v.026h.026v.027h.027v.027h.026v.026h.054v.027h.026v.026h.027v.027h.026v.026h.027v.027h.027v.027h.026v.026h.053v.027h.027v.027h.027v.026h.026v.027h.027v.026h.026v.027h.054v.027h.026v.026h.027v.027h.026v.026h.027v.027h.026v.026h.027v.027h.027v.027h.026v.026h.027v.027h.053v.026h.027v.027h.026v.027h.027v.026h.026v.027h.027v.026h.027v.027h.026v.027h.027v.026h.026v.027h.027v.026h.027v.027h.026v.027h.027v.026h.027v.027h.026v.026h.027v.027h.026v.027h.027v.026h.026v.027h.054v.026h.026v.027h.027v.027h.026v.026h.027v.053h.027v.027h.026v.026h.027v.027h.026v.027h.027v.026h.027v.027h.026v.027h.027v.026h.026v.027h.027v.026h.027v.027h.026v.027h.027v.026h.026v.027h.027v.026h.026v.027h.027v.026h.027v.027h.026v.027h.027v.053h.027v.026h.026v.027h.027v.027h.026v.026h.027v.027h.026v.026h.027v.027h.027v.027h.026v.053h.027v.026h.026v.027h.027v.027h.027v.026h.026v.027h.027v.026h.027v.054h.026v.026h.027v.027h.026v.026h.027v.027h.026v.027h.027v.053h.027v.026h.026v.027h.027v.026h.026v.027h.027v.027h.027v.026h.026v.053h.027v.027h.026v.027h.027v.026h.027v.053h.026v.027h.027v.027h.026V24h.027v.053h.027v.027h.026v.027h.027v.053h.026v.026h.027v.027h.026v.027h.027v.053h.027v.026h.026v.027h.027v.027h.027v.053h.026v.026h.027v.027h.026v.053h.027v.027h.026v.026h.027v.027h.027v.053h.026v.027h.027v.053h.026v.027h.027v.053h.027v.026h.026v.027h.027v.053h.027v.027h.026v.053h.027v.027h.026v.026h.027v.053h.026v.027h.027v.053h.027v.027h.026v.026h.027v.053h.026v.027h.027v.053h.027v.027h.026v.026h.027v.054h.026v.053h.027v.026h.027v.054h.026v.026h.027v.053h.026v.027h.027v.053h.027v.053h.026v.027h.027v.053h.026v.027h.027v.053h.026v.027h.027v.053h.027v.026h.026v.053h.027v.054h.027v.026h.026v.053h.027v.027h.026v.053h.027v.053h.026v.027h.027v.053h.027v.053h.026v.054h.027v.026h.026v.053h.027v.054h.027v.053h.026v.026h.027v.054h.027v.053h.026v.053h.027v.027h.026v.053h.027v.053h.026v.053h.027v.027h.027v.053h.026v.053h.027v.053h.026v.053h.027v.054h.027v.053h.026v.053h.027v.053h.026v.053h.027v.054h.027v.053h.026v.053h.027v.053h.026v.053h.027v.027h.027v.053h.026v.053h.027v.054h.026v.053h.027v.08h.026v.053h.027v.053h.027v.053h.026v.08h.027v.053h.027v.053h.026v.053h.027v.054h.026v.08h.027v.053h.026v.053h.027v.053h.027V29h.026v.08h.027v.053h.026v.08h.027v.053h.027v.08h.026v.053h.027v.08h.027v.053h.026v.08h.027v.053h.026v.08h.027v.053h.026v.08h.027v.053h.027v.08h.026v.08h.027v.053h.026v.08h.027v.08h.027v.026" fill="url(#paint0_linear_5695_37557)"/></g></g><mask id="mask2_5695_37557" style="mask-type:luminance" maskUnits="userSpaceOnUse" x="15" y="15" width="45" height="45"><path d="M59.046 37.5c0 11.899-9.647 21.545-21.546 21.545-11.9 0-21.546-9.646-21.546-21.546 0-11.899 9.647-21.545 21.546-21.545 11.9 0 21.546 9.646 21.546 21.545z" fill="#fff"/></mask><g mask="url(#mask2_5695_37557)"><mask id="mask3_5695_37557" style="mask-type:luminance" maskUnits="userSpaceOnUse" x="13" y="30" width="49" height="15"><path d="M61.045 44.682h-47.09V30.318h47.09v14.364z" fill="#fff"/></mask><g mask="url(#mask3_5695_37557)"><path d="M17.152 44.691v-.08h-.027v-.08H17.1v-.079h-.027v-.08h-.026v-.08h-.027v-.08h-.026v-.08h-.027v-.079h-.027v-.08h-.026v-.08h-.027v-.106h-.026v-.08h-.027v-.106h-.027v-.08h-.026v-.106h-.027v-.08h-.026v-.106H16.7v-.08h-.027v-.107h-.026v-.08h-.027v-.106h-.026v-.133h-.027v-.106h-.027v-.106h-.026v-.133h-.027v-.107h-.026v-.106h-.027v-.133h-.027v-.107h-.026v-.133h-.027v-.133h-.026v-.16H16.3v-.159h-.026v-.133h-.027v-.16h-.027v-.132h-.026v-.186h-.027v-.213h-.026v-.186h-.027v-.213h-.027v-.213h-.026v-.24h-.027v-.345h-.026v-.346h-.027v-.345h-.027v-.798h-.026v-.665h.026v-.798h.027v-.346h.027v-.346h.026v-.345h.027v-.24h.026v-.186h.027v-.213h.027v-.212h.026v-.213h.027v-.16h.026v-.16h.027v-.132h.026v-.16h.027v-.16h.027v-.132h.026v-.16h.027v-.133h.026v-.106h.027v-.107h.027v-.133h.026v-.106h.027v-.106h.026v-.133h.027v-.107h.027v-.106h.026v-.107h.027v-.106h.026v-.08h.027v-.106h.027v-.08h.026v-.106h.027v-.08h.026v-.107h.027v-.08h.027v-.106h.026v-.08h.027v-.106h.026v-.08h.027v-.08h.026v-.08h.027v-.052h.027v-.08h.026v-.08h.027v-.08h.026v-.08h.027v-.08h.027v-.026h40.665v.08h.026v.08h.027v.08h.026v.08h.027v.079h.027v.08h.026v.08h.027v.08h.026v.08h.027v.079h.027v.106h.026v.08h.027v.107h.026v.08h.027v.106h.026v.08h.027v.106h.027v.08h.026v.106h.027v.08h.027v.106h.026v.107h.027v.133h.026v.106h.027v.106h.026v.133h.027v.107h.027v.106h.026v.133h.027v.106h.026v.16h.027v.16h.027v.133h.026v.16h.027v.132h.027v.16h.026v.16h.027v.212h.026v.213h.027v.213h.026v.186h.027v.212h.027v.346h.026v.373h.027v.345h.026v.718h.027v.878h-.027v.718h-.026v.372h-.027v.346h-.026v.346h-.027v.213h-.027v.213h-.026v.212h-.027v.186h-.026v.213H58.8v.16h-.026v.16h-.027v.132h-.027v.16h-.026v.16h-.027v.133h-.026v.16h-.027v.132h-.027v.106h-.026v.107h-.027v.133h-.026v.106h-.027v.107h-.027v.106h-.026v.133h-.027v.106h-.026v.107h-.027v.08h-.027v.106h-.026v.106h-.027v.08h-.026v.106h-.027v.08h-.027v.107h-.026v.08h-.027v.106h-.026v.08h-.027v.08h-.027v.08h-.026v.079h-.027v.08h-.026v.08h-.027v.08h-.027v.079h-.026v.08h-.027v.08h-.026v.08" fill="url(#paint1_linear_5695_37557)"/></g></g><mask id="mask4_5695_37557" style="mask-type:luminance" maskUnits="userSpaceOnUse" x="15" y="15" width="45" height="45"><path d="M59.046 37.5c0 11.899-9.647 21.545-21.546 21.545-11.9 0-21.546-9.646-21.546-21.546 0-11.899 9.647-21.545 21.546-21.545 11.9 0 21.546 9.646 21.546 21.545z" fill="#fff"/></mask><g mask="url(#mask4_5695_37557)"><mask id="mask5_5695_37557" style="mask-type:luminance" maskUnits="userSpaceOnUse" x="13" y="44" width="49" height="16"><path d="M61.045 59.045h-47.09V44.68h47.09v14.364z" fill="#fff"/></mask><g mask="url(#mask5_5695_37557)"><path d="M36.62 59.053v-.027h-.478V59h-.346v-.026h-.346v-.027h-.292v-.026h-.213v-.027h-.186v-.026h-.213v-.027h-.213v-.027h-.186v-.026h-.16v-.027h-.133v-.026h-.16v-.027h-.132v-.027h-.16v-.026h-.16v-.027h-.132v-.026h-.107v-.027h-.133v-.027h-.106v-.026h-.106v-.027h-.133v-.026h-.107v-.027h-.106v-.027h-.133v-.026h-.106v-.027h-.08v-.026h-.107v-.027h-.08v-.026H31.7v-.027h-.08v-.027h-.106v-.026h-.08v-.027h-.106v-.026h-.08v-.027h-.106v-.027h-.08v-.026h-.08v-.027h-.08v-.026h-.08v-.027h-.08v-.027h-.079v-.026h-.08v-.027h-.08v-.026h-.08v-.027h-.08v-.027h-.079v-.026h-.08v-.027h-.08v-.027h-.053v-.026h-.08v-.027h-.08v-.026h-.052v-.027h-.08v-.026h-.053v-.027h-.08v-.027h-.053v-.026h-.08v-.027h-.053v-.026h-.08v-.027h-.053v-.027h-.08v-.026h-.053v-.027h-.08v-.026h-.053v-.027h-.054v-.027h-.08v-.026h-.052v-.027H28.8v-.026h-.053v-.027h-.053v-.027h-.08v-.026h-.053v-.027h-.053v-.026h-.053v-.027h-.054v-.026h-.08v-.027h-.053v-.027h-.053v-.026h-.053v-.027h-.053V56.9h-.053v-.027h-.054v-.027h-.053v-.026h-.053v-.027h-.053v-.026h-.053v-.027h-.054v-.027h-.053v-.026h-.053v-.027h-.053v-.026h-.053v-.027h-.053v-.027h-.054v-.026h-.053v-.027h-.053V56.5h-.053v-.026h-.053v-.027h-.027v-.026h-.053v-.027h-.053v-.026h-.027v-.027h-.053v-.027h-.053v-.026h-.054v-.027h-.026v-.026h-.053v-.027h-.054v-.027H26.7v-.026h-.026v-.027h-.054v-.026h-.053v-.027h-.053v-.027h-.027v-.026h-.053v-.027h-.053v-.026h-.053v-.027H26.3v-.027h-.053v-.026h-.027v-.027h-.053v-.026h-.026v-.027h-.053v-.026h-.054v-.027h-.026v-.027h-.053v-.026h-.027v-.027h-.053v-.026h-.027v-.027h-.053v-.027h-.053v-.026h-.027v-.027h-.053v-.026h-.027v-.027h-.053v-.027h-.026v-.026h-.054v-.027h-.026v-.026h-.053v-.027h-.027v-.027h-.053v-.026h-.027v-.027h-.053v-.027h-.027v-.026h-.026v-.027h-.053v-.026h-.027v-.027h-.053v-.026h-.027v-.027h-.026v-.027h-.053v-.026h-.027v-.027h-.053v-.026h-.027v-.027h-.026v-.027h-.054v-.026h-.026v-.027h-.053v-.026h-.027v-.027h-.027v-.027H24.6v-.026h-.026v-.027h-.027v-.026h-.053v-.027h-.027v-.027h-.026v-.026h-.054v-.027h-.026v-.026h-.027v-.027h-.026v-.026h-.054v-.027h-.026v-.027H24.2v-.026h-.026v-.027h-.054V54.4h-.026v-.027h-.027v-.027h-.053v-.026h-.026v-.027h-.027v-.026h-.027v-.027h-.053v-.027h-.026v-.026h-.027v-.027H23.8v-.026h-.053v-.027h-.027v-.027h-.026v-.026h-.027v-.027h-.026V54h-.027v-.026h-.053v-.027h-.027v-.026h-.026v-.027h-.027v-.026h-.026v-.027h-.027v-.027h-.027v-.026h-.053v-.027h-.026v-.026h-.027v-.027h-.027v-.027h-.026v-.026h-.027v-.027h-.053v-.026h-.027v-.027h-.026v-.027h-.027v-.026h-.026v-.027h-.027v-.026h-.027v-.027h-.026v-.027h-.053v-.026h-.027v-.027h-.027v-.026h-.026v-.027h-.027v-.026h-.026v-.027h-.027v-.027h-.027v-.026h-.026v-.027h-.027v-.026h-.026v-.027h-.027v-.027h-.026v-.026h-.027v-.027h-.027v-.026h-.026v-.027h-.027v-.027h-.027v-.026h-.026v-.027h-.027v-.026h-.053v-.027h-.026v-.027h-.027v-.026h-.027v-.027h-.026v-.027h-.027v-.026h-.026v-.027h-.027v-.026h-.027v-.027h-.026v-.053h-.027v-.027h-.026v-.026h-.027v-.027h-.027v-.026h-.026v-.027h-.027v-.027h-.026v-.026h-.027v-.027h-.027v-.026h-.026v-.027h-.027v-.027h-.026v-.026h-.027v-.027h-.027v-.026h-.026v-.027H21.7v-.027h-.026v-.026h-.027v-.027h-.027v-.026h-.026v-.027h-.027v-.053h-.026v-.027h-.027v-.026h-.027v-.027h-.026V51.9h-.027v-.027h-.026v-.027h-.027v-.053h-.026v-.026h-.027v-.027H21.3v-.027h-.026v-.026h-.027v-.027h-.027v-.026h-.026v-.054h-.027v-.026h-.026v-.027h-.027V51.5h-.026v-.026h-.027v-.027h-.027v-.053h-.026v-.026h-.027v-.027h-.026v-.027h-.027v-.026h-.027v-.027h-.026v-.026h-.027v-.054h-.026v-.026h-.027v-.027h-.027v-.053h-.026v-.027h-.027v-.026h-.026v-.027h-.027v-.053h-.027v-.027h-.026v-.026h-.027v-.027h-.026v-.053h-.027v-.026h-.027v-.027h-.026v-.053h-.027v-.027h-.026v-.026h-.027v-.027h-.027v-.053h-.026v-.027h-.027v-.026h-.026v-.027h-.027v-.053h-.027v-.027h-.026v-.026h-.027v-.054h-.026v-.026h-.027v-.053h-.026v-.027h-.027v-.027h-.027v-.053h-.026v-.026h-.027v-.054h-.027v-.026h-.026v-.027h-.027v-.053h-.026v-.027h-.027v-.053h-.026v-.026h-.027v-.054h-.027v-.026h-.026v-.027h-.027v-.053h-.026v-.027h-.027v-.053h-.027v-.026h-.026v-.027h-.027v-.053h-.026v-.053h-.027v-.027h-.027v-.053h-.026v-.027h-.027v-.053h-.026v-.026h-.027v-.054h-.027v-.026h-.026v-.053h-.027v-.054h-.026v-.026h-.027V49h-.027v-.027h-.026v-.053H19.2v-.027h-.026v-.053h-.027v-.027h-.027v-.053h-.026v-.053h-.027v-.027h-.026v-.053h-.027v-.053h-.026v-.027h-.027v-.053h-.027v-.053h-.026v-.053h-.027v-.027h-.026v-.053h-.027v-.053H18.8v-.053h-.026v-.027h-.027v-.053h-.027v-.053h-.026v-.053h-.027v-.027h-.026v-.053h-.027v-.053h-.026v-.054h-.027v-.026h-.027v-.053h-.026v-.054h-.027v-.053h-.026v-.053h-.027v-.053h-.027v-.053h-.026v-.054h-.027v-.053h-.026v-.053h-.027v-.053h-.027v-.053h-.026v-.054h-.027v-.053h-.026v-.053h-.027v-.026h-.027v-.054h-.026v-.053h-.027v-.053h-.026v-.053h-.027v-.08h-.027v-.053h-.026v-.053h-.027v-.054h-.026v-.08h-.027v-.053h-.027v-.053h-.026v-.053h-.027v-.053h-.026v-.08h-.027v-.053h-.026V46.1h-.027v-.054h-.027v-.053h-.026v-.08h-.027v-.053h-.026v-.08h-.027v-.053h-.027v-.08h-.026v-.053h-.027v-.08h-.027v-.053h-.026v-.08h-.027v-.053h-.026v-.08h-.027v-.053h-.026v-.08h-.027v-.08h-.027v-.052h-.026v-.08h-.027v-.08h-.026v-.08h-.027v-.053h-.027v-.027h40.692v.027h-.027v.08h-.026v.08h-.027v.08h-.027v.053h-.026v.08h-.027v.053h-.026v.08h-.027v.052h-.026v.08h-.027v.053h-.027v.08h-.026v.08h-.027v.053h-.026v.08h-.027v.053h-.027v.08h-.026v.053h-.027v.08h-.026v.053h-.027v.053h-.027v.054h-.026v.053h-.027v.08h-.026v.053h-.027v.053h-.027v.053h-.026v.053h-.027v.08h-.026v.053h-.027v.053h-.027v.054h-.026v.08h-.027v.053h-.026v.053h-.027v.053h-.027v.053h-.026v.053h-.027v.054h-.026v.053h-.027v.053h-.027v.053h-.026v.053H56.7v.027h-.026v.053h-.027v.053h-.027v.054h-.026v.053h-.027v.053h-.026v.053h-.027v.053h-.027v.053h-.026v.054h-.027v.053h-.026v.026h-.027v.054h-.026v.053h-.027v.053H56.3v.027h-.026v.053h-.027v.053h-.026v.053h-.027v.027h-.027v.053h-.026v.053h-.027v.053h-.026v.027h-.027v.053h-.027v.053h-.026v.054h-.027v.026h-.026v.053h-.027v.054h-.027v.026h-.026v.053h-.027v.027h-.026v.053h-.027v.027h-.027v.053h-.026v.053h-.027v.027h-.026v.053h-.027v.026h-.027v.054h-.026v.026h-.027v.053h-.026v.027h-.027v.053h-.027v.053h-.026v.027h-.027v.053h-.026v.027h-.027v.053h-.027v.027h-.026v.053h-.027v.026h-.026v.027h-.027v.053h-.027v.027h-.026v.053h-.027v.027h-.026v.026h-.027v.053h-.026v.027h-.027v.053h-.027v.027h-.026v.053h-.027v.027h-.026v.026h-.027v.053h-.027v.027h-.026v.053h-.027v.027h-.026v.026h-.027v.053h-.027v.027h-.026v.027h-.027v.053h-.026v.027h-.027v.026h-.027v.027h-.026v.053h-.027v.026h-.026v.027h-.027v.053h-.027v.027h-.026v.026h-.027v.027h-.026v.053h-.027v.027h-.027v.026h-.026v.027h-.027v.053h-.026v.027h-.027v.026h-.027v.054h-.026v.026H54.2v.027h-.026v.026h-.027v.054h-.027v.026h-.026v.027h-.027v.026h-.026v.027h-.027v.027h-.027v.053h-.026v.026h-.027v.027h-.026v.026h-.027v.027h-.026v.027h-.027v.026H53.8v.053h-.026v.027h-.027v.027h-.026v.026h-.027v.027h-.027v.027h-.026v.053h-.027v.026h-.026v.027h-.027v.026h-.027v.027h-.026v.027h-.027v.053h-.026v.026h-.027v.027h-.027v.027h-.026v.026h-.027v.027h-.026v.026h-.027v.027h-.027v.027h-.026v.026h-.027v.027h-.026v.026h-.027v.027h-.027v.027h-.026v.026h-.027v.027h-.026v.026h-.027v.027h-.027v.027h-.026v.026h-.027v.053h-.026v.027h-.027v.027h-.027v.026h-.026v.027h-.027v.026h-.026v.027h-.027v.026h-.027v.027h-.026v.027h-.027v.026h-.026v.027h-.027v.026h-.026v.027h-.027v.027h-.053v.026h-.027v.027h-.026v.027h-.027v.026h-.027v.027h-.026v.026h-.027v.027h-.026v.026h-.027v.027h-.027v.027h-.026v.026h-.027v.027h-.026v.026h-.027v.027h-.027v.027h-.026v.026h-.027v.027h-.026v.026h-.027v.027h-.027v.027h-.053v.026h-.026v.027h-.027v.026h-.027v.027h-.026v.027h-.027v.026h-.026v.027h-.054v.026h-.026v.027H51.7v.027h-.026v.026h-.027v.027h-.027v.026h-.053v.027h-.026v.027h-.027v.026h-.027v.027h-.026v.026h-.027v.027h-.026v.026h-.053v.027h-.027v.027H51.3v.026h-.026v.027h-.027v.026h-.026v.027h-.054v.027h-.026v.026h-.027v.027h-.053v.027h-.027v.026h-.026v.027h-.027v.026h-.053v.027h-.027v.026h-.026v.027h-.027v.027h-.053v.026h-.027v.027h-.026v.026h-.053v.027h-.027v.027h-.027v.026h-.026v.027h-.053v.026h-.027v.027h-.027v.027h-.026v.026h-.053v.027h-.027v.026h-.027v.027h-.053v.027h-.026v.026h-.054v.027h-.026v.026h-.027v.027h-.053v.027h-.026v.026h-.054v.027h-.026v.026h-.027v.027h-.053v.027h-.027v.026h-.053v.027h-.026v.026h-.054v.027h-.026v.026h-.027v.027h-.053v.027h-.027v.026H49.6v.027h-.026v.026h-.027v.027h-.053v.027h-.053v.026h-.027v.027h-.053v.027h-.027v.026h-.053v.027h-.027v.026H49.2v.027h-.053v.026h-.027v.027h-.053v.027h-.026v.026h-.054v.027h-.026v.026h-.053v.027h-.027v.027h-.053v.026h-.053v.027h-.027v.026h-.053v.027h-.027v.027h-.053v.026h-.053v.027h-.053v.026h-.027v.027h-.053v.027h-.053v.026h-.027v.027h-.053v.026h-.053v.027h-.053v.027h-.027v.026h-.053v.027h-.053v.026h-.054v.027h-.026v.027h-.053v.026h-.054v.027h-.053v.026h-.026v.027h-.054v.026h-.053v.027h-.053v.027h-.053v.026h-.053v.027h-.053v.026h-.054v.027h-.053v.027h-.053v.026h-.053v.027h-.053v.027h-.054v.026H47.1v.027h-.053v.026h-.053v.027h-.053v.026h-.054v.027h-.053v.027h-.053v.026h-.053v.027h-.053v.026h-.054v.027h-.08v.027h-.053v.026h-.053v.027h-.053v.026h-.053v.027h-.08v.027h-.053v.026h-.053v.027h-.053v.026h-.08v.027h-.053v.027h-.054v.026h-.053v.027h-.08v.026h-.08v.027h-.053v.027h-.08v.026h-.053v.027h-.08v.026h-.053v.027h-.08v.027h-.053v.026h-.08v.027h-.052v.026h-.08v.027h-.053v.026h-.08v.027h-.08v.027h-.08v.026h-.08v.027h-.08v.026h-.08v.027h-.079v.027h-.08v.026h-.08v.027h-.08v.027h-.08v.026h-.079v.027h-.08v.026h-.08v.027h-.08v.026h-.106v.027h-.106v.027h-.08v.026h-.106v.027h-.08v.026h-.106v.027h-.08v.027h-.107v.026h-.08v.027h-.106v.026h-.133v.027h-.106v.027h-.107v.026h-.132v.027h-.107v.026h-.106v.027h-.133v.027h-.107v.026h-.133v.027h-.16v.026h-.132v.027h-.16v.027h-.16v.026h-.132v.027h-.16v.026h-.186v.027h-.213v.027h-.213v.026h-.186v.027h-.212v.026h-.266v.027H39.2v.026h-.346v.027h-.478v.027" fill="url(#paint2_linear_5695_37557)"/></g></g><path d="M59.045 37.5h-.664a20.813 20.813 0 01-6.116 14.766A20.813 20.813 0 0137.5 58.38a20.813 20.813 0 01-14.765-6.115A20.814 20.814 0 0116.619 37.5a20.814 20.814 0 016.116-14.766A20.813 20.813 0 0137.5 16.62a20.813 20.813 0 0114.765 6.115 20.813 20.813 0 016.116 14.766h1.329c0-12.267-9.944-22.21-22.21-22.211-12.267 0-22.21 9.944-22.21 22.21 0 12.267 9.943 22.21 22.21 22.21 12.267 0 22.21-9.943 22.21-22.21h-.665zm-46.733-4.917a1.88 1.88 0 11-3.759 0 1.88 1.88 0 013.76 0zm54.135 0a1.88 1.88 0 11-3.76 0 1.88 1.88 0 013.76 0z" fill="#131112"/><defs><linearGradient id="paint0_linear_5695_37557" x1="13.955" y1="23.137" x2="61.044" y2="23.137" gradientUnits="userSpaceOnUse"><stop stop-color="#131112"/><stop offset=".528" stop-color="#36353C"/><stop offset="1" stop-color="#131112"/></linearGradient><linearGradient id="paint1_linear_5695_37557" x1="13.955" y1="37.501" x2="61.044" y2="37.501" gradientUnits="userSpaceOnUse"><stop stop-color="#691B1E"/><stop offset=".528" stop-color="#EE213A"/><stop offset="1" stop-color="#691B1E"/></linearGradient><linearGradient id="paint2_linear_5695_37557" x1="13.955" y1="51.864" x2="61.045" y2="51.864" gradientUnits="userSpaceOnUse"><stop stop-color="#F36825"/><stop offset=".528" stop-color="#F2B712"/><stop offset=".959" stop-color="#F36825"/><stop offset="1" stop-color="#F36825"/></linearGradient></defs></svg>