<svg width="25" height="25" fill="none" xmlns="http://www.w3.org/2000/svg"><path fill-rule="evenodd" clip-rule="evenodd" d="M12.03.5c6.65 0 12.031 5.381 12.031 12.03C23.427 28.49.634 28.49 0 12.53 0 5.882 5.402.5 12.03.5zm.103 4.501c-9.985.389-10.005 14.67 0 15.08a7.536 7.536 0 007.53-7.53c0-4.153-3.377-7.55-7.53-7.55z" fill="url(#paint0_radial_5695_37743)"/><path fill-rule="evenodd" clip-rule="evenodd" d="M19.662 12.53a7.536 7.536 0 01-7.53 7.53c-10.004-.389-9.984-14.67 0-15.08 4.154.02 7.53 3.397 7.53 7.55z" fill="url(#paint1_radial_5695_37743)"/><path fill-rule="evenodd" clip-rule="evenodd" d="M20.03 9.767l.778-.246c.041.307.246.675.491.819.307.204.9.02 1.003-.348.164-.307-.164-1.125-.287-1.37l-2.148.674.164.47zm1.822-.573c.123.225.184.593-.123.696-.286.102-.491-.205-.532-.491l.655-.205zm-2.823-1.349c.368.552 1.002.675 1.637.266 1.309-.86.06-2.701-1.249-1.8-.552.347-.757.96-.388 1.534zm.675-1.105c.368-.246.757-.266.962.04.43.615-.9 1.474-1.29.86-.184-.307-.04-.655.328-.9zm-2.701-1.064l.614-.757.654.552-.593.737.389.327 1.432-1.78-.389-.327-.552.695-.655-.552.553-.675-.41-.328-1.432 1.78.389.328zm-1.74-.941c.573.245.982.061 1.126-.287.122-.307.04-.573-.266-.86-.225-.224-.307-.326-.266-.47.04-.102.184-.163.389-.081a.902.902 0 01.388.286l.266-.327c-.389-.45-1.289-.676-1.555-.041-.123.307.02.593.307.88.225.204.287.306.225.45-.164.347-.777-.082-.9-.266l-.266.347c.082.103.307.266.552.369zM12.91 2.034c-.307-.307-1.166-.287-1.637-.225l-.04 2.25c.47.082 1.309.082 1.657-.225.47-.368.552-1.432.02-1.8zm-.982 1.657c-.061 0-.143 0-.184-.02l.02-1.494c.512-.082.982.123.942.716.02.552-.307.818-.778.798zm-1.248.45l-.123-.409-.9.246-.143-.532.818-.205-.102-.41-.819.206-.122-.45.88-.226-.123-.43-1.35.369.572 2.21 1.412-.369zm-3.785-.552l.88 1.637.45-.266-.88-1.617.552-.307-.204-.368-1.555.839.204.368.553-.286zM5.586 5.676c.266-.122.409-.122.511-.02.266.286-.389.675-.614.716l.205.389c.143-.041.389-.164.573-.328.47-.43.47-.859.205-1.145-.226-.226-.492-.266-.9-.103-.308.123-.43.164-.533.041-.225-.245.348-.593.512-.634l-.205-.389c-.573.164-1.146.9-.675 1.391.225.246.552.225.92.082zM4.89 8.07c.307-.512.225-.983-.368-1.371l-1.085-.676-.266.43 1.105.696c.348.225.43.45.286.675-.143.225-.388.245-.736.04L2.72 7.17l-.266.43 1.084.675c.594.41 1.044.287 1.35-.205zm-1.044 2.373l-.86-.246.042-.143c.061-.205.163-.266.45-.266.286.02.47 0 .552 0l.144-.512c-.103.02-.41 0-.676 0-.225 0-.388.041-.49.184-.021-.43-.553-.736-.942-.47-.307.184-.47 1.002-.532 1.33l2.169.614.143-.491zM2.68 9.89l-.061.205-.594-.164c.02-.225.143-.614.45-.512.184.041.266.226.205.471zm.921 2.149l-1.862-.041.02-.635H1.33l-.04 1.76h.429l.02-.614 1.842.041.02-.511zm.491 6.321l.225.389-.553.348c-.49-.389-.593-1.105.062-1.494.654-.43 1.31.082 1.391.757l.225-.061c-.164-.86-1.023-1.453-1.82-.941-.922.572-.553 1.555.122 2.066l.9-.552-.389-.614-.163.102zm2.844 1.166l-.84 1.003c-.306.368-.613.41-.858.204-.225-.184-.266-.49.06-.859l.84-1.002-.225-.184-.84.982c-.45.532-.347.94 0 1.248.37.307.82.327 1.249-.205l.839-.982-.225-.205zm-.429 2.396l.266.123.49-.553.717.328-.082.736.266.123.225-2.333-.307-.143-1.575 1.719zm1.657-1.392c-.061.246-.102.819-.123 1.085l-.613-.266c.184-.225.572-.614.736-.819zm1.964.348a2.847 2.847 0 00-.553-.062l-.43 2.149.287.061.184-.941.266.04c.246.062.348.206.348.512 0 .287.02.471.04.553l.287.061c-.04-.082-.04-.307-.04-.634 0-.225-.082-.41-.226-.512.43-.04.696-.573.43-.92-.123-.164-.307-.266-.593-.307zm.388.716c-.04.245-.266.368-.573.307l-.286-.062.164-.797c.307.02.798.143.695.552zm1.576-.512l-.737 2.23h.307l.225-.695h.778l.246.695h.306l-.777-2.21-.348-.02zm-.164 1.31c.082-.267.266-.778.307-1.044.062.245.266.777.348 1.044h-.655zm3.07-1.739c.143.512.307 1.31.49 1.78-.306-.389-1.145-1.146-1.513-1.514l-.307.082.552 2.148.266-.061a38.018 38.018 0 00-.49-1.8c.327.409 1.166 1.145 1.554 1.534l.287-.082-.553-2.148-.286.061zm2.168-.778l-.122-.205-1.433.777.123.226.573-.328.962 1.74.245-.144-.941-1.74.593-.326zm1.719.819l-.532-.593.634-.573-.163-.184-.635.573-.47-.512.655-.613-.144-.185-.9.819 1.514 1.637.92-.84-.163-.183-.716.654zm1.494-1.678l-.676-.43.471-.715-.205-.123-.45.716-.593-.389.491-.757-.205-.123-.634 1.003 1.862 1.207.655-1.043-.184-.144-.532.798zm2.434-6.956c-.02-.532-.348-.86-.737-.818-.327.02-.532.286-.654.654-.082.287-.164.39-.307.39-.389.02-.266-.737-.164-.942l-.43-.082a1.41 1.41 0 00-.102.655c.041.614.368.9.757.88.328-.02.512-.225.655-.614.102-.307.163-.43.307-.43.347 0 .245.655.163.798l.43.102c.041-.143.082-.327.082-.593z" fill="#fff"/><path fill-rule="evenodd" clip-rule="evenodd" d="M3.11 15.19c-.02.552-.818.552-.839 0 0-.553.819-.553.84 0z" fill="#F7E19E"/><path fill-rule="evenodd" clip-rule="evenodd" d="M21.79 15.19c-.02.552-.818.552-.839 0 0-.553.819-.553.839 0z" fill="#F1CB53"/><path fill-rule="evenodd" clip-rule="evenodd" d="M13.545 7.559c1.289 0 2.189.613 2.373 1.616.102.532-.02 1.002-.184 1.37l-.02.062c0 .02-.021.041-.021.041l-.02.041-.062.123-.02.04-.02.042-.021.04s0 .021-.02.021l-.021.04-.02.042-.021.04s0 .021-.02.021l-.021.041-.04.041-.021.02-.041.042-.02.04c-.492.532-1.249 1.003-2.354 1.433l-.123.04c-.736.266-1.473.471-2.23.635l-.225.061-.225.062-.348.081c-.081 1.78.39 2.701 1.392 2.824.082 0 .184.02.266.02.573 0 1.043-.225 1.432-.49l.061-.042v-.081l.062-.041.061-.041.082-.062c.511-.388.9-.859 1.227-1.33l.123-.163.553.47-.041.041-.082.103c-.041.06-.082.102-.102.163l-.082.103c-.47.654-.941 1.186-1.596 1.595l-.062.041-.02.02-.061.042c-.041.02-.103.061-.164.082l-.061.04-.062.041c-.532.266-1.248.532-2.066.532-.205 0-.389-.02-.594-.04-1.493-.226-2.353-1.31-2.373-3.07v-.06c-.02-1.617.491-3.11 1.494-4.42l.04-.062c1.126-1.432 2.476-2.189 4.133-2.25h.185zm-.532.777a.71.71 0 00-.205.02h-.04c-.697.123-1.208.573-1.617 1.126l-.041.061c0 .02-.02.02-.02.041l-.041.062-.041.06-.041.062-.041.062-.041.061-.041.061-.041.062c-.47.757-.778 1.637-.941 2.68 1.043-.184 1.984-.552 2.721-1.023 1.023-.675 1.534-1.473 1.494-2.373-.082-.553-.491-.962-1.064-.962z" fill="#006DAD"/><path fill-rule="evenodd" clip-rule="evenodd" d="M7.959 14.414a7.177 7.177 0 011.514-4.522c1.125-1.432 2.557-2.148 4.215-2.21h.184c.348 0 .655.041.941.123a3.146 3.146 0 00-1.289-.266h-.184c-1.657.082-3.008.818-4.133 2.25-1.043 1.33-1.555 2.845-1.535 4.482.02 1.595.696 2.639 1.903 3.007-.982-.43-1.596-1.432-1.616-2.864zm3.765 2.107c.736 0 1.207-.41 1.637-.737a7.188 7.188 0 001.35-1.39l-.225-.185-.041.061c-.348.491-.777 1.003-1.33 1.433-.43.327-1.002.695-1.739.695-.082 0-.184 0-.266-.02a.386.386 0 01-.164-.041c.164.082.328.143.512.163.102 0 .184.021.266.021z" fill="#044D73"/><path fill-rule="evenodd" clip-rule="evenodd" d="M14.036 9.34c.04.9-.45 1.678-1.494 2.373a6.812 6.812 0 01-2.332.941c-.02.082 0 .041-.02.103 1.043-.184 1.964-.43 2.72-.921 1.024-.675 1.535-1.473 1.494-2.373-.02-.532-.348-.9-.818-.983.245.185.43.471.45.86z" fill="#044D73"/><defs><radialGradient id="paint0_radial_5695_37743" cx="0" cy="0" r="1" gradientUnits="userSpaceOnUse" gradientTransform="translate(6.91 7.124) scale(16.396)"><stop stop-color="#9B9C9E"/><stop offset=".321" stop-color="#656667"/><stop offset=".785" stop-color="#1D1D1D"/><stop offset="1"/></radialGradient><radialGradient id="paint1_radial_5695_37743" cx="0" cy="0" r="1" gradientUnits="userSpaceOnUse" gradientTransform="rotate(49.888 -4.19 12.791) scale(13.5265)"><stop stop-color="#FFFEFC"/><stop offset=".242" stop-color="#FFFDF7"/><stop offset="1" stop-color="#F1CB54"/></radialGradient></defs></svg>