<svg width="81" height="80" fill="none" xmlns="http://www.w3.org/2000/svg"><path fill-rule="evenodd" clip-rule="evenodd" d="M30.845 20a9.25 9.25 0 0118.5 0v2.583h-18.5V20zm-1.5 4.083V30a.75.75 0 001.5 0v-5.917h18.5V30a.75.75 0 001.5 0v-5.917H59.4l3.218 41.834H17.571l3.218-41.834h8.556zm0-1.5V20c0-5.937 4.813-10.75 10.75-10.75s10.75 4.813 10.75 10.75v2.583h9.25a.75.75 0 01.748.693l3.333 43.333a.75.75 0 01-.748.808H16.762a.75.75 0 01-.748-.808l3.333-43.333a.75.75 0 01.748-.693h9.25z" fill="#000"/></svg>