<svg width="16" height="16" fill="none" xmlns="http://www.w3.org/2000/svg"><path d="M8 8.934L4.733 12.2a.632.632 0 01-.467.183.632.632 0 01-.466-.184.632.632 0 01-.184-.466.63.63 0 01.184-.467L7.066 8 3.8 4.734a.632.632 0 01-.184-.467c0-.189.061-.344.184-.466a.632.632 0 01.466-.184c.19 0 .345.061.467.184L8 7.067l3.266-3.266a.632.632 0 01.467-.184c.189 0 .344.061.466.184a.632.632 0 01.184.466.632.632 0 01-.183.467L8.933 8l3.267 3.266a.632.632 0 01.183.467.632.632 0 01-.183.466.632.632 0 01-.467.184.632.632 0 01-.467-.184L8 8.934z" fill="#2E2E2E"/></svg>