<svg width="24" height="24" fill="none" xmlns="http://www.w3.org/2000/svg"><path d="M18.5 10l.555-.504a.75.75 0 00-.555-.246V10zm3.5 3.857h.75a.75.75 0 00-.195-.504l-.555.504zM22 18v.75a.75.75 0 00.75-.75H22zm-2.085 0l-.707.25.707-.25zm-2.83 0l.707.25-.707-.25zM15 10v-.75a.75.75 0 00-.75.75H15zM1 5.25a.75.75 0 000 1.5v-1.5zM15 6h.75a.75.75 0 00-.75-.75V6zM4 17.25a.75.75 0 000 1.5v-1.5zm.5-4.5a.75.75 0 000-1.5v1.5zM3 11.25a.75.75 0 000 1.5v-1.5zm1.5 4.5a.75.75 0 000-1.5v1.5zm-.5-1.5a.75.75 0 000 1.5v-1.5zm.5-4.5a.75.75 0 000-1.5v1.5zM2 8.25a.75.75 0 000 1.5v-1.5zm15.945 2.254l3.5 3.857 1.11-1.008-3.5-3.857-1.11 1.008zm3.305 3.353V18h1.5v-4.143h-1.5zM22 17.25h-2.085v1.5H22v-1.5zm-1.378.5a2.25 2.25 0 00-2.122-1.5v1.5a.75.75 0 01.708.5l1.414-.5zm-2.122-1.5a2.25 2.25 0 00-2.122 1.5l1.414.5a.75.75 0 01.708-.5v-1.5zm-1.415 1H15v1.5h2.085v-1.5zM15.75 18v-8h-1.5v8h1.5zM15 10.75h3.5v-1.5H15v1.5zm-14-4h14v-1.5H1v1.5zM14.25 6v12h1.5V6h-1.5zM15 17.25H7.915v1.5H15v-1.5zm-6.378.5a2.25 2.25 0 00-2.122-1.5v1.5a.75.75 0 01.708.5l1.414-.5zM6.5 16.25a2.25 2.25 0 00-2.122 1.5l1.414.5a.75.75 0 01.708-.5v-1.5zm-1.415 1H4v1.5h1.085v-1.5zm13.415.5a.75.75 0 01.75.75h1.5a2.25 2.25 0 00-2.25-2.25v1.5zm.75.75a.75.75 0 01-.75.75v1.5a2.25 2.25 0 002.25-2.25h-1.5zm-.75.75a.75.75 0 01-.75-.75h-1.5a2.25 2.25 0 002.25 2.25v-1.5zm-.75-.75a.75.75 0 01.75-.75v-1.5a2.25 2.25 0 00-2.25 2.25h1.5zM6.5 17.75a.75.75 0 01.75.75h1.5a2.25 2.25 0 00-2.25-2.25v1.5zm.75.75a.75.75 0 01-.75.75v1.5a2.25 2.25 0 002.25-2.25h-1.5zm-.75.75a.75.75 0 01-.75-.75h-1.5a2.25 2.25 0 002.25 2.25v-1.5zm-.75-.75a.75.75 0 01.75-.75v-1.5a2.25 2.25 0 00-2.25 2.25h1.5zM4.5 11.25H3v1.5h1.5v-1.5zm0 3H4v1.5h.5v-1.5zm0-6H2v1.5h2.5v-1.5zm11.878 9.5a2.246 2.246 0 00-.128.75h1.5a.75.75 0 01.042-.25l-1.414-.5zm4.372.75c0-.262-.045-.514-.128-.75l-1.414.5a.75.75 0 01.042.25h1.5zm-16.372-.75a2.247 2.247 0 00-.128.75h1.5c0-.089.015-.173.042-.25l-1.414-.5zm4.372.75c0-.262-.045-.514-.128-.75l-1.414.5a.748.748 0 01.042.25h1.5z" fill="#000"/></svg>