<svg width="25" height="24" fill="none" xmlns="http://www.w3.org/2000/svg"><path d="M12.5 5.75a.75.75 0 000-1.5v1.5zM7.041 17.501a.75.75 0 001.057-1.065L7.04 17.501zm3.835-9.917a.75.75 0 101.248.832l-1.248-.832zM13.5 5l.624.416a.75.75 0 00-.208-1.04L13.5 5zm-2.584-2.624a.75.75 0 10-.832 1.248l.832-1.248zM12.5 18.219a.75.75 0 000 1.5v-1.5zm5.459-11.751a.75.75 0 10-1.057 1.064l1.057-1.064zm-3.835 9.948a.75.75 0 10-1.248-.832l1.248.832zM11.5 19l-.624-.416a.75.75 0 00.208 1.04L11.5 19zm2.584 2.624a.75.75 0 10.832-1.248l-.832 1.248zM12.5 4.25A7.75 7.75 0 004.75 12h1.5a6.25 6.25 0 016.25-6.25v-1.5zM4.75 12c0 2.15.877 4.098 2.291 5.501l1.057-1.065A6.228 6.228 0 016.25 12h-1.5zm7.374-3.584l2-3-1.248-.832-2 3 1.248.832zm1.792-4.04l-3-2-.832 1.248 3 2 .832-1.248zM12.5 19.719a7.75 7.75 0 007.75-7.75h-1.5a6.25 6.25 0 01-6.25 6.25v1.5zm7.75-7.75c0-2.15-.877-4.098-2.291-5.501l-1.057 1.064a6.228 6.228 0 011.848 4.437h1.5zm-7.374 3.615l-2 3 1.248.832 2-3-1.248-.832zm-1.792 4.04l3 2 .832-1.248-3-2-.832 1.248z" fill="#000"/></svg>