<svg width="24" height="24" fill="none" xmlns="http://www.w3.org/2000/svg"><path d="M5 12v-.75a.75.75 0 00-.75.75H5zm14 0h.75a.75.75 0 00-.75-.75V12zm-3 0v.75a.75.75 0 00.75-.75H16zm-8 0h-.75c0 .414.336.75.75.75V12zm3.25 7a.75.75 0 001.5 0h-1.5zM5 12.75h14v-1.5H5v1.5zM18.25 12v7.5h1.5V12h-1.5zm0 7.5a.75.75 0 01-.75.75v1.5a2.25 2.25 0 002.25-2.25h-1.5zm-.75.75h-11v1.5h11v-1.5zm-11 0a.75.75 0 01-.75-.75h-1.5a2.25 2.25 0 002.25 2.25v-1.5zm-.75-.75V12h-1.5v7.5h1.5zM12 3.75A3.25 3.25 0 0115.25 7h1.5A4.75 4.75 0 0012 2.25v1.5zM15.25 7v5h1.5V7h-1.5zm.75 4.25H8v1.5h8v-1.5zM8.75 12V7h-1.5v5h1.5zm0-5A3.25 3.25 0 0112 3.75v-1.5A4.75 4.75 0 007.25 7h1.5zM12 14.75a.75.75 0 01.75.75h1.5A2.25 2.25 0 0012 13.25v1.5zm.75.75a.75.75 0 01-.75.75v1.5a2.25 2.25 0 002.25-2.25h-1.5zm-.75.75a.75.75 0 01-.75-.75h-1.5A2.25 2.25 0 0012 17.75v-1.5zm-.75-.75a.75.75 0 01.75-.75v-1.5a2.25 2.25 0 00-2.25 2.25h1.5zm0 1.5v2h1.5v-2h-1.5z" fill="#000"/></svg>