<svg width="61" height="61" fill="none" xmlns="http://www.w3.org/2000/svg"><g clip-path="url(#clip0_5948_46524)"><path d="M60.282 19.278a3.75 3.75 0 00-3.75-3.75h-6.401c1.657-1.635 2.717-3.776 2.717-6.414 0-3.247-1.866-6.778-7.103-6.778-6.89 0-12.647 7.337-15.352 11.449-2.708-4.112-8.639-11.45-15.53-11.45-5.236 0-7.102 3.53-7.102 6.777 0 2.638 1.09 4.781 2.78 6.415H4.03a3.75 3.75 0 00-3.75 3.75V30.5h3.783v24.407a3.749 3.749 0 003.75 3.75h44.981a3.749 3.749 0 003.75-3.75V30.498h3.735V19.275l.002.003zM45.745 6.09c2.318 0 3.353.975 3.353 3.028 0 4.164-4.648 6.412-9.021 6.412h-6.349c2.665-3.958 7.354-9.44 12.017-9.44zm-30.88 0c4.664 0 9.531 5.482 12.196 9.438h-6.349c-4.372 0-9.197-2.304-9.197-6.47 0-2.053 1.031-2.968 3.35-2.968zm41.667 20.664H32.157V19.28h24.375v7.474zm-52.5-7.476h24.375v7.474H4.032v-7.474zm3.784 11.226h20.591v24.409H7.816V30.504zm44.981 24.409h-20.64V30.506h20.64v24.407z" fill="#fff"/></g><defs><clipPath id="clip0_5948_46524"><path fill="#fff" transform="translate(.28 .5)" d="M0 0h60v60H0z"/></clipPath></defs></svg>