<svg width="26" height="25" fill="none" xmlns="http://www.w3.org/2000/svg"><path fill-rule="evenodd" clip-rule="evenodd" d="M7.907 3.75a1.98 1.98 0 100 3.958h3.872a9.47 9.47 0 00-.709-1.678c-.679-1.235-1.687-2.28-3.163-2.28zm4.063 5.208v5H3.845v-2.291c0-.594 0-1.002.026-1.318.025-.309.072-.474.133-.594a1.46 1.46 0 01.637-.638c.12-.06.286-.107.595-.132.316-.026.723-.027 1.317-.027h5.417zM5.368 7.724A3.23 3.23 0 017.908 2.5c2.17 0 3.505 1.56 4.258 2.928.165.3.307.6.429.885a9.83 9.83 0 01.429-.885c.752-1.369 2.088-2.928 4.258-2.928a3.23 3.23 0 012.54 5.224c.081.004.16.009.234.015.386.031.734.099 1.06.265.51.26.924.673 1.184 1.183.165.326.233.674.264 1.06.03.373.03.832.03 1.393v6.928c0 .561 0 1.02-.03 1.393-.031.386-.099.735-.265 1.06-.26.51-.673.924-1.183 1.184-.326.166-.674.233-1.06.265-.373.03-.832.03-1.393.03H6.527c-.561 0-1.02 0-1.393-.03-.386-.032-.735-.1-1.06-.265A2.708 2.708 0 012.89 21.02c-.166-.325-.233-.674-.265-1.06-.03-.373-.03-.832-.03-1.393V11.64c0-.56 0-1.02.03-1.393.032-.386.099-.734.265-1.06m.955 6.021v3.334c0 .593 0 1.001.026 1.317.025.309.072.475.133.595.14.274.363.497.637.637.12.061.286.107.595.133.316.026.723.026 1.317.026h5.417v-6.042H3.845zm9.375 0v6.042h5.416c.594 0 1.002 0 1.318-.026.309-.026.474-.072.595-.133.274-.14.497-.363.637-.637.06-.12.107-.286.132-.595.026-.316.027-.724.027-1.317v-3.334H13.22zm8.125-1.25v-2.291c0-.594 0-1.002-.027-1.318-.025-.309-.071-.474-.132-.594a1.459 1.459 0 00-.637-.638c-.12-.06-.286-.107-.595-.132-.316-.026-.724-.027-1.318-.027H13.22v5h8.125zm-4.063-6.25a1.98 1.98 0 100-3.958c-1.475 0-2.483 1.045-3.163 2.28a9.475 9.475 0 00-.709 1.678h3.872zm-11.914.016c-.082.004-.16.009-.234.015-.386.031-.735.099-1.06.265m0 0c-.51.26-.924.674-1.184 1.183l1.184-1.183z" fill="#fff"/></svg>