<svg width="25" height="25" fill="none" xmlns="http://www.w3.org/2000/svg"><path d="M17.48 4.66V3.003h-1.074v1.655H8.594V3.004H7.52v1.655H2.246v17.334h20.508V4.66H17.48zM3.32 5.732h4.2v1.69h1.074v-1.69h7.812v1.69h1.075v-1.69h4.199v3.694H3.32V5.733zM21.68 20.92H3.32V9.818h18.36v11.1z" fill="#232F3E"/><path d="M6.984 13.81a.806.806 0 101.612 0 .806.806 0 00-1.612 0zm4.661 0a.806.806 0 101.61 0 .806.806 0 00-1.61 0zm4.668 0a.806.806 0 101.611 0 .806.806 0 00-1.611 0zm-9.329 3.12a.806.806 0 101.612 0 .806.806 0 00-1.612 0zm4.661 0a.806.806 0 101.61 0 .806.806 0 00-1.61 0zm4.668 0a.806.806 0 101.611 0 .806.806 0 00-1.611 0z" fill="#232F3E"/></svg>