<svg width="25" height="25" fill="none" xmlns="http://www.w3.org/2000/svg"><path fill-rule="evenodd" clip-rule="evenodd" d="M12.503 9.79a2.708 2.708 0 100 5.417 2.708 2.708 0 000-5.417zM8.96 12.5a3.542 3.542 0 117.083 0 3.542 3.542 0 01-7.083 0z" fill="#000"/><path fill-rule="evenodd" clip-rule="evenodd" d="M2.164 12.376C3.544 7.982 7.65 4.793 12.5 4.793s8.957 3.189 10.337 7.583a.417.417 0 010 .25c-1.38 4.395-5.486 7.584-10.337 7.584s-8.956-3.19-10.336-7.584a.417.417 0 010-.25zm.835.125c1.312 3.993 5.071 6.875 9.502 6.875 4.43 0 8.19-2.882 9.502-6.875-1.312-3.993-5.071-6.875-9.502-6.875-4.431 0-8.19 2.882-9.502 6.875z" fill="#000"/></svg>