<svg width="36" height="36" fill="none" xmlns="http://www.w3.org/2000/svg"><path d="M27.48 15.083l.555-.504a.75.75 0 00-.556-.246v.75zm5.104 5.625h.75a.75.75 0 00-.195-.504l-.556.504zm0 6.042v.75a.75.75 0 00.75-.75h-.75zm-3.042 0l-.707.25.707-.25zm-4.126 0l.707.25-.707-.25zm-3.04-11.667v-.75a.75.75 0 00-.75.75h.75zM1.957 8.5a.75.75 0 100 1.5V8.5zm20.417.75h.75a.75.75 0 00-.75-.75v.75zM6.334 26a.75.75 0 000 1.5V26zm.729-7.25a.75.75 0 000-1.5v1.5zm-2.188-1.5a.75.75 0 000 1.5v-1.5zm2.188 5.875a.75.75 0 000-1.5v1.5zm-.73-1.5a.75.75 0 000 1.5v-1.5zm.73-7.25a.75.75 0 000-1.5v1.5zm-3.646-1.5a.75.75 0 000 1.5v-1.5zm23.507 2.712l5.104 5.625 1.11-1.008-5.103-5.625-1.111 1.008zm4.91 5.121v6.042h1.5v-6.042h-1.5zm.75 5.292h-3.042v1.5h3.042V26zm-2.334.5a2.938 2.938 0 00-2.77-1.958v1.5c.624 0 1.158.399 1.355.958l1.415-.5zm-2.77-1.958a2.938 2.938 0 00-2.771 1.959l1.414.5a1.44 1.44 0 011.356-.96v-1.5zM25.415 26h-3.04v1.5h3.04V26zm-2.29.75V15.083h-1.5V26.75h1.5zm-.75-10.917h5.103v-1.5h-5.104v1.5zM1.957 10h20.417V8.5H1.96V10zm19.667-.75v17.5h1.5V9.25h-1.5zm.75 16.75H12.043v1.5h10.332V26zm-9.625.5a2.938 2.938 0 00-2.77-1.958v1.5c.624 0 1.158.399 1.355.958l1.415-.5zm-2.77-1.958a2.938 2.938 0 00-2.771 1.959l1.414.5a1.44 1.44 0 011.356-.96v-1.5zM7.915 26H6.334v1.5h1.582V26zm19.563.042c.794 0 1.438.643 1.438 1.437h1.5a2.937 2.937 0 00-2.938-2.937v1.5zm1.438 1.437c0 .794-.644 1.438-1.438 1.438v1.5a2.937 2.937 0 002.938-2.938h-1.5zm-1.438 1.438a1.438 1.438 0 01-1.437-1.438h-1.5a2.938 2.938 0 002.937 2.938v-1.5zm-1.437-1.438c0-.794.643-1.437 1.437-1.437v-1.5a2.937 2.937 0 00-2.937 2.937h1.5zM9.979 26.042c.794 0 1.438.643 1.438 1.437h1.5a2.937 2.937 0 00-2.938-2.937v1.5zm1.438 1.437c0 .794-.644 1.438-1.438 1.438v1.5a2.937 2.937 0 002.938-2.938h-1.5zm-1.438 1.438a1.438 1.438 0 01-1.437-1.438h-1.5a2.938 2.938 0 002.937 2.938v-1.5zm-1.437-1.438c0-.794.643-1.437 1.437-1.437v-1.5a2.937 2.937 0 00-2.937 2.937h1.5zM7.062 17.25H4.876v1.5h2.188v-1.5zm0 4.375h-.729v1.5h.73v-1.5zm0-8.75H3.418v1.5h3.646v-1.5zM24.71 26.501a2.933 2.933 0 00-.167.978h1.5c0-.17.029-.33.081-.479l-1.414-.5zm5.708.978c0-.342-.059-.671-.167-.978l-1.415.5c.053.148.082.309.082.478h1.5zM7.21 26.501a2.934 2.934 0 00-.167.978h1.5c0-.17.029-.33.081-.479l-1.414-.5zm5.708.978c0-.342-.059-.671-.167-.978l-1.415.5c.053.148.082.309.082.478h1.5z" fill="#000"/></svg>