<svg width="36" height="36" fill="none" xmlns="http://www.w3.org/2000/svg"><path d="M18 4.875l.335-.67-.335-.17-.335.168.335.671zm13.125 6.563h.75v-.464l-.415-.207-.335.67zm0 13.124l.335.671.415-.207v-.463h-.75zM18 31.125l-.335.67.335.168.335-.167-.335-.671zM4.875 24.562h-.75v.464l.415.207.335-.67zm0-13.125l-.335-.67-.415.207v.463h.75zm19.667 8.021a.75.75 0 001.5 0h-1.5zm.75-5.104h.75v-.463l-.415-.208-.335.671zm-12.79-7.233a.75.75 0 00-.67 1.341l.67-1.341zm4.748 23.275a.75.75 0 001.5 0h-1.5zm.415-24.85l13.125 6.562.67-1.341-13.125-6.563-.67 1.342zm12.71 5.891v13.126h1.5V11.438h-1.5zm.415 12.455l-13.125 6.562.67 1.342 13.125-6.563-.67-1.341zm-12.455 6.562L5.21 23.892l-.67 1.341 13.125 6.563.67-1.342zm-12.71-5.892V11.438h-1.5v13.126h1.5zM5.21 12.108l13.125-6.562-.67-1.342L4.54 10.767l.67 1.341zm25.58-1.341l-13.125 6.562.67 1.342 13.125-6.563-.67-1.341zm-12.455 6.562L5.21 10.767l-.67 1.341 13.125 6.563.67-1.342zm7.707 2.13v-5.105h-1.5v5.104h1.5zm-.415-5.776L12.502 7.121l-.67 1.341 13.124 6.563.671-1.342zM18.75 30.396V18h-1.5v12.396h1.5z" fill="#000"/></svg>