<svg width="36" height="36" fill="none" xmlns="http://www.w3.org/2000/svg"><path clip-rule="evenodd" d="M11.42 5.285l4.393 4.661a1.506 1.506 0 010 2.062l-2.123 2.258c1.333 4.076 4.315 7.337 8.094 8.88l.423.163 2.012-2.14a1.482 1.482 0 012.105-.058l4.393 4.66a1.506 1.506 0 010 2.062l-1.092 1.162c-1.995 2.122-5.033 2.72-7.701 1.516-3.772-1.702-6.815-3.782-9.13-6.24-2.316-2.459-4.276-5.691-5.88-9.698-1.09-2.721-.617-5.806 1.187-7.926l.233-.26.981-1.043a1.482 1.482 0 012.105-.059z" stroke="#000" stroke-width="1.5" stroke-linecap="round" stroke-linejoin="round"/></svg>