<svg width="36" height="35" fill="none" xmlns="http://www.w3.org/2000/svg"><path fill-rule="evenodd" clip-rule="evenodd" d="M12.761 10.208a4.833 4.833 0 119.667 0V16.5h-9.667v-6.292zm4.834-6.833a6.833 6.833 0 00-6.833 6.833v6.542H7.386a.75.75 0 00-.75.75v10.938a2.938 2.938 0 002.938 2.937h16.042a2.937 2.937 0 002.937-2.938V17.5a.75.75 0 00-.75-.75h-3.375v-6.542a6.833 6.833 0 00-6.833-6.833zm0 17.042a2.187 2.187 0 01.739 4.247.75.75 0 01.01.128v2.916a.75.75 0 01-1.5 0v-2.916a.75.75 0 01.012-.128 2.188 2.188 0 01.739-4.247z" fill="#fff"/></svg>