<svg width="25" height="26" fill="none" xmlns="http://www.w3.org/2000/svg"><path d="M3.125 5.707v-.75a.75.75 0 00-.75.75h.75zm18.75 0h.75a.75.75 0 00-.75-.75v.75zm0 14.583v.75a.75.75 0 00.75-.75h-.75zm-18.75 0h-.75c0 .415.336.75.75.75v-.75zm.364-13.155a.75.75 0 10-.728 1.311l.728-1.311zm9.011 5.864l-.364.655a.75.75 0 00.728 0L12.5 13zm9.74-4.553a.75.75 0 10-.73-1.311l.73 1.311zM3.124 6.457h18.75v-1.5H3.125v1.5zm18-.75V20.29h1.5V5.707h-1.5zm.75 13.833H3.125v1.5h18.75v-1.5zm-18 .75V5.707h-1.5V20.29h1.5zM2.761 8.446l9.375 5.208.728-1.31-9.375-5.21-.728 1.312zm10.103 5.208l9.375-5.208-.728-1.311-9.375 5.208.728 1.311z" fill="#fff"/></svg>