<svg width="25" height="24" fill="none" xmlns="http://www.w3.org/2000/svg"><g clip-path="url(#clip0_5695_37887)"><path d="M5.88 5.28L.983 10.177a.484.484 0 00-.092.092l-.09.09v.119a.48.48 0 000 .156v2.804h1.44V24h2.88V13.44h.96v7.2h2.88v-7.2h7.68v7.2h2.88v-7.2h.96V24h2.88V13.44h1.44v-2.8a.478.478 0 000-.156v-.123l-.093-.092a.482.482 0 00-.091-.091L19.719 5.28H5.881zm.398.96h13.043l3.84 3.84H2.438l3.84-3.84zm-4.519 4.8h22.08v1.44h-.879a.478.478 0 00-.157 0h-1.77a.486.486 0 00-.15 0H19.12a.478.478 0 00-.157 0h-1.77a.486.486 0 00-.15 0H8.56a.478.478 0 00-.157 0h-1.77a.485.485 0 00-.15 0H4.72a.478.478 0 00-.157 0h-1.77a.485.485 0 00-.15 0h-.884v-1.44zm1.44 2.4h.96v9.6H3.2v-9.6zm3.84 0H8v6.24h-.96v-6.24zm10.56 0h.96v6.24h-.96v-6.24zm3.84 0h.96v9.6h-.96v-9.6z" fill="#232F3E"/></g><defs><clipPath id="clip0_5695_37887"><path fill="#fff" transform="translate(.8)" d="M0 0h24v24H0z"/></clipPath></defs></svg>