<svg width="25" height="24" fill="none" xmlns="http://www.w3.org/2000/svg"><path d="M15.999 1.478c-.414.839-.778 1.649-.803 1.82l-.05.296-4.154.01H6.846l-3.062 1.4-3.062 1.41v9.131l.33.077c.257.057.431.2.762.62l.439.552v3.535c0 3.146.016 3.555.132 3.603.215.095 1.44.067 1.614-.038.149-.096.157-.239.157-3.555v-3.45l.571-.648c.522-.59.596-.638.927-.638.331 0 .39.038.944.705.645.781.852.915 1.431.915.489 0 .795-.21 1.457-1 .48-.582.53-.62.877-.62.356 0 .397.038.91.657.638.772.927.963 1.465.963.505 0 .828-.22 1.473-1.01.472-.572.522-.61.87-.61.347 0 .396.038.877.62.662.79.968 1 1.456 1 .58 0 .778-.124 1.423-.906.563-.676.613-.714.96-.714.34 0 .398.038.927.667l.563.667v3.373c0 2.945.017 3.403.133 3.527.182.219 1.539.219 1.721 0 .116-.124.132-.591.132-3.64v-3.498l.373-.496c.298-.39.455-.515.728-.572l.348-.086v-9.13l-3.062-1.41c-1.68-.773-3.104-1.402-3.162-1.402-.05-.01-.116-.133-.149-.286-.041-.219-1.431-3.164-1.564-3.316-.016-.029-.372.638-.786 1.477zm1.39.639c.571 1.143.654 1.477.513 1.972-.298 1.049-1.547 1.277-2.11.391-.223-.353-.265-1.058-.091-1.468.397-.886 1.06-2.096 1.117-2.02.033.038.29.543.571 1.125zm-2.027 2.401c.554 1.239 2.01 1.325 2.714.172.15-.239.306-.43.348-.43.05 0 1.117.458 2.367 1.02l2.276 1.03-5.198.028c-2.863.01-7.514.01-10.345 0L2.377 6.31 4.61 5.29l2.235-1.02h4.196l4.196-.01.124.258zm8.905 6.442v4.032l-.29.124c-.174.066-.464.352-.72.686-.753.99-1.167 1.096-1.763.457l-.372-.4v-2.44c0-1.782-.025-2.478-.1-2.563-.132-.153-.19-.143-.347.038-.116.124-.133.467-.133 2.24 0 2.039 0 2.086-.157 1.991-.09-.047-.364-.095-.604-.095-.538 0-.82.19-1.316.857-.198.267-.463.553-.587.63-.447.266-.92.104-1.3-.458-.165-.238-.174-.362-.174-2.678 0-2.04-.016-2.45-.124-2.544-.099-.096-.149-.096-.248 0-.108.095-.124.476-.124 2.258 0 2.011-.008 2.144-.14 2.068-.266-.133-1.019-.152-1.275-.038-.133.067-.43.362-.67.658-.514.648-.779.867-1.085.867-.34 0-.637-.22-1.043-.762-.496-.668-.777-.858-1.315-.858-.24 0-.513.048-.605.095-.157.095-.157.048-.157-2.03 0-1.525-.025-2.154-.1-2.24-.131-.152-.19-.142-.347.039-.116.124-.132.495-.132 2.544-.008 2.63.016 2.516-.53 3.002-.265.229-.654.267-.935.086-.1-.067-.38-.381-.637-.696-.563-.714-.803-.838-1.498-.772l-.538.048v-2.078c0-2.163-.033-2.373-.364-2.23-.116.048-.133.334-.133 2.507v2.45l-.355.4c-.638.724-1.093.647-1.83-.315-.272-.362-.579-.658-.752-.724l-.29-.124V6.93h23.09v4.03zM3.66 20.28v3.041h-.911v-6.147l.447.029.455.038.009 3.04zm19.034-.056v3.097h-.828v-6.09l.398-.038c.215-.019.397-.038.413-.048.009-.009.017 1.373.017 3.079z" fill="#232F3E"/></svg>