<svg width="24" height="24" fill="none" xmlns="http://www.w3.org/2000/svg"><g clip-path="url(#clip0_5695_37810)" fill="#232F3E"><path d="M15.963 8.772l2.274.817a.462.462 0 00.592-.279l.55-1.53a.463.463 0 00-.28-.592l-2.273-.817a.462.462 0 00-.592.28l-.55 1.53a.462.462 0 00.28.591zm.985-1.374l1.404.504-.237.66-1.404-.504.237-.66zM5.658 20.935a.485.485 0 100-.97.485.485 0 000 .97z"/><path d="M15.803 12.763l.129-.129a6.566 6.566 0 012.107-1.416l3.032-1.275s.823-.355 1.007-.46c.247-.14.491-.332.747-.588a4.021 4.021 0 00.171-5.498.462.462 0 00-.78.145l-1.105 2.976-.824-.305 1.162-3.162a.462.462 0 00-.499-.617 4.008 4.008 0 00-3.283 2.81l-1.908-.707a.463.463 0 00-.616.35l-.439 2.376a6.565 6.565 0 01-1.4 3l-4.06-4.06.288-.289a.463.463 0 000-.654l-.305-.305c.93-1.142 2.12-1.198 2.985-1.027a.462.462 0 00.45-.744 4.137 4.137 0 00-1.51-1.174 4.212 4.212 0 00-4.348.522l-.253-.252a.463.463 0 00-.654 0L3.09 5.088a.463.463 0 00-.004.651c.16.164.085.523-.162.77-.247.246-.606.322-.77.162a.463.463 0 00-.65.003L.134 8.041a.463.463 0 000 .654l2.98 2.98a.461.461 0 00.655 0l1.367-1.366a.463.463 0 00.005-.65c-.16-.163-.083-.522.163-.768s.605-.323.769-.164c.18.177.47.175.649-.004l.255-.256 4.083 4.083-6.707 6.707a1.742 1.742 0 00-.514 1.24c0 .467.183.907.514 1.238.341.342.79.512 1.238.512.449 0 .898-.17 1.24-.512l6.707-6.707 7.205 7.205a.461.461 0 00.654 0l1.611-1.61a.463.463 0 000-.655l-7.206-7.205zm4.466-9.185l-.85 2.314-.881-.327a3.082 3.082 0 011.731-1.987zm-9.503-.727c.075.034.147.07.218.11-.94.118-1.764.573-2.414 1.337L7.464 3.192a3.282 3.282 0 013.302-.341zm-4.542.41l2.327 2.326-2.105 2.105-2.327-2.326L6.224 3.26zm-2.781 7.434L1.117 8.368l.713-.712 2.326 2.326-.713.713zM4.65 8.237a1.832 1.832 0 00-.38.55L3.025 7.545c.196-.087.384-.214.551-.381.187-.187.324-.4.41-.62L5.27 7.827a1.82 1.82 0 00-.62.41zm2.982-.424l.956-.956 4.083 4.082-.957.957-4.082-4.083zM6.177 21.081a.821.821 0 01-.585.242.828.828 0 01-.585-1.412l8.529-8.528a7.491 7.491 0 002.078-3.952l.34-1.836 5.27 1.951a.463.463 0 00.594-.273l.951-2.563a3.098 3.098 0 01-.598 3.531c-.196.196-.376.34-.549.437-.107.061-.969.437-.969.437l-2.972 1.25a7.49 7.49 0 00-2.403 1.615l-9.101 9.1zm14.894.17l-6.878-6.878.956-.956 6.879 6.878-.957.957z"/></g><defs><clipPath id="clip0_5695_37810"><path fill="#fff" d="M0 0h24v24H0z"/></clipPath></defs></svg>