<svg width="25" height="24" fill="none" xmlns="http://www.w3.org/2000/svg"><g clip-path="url(#clip0_5695_37914)" fill="#FE3801"><path d="M23.451 12.27a.755.755 0 010-.54l.877-2.3a1.71 1.71 0 00-.663-2.041l-2.062-1.347a.759.759 0 01-.317-.436l-.644-2.378a1.71 1.71 0 00-1.737-1.261l-2.452.123h-.043a.76.76 0 01-.476-.167L14.016.379a1.706 1.706 0 00-2.146 0L9.953 1.923a.76.76 0 01-.477.167h-.039L6.97 1.966l.016.001a1.71 1.71 0 00-1.74 1.26l-.645 2.378a.758.758 0 01-.317.437L2.222 7.388a1.71 1.71 0 00-.664 2.041l.877 2.301a.755.755 0 010 .54l-.876 2.3a1.706 1.706 0 00.663 2.042l2.061 1.346a.757.757 0 01.317.437l.644 2.376a1.711 1.711 0 001.65 1.264c.027 0 .056 0 .086-.002l.079-.004 2.38-.119h.039c.172 0 .34.058.475.167l1.917 1.545a1.709 1.709 0 002.146 0l1.918-1.545a.755.755 0 01.475-.168l.037.001.043.002 2.405.12.017.001.08.002a1.71 1.71 0 001.651-1.264l.644-2.377a.758.758 0 01.316-.436l2.063-1.346a1.711 1.711 0 00.663-2.042l-.877-2.3zm-.308 3.544l-2.061 1.346a1.71 1.71 0 00-.716.986l-.643 2.376a.758.758 0 01-.731.56h-.042l-2.455-.123h.001a1.708 1.708 0 00-1.16.377l-1.918 1.544a.754.754 0 01-.95 0l-1.918-1.545a1.711 1.711 0 00-1.158-.376l-2.46.123h.001-.039a.757.757 0 01-.73-.56l-.644-2.376a1.71 1.71 0 00-.716-.986l-2.061-1.346a.76.76 0 01-.294-.904l.876-2.3a1.71 1.71 0 000-1.22l-.876-2.3a.758.758 0 01.294-.904L4.804 6.84c.35-.23.605-.58.715-.986l.644-2.377a.758.758 0 01.73-.56l.034.001h.01l2.454.123h.002l.082.002c.39 0 .77-.133 1.074-.378l1.918-1.544-.299-.371.299.37a.754.754 0 01.95 0l1.918 1.545a1.711 1.711 0 001.153.377l.009-.001 2.413-.12.044-.003h.037c.34 0 .641.228.73.56l.644 2.376c.11.405.365.756.716.986l2.062 1.346a.757.757 0 01.293.905l-.876 2.3a1.71 1.71 0 000 1.218l.877 2.301a.758.758 0 01-.294.904z"/><path d="M11.385 10.659c-.017-.03-.042-.048-.08-.04l-.67.132c-.037.007-.054.032-.058.066l-.554 3.753c-.004.034.01.053.048.046l.696-.137c.037-.007.055-.027.059-.067l.077-.672 1.265-.248.332.59c.018.036.043.048.08.04l.69-.135c.038-.007.044-.031.027-.06l-1.912-3.268zm-.394 2.374l.16-1.346.016-.003.658 1.185-.834.164zm-2.779-.31l-.197.011c-.426.024-.6-.08-.642-.287-.044-.229.088-.426.407-.489.297-.058.582-.015.894.111.03.011.055 0 .07-.03l.23-.548c.02-.042.01-.062-.026-.077-.349-.174-.824-.23-1.302-.136-.781.153-1.194.693-1.064 1.357.126.638.603.903 1.357.86l.196-.011c.442-.026.596.082.638.294.05.255-.129.473-.506.547-.382.075-.742-.042-1.02-.186-.03-.016-.062-.01-.078.021l-.313.542c-.02.037-.002.072.023.09.335.215.926.33 1.49.22.936-.185 1.324-.764 1.196-1.417-.129-.654-.59-.917-1.353-.872zm7.894-.016l-1.595.313c-.021.004-.034-.004-.038-.025l-.557-2.834c-.007-.032-.032-.049-.064-.042l-.675.132c-.032.007-.05.032-.043.064l.69 3.508c.007.032.032.05.064.043l2.355-.463c.032-.007.049-.032.042-.064l-.116-.59c-.006-.032-.031-.049-.063-.042zm2.891-.547l-1.557.305c-.021.005-.035-.004-.039-.025l-.147-.75c-.004-.02.005-.034.026-.038l1.297-.255c.031-.006.049-.031.042-.063l-.11-.564a.052.052 0 00-.064-.042l-1.297.255c-.021.004-.034-.005-.038-.026l-.141-.717c-.005-.022.004-.034.025-.039l1.558-.306c.032-.006.049-.032.043-.064l-.112-.568c-.007-.032-.032-.05-.064-.043l-2.317.456c-.032.006-.05.031-.043.064l.69 3.508c.006.032.031.049.063.042l2.318-.455c.032-.007.049-.032.043-.064l-.112-.569c-.007-.032-.032-.05-.064-.043z"/></g><defs><clipPath id="clip0_5695_37914"><path fill="#fff" transform="translate(.943)" d="M0 0h24v24H0z"/></clipPath></defs></svg>