<svg width="25" height="19" fill="none" xmlns="http://www.w3.org/2000/svg"><path d="M15.383 10.247a.378.378 0 00.536 0l.238-.237.237.237a.378.378 0 00.536 0 .38.38 0 000-.536l-.238-.237.238-.237a.38.38 0 00-.536-.536l-.237.237-.238-.237a.379.379 0 00-.536.536l.238.237-.238.237a.38.38 0 000 .536zm4.831-4.579l-.237-.237.237-.237a.379.379 0 00-.536-.536l-.237.237-.238-.237a.379.379 0 10-.535.536l.237.237-.237.237a.379.379 0 10.535.536l.238-.237.237.237a.378.378 0 00.536 0 .379.379 0 000-.536zm-1.546 8.62a.378.378 0 00.535 0l.238-.237.237.237a.378.378 0 00.536 0 .379.379 0 000-.536l-.237-.237.237-.237a.379.379 0 00-.536-.536l-.237.237-.238-.237a.38.38 0 00-.535.536l.237.237-.237.237a.379.379 0 000 .536zm-5.022-9.63a.379.379 0 00-.536 0l-.237.237-.238-.237a.379.379 0 10-.536.536l.238.237-.238.237a.379.379 0 00.536.536l.238-.237.237.237a.378.378 0 00.536 0 .379.379 0 000-.536l-.238-.237.238-.237a.379.379 0 000-.536zm-6.569 8.084a.38.38 0 00-.536 0l-.237.237-.237-.237a.38.38 0 00-.536.536l.237.237-.237.237a.379.379 0 00.536.536l.237-.237.237.237a.378.378 0 00.536 0 .379.379 0 000-.536l-.237-.237.237-.237a.38.38 0 000-.536z" fill="#232F3E"/><path d="M9.84 2.273h9.152c.683 0 1.366-.16 1.977-.466L22.87.856a.842.842 0 01.963.119.85.85 0 01.191 1.01l-.96 1.918A4.443 4.443 0 0022.6 5.88v5.11a.379.379 0 10.758 0V5.88c0-.565.133-1.132.386-1.638l.96-1.92A1.608 1.608 0 0023.092.009a1.664 1.664 0 00-.56.17l-1.902.95a3.681 3.681 0 01-1.638.388H9.84a.379.379 0 000 .757zm3.806 10.469a.38.38 0 00-.536 0l-.237.237-.238-.237a.379.379 0 00-.536.536l.238.237-.238.237a.379.379 0 00.536.536l.238-.237.237.237a.378.378 0 00.536 0 .379.379 0 000-.536l-.238-.237.238-.237a.379.379 0 000-.536zM7.077 4.658a.379.379 0 00-.536 0l-.237.237-.237-.237a.379.379 0 10-.536.536l.237.237-.237.237a.379.379 0 00.536.536l.237-.237.237.237a.378.378 0 00.536 0 .379.379 0 000-.536l-.237-.237.237-.237a.379.379 0 000-.536z" fill="#232F3E"/><path d="M24.694 16.608l-.951-1.903a3.683 3.683 0 01-.387-1.638v-.562a.379.379 0 10-.758 0v.562c0 .682.162 1.366.467 1.977l.952 1.903a.848.848 0 01-1.145 1.145l-1.903-.952a4.443 4.443 0 00-1.977-.466H6.752a4.45 4.45 0 00-1.977.466l-1.902.952a.848.848 0 01-1.145-1.145l.951-1.903c.305-.61.467-1.295.467-1.977V5.88c0-.682-.162-1.366-.467-1.977l-.96-1.92A.851.851 0 011.912.975a.843.843 0 01.963-.118l1.902.95c.61.306 1.294.467 1.977.467h1.572a.379.379 0 000-.757H6.753a3.682 3.682 0 01-1.639-.387L3.213.178a1.612 1.612 0 00-1.808.233 1.608 1.608 0 00-.363 1.912l.96 1.92c.252.505.386 1.072.386 1.637v7.187a3.68 3.68 0 01-.387 1.638l-.951 1.903a1.603 1.603 0 00.293 1.87 1.603 1.603 0 001.869.292l1.902-.952a3.682 3.682 0 011.639-.386H18.99c.566 0 1.133.133 1.639.386l1.902.952a1.639 1.639 0 00.734.177 1.603 1.603 0 001.428-2.34z" fill="#232F3E"/><path d="M8.815 10.247a.378.378 0 00.536 0l.237-.237.238.237a.378.378 0 00.535 0 .379.379 0 000-.536l-.237-.237.237-.237a.379.379 0 10-.535-.536l-.238.237-.237-.237a.379.379 0 10-.536.536l.237.237-.237.237a.379.379 0 000 .536z" fill="#232F3E"/></svg>