<svg width="25" height="24" fill="none" xmlns="http://www.w3.org/2000/svg"><path d="M4.455.084c-.786.168-1.357.454-1.99.984-.525.444-1.045 1.183-1.244 1.775-.28.846-.26.142-.26 9.18v8.286l.143.46c.352 1.142.954 1.947 1.912 2.564.306.2.658.347 1.286.556.265.087.76.092 9.281.107 6.615.01 9.083 0 9.307-.04.98-.19 1.734-.913 1.989-1.913.066-.265.076-1.265.076-7.904 0-8.364.016-7.936-.316-8.553-.199-.377-.627-.8-1.004-1.004-.617-.327-.245-.311-7.38-.311H9.763l-.03-.296C9.523 2.134 8.315.67 6.57.165 5.939-.018 5.067-.054 4.455.084zm1.759.52c1.056.28 1.902.902 2.417 1.77.112.188.28.56.373.826l.168.484.01 6.86c.01 6.486.005 6.853-.076 6.73-.46-.657-.755-.963-1.306-1.335a4.369 4.369 0 00-4.911 0c-.546.372-.841.678-1.3 1.336-.082.122-.087-.245-.077-6.732l.01-6.859.163-.474C2.175 1.772 3.317.777 4.755.548c.337-.056 1.168-.02 1.459.056zM22.89 4.903c.77.204 1.29.755 1.453 1.535.036.173.046 2.749.041 7.853l-.015 7.6-.107.264c-.224.546-.612.939-1.132 1.148l-.29.117-7.676.015-7.675.01.331-.219c1.01-.683 1.709-1.82 1.882-3.06.041-.275.056-2.774.056-7.869V4.832H16.2c5.207 0 6.487.015 6.691.07zM5.98 15.8c1.463.235 2.656 1.316 3.075 2.784.132.465.158 1.459.045 1.852-.418 1.504-1.351 2.463-2.81 2.886-.458.133-1.427.133-1.886 0-.765-.224-1.403-.607-1.882-1.127-.699-.765-1.081-1.856-1.005-2.856.04-.556.148-.933.429-1.504.407-.831 1.274-1.596 2.136-1.882a4.067 4.067 0 011.897-.153z" fill="#232F3E"/><path d="M11.584 6.769c-.352.107-.704.576-.704.943 0 .755.78 1.26 1.453.949.393-.184.587-.485.587-.923 0-.306-.066-.49-.245-.684a1.089 1.089 0 00-1.091-.285zm.617.642a.48.48 0 01.127.556c-.04.102-.285.23-.444.23-.3 0-.514-.368-.382-.648.133-.28.454-.347.699-.138zm4.366-.596c-.26.117-.515.408-.587.663-.107.408.041.785.424 1.096.178.143.229.158.566.158.484 0 .724-.142.923-.56.173-.347.158-.618-.051-.97-.245-.418-.821-.596-1.275-.387zm.632.54a.443.443 0 01.071.74c-.152.122-.326.127-.52.025-.163-.081-.209-.168-.209-.402 0-.347.332-.53.658-.363zm4.416-.539c-.8.367-.775 1.525.036 1.867.357.147.82.066 1.106-.194.403-.367.403-1.132 0-1.5a1.085 1.085 0 00-1.142-.173zm.745.612c.102.102.148.199.148.311 0 .112-.046.21-.148.311-.102.102-.2.148-.311.148-.22 0-.46-.24-.46-.459 0-.112.046-.209.148-.311.102-.102.2-.148.312-.148.112 0 .209.046.31.148zm-8.14.177a.259.259 0 00.368.357c.127-.082.158-.316.056-.418-.107-.107-.337-.072-.424.061zm5.075-.025c-.076.148-.061.25.056.367.158.158.454.025.454-.214 0-.23-.403-.347-.51-.153zM14.17 9.956c-.576.153-.897.826-.663 1.387.112.265.214.367.51.505.326.153.546.153.877 0a.945.945 0 00.561-.78c.087-.745-.56-1.3-1.285-1.112zm.607.694c.214.255.163.535-.128.688a.444.444 0 01-.596-.607c.086-.173.199-.234.408-.24.143 0 .214.036.316.159zm4.533-.719c-.831.194-1.101 1.189-.474 1.755.383.341.882.367 1.29.066a.99.99 0 00.408-.821c0-.454-.3-.842-.75-.974a1.736 1.736 0 00-.28-.072c-.015.005-.102.02-.194.046zm.52.689c.092.086.128.178.128.321 0 .49-.678.622-.862.168-.189-.448.393-.836.734-.49zm-8.073.108c-.209.148-.097.479.168.479.123 0 .281-.168.281-.29 0-.036-.046-.113-.102-.169-.122-.122-.194-.127-.347-.02zm5.039.018c-.127.128-.132.266-.01.373.189.173.47.056.47-.194 0-.122-.17-.28-.291-.28-.036 0-.113.045-.169.101zm5.09-.029c-.107.077-.123.337-.03.429.035.035.122.061.193.061.071 0 .158-.026.194-.061.092-.092.071-.321-.03-.413-.113-.102-.21-.107-.327-.016zM11.573 13.17c-.556.198-.836.851-.596 1.381.178.393.698.689 1.08.607.521-.107.863-.51.863-1.015 0-.469-.184-.75-.612-.943-.265-.122-.46-.133-.735-.03zm.674.667a.45.45 0 01-.317.75c-.163.005-.224-.025-.346-.163-.123-.138-.148-.199-.123-.326.082-.414.515-.556.786-.26zm4.396-.677c-.26.082-.582.428-.658.709a1.01 1.01 0 00.433 1.112c.454.285.893.24 1.275-.128.444-.428.424-1.076-.046-1.489a1 1 0 00-1.004-.204zm.663.673c.275.276.061.765-.337.755-.505-.015-.602-.714-.122-.898.127-.05.326.016.459.143zm4.431-.673c-.5.189-.74.556-.693 1.06.071.791.897 1.204 1.55.776.336-.214.449-.434.449-.857 0-.316-.02-.393-.143-.571-.255-.367-.775-.55-1.163-.408zm.49.556c.148.066.28.28.28.449 0 .28-.331.5-.607.402-.377-.132-.408-.642-.05-.841.152-.087.214-.087.377-.01zm-7.95.209c-.194.143-.066.495.178.495.23 0 .347-.403.153-.51-.132-.066-.219-.066-.331.015zm5.054.024c-.255.28.107.632.372.367.123-.122.128-.194.02-.347a.244.244 0 00-.392-.02zm-5.253 2.427c-.525.194-.79.816-.571 1.347.362.862 1.622.816 1.912-.072.143-.428-.06-.984-.443-1.208-.22-.128-.653-.158-.898-.067zm.653.602a.596.596 0 01.163.306c.026.163.005.21-.127.347-.21.204-.424.21-.628.005-.102-.102-.148-.199-.148-.311 0-.214.24-.459.454-.459.087 0 .21.051.286.112zm4.304-.534c-.23.117-.3.188-.418.423-.128.24-.143.321-.117.556.03.357.23.653.54.81.337.174.79.143 1.056-.07.403-.327.53-.68.398-1.123a1.05 1.05 0 00-.985-.734c-.112 0-.31.061-.474.137zm.765.555c.449.378-.107 1.046-.571.684a.45.45 0 01.061-.74c.199-.107.337-.091.51.056zm-8.104.169c-.086.163-.056.306.077.393.265.173.566-.158.357-.387-.118-.133-.362-.133-.434-.006zm5.08-.015a.276.276 0 00-.082.179c0 .117.174.3.28.3.103 0 .281-.183.281-.285a.28.28 0 00-.48-.194zm5.079-.021c-.072.071-.082.29-.016.392.026.041.123.072.21.072.178 0 .254-.077.254-.276 0-.163-.086-.25-.255-.25-.071 0-.158.026-.193.062zm-10.439 2.5a1.094 1.094 0 00-.525.8c-.036.373.168.77.48.954.428.25.871.214 1.228-.097.235-.21.322-.418.322-.79a.955.955 0 00-.444-.827c-.265-.183-.78-.204-1.061-.04zm.81.576c.098.092.133.173.133.321 0 .47-.632.622-.846.204-.23-.444.342-.867.714-.525zm4.341-.618a1.04 1.04 0 00-.607.948c.01.949 1.158 1.367 1.79.648.316-.362.347-.775.082-1.199-.194-.316-.465-.469-.832-.464-.153 0-.346.03-.433.067zm.704.591a.433.433 0 01.117.55c-.214.419-.847.266-.847-.203 0-.388.424-.587.73-.347zm4.344-.591a1.115 1.115 0 00-.505.55c-.351.836.505 1.683 1.321 1.32.322-.142.424-.234.54-.489.24-.515-.025-1.208-.53-1.397-.198-.077-.642-.066-.826.015zm.76.647c.169.194.169.403.01.591-.097.113-.163.143-.336.143-.408 0-.592-.418-.326-.734.102-.128.173-.158.326-.158.153 0 .224.03.326.158zm-8.124.127c-.127.164-.127.169-.025.317.087.122.316.153.418.05.102-.101.072-.33-.05-.418-.159-.112-.22-.102-.343.051zm5.105-.049c-.122.081-.143.224-.06.382.106.2.509.062.509-.173 0-.102-.173-.29-.27-.29a.408.408 0 00-.179.08zm-14.34-2.473c-.587.117-1.173.627-1.357 1.183-.127.377-.081 1 .102 1.351.179.357.485.653.842.822.24.112.357.132.744.132.388 0 .5-.02.74-.132a1.91 1.91 0 00.846-.822c.179-.352.23-.974.102-1.346-.27-.81-1.198-1.356-2.02-1.188zm.816.642c.55.225.836.872.663 1.5-.123.448-.638.81-1.148.81-.51 0-1.025-.361-1.147-.81-.291-1.046.642-1.903 1.632-1.5z" fill="#232F3E"/></svg>