<svg width="25" height="24" fill="none" xmlns="http://www.w3.org/2000/svg"><path d="M4.41.084c-.785.168-1.356.454-1.988.984-.526.444-1.046 1.183-1.245 1.775-.28.846-.26.142-.26 9.18v8.286l.143.46c.352 1.142.954 1.947 1.913 2.564.306.2.657.347 1.285.556.265.087.76.092 9.281.107 6.615.01 9.083 0 9.307-.04.98-.19 1.734-.913 1.99-1.913.065-.265.076-1.265.076-7.904 0-8.364.015-7.936-.317-8.553-.198-.377-.627-.8-1.004-1.004-.617-.327-.245-.311-7.38-.311H9.72l-.03-.296C9.479 2.134 8.27.67 6.527.165 5.895-.018 5.023-.054 4.411.084zm1.76.52c1.056.28 1.902.902 2.417 1.77.113.188.28.56.373.826l.168.484.01 6.86c.01 6.486.005 6.853-.076 6.73-.46-.657-.755-.963-1.306-1.335a4.369 4.369 0 00-4.911 0c-.546.372-.841.678-1.3 1.336-.082.122-.087-.245-.077-6.732l.01-6.859.163-.474C2.131 1.772 3.273.777 4.711.548 5.049.492 5.88.528 6.17.604zm16.676 4.299c.77.204 1.29.755 1.454 1.535.035.173.046 2.749.04 7.853l-.015 7.6-.107.264c-.224.546-.612.939-1.132 1.148l-.29.117-7.676.015-7.675.01.331-.219c1.01-.683 1.709-1.82 1.882-3.06.041-.275.056-2.774.056-7.869V4.832h6.441c5.207 0 6.487.015 6.691.07zM5.936 15.8c1.463.235 2.656 1.316 3.075 2.784.132.465.158 1.459.045 1.852-.418 1.504-1.35 2.463-2.81 2.886-.458.133-1.427.133-1.886 0-.765-.224-1.403-.607-1.882-1.127-.699-.765-1.081-1.856-1.005-2.856.041-.556.148-.933.429-1.504.408-.831 1.274-1.596 2.136-1.882a4.067 4.067 0 011.897-.153z" fill="#232F3E"/><path d="M14.176 7.605a.259.259 0 00.368.357c.127-.082.158-.316.056-.418-.107-.107-.337-.072-.424.061zm5.075-.025c-.076.148-.061.25.056.367.158.158.454.025.454-.214 0-.23-.403-.347-.51-.153zm-7.538 3.148c-.209.148-.097.479.169.479.122 0 .28-.168.28-.29 0-.036-.046-.113-.102-.169-.122-.122-.194-.127-.347-.02zm5.039.018c-.127.128-.132.266-.01.373.189.173.47.056.47-.194 0-.122-.17-.28-.291-.28-.036 0-.113.045-.169.101zm5.09-.029c-.107.077-.122.337-.03.429.035.035.122.061.193.061.071 0 .158-.026.194-.061.092-.092.071-.321-.03-.413-.113-.102-.21-.107-.327-.016zm-7.609 3.208c-.194.143-.066.495.178.495.23 0 .347-.403.153-.51-.132-.066-.219-.066-.331.015zm5.054.024c-.255.28.107.632.372.367.123-.122.128-.194.02-.347a.244.244 0 00-.392-.02zm-7.635 3.219c-.086.163-.056.306.077.393.265.173.566-.158.357-.387-.117-.133-.362-.133-.434-.006zm5.08-.015a.276.276 0 00-.082.179c0 .117.174.3.28.3.103 0 .281-.183.281-.285a.28.28 0 00-.479-.194zm5.078-.021c-.07.071-.08.29-.015.392.026.041.123.072.21.072.178 0 .255-.077.255-.276 0-.163-.087-.25-.256-.25-.07 0-.158.026-.193.062zm-7.603 3.232c-.127.164-.127.169-.025.317.087.122.316.153.418.05.102-.101.072-.33-.05-.418-.159-.112-.22-.102-.343.051zm5.105-.049c-.122.081-.143.224-.06.382.106.2.51.062.51-.173 0-.102-.174-.29-.271-.29a.408.408 0 00-.179.08zm-14.34-2.473c-.587.117-1.173.627-1.357 1.183-.127.377-.081 1 .102 1.351.179.357.485.653.842.822.24.112.357.132.744.132.388 0 .5-.02.74-.132a1.91 1.91 0 00.846-.822c.179-.352.23-.974.102-1.346-.27-.81-1.198-1.356-2.02-1.188zm.816.642c.55.225.836.872.663 1.5-.123.448-.638.81-1.148.81-.51 0-1.025-.361-1.147-.81-.29-1.046.642-1.903 1.632-1.5z" fill="#232F3E"/></svg>