<svg width="25" height="24" fill="none" xmlns="http://www.w3.org/2000/svg"><g clip-path="url(#clip0_5695_37893)" fill="#232F3E"><path d="M22.649 7.466c.12-.08.16-.24.12-.36v-.04a5.665 5.665 0 00-2.162-3.403c-.12-.08-.24-.12-.4-.04-1.401.48-2.522.48-3.403-.04-1.401-.84-1.641-2.842-1.641-2.842 0-.16-.12-.28-.28-.32C13.52-.14 12-.14 10.599.42c-.12.04-.24.16-.24.32 0 0-.24 1.961-1.642 2.842-.88.56-2.041.56-3.443.04-.12-.08-.24-.04-.36.04a5.665 5.665 0 00-2.162 3.403v.04c0 .12.04.28.12.36 1.201 1.201 1.882 3.003 1.882 4.924 0 1.922-.68 3.723-1.882 4.924-.12.08-.16.24-.12.36v.04a5.665 5.665 0 002.162 3.404c.12.08.24.12.36.08.24-.08 5.285-1.802 7.126 2.562.04.16.2.24.36.24.16 0 .32-.08.36-.28 1.883-4.324 6.927-2.642 7.127-2.562.12.08.24.04.36-.04a5.665 5.665 0 002.162-3.403v-.04c0-.12-.04-.28-.12-.36-2.482-2.483-2.482-7.367 0-9.849zm-2.362 12.851c-1.041-.28-5.405-1.281-7.526 2.362-1.281-2.162-3.363-2.682-5.045-2.682-1.12 0-2.081.24-2.482.36-.8-.68-1.4-1.601-1.641-2.642 1.241-1.321 1.962-3.243 1.962-5.325 0-2.081-.721-4.003-1.962-5.364.24-1.041.84-1.962 1.641-2.642 1.562.52 2.883.48 3.924-.16 1.4-.881 1.841-2.563 1.961-3.203a5.12 5.12 0 013.283 0c.12.64.56 2.322 1.962 3.203 1.04.64 2.362.68 3.923.16a4.737 4.737 0 011.641 2.642c-2.602 2.802-2.602 7.846 0 10.649a4.738 4.738 0 01-1.641 2.642z"/><path d="M20.927 7.065c.08-.12.08-.28.04-.4-.16-.4-.4-.8-.68-1.121-.12-.12-.24-.16-.4-.12-.521.12-1.042.2-1.522.2-3.123 0-4.243-2.562-4.564-3.643-.04-.16-.16-.24-.32-.28-.48-.08-.96-.08-1.441 0-.16.04-.28.12-.32.28-.36 1.08-1.482 3.643-4.564 3.643-.48 0-1.001-.08-1.522-.2-.16-.04-.32 0-.4.12-.28.32-.52.72-.68 1.12-.08.12-.04.281.04.401 2.281 3.003 2.281 7.686 0 10.689-.08.12-.08.28-.04.4.16.44.4.801.72 1.161.12.12.24.16.4.12a8.89 8.89 0 012.042-.24c1.922 0 3.563.64 4.764 1.842.08.08.16.12.28.12.12 0 .2-.04.28-.12 1.202-1.201 2.843-1.842 4.764-1.842.681 0 1.362.08 2.042.24.16.04.32 0 .4-.12.32-.36.561-.72.721-1.16.08-.12.04-.28-.04-.401-2.282-3.003-2.282-7.686 0-10.689zm-.76 10.97c-.12.2-.24.4-.36.56-.681-.12-1.362-.2-2.002-.2-2.002 0-3.724.64-5.045 1.801-1.32-1.2-3.042-1.801-5.044-1.801-.64 0-1.321.08-1.962.2-.16-.2-.28-.36-.36-.56 2.322-3.203 2.322-8.087 0-11.29.08-.2.2-.36.32-.52.52.12 1.001.16 1.482.16 3.483 0 4.844-2.763 5.244-3.964.24-.04.44-.04.68 0 .441 1.161 1.762 3.964 5.245 3.964.48 0 .96-.04 1.481-.16.12.16.24.32.32.52-2.321 3.202-2.321 8.087 0 11.29z"/><path d="M15.162 9.588h-4.804c-.24 0-.4.16-.4.4 0 .24.16.4.4.4h4.804c.24 0 .4-.16.4-.4 0-.24-.16-.4-.4-.4zm0 2.002h-4.804c-.24 0-.4.16-.4.4 0 .24.16.4.4.4h4.804c.24 0 .4-.16.4-.4 0-.24-.16-.4-.4-.4zm0 2.002h-4.804c-.24 0-.4.16-.4.4 0 .24.16.4.4.4h4.804c.24 0 .4-.16.4-.4 0-.24-.16-.4-.4-.4zM12.76 7.986c.24 0 .401-.16.401-.4 0-.24-.16-.4-.4-.4-.24 0-.4.16-.4.4 0 .24.16.4.4.4zm0 8.008c-.24 0-.4.16-.4.4 0 .24.16.4.4.4.24 0 .401-.16.401-.4 0-.24-.16-.4-.4-.4z"/></g><defs><clipPath id="clip0_5695_37893"><path fill="#fff" transform="translate(.76)" d="M0 0h24v24H0z"/></clipPath></defs></svg>