<svg width="36" height="35" viewBox="0 0 36 35" fill="none" xmlns="http://www.w3.org/2000/svg">
<g clip-path="url(#clip0_6032_49991)">
<path d="M16.7169 16.6021C16.8112 16.6018 16.8112 16.6018 16.9074 16.6015C17.1177 16.6009 17.328 16.6008 17.5383 16.6007C17.6892 16.6003 17.8402 16.6 17.9911 16.5996C18.401 16.5987 18.8109 16.5983 19.2208 16.598C19.477 16.5978 19.7333 16.5975 19.9896 16.5972C20.6999 16.5964 21.4103 16.5957 22.1207 16.5954C22.1662 16.5954 22.2116 16.5954 22.2584 16.5954C22.3267 16.5954 22.3267 16.5954 22.3963 16.5953C22.4886 16.5953 22.5808 16.5953 22.6731 16.5953C22.7417 16.5952 22.7417 16.5952 22.8117 16.5952C23.5525 16.5949 24.2932 16.5937 25.0339 16.5922C25.7956 16.5905 26.5573 16.5897 27.3189 16.5896C27.7461 16.5895 28.1733 16.5891 28.6005 16.5879C29.0025 16.5868 29.4046 16.5866 29.8067 16.5872C29.9538 16.5873 30.101 16.587 30.2481 16.5863C31.3776 16.5814 32.3184 16.6133 33.1892 17.4064C33.7044 17.9408 33.868 18.5827 33.8696 19.3054C33.8699 19.3809 33.8699 19.3809 33.8702 19.4579C33.8708 19.6263 33.8709 19.7946 33.871 19.9629C33.8713 20.0838 33.8717 20.2046 33.872 20.3255C33.8729 20.6536 33.8734 20.9817 33.8737 21.3098C33.8739 21.5149 33.8742 21.7201 33.8745 21.9252C33.8754 22.5676 33.8761 23.2099 33.8763 23.8522C33.8766 24.5928 33.8778 25.3334 33.8798 26.074C33.8813 26.647 33.882 27.22 33.8821 27.793C33.8821 28.135 33.8826 28.477 33.8838 28.819C33.8849 29.1409 33.885 29.4627 33.8844 29.7846C33.8844 29.9024 33.8847 30.0202 33.8854 30.138C33.8902 31.0362 33.8116 31.8047 33.2448 32.5394C32.6087 33.1659 31.9113 33.37 31.0431 33.3698C30.9795 33.37 30.9159 33.3703 30.8504 33.3705C30.6372 33.3713 30.424 33.3716 30.2108 33.3718C30.058 33.3722 29.9051 33.3727 29.7523 33.3732C29.2502 33.3746 28.7481 33.3753 28.246 33.376C28.073 33.3763 27.9 33.3766 27.7269 33.3769C27.0071 33.378 26.2872 33.379 25.5673 33.3795C25.3806 33.3796 25.194 33.3798 25.0073 33.3799C24.9377 33.3799 24.9377 33.3799 24.8667 33.38C24.1161 33.3806 23.3654 33.3823 22.6148 33.3845C21.843 33.3868 21.0712 33.388 20.2994 33.3882C19.8666 33.3884 19.4337 33.389 19.0008 33.3907C18.5932 33.3923 18.1857 33.3926 17.7781 33.3919C17.629 33.3919 17.4799 33.3923 17.3308 33.3932C15.3465 33.4051 15.3465 33.4051 14.5827 32.6761C14.1081 32.206 13.8252 31.6846 13.8206 31.0106C13.8206 30.9621 13.8206 30.9137 13.8206 30.8637C13.8204 30.8118 13.8201 30.7598 13.8199 30.7063C13.8191 30.5321 13.8189 30.3579 13.8186 30.1836C13.8182 30.0588 13.8177 29.9339 13.8172 29.809C13.8158 29.3988 13.8151 28.9885 13.8144 28.5783C13.8141 28.437 13.8139 28.2956 13.8136 28.1543C13.8123 27.4901 13.8113 26.826 13.8107 26.1618C13.8101 25.3958 13.8083 24.6298 13.8055 23.8638C13.8034 23.2713 13.8024 22.6789 13.8022 22.0864C13.802 21.7327 13.8014 21.3791 13.7997 21.0254C13.7981 20.6925 13.7978 20.3595 13.7985 20.0266C13.7986 19.9047 13.7981 19.7829 13.7972 19.661C13.7907 18.7683 13.8802 18.0413 14.5143 17.3636C15.1736 16.7545 15.8382 16.6012 16.7169 16.6021ZM15.6764 18.6625C15.2377 19.5398 15.5397 20.621 15.5397 21.6019C20.9989 21.6019 26.458 21.6019 32.0827 21.6019C32.3744 19.1287 32.3744 19.1287 31.7409 18.4574C31.5118 18.3428 31.2533 18.3789 31.0014 18.379C30.9382 18.3787 30.875 18.3785 30.8099 18.3782C30.5968 18.3774 30.3837 18.3772 30.1707 18.3769C30.0184 18.3765 29.8662 18.376 29.714 18.3756C29.2994 18.3744 28.8849 18.3736 28.4703 18.3731C28.2115 18.3727 27.9527 18.3723 27.6939 18.3719C26.9774 18.3707 26.2609 18.3697 25.5444 18.3692C25.3585 18.3691 25.1725 18.369 24.9865 18.3688C24.9403 18.3688 24.8941 18.3688 24.8465 18.3687C24.0977 18.3682 23.3489 18.3664 22.6002 18.3642C21.8316 18.362 21.063 18.3608 20.2943 18.3605C19.8627 18.3604 19.4311 18.3597 18.9995 18.358C18.5935 18.3564 18.1876 18.3561 17.7815 18.3568C17.6325 18.3569 17.4834 18.3564 17.3343 18.3555C17.1309 18.3543 16.9275 18.3548 16.7241 18.3557C16.6354 18.3546 16.6354 18.3546 16.545 18.3534C16.1791 18.3573 15.9625 18.4127 15.6764 18.6625ZM15.5397 23.3793C14.9302 27.6384 14.9302 27.6384 15.8131 31.4457C16.175 31.6869 16.5427 31.6607 16.9636 31.6599C17.0548 31.6601 17.0548 31.6601 17.1479 31.6603C17.3517 31.6608 17.5554 31.6607 17.7592 31.6607C17.9053 31.6609 18.0514 31.6611 18.1975 31.6614C18.5944 31.662 18.9912 31.6621 19.3881 31.6622C19.7194 31.6622 20.0507 31.6625 20.3819 31.6627C21.1634 31.6633 21.945 31.6635 22.7265 31.6634C23.5328 31.6634 24.3391 31.6641 25.1454 31.6652C25.8376 31.6661 26.5298 31.6664 27.222 31.6664C27.6355 31.6664 28.0489 31.6666 28.4623 31.6673C28.8512 31.6679 29.24 31.6679 29.6288 31.6675C29.7715 31.6674 29.9142 31.6675 30.0568 31.668C30.2517 31.6685 30.4465 31.6682 30.6414 31.6676C30.7259 31.6682 30.7259 31.6682 30.8121 31.6687C31.1427 31.6667 31.4316 31.6436 31.7409 31.514C33.4783 29.4291 32.0827 26.0932 32.0827 23.3793C26.6235 23.3793 21.1643 23.3793 15.5397 23.3793Z" fill="black"/>
<path d="M4.95968 1.63144C5.02327 1.63119 5.08686 1.63094 5.15238 1.63068C5.36557 1.62993 5.57877 1.62966 5.79197 1.6294C5.94481 1.62898 6.09765 1.62852 6.25048 1.62804C6.75258 1.62661 7.25467 1.6259 7.75677 1.62522C7.92979 1.62494 8.1028 1.62466 8.27581 1.62437C8.99571 1.62322 9.7156 1.62222 10.4355 1.62172C10.6221 1.62159 10.8088 1.62146 10.9955 1.62133C11.065 1.62128 11.065 1.62128 11.136 1.62123C11.8867 1.62066 12.6373 1.61893 13.388 1.61671C14.1597 1.61444 14.9315 1.61324 15.7033 1.613C16.1362 1.61284 16.5691 1.61223 17.0019 1.6105C17.4095 1.60891 17.8171 1.60862 18.2247 1.60933C18.3738 1.60936 18.5229 1.60893 18.672 1.60799C20.6562 1.59617 20.6562 1.59617 21.4201 2.3251C21.8349 2.73605 22.1546 3.23072 22.181 3.82636C22.1812 3.90582 22.1814 3.98528 22.1817 4.06714C22.182 4.13371 22.182 4.13371 22.1823 4.20162C22.1829 4.35018 22.183 4.49874 22.1831 4.6473C22.1834 4.75387 22.1837 4.86044 22.1841 4.96701C22.185 5.2564 22.1854 5.54579 22.1857 5.83519C22.1859 6.01598 22.1862 6.19677 22.1865 6.37756C22.1875 6.94319 22.1881 7.50883 22.1884 8.07446C22.1887 8.72748 22.1899 9.38048 22.1919 10.0335C22.1933 10.5383 22.194 11.0431 22.1941 11.5479C22.1942 11.8494 22.1946 12.1509 22.1958 12.4524C22.197 12.7359 22.1971 13.0194 22.1965 13.3029C22.1964 13.4069 22.1967 13.511 22.1974 13.615C22.1983 13.7571 22.1979 13.8991 22.1972 14.0412C22.1973 14.1207 22.1974 14.2001 22.1975 14.282C22.169 14.5187 22.1091 14.6452 21.967 14.8349C21.6679 15.032 21.4337 15.0844 21.0783 15.0399C20.7469 14.8678 20.6621 14.7564 20.4631 14.4247C20.4631 12.4396 20.4631 10.4544 20.4631 8.40908C15.0039 8.40908 9.54471 8.40908 3.9201 8.40908C3.26231 12.7371 3.26231 12.7371 4.2619 16.4755C4.41895 16.554 4.50754 16.5527 4.6822 16.5533C4.74161 16.5537 4.80103 16.554 4.86224 16.5544C4.92758 16.5545 4.99293 16.5546 5.06025 16.5546C5.12895 16.555 5.19765 16.5553 5.26844 16.5557C5.41801 16.5564 5.56759 16.557 5.71716 16.5575C5.9539 16.5583 6.19064 16.5596 6.42737 16.5611C7.10061 16.5653 7.77386 16.569 8.44711 16.5713C8.85859 16.5727 9.27007 16.5751 9.68154 16.5782C9.83842 16.5791 9.9953 16.5797 10.1522 16.58C10.3718 16.5803 10.5914 16.5819 10.811 16.5837C10.8758 16.5835 10.9406 16.5833 11.0073 16.5831C11.4471 16.5887 11.7396 16.6622 12.0805 16.9583C12.2435 17.2529 12.2521 17.5136 12.1916 17.8427C12.0761 18.0829 11.9202 18.2216 11.6745 18.3307C11.3678 18.4075 11.081 18.4092 10.766 18.4083C10.6993 18.4087 10.6325 18.409 10.5637 18.4094C10.3435 18.4103 10.1234 18.4103 9.90315 18.4101C9.74937 18.4104 9.59559 18.4107 9.44182 18.411C9.11945 18.4115 8.79708 18.4115 8.47471 18.4111C8.06329 18.4107 7.65188 18.4119 7.24046 18.4135C6.92271 18.4145 6.60497 18.4145 6.28721 18.4143C6.13563 18.4144 5.98406 18.4147 5.83248 18.4154C4.67132 18.4201 3.71205 18.4131 2.81353 17.5949C2.29838 17.0605 2.13479 16.4185 2.13316 15.6958C2.13295 15.6455 2.13275 15.5951 2.13254 15.5433C2.13195 15.375 2.13184 15.2066 2.13174 15.0383C2.13143 14.9174 2.13108 14.7966 2.13071 14.6758C2.12982 14.3477 2.12938 14.0195 2.12907 13.6914C2.12887 13.4863 2.12859 13.2811 2.12829 13.076C2.12735 12.4337 2.12669 11.7913 2.12643 11.149C2.12612 10.4084 2.12492 9.66782 2.12294 8.92722C2.12146 8.3542 2.12077 7.78119 2.12068 7.20818C2.12061 6.86621 2.12021 6.52424 2.11898 6.18227C2.11786 5.86037 2.11771 5.53848 2.11831 5.21658C2.11836 5.09881 2.11807 4.98103 2.11739 4.86326C2.11253 3.96506 2.1912 3.19654 2.75799 2.46182C3.39403 1.83536 4.0915 1.63126 4.95968 1.63144ZM4.2619 3.48721C3.62835 4.15848 3.62835 4.15848 3.9201 6.63174C9.37928 6.63174 14.8385 6.63174 20.4631 6.63174C20.7095 4.25328 20.7095 4.25327 20.1896 3.55557C19.8277 3.3143 19.46 3.34056 19.0391 3.34135C18.9783 3.34119 18.9175 3.34104 18.8549 3.34088C18.6511 3.34045 18.4473 3.3405 18.2436 3.34056C18.0975 3.34035 17.9514 3.34012 17.8053 3.33986C17.4084 3.33926 17.0115 3.3391 16.6146 3.33905C16.2834 3.33899 15.9521 3.33874 15.6208 3.3385C14.8393 3.33794 14.0578 3.33777 13.2763 3.33782C12.47 3.33786 11.6637 3.33714 10.8573 3.33606C10.1651 3.33517 9.47295 3.3348 8.78076 3.33484C8.36731 3.33486 7.95386 3.33467 7.54041 3.33394C7.15158 3.33328 6.76275 3.33328 6.37392 3.33377C6.23125 3.33385 6.08859 3.33368 5.94593 3.33327C5.75108 3.33274 5.55625 3.33306 5.36141 3.33359C5.30505 3.33324 5.24869 3.33288 5.19063 3.33252C4.86007 3.3345 4.57119 3.35761 4.2619 3.48721Z" fill="black"/>
<path d="M28.3904 0.000388108C28.6319 0.138363 28.787 0.279155 28.8689 0.547263C28.8999 0.937348 28.8851 1.10743 28.6639 1.43594C28.5291 1.58833 28.3852 1.73056 28.2401 1.87306C28.1994 1.91354 28.1587 1.95403 28.1168 1.99574C27.9876 2.1242 27.8579 2.25218 27.7282 2.38015C27.6402 2.46748 27.5522 2.55484 27.4642 2.64224C27.2492 2.85574 27.0338 3.0688 26.8182 3.28164C26.8616 3.28189 26.905 3.28214 26.9497 3.28239C27.4056 3.28527 27.8614 3.29003 28.3173 3.29582C28.4869 3.29774 28.6566 3.2992 28.8262 3.30016C29.0715 3.30164 29.3167 3.30484 29.5619 3.30834C29.6739 3.30847 29.6739 3.30847 29.7881 3.3086C30.9321 3.32987 31.906 3.79125 32.7155 4.58581C33.5466 5.47513 33.8811 6.59009 33.878 7.78394C33.8783 7.85473 33.8787 7.92551 33.879 7.99844C33.88 8.23022 33.8799 8.46199 33.8797 8.69378C33.88 8.85581 33.8803 9.01784 33.8806 9.17987C33.8811 9.51842 33.8811 9.85697 33.8808 10.1955C33.8804 10.6292 33.8815 11.0629 33.8831 11.4965C33.8841 11.8307 33.8842 12.1648 33.884 12.499C33.884 12.6589 33.8844 12.8188 33.885 12.9788C33.8859 13.2021 33.8854 13.4254 33.8846 13.6487C33.8852 13.7145 33.8857 13.7804 33.8862 13.8482C33.8834 14.2054 33.8567 14.4585 33.6541 14.766C33.4323 14.9575 33.2962 15.0329 33.0047 15.0694C32.6826 15.0291 32.4588 14.9414 32.2314 14.7062C32.0299 14.3457 32.0723 13.929 32.0732 13.5282C32.0731 13.4588 32.073 13.3894 32.0728 13.3179C32.0726 13.1673 32.0724 13.0167 32.0724 12.8661C32.0722 12.5452 32.0707 12.2243 32.0693 11.9034C32.0667 11.3063 32.0646 10.7091 32.0647 10.112C32.0648 9.6963 32.0632 9.28061 32.0605 8.8649C32.0598 8.70703 32.0597 8.54915 32.0602 8.39128C32.0767 6.9767 32.0767 6.9767 31.3844 5.77862C30.7549 5.24357 30.1529 5.10563 29.3499 5.11399C29.2792 5.11418 29.2086 5.11438 29.1358 5.11458C28.9116 5.11534 28.6873 5.11705 28.4631 5.1188C28.3105 5.11948 28.1579 5.12011 28.0052 5.12067C27.6323 5.12217 27.2594 5.12445 26.8865 5.12734C26.9417 5.18182 26.9969 5.2363 27.0538 5.29243C27.2587 5.4949 27.4632 5.69783 27.6676 5.90089C27.7561 5.98867 27.8446 6.07632 27.9333 6.16385C28.0609 6.28977 28.1881 6.41614 28.3151 6.54259C28.3746 6.60104 28.3746 6.60104 28.4353 6.66066C28.7237 6.94894 28.8581 7.10917 28.8903 7.51565C28.8821 7.77558 28.834 7.93096 28.6639 8.13515C28.4395 8.32383 28.3025 8.4026 28.0102 8.4385C27.5934 8.38546 27.3588 8.14597 27.0694 7.85609C27.0348 7.82161 27.0002 7.78713 26.9645 7.7516C26.8509 7.6383 26.7379 7.52452 26.6248 7.4107C26.5458 7.3316 26.4668 7.25253 26.3877 7.17348C26.2225 7.00814 26.0575 6.84257 25.8926 6.67683C25.6811 6.46415 25.4692 6.25192 25.257 6.03985C25.094 5.87679 24.9311 5.71354 24.7683 5.55024C24.6902 5.47189 24.612 5.39359 24.5338 5.31533C24.4248 5.20619 24.3161 5.09683 24.2074 4.9874C24.1454 4.92517 24.0834 4.86295 24.0196 4.79884C23.8327 4.59978 23.7976 4.4883 23.789 4.22158C23.7864 4.17047 23.7839 4.11936 23.7812 4.0667C23.8475 3.6803 24.1584 3.3951 24.4264 3.12748C24.4762 3.07755 24.4762 3.07755 24.5269 3.02661C24.6354 2.91786 24.7444 2.80962 24.8534 2.70138C24.9293 2.62553 25.0052 2.54965 25.0811 2.47374C25.2396 2.31535 25.3983 2.1572 25.5572 1.99922C25.7611 1.79652 25.9645 1.59336 26.1678 1.39005C26.3242 1.23363 26.4808 1.07739 26.6375 0.921213C26.7126 0.846328 26.7877 0.771401 26.8627 0.696432C26.9672 0.592034 27.072 0.487864 27.1768 0.383758C27.2364 0.324427 27.296 0.265096 27.3574 0.203967C27.6559 -0.075616 27.9994 -0.0408588 28.3904 0.000388108Z" fill="black"/>
<path d="M3.23797 19.96C3.51991 20.0684 3.70431 20.172 3.85321 20.4385C3.94891 20.7766 3.93094 21.1229 3.93018 21.4712C3.93031 21.5406 3.93043 21.6101 3.93056 21.6816C3.93084 21.8321 3.93098 21.9827 3.93101 22.1333C3.93124 22.4542 3.9327 22.7751 3.9341 23.096C3.93669 23.6932 3.93883 24.2903 3.93869 24.8874C3.93864 25.3031 3.94024 25.7188 3.94292 26.1345C3.94363 26.2924 3.94374 26.4503 3.94322 26.6081C3.92668 28.0227 3.92668 28.0227 4.61905 29.2208C5.24853 29.7559 5.8505 29.8938 6.65354 29.8854C6.72417 29.8852 6.79481 29.885 6.86759 29.8848C7.09185 29.8841 7.31609 29.8824 7.54034 29.8806C7.69295 29.8799 7.84555 29.8793 7.99816 29.8788C8.37107 29.8773 8.74397 29.875 9.11688 29.8721C9.06168 29.8176 9.00649 29.7631 8.94962 29.707C8.74467 29.5045 8.54018 29.3016 8.33582 29.0985C8.24736 29.0108 8.15877 28.9231 8.07006 28.8356C7.94247 28.7096 7.81533 28.5833 7.68827 28.4568C7.64861 28.4179 7.60894 28.3789 7.56807 28.3388C7.27971 28.0505 7.14535 27.8902 7.11309 27.4838C7.12129 27.2238 7.16937 27.0685 7.33953 26.8643C7.56391 26.6756 7.70089 26.5968 7.99322 26.5609C8.40997 26.614 8.6446 26.8535 8.93403 27.1433C8.96864 27.1778 9.00325 27.2123 9.03891 27.2478C9.15247 27.3611 9.26552 27.4749 9.37857 27.5887C9.45759 27.6678 9.53663 27.7469 9.6157 27.8259C9.78093 27.9913 9.94593 28.1569 10.1108 28.3226C10.3223 28.5353 10.5342 28.7475 10.7464 28.9596C10.9094 29.1226 11.0723 29.2859 11.2351 29.4492C11.3132 29.5275 11.3914 29.6058 11.4696 29.6841C11.5786 29.7932 11.6873 29.9026 11.796 30.012C11.889 30.1054 11.889 30.1054 11.9838 30.2006C12.1707 30.3996 12.2058 30.5111 12.2144 30.7778C12.2182 30.8545 12.2182 30.8545 12.2222 30.9327C12.1559 31.3191 11.845 31.6043 11.577 31.8719C11.5438 31.9052 11.5107 31.9385 11.4765 31.9728C11.368 32.0816 11.259 32.1898 11.15 32.298C11.0741 32.3739 10.9982 32.4498 10.9223 32.5257C10.7638 32.6841 10.6051 32.8422 10.4462 33.0002C10.2423 33.2029 10.0389 33.4061 9.83565 33.6094C9.67921 33.7658 9.5226 33.922 9.36592 34.0782C9.29082 34.1531 9.21575 34.228 9.14074 34.303C9.03619 34.4074 8.93142 34.5116 8.82658 34.6157C8.76699 34.675 8.7074 34.7343 8.646 34.7955C8.38057 35.0441 8.14937 35.0217 7.79776 35.0185C7.54839 34.9922 7.43365 34.9143 7.27118 34.7256C7.11414 34.5162 7.11628 34.3062 7.10962 34.0487C7.17734 33.6577 7.4927 33.3921 7.76331 33.1264C7.80399 33.0859 7.84466 33.0454 7.88657 33.0037C8.0158 32.8752 8.14549 32.7472 8.2752 32.6193C8.36322 32.5319 8.45121 32.4446 8.53916 32.3572C8.75416 32.1437 8.96958 31.9306 9.18524 31.7178C9.14237 31.7174 9.09951 31.717 9.05535 31.7166C8.60615 31.7122 8.15699 31.7064 7.70782 31.6998C7.54055 31.6976 7.37328 31.6957 7.206 31.6941C6.9645 31.6918 6.72305 31.6882 6.48157 31.6844C6.4077 31.684 6.33382 31.6835 6.25771 31.6831C5.11302 31.6613 4.08682 31.2194 3.2807 30.4112C2.46117 29.51 2.12234 28.4133 2.12545 27.2155C2.1251 27.1447 2.12475 27.0739 2.12439 27.001C2.12344 26.7692 2.1235 26.5374 2.12366 26.3056C2.12339 26.1436 2.1231 25.9816 2.12277 25.8195C2.12226 25.481 2.12228 25.1425 2.12264 24.8039C2.12304 24.3702 2.12188 23.9366 2.1203 23.5029C2.11929 23.1687 2.11923 22.8346 2.11944 22.5004C2.11941 22.3405 2.11905 22.1806 2.11836 22.0206C2.11752 21.7973 2.11798 21.574 2.11877 21.3507C2.11825 21.2849 2.11773 21.219 2.11719 21.1512C2.11999 20.794 2.14669 20.5409 2.3493 20.2334C2.64475 19.9782 2.8505 19.9115 3.23797 19.96Z" fill="black"/>
</g>
<defs>
<clipPath id="clip0_6032_49991">
<rect width="35" height="35" fill="white" transform="translate(0.5)"/>
</clipPath>
</defs>
</svg>
