<svg width="36" height="35" viewBox="0 0 36 35" fill="none" xmlns="http://www.w3.org/2000/svg">
<path d="M4.81498 7.92097C4.89078 7.92067 4.96658 7.92036 5.04469 7.92005C5.12796 7.92006 5.21123 7.92007 5.29703 7.92009C5.42974 7.91971 5.42974 7.91971 5.56513 7.91932C5.81091 7.91864 6.05669 7.91838 6.30247 7.9182C6.56749 7.91794 6.8325 7.91728 7.09752 7.91668C7.73766 7.91533 8.37781 7.91465 9.01796 7.91404C9.3195 7.91374 9.62105 7.91337 9.9226 7.91301C10.9252 7.91185 11.9278 7.91086 12.9304 7.91036C13.1905 7.91023 13.4507 7.9101 13.7109 7.90997C13.8078 7.90992 13.8078 7.90992 13.9068 7.90987C14.9539 7.9093 16.001 7.90757 17.0482 7.90535C18.1235 7.90309 19.1989 7.90186 20.2743 7.90164C20.8779 7.90149 21.4816 7.90089 22.0852 7.89915C22.5994 7.89766 23.1136 7.89711 23.6277 7.89778C23.8899 7.89809 24.1521 7.89796 24.4143 7.89663C24.699 7.8952 24.9836 7.8959 25.2684 7.8968C25.3917 7.89568 25.3917 7.89568 25.5175 7.89453C26.4085 7.90131 27.0045 8.19392 27.6605 8.77182C28.5896 9.8232 28.5446 10.932 28.5331 12.2659C28.5326 12.4409 28.5322 12.6159 28.532 12.7908C28.531 13.2022 28.5289 13.6134 28.5261 14.0247C28.5231 14.4936 28.5216 14.9625 28.5202 15.4313C28.5173 16.3945 28.5126 17.3576 28.5064 18.3208C28.5683 18.3201 28.5683 18.3201 28.6314 18.3193C28.686 18.319 28.7407 18.3186 28.797 18.3182C28.8509 18.3178 28.9048 18.3173 28.9604 18.3168C30.4273 18.3529 31.7951 19.2456 32.7925 20.2491C33.9737 21.4948 34.4324 23.0663 34.4174 24.7496C34.3701 26.5133 33.6295 27.9891 32.3506 29.2019C31.3121 30.139 29.9011 30.7042 28.5064 30.7622C28.4577 30.7657 28.409 30.7692 28.3588 30.7729C26.6772 30.8421 25.1034 30.1652 23.8673 29.0556C23.3364 28.5557 22.9238 27.9799 22.5933 27.3314C22.5719 27.2893 22.5504 27.2471 22.5282 27.2037C22.4036 26.9432 22.3188 26.683 22.2445 26.4039C22.2265 26.3366 22.2085 26.2694 22.1899 26.2001C22.1764 26.149 22.1629 26.098 22.149 26.0454C22.1118 26.0455 22.0747 26.0456 22.0364 26.0457C19.8312 26.0518 17.626 26.0565 15.4208 26.0593C15.1559 26.0597 14.8909 26.06 14.6259 26.0604C14.5731 26.0605 14.5204 26.0605 14.466 26.0606C13.6127 26.0618 12.7594 26.064 11.9061 26.0665C11.0301 26.069 10.154 26.0706 9.27794 26.0711C8.73768 26.0715 8.19744 26.0727 7.65719 26.0749C7.2424 26.0765 6.82763 26.0767 6.41283 26.0763C6.24306 26.0764 6.07328 26.0769 5.90351 26.078C5.67116 26.0793 5.43887 26.079 5.20652 26.0783C5.13982 26.0791 5.07312 26.0799 5.0044 26.0807C4.20609 26.0738 3.51223 25.765 2.92908 25.2251C2.3675 24.6372 2.10946 23.9855 2.10966 23.1821C2.10941 23.1274 2.10915 23.0727 2.1089 23.0163C2.10814 22.8328 2.10788 22.6493 2.10762 22.4658C2.10719 22.3343 2.10674 22.2028 2.10626 22.0714C2.10482 21.6392 2.10411 21.2071 2.10343 20.775C2.10315 20.6262 2.10287 20.4773 2.10258 20.3284C2.10128 19.6288 2.10031 18.9292 2.09974 18.2297C2.09907 17.4228 2.09727 16.616 2.09451 15.8091C2.09245 15.1851 2.09144 14.5611 2.09121 13.937C2.09105 13.5645 2.09044 13.192 2.08872 12.8195C2.08712 12.4688 2.08684 12.118 2.08754 11.7673C2.08757 11.639 2.08714 11.5106 2.0862 11.3823C2.07907 10.3511 2.21221 9.52562 2.94003 8.73951C3.45983 8.24292 4.09028 7.92232 4.81498 7.92097ZM4.03378 10.1176C3.46515 11.0392 3.76034 12.5163 3.76034 13.3989C11.3626 13.3989 18.9648 13.3989 26.7975 13.3989C27.0064 10.9121 27.0064 10.9121 26.524 10.0493C26.3844 9.90577 26.3844 9.90577 26.2249 9.8143C26.1501 9.76579 26.1501 9.76579 26.0738 9.7163C25.6405 9.51369 25.1452 9.56081 24.6775 9.56117C24.5524 9.56087 24.5524 9.56087 24.4248 9.56055C24.1939 9.56006 23.963 9.55988 23.732 9.55983C23.4828 9.5597 23.2335 9.55919 22.9842 9.55873C22.4395 9.5578 21.8947 9.55739 21.35 9.55709C21.0097 9.5569 20.6695 9.55661 20.3292 9.5563C19.3868 9.55547 18.4443 9.55476 17.5019 9.55453C17.4416 9.55452 17.3813 9.5545 17.3192 9.55449C17.2588 9.55447 17.1984 9.55446 17.1361 9.55444C17.0137 9.55441 16.8912 9.55438 16.7688 9.55435C16.7081 9.55433 16.6473 9.55432 16.5848 9.5543C15.6005 9.55403 14.6163 9.55284 13.6321 9.55125C12.6212 9.54963 11.6102 9.54877 10.5993 9.54869C10.0318 9.54863 9.46441 9.54824 8.89699 9.547C8.41386 9.54594 7.93075 9.5456 7.44762 9.54616C7.20125 9.54643 6.95488 9.54636 6.7085 9.5454C6.44111 9.54437 6.17374 9.54494 5.90636 9.54565C5.8289 9.5451 5.75144 9.54455 5.67164 9.54398C5.02512 9.54802 4.49639 9.64402 4.03378 10.1176ZM3.76034 15.1079C2.95823 19.8963 2.95823 19.8963 4.10214 23.9519C4.13739 23.9947 4.17264 24.0375 4.20895 24.0816C4.67067 24.4087 5.23475 24.4346 5.78239 24.4294C5.85192 24.4296 5.92145 24.4298 5.9931 24.4299C6.22432 24.4303 6.45552 24.4292 6.68675 24.428C6.8532 24.428 7.01965 24.428 7.1861 24.4281C7.54355 24.4282 7.90099 24.4276 8.25844 24.4264C8.77523 24.4248 9.29203 24.4242 9.80883 24.424C10.6475 24.4235 11.4861 24.4222 12.3247 24.4202C13.139 24.4183 13.9533 24.4169 14.7675 24.416C14.8178 24.416 14.868 24.4159 14.9198 24.4159C15.172 24.4156 15.4241 24.4153 15.6762 24.4151C17.7655 24.413 19.8547 24.4093 21.9439 24.4048C21.957 24.3172 21.97 24.2296 21.9834 24.1394C22.0012 24.0225 22.019 23.9056 22.0369 23.7887C22.0454 23.7312 22.0538 23.6738 22.0626 23.6146C22.2457 22.4253 22.7265 21.3477 23.5162 20.4399C23.5698 20.3694 23.6234 20.2989 23.6786 20.2263C24.5152 19.31 25.6244 18.7926 26.7975 18.4575C26.7975 17.3521 26.7975 16.2467 26.7975 15.1079C19.1952 15.1079 11.593 15.1079 3.76034 15.1079ZM24.9779 21.2893C24.2344 22.0926 23.74 23.1011 23.6529 24.1997C23.6492 24.2436 23.6455 24.2874 23.6417 24.3327C23.5921 25.518 24.0472 26.6529 24.8166 27.5426C25.6245 28.4 26.7035 28.974 27.8912 29.0532C27.9353 29.0567 27.9795 29.0602 28.025 29.0639C29.1293 29.113 30.1787 28.6972 31.0357 28.0278C31.0827 27.9929 31.1297 27.958 31.1781 27.9221C31.9704 27.2907 32.5003 26.2816 32.6764 25.2934C32.8163 23.7995 32.5123 22.6185 31.5612 21.4439C30.7003 20.5187 29.516 20.0267 28.2704 19.9614C27.033 19.9614 25.8741 20.4407 24.9779 21.2893Z" fill="black"/>
<path d="M30.8879 22.2931C31.1117 22.4906 31.223 22.6739 31.2521 22.9756C31.2415 23.2822 31.1732 23.4727 30.9658 23.6992C30.9226 23.7466 30.8793 23.7939 30.8348 23.8427C30.5775 24.1133 30.3156 24.3789 30.0513 24.6426C29.9916 24.7024 29.9319 24.7622 29.8704 24.8237C29.7452 24.949 29.6199 25.0742 29.4945 25.1992C29.366 25.3275 29.2375 25.4559 29.1092 25.5845C28.9236 25.7706 28.7376 25.9565 28.5516 26.1423C28.494 26.2 28.4364 26.2578 28.3771 26.3173C28.2973 26.3967 28.2973 26.3967 28.2159 26.4778C28.1457 26.5479 28.1457 26.5479 28.074 26.6195C27.8884 26.7913 27.7517 26.8135 27.5041 26.8261C27.4482 26.8303 27.3923 26.8344 27.3348 26.8387C26.7767 26.7191 26.3391 26.1563 25.9532 25.7666C25.8987 25.7126 25.8442 25.6586 25.788 25.603C25.7356 25.5504 25.6832 25.4979 25.6293 25.4437C25.5588 25.373 25.5588 25.373 25.4869 25.3008C25.229 25.0072 25.1189 24.7842 25.1342 24.3986C25.1773 24.1152 25.3486 23.8999 25.5644 23.7201C25.8118 23.6376 25.9877 23.6296 26.248 23.6517C26.5638 23.8348 26.8086 24.0581 27.0597 24.3182C27.0938 24.3528 27.1278 24.3875 27.1628 24.4231C27.2456 24.5075 27.3279 24.5922 27.4101 24.6771C27.7383 24.404 28.0456 24.1178 28.3444 23.813C28.4288 23.7277 28.5133 23.6424 28.5977 23.5572C28.7288 23.4244 28.8597 23.2915 28.9905 23.1584C29.1181 23.0288 29.2461 22.8996 29.3741 22.7705C29.413 22.7306 29.452 22.6907 29.4921 22.6497C29.9101 22.2291 30.3134 22.0683 30.8879 22.2931Z" fill="black"/>
<path d="M7.27199 18.8533C7.31603 18.8528 7.36007 18.8524 7.40545 18.8519C7.55106 18.8506 7.69667 18.8498 7.84228 18.8491C7.91702 18.8487 7.91702 18.8487 7.99328 18.8482C8.25703 18.8468 8.52078 18.8458 8.78454 18.8452C9.05647 18.8444 9.32837 18.8421 9.60029 18.8394C9.80983 18.8376 10.0194 18.837 10.2289 18.8368C10.3291 18.8364 10.4293 18.8356 10.5295 18.8344C10.6701 18.8327 10.8106 18.8328 10.9511 18.8332C11.0309 18.8328 11.1108 18.8324 11.193 18.832C11.5266 18.8822 11.7428 19.0374 11.9532 19.2969C12.086 19.6142 12.0658 19.8615 11.9489 20.1813C11.8075 20.3958 11.7133 20.4636 11.4832 20.5744C11.2658 20.6009 11.2658 20.6009 11.0179 20.602C10.9725 20.6024 10.9271 20.6029 10.8804 20.6034C10.7311 20.6046 10.5818 20.6044 10.4325 20.604C10.3282 20.6043 10.2239 20.6047 10.1196 20.6051C9.90131 20.6057 9.68303 20.6055 9.46473 20.6048C9.18559 20.6041 8.90651 20.6054 8.62738 20.6074C8.41209 20.6087 8.19681 20.6087 7.98152 20.6083C7.87863 20.6083 7.77575 20.6087 7.67287 20.6095C7.52872 20.6106 7.38469 20.6098 7.24055 20.6087C7.15869 20.6086 7.07684 20.6086 6.99251 20.6086C6.71988 20.5673 6.57107 20.4705 6.35626 20.3009C6.1977 20.0672 6.18327 19.848 6.1883 19.5711C6.24273 19.2944 6.41522 19.1091 6.6297 18.9337C6.85784 18.8577 7.03157 18.8553 7.27199 18.8533Z" fill="black"/>
</svg>
