<svg width="36" height="35" viewBox="0 0 36 35" fill="none" xmlns="http://www.w3.org/2000/svg">
<g clip-path="url(#clip0_6032_50018)">
<path d="M9.45546 13.8609C9.52916 13.8606 9.60287 13.8603 9.67881 13.8601C9.92583 13.8594 10.1728 13.8596 10.4198 13.8599C10.5969 13.8596 10.774 13.8592 10.9511 13.8588C11.3822 13.858 11.8133 13.8578 12.2443 13.858C12.5948 13.8581 12.9452 13.858 13.2956 13.8577C13.3455 13.8577 13.3954 13.8576 13.4468 13.8576C13.5482 13.8575 13.6495 13.8574 13.7509 13.8573C14.7012 13.8566 15.6515 13.8567 16.6018 13.8572C17.471 13.8575 18.3401 13.8567 19.2093 13.8554C20.102 13.8541 20.9948 13.8536 21.8876 13.8538C22.3886 13.8539 22.8897 13.8538 23.3908 13.8528C23.862 13.8519 24.3331 13.8521 24.8043 13.853C24.9772 13.8531 25.1502 13.8529 25.3232 13.8524C25.5592 13.8517 25.7952 13.8522 26.0312 13.8531C26.0997 13.8526 26.1683 13.8521 26.2389 13.8516C26.681 13.855 27.0306 13.9003 27.3813 14.194C27.4125 14.2324 27.4438 14.2707 27.4761 14.3102C27.5243 14.3669 27.5243 14.3669 27.5735 14.4247C27.775 14.7459 27.8136 15.0609 27.8139 15.4338C27.8141 15.4784 27.8143 15.5231 27.8145 15.5691C27.815 15.7179 27.8146 15.8667 27.8142 16.0154C27.8144 16.1225 27.8146 16.2295 27.8149 16.3365C27.8155 16.6266 27.8153 16.9167 27.8149 17.2069C27.8145 17.5108 27.8148 17.8147 27.815 18.1187C27.8153 18.6292 27.815 19.1396 27.8143 19.6501C27.8136 20.2397 27.8138 20.8293 27.8146 21.4189C27.8152 21.9256 27.8153 22.4323 27.8149 22.939C27.8147 23.2415 27.8147 23.5439 27.8151 23.8463C27.8155 24.1307 27.8152 24.4151 27.8145 24.6995C27.8143 24.8037 27.8143 24.9079 27.8146 25.0121C27.815 25.1547 27.8145 25.2973 27.8139 25.4399C27.8138 25.5594 27.8138 25.5594 27.8137 25.6814C27.7782 26.1523 27.6529 26.4637 27.318 26.7986C27.0148 26.9807 26.7917 27.0294 26.4399 27.0297C26.3945 27.03 26.3492 27.0304 26.3024 27.0307C26.1513 27.0315 26.0002 27.0309 25.849 27.0302C25.7403 27.0305 25.6316 27.0309 25.5229 27.0313C25.2282 27.0322 24.9336 27.0319 24.639 27.0312C24.3306 27.0307 24.0222 27.0312 23.7138 27.0315C23.196 27.0319 22.6782 27.0314 22.1605 27.0304C21.5618 27.0293 20.9631 27.0297 20.3644 27.0308C19.8503 27.0317 19.3361 27.0318 18.822 27.0313C18.5149 27.031 18.2079 27.0309 17.9009 27.0316C17.6124 27.0322 17.3239 27.0318 17.0353 27.0306C16.9294 27.0303 16.8235 27.0304 16.7175 27.0309C16.5731 27.0314 16.4286 27.0307 16.2841 27.0297C16.1628 27.0296 16.1628 27.0296 16.039 27.0295C15.8126 27.001 15.7187 26.9606 15.5602 26.7986C15.4918 26.5679 15.4918 26.5679 15.4918 26.3201C15.6126 26.1285 15.699 26.0114 15.902 25.9099C16.0855 25.9036 16.2673 25.9013 16.4509 25.9022C16.5076 25.9022 16.5643 25.9021 16.6227 25.9021C16.8106 25.9022 16.9985 25.9027 17.1864 25.9032C17.3164 25.9034 17.4465 25.9035 17.5766 25.9035C17.9194 25.9038 18.2621 25.9045 18.6049 25.9052C19.0159 25.906 19.427 25.9064 19.838 25.9068C20.4629 25.9074 21.0877 25.9087 21.7125 25.9099C21.7125 25.0076 21.7125 24.1052 21.7125 23.1755C17.4489 23.1755 13.1854 23.1755 8.79258 23.1755C8.81514 24.0779 8.8377 24.9802 8.86094 25.9099C9.24188 25.9067 9.62282 25.9036 10.0153 25.9003C10.2567 25.8989 10.4982 25.8976 10.7396 25.8966C11.1228 25.8949 11.5059 25.893 11.8891 25.8893C12.198 25.8863 12.507 25.8847 12.8159 25.884C12.9337 25.8835 13.0515 25.8825 13.1694 25.881C13.3345 25.879 13.4996 25.8788 13.6647 25.8789C13.7133 25.8779 13.762 25.8769 13.8121 25.8759C14.0571 25.8779 14.1863 25.9056 14.3942 26.04C14.5348 26.1834 14.5348 26.1834 14.5778 26.3201C14.5755 26.3878 14.5755 26.3878 14.5732 26.4568C14.5733 26.5019 14.5734 26.547 14.5735 26.5935C14.5156 26.7979 14.4292 26.8735 14.2613 27.0037C14.0713 27.031 13.9081 27.0418 13.7181 27.0401C13.6636 27.0407 13.6091 27.0413 13.553 27.0419C13.3729 27.0435 13.1928 27.043 13.0127 27.0424C12.8872 27.0427 12.7617 27.0432 12.6362 27.0437C12.373 27.0444 12.1098 27.0441 11.8466 27.0431C11.5102 27.0419 11.1739 27.0435 10.8376 27.0459C10.5782 27.0474 10.3189 27.0473 10.0596 27.0467C9.93563 27.0467 9.81168 27.0472 9.68774 27.0482C8.48429 27.0565 8.48429 27.0565 8.04063 26.6619C7.72417 26.2724 7.69048 25.9469 7.68923 25.4573C7.68903 25.4127 7.68883 25.3681 7.68862 25.3222C7.68803 25.1734 7.68792 25.0246 7.68782 24.8758C7.6875 24.7688 7.68716 24.6619 7.68679 24.555C7.68589 24.2649 7.68545 23.9748 7.68515 23.6847C7.68495 23.5033 7.68467 23.3219 7.68436 23.1405C7.68343 22.5727 7.68277 22.0048 7.6825 21.437C7.6822 20.7821 7.681 20.1273 7.67902 19.4725C7.67754 18.9658 7.67685 18.4592 7.67676 17.9525C7.67669 17.6501 7.67628 17.3478 7.67506 17.0454C7.67393 16.7608 7.67379 16.4763 7.67439 16.1918C7.67444 16.0876 7.67414 15.9835 7.67347 15.8793C7.66668 14.7698 7.66668 14.7698 7.99924 14.2872C8.03123 14.2567 8.06321 14.2262 8.09617 14.1948C8.12763 14.1633 8.15909 14.1317 8.1915 14.0992C8.57844 13.8345 9.00659 13.8592 9.45546 13.8609ZM8.79258 15.1091C8.79258 15.9889 8.79258 16.8687 8.79258 17.7752C13.0562 17.7752 17.3197 17.7752 21.7125 17.7752C21.7125 16.8503 21.7125 15.9254 21.7125 14.9724C20.0481 14.9693 18.3838 14.9668 16.7194 14.9653C15.9467 14.9646 15.1739 14.9637 14.4012 14.9621C13.7279 14.9607 13.0546 14.9599 12.3813 14.9596C12.0246 14.9594 11.6679 14.959 11.3112 14.958C10.9757 14.957 10.6403 14.9568 10.3049 14.957C10.1815 14.9569 10.0581 14.9566 9.9347 14.9561C9.76681 14.9554 9.59894 14.9556 9.43104 14.956C9.3817 14.9556 9.33236 14.9552 9.28153 14.9548C9.00646 14.9487 9.00646 14.9487 8.79258 15.1091ZM22.8063 14.9724C22.8063 15.8973 22.8063 16.8222 22.8063 17.7752C24.0921 17.7752 25.3779 17.7752 26.7027 17.7752C26.7056 17.3381 26.7084 16.901 26.7113 16.4507C26.7125 16.3128 26.7138 16.1748 26.7151 16.0327C26.7155 15.9237 26.7158 15.8147 26.7161 15.7057C26.7171 15.6204 26.7171 15.6204 26.7182 15.5334C26.7183 15.3919 26.7112 15.2504 26.7027 15.1091C26.5792 14.9569 26.5792 14.9569 26.4068 14.956C26.3071 14.9564 26.3071 14.9564 26.2054 14.9569C26.0925 14.9569 26.0925 14.9569 25.9773 14.9569C25.855 14.958 25.855 14.958 25.7302 14.9591C25.647 14.9593 25.5637 14.9595 25.4779 14.9597C25.2111 14.9604 24.9444 14.9621 24.6776 14.9639C24.4971 14.9646 24.3166 14.9652 24.1361 14.9657C23.6928 14.9671 23.2495 14.9698 22.8063 14.9724ZM8.79258 18.8689C8.79258 19.9292 8.79258 20.9894 8.79258 22.0818C13.0562 22.0818 17.3197 22.0818 21.7125 22.0818C21.7125 21.0215 21.7125 19.9613 21.7125 18.8689C17.4489 18.8689 13.1854 18.8689 8.79258 18.8689ZM22.8063 18.8689C22.8063 19.9292 22.8063 20.9894 22.8063 22.0818C24.0921 22.0818 25.3779 22.0818 26.7027 22.0818C26.7027 21.0215 26.7027 19.9613 26.7027 18.8689C25.4169 18.8689 24.1311 18.8689 22.8063 18.8689ZM22.8063 23.1755C22.8063 24.0779 22.8063 24.9802 22.8063 25.9099C24.0695 25.9099 25.3328 25.9099 26.6344 25.9099C26.7465 25.6857 26.711 25.4379 26.7094 25.1916C26.7093 25.1407 26.7093 25.0898 26.7092 25.0373C26.7088 24.8468 26.7079 24.6563 26.707 24.4658C26.7056 24.04 26.7042 23.6142 26.7027 23.1755C25.4169 23.1755 24.1311 23.1755 22.8063 23.1755Z" fill="black"/>
<path d="M6.62039 -0.045436C6.71828 -0.0456668 6.81617 -0.045999 6.91406 -0.0464269C7.11762 -0.046927 7.32114 -0.0462104 7.5247 -0.0446016C7.78531 -0.0426417 8.04581 -0.0437854 8.30642 -0.0458226C8.50787 -0.0470576 8.70929 -0.0466649 8.91074 -0.0457789C9.00687 -0.0455515 9.103 -0.0458287 9.19912 -0.0466264C9.33306 -0.0474955 9.46701 -0.0459357 9.60094 -0.0442678C9.71503 -0.0438599 9.71503 -0.0438599 9.83143 -0.0434437C10.0279 -4.11207e-05 10.0279 -4.1123e-05 10.1916 0.158134C10.3014 0.341756 10.3014 0.341756 10.2971 0.589559C10.2331 0.820109 10.2137 0.888398 10.0279 1.02535C9.85949 1.05123 9.85949 1.05123 9.65674 1.05165C9.58073 1.05234 9.50472 1.05303 9.42641 1.05375C9.30304 1.05344 9.30304 1.05344 9.17719 1.05312C9.09245 1.05386 9.00771 1.0546 8.92041 1.05537C8.64871 1.05771 8.37703 1.05882 8.10533 1.05953C7.7491 1.06047 7.3929 1.06284 7.03668 1.06594C6.95527 1.06573 6.87386 1.06552 6.78998 1.06531C6.04918 1.06777 6.04918 1.06777 5.40574 1.39561C5.11756 1.7254 5.09606 2.00678 5.09708 2.42493C5.09694 2.47768 5.0968 2.53042 5.09666 2.58476C5.09627 2.76295 5.09637 2.94114 5.09646 3.11933C5.09629 3.24779 5.09608 3.37625 5.09585 3.50472C5.0953 3.85887 5.09517 4.21302 5.09512 4.56717C5.095 4.94868 5.09448 5.33019 5.09402 5.71169C5.09309 6.5464 5.09268 7.38111 5.09238 8.21582C5.09219 8.73671 5.0919 9.2576 5.09159 9.77849C5.09076 11.2198 5.09005 12.6612 5.08982 14.1025C5.08981 14.1958 5.08979 14.289 5.08978 14.3822C5.08976 14.4757 5.08975 14.5691 5.08973 14.6626C5.0897 14.8501 5.08967 15.0375 5.08964 15.225C5.08964 15.2715 5.08963 15.318 5.08962 15.3659C5.08937 16.8735 5.08828 18.3812 5.08669 19.8889C5.08501 21.4824 5.08407 23.0759 5.08399 24.6694C5.08393 25.5382 5.08353 26.4071 5.08229 27.2759C5.08124 28.0156 5.08089 28.7553 5.08145 29.495C5.08172 29.8726 5.08165 30.2502 5.0807 30.6278C5.07983 30.9733 5.07991 31.3188 5.08074 31.6642C5.08087 31.7894 5.08066 31.9146 5.08007 32.0397C5.07931 32.2096 5.07982 32.3794 5.08064 32.5492C5.08012 32.5981 5.0796 32.6469 5.07907 32.6973C5.08323 33.0939 5.18401 33.3689 5.46495 33.6499C5.96368 33.9672 6.49435 33.9257 7.06722 33.924C7.16307 33.9242 7.25891 33.9245 7.35475 33.9248C7.61748 33.9255 7.88021 33.9254 8.14294 33.9251C8.42654 33.9249 8.71014 33.9255 8.99375 33.926C9.54911 33.9269 10.1045 33.927 10.6598 33.9269C11.1113 33.9268 11.5627 33.9269 12.0142 33.9272C12.0784 33.9272 12.1427 33.9272 12.2089 33.9273C12.3394 33.9274 12.47 33.9275 12.6006 33.9275C13.8248 33.9283 15.049 33.9281 16.2732 33.9277C17.3929 33.9274 18.5126 33.9281 19.6323 33.9294C20.7823 33.9308 21.9323 33.9313 23.0823 33.9311C23.7278 33.9309 24.3733 33.9311 25.0189 33.9321C25.5684 33.9329 26.1179 33.933 26.6675 33.9322C26.9478 33.9318 27.2281 33.9317 27.5084 33.9325C27.7652 33.9332 28.022 33.933 28.2788 33.9321C28.4152 33.9318 28.5517 33.9325 28.6881 33.9333C29.443 33.9357 29.443 33.9357 30.0992 33.6043C30.3207 33.3514 30.4074 33.137 30.408 32.8066C30.4083 32.7499 30.4086 32.6932 30.4088 32.6347C30.4088 32.5727 30.4088 32.5107 30.4087 32.4468C30.409 32.3813 30.4092 32.3158 30.4094 32.2483C30.41 32.106 30.4103 31.9637 30.4106 31.8213C30.4111 31.5961 30.4121 31.3709 30.4134 31.1456C30.417 30.5052 30.4203 29.8647 30.4213 29.2243C30.422 28.8326 30.424 28.441 30.4269 28.0494C30.4277 27.9001 30.4281 27.7508 30.4279 27.6015C30.4278 27.3927 30.4293 27.1839 30.4312 26.9751C30.4307 26.9134 30.4303 26.8516 30.4298 26.788C30.434 26.5037 30.4442 26.3555 30.5978 26.1091C30.7522 25.966 30.8074 25.9312 31.0143 25.9381C31.0594 25.938 31.1045 25.9379 31.151 25.9378C31.3607 25.9972 31.4304 26.0735 31.5611 26.25C31.6028 26.4717 31.5985 26.6914 31.5965 26.9165C31.5972 27.0179 31.5972 27.0179 31.598 27.1214C31.5992 27.3452 31.5984 27.569 31.5975 27.7929C31.5976 27.9487 31.5979 28.1045 31.5983 28.2604C31.5987 28.5873 31.5981 28.9143 31.5968 29.2413C31.5952 29.6592 31.5961 30.077 31.5978 30.4949C31.5988 30.817 31.5984 31.1391 31.5977 31.4611C31.5976 31.6151 31.5978 31.7691 31.5984 31.9231C31.5991 32.1392 31.598 32.3553 31.5965 32.5714C31.5971 32.6343 31.5976 32.6973 31.5982 32.7621C31.5905 33.3579 31.4129 33.8897 31.01 34.3377C30.9641 34.391 30.9182 34.4444 30.8709 34.4993C30.2675 34.9825 29.6631 35.0499 28.9117 35.0438C28.8113 35.0443 28.7108 35.0449 28.6104 35.0456C28.3362 35.0471 28.062 35.0466 27.7878 35.0456C27.4914 35.045 27.195 35.0463 26.8986 35.0474C26.3186 35.0492 25.7386 35.0491 25.1587 35.0484C24.6871 35.0478 24.2156 35.0478 23.744 35.0484C23.6432 35.0485 23.6432 35.0485 23.5404 35.0486C23.4039 35.0487 23.2673 35.0489 23.1308 35.049C21.8515 35.0504 20.5721 35.0495 19.2928 35.048C18.1961 35.0468 17.0993 35.0475 16.0026 35.0497C14.7278 35.0522 13.4531 35.0534 12.1783 35.0525C12.0423 35.0524 11.9063 35.0523 11.7702 35.0522C11.7033 35.0521 11.6364 35.0521 11.5674 35.0521C11.0967 35.0518 10.626 35.0526 10.1552 35.0538C9.58122 35.0552 9.00721 35.0551 8.43318 35.0532C8.14052 35.0522 7.8479 35.052 7.55525 35.0535C7.28692 35.0548 7.01866 35.0543 6.75033 35.0522C6.65369 35.0518 6.55704 35.0521 6.4604 35.0531C5.73783 35.0604 5.14729 34.9306 4.59521 34.4394C3.90438 33.7408 3.90436 32.9401 3.90923 32.0144C3.90892 31.884 3.90848 31.7536 3.90794 31.6233C3.9068 31.266 3.90736 30.9088 3.90821 30.5516C3.90883 30.166 3.90787 29.7803 3.90712 29.3947C3.90591 28.6396 3.90617 27.8845 3.90696 27.1294C3.90758 26.5157 3.90766 25.902 3.90737 25.2883C3.90732 25.201 3.90728 25.1136 3.90724 25.0236C3.90715 24.8461 3.90706 24.6686 3.90697 24.4912C3.90621 22.8746 3.907 21.258 3.90843 19.6415C3.90973 18.1664 3.90961 16.6913 3.90831 15.2163C3.90684 13.5582 3.90627 11.9001 3.90711 10.2421C3.90719 10.0652 3.90728 9.88842 3.90737 9.7116C3.90741 9.6246 3.90745 9.53761 3.90749 9.44797C3.90773 8.83504 3.90733 8.22212 3.90669 7.60919C3.90592 6.86218 3.90613 6.11519 3.90758 5.36818C3.9083 4.98709 3.90858 4.606 3.90768 4.2249C3.90686 3.87593 3.90731 3.52699 3.90877 3.17802C3.90907 3.05189 3.90892 2.92576 3.90825 2.79963C3.90435 1.99504 3.92964 1.29106 4.4951 0.66219C4.54101 0.608878 4.58692 0.555566 4.63422 0.500638C5.24474 0.0117322 5.85987 -0.0518221 6.62039 -0.045436Z" fill="black"/>
<path d="M12.2563 -0.0353857C12.331 -0.0359087 12.4058 -0.0364317 12.4828 -0.0369706C12.7342 -0.0383855 12.9855 -0.0378367 13.2369 -0.0372945C13.4167 -0.0378887 13.5966 -0.0385972 13.7765 -0.039412C14.215 -0.0411567 14.6535 -0.0413997 15.0921 -0.0410799C15.4488 -0.0408362 15.8054 -0.0410752 16.1621 -0.0416575C16.2129 -0.0417389 16.2636 -0.0418202 16.3159 -0.0419041C16.4191 -0.0420697 16.5222 -0.0422357 16.6253 -0.0424021C17.593 -0.0438899 18.5607 -0.043593 19.5284 -0.0427596C20.4126 -0.0420538 21.2968 -0.0435889 22.181 -0.046191C23.0894 -0.0488438 23.9978 -0.0499685 24.9063 -0.0494554C25.4161 -0.0491944 25.9258 -0.0495303 26.4356 -0.0514671C26.8699 -0.0531006 27.3042 -0.0532831 27.7385 -0.0516325C27.9599 -0.0508303 28.1812 -0.0508935 28.4026 -0.0523165C30.2169 -0.0631347 30.2169 -0.0631347 30.9059 0.560818C31.4319 1.0816 31.5903 1.67163 31.5967 2.39737C31.5961 2.48456 31.5955 2.57175 31.5948 2.66159C31.5952 2.75673 31.5956 2.85186 31.5961 2.947C31.5973 3.20681 31.5967 3.4666 31.5959 3.72642C31.5952 4.00722 31.5962 4.28801 31.597 4.56881C31.5982 5.11814 31.5979 5.66745 31.5971 6.21678C31.5965 6.66311 31.5964 7.10943 31.5967 7.55576C31.5967 7.61933 31.5968 7.68291 31.5968 7.74841C31.5969 7.87756 31.597 8.00672 31.5971 8.13587C31.5979 9.34587 31.597 10.5559 31.5955 11.7659C31.5943 12.8044 31.5945 13.843 31.5958 14.8816C31.5972 16.088 31.5978 17.2943 31.597 18.5007C31.5969 18.6293 31.5968 18.7578 31.5967 18.8864C31.5966 18.9812 31.5966 18.9812 31.5966 19.078C31.5963 19.5241 31.5967 19.9702 31.5974 20.4163C31.5982 20.9594 31.5979 21.5026 31.5965 22.0458C31.5958 22.323 31.5955 22.6002 31.5964 22.8774C31.5972 23.131 31.5968 23.3845 31.5953 23.6381C31.5949 23.7736 31.5957 23.9092 31.5967 24.0447C31.5956 24.1649 31.5956 24.1649 31.5945 24.2875C31.5945 24.3568 31.5944 24.4261 31.5944 24.4975C31.5509 24.7265 31.4651 24.8065 31.2867 24.9514C31.1062 25.0329 31.0307 25.0245 30.8381 24.9728C30.6475 24.8702 30.5777 24.7941 30.4664 24.6096C30.4407 24.4306 30.4407 24.4306 30.4406 24.2227C30.4401 24.1433 30.4396 24.064 30.4391 23.9822C30.4395 23.895 30.44 23.8078 30.4405 23.7179C30.4403 23.6243 30.44 23.5308 30.4396 23.4372C30.4387 23.1799 30.4392 22.9225 30.4398 22.6652C30.4403 22.3877 30.4395 22.1103 30.439 21.8328C30.4381 21.3519 30.438 20.8711 30.4383 20.3902C30.4388 19.6944 30.4379 18.9987 30.4367 18.303C30.4347 17.1737 30.4335 16.0444 30.433 14.9151C30.4329 14.8474 30.4329 14.7798 30.4329 14.7102C30.4326 14.2303 30.4324 13.7504 30.4322 13.2705C30.432 12.7226 30.4317 12.1747 30.4314 11.6267C30.4314 11.5255 30.4314 11.5255 30.4313 11.4222C30.4307 10.2973 30.4293 9.17246 30.4274 8.04758C30.4262 7.35353 30.4257 6.6595 30.4262 5.96546C30.4265 5.48995 30.4261 5.01445 30.4251 4.53895C30.4245 4.26449 30.4243 3.99005 30.425 3.71559C30.4256 3.46436 30.4253 3.21314 30.4242 2.96191C30.4239 2.82794 30.4246 2.69396 30.4253 2.55999C30.4221 2.06509 30.4047 1.7159 30.0391 1.35035C29.5959 1.06832 29.1492 1.07442 28.6396 1.07681C28.5665 1.07661 28.4934 1.0764 28.4181 1.07619C28.1737 1.07567 27.9293 1.07612 27.6848 1.07655C27.5094 1.07636 27.334 1.07611 27.1586 1.0758C26.7811 1.07525 26.4036 1.07509 26.0262 1.07525C25.4801 1.07546 24.934 1.07466 24.388 1.07357C23.5015 1.0718 22.6151 1.07043 21.7287 1.06951C21.6757 1.06945 21.6227 1.0694 21.568 1.06934C20.815 1.06857 20.0619 1.06821 19.3088 1.06801C19.2292 1.06799 19.2292 1.06799 19.148 1.06797C19.095 1.06796 19.042 1.06794 18.9874 1.06793C18.1039 1.06767 17.2205 1.06637 16.3371 1.0642C15.7923 1.06291 15.2474 1.06251 14.7026 1.06324C14.2855 1.06372 13.8685 1.0628 13.4514 1.06135C13.2801 1.06098 13.1088 1.06109 12.9375 1.06169C12.7042 1.06245 12.4711 1.06154 12.2378 1.0602C12.1695 1.06083 12.1012 1.06145 12.0309 1.06209C11.5761 1.05701 11.5761 1.05701 11.3521 0.901722C11.2121 0.680748 11.2209 0.529385 11.2574 0.273694C11.4928 -0.102503 11.8585 -0.0383141 12.2563 -0.0353857Z" fill="black"/>
<path d="M22.5499 29.7734C22.9271 30.1003 23.2302 30.4748 23.4941 30.8971C23.6539 30.8959 23.6539 30.8959 23.8359 30.8287C23.9593 30.6865 24.0641 30.5518 24.1692 30.3972C24.4407 29.9979 24.6927 29.7509 25.1751 29.6178C25.6345 29.5742 25.9837 29.6111 26.3543 29.9021C26.5818 30.1162 26.7466 30.3397 26.9078 30.6066C27.114 30.9344 27.3 30.993 27.6641 31.1022C27.8336 31.3565 27.8325 31.4848 27.8008 31.7858C27.7025 31.9524 27.7025 31.9524 27.5273 32.0592C27.1599 32.1292 26.826 32.0719 26.5006 31.8907C26.2216 31.6745 26.0255 31.3847 25.8184 31.1022C25.7277 30.9879 25.6367 30.8738 25.5449 30.7604C25.3362 30.7812 25.2782 30.8206 25.142 30.9855C25.0987 31.0508 25.0554 31.1161 25.0109 31.1833C24.749 31.559 24.4907 31.9093 24.041 32.0592C23.5593 32.1067 23.1306 32.0979 22.7422 31.7858C22.4902 31.5116 22.2739 31.2137 22.0597 30.9096C22.0142 30.8604 21.9687 30.8111 21.9219 30.7604C21.8316 30.7604 21.7414 30.7604 21.6484 30.7604C21.6305 30.7992 21.6125 30.8381 21.594 30.8781C21.3427 31.3537 20.9423 31.8844 20.418 32.0592C20.1415 32.0857 19.8897 32.0962 19.6318 31.9866C19.4749 31.7838 19.4609 31.6294 19.4609 31.3756C19.5973 31.1256 19.6952 31.0483 19.963 30.9492C20.2444 30.8333 20.3888 30.6361 20.5547 30.3887C20.8193 29.9966 21.0642 29.7776 21.5208 29.6146C21.8803 29.5687 22.2256 29.6145 22.5499 29.7734Z" fill="black"/>
<path d="M9.68319 2.73382C10.0507 2.96176 10.2568 3.3207 10.4907 3.67376C10.5315 3.73448 10.5724 3.79519 10.6145 3.85775C10.7147 4.00688 10.8144 4.15632 10.9137 4.30609C10.9101 4.19479 10.9101 4.19479 10.9065 4.08125C10.9045 3.98245 10.9027 3.88365 10.9008 3.78485C10.8991 3.73612 10.8974 3.68739 10.8956 3.63718C10.8911 3.30813 10.9373 3.08776 11.1187 2.80218C11.3301 2.69651 11.5012 2.71375 11.734 2.73382C11.9072 2.86875 11.9944 2.95554 12.0485 3.1703C12.053 3.26314 12.053 3.26314 12.0576 3.35787C12.0632 3.46667 12.0632 3.46667 12.069 3.57767C12.0712 3.66013 12.0735 3.7426 12.0758 3.82757C12.0777 3.89648 12.0777 3.89648 12.0798 3.96677C12.088 4.2755 12.0914 4.58407 12.0922 4.8929C12.0929 5.05518 12.095 5.21741 12.0971 5.37968C12.0976 5.48386 12.0979 5.58805 12.0982 5.69223C12.099 5.74023 12.0999 5.78823 12.1008 5.83768C12.0994 6.13722 12.052 6.32256 11.8707 6.56195C11.6999 6.69155 11.6123 6.69899 11.3964 6.69439C10.9416 6.55517 10.7008 6.098 10.448 5.72027C10.4136 5.66965 10.3793 5.61902 10.344 5.56686C10.2601 5.44305 10.1766 5.31902 10.0933 5.19476C10.0916 5.28041 10.0898 5.36606 10.088 5.45431C10.0842 5.56718 10.0802 5.68004 10.0763 5.7929C10.0748 5.8775 10.0748 5.8775 10.0733 5.9638C10.0565 6.38128 10.0565 6.38128 9.90002 6.5996C9.68243 6.74479 9.52862 6.73061 9.27303 6.69867C9.05531 6.57834 9.01102 6.52784 8.93124 6.28851C8.92433 6.1865 8.9211 6.08423 8.92022 5.98199C8.91957 5.92016 8.91891 5.85832 8.91823 5.79461C8.91794 5.72796 8.91765 5.6613 8.91735 5.59263C8.91696 5.52394 8.91657 5.45524 8.91617 5.38446C8.91553 5.23909 8.91508 5.09371 8.91482 4.94832C8.91415 4.72613 8.91203 4.50397 8.90988 4.28179C8.90943 4.14053 8.90907 3.99927 8.90881 3.85801C8.90796 3.79164 8.90712 3.72526 8.90625 3.65688C8.90736 3.31847 8.90846 3.07338 9.13632 2.80218C9.33136 2.70466 9.4668 2.71261 9.68319 2.73382Z" fill="black"/>
<path d="M18.6376 3.00824C19.0734 3.34963 19.3506 3.74431 19.5092 4.27289C19.5754 4.93453 19.474 5.48616 19.0478 6.01606C18.5812 6.49922 18.1863 6.70454 17.514 6.72956C16.9031 6.71263 16.4702 6.50278 16.0258 6.08762C15.6688 5.68009 15.4773 5.19065 15.4931 4.64887C15.5485 4.02526 15.778 3.58431 16.2322 3.15778C16.9188 2.59884 17.874 2.54356 18.6376 3.00824ZM16.7481 4.2275C16.5839 4.48893 16.6045 4.76155 16.6552 5.05903C16.7677 5.27783 16.9269 5.41778 17.1252 5.56318C17.4466 5.65771 17.6759 5.64526 17.9711 5.48627C18.2306 5.27397 18.3391 5.15579 18.424 4.82831C18.4363 4.47159 18.3203 4.27768 18.0907 4.01227C17.6363 3.62883 17.1082 3.82459 16.7481 4.2275Z" fill="black"/>
<path d="M25.2031 3.00969C25.3869 3.16778 25.3869 3.16778 25.4766 3.35149C25.4725 3.58853 25.4499 3.75401 25.3356 3.96245C25.1196 4.0809 24.8942 4.0647 24.6563 4.03508C24.5646 3.99063 24.4734 3.9451 24.3828 3.89837C24.0274 3.86545 23.7912 3.90092 23.4942 4.10344C23.3162 4.34456 23.273 4.53253 23.2891 4.82549C23.325 5.04719 23.3654 5.14071 23.4942 5.33391C23.7654 5.51475 23.9886 5.57938 24.3145 5.53899C24.4638 5.46115 24.5936 5.37013 24.7302 5.27196C24.8613 5.19719 24.8613 5.19719 25.122 5.19719C25.4517 5.30065 25.4517 5.30065 25.5449 5.47063C25.5722 5.68185 25.587 5.81517 25.5449 6.01751C25.2902 6.34716 24.9349 6.62251 24.5196 6.7011C23.849 6.76108 23.2944 6.66125 22.755 6.24395C22.386 5.90113 22.1554 5.44681 22.1107 4.94672C22.0941 4.28667 22.2315 3.74387 22.6891 3.25136C23.4047 2.6332 24.3799 2.53527 25.2031 3.00969Z" fill="black"/>
<path d="M22.2615 8.73713C22.3243 8.73657 22.3871 8.73601 22.4518 8.73544C22.6599 8.73374 22.868 8.73261 23.0761 8.73163C23.1471 8.73126 23.2181 8.7309 23.2913 8.73052C23.6671 8.7287 24.0429 8.72737 24.4188 8.72638C24.8072 8.72525 25.1956 8.72218 25.584 8.7187C25.8825 8.7164 26.1809 8.71561 26.4795 8.71523C26.6227 8.71477 26.7659 8.71372 26.909 8.71209C27.1094 8.70993 27.3096 8.70992 27.5099 8.71043C27.5691 8.70931 27.6283 8.70819 27.6892 8.70703C27.9859 8.71011 28.1061 8.7233 28.3496 8.90849C28.4834 9.09211 28.4834 9.09211 28.5219 9.33564C28.4834 9.57063 28.4834 9.57063 28.3839 9.71976C28.1233 9.90598 27.8888 9.88284 27.5757 9.88053C27.4794 9.88142 27.4794 9.88142 27.3812 9.88232C27.169 9.88387 26.9569 9.88341 26.7448 9.88279C26.5973 9.88314 26.4499 9.88357 26.3024 9.88407C25.9933 9.88478 25.6842 9.88447 25.3751 9.88347C24.9789 9.8823 24.5828 9.8839 24.1867 9.88631C23.8821 9.88781 23.5776 9.88771 23.2731 9.88714C23.127 9.88709 22.9809 9.88756 22.8349 9.88856C22.6306 9.88975 22.4265 9.88876 22.2223 9.88721C22.1619 9.88801 22.1016 9.88881 22.0394 9.88963C21.7388 9.88498 21.6159 9.87234 21.3701 9.68356C21.2373 9.50227 21.2373 9.50227 21.2031 9.29292C21.2405 9.07306 21.2857 8.97539 21.4424 8.81868C21.7149 8.72785 21.9773 8.73852 22.2615 8.73713Z" fill="black"/>
<path d="M26.9343 2.69638C27.0026 2.69603 27.0709 2.69568 27.1412 2.69531C27.2118 2.69637 27.2824 2.69743 27.3551 2.69852C27.461 2.69693 27.461 2.69693 27.569 2.69531C27.8791 2.69691 28.0847 2.70102 28.3586 2.85446C28.5264 3.05894 28.5346 3.16704 28.5145 3.4227C28.483 3.55301 28.483 3.55301 28.3634 3.72391C28.0231 3.88098 27.6897 3.84762 27.3209 3.82645C27.3209 3.93924 27.3209 4.05203 27.3209 4.16824C27.3712 4.16428 27.4216 4.16031 27.4734 4.15623C28.0171 4.13109 28.0171 4.13109 28.2908 4.31351C28.4384 4.54763 28.4712 4.64906 28.4147 4.9202C28.2908 5.11673 28.2908 5.11673 28.0729 5.26199C27.8196 5.2901 27.5746 5.28199 27.3209 5.26199C27.3209 5.37479 27.3209 5.48758 27.3209 5.60379C27.3819 5.60062 27.4429 5.59745 27.5057 5.59418C27.5857 5.59171 27.6657 5.58924 27.7482 5.5867C27.8275 5.58353 27.9068 5.58036 27.9885 5.57709C28.2096 5.60379 28.2096 5.60379 28.3728 5.72449C28.4882 5.88441 28.5219 5.95634 28.5215 6.15067C28.523 6.19578 28.5245 6.2409 28.526 6.28738C28.4531 6.51928 28.3532 6.57895 28.1412 6.69754C27.8785 6.73759 27.6204 6.73569 27.3551 6.73172C27.2845 6.73278 27.2139 6.73383 27.1412 6.73492C27.0388 6.7344 27.0388 6.7344 26.9343 6.73386C26.8414 6.73339 26.8414 6.73339 26.7467 6.73292C26.4918 6.68218 26.3947 6.62644 26.2272 6.4241C26.1755 6.1695 26.1793 5.91839 26.1818 5.65933C26.1815 5.5845 26.1811 5.50967 26.1808 5.43257C26.1806 5.27444 26.1812 5.11631 26.1826 4.95818C26.1844 4.71598 26.1826 4.47399 26.1804 4.2318C26.1807 4.07817 26.1811 3.92453 26.1818 3.7709C26.1811 3.69841 26.1804 3.62591 26.1797 3.55122C26.1876 3.05391 26.1876 3.05391 26.3781 2.82389C26.5811 2.72688 26.7103 2.6975 26.9343 2.69638Z" fill="black"/>
<path d="M13.241 2.73518C13.5723 2.96665 13.6512 3.3426 13.7708 3.7093C13.7924 3.77328 13.814 3.83725 13.8363 3.90316C13.8892 4.06048 13.9414 4.21801 13.993 4.3758C14.1067 4.20529 14.1625 4.09508 14.2232 3.9061C14.24 3.85556 14.2568 3.80503 14.2742 3.75296C14.3088 3.64735 14.3429 3.5416 14.3767 3.43573C14.4752 3.14262 14.5575 2.92768 14.8133 2.73518C15.069 2.69166 15.1899 2.71769 15.42 2.83772C15.5887 3.03618 15.5897 3.1438 15.5825 3.39817C15.5509 3.68649 15.46 3.95337 15.3679 4.22734C15.3373 4.32079 15.3373 4.32079 15.306 4.41614C15.2628 4.54703 15.2192 4.67778 15.1752 4.80839C15.1081 5.00804 15.0432 5.20829 14.9785 5.40867C14.9361 5.53618 14.8936 5.66364 14.851 5.79106C14.8318 5.85073 14.8126 5.91041 14.7929 5.97189C14.6784 6.30519 14.5844 6.51487 14.2664 6.70002C14.0272 6.73848 14.0272 6.73848 13.7879 6.70002C13.4361 6.42607 13.3254 6.10603 13.186 5.69867C13.1636 5.63504 13.1412 5.57141 13.118 5.50586C13.071 5.3717 13.0245 5.23736 12.9785 5.10286C12.908 4.89768 12.8354 4.69336 12.7625 4.48903C12.717 4.35823 12.6716 4.22738 12.6263 4.09649C12.6046 4.03574 12.5829 3.97498 12.5606 3.91239C12.4403 3.55534 12.3924 3.30782 12.4891 2.94026C12.6995 2.68935 12.9289 2.69616 13.241 2.73518Z" fill="black"/>
<path d="M21.0311 2.73626C21.233 2.87626 21.3541 2.987 21.4048 3.23348C21.4182 3.42884 21.4202 3.62138 21.4183 3.81719C21.4186 3.88873 21.4189 3.96026 21.4192 4.03397C21.4195 4.18497 21.4189 4.33597 21.4174 4.48696C21.4156 4.71791 21.4174 4.94863 21.4196 5.17957C21.4194 5.32644 21.4189 5.4733 21.4183 5.62017C21.4189 5.6891 21.4196 5.75804 21.4204 5.82907C21.415 6.15222 21.4105 6.30915 21.2119 6.57373C21.0311 6.7011 21.0311 6.7011 20.826 6.74382C20.5385 6.68394 20.4551 6.59517 20.2791 6.3593C20.2288 6.10718 20.2328 5.8592 20.2361 5.60281C20.2359 5.49299 20.2359 5.49299 20.2356 5.38094C20.2357 5.22644 20.2366 5.07193 20.2383 4.91743C20.2407 4.6808 20.2397 4.44435 20.2384 4.20772C20.2389 4.05751 20.2395 3.90731 20.2404 3.75711C20.2401 3.68632 20.2397 3.61554 20.2394 3.54261C20.2474 3.05589 20.2474 3.05589 20.4036 2.82867C20.6276 2.68969 20.773 2.69551 21.0311 2.73626Z" fill="black"/>
<path d="M7.76651 2.73514C7.98424 2.85546 8.02853 2.90596 8.10831 3.14529C8.11521 3.2473 8.11844 3.34957 8.11932 3.45181C8.11998 3.51364 8.12063 3.57548 8.12131 3.63919C8.1216 3.70584 8.12189 3.7725 8.12219 3.84117C8.12258 3.90986 8.12297 3.97856 8.12337 4.04934C8.12402 4.19472 8.12446 4.3401 8.12473 4.48548C8.12539 4.70767 8.12751 4.92983 8.12967 5.15201C8.13011 5.29327 8.13047 5.43453 8.13074 5.57579C8.13158 5.64216 8.13242 5.70854 8.13329 5.77692C8.13218 6.11533 8.13109 6.36042 7.90323 6.63162C7.69188 6.73729 7.52081 6.72005 7.28799 6.69998C7.13806 6.60972 7.13806 6.60972 7.01456 6.42654C6.97295 6.17187 6.97627 5.91934 6.97824 5.66177C6.97798 5.58694 6.97772 5.51211 6.97745 5.43501C6.97726 5.27688 6.97776 5.11875 6.97891 4.96062C6.98037 4.71844 6.97892 4.47641 6.97717 4.23423C6.97735 4.0806 6.9777 3.92697 6.97824 3.77334C6.97769 3.70085 6.97713 3.62835 6.97656 3.55366C6.98293 3.05515 6.98293 3.05515 7.13859 2.82592C7.35813 2.69251 7.51486 2.70368 7.76651 2.73514Z" fill="black"/>
<path d="M25.4856 10.9944C25.5419 10.9938 25.5983 10.9931 25.6564 10.9925C25.717 10.9922 25.7777 10.9919 25.8402 10.9916C25.9029 10.9912 25.9655 10.9908 26.03 10.9904C26.1625 10.9897 26.295 10.9893 26.4275 10.989C26.6299 10.9884 26.8323 10.9863 27.0346 10.9841C27.1634 10.9836 27.2922 10.9833 27.421 10.983C27.4814 10.9822 27.5418 10.9813 27.6041 10.9805C27.9306 10.9816 28.1533 10.9951 28.4171 11.2105C28.5227 11.4219 28.5055 11.593 28.4854 11.8258C28.3914 11.9757 28.3914 11.9757 28.212 12.0992C27.9772 12.1404 27.7449 12.1375 27.507 12.1355C27.4383 12.1358 27.3695 12.136 27.2987 12.1363C27.1534 12.1365 27.0081 12.136 26.8629 12.1349C26.6405 12.1334 26.4183 12.1348 26.1959 12.1366C26.0547 12.1364 25.9136 12.1361 25.7724 12.1355C25.7059 12.1361 25.6394 12.1366 25.5708 12.1372C25.1131 12.1308 25.1131 12.1308 24.8885 11.9752C24.75 11.7562 24.7623 11.6008 24.794 11.3473C24.9618 11.0436 25.1535 10.9976 25.4856 10.9944Z" fill="black"/>
</g>
<defs>
<clipPath id="clip0_6032_50018">
<rect width="35" height="35" fill="white" transform="translate(0.25)"/>
</clipPath>
</defs>
</svg>
