<svg width="36" height="35" viewBox="0 0 36 35" fill="none" xmlns="http://www.w3.org/2000/svg">
<g clip-path="url(#clip0_6032_50034)">
<path d="M8.25222 -0.0187232C8.33039 -0.0191155 8.33039 -0.0191155 8.41015 -0.0195157C8.58535 -0.0202228 8.76054 -0.0199487 8.93574 -0.0196776C9.06117 -0.0199747 9.18661 -0.020329 9.31204 -0.0207363C9.65347 -0.021654 9.99489 -0.0216909 10.3363 -0.0215181C10.6218 -0.0214451 10.9073 -0.0217788 11.1928 -0.0221064C11.8674 -0.0228659 12.5419 -0.0228943 13.2165 -0.0224814C13.9103 -0.02207 14.604 -0.022906 15.2978 -0.0243661C15.8945 -0.0255753 16.4912 -0.0259797 17.0879 -0.025758C17.4438 -0.0256347 17.7996 -0.0258083 18.1555 -0.0267639C18.4911 -0.0276314 18.8268 -0.0274838 19.1624 -0.0265991C19.2847 -0.026439 19.407 -0.0266186 19.5294 -0.0271886C20.5548 -0.0316174 21.5305 0.0853844 22.5148 0.387892C22.5715 0.405169 22.6283 0.422446 22.6868 0.440246C23.2532 0.620611 23.7695 0.873171 24.2879 1.16121C24.3624 1.20148 24.437 1.24175 24.5138 1.28324C25.248 1.69334 25.8615 2.23161 26.4754 2.80183C26.5209 2.8429 26.5665 2.88396 26.6134 2.92627C28.1036 4.32842 29.0238 6.44381 29.2653 8.45003C29.3276 8.85637 29.5048 9.05117 29.825 9.29597C31.4672 10.5687 32.3595 12.7507 32.63 14.7568C32.8987 17.0343 32.3298 19.4344 30.9144 21.2631C30.8035 21.3997 30.691 21.5351 30.5769 21.669C30.5011 21.7592 30.5011 21.7592 30.4236 21.8511C28.8769 23.6291 26.5801 24.8276 24.2195 25.0186C23.6704 25.0423 23.1203 25.0346 22.5709 25.032C22.4128 25.0317 22.2548 25.0315 22.0968 25.0314C21.6839 25.0309 21.271 25.0295 20.8582 25.028C20.4356 25.0266 20.0131 25.026 19.5906 25.0253C18.7637 25.0238 17.9369 25.0215 17.1101 25.0186C17.1051 25.0556 17.1001 25.0925 17.0949 25.1306C16.8205 27.1433 16.5427 29.1554 16.2525 31.1658C16.2076 31.4774 16.1631 31.7891 16.1186 32.1008C16.0835 32.3467 16.048 32.5925 16.0125 32.8383C15.9959 32.9535 15.9794 33.0687 15.963 33.184C15.9405 33.3424 15.9176 33.5007 15.8945 33.6589C15.8817 33.7482 15.8689 33.8374 15.8557 33.9293C15.794 34.276 15.7399 34.5588 15.5431 34.8554C15.2264 35.0718 14.9406 35.0463 14.5652 35.0422C14.4877 35.0427 14.4102 35.0432 14.3303 35.0437C14.0741 35.0449 13.818 35.0435 13.5618 35.0421C13.3838 35.0421 13.2058 35.0423 13.0278 35.0426C12.6547 35.0429 12.2817 35.0418 11.9086 35.0399C11.4777 35.0377 11.0468 35.0377 10.6159 35.0389C10.2009 35.04 9.78586 35.0395 9.37082 35.0383C9.19442 35.038 9.01803 35.038 8.84163 35.0385C8.59516 35.0388 8.34877 35.0374 8.10231 35.0356C8.02929 35.036 7.95627 35.0365 7.88103 35.0369C7.38643 35.0305 7.38643 35.0305 7.12014 34.8686C6.8919 34.6121 6.90492 34.4191 6.90812 34.086C6.94446 33.5361 7.05434 32.9946 7.15102 32.4527C7.17239 32.3298 7.19371 32.2069 7.21497 32.0839C7.33576 31.3901 7.46582 30.6986 7.60817 30.0089C7.56097 30.0095 7.51377 30.0101 7.46514 30.0107C6.9739 30.0168 6.48267 30.0209 5.9914 30.0239C5.80805 30.0251 5.62472 30.027 5.44138 30.0295C5.17786 30.0328 4.91437 30.0344 4.65083 30.0356C4.56886 30.037 4.48689 30.0384 4.40243 30.0398C3.84757 30.04 3.84757 30.04 3.56327 29.9089C3.20556 29.4125 3.3105 28.8319 3.39543 28.2613C3.4072 28.1762 3.41897 28.0911 3.4311 28.0035C3.46365 27.7684 3.49756 27.5335 3.5317 27.2986C3.5684 27.0445 3.60383 26.7901 3.63941 26.5358C3.7014 26.094 3.76419 25.6524 3.82752 25.2108C3.92014 24.565 4.01153 23.9191 4.10264 23.2731C4.25188 22.2151 4.4021 21.1573 4.55293 20.0995C4.69702 19.0891 4.84068 18.0786 4.98371 17.0679C4.99675 16.9758 4.99675 16.9758 5.01005 16.8819C5.05378 16.5729 5.0975 16.2639 5.14121 15.9549C5.22784 15.3426 5.3145 14.7303 5.40121 14.118C5.40972 14.058 5.41823 13.9979 5.427 13.936C5.55445 13.0361 5.68234 12.1363 5.8105 11.2365C5.82725 11.1189 5.84399 11.0014 5.86074 10.8838C5.86898 10.8259 5.87721 10.7681 5.8857 10.7085C5.91864 10.4772 5.95158 10.2459 5.98452 10.0147C6.00076 9.90061 6.017 9.78655 6.03325 9.67249C6.24097 8.2139 6.4468 6.75506 6.64903 5.29569C6.68378 5.04507 6.71863 4.79447 6.75352 4.54387C6.76456 4.46459 6.7756 4.3853 6.78697 4.30361C6.80855 4.14862 6.83014 3.99362 6.85172 3.83863C6.91197 3.40567 6.97154 2.97262 7.03057 2.53949C7.06568 2.28289 7.10141 2.02639 7.13733 1.7699C7.15339 1.65419 7.16919 1.53843 7.18469 1.42264C7.20545 1.26765 7.22715 1.11282 7.24909 0.957988C7.26079 0.872671 7.2725 0.787354 7.28455 0.699452C7.41486 0.123415 7.69268 -0.0216806 8.25222 -0.0187232ZM8.70192 1.503C8.68225 1.60242 8.66652 1.70263 8.65241 1.80299C8.6431 1.8682 8.6338 1.93342 8.6242 2.00061C8.61415 2.07315 8.6041 2.14569 8.59374 2.22042C8.58291 2.29689 8.57208 2.37336 8.56093 2.45214C8.52437 2.71084 8.48822 2.9696 8.45207 3.22836C8.42605 3.41327 8.39995 3.59817 8.37386 3.78307C8.31735 4.18379 8.26105 4.58454 8.20489 4.98531C8.12266 5.57221 8.0401 6.15906 7.95747 6.7459C7.82205 7.7078 7.68688 8.66973 7.55188 9.63168C7.42309 10.5493 7.29418 11.467 7.16509 12.3846C7.15727 12.4402 7.14945 12.4958 7.14139 12.5531C7.10203 12.8329 7.06267 13.1126 7.02331 13.3924C6.73975 15.408 6.45661 17.4236 6.17381 19.4392C6.0052 20.6409 5.83635 21.8425 5.66715 23.0441C5.58623 23.6188 5.50543 24.1936 5.42469 24.7683C5.37246 25.14 5.32016 25.5117 5.26771 25.8834C5.22032 26.2192 5.1731 26.555 5.12602 26.8908C5.1091 27.0113 5.09212 27.1317 5.07507 27.2521C5.05217 27.4139 5.0295 27.5757 5.00689 27.7375C5.00023 27.7842 4.99356 27.8309 4.9867 27.8789C4.95724 28.0915 4.94216 28.2895 4.94216 28.505C6.79196 28.505 8.64177 28.505 10.5476 28.505C10.6631 27.9871 10.6631 27.9871 10.7487 27.4681C10.7595 27.3902 10.7704 27.3123 10.7815 27.2321C10.7928 27.1486 10.8042 27.0652 10.8158 26.9792C10.8283 26.8889 10.8408 26.7985 10.8533 26.7082C10.88 26.5149 10.9066 26.3215 10.9331 26.1281C10.975 25.8221 11.0174 25.5161 11.0599 25.2102C11.1806 24.3406 11.301 23.471 11.4203 22.6012C11.4863 22.1199 11.5529 21.6387 11.62 21.1576C11.6624 20.8537 11.7041 20.5497 11.7454 20.2457C11.7773 20.0121 11.8101 19.7786 11.8428 19.5452C11.854 19.4613 11.8652 19.3775 11.8768 19.2911C11.9977 18.4416 11.9977 18.4416 12.325 18.1143C12.5266 18.0463 12.7136 18.0372 12.9254 18.0365C12.991 18.0362 13.0567 18.0358 13.1243 18.0354C13.1958 18.0353 13.2674 18.0353 13.3411 18.0352C13.4168 18.0348 13.4926 18.0345 13.5706 18.0341C13.7352 18.0334 13.8999 18.0328 14.0645 18.0324C14.3259 18.0315 14.5872 18.0302 14.8485 18.0287C15.5916 18.0245 16.3347 18.0208 17.0778 18.0185C17.5325 18.0171 17.9871 18.0147 18.4417 18.0116C18.6143 18.0107 18.7869 18.0101 18.9595 18.0099C19.8469 18.0086 20.6924 18.0047 21.5535 17.7725C21.6068 17.7594 21.66 17.7463 21.7149 17.7328C23.0559 17.3883 24.2497 16.6763 25.2449 15.7218C25.3027 15.6668 25.3605 15.6118 25.4201 15.5551C25.475 15.4973 25.53 15.4395 25.5867 15.38C25.6314 15.3341 25.676 15.2883 25.7221 15.2411C27.1249 13.7537 27.8078 11.7649 27.8682 9.74031C27.8 7.45455 26.9178 5.326 25.2734 3.72161C24.2776 2.79735 23.1123 2.14601 21.8141 1.75508C21.7346 1.7302 21.7346 1.7302 21.6535 1.70483C20.277 1.31569 18.7792 1.41508 17.3628 1.41853C17.0601 1.41914 16.7575 1.41901 16.4548 1.41898C15.9483 1.41905 15.4419 1.41964 14.9354 1.42058C14.3496 1.42166 13.7637 1.42201 13.1779 1.42196C12.5524 1.42191 11.9268 1.42239 11.3013 1.42302C11.1213 1.42316 10.9413 1.42321 10.7613 1.42324C10.4798 1.42331 10.1983 1.42372 9.91677 1.42441C9.81329 1.42461 9.70981 1.4247 9.60632 1.42466C9.46573 1.42462 9.32513 1.42505 9.18453 1.4255C9.10571 1.42562 9.0269 1.42573 8.94569 1.42585C8.77489 1.41475 8.77489 1.41475 8.70192 1.503ZM29.2097 10.9366C29.1989 11.0021 29.1881 11.0675 29.1769 11.135C28.7324 13.7152 27.4958 16.0319 25.3334 17.5811C24.1633 18.3969 22.8878 18.9872 21.4851 19.2764C21.428 19.2886 21.3708 19.3008 21.312 19.3133C20.5223 19.4575 19.7245 19.4374 18.9246 19.4415C18.7634 19.4427 18.6022 19.4441 18.441 19.4455C18.0195 19.449 17.598 19.4517 17.1764 19.4542C16.7452 19.457 16.314 19.4605 15.8827 19.4639C15.0386 19.4705 14.1945 19.4763 13.3504 19.4815C13.163 20.6164 12.9946 21.753 12.8391 22.8926C12.8022 23.1622 12.765 23.4318 12.7277 23.7013C12.7148 23.7947 12.7019 23.888 12.689 23.9813C12.6825 24.0279 12.6761 24.0745 12.6694 24.1225C12.583 24.747 12.497 25.3715 12.4118 25.9961C12.3536 26.4222 12.2949 26.8481 12.2356 27.274C12.2045 27.498 12.1737 27.7221 12.1434 27.9462C12.1098 28.1946 12.0752 28.4428 12.0404 28.691C12.0307 28.7644 12.021 28.8379 12.011 28.9135C11.9206 29.5464 11.9206 29.5464 11.7097 29.8038C11.4563 29.9727 11.255 29.9643 10.9613 29.9688C10.882 29.9708 10.882 29.9708 10.8012 29.9728C10.6327 29.9769 10.4641 29.9801 10.2956 29.9832C10.1812 29.9858 10.0669 29.9885 9.95255 29.9912C9.67241 29.9978 9.39225 30.0035 9.11208 30.0089C9.03388 30.4711 8.95604 30.9334 8.87843 31.3957C8.85198 31.553 8.82546 31.7103 8.79885 31.8676C8.76064 32.0936 8.72271 32.3196 8.68483 32.5456C8.67287 32.616 8.66091 32.6864 8.64858 32.7589C8.63216 32.8574 8.63216 32.8574 8.61541 32.9579C8.60569 33.0155 8.59597 33.0732 8.58597 33.1327C8.55925 33.3088 8.55925 33.3088 8.5652 33.5635C10.4827 33.5635 12.4002 33.5635 14.3758 33.5635C14.4491 33.0715 14.5224 32.5794 14.5979 32.0725C14.6363 31.8151 14.6363 31.8151 14.6755 31.5525C14.823 30.5596 14.9666 29.5662 15.1069 28.5723C15.1617 28.1847 15.2169 27.7971 15.272 27.4096C15.3268 27.0242 15.3809 26.6388 15.4346 26.2533C15.4686 26.0098 15.5033 25.7663 15.5381 25.5228C15.5543 25.4086 15.5703 25.2943 15.586 25.18C15.6077 25.0223 15.6302 24.8647 15.653 24.7071C15.6655 24.6184 15.678 24.5296 15.6908 24.4382C15.7588 24.1254 15.857 23.8792 16.0847 23.6514C16.2842 23.5843 16.4683 23.5744 16.6777 23.5741C16.7417 23.5738 16.8056 23.5736 16.8716 23.5733C16.9762 23.5733 16.9762 23.5733 17.0829 23.5734C17.1567 23.5731 17.2306 23.5729 17.3067 23.5727C17.4673 23.5722 17.6279 23.5718 17.7885 23.5716C18.0439 23.5711 18.2993 23.57 18.5547 23.5687C19.281 23.5651 20.0072 23.5619 20.7335 23.5608C21.178 23.5601 21.6224 23.5581 22.0668 23.5552C22.2351 23.5544 22.4034 23.5541 22.5717 23.5542C24.7833 23.5557 26.7199 23.0884 28.4578 21.669C28.5125 21.6248 28.5672 21.5805 28.6236 21.535C30.1031 20.2829 31.0176 18.3632 31.1812 16.447C31.3049 14.432 30.6818 12.4678 29.3465 10.9366C29.3013 10.9366 29.2562 10.9366 29.2097 10.9366Z" fill="black"/>
</g>
<defs>
<clipPath id="clip0_6032_50034">
<rect width="35" height="35" fill="white" transform="translate(0.5)"/>
</clipPath>
</defs>
</svg>
