<svg width="26" height="25" fill="none" xmlns="http://www.w3.org/2000/svg"><g clip-path="url(#clip0_5728_39697)"><mask id="mask0_5728_39697" style="mask-type:luminance" maskUnits="userSpaceOnUse" x="0" y="0" width="26" height="25"><path d="M25.5 0H.5v25h25V0z" fill="#fff"/></mask><g mask="url(#mask0_5728_39697)"><path fill-rule="evenodd" clip-rule="evenodd" d="M5.968.209c.202 0 .388.106.492.278l2.339 3.898a.613.613 0 01.01.017L11.147 8.3c.054.089.082.19.082.294v15.05l1.979-.012V1.563c0-.748.606-1.354 1.354-1.354h9.375c.749 0 1.354.606 1.354 1.354V24.22a.573.573 0 01-.573.573h-2.343a.573.573 0 010-1.146h1.77v-1.979h-1.77a.573.573 0 010-1.146h1.77v-1.979h-4.114a.573.573 0 010-1.146h4.114v-1.979h-1.77a.573.573 0 010-1.146h1.77v-1.979h-1.77a.573.573 0 010-1.146h1.77V9.168h-1.77a.573.573 0 010-1.146h1.77v-1.98h-4.114a.573.573 0 010-1.146h4.114V1.563a.208.208 0 00-.208-.208h-9.375a.208.208 0 00-.208.208v22.638a.573.573 0 01-.57.573l-3.125.018a.573.573 0 01-.576-.573V9.39l-3.542 1.18v13.65a.573.573 0 01-1.145 0V10.57L1.854 9.39v13.268a.573.573 0 01-1.146 0V8.594c0-.103.028-.205.082-.294l2.338-3.898a.576.576 0 01.01-.017L5.478.487a.573.573 0 01.49-.278zM3.95 5.261L2.14 8.277l3.83 1.276 3.828-1.276-1.81-3.016H3.95zM7.3 4.115H4.637l1.331-2.22L7.3 4.115z" fill="#fff"/></g></g><defs><clipPath id="clip0_5728_39697"><path fill="#fff" transform="translate(.5)" d="M0 0h25v25H0z"/></clipPath></defs></svg>