<svg width="36" height="35" viewBox="0 0 36 35" fill="none" xmlns="http://www.w3.org/2000/svg">
<g clip-path="url(#clip0_6026_49251)">
<path d="M17.9745 -0.023178C18.0441 -0.0230307 18.1137 -0.0228833 18.1854 -0.0227316C19.184 -0.0193361 20.1638 -0.00218495 21.1447 0.203262C21.2113 0.216844 21.2779 0.230425 21.3466 0.244418C24.654 0.936258 27.661 2.43446 30.0997 4.78334C30.1674 4.84816 30.1674 4.84816 30.2363 4.91429C30.8849 5.53939 31.4824 6.17496 32.0138 6.90248C32.0725 6.98117 32.1311 7.05985 32.1898 7.13853C32.6025 7.69837 32.9705 8.27961 33.3126 8.8849C33.3401 8.93325 33.3676 8.98159 33.3959 9.0314C34.2864 10.6129 34.8844 12.3336 35.2481 14.1101C35.2581 14.1593 35.2682 14.2084 35.2786 14.259C35.4819 15.3286 35.5256 16.3864 35.5215 17.4725C35.5214 17.5421 35.5212 17.6117 35.5211 17.6834C35.5177 18.6821 35.5005 19.6618 35.2951 20.6427C35.2747 20.7427 35.2747 20.7427 35.2539 20.8447C34.5621 24.152 33.0639 27.159 30.715 29.5978C30.6718 29.6429 30.6286 29.6879 30.584 29.7344C29.9589 30.383 29.3234 30.9804 28.5958 31.5119C28.5172 31.5705 28.4385 31.6292 28.3598 31.6878C27.7999 32.1006 27.2187 32.4685 26.6134 32.8107C26.5651 32.8382 26.5167 32.8657 26.4669 32.894C24.8854 33.7844 23.1647 34.3825 21.3882 34.7461C21.3391 34.7562 21.2899 34.7663 21.2393 34.7766C20.2361 34.9673 19.2431 35.022 18.2239 35.0198C18.0229 35.0195 17.822 35.0212 17.6211 35.0229C16.7069 35.0259 15.8253 34.9435 14.924 34.7931C14.8074 34.7738 14.8074 34.7738 14.6884 34.7541C11.7307 34.2228 8.92455 32.8565 6.65248 30.8966C6.60155 30.8533 6.55062 30.8099 6.49814 30.7652C5.57495 29.9578 4.70874 29.0862 3.98647 28.0939C3.92792 28.0153 3.86935 27.9367 3.81076 27.8581C3.39787 27.2982 3.02987 26.7169 2.68764 26.1115C2.66014 26.0631 2.63265 26.0148 2.60432 25.965C1.71391 24.3834 1.11585 22.6628 0.752213 20.8862C0.742139 20.8371 0.732066 20.788 0.721688 20.7373C0.518397 19.6678 0.474639 18.61 0.478775 17.5238C0.478922 17.4542 0.47907 17.3847 0.479222 17.313C0.482617 16.3143 0.499768 15.3346 0.705216 14.3537C0.718797 14.287 0.732378 14.2204 0.746371 14.1517C1.43821 10.8444 2.93641 7.83734 5.28529 5.39858C5.32851 5.3535 5.37172 5.30843 5.41624 5.26199C6.04135 4.61338 6.67691 4.01592 7.40443 3.48451C7.48312 3.42586 7.5618 3.3672 7.64049 3.30854C8.20033 2.89582 8.78156 2.52785 9.38686 2.18568C9.4352 2.15819 9.48355 2.1307 9.53336 2.10237C11.1149 1.21196 12.8356 0.613896 14.6121 0.250259C14.6612 0.240186 14.7104 0.230113 14.761 0.219735C15.8306 0.0164437 16.8883 -0.027314 17.9745 -0.023178Z" fill="#FD0000"/>
<path d="M17.9744 -0.023178C18.0439 -0.0230307 18.1135 -0.0228833 18.1852 -0.0227316C19.1839 -0.0193361 20.1636 -0.00218495 21.1445 0.203262C21.2112 0.216844 21.2778 0.230425 21.3465 0.244418C24.6538 0.936258 27.6608 2.43446 30.0996 4.78334C30.1672 4.84816 30.1672 4.84816 30.2362 4.91429C30.8848 5.53939 31.4823 6.17496 32.0137 6.90248C32.0723 6.98117 32.131 7.05985 32.1896 7.13853C33.1466 8.43661 34.2438 10.0719 34.4746 11.6876C23.6014 11.6876 12.7281 11.6876 1.52539 11.6876C1.62444 11.1924 1.72348 10.8081 1.93127 10.3632C1.95816 10.3048 1.98505 10.2464 2.01275 10.1862C2.84401 8.41065 3.92466 6.81113 5.28516 5.39858C5.32837 5.3535 5.37158 5.30843 5.4161 5.26199C6.04121 4.61338 6.67677 4.01592 7.4043 3.48451C7.48298 3.42586 7.56167 3.3672 7.64035 3.30854C8.20019 2.89582 8.78142 2.52785 9.38672 2.18568C9.43506 2.15819 9.48341 2.1307 9.53322 2.10237C11.1147 1.21196 12.8354 0.613896 14.6119 0.250259C14.6611 0.240186 14.7102 0.230113 14.7609 0.219735C15.8304 0.0164437 16.8882 -0.027314 17.9744 -0.023178Z" fill="black"/>
<path d="M1.52539 23.3789C12.4212 23.3789 23.317 23.3789 34.543 23.3789C34.0582 24.6716 34.0582 24.6716 33.8124 25.1819C33.7836 25.2419 33.7547 25.3019 33.7251 25.3637C33.1081 26.623 32.3083 27.7828 31.3984 28.8477C31.3549 28.8989 31.3114 28.9501 31.2665 29.0028C30.4587 29.9254 29.5879 30.7915 28.5957 31.5137C28.5171 31.5722 28.4385 31.6308 28.3599 31.6894C27.8 32.1023 27.2187 32.4703 26.6133 32.8125C26.5408 32.8537 26.5408 32.8537 26.4668 32.8958C24.8853 33.7862 23.1646 34.3843 21.3881 34.7479C21.3389 34.758 21.2898 34.7681 21.2391 34.7784C20.2359 34.9691 19.243 35.0239 18.2237 35.0216C18.0228 35.0214 17.8219 35.023 17.621 35.0247C16.7068 35.0278 15.8252 34.9453 14.9238 34.7949C14.8461 34.7821 14.7684 34.7692 14.6883 34.756C11.7306 34.2247 8.92441 32.8584 6.65234 30.8984C6.60141 30.8551 6.55048 30.8117 6.498 30.7671C5.57481 29.9597 4.7086 29.088 3.98633 28.0957C3.92778 28.0171 3.86921 27.9385 3.81062 27.8599C2.97287 26.7239 2.26507 25.4719 1.72192 24.1693C1.70173 24.1212 1.68154 24.0731 1.66074 24.0235C1.56683 23.7902 1.52539 23.6345 1.52539 23.3789Z" fill="#FED400"/>
</g>
<defs>
<clipPath id="clip0_6026_49251">
<rect width="35" height="35" fill="white" transform="translate(0.5)"/>
</clipPath>
</defs>
</svg>
