<svg width="36" height="35" viewBox="0 0 36 35" fill="none" xmlns="http://www.w3.org/2000/svg">
<g clip-path="url(#clip0_6026_49272)">
<path d="M18.0393 0.276926C18.4346 0.509989 18.7621 0.847553 18.9254 1.28416C19.0498 1.8596 19.0198 2.41738 18.7229 2.93012C18.4952 3.23983 18.2183 3.47078 17.8642 3.62226C17.7965 3.62226 17.7288 3.62226 17.6591 3.62226C17.6591 5.58486 17.6591 7.54746 17.6591 9.56953C18.6066 9.56953 19.554 9.56953 20.5302 9.56953C20.5278 9.25609 20.5254 8.94265 20.523 8.61971C20.5219 8.42126 20.5209 8.22281 20.5202 8.02437C20.519 7.7093 20.5175 7.39425 20.5147 7.0792C20.5125 6.82523 20.5113 6.57126 20.5107 6.31728C20.5104 6.22033 20.5096 6.12339 20.5085 6.02644C20.507 5.89078 20.5069 5.7551 20.5069 5.61942C20.5062 5.50352 20.5062 5.50352 20.5055 5.38528C20.5302 5.19453 20.5302 5.19453 20.6259 5.06714C20.7621 4.97038 20.8427 4.96193 21.0087 4.96382C21.0785 4.96302 21.0785 4.96302 21.1497 4.96221C21.3273 4.99874 21.3782 5.04949 21.4872 5.19453C21.5119 5.38528 21.5119 5.38528 21.5105 5.61942C21.5105 5.707 21.5105 5.79457 21.5105 5.8848C21.5094 5.9804 21.5083 6.07599 21.5073 6.17159C21.5069 6.26938 21.5066 6.36718 21.5064 6.46497C21.5056 6.72222 21.5036 6.97945 21.5013 7.23669C21.4988 7.54542 21.4979 7.85415 21.4967 8.16288C21.4947 8.63178 21.4908 9.10063 21.4872 9.56953C22.4572 9.56953 23.4273 9.56953 24.4267 9.56953C24.3928 6.65947 24.3928 6.65947 24.3583 3.69062C24.1327 3.57783 23.9071 3.46504 23.6747 3.34883C23.1656 2.76702 23.0622 2.25609 23.1119 1.49882C23.1665 1.04592 23.3924 0.721145 23.7431 0.443552C24.2653 0.0813742 24.8374 0.0617141 25.4521 0.135934C25.9103 0.261746 26.1986 0.496938 26.4668 0.883615C26.7667 1.41863 26.7867 2.08071 26.6251 2.66924C26.3793 3.21313 25.9938 3.47395 25.4521 3.69062C25.4295 5.63066 25.407 7.5707 25.3837 9.56953C25.8574 9.56953 26.3312 9.56953 26.8193 9.56953C27.4735 9.80745 27.8997 10.1127 28.2258 10.7307C28.3626 11.0548 28.3457 11.3723 28.336 11.7186C28.3351 11.7816 28.3341 11.8447 28.3332 11.9096C28.3308 12.0639 28.3274 12.2181 28.3232 12.3723C28.4049 12.3718 28.4867 12.3714 28.5709 12.3709C29.3404 12.3667 30.1099 12.3637 30.8795 12.3616C31.2751 12.3606 31.6707 12.3591 32.0664 12.3568C32.448 12.3546 32.8296 12.3533 33.2113 12.3528C33.3571 12.3524 33.5028 12.3517 33.6486 12.3506C33.8524 12.3491 34.0562 12.3489 34.26 12.349C34.3206 12.3482 34.3812 12.3475 34.4437 12.3467C34.4992 12.347 34.5547 12.3473 34.6119 12.3476C34.6601 12.3474 34.7083 12.3472 34.7579 12.347C34.9249 12.38 34.986 12.446 35.0907 12.5773C35.118 12.7098 35.118 12.7098 35.1164 12.8508C35.1169 12.8973 35.1174 12.9438 35.118 12.9918C35.0824 13.1646 35.0216 13.2189 34.8857 13.3293C34.7579 13.3545 34.7579 13.3545 34.6119 13.354C34.5564 13.3542 34.5009 13.3545 34.4437 13.3548C34.3831 13.3541 34.3224 13.3533 34.26 13.3526C34.1959 13.3526 34.1319 13.3526 34.0659 13.3527C33.854 13.3525 33.642 13.3509 33.4301 13.3493C33.2832 13.3489 33.1364 13.3486 32.9896 13.3484C32.6029 13.3477 32.2162 13.3456 31.8295 13.3434C31.3656 13.3409 30.9017 13.34 30.4379 13.3388C29.733 13.3368 29.0281 13.3329 28.3232 13.3293C28.3232 14.2768 28.3232 15.2242 28.3232 16.2004C29.5188 16.1778 30.7144 16.1553 31.9462 16.132C32.059 15.9064 32.1718 15.6809 32.288 15.4484C32.8178 14.9848 33.237 14.8552 33.942 14.8759C34.4296 14.924 34.7892 15.1159 35.1206 15.4741C35.5225 16.0079 35.5783 16.4949 35.5009 17.1574C35.3253 17.7402 34.9769 18.066 34.4755 18.3793C33.9594 18.5727 33.2948 18.543 32.7964 18.3195C32.3485 18.0572 32.1351 17.6981 31.9462 17.2258C30.7506 17.2032 29.555 17.1807 28.3232 17.1574C28.3232 18.1274 28.3232 19.0975 28.3232 20.0969C28.7945 20.0945 29.2659 20.0921 29.7515 20.0897C30.0496 20.0886 30.3478 20.0876 30.6459 20.0869C31.1194 20.0856 31.5929 20.0842 32.0664 20.0814C32.448 20.0792 32.8296 20.0779 33.2113 20.0774C33.3571 20.077 33.5028 20.0763 33.6486 20.0752C33.8524 20.0737 34.0562 20.0735 34.26 20.0736C34.3509 20.0725 34.3509 20.0725 34.4437 20.0714C34.4992 20.0716 34.5547 20.0719 34.6119 20.0722C34.6601 20.072 34.7083 20.0718 34.7579 20.0716C34.9249 20.1046 34.986 20.1706 35.0907 20.302C35.118 20.4344 35.118 20.4344 35.1164 20.5754C35.1169 20.6219 35.1174 20.6684 35.118 20.7164C35.0824 20.8892 35.0216 20.9435 34.8857 21.0539C34.7579 21.0791 34.7579 21.0791 34.6119 21.0786C34.5564 21.0788 34.5009 21.0791 34.4437 21.0794C34.3527 21.0783 34.3527 21.0783 34.26 21.0772C34.1959 21.0772 34.1319 21.0772 34.0659 21.0773C33.854 21.0771 33.642 21.0755 33.4301 21.0739C33.2832 21.0735 33.1364 21.0733 32.9896 21.0731C32.6029 21.0723 32.2162 21.0703 31.8295 21.068C31.3656 21.0655 30.9017 21.0646 30.4379 21.0634C29.733 21.0614 29.0281 21.0575 28.3232 21.0539C28.3232 22.0014 28.3232 22.9488 28.3232 23.925C29.5188 23.9024 30.7144 23.8799 31.9462 23.8566C32.059 23.6311 32.1718 23.4055 32.288 23.173C32.8178 22.7094 33.237 22.5799 33.942 22.6005C34.4296 22.6486 34.7892 22.8405 35.1206 23.1987C35.5225 23.7325 35.5783 24.2195 35.5009 24.882C35.3253 25.4649 34.9769 25.7906 34.4755 26.104C33.9594 26.2974 33.2948 26.2676 32.7964 26.0441C32.3485 25.7818 32.1351 25.4227 31.9462 24.9504C30.7506 24.9278 29.555 24.9053 28.3232 24.882C28.3232 25.3106 28.3232 25.7393 28.3232 26.1809C28.1103 26.786 27.7482 27.2667 27.1637 27.5546C26.7941 27.716 26.4607 27.7162 26.063 27.7019C25.9973 27.7006 25.9316 27.6994 25.864 27.6981C25.7038 27.6949 25.5438 27.6905 25.3837 27.6848C25.3844 27.8074 25.3844 27.8074 25.3851 27.9325C25.3892 28.702 25.3923 29.4715 25.3943 30.2411C25.3954 30.6367 25.3969 31.0324 25.3992 31.428C25.4014 31.8096 25.4026 32.1912 25.4032 32.5729C25.4035 32.7187 25.4043 32.8644 25.4054 33.0102C25.4069 33.214 25.4071 33.4178 25.407 33.6216C25.4081 33.7125 25.4081 33.7125 25.4092 33.8053C25.4089 33.8608 25.4087 33.9163 25.4084 33.9735C25.4086 34.0217 25.4087 34.0699 25.4089 34.1195C25.376 34.2865 25.31 34.3476 25.1786 34.4523C25.0462 34.4796 25.0462 34.4796 24.9052 34.478C24.8587 34.4785 24.8121 34.479 24.7642 34.4796C24.5914 34.444 24.5371 34.3832 24.4267 34.2473C24.4014 34.1195 24.4014 34.1195 24.402 33.9735C24.4016 33.8902 24.4016 33.8902 24.4012 33.8053C24.4019 33.7447 24.4026 33.684 24.4034 33.6216C24.4034 33.5575 24.4033 33.4935 24.4033 33.4275C24.4034 33.2156 24.405 33.0036 24.4067 32.7917C24.407 32.6448 24.4073 32.498 24.4075 32.3512C24.4083 31.9645 24.4103 31.5778 24.4126 31.1911C24.4151 30.7272 24.416 30.2633 24.4172 29.7995C24.4192 29.0946 24.4231 28.3897 24.4267 27.6848C23.4567 27.6848 22.4866 27.6848 21.4872 27.6848C21.5098 28.8804 21.5323 30.076 21.5556 31.3078C21.7812 31.4206 22.0068 31.5334 22.2392 31.6496C22.7021 32.1041 22.8644 32.4678 22.8843 33.1151C22.8717 33.6256 22.8066 33.9376 22.4579 34.3105C21.9296 34.806 21.5041 34.9069 20.7855 34.8905C20.3007 34.8373 19.9417 34.6467 19.6116 34.29C19.2098 33.7561 19.154 33.2691 19.2314 32.6066C19.3921 32.0729 19.7104 31.7075 20.1903 31.4338C20.3251 31.3762 20.3251 31.3762 20.5302 31.3762C20.5302 30.158 20.5302 28.9398 20.5302 27.6848C19.5827 27.6848 18.6353 27.6848 17.6591 27.6848C17.6615 28.1561 17.6639 28.6275 17.6663 29.1131C17.6674 29.4112 17.6683 29.7094 17.6691 30.0075C17.6703 30.481 17.6718 30.9545 17.6746 31.428C17.6768 31.8096 17.678 32.1912 17.6786 32.5729C17.6789 32.7187 17.6797 32.8644 17.6808 33.0102C17.6823 33.214 17.6825 33.4178 17.6824 33.6216C17.6831 33.6822 17.6839 33.7428 17.6846 33.8053C17.6843 33.8608 17.6841 33.9163 17.6838 33.9735C17.684 34.0217 17.6841 34.0699 17.6843 34.1195C17.6514 34.2865 17.5854 34.3476 17.454 34.4523C17.3216 34.4796 17.3216 34.4796 17.1806 34.478C17.1341 34.4785 17.0875 34.479 17.0396 34.4796C16.8668 34.444 16.8125 34.3832 16.7021 34.2473C16.6768 34.1195 16.6768 34.1195 16.6774 33.9735C16.677 33.8902 16.677 33.8902 16.6766 33.8053C16.6773 33.7447 16.678 33.684 16.6788 33.6216C16.6788 33.5575 16.6787 33.4935 16.6787 33.4275C16.6788 33.2156 16.6804 33.0036 16.682 32.7917C16.6824 32.6448 16.6827 32.498 16.6829 32.3512C16.6837 31.9645 16.6857 31.5778 16.688 31.1911C16.6905 30.7272 16.6914 30.2633 16.6926 29.7995C16.6946 29.0946 16.6985 28.3897 16.7021 27.6848C15.7321 27.6848 14.762 27.6848 13.7626 27.6848C13.7852 28.8804 13.8077 30.076 13.831 31.3078C14.0566 31.4206 14.2821 31.5334 14.5146 31.6496C14.9775 32.1041 15.1398 32.4678 15.1597 33.1151C15.1471 33.6256 15.082 33.9376 14.7333 34.3105C14.205 34.806 13.7795 34.9069 13.0609 34.8905C12.5761 34.8373 12.2171 34.6467 11.887 34.29C11.4852 33.7561 11.4294 33.2691 11.5068 32.6066C11.6675 32.0729 11.9858 31.7075 12.4657 31.4338C12.6005 31.3762 12.6005 31.3762 12.8056 31.3762C12.8056 30.158 12.8056 28.9398 12.8056 27.6848C12.3319 27.6848 11.8581 27.6848 11.37 27.6848C10.8407 27.5045 10.5249 27.2544 10.2079 26.7961C10.1782 26.7544 10.1485 26.7127 10.1179 26.6698C9.90492 26.2964 9.92149 25.9264 9.92782 25.5093C9.9283 25.4489 9.92878 25.3886 9.92928 25.3264C9.93053 25.1783 9.93244 25.0302 9.93449 24.882C9.88014 24.8825 9.82578 24.8829 9.76978 24.8834C9.2578 24.8875 8.74582 24.8906 8.23383 24.8927C7.9706 24.8937 7.70739 24.8952 7.44416 24.8975C7.19019 24.8997 6.93623 24.901 6.68225 24.9015C6.5853 24.9019 6.48835 24.9026 6.39141 24.9037C6.25574 24.9052 6.12006 24.9053 5.98438 24.9053C5.86849 24.906 5.86849 24.906 5.75024 24.9067C5.55949 24.882 5.55949 24.882 5.4321 24.7863C5.33535 24.6501 5.32689 24.5696 5.32878 24.4035C5.32825 24.357 5.32772 24.3105 5.32718 24.2625C5.36371 24.0849 5.41445 24.034 5.55949 23.925C5.75024 23.9003 5.75024 23.9003 5.98438 23.9017C6.11575 23.9017 6.11575 23.9017 6.24976 23.9018C6.34536 23.9028 6.44095 23.9039 6.53655 23.905C6.63435 23.9054 6.73214 23.9056 6.82994 23.9059C7.08719 23.9066 7.34441 23.9086 7.60166 23.9109C7.91038 23.9134 8.21912 23.9143 8.52785 23.9155C8.99675 23.9175 9.46559 23.9214 9.93449 23.925C9.93449 22.9775 9.93449 22.0301 9.93449 21.0539C7.97189 21.0539 6.0093 21.0539 3.98723 21.0539C3.96467 21.1667 3.94211 21.2795 3.91887 21.3957C3.65799 21.8723 3.26912 22.1819 2.75676 22.3527C2.13807 22.4091 1.62821 22.3853 1.11613 22.0109C0.745105 21.6793 0.527742 21.3155 0.476865 20.8197C0.452611 20.1846 0.523136 19.7017 0.955114 19.2194C1.4556 18.7562 1.90882 18.6899 2.57918 18.7065C3.11804 18.7574 3.3978 18.9932 3.74503 19.3933C3.85051 19.55 3.85051 19.55 4.05558 20.0285C6.96564 20.0624 6.96564 20.0624 9.93449 20.0969C9.93449 19.1269 9.93449 18.1568 9.93449 17.1574C9.46433 17.161 9.46433 17.161 8.98467 17.1646C8.78622 17.1657 8.58778 17.1667 8.38933 17.1674C8.07427 17.1687 7.75922 17.1701 7.44416 17.1729C7.19019 17.1751 6.93623 17.1763 6.68225 17.1769C6.5853 17.1773 6.48835 17.178 6.39141 17.1791C6.25574 17.1806 6.12006 17.1807 5.98438 17.1807C5.86849 17.1814 5.86849 17.1814 5.75024 17.1821C5.55949 17.1574 5.55949 17.1574 5.4321 17.0617C5.33535 16.9255 5.32689 16.8449 5.32878 16.6789C5.32799 16.6091 5.32799 16.6091 5.32718 16.5379C5.36371 16.3603 5.41445 16.3094 5.55949 16.2004C5.75024 16.1757 5.75024 16.1757 5.98438 16.1771C6.11575 16.1771 6.11575 16.1771 6.24976 16.1772C6.34536 16.1782 6.44095 16.1793 6.53655 16.1804C6.63435 16.1807 6.73214 16.181 6.82994 16.1812C7.08719 16.182 7.34441 16.184 7.60166 16.1863C7.91038 16.1888 8.21912 16.1897 8.52785 16.1909C8.99675 16.1929 9.46559 16.1968 9.93449 16.2004C9.93449 15.2529 9.93449 14.3055 9.93449 13.3293C7.97189 13.3293 6.0093 13.3293 3.98723 13.3293C3.96467 13.4421 3.94211 13.5549 3.91887 13.6711C3.65799 14.1477 3.26912 14.4573 2.75676 14.6281C2.13807 14.6844 1.62821 14.6607 1.11613 14.2863C0.745105 13.9547 0.527742 13.5909 0.476865 13.0951C0.452611 12.46 0.523136 11.9771 0.955114 11.4948C1.4556 11.0316 1.90882 10.9653 2.57918 10.9818C3.11804 11.0327 3.3978 11.2686 3.74503 11.6686C3.85051 11.8254 3.85051 11.8254 4.05558 12.3039C5.99562 12.3265 7.93566 12.349 9.93449 12.3723C9.93449 11.9211 9.93449 11.4699 9.93449 11.0051C10.1399 10.4261 10.4658 9.96581 11.0312 9.69396C11.3976 9.53725 11.7332 9.53821 12.1263 9.55244C12.192 9.55367 12.2577 9.55491 12.3253 9.55618C12.4855 9.55936 12.6455 9.56384 12.8056 9.56953C12.8049 9.488 12.8049 9.488 12.8042 9.40482C12.8001 8.89283 12.797 8.38086 12.795 7.86887C12.7939 7.60564 12.7924 7.34242 12.7901 7.0792C12.7879 6.82523 12.7867 6.57126 12.7861 6.31728C12.7857 6.22033 12.785 6.12339 12.7839 6.02644C12.7824 5.89078 12.7823 5.7551 12.7823 5.61942C12.7816 5.50352 12.7816 5.50352 12.7809 5.38528C12.8056 5.19453 12.8056 5.19453 12.9013 5.06714C13.0375 4.97038 13.1181 4.96193 13.2841 4.96382C13.3539 4.96302 13.3539 4.96302 13.4251 4.96221C13.6027 4.99874 13.6536 5.04949 13.7626 5.19453C13.7873 5.38528 13.7873 5.38528 13.7859 5.61942C13.7859 5.707 13.7859 5.79457 13.7859 5.8848C13.7848 5.9804 13.7837 6.07599 13.7826 6.17159C13.7823 6.26938 13.782 6.36718 13.7818 6.46497C13.781 6.72222 13.779 6.97945 13.7767 7.23669C13.7742 7.54542 13.7733 7.85415 13.7721 8.16288C13.7701 8.63178 13.7662 9.10063 13.7626 9.56953C14.7326 9.56953 15.7027 9.56953 16.7021 9.56953C16.6795 7.62949 16.657 5.68945 16.6337 3.69062C16.4081 3.57783 16.1825 3.46504 15.9501 3.34883C15.441 2.76702 15.3375 2.25609 15.3873 1.49882C15.4419 1.04592 15.6678 0.721145 16.0185 0.443552C16.6009 0.0395793 17.393 -0.021698 18.0393 0.276926ZM16.497 1.43476C16.3701 1.68851 16.3882 1.97882 16.4286 2.25508C16.5825 2.46617 16.5825 2.46617 16.7704 2.59687C16.793 2.61943 16.8155 2.64199 16.8388 2.66523C17.0973 2.70332 17.3501 2.72266 17.5835 2.59367C17.8407 2.38091 17.9251 2.26076 17.9582 1.93037C17.9565 1.70132 17.9159 1.58181 17.7702 1.40486C17.5074 1.14835 17.3481 1.13844 16.9934 1.1413C16.7667 1.17066 16.6508 1.27133 16.497 1.43476ZM24.2216 1.43476C24.0947 1.68851 24.1128 1.97882 24.1532 2.25508C24.3071 2.46617 24.3071 2.46617 24.495 2.59687C24.5176 2.61943 24.5402 2.64199 24.5634 2.66523C24.7946 2.6952 25.0162 2.69851 25.247 2.66523C25.4581 2.51138 25.4581 2.51138 25.5888 2.32343C25.6113 2.30088 25.6339 2.27832 25.6571 2.25508C25.695 1.9197 25.7078 1.65424 25.529 1.36213C25.2731 1.12885 25.0687 1.13887 24.7332 1.1413C24.497 1.16916 24.3797 1.26132 24.2216 1.43476ZM11.2894 10.7842C11.2512 10.8303 11.2129 10.8764 11.1735 10.9239C11.1342 10.9695 11.0949 11.015 11.0544 11.062C10.8496 11.3831 10.8815 11.7543 10.8819 12.1235C10.8817 12.1809 10.8815 12.2382 10.8813 12.2973C10.8807 12.4895 10.8806 12.6816 10.8805 12.8737C10.8802 13.0115 10.8798 13.1493 10.8795 13.287C10.8786 13.6613 10.8781 14.0356 10.8778 14.4099C10.8776 14.6438 10.8774 14.8777 10.8771 15.1117C10.8761 15.8437 10.8755 16.5758 10.8752 17.3079C10.8749 18.1526 10.8737 18.9972 10.8717 19.8419C10.8702 20.4951 10.8695 21.1483 10.8694 21.8015C10.8694 22.1915 10.869 22.5815 10.8677 22.9714C10.8666 23.3384 10.8665 23.7053 10.8671 24.0723C10.8671 24.2067 10.8668 24.3412 10.8662 24.4756C10.8653 24.6597 10.8657 24.8437 10.8664 25.0277C10.8659 25.0805 10.8653 25.1332 10.8647 25.1876C10.8686 25.6154 10.9444 26.0501 11.2093 26.3966C11.2482 26.4269 11.2872 26.4572 11.3273 26.4885C11.3659 26.5202 11.4045 26.5519 11.4443 26.5846C11.7662 26.7686 12.1386 26.7377 12.4989 26.7373C12.5866 26.7376 12.5866 26.7376 12.6761 26.7379C12.872 26.7385 13.0679 26.7386 13.2637 26.7387C13.4042 26.7391 13.5447 26.7394 13.6852 26.7398C14.0668 26.7407 14.4485 26.7411 14.8301 26.7414C15.0686 26.7416 15.3071 26.7419 15.5456 26.7422C16.292 26.7431 17.0383 26.7438 17.7847 26.7441C18.646 26.7444 19.5072 26.7456 20.3684 26.7475C21.0344 26.749 21.7003 26.7497 22.3663 26.7498C22.7639 26.7499 23.1616 26.7503 23.5592 26.7515C23.9333 26.7526 24.3075 26.7528 24.6816 26.7522C24.8187 26.7521 24.9558 26.7524 25.0929 26.7531C25.2805 26.754 25.4681 26.7536 25.6557 26.7529C25.7095 26.7534 25.7634 26.754 25.8188 26.7545C26.2869 26.7504 26.7091 26.6556 27.0884 26.3731C27.3791 25.9768 27.3863 25.5117 27.384 25.0373C27.3842 24.9797 27.3845 24.9221 27.3847 24.8628C27.3854 24.6711 27.3852 24.4795 27.3849 24.2879C27.3852 24.15 27.3856 24.012 27.386 23.8741C27.3869 23.5004 27.3869 23.1267 27.3867 22.753C27.3867 22.4407 27.387 22.1285 27.3873 21.8162C27.3881 21.0796 27.3881 20.3429 27.3877 19.6063C27.3873 18.8467 27.3881 18.0872 27.3896 17.3277C27.3908 16.675 27.3912 16.0224 27.391 15.3697C27.3909 14.9801 27.391 14.5906 27.392 14.201C27.3929 13.8347 27.3927 13.4684 27.3918 13.1022C27.3917 12.9679 27.3919 12.8336 27.3924 12.6994C27.3931 12.5158 27.3926 12.3322 27.3917 12.1486C27.3922 12.0958 27.3927 12.043 27.3932 11.9886C27.3887 11.5298 27.2995 11.1498 26.9731 10.8085C26.5578 10.537 26.1536 10.5065 25.6731 10.5092C25.6144 10.509 25.5557 10.5088 25.4952 10.5086C25.2994 10.508 25.1037 10.5084 24.9079 10.5089C24.7671 10.5087 24.6264 10.5084 24.4857 10.5081C24.1041 10.5075 23.7225 10.5078 23.3408 10.5082C22.9413 10.5085 22.5417 10.5082 22.1421 10.508C21.4712 10.5078 20.8002 10.5081 20.1292 10.5087C19.3538 10.5095 18.5783 10.5092 17.8028 10.5085C17.1367 10.5079 16.4706 10.5078 15.8046 10.5081C15.4069 10.5083 15.0092 10.5084 14.6115 10.5079C14.2375 10.5075 13.8636 10.5078 13.4897 10.5086C13.3526 10.5088 13.2154 10.5087 13.0783 10.5084C12.8909 10.508 12.7036 10.5085 12.5162 10.5092C12.4621 10.5089 12.408 10.5086 12.3522 10.5083C11.9689 10.511 11.5978 10.5339 11.2894 10.7842ZM1.66301 12.3039C1.50806 12.5105 1.49406 12.7293 1.49932 12.9851C1.54772 13.2348 1.68867 13.3592 1.86809 13.5344C2.08879 13.6447 2.3131 13.6435 2.55168 13.6027C2.75847 13.4841 2.92204 13.3405 3.03019 13.1242C3.06651 12.8648 3.08836 12.614 2.95863 12.3797C2.83735 12.2328 2.72308 12.1162 2.55168 12.0305C2.15281 11.9978 1.95145 11.9985 1.66301 12.3039ZM33.04 16.2004C32.9131 16.4541 32.9312 16.7444 32.9716 17.0207C33.1254 17.2318 33.1254 17.2318 33.3134 17.3625C33.336 17.3851 33.3585 17.4076 33.3818 17.4309C33.6402 17.4689 33.8931 17.4883 34.1265 17.3593C34.3837 17.1465 34.4681 17.0264 34.5011 16.696C34.4995 16.4669 34.4588 16.3474 34.3132 16.1705C34.0504 15.914 33.8911 15.9041 33.5364 15.9069C33.3097 15.9363 33.1938 16.037 33.04 16.2004ZM1.66301 20.0285C1.50806 20.2351 1.49406 20.4539 1.49932 20.7097C1.54772 20.9594 1.68867 21.0838 1.86809 21.259C2.08879 21.3693 2.3131 21.3681 2.55168 21.3273C2.75847 21.2087 2.92204 21.0651 3.03019 20.8488C3.06651 20.5895 3.08836 20.3386 2.95863 20.1043C2.83735 19.9574 2.72308 19.8408 2.55168 19.7551C2.15281 19.7224 1.95145 19.7231 1.66301 20.0285ZM33.04 23.925C32.9131 24.1787 32.9312 24.4691 32.9716 24.7453C33.1254 24.9564 33.1254 24.9564 33.3134 25.0871C33.336 25.1097 33.3585 25.1322 33.3818 25.1555C33.6402 25.1936 33.8931 25.2129 34.1265 25.0839C34.3837 24.8712 34.4681 24.751 34.5011 24.4206C34.4995 24.1916 34.4588 24.072 34.3132 23.8951C34.0504 23.6386 33.8911 23.6287 33.5364 23.6315C33.3097 23.6609 33.1938 23.7616 33.04 23.925ZM12.6005 32.675C12.4902 32.8957 12.4914 33.12 12.5321 33.3586C12.6508 33.5654 12.7944 33.729 13.0107 33.8371C13.27 33.8734 13.5209 33.8953 13.7551 33.7655C13.9021 33.6443 14.0187 33.53 14.1044 33.3586C14.1407 32.964 14.1407 32.964 13.9805 32.6152C13.7682 32.4089 13.625 32.3119 13.3311 32.3033C12.9803 32.3096 12.8386 32.425 12.6005 32.675ZM20.3251 32.675C20.2148 32.8957 20.216 33.12 20.2568 33.3586C20.3754 33.5654 20.519 33.729 20.7353 33.8371C20.9946 33.8734 21.2455 33.8953 21.4797 33.7655C21.6267 33.6443 21.7433 33.53 21.829 33.3586C21.8653 32.964 21.8653 32.964 21.7051 32.6152C21.4928 32.4089 21.3496 32.3119 21.0557 32.3033C20.7049 32.3096 20.5632 32.425 20.3251 32.675Z" fill="black"/>
<path d="M15.6353 12.8837C15.718 12.883 15.8008 12.8823 15.8861 12.8816C16.1115 12.88 16.3369 12.8797 16.5624 12.88C16.7514 12.8802 16.9405 12.8795 17.1295 12.8788C17.5761 12.8773 18.0226 12.8773 18.4691 12.8781C18.9277 12.8789 19.3863 12.8772 19.845 12.8743C20.2405 12.8719 20.6361 12.8711 21.0316 12.8715C21.2671 12.8718 21.5025 12.8714 21.738 12.8695C22.001 12.8678 22.2639 12.8688 22.527 12.8704C22.6036 12.8693 22.6802 12.8683 22.7592 12.8672C23.3758 12.8753 23.9126 13.0528 24.3769 13.4718C24.8733 13.9953 24.9354 14.4825 24.9326 15.1795C24.933 15.2612 24.9335 15.343 24.934 15.4272C24.935 15.6504 24.9351 15.8736 24.9347 16.0967C24.9345 16.2836 24.9349 16.4704 24.9354 16.6573C24.9363 17.0984 24.9362 17.5395 24.9354 17.9807C24.9346 18.4345 24.9356 18.8883 24.9374 19.3421C24.939 19.7329 24.9394 20.1237 24.939 20.5145C24.9388 20.7474 24.9389 20.9802 24.9401 21.2131C24.9411 21.4731 24.9404 21.733 24.9392 21.993C24.9399 22.0693 24.9406 22.1456 24.9412 22.2242C24.9349 22.8976 24.7427 23.3828 24.2854 23.8774C23.937 24.188 23.5172 24.345 23.054 24.3478C22.9822 24.3484 22.9104 24.349 22.8365 24.3496C22.7184 24.35 22.7184 24.35 22.5979 24.3505C22.4735 24.3513 22.4735 24.3513 22.3466 24.3522C22.0714 24.3539 21.7961 24.355 21.5209 24.356C21.4259 24.3563 21.331 24.3567 21.2361 24.3571C20.8409 24.3585 20.4457 24.3598 20.0505 24.3606C19.4853 24.3617 18.9201 24.364 18.3549 24.3679C17.9569 24.3705 17.559 24.3719 17.161 24.3722C16.9236 24.3725 16.6863 24.3733 16.4489 24.3755C16.1835 24.378 15.9182 24.3777 15.6528 24.3772C15.575 24.3783 15.4973 24.3794 15.4171 24.3806C14.8238 24.3759 14.4024 24.2171 13.9274 23.8641C13.887 23.8229 13.8467 23.7816 13.8051 23.7391C13.7637 23.6986 13.7223 23.6581 13.6796 23.6163C13.3042 23.1015 13.2437 22.6216 13.2474 21.9962C13.2468 21.9146 13.2462 21.8329 13.2456 21.7488C13.2443 21.5264 13.2443 21.3042 13.2449 21.0818C13.2452 20.8955 13.2447 20.7092 13.2442 20.5228C13.2431 20.0828 13.2433 19.6429 13.2444 19.2029C13.2456 18.7506 13.2445 18.2984 13.2423 17.8461C13.2405 17.4563 13.24 17.0664 13.2406 16.6766C13.2409 16.4444 13.2408 16.2123 13.2393 15.9801C13.2382 15.721 13.2392 15.4619 13.2407 15.2028C13.2399 15.1269 13.2391 15.0511 13.2383 14.973C13.2451 14.4104 13.372 13.9516 13.7577 13.5283C14.3099 12.9953 14.8876 12.8804 15.6353 12.8837ZM14.5186 14.2756C14.2331 14.7168 14.2208 15.1081 14.2221 15.6182C14.2218 15.6893 14.2214 15.7604 14.221 15.8336C14.2201 16.0681 14.2202 16.3026 14.2203 16.5371C14.22 16.7006 14.2198 16.864 14.2194 17.0275C14.2189 17.37 14.2189 17.7126 14.2193 18.0551C14.2197 18.4932 14.2185 18.9313 14.2169 19.3694C14.2159 19.707 14.2159 20.0447 14.2161 20.3823C14.2161 20.5438 14.2157 20.7052 14.215 20.8667C14.2142 21.093 14.2146 21.3192 14.2154 21.5454C14.2149 21.6116 14.2144 21.6778 14.2138 21.746C14.2172 22.1828 14.2491 22.6562 14.5331 23.0104C14.9751 23.4141 15.5075 23.4004 16.0695 23.399C16.1419 23.3994 16.2143 23.3997 16.2889 23.4001C16.5275 23.401 16.7661 23.401 17.0046 23.4008C17.1711 23.4011 17.3375 23.4014 17.5039 23.4017C17.8525 23.4022 18.2011 23.4022 18.5496 23.4018C18.9955 23.4014 19.4413 23.4026 19.8871 23.4042C20.2308 23.4052 20.5745 23.4052 20.9181 23.405C21.0825 23.4051 21.2468 23.4054 21.4111 23.4061C21.6413 23.407 21.8715 23.4065 22.1016 23.4057C22.169 23.4062 22.2363 23.4067 22.3057 23.4073C22.7453 23.404 23.2214 23.3741 23.5781 23.088C23.9796 22.6486 23.9679 22.121 23.9656 21.562C23.9658 21.4907 23.9661 21.4194 23.9663 21.346C23.9669 21.1112 23.9665 20.8764 23.9661 20.6416C23.9662 20.4779 23.9663 20.3142 23.9665 20.1505C23.9667 19.8078 23.9664 19.4651 23.9657 19.1224C23.965 18.6836 23.9654 18.2448 23.9662 17.806C23.9667 17.4681 23.9666 17.1302 23.9662 16.7923C23.9661 16.6305 23.9662 16.4687 23.9665 16.3069C23.9669 16.0806 23.9664 15.8544 23.9656 15.6281C23.966 15.5283 23.966 15.5283 23.9664 15.4264C23.9637 14.8253 23.9637 14.8253 23.71 14.2935C23.6715 14.2622 23.633 14.231 23.5933 14.1987C23.5557 14.1666 23.518 14.1344 23.4793 14.1013C23.051 13.8493 22.6018 13.8583 22.1193 13.8595C22.0469 13.8592 21.9745 13.8588 21.8999 13.8585C21.6613 13.8575 21.4227 13.8576 21.1842 13.8577C21.0177 13.8575 20.8513 13.8572 20.6849 13.8568C20.3363 13.8563 19.9877 13.8563 19.6392 13.8567C19.1933 13.8571 18.7475 13.8559 18.3016 13.8544C17.958 13.8534 17.6143 13.8533 17.2707 13.8535C17.1063 13.8535 16.942 13.8531 16.7776 13.8524C16.5475 13.8516 16.3173 13.852 16.0871 13.8528C16.0198 13.8523 15.9524 13.8518 15.8831 13.8513C15.3946 13.8549 14.8639 13.8908 14.5186 14.2756Z" fill="black"/>
</g>
<defs>
<clipPath id="clip0_6026_49272">
<rect width="35" height="35" fill="white" transform="translate(0.5)"/>
</clipPath>
</defs>
</svg>
