<svg width="36" height="36" viewBox="0 0 36 36" fill="none" xmlns="http://www.w3.org/2000/svg">
<g clip-path="url(#clip0_5826_47908)">
<path d="M12.7712 1.82051C13.3568 2.41377 13.8394 3.1342 14.3259 3.82438C14.5007 4.0713 14.6797 4.31344 14.8623 4.55347C16.822 7.13027 17.5855 9.8493 17.616 13.1618C17.6183 13.3145 17.6183 13.3145 17.6206 13.4704C17.6206 13.5665 17.6205 13.6626 17.6204 13.7617C17.6206 13.8471 17.6209 13.9326 17.6212 14.0206C17.5818 14.3195 17.4988 14.4962 17.331 14.7349C17.0299 14.7879 17.0299 14.7879 16.7288 14.7349C16.5181 14.5153 16.4734 14.3817 16.4376 14.0635C16.437 13.9493 16.4364 13.8351 16.4357 13.7175C16.4341 13.5895 16.4324 13.4614 16.4306 13.3334C16.43 13.2336 16.43 13.2336 16.4293 13.1317C16.4134 11.1471 16.1925 9.31579 15.3322 7.53924C15.2662 7.38217 15.2662 7.38217 15.2662 7.19364C11.9018 7.2403 11.9018 7.2403 8.46952 7.2879C7.47165 9.47457 7.22728 11.3887 7.22101 13.7988C7.21956 14.012 7.218 14.2251 7.21633 14.4383C7.21228 14.9934 7.20969 15.5484 7.20743 16.1035C7.20485 16.6723 7.20085 17.2411 7.19698 17.8099C7.18962 18.9216 7.18381 20.0332 7.179 21.1449C7.33012 21.1443 7.33012 21.1443 7.48429 21.1437C8.43251 21.1398 9.38073 21.137 10.329 21.1352C10.8165 21.1342 11.304 21.1328 11.7915 21.1307C12.2618 21.1287 12.732 21.1275 13.2023 21.127C13.3819 21.1267 13.5616 21.126 13.7412 21.125C13.9923 21.1236 14.2434 21.1234 14.4945 21.1235C14.5692 21.1228 14.6439 21.1222 14.7209 21.1215C15.2368 21.1234 15.2368 21.1234 15.5243 21.3335C15.6072 21.632 15.6441 21.8125 15.5307 22.1033C15.2479 22.3772 14.9316 22.3254 14.5727 22.3189C14.453 22.319 14.453 22.319 14.331 22.3191C14.067 22.3188 13.8031 22.3159 13.5391 22.3129C13.3563 22.3122 13.1734 22.3117 12.9905 22.3113C12.5089 22.3099 12.0273 22.3062 11.5457 22.302C11.0544 22.2981 10.5631 22.2964 10.0717 22.2945C9.10747 22.2905 8.14324 22.284 7.179 22.2761C7.19108 22.4627 7.20373 22.6493 7.21664 22.8358C7.22363 22.9397 7.23062 23.0436 7.23782 23.1506C7.23959 23.3989 7.23959 23.3989 7.35107 23.5016C7.4686 23.5105 7.58655 23.513 7.70437 23.5129C7.7805 23.513 7.85662 23.5132 7.93506 23.5133C8.0613 23.5128 8.0613 23.5128 8.19009 23.5123C8.32228 23.5123 8.32228 23.5123 8.45713 23.5123C8.74995 23.5122 9.04276 23.5115 9.33557 23.5108C9.53798 23.5106 9.74039 23.5105 9.94281 23.5104C10.4767 23.51 11.0107 23.5091 11.5446 23.508C12.089 23.5071 12.6333 23.5066 13.1777 23.5062C14.2467 23.5051 15.3157 23.5035 16.3847 23.5016C16.3859 23.4036 16.3872 23.3056 16.3885 23.2047C16.3935 22.8406 16.4001 22.4767 16.4072 22.1127C16.4101 21.9552 16.4125 21.7978 16.4145 21.6403C16.4174 21.4138 16.4219 21.1873 16.4267 20.9608C16.4272 20.8906 16.4278 20.8204 16.4283 20.748C16.436 20.4518 16.4556 20.2332 16.5837 19.9696C16.7288 19.8252 16.7288 19.8252 17.0299 19.7722C17.331 19.8252 17.331 19.8252 17.4768 20.0191C17.6139 20.3577 17.6263 20.6537 17.6234 21.0171C17.6238 21.1202 17.6238 21.1202 17.6242 21.2253C17.6243 21.3702 17.6239 21.5151 17.6228 21.66C17.6214 21.8797 17.6228 22.0993 17.6244 22.319C17.6243 22.4605 17.6239 22.6019 17.6234 22.7434C17.6239 22.8081 17.6245 22.8729 17.625 22.9396C17.6185 23.4396 17.5154 23.8049 17.331 24.2557C16.8813 24.7244 16.559 24.7404 15.959 24.7377C15.8394 24.7377 15.8394 24.7377 15.7173 24.7378C15.4529 24.7377 15.1885 24.737 14.9241 24.7362C14.7411 24.736 14.5581 24.7359 14.3751 24.7358C13.8928 24.7354 13.4105 24.7345 12.9282 24.7335C12.4363 24.7325 11.9444 24.7321 11.4525 24.7316C10.4868 24.7306 9.52119 24.729 8.55555 24.727C8.57418 24.8111 8.59281 24.8952 8.61201 24.9818C8.63596 25.0922 8.65992 25.2025 8.6846 25.3162C8.70856 25.4255 8.73251 25.5349 8.75719 25.6476C8.81365 25.9525 8.81365 25.9525 8.81365 26.3295C8.91439 26.3285 9.01514 26.3275 9.11893 26.3265C9.49187 26.3231 9.86481 26.321 10.2378 26.3192C10.3993 26.3182 10.5609 26.3169 10.7225 26.3153C10.9544 26.313 11.1863 26.3119 11.4182 26.3111C11.4907 26.3101 11.5632 26.3092 11.6379 26.3082C11.8151 26.3081 11.9922 26.318 12.169 26.3295C12.3411 26.5181 12.3411 26.5181 12.3679 26.8421C12.3411 27.1779 12.3411 27.1779 12.2346 27.338C12.0419 27.4939 11.9327 27.4965 11.6945 27.4973C11.6161 27.4982 11.5377 27.4991 11.4569 27.5C11.3725 27.4994 11.2881 27.4989 11.2011 27.4983C11.1142 27.4985 11.0274 27.4988 10.9379 27.4991C10.7542 27.4993 10.5705 27.4988 10.3868 27.4976C10.1052 27.4961 9.8238 27.4976 9.54225 27.4994C9.36391 27.4992 9.18557 27.4988 9.00723 27.4983C8.9228 27.4988 8.83838 27.4994 8.7514 27.5C8.67301 27.4991 8.59463 27.4982 8.51388 27.4973C8.44492 27.4971 8.37597 27.4968 8.30492 27.4966C8.07986 27.4516 8.00544 27.3745 7.86728 27.1779C7.79849 26.9208 7.79849 26.9208 7.74797 26.6142C7.72939 26.5045 7.71082 26.3948 7.69168 26.2818C7.67332 26.1673 7.65497 26.0528 7.63606 25.9348C7.61671 25.8192 7.59735 25.7035 7.57741 25.5844C7.52974 25.2988 7.48301 25.013 7.43711 24.727C7.32864 24.716 7.22018 24.7049 7.10843 24.6935C6.80962 24.663 6.75084 24.6345 6.50148 24.4148C6.20907 24.0096 6.12454 23.7625 6.13584 23.2423C6.13739 23.1495 6.13894 23.0567 6.14054 22.961C6.14254 22.8905 6.14454 22.82 6.14659 22.7474C5.45485 23.3092 4.76774 23.8749 4.0979 24.4678C3.7208 24.7999 3.34354 25.1314 2.95795 25.4517C2.85265 25.5397 2.85265 25.5397 2.74522 25.6295C2.49051 25.791 2.31186 25.8535 2.01695 25.8582C1.78864 25.6661 1.68542 25.5511 1.62912 25.2384C1.62884 25.1466 1.62857 25.0549 1.62829 24.9604C1.6272 24.8558 1.62612 24.7512 1.625 24.6435C1.6257 24.5306 1.62639 24.4177 1.62711 24.3013C1.62678 24.1841 1.62645 24.0669 1.62611 23.9461C1.62588 23.6972 1.62634 23.4485 1.62795 23.1996C1.63027 22.8235 1.62798 22.4475 1.62577 22.0714C1.6236 19.9394 1.82038 18.052 3.22143 16.4316C3.68153 15.9583 4.17516 15.5468 4.68939 15.1473C4.78795 15.07 4.78795 15.07 4.88851 14.9912C4.95333 14.9404 5.01816 14.8896 5.08494 14.8372C5.14759 14.7866 5.21024 14.736 5.27478 14.6839C5.45832 14.5463 5.45832 14.5463 5.63816 14.4545C5.83276 14.3468 5.93428 14.2715 6.06056 14.075C6.13156 13.6631 6.13409 13.259 6.12791 12.8418C6.12317 12.4993 6.12869 12.157 6.13315 11.8145C6.13411 11.7144 6.13411 11.7144 6.13509 11.6124C6.17066 8.74907 7.4733 6.3261 9.09343 4.18805C9.29444 3.92149 9.49259 3.65246 9.69076 3.38337C9.8743 3.13449 10.0589 2.88658 10.2439 2.63898C10.3467 2.50126 10.449 2.36308 10.5511 2.22482C11.1531 1.43391 11.9416 1.27653 12.7712 1.82051ZM11.3086 3.04596C11.1613 3.2379 11.0214 3.42929 10.8838 3.62923C10.4483 4.25067 9.99663 4.85576 9.53807 5.45698C9.48855 5.52227 9.43902 5.58756 9.388 5.65483C9.34356 5.71307 9.29912 5.77131 9.25334 5.83132C9.14908 5.95195 9.14908 5.95195 9.15779 6.06245C10.918 6.06245 12.6783 6.06245 14.4919 6.06245C14.013 5.36282 13.5281 4.67114 13.0293 3.98861C12.9865 3.92989 12.9436 3.87117 12.8994 3.81067C12.7735 3.63927 12.6462 3.46911 12.5185 3.2993C12.4799 3.24678 12.4414 3.19426 12.4017 3.14015C12.252 2.94377 12.1161 2.78322 11.9105 2.65895C11.6293 2.67524 11.5084 2.83642 11.3086 3.04596ZM5.01063 16.4022C4.8773 16.5089 4.74325 16.6146 4.60907 16.72C3.68123 17.4828 3.00187 18.5667 2.79126 19.8252C2.76952 20.1526 2.7711 20.4781 2.77446 20.8062C2.7747 20.8972 2.77494 20.9881 2.7752 21.0819C2.77615 21.37 2.77831 21.6581 2.78051 21.9462C2.78137 22.1426 2.78216 22.3389 2.78286 22.5353C2.78475 23.0145 2.78771 23.4937 2.79126 23.9729C3.0864 23.7601 3.37598 23.5453 3.65429 23.3068C3.74746 23.2271 3.74746 23.2271 3.84251 23.1459C3.90727 23.0902 3.97203 23.0346 4.03876 22.9772C4.10612 22.9195 4.17349 22.8618 4.2429 22.8024C4.44744 22.6272 4.65177 22.4517 4.85608 22.2761C4.97807 22.1715 5.10006 22.0669 5.22206 21.9624C5.3313 21.8686 5.44052 21.7749 5.54973 21.6811C5.60041 21.6375 5.6511 21.594 5.70332 21.5492C5.93249 21.3566 5.93249 21.3566 6.14659 21.1449C6.15466 20.9714 6.1567 20.7975 6.15636 20.6237C6.15635 20.5123 6.15635 20.401 6.15634 20.2863C6.1559 20.1651 6.15545 20.0439 6.15499 19.9191C6.15481 19.7341 6.15481 19.7341 6.15463 19.5454C6.1543 19.217 6.15345 18.8887 6.1525 18.5603C6.15162 18.2254 6.15123 17.8905 6.15079 17.5557C6.14987 16.8982 6.1484 16.2407 6.14659 15.5833C5.82193 15.5833 5.27623 16.1894 5.01063 16.4022Z" fill="#2E2E2E"/>
<path d="M34.8454 24.0267C35.2908 24.4325 35.5152 24.8948 35.6239 25.4804C35.6434 26.2159 35.4115 26.7662 34.9031 27.3025C34.7643 27.4431 34.6247 27.5829 34.4844 27.722C34.37 27.8372 34.37 27.8372 34.2532 27.9548C34.0011 28.2081 33.748 28.4603 33.4948 28.7123C33.3186 28.8885 33.1425 29.0647 32.9663 29.2409C32.597 29.61 32.2271 29.9786 31.8568 30.3468C31.4304 30.7708 31.0054 31.1963 30.5811 31.6224C30.1713 32.034 29.7601 32.4441 29.3483 32.8538C29.1741 33.0275 29.0003 33.2016 28.8268 33.376C28.5835 33.6205 28.3387 33.8634 28.0934 34.106C28.0227 34.1776 27.9521 34.2493 27.8793 34.3231C27.0385 35.147 26.2156 35.4768 25.0492 35.4784C24.9217 35.4791 24.9217 35.4791 24.7916 35.4798C24.5108 35.4812 24.23 35.4819 23.9491 35.4824C23.754 35.483 23.5589 35.4836 23.3638 35.4841C22.9551 35.4851 22.5463 35.4857 22.1375 35.486C21.6131 35.4866 21.0886 35.4889 20.5642 35.4917C20.1614 35.4935 19.7586 35.494 19.3558 35.4941C19.1624 35.4944 18.969 35.4952 18.7756 35.4965C18.5056 35.4981 18.2356 35.4979 17.9656 35.4973C17.8854 35.4982 17.8051 35.4991 17.7225 35.5C17.1774 35.496 17.1774 35.496 16.9682 35.3333C16.775 35.0849 16.8046 34.8945 16.8427 34.5905C16.9418 34.4292 16.9418 34.4292 17.1347 34.2998C17.4039 34.2717 17.6513 34.2613 17.9206 34.264C18.0007 34.2636 18.0808 34.2633 18.1633 34.2629C18.3374 34.2623 18.5115 34.2623 18.6856 34.2629C18.9619 34.2638 19.238 34.2628 19.5143 34.2613C20.2997 34.2574 21.0851 34.2573 21.8705 34.2575C22.3511 34.2575 22.8315 34.2557 23.312 34.2527C23.583 34.2517 23.8538 34.2529 24.1247 34.2541C24.293 34.2532 24.4612 34.2522 24.6294 34.2511C24.7037 34.2521 24.778 34.253 24.8545 34.254C25.7603 34.2422 26.4447 33.9113 27.0844 33.2832C27.1868 33.1784 27.1868 33.1784 27.2912 33.0714C27.3662 32.997 27.4411 32.9226 27.5184 32.8459C27.7636 32.6017 28.0067 32.3556 28.2499 32.1093C28.4205 31.9386 28.5912 31.7679 28.7621 31.5974C29.2098 31.1498 29.6558 30.7004 30.1014 30.2507C30.4664 29.8826 30.8331 29.5161 31.1996 29.1495C31.6359 28.713 32.0717 28.2761 32.5072 27.839C32.5906 27.7553 32.674 27.6716 32.7599 27.5854C32.9945 27.3497 33.2288 27.1137 33.4629 26.8775C33.5329 26.8072 33.6029 26.7369 33.675 26.6645C33.7701 26.5683 33.7701 26.5683 33.8672 26.4702C33.9225 26.4144 33.9779 26.3586 34.0349 26.3012C34.2259 26.091 34.2607 25.9722 34.2919 25.6864C34.2849 25.3802 34.2849 25.3802 34.1095 25.1533C33.7793 24.9341 33.5832 24.953 33.1911 24.9959C32.9594 25.1494 32.782 25.2871 32.5829 25.4744C32.472 25.5733 32.361 25.6721 32.2499 25.7708C32.1953 25.8203 32.1406 25.8697 32.0843 25.9207C31.8596 26.1212 31.6258 26.3095 31.3908 26.498C30.9977 26.8167 30.6093 27.1403 30.2231 27.4672C28.7117 28.7453 28.7117 28.7453 28.2282 29.0663C28.1537 29.3193 28.1537 29.3193 28.1065 29.6115C27.9681 30.2097 27.7485 30.627 27.2551 31.0046C26.7783 31.239 26.4334 31.3319 25.8937 31.333C25.8296 31.3335 25.7654 31.334 25.6993 31.3345C25.4895 31.3358 25.2799 31.335 25.0701 31.334C24.9234 31.3342 24.7767 31.3345 24.6301 31.3348C24.3238 31.3353 24.0176 31.3346 23.7114 31.3333C23.3188 31.3316 22.9263 31.3326 22.5337 31.3343C22.2313 31.3354 21.929 31.335 21.6266 31.3343C21.4818 31.3341 21.337 31.3343 21.1922 31.335C20.9903 31.3357 20.7884 31.3346 20.5865 31.333C20.4716 31.3328 20.3568 31.3325 20.2384 31.3323C19.9567 31.2954 19.9567 31.2954 19.7736 31.1658C19.6032 30.9135 19.6277 30.7185 19.6648 30.4231C19.7757 30.2619 19.7757 30.2619 19.9567 30.1324C20.225 30.0957 20.225 30.0957 20.5538 30.0951C20.6769 30.0941 20.8 30.0931 20.9268 30.0921C21.0255 30.0924 21.0255 30.0924 21.1261 30.0926C21.3323 30.093 21.5384 30.0917 21.7446 30.0898C22.1826 30.0863 22.6205 30.0849 23.0585 30.0839C23.5654 30.0828 24.0723 30.0807 24.5793 30.0762C24.782 30.0749 24.9847 30.0753 25.1875 30.0757C25.3112 30.0747 25.4349 30.0738 25.5623 30.0728C25.7253 30.0725 25.7253 30.0725 25.8917 30.0722C26.2498 30.0273 26.5114 29.9039 26.7685 29.6478C26.797 29.3284 26.8016 29.1272 26.6469 28.8422C26.2777 28.4876 25.7552 28.5673 25.2712 28.5647C25.1079 28.5624 24.9447 28.5601 24.7814 28.5577C24.5256 28.5543 24.2699 28.5515 24.0141 28.5501C22.865 28.5431 21.9658 28.528 21.0575 27.7458C20.5167 27.2813 19.9864 27.1949 19.2862 27.1958C19.1775 27.1951 19.1775 27.1951 19.0666 27.1945C18.9138 27.1939 18.761 27.1939 18.6083 27.1943C18.3774 27.1946 18.1467 27.1924 17.9158 27.1899C16.4785 27.1833 15.5794 27.428 14.5358 28.4344C14.4108 28.5589 14.2862 28.684 14.1622 28.8095C14.0934 28.8783 14.0246 28.9471 13.9538 29.018C13.8058 29.1661 13.658 29.3144 13.5105 29.4629C13.277 29.698 13.0428 29.9324 12.8085 30.1667C12.3119 30.6635 11.816 31.1611 11.3203 31.6588C10.7443 32.2371 10.1679 32.815 9.5908 33.3921C9.36011 33.6231 9.13002 33.8547 8.89995 34.0863C8.75889 34.2275 8.6178 34.3686 8.47668 34.5098C8.38097 34.6066 8.38097 34.6066 8.28334 34.7054C8.22415 34.7643 8.16497 34.8233 8.104 34.884C8.05298 34.9353 8.00197 34.9865 7.9494 35.0393C7.69095 35.2582 7.49624 35.3703 7.15413 35.3537C6.85925 35.2483 6.76479 35.1597 6.625 34.8813C6.7391 33.8379 8.12453 32.8855 8.83732 32.1737C8.90622 32.1048 8.97511 32.0359 9.0461 31.9649C9.4105 31.6005 9.77518 31.2365 10.1401 30.8726C10.5145 30.4992 10.888 30.1249 11.2612 29.7504C11.5508 29.4602 11.841 29.1707 12.1314 28.8814C12.2692 28.7437 12.4069 28.6059 12.5443 28.4678C15.0306 25.9701 15.0306 25.9701 16.6717 25.9479C16.7523 25.9466 16.8329 25.9454 16.916 25.9441C17.0024 25.9434 17.0889 25.9427 17.178 25.9419C17.313 25.9407 17.313 25.9407 17.4508 25.9395C17.6414 25.9382 17.8319 25.9372 18.0225 25.9364C18.2162 25.9353 18.4098 25.9333 18.6035 25.9304C18.8845 25.9263 19.1655 25.9247 19.4466 25.9237C19.5319 25.922 19.6171 25.9203 19.705 25.9186C20.5236 25.9214 21.2603 26.1642 21.8847 26.704C22.4482 27.1862 22.9086 27.2523 23.6291 27.2514C23.7969 27.2534 23.9647 27.2554 24.1325 27.2575C24.3952 27.2597 24.6578 27.2613 24.9204 27.2618C25.1753 27.2628 25.43 27.266 25.6848 27.2696C25.7622 27.2691 25.8397 27.2686 25.9195 27.2681C26.6107 27.2801 27.0777 27.5271 27.6443 27.9033C27.7021 27.8505 27.76 27.7976 27.8196 27.7432C28.3355 27.2757 28.8619 26.8268 29.4039 26.3898C29.7126 26.1387 30.0168 25.8829 30.3204 25.6258C33.2444 23.1577 33.2444 23.1577 34.8454 24.0267Z" fill="#2E2E2E"/>
<path d="M25.2233 10.5975C25.8641 10.9307 26.1171 11.6261 26.3833 12.2793C26.8074 13.4964 26.8074 13.4964 27.653 14.3537C27.9696 14.4117 28.2465 14.4337 28.5656 14.424C28.9621 14.424 29.3506 14.4983 29.7417 14.5602C29.8183 14.5697 29.895 14.5791 29.974 14.5889C30.5656 14.6696 30.9453 14.8598 31.3534 15.33C31.6159 15.7242 31.6647 16.1342 31.5983 16.6031C31.4123 17.0736 31.1598 17.3563 30.7903 17.6753C29.6806 18.6015 29.6806 18.6015 28.9641 19.8269C28.9388 20.3565 29.0705 20.8305 29.2477 21.3231C29.3444 21.5987 29.3913 21.8741 29.4341 22.1635C29.4546 22.2921 29.4546 22.2921 29.4754 22.4233C29.53 22.9149 29.5454 23.3767 29.2989 23.8138C29.0477 24.1403 28.8115 24.3794 28.409 24.467C27.6768 24.5357 27.2258 24.3331 26.5865 23.9755C26.459 23.9069 26.459 23.9069 26.3288 23.8369C25.9997 23.6589 25.6729 23.4803 25.355 23.2814C25.284 23.2372 25.2131 23.1931 25.14 23.1476C25.0782 23.1075 25.0164 23.0674 24.9527 23.0261C24.6966 22.9243 24.5693 22.9609 24.3085 23.0458C24.1148 23.1387 23.9239 23.2381 23.7354 23.3419C23.6821 23.371 23.6287 23.4001 23.5738 23.43C23.4046 23.5225 23.2357 23.6157 23.0669 23.709C22.8974 23.8022 22.7278 23.8953 22.558 23.9881C22.4044 24.0721 22.2511 24.1567 22.0978 24.2413C21.6082 24.4982 21.1031 24.5843 20.572 24.4056C20.2224 24.2218 19.9875 23.989 19.8115 23.6155C19.6232 23.0094 19.7584 22.4108 19.9224 21.8156C20.3002 20.4988 20.3002 20.4988 20.0386 19.2068C19.6028 18.5904 19.0195 18.1013 18.4358 17.6436C18.0311 17.317 17.7013 17.0219 17.6258 16.4769C17.617 15.8943 17.6726 15.5516 18.0209 15.0872C18.4627 14.7818 18.8413 14.6404 19.3693 14.5709C19.4345 14.5612 19.4997 14.5514 19.5668 14.5414C19.7728 14.5108 19.9789 14.4821 20.1851 14.4536C20.3926 14.4237 20.6 14.3933 20.8073 14.3628C20.9357 14.344 21.0642 14.3257 21.1928 14.3078C21.4537 14.2707 21.6886 14.2266 21.9393 14.1398C22.0524 13.9301 22.149 13.7269 22.2425 13.508C22.301 13.377 22.3595 13.2461 22.418 13.1151C22.5089 12.9088 22.5993 12.7022 22.689 12.4952C23.1966 11.33 23.7876 10.1486 25.2233 10.5975ZM24.4907 11.6764C24.0606 12.3528 23.7222 13.0695 23.3801 13.7963C23.2673 14.0361 23.1539 14.2756 23.0402 14.515C22.9906 14.6204 22.941 14.7257 22.8899 14.8342C22.7594 15.0872 22.7594 15.0872 22.5771 15.2767C22.3144 15.3298 22.0564 15.3727 21.7915 15.4096C21.6314 15.4336 21.4713 15.4575 21.3112 15.4816C21.0583 15.5185 20.8053 15.5551 20.5523 15.5913C20.3084 15.6264 20.0647 15.663 19.821 15.6997C19.7074 15.7153 19.7074 15.7153 19.5914 15.7312C19.2157 15.7884 19 15.8302 18.7499 16.1294C18.8974 16.5242 19.1766 16.7785 19.465 17.0643C19.572 17.1727 19.679 17.2811 19.7859 17.3896C19.9543 17.5593 20.1229 17.7287 20.2923 17.8972C20.4561 18.0607 20.6184 18.2256 20.7806 18.3907C20.8568 18.4654 20.8568 18.4654 20.9345 18.5415C21.2494 18.8646 21.3831 19.0786 21.3925 19.5403C21.3698 19.8174 21.328 20.0888 21.2818 20.3626C21.2695 20.4396 21.2573 20.5166 21.2446 20.596C21.2055 20.8403 21.1652 21.0844 21.1248 21.3286C21.098 21.4949 21.0712 21.6612 21.0446 21.8275C20.9792 22.2338 20.9128 22.6398 20.8458 23.0458C20.9661 23.1396 21.0863 23.2334 21.2103 23.3301C21.4173 23.2238 21.6242 23.1171 21.831 23.0103C21.8955 22.9772 21.96 22.9441 22.0264 22.91C22.3986 22.7176 22.7652 22.5182 23.1281 22.3075C23.2423 22.2421 23.2423 22.2421 23.3588 22.1753C23.5072 22.0899 23.6549 22.0031 23.8017 21.9149C24.1281 21.7284 24.3405 21.6258 24.7178 21.6184C25.1309 21.749 25.4869 21.9398 25.8633 22.1576C26.0158 22.2436 26.1684 22.3294 26.321 22.4152C26.3962 22.4577 26.4713 22.5002 26.5487 22.544C26.8676 22.722 27.1905 22.8908 27.5149 23.0577C27.6176 23.1107 27.7204 23.1637 27.8263 23.2183C27.8983 23.2552 27.9703 23.2921 28.0445 23.3301C28.1347 23.2675 28.2249 23.205 28.3179 23.1406C28.2848 22.2443 28.1474 21.3806 27.9873 20.5006C27.7629 19.2387 27.7629 19.2387 27.999 18.8297C28.1802 18.6412 28.3627 18.468 28.5567 18.2945C28.961 17.9278 29.3516 17.5488 29.736 17.1598C29.803 17.0944 29.87 17.0291 29.9391 16.9618C30.0018 16.8979 30.0646 16.834 30.1293 16.7682C30.1862 16.7114 30.2432 16.6546 30.3018 16.5961C30.44 16.4129 30.44 16.4129 30.3859 16.1546C30.365 16.0838 30.3441 16.0129 30.3226 15.9399C29.8756 15.7971 29.4382 15.7022 28.9743 15.6383C28.8405 15.6187 28.7068 15.599 28.5731 15.5793C28.3648 15.5491 28.1565 15.5192 27.948 15.4901C27.7451 15.4616 27.5424 15.4316 27.3397 15.4014C27.2774 15.3931 27.215 15.3848 27.1508 15.3763C26.911 15.3398 26.7178 15.3057 26.5167 15.1605C26.3652 14.934 26.2486 14.7002 26.1313 14.4525C26.0804 14.3457 26.0294 14.2389 25.977 14.1288C25.8981 13.9613 25.8981 13.9613 25.8177 13.7904C25.7655 13.6805 25.7133 13.5707 25.6595 13.4575C25.6084 13.3501 25.5574 13.2427 25.5048 13.132C25.4554 13.0282 25.4059 12.9245 25.355 12.8176C25.2722 12.6412 25.1914 12.4637 25.1139 12.2846C25.0175 12.0568 25.0175 12.0568 24.8552 11.7711C24.6684 11.7006 24.6684 11.7006 24.4907 11.6764Z" fill="#2E2E2E"/>
<path d="M14.1543 10.1045C14.8477 10.5956 15.2197 11.2103 15.5404 11.9905C15.743 13.197 15.6019 14.2345 14.896 15.2439C14.3816 15.8671 13.6959 16.2524 12.9255 16.4639C11.7963 16.5664 10.8298 16.4875 9.92629 15.7381C9.11245 14.9546 8.67357 14.1605 8.625 13.004C8.66831 11.9393 9.11768 11.0591 9.87052 10.3325C11.1258 9.27699 12.782 9.25237 14.1543 10.1045ZM10.2892 11.7492C9.90542 12.3256 9.87762 12.8848 9.95108 13.5609C10.1335 14.231 10.5892 14.6712 11.1408 15.0624C11.7297 15.3473 12.3344 15.3496 12.944 15.1375C13.5342 14.8868 13.9104 14.5327 14.2144 13.9613C14.4574 13.2226 14.4665 12.5675 14.1179 11.865C13.7921 11.3486 13.3082 10.9756 12.7256 10.7967C11.692 10.5933 10.9507 10.955 10.2892 11.7492Z" fill="#2E2E2E"/>
<path d="M9.12193 28.5047C9.17668 28.5031 9.23142 28.5016 9.28782 28.5C9.33613 28.511 9.38443 28.522 9.4342 28.5334C9.68772 28.9811 9.61592 29.4778 9.61472 30.0039C9.61598 30.1143 9.61724 30.2247 9.61854 30.3385C9.61859 30.4442 9.61864 30.5499 9.61869 30.6587C9.61904 30.8041 9.61904 30.8041 9.61939 30.9524C9.59033 31.1987 9.59033 31.1987 9.48609 31.3681C9.28343 31.5339 9.12713 31.5096 8.88774 31.4744C8.75777 31.3696 8.75777 31.3696 8.65354 31.1987C8.62447 30.9425 8.62447 30.9425 8.62518 30.6354C8.62523 30.5252 8.62528 30.4149 8.62533 30.3013C8.62659 30.1861 8.62785 30.0709 8.62914 29.9522C8.62889 29.8366 8.62864 29.7211 8.62838 29.602C8.63388 28.5078 8.63388 28.5078 9.12193 28.5047Z" fill="#2E2E2E"/>
</g>
<defs>
<clipPath id="clip0_5826_47908">
<rect width="35" height="35" fill="white" transform="translate(0.5 0.5)"/>
</clipPath>
</defs>
</svg>
