<svg width="36" height="36" viewBox="0 0 36 36" fill="none" xmlns="http://www.w3.org/2000/svg">
<g clip-path="url(#clip0_5826_47922)">
<path d="M17.9569 0.474647C18.0471 0.474702 18.0471 0.474702 18.1392 0.474759C21.7257 0.484926 24.964 1.96468 27.4852 4.49183C29.5653 6.6411 30.9544 9.71013 31.0135 12.7152C31.0161 12.7653 31.0186 12.8154 31.0213 12.8671C31.0257 13.142 31.0011 13.2665 30.8301 13.4856C30.5986 13.6613 30.4573 13.6936 30.1676 13.6936C29.9098 13.6094 29.7928 13.5445 29.6471 13.3145C29.5298 13.0222 29.5089 12.7621 29.4882 12.4504C29.2274 9.37943 27.7333 6.54495 25.3768 4.55725C22.9544 2.62844 19.8611 1.66177 16.7691 2.00419C13.7934 2.34479 10.9338 3.82694 9.04452 6.17411C7.1771 8.59885 6.22549 11.5092 6.53605 14.5834C6.59186 14.978 6.68069 15.3611 6.78866 15.7444C6.81172 15.8264 6.81172 15.8264 6.83526 15.91C6.94541 16.2917 7.06881 16.6679 7.19882 17.0433C7.21412 17.0883 7.22942 17.1333 7.24518 17.1797C7.97449 19.3066 9.09977 21.2841 10.2803 23.1878C10.3954 23.3742 10.509 23.5614 10.6216 23.7494C11.0348 24.4386 11.4765 25.1042 11.9361 25.7633C12.0537 25.932 12.1708 26.1011 12.2879 26.2702C13.6755 28.2698 15.1608 30.1981 16.7008 32.0823C16.7573 32.1516 16.8139 32.2208 16.8722 32.2922C17.02 32.473 17.168 32.6536 17.316 32.8343C17.4314 32.9752 17.5467 33.1162 17.6621 33.2572C17.7136 33.3202 17.7652 33.3833 17.8183 33.4482C17.8556 33.4937 17.8928 33.5393 17.9312 33.5862C18.2102 33.4801 18.3672 33.2811 18.5507 33.0564C18.5835 33.017 18.6163 32.9775 18.6501 32.9369C18.9112 32.621 19.165 32.2995 19.4167 31.9761C19.6593 31.6648 19.9074 31.3582 20.1572 31.0527C20.5058 30.6253 20.8462 30.1931 21.1799 29.7539C21.2986 29.5981 21.418 29.443 21.5375 29.2879C22.0714 28.5929 22.5922 27.8916 23.0918 27.1716C23.1995 27.0172 23.3083 26.8636 23.4173 26.7102C24.964 24.5294 26.4607 22.2433 27.6052 19.8217C27.6252 19.7795 27.6452 19.7372 27.6658 19.6937C27.7629 19.4883 27.8587 19.2824 27.9528 19.0756C27.9872 19.0017 28.0215 18.9277 28.057 18.8516C28.0868 18.7861 28.1165 18.7207 28.1472 18.6532C28.2952 18.4104 28.4709 18.2362 28.7512 18.1666C29.0508 18.1672 29.1723 18.1751 29.4156 18.3677C29.6188 18.6344 29.6389 18.7727 29.5963 19.1092C29.5041 19.5076 29.3073 19.8667 29.1251 20.2305C29.0816 20.3188 29.0382 20.407 28.9948 20.4953C28.6281 21.2356 28.2317 21.9575 27.8139 22.6701C27.71 22.848 27.608 23.0268 27.5064 23.206C26.4937 24.9741 25.3197 26.6746 24.122 28.3225C24.0669 28.3986 24.0669 28.3986 24.0107 28.4761C22.8586 30.0615 21.6486 31.6034 20.4135 33.1248C20.3761 33.1709 20.3387 33.2169 20.3002 33.2644C20.264 33.3089 20.2278 33.3534 20.1906 33.3993C20.1426 33.4583 20.1426 33.4583 20.0937 33.5185C19.9436 33.7014 19.7919 33.883 19.6402 34.0647C19.6934 34.0648 19.7466 34.0649 19.8014 34.065C20.3033 34.0662 20.8052 34.0691 21.3071 34.0738C21.5651 34.0761 21.8231 34.0778 22.0811 34.0781C22.3302 34.0784 22.5793 34.0803 22.8284 34.0834C22.9233 34.0843 23.0182 34.0846 23.1132 34.0843C23.2463 34.084 23.3795 34.0859 23.5127 34.088C23.5885 34.0885 23.6642 34.0889 23.7423 34.0894C24.0127 34.1472 24.1156 34.264 24.2887 34.4749C24.3832 34.7468 24.3634 34.866 24.2716 35.1414C24.1519 35.3636 24.1519 35.3636 23.9469 35.5003C23.7368 35.5181 23.7368 35.5181 23.4729 35.519C23.4244 35.5194 23.3759 35.5197 23.326 35.5201C23.163 35.5211 23.0001 35.5212 22.8371 35.5212C22.7205 35.5217 22.6038 35.5223 22.4871 35.5229C22.1699 35.5245 21.8527 35.5251 21.5355 35.5254C21.3374 35.5256 21.1392 35.5261 20.9411 35.5266C20.2502 35.5282 19.5592 35.5291 18.8683 35.5294C18.2239 35.5296 17.5795 35.5317 16.9351 35.5345C16.3821 35.5369 15.8292 35.538 15.2762 35.538C14.9458 35.5381 14.6154 35.5387 14.285 35.5406C13.9743 35.5424 13.6636 35.5425 13.3528 35.5414C13.2388 35.5413 13.1247 35.5418 13.0107 35.5429C12.8549 35.5443 12.6993 35.5435 12.5436 35.5423C12.4129 35.5425 12.4129 35.5425 12.2796 35.5427C11.9919 35.489 11.8908 35.3841 11.7105 35.1585C11.6651 34.9876 11.6651 34.9876 11.6678 34.8167C11.6665 34.7321 11.6665 34.7321 11.6651 34.6458C11.7311 34.3976 11.8571 34.2962 12.0523 34.1331C12.2569 34.0894 12.2569 34.0894 12.4865 34.088C12.5727 34.0867 12.6589 34.0853 12.7477 34.084C12.841 34.0842 12.9344 34.0845 13.0278 34.0848C13.1239 34.0839 13.2199 34.0828 13.316 34.0816C13.5681 34.0789 13.8201 34.0782 14.0722 34.0779C14.3297 34.0773 14.5873 34.0747 14.8448 34.0723C15.3495 34.0679 15.8542 34.0657 16.359 34.0647C16.309 34.006 16.2589 33.9472 16.2074 33.8867C15.8783 33.4994 15.5504 33.1126 15.2396 32.7104C14.9697 32.3629 14.694 32.0209 14.415 31.6807C14.0112 31.1868 13.6268 30.6803 13.2472 30.1677C13.1466 30.0323 13.0453 29.8975 12.9437 29.7629C12.1064 28.6539 11.3032 27.5244 10.5259 26.3725C10.4279 26.2274 10.3295 26.0825 10.2309 25.9377C8.18627 22.9202 6.2012 19.5761 5.28475 16.0179C5.26951 15.9596 5.25426 15.9014 5.23856 15.8414C4.47974 12.8108 5.23405 9.46038 6.7702 6.79659C7.66996 5.3046 8.8686 3.98662 10.275 2.96122C10.3143 2.93251 10.3537 2.90381 10.3942 2.87423C12.6186 1.27524 15.2279 0.468291 17.9569 0.474647Z" fill="#2E2E2E"/>
<path d="M23.9469 5.90064C24.3053 6.2029 24.6452 6.52176 24.9723 6.85767C25.0061 6.88842 25.04 6.91918 25.0748 6.95086C26.7704 8.53256 27.5554 11.0248 27.6383 13.2834C27.6644 15.7741 26.7992 18.1955 25.0778 20.011C23.6945 21.4176 22.2233 22.3129 20.3239 22.8538C20.2777 22.8671 20.2316 22.8804 20.1841 22.8941C18.7422 23.2865 16.8923 23.1962 15.4704 22.7854C15.4201 22.7718 15.3699 22.7583 15.3182 22.7443C13.773 22.3207 12.4571 21.4862 11.3004 20.3928C11.245 20.3418 11.1896 20.2908 11.1325 20.2382C9.57168 18.7512 8.51897 16.5082 8.41832 14.3456C8.41518 14.0741 8.41248 13.8027 8.41225 13.5313C8.4122 13.4821 8.41216 13.433 8.41211 13.3824C8.41321 12.6447 8.44844 11.9501 8.63442 11.2327C8.64506 11.1877 8.6557 11.1427 8.66666 11.0963C8.94594 9.92262 9.47887 8.77744 10.2067 7.8147C10.2519 7.75443 10.2971 7.69415 10.3437 7.63205C11.6627 5.95102 13.4003 4.75059 15.4704 4.19165C15.5194 4.17748 15.5685 4.1633 15.6191 4.14869C18.4304 3.35787 21.6849 4.08739 23.9469 5.90064ZM12.1891 7.74634C12.146 7.78441 12.1029 7.82248 12.0585 7.8617C10.7768 9.02523 9.95257 11.0503 9.85227 12.7446C9.75548 15.1815 10.3965 17.2831 12.0524 19.094C12.1014 19.1486 12.1504 19.2033 12.2009 19.2596C12.9312 20.0339 13.821 20.5788 14.7868 21.0081C14.8596 21.041 14.9325 21.074 15.0076 21.1079C16.9807 21.9332 19.2137 21.8397 21.1744 21.0412C23.0863 20.2248 24.6919 18.6858 25.5192 16.7698C25.7923 16.0708 26.0636 15.333 26.1344 14.5823C26.1388 14.5374 26.1432 14.4926 26.1477 14.4464C26.3475 12.2692 25.7938 10.156 24.4254 8.42993C24.2269 8.19556 24.0209 7.96979 23.8102 7.74634C23.7683 7.70008 23.7265 7.65381 23.6834 7.60615C22.3007 6.13505 20.2108 5.35512 18.2221 5.28567C15.9067 5.25574 13.8326 6.14533 12.1891 7.74634Z" fill="#2E2E2E"/>
<path d="M16.2142 7.97721C16.3107 7.97592 16.3107 7.97592 16.4093 7.97461C16.4782 7.97552 16.5471 7.97642 16.6182 7.97736C16.6901 7.97719 16.762 7.97703 16.8361 7.97686C16.9883 7.97692 17.1405 7.97784 17.2927 7.97954C17.5233 7.98187 17.7538 7.98096 17.9844 7.97963C19.0245 7.9803 19.8184 8.05143 20.666 8.70394C20.7291 8.7502 20.7291 8.7502 20.7934 8.7974C21.4994 9.35156 21.8678 10.1429 21.9905 11.0153C22.0943 11.8934 21.9342 12.753 21.3966 13.4677C21.3137 13.5669 21.2297 13.6652 21.1446 13.7625C21.0933 13.8258 21.0933 13.8258 21.041 13.8904C20.5883 14.4037 19.8835 14.6972 19.2305 14.8563C19.0477 14.8671 18.8727 14.8724 18.6903 14.8696C18.6409 14.8694 18.5915 14.8692 18.5406 14.8691C18.3846 14.8683 18.2287 14.8666 18.0727 14.8648C17.9662 14.8641 17.8597 14.8635 17.7532 14.863C17.4936 14.8615 17.2341 14.8591 16.9746 14.8563C16.9751 14.8946 16.9756 14.9329 16.976 14.9724C16.9806 15.3728 16.9837 15.7731 16.9859 16.1735C16.9869 16.3227 16.9883 16.472 16.9901 16.6212C16.9926 16.8362 16.9938 17.0512 16.9947 17.2662C16.9957 17.3325 16.9968 17.3988 16.9979 17.4672C16.998 17.8575 16.9631 18.1369 16.7696 18.4793C16.5542 18.6229 16.4809 18.6395 16.2312 18.646C16.1736 18.6487 16.116 18.6514 16.0566 18.6542C15.8635 18.6123 15.7482 18.5508 15.612 18.4068C15.4367 18.0879 15.492 17.6857 15.4949 17.331C15.4944 17.2338 15.4938 17.1367 15.4931 17.0395C15.4915 16.7761 15.4921 16.5127 15.4932 16.2493C15.494 15.9735 15.4932 15.6977 15.4927 15.4218C15.4921 14.9587 15.4929 14.4955 15.4945 14.0323C15.4964 13.497 15.4958 12.9618 15.4939 12.4265C15.4924 11.9667 15.4921 11.5069 15.493 11.0471C15.4936 10.7726 15.4936 10.498 15.4925 10.2235C15.4915 9.9654 15.4922 9.70733 15.4942 9.44921C15.4946 9.35456 15.4945 9.2599 15.4937 9.16524C15.4879 8.36113 15.4879 8.36113 15.6919 8.13499C15.8882 8.01592 15.9873 7.97747 16.2142 7.97721ZM16.9746 9.38753C16.9746 10.7411 16.9746 12.0946 16.9746 13.4891C18.6537 13.5704 18.6537 13.5704 20.0361 12.8258C20.4206 12.4064 20.5958 11.9366 20.5977 11.37C20.5538 10.8276 20.311 10.3224 19.9192 9.94402C19.0235 9.24136 18.1198 9.38753 16.9746 9.38753Z" fill="#2E2E2E"/>
<path d="M30.3051 15.3345C30.501 15.5018 30.6205 15.6249 30.6771 15.8813C30.6919 16.1338 30.6543 16.2799 30.5187 16.4923C30.3234 16.6819 30.2078 16.7157 29.942 16.7273C29.6967 16.7233 29.6292 16.7068 29.4164 16.5649C29.2481 16.3124 29.1805 16.1166 29.2114 15.813C29.3196 15.5965 29.4181 15.4576 29.6044 15.3045C29.8495 15.2433 30.0682 15.2552 30.3051 15.3345Z" fill="#2E2E2E"/>
</g>
<defs>
<clipPath id="clip0_5826_47922">
<rect width="35" height="35" fill="white" transform="translate(0.5 0.5)"/>
</clipPath>
</defs>
</svg>
