<svg width="36" height="36" viewBox="0 0 36 36" fill="none" xmlns="http://www.w3.org/2000/svg">
<path d="M9.04497 5.07972C9.20732 5.18653 9.20732 5.18653 9.3184 5.35316C9.35868 5.58013 9.37733 5.68714 9.3184 5.90003C9.11123 6.12648 8.89533 6.27296 8.64149 6.44343C8.56879 6.49252 8.49609 6.5416 8.42119 6.59217C8.38326 6.61776 8.34534 6.64335 8.30627 6.66971C7.88759 6.95857 7.52289 7.29978 7.15834 7.65314C7.07624 7.7325 6.99287 7.81055 6.90927 7.88833C6.62882 8.15526 6.38598 8.44503 6.14824 8.74976C6.11888 8.78716 6.08952 8.82457 6.05927 8.8631C5.89738 9.07558 5.78897 9.2742 5.69536 9.52308C5.74148 9.54992 5.7876 9.57677 5.83511 9.60442C6.04775 9.72822 6.26035 9.85209 6.47295 9.97596C6.54547 10.0182 6.61799 10.0604 6.69271 10.1039C6.90733 10.229 7.12173 10.3544 7.33598 10.4801C7.40199 10.5188 7.468 10.5574 7.536 10.5973C7.5968 10.6333 7.6576 10.6692 7.72024 10.7063C7.77376 10.7379 7.82729 10.7695 7.88244 10.802C8.07218 10.9241 8.18963 11.0302 8.29301 11.2321C8.29301 11.5 8.26241 11.6539 8.11357 11.8772C7.94164 11.9903 7.83028 12.0206 7.62544 12.0156C7.26625 11.9414 6.95198 11.7195 6.63957 11.5354C6.53085 11.473 6.53085 11.473 6.41994 11.4092C6.20055 11.2829 5.98207 11.1551 5.76372 11.027C5.6088 10.9366 5.4538 10.8463 5.29882 10.7559C5.18034 10.6868 5.06187 10.6176 4.9434 10.5485C4.92529 10.6044 4.92529 10.6044 4.9068 10.6614C4.80074 10.9847 4.68651 11.3031 4.56401 11.6205C3.50493 14.3866 3.63188 17.372 4.83579 20.0721C4.85653 20.1175 4.87726 20.1629 4.89863 20.2097C4.9434 20.3239 4.9434 20.3239 4.9434 20.4606C5.50544 20.156 6.06441 19.8461 6.62302 19.5353C6.67246 19.508 6.72191 19.4807 6.77285 19.4525C6.87966 19.3927 6.98578 19.3316 7.09135 19.2697C7.14529 19.2384 7.19923 19.2071 7.25481 19.1748C7.30336 19.1462 7.35191 19.1175 7.40194 19.0879C7.62687 18.9862 7.79033 19.02 8.01958 19.0934C8.21746 19.2121 8.22557 19.302 8.28447 19.5292C8.29438 19.8165 8.25816 19.8928 8.08794 20.1188C7.89654 20.2536 7.89654 20.2536 7.66603 20.3818C7.62497 20.405 7.58391 20.4281 7.54161 20.4519C7.41084 20.5254 7.27945 20.5977 7.14799 20.6699C7.06072 20.7187 6.97349 20.7675 6.88631 20.8164C6.72468 20.9069 6.56279 20.9969 6.40065 21.0865C6.16442 21.2178 5.92976 21.3515 5.69536 21.486C5.79491 21.7792 5.94997 22.0056 6.13969 22.2465C6.16997 22.2852 6.20024 22.3239 6.23143 22.3638C6.7463 23.0146 7.29291 23.577 7.95122 24.0836C8.0144 24.1342 8.07758 24.1848 8.14268 24.2369C9.94923 25.6499 12.016 26.206 14.2403 26.5446C14.2397 26.5066 14.2391 26.4687 14.2384 26.4296C14.2324 26.0349 14.2283 25.6401 14.2253 25.2453C14.2239 25.098 14.222 24.9506 14.2197 24.8033C14.2163 24.5915 14.2148 24.3798 14.2136 24.168C14.2122 24.1021 14.2108 24.0363 14.2093 23.9684C14.2091 23.5114 14.2091 23.5114 14.3683 23.2917C14.54 23.1775 14.6492 23.1367 14.8555 23.1266C15.1315 23.1989 15.2527 23.2971 15.4024 23.5368C15.4271 23.6838 15.4271 23.6838 15.4257 23.8439C15.4257 23.9041 15.4256 23.9643 15.4256 24.0263C15.424 24.1229 15.424 24.1229 15.4224 24.2214C15.4221 24.2878 15.4218 24.3542 15.4215 24.4225C15.4204 24.6343 15.4178 24.846 15.4152 25.0577C15.4142 25.2014 15.4132 25.3451 15.4124 25.4887C15.4101 25.8407 15.4066 26.1926 15.4024 26.5446C15.702 26.5041 16.0012 26.4617 16.3003 26.4173C16.402 26.4025 16.5039 26.3883 16.6058 26.3746C16.7523 26.3548 16.8984 26.3331 17.0446 26.3109C17.1327 26.2984 17.2207 26.2859 17.3115 26.2729C17.5334 26.2254 17.5334 26.2254 17.6099 26.0389C17.6259 25.9802 17.6418 25.9215 17.6582 25.861C17.7703 25.7024 17.8832 25.5508 18.0043 25.3995C18.055 25.3361 18.055 25.3361 18.1066 25.2713C18.8001 24.4136 20.0956 23.0672 21.2642 22.9044C21.5999 22.942 21.79 23.1973 22.0084 23.4347C22.6975 24.179 23.6538 24.5752 24.6565 24.6412C25.7724 24.6801 26.8018 24.3119 27.6174 23.5538C27.7803 23.398 27.9399 23.2398 28.0913 23.0727C28.2342 22.9472 28.378 22.9455 28.5621 22.9533C29.5205 23.1591 30.4481 24.0276 31.125 24.6989C31.2323 24.9134 31.2175 25.0775 31.1934 25.3141C31.0255 25.5532 30.9153 25.6384 30.6337 25.7157C30.2884 25.6364 30.1336 25.461 29.8828 25.2182C29.6725 25.025 29.4541 24.8609 29.2195 24.6989C29.1464 24.6481 29.0732 24.5973 28.9979 24.5451C28.7764 24.4018 28.7764 24.4018 28.5274 24.3571C28.387 24.4534 28.387 24.4534 28.254 24.5963C27.4747 25.3247 26.5072 25.7144 25.4512 25.7926C25.453 25.8488 25.4548 25.905 25.4566 25.9629C25.4638 26.218 25.4682 26.4731 25.4726 26.7283C25.4754 26.8167 25.4783 26.9051 25.4813 26.9962C25.4824 27.0815 25.4835 27.1668 25.4846 27.2546C25.4873 27.3722 25.4873 27.3722 25.49 27.4922C25.4391 27.7738 25.331 27.8733 25.1094 28.0485C24.8702 28.0912 24.8702 28.0912 24.6309 28.0485C24.4093 27.8733 24.3013 27.7738 24.2503 27.4922C24.2521 27.4138 24.2539 27.3354 24.2557 27.2546C24.2574 27.1267 24.2574 27.1267 24.2591 26.9962C24.2619 26.9078 24.2648 26.8194 24.2677 26.7283C24.2693 26.6385 24.2708 26.5488 24.2724 26.4563C24.2764 26.235 24.2821 26.0138 24.2891 25.7926C24.2461 25.7898 24.203 25.7869 24.1586 25.784C23.7677 25.7524 23.4275 25.6885 23.0629 25.5448C23.0162 25.5267 22.9694 25.5087 22.9213 25.49C22.3118 25.2452 21.7972 24.9109 21.3462 24.4316C21.2091 24.3361 21.2091 24.3361 21.018 24.3944C19.4697 25.109 18.4183 26.7345 17.795 28.2535C17.6789 28.5724 17.5771 28.8715 17.6582 29.2106C17.7826 29.4116 17.953 29.5429 18.1368 29.6891C18.1705 29.7169 18.2043 29.7446 18.2391 29.7732C19.8084 31.0518 21.6021 31.4892 23.598 31.487C23.6992 31.4873 23.8004 31.4876 23.9016 31.4879C24.112 31.4884 24.3225 31.4884 24.533 31.488C24.7459 31.4877 24.9588 31.4882 25.1717 31.4894C27.6529 31.5038 29.8053 31.2416 31.7403 29.5524C31.8055 29.4984 31.8707 29.4445 31.9379 29.389C32.1015 29.2182 32.1015 29.2182 32.1128 28.9791C32.0434 28.4213 31.8117 27.896 31.548 27.4033C31.4053 27.1269 31.3366 26.9283 31.3985 26.6129C31.564 26.3841 31.6633 26.2875 31.9411 26.2284C32.2118 26.2837 32.3742 26.4171 32.5606 26.6129C32.6571 26.7763 32.7348 26.9232 32.8084 27.0957C32.8283 27.1409 32.8482 27.1861 32.8688 27.2327C32.9271 27.3673 32.9834 27.5026 33.0391 27.6383C33.0842 27.7451 33.0842 27.7451 33.1302 27.8541C33.347 28.4241 33.4646 29.1136 33.2271 29.6976C32.559 30.791 31.3008 31.5044 30.168 32.0133C30.0951 32.0464 30.0221 32.0794 29.9469 32.1134C28.7389 32.6178 27.4579 32.7077 26.1642 32.7084C26.0623 32.7086 25.9604 32.7088 25.8585 32.7091C25.6458 32.7095 25.4331 32.7096 25.2204 32.7096C24.9514 32.7096 24.6823 32.7105 24.4132 32.7117C24.2029 32.7124 23.9926 32.7126 23.7822 32.7125C23.6832 32.7126 23.5842 32.7129 23.4852 32.7135C22.5533 32.718 21.6072 32.6636 20.7045 32.4149C20.6512 32.4004 20.5978 32.3859 20.5429 32.3709C19.3035 32.0157 18.1933 31.3991 17.2582 30.5099C17.1102 30.3673 17.1102 30.3673 16.9314 30.2336C16.6654 30.0128 16.537 29.7433 16.4278 29.4157C16.3749 28.765 16.4628 28.242 16.7012 27.6383C16.6436 27.643 16.586 27.6478 16.5267 27.6527C14.0537 27.8443 11.6995 27.659 9.45512 26.5446C9.40995 26.5225 9.36478 26.5005 9.31824 26.4778C6.54645 25.1151 4.41948 22.535 3.39092 19.6419C3.19202 19.0569 3.02933 18.4653 2.89262 17.8629C2.88133 17.8163 2.87004 17.7696 2.85841 17.7215C2.49476 16.171 2.50557 14.2117 2.89262 12.6676C2.9062 12.6111 2.91979 12.5546 2.93378 12.4964C3.42846 10.4836 4.40602 8.6995 5.83208 7.19886C5.86476 7.16432 5.89744 7.12977 5.93111 7.09418C8.09047 4.82648 8.09047 4.82648 9.04497 5.07972Z" fill="#2E2E2E"/>
<path d="M21.8965 5.55936C21.957 5.60182 21.957 5.60182 22.0188 5.64514C24.4297 7.36321 26.1369 10.0073 26.7205 12.9049C26.8189 13.3668 26.9962 13.4744 27.3738 13.7283C28.0484 14.2167 28.4829 14.844 28.8008 15.6082C28.824 15.663 28.8473 15.7178 28.8713 15.7743C29.3483 17.1567 28.9264 18.7355 28.3135 19.9987C28.2938 20.0387 28.2742 20.0787 28.2539 20.1199C28.203 20.2246 28.203 20.2246 28.1511 20.3314C27.9177 20.7843 27.6331 21.1734 27.2969 21.5555C27.2497 21.6091 27.2026 21.6628 27.154 21.7181C26.6109 22.2985 25.9433 22.7333 25.1382 22.8089C24.0835 22.8201 23.3768 22.4816 22.6185 21.7648C21.3503 20.4837 20.7165 18.7197 20.7126 16.939C20.7194 16.4024 20.7929 15.9677 21.0078 15.4715C21.0318 15.4124 21.0557 15.3534 21.0804 15.2926C21.5159 14.3219 22.3048 13.6235 23.2781 13.2177C24.0338 12.9383 24.7239 12.9183 25.5195 12.9422C25.4361 12.6956 25.3519 12.4493 25.2675 12.203C25.2442 12.1343 25.221 12.0657 25.1971 11.9949C25.0345 11.5223 24.8458 11.0691 24.6309 10.618C23.9813 10.93 23.3671 11.285 22.7551 11.665C22.0979 12.0599 22.0979 12.0599 21.6914 11.9851C21.439 11.8079 21.3613 11.7089 21.3069 11.4041C21.3589 11.1128 21.466 10.9985 21.6914 10.823C21.9405 10.6655 22.1975 10.5241 22.4562 10.383C22.5925 10.3077 22.7288 10.2323 22.865 10.1568C22.9311 10.1202 22.9972 10.0837 23.0654 10.046C23.3631 9.87835 23.6556 9.70224 23.9473 9.5242C22.813 7.35017 20.4145 5.79659 18.1469 5.05569C17.2494 4.77862 16.3339 4.6347 15.4023 4.53397C15.4031 4.62158 15.4038 4.70919 15.4045 4.79946C15.407 5.12458 15.4086 5.44969 15.4099 5.77482C15.4105 5.91552 15.4115 6.05622 15.4127 6.19692C15.4143 6.39919 15.4151 6.60144 15.4157 6.80371C15.4164 6.8666 15.4171 6.92948 15.4178 6.99428C15.4178 7.05311 15.4179 7.11193 15.4179 7.17255C15.4182 7.22416 15.4185 7.27577 15.4188 7.32895C15.3996 7.49789 15.3566 7.60347 15.2656 7.74686C15.0092 7.91778 14.8856 7.92022 14.582 7.88358C14.3854 7.74538 14.2594 7.63698 14.2107 7.39459C14.2006 7.21224 14.2018 7.033 14.2069 6.85044C14.2073 6.78417 14.2078 6.71789 14.2083 6.6496C14.2102 6.43852 14.2145 6.22756 14.2189 6.01651C14.2206 5.87316 14.2221 5.72981 14.2235 5.58646C14.2273 5.23558 14.2332 4.8848 14.2402 4.53397C13.1796 4.65442 12.1566 4.81152 11.1435 5.15801C10.9083 5.23391 10.726 5.24484 10.4805 5.21756C10.2566 5.07026 10.2137 4.96708 10.1387 4.70914C10.1387 4.46561 10.1387 4.46561 10.2409 4.29257C10.4632 4.07348 10.6689 4.00392 10.9633 3.91446C11.0175 3.89734 11.0718 3.88023 11.1277 3.86259C14.7909 2.74143 18.7657 3.34727 21.8965 5.55936ZM22.5678 15.1112C21.9386 15.8957 21.811 16.7508 21.8965 17.7273C22.104 18.9603 22.7321 20.4237 23.7422 21.2137C24.2407 21.5332 24.6497 21.6844 25.2461 21.6238C26.0739 21.3939 26.6873 20.558 27.0918 19.8465C27.6759 18.7393 28.0942 17.4441 27.7668 16.1935C27.4845 15.42 27.0071 14.8052 26.2758 14.4204C24.9801 13.823 23.5585 14.0623 22.5678 15.1112Z" fill="#2E2E2E"/>
<path d="M14.8257 12.4238C15.0935 12.4677 15.1718 12.5235 15.3341 12.7357C15.4212 12.91 15.4107 13.0317 15.4102 13.2268C15.4102 13.3007 15.4102 13.3746 15.4102 13.4507C15.4098 13.5308 15.4095 13.6108 15.4091 13.6933C15.409 13.775 15.4089 13.8568 15.4088 13.941C15.4084 14.2029 15.4076 14.4648 15.4067 14.7267C15.4064 14.9039 15.4061 15.0811 15.4058 15.2583C15.405 15.6935 15.4039 16.1287 15.4024 16.5638C15.4752 16.5628 15.548 16.5617 15.6229 16.5606C15.8936 16.5569 16.1644 16.5545 16.4351 16.5526C16.5521 16.5515 16.6692 16.5501 16.7862 16.5484C16.9547 16.5459 17.1232 16.5447 17.2917 16.5438C17.3698 16.5422 17.3698 16.5422 17.4495 16.5406C17.7596 16.5405 17.9594 16.5753 18.2052 16.7689C18.3121 16.9828 18.3212 17.2208 18.2735 17.4525C18.136 17.6212 18.0525 17.7147 17.8367 17.7611C17.7762 17.7616 17.7157 17.762 17.6534 17.7624C17.5845 17.7635 17.5156 17.7646 17.4446 17.7657C17.3336 17.7652 17.3336 17.7652 17.2204 17.7647C17.144 17.7651 17.0677 17.7655 16.989 17.766C16.8277 17.7664 16.6663 17.7662 16.505 17.7654C16.2578 17.7644 16.0109 17.7667 15.7637 17.7693C15.607 17.7694 15.4502 17.7693 15.2935 17.7689C15.1825 17.7703 15.1825 17.7703 15.0693 17.7717C14.9659 17.7704 14.9659 17.7704 14.8605 17.7691C14.8 17.769 14.7395 17.769 14.6772 17.7689C14.4359 17.7055 14.3664 17.5954 14.2403 17.3842C14.2052 17.1715 14.2052 17.1715 14.2039 16.9303C14.2033 16.8862 14.2027 16.842 14.2021 16.7965C14.2005 16.6513 14.201 16.5061 14.2016 16.3609C14.2013 16.2595 14.2008 16.1581 14.2003 16.0568C14.1996 15.8446 14.1999 15.6325 14.2009 15.4203C14.2021 15.1488 14.2005 14.8774 14.1981 14.6059C14.1966 14.3967 14.1967 14.1875 14.1973 13.9782C14.1973 13.8781 14.1968 13.7781 14.1958 13.678C14.1946 13.5379 14.1956 13.398 14.1972 13.2579C14.1973 13.1783 14.1973 13.0987 14.1974 13.0168C14.2707 12.6537 14.4653 12.4807 14.8257 12.4238Z" fill="#2E2E2E"/>
</svg>
