<svg width="36" height="36" viewBox="0 0 36 36" fill="none" xmlns="http://www.w3.org/2000/svg">
<g clip-path="url(#clip0_5826_47893)">
<path d="M15.2046 1.78077C15.2592 1.78051 15.3139 1.78025 15.3703 1.77998C15.5529 1.77928 15.7355 1.77955 15.9181 1.77982C16.0493 1.77952 16.1804 1.77917 16.3116 1.77876C16.6675 1.77784 17.0234 1.7778 17.3794 1.77798C17.6767 1.77805 17.9739 1.77772 18.2712 1.77739C18.9727 1.77663 19.6741 1.7766 20.3756 1.77701C21.0989 1.77743 21.8221 1.77659 22.5454 1.77513C23.1667 1.77392 23.788 1.77352 24.4093 1.77374C24.7802 1.77386 25.1512 1.77368 25.5221 1.77273C25.871 1.77187 26.2198 1.77201 26.5687 1.7729C26.6966 1.77306 26.8245 1.77287 26.9523 1.77231C27.1272 1.77159 27.3021 1.77215 27.477 1.77301C27.5524 1.77226 27.5524 1.77226 27.6293 1.77148C28.1365 1.77674 28.5902 1.93104 28.9605 2.28765C29.3912 2.76598 29.3866 3.33799 29.3818 3.94993C29.3821 4.0414 29.3825 4.13287 29.3829 4.22434C29.3839 4.47109 29.3831 4.7178 29.382 4.96455C29.3811 5.22367 29.3815 5.48279 29.3817 5.74191C29.3819 6.17684 29.381 6.61176 29.3794 7.04669C29.3776 7.54851 29.3775 8.05031 29.3783 8.55213C29.379 9.03629 29.3786 9.52046 29.3776 10.0046C29.3772 10.21 29.3772 10.4155 29.3776 10.6209C29.3779 10.863 29.3772 11.1051 29.3757 11.3472C29.3752 11.4777 29.3756 11.6082 29.3761 11.7388C29.3717 12.2482 29.3395 12.6656 29.0346 13.092C28.9969 13.1283 28.9591 13.1645 28.9203 13.2018C28.8833 13.2389 28.8463 13.276 28.8081 13.3142C28.4228 13.596 28.0788 13.6546 27.6153 13.6448C27.5629 13.6445 27.5105 13.6442 27.4564 13.6439C27.2907 13.6428 27.125 13.6402 26.9592 13.6376C26.8461 13.6366 26.733 13.6356 26.62 13.6348C26.3442 13.6325 26.0685 13.629 25.7928 13.6248C25.7943 13.7103 25.7957 13.7958 25.7972 13.884C25.8021 14.2015 25.8053 14.5189 25.8079 14.8364C25.8092 14.9738 25.8111 15.1112 25.8135 15.2486C25.8168 15.4461 25.8183 15.6436 25.8195 15.8411C25.821 15.9025 25.8224 15.9639 25.8238 16.0271C25.824 16.4513 25.824 16.4513 25.6705 16.671C25.487 16.7904 25.3358 16.8126 25.118 16.8006C24.8459 16.742 24.6509 16.5825 24.4342 16.4147C24.3844 16.3778 24.3346 16.341 24.2833 16.3031C24.1781 16.2252 24.0733 16.1468 23.9688 16.068C23.7137 15.8764 23.4542 15.6909 23.1952 15.5046C23.0925 15.4303 22.9899 15.356 22.8873 15.2817C22.5384 15.0297 22.1869 14.7816 21.8345 14.5345C21.7909 14.5039 21.7472 14.4732 21.7022 14.4416C21.6589 14.4122 21.6156 14.3829 21.5709 14.3526C21.4178 14.24 21.4178 14.24 21.2748 14.1027C20.6637 13.5594 20.0374 13.6212 19.2659 13.6344C19.1303 13.6346 18.9947 13.6345 18.8592 13.6341C18.5041 13.6337 18.1492 13.6363 17.7941 13.6398C17.2253 13.6451 16.6565 13.6468 16.0877 13.6467C15.8898 13.6472 15.6921 13.6496 15.4942 13.6521C15.3723 13.6526 15.2504 13.653 15.1285 13.6534C15.0469 13.6552 15.0469 13.6552 14.9637 13.657C14.5198 13.6557 14.174 13.5224 13.8307 13.2392C13.7859 13.1847 13.7859 13.1847 13.7402 13.1292C13.7095 13.0936 13.6787 13.058 13.647 13.0213C13.3307 12.5025 13.3219 12.0262 13.3249 11.4327C13.3245 11.3443 13.3242 11.2559 13.3238 11.1648C13.3229 10.9235 13.3232 10.6823 13.3239 10.441C13.3244 10.1877 13.3239 9.93437 13.3236 9.68102C13.3232 9.25563 13.3237 8.83023 13.3247 8.40484C13.3258 7.91424 13.3255 7.42367 13.3243 6.93308C13.3234 6.51065 13.3233 6.08823 13.3238 5.66581C13.3241 5.41405 13.3242 5.1623 13.3235 4.91054C13.3228 4.62962 13.3238 4.34874 13.3249 4.06782C13.3245 3.98524 13.3241 3.90265 13.3236 3.81757C13.3282 3.21411 13.3846 2.65413 13.8299 2.20875C14.27 1.8739 14.6588 1.77798 15.2046 1.78077ZM14.5135 3.3025C14.4635 3.48248 14.4635 3.48248 14.4715 3.67654C14.4709 3.75082 14.4702 3.82509 14.4695 3.90161C14.4705 3.98241 14.4715 4.06321 14.4726 4.14646C14.4723 4.23208 14.472 4.3177 14.4718 4.40592C14.4714 4.64026 14.4725 4.8745 14.4744 5.10883C14.476 5.35422 14.4758 5.5996 14.4758 5.84498C14.4762 6.25695 14.4778 6.66891 14.4802 7.08087C14.4831 7.55706 14.4843 8.03323 14.4845 8.50942C14.4848 9.01664 14.4861 9.52385 14.4877 10.0311C14.4882 10.1771 14.4884 10.3232 14.4886 10.4693C14.4891 10.7414 14.4908 11.0136 14.4926 11.2857C14.4926 11.3667 14.4927 11.4476 14.4927 11.531C14.4934 11.6051 14.4941 11.6792 14.4948 11.7555C14.4951 11.8198 14.4954 11.8842 14.4958 11.9504C14.5146 12.131 14.5527 12.242 14.6503 12.3943C14.8723 12.5053 15.1167 12.4731 15.3608 12.4734C15.4201 12.4738 15.4795 12.4741 15.5407 12.4745C15.6699 12.4752 15.7991 12.4758 15.9283 12.4763C16.1329 12.4771 16.3374 12.4784 16.542 12.4799C17.1238 12.4841 17.7055 12.4878 18.2873 12.4901C18.643 12.4915 18.9986 12.4939 19.3542 12.497C19.4897 12.4979 19.6252 12.4985 19.7607 12.4988C19.9506 12.4991 20.1403 12.5007 20.3302 12.5025C20.4139 12.5022 20.4139 12.5022 20.4994 12.5019C20.9498 12.5085 21.256 12.6552 21.6178 12.9217C21.6661 12.9569 21.7143 12.9921 21.764 13.0284C21.8147 13.0659 21.8655 13.1034 21.9177 13.142C22.0272 13.222 22.1366 13.3019 22.2462 13.3818C22.3016 13.4222 22.357 13.4627 22.4141 13.5044C22.719 13.7257 23.0277 13.9418 23.3361 14.1582C23.6806 14.4004 24.0203 14.6482 24.357 14.9012C24.4856 15.0045 24.4856 15.0045 24.6307 14.992C24.6317 14.9316 24.6327 14.8713 24.6337 14.8091C24.6379 14.5842 24.643 14.3594 24.6487 14.1345C24.6509 14.0374 24.6529 13.9403 24.6544 13.8431C24.6567 13.7031 24.6603 13.5632 24.6641 13.4232C24.6659 13.339 24.6677 13.2549 24.6695 13.1682C24.7013 12.9245 24.7537 12.7923 24.9042 12.5994C25.0887 12.5379 25.1961 12.5222 25.3855 12.5213C25.4407 12.5208 25.4959 12.5204 25.5528 12.5199C25.6122 12.5196 25.6716 12.5193 25.7328 12.519C25.8586 12.5174 25.9844 12.5158 26.1102 12.5141C26.3085 12.5117 26.5068 12.5097 26.7052 12.5087C26.8966 12.5077 27.088 12.5049 27.2794 12.5019C27.3683 12.5021 27.3683 12.5021 27.4589 12.5023C27.5421 12.5006 27.5421 12.5006 27.6269 12.4989C27.6755 12.4985 27.724 12.4981 27.7741 12.4977C27.975 12.4466 28.0545 12.3477 28.1854 12.1892C28.2264 12.0134 28.2264 12.0134 28.2206 11.8182C28.2219 11.7052 28.2219 11.7052 28.2232 11.5899C28.2226 11.4664 28.2226 11.4664 28.2219 11.3405C28.2225 11.2535 28.2231 11.1666 28.2237 11.077C28.2252 10.8387 28.225 10.6005 28.2244 10.3622C28.224 10.1633 28.2245 9.96434 28.225 9.7654C28.2262 9.29612 28.226 8.82686 28.2248 8.35759C28.2237 7.87343 28.2247 7.38932 28.227 6.90517C28.2288 6.48943 28.2293 6.0737 28.2287 5.65796C28.2284 5.40967 28.2285 5.16142 28.2299 4.91314C28.2314 4.63636 28.2301 4.35967 28.2286 4.08289C28.2294 4.00057 28.2302 3.91824 28.231 3.83343C28.2301 3.75809 28.2293 3.68276 28.2284 3.60515C28.2283 3.53972 28.2283 3.47429 28.2282 3.40688C28.1967 3.22215 28.1967 3.22215 28.0451 3.07643C27.7958 2.93321 27.5915 2.92233 27.3117 2.92552C27.2586 2.92505 27.2056 2.92457 27.1509 2.92408C26.9732 2.92283 26.7956 2.92353 26.618 2.92424C26.4905 2.92375 26.363 2.92316 26.2356 2.92245C25.8896 2.92091 25.5435 2.92112 25.1975 2.92172C24.9087 2.92207 24.6199 2.92157 24.3311 2.92107C23.6499 2.91991 22.9686 2.92016 22.2874 2.9213C21.5844 2.92246 20.8814 2.92137 20.1783 2.91917C19.5748 2.91734 18.9714 2.91684 18.3679 2.91742C18.0074 2.91776 17.6469 2.91761 17.2864 2.91621C16.9475 2.91495 16.6086 2.91536 16.2697 2.91704C16.1453 2.91738 16.0209 2.91714 15.8965 2.91628C15.7267 2.91519 15.557 2.91621 15.3872 2.91776C15.3379 2.91695 15.2886 2.91614 15.2378 2.91531C14.8819 2.92192 14.7225 3.01706 14.5135 3.3025Z" fill="#2E2E2E"/>
<path d="M7.60952 23.3714C8.17548 23.8462 8.67411 24.4201 9.12757 25.0019C9.46298 25.2985 9.942 25.3772 10.3669 25.4729C10.4902 25.5018 10.6136 25.5307 10.737 25.5597C10.9292 25.6043 11.1214 25.6486 11.3138 25.6924C11.5011 25.7352 11.6881 25.7791 11.875 25.8232C11.9317 25.8358 11.9883 25.8483 12.0466 25.8613C12.6737 26.0107 13.2255 26.3033 13.6251 26.8193C13.9399 27.3404 14.1079 27.8476 14.0353 28.4599C13.9087 28.8643 13.6942 29.1081 13.3517 29.3486C12.7885 29.5363 12.0934 29.4285 11.506 29.4169C11.454 29.416 11.4021 29.415 11.3486 29.4141C11.0011 29.4074 10.6538 29.3976 10.3065 29.3846C10.1904 29.3805 10.0743 29.3773 9.95818 29.3748C9.14295 29.3561 8.58525 29.2235 7.88295 28.8017C7.67843 28.6867 7.47311 28.5733 7.26772 28.4599C7.26747 28.5259 7.26722 28.592 7.26696 28.66C7.26444 29.2826 7.26049 29.9052 7.25515 30.5278C7.25245 30.8479 7.25025 31.1679 7.24919 31.488C7.24816 31.797 7.24581 32.1059 7.24254 32.4148C7.24153 32.5327 7.24099 32.6505 7.24093 32.7683C7.24077 32.9335 7.23892 33.0985 7.23668 33.2636C7.23719 33.3366 7.23719 33.3366 7.23772 33.411C7.23269 33.6507 7.20279 33.7864 7.075 33.9916C6.8693 34.1877 6.72844 34.2021 6.44741 34.2021C6.24591 34.1101 6.13687 34.0595 6.03725 33.8603C6.02907 33.6514 6.02505 33.4441 6.02407 33.2352C6.02323 33.138 6.02323 33.138 6.02237 33.0388C6.02067 32.8237 6.01954 32.6086 6.01856 32.3935C6.01819 32.3201 6.01783 32.2468 6.01746 32.1712C6.01563 31.783 6.0143 31.3947 6.01332 31.0065C6.01218 30.6051 6.00912 30.2038 6.00564 29.8024C6.00334 29.4942 6.00255 29.1859 6.00216 28.8776C6.0017 28.7296 6.00066 28.5816 5.99902 28.4337C5.99687 28.2266 5.99686 28.0197 5.99736 27.8127C5.99624 27.7515 5.99512 27.6903 5.99397 27.6272C5.997 27.3252 6.00821 27.1993 6.19612 26.9516C6.43811 26.7765 6.56401 26.7776 6.85756 26.8193C7.08217 26.9101 7.08217 26.9101 7.31098 27.0363C7.35197 27.0586 7.39297 27.0809 7.43521 27.1038C7.56505 27.1747 7.69408 27.2469 7.82314 27.3191C7.91023 27.3669 7.99737 27.4146 8.08456 27.4621C8.72833 27.8148 8.72833 27.8148 8.93778 27.9593C9.16455 28.076 9.3746 28.0893 9.62452 28.0997C9.67369 28.1024 9.72287 28.1052 9.77354 28.108C9.9323 28.1166 10.0911 28.1238 10.2499 28.1309C10.3585 28.1364 10.467 28.142 10.5756 28.1476C11.3188 28.1844 12.0608 28.2043 12.8048 28.1864C12.7548 27.8413 12.6963 27.6343 12.463 27.3661C12.0442 27.1231 11.5858 27.0174 11.1167 26.9183C10.9775 26.8872 10.8384 26.856 10.6993 26.8247C10.4827 26.7768 10.266 26.7293 10.0491 26.6831C9.83774 26.6377 9.627 26.5902 9.41623 26.5423C9.35185 26.5292 9.28747 26.5161 9.22113 26.5026C8.76616 26.397 8.52098 26.2201 8.22475 25.8622C8.18192 25.8153 8.1391 25.7683 8.09497 25.7199C8.06167 25.6809 8.02836 25.6418 7.99404 25.6016C7.95465 25.5561 7.91526 25.5107 7.87468 25.4638C7.8111 25.3903 7.8111 25.3903 7.74623 25.3153C7.0585 24.5244 6.37837 23.8082 5.26821 23.7268C4.3021 23.7077 3.58068 23.9524 2.84572 24.5848C2.24514 25.2827 1.96091 25.99 1.96999 26.9121C1.96961 26.9857 1.96923 27.0593 1.96884 27.1351C1.96821 27.2934 1.96819 27.4517 1.96875 27.61C1.96961 27.8605 1.96883 28.111 1.96765 28.3616C1.96583 28.8027 1.96544 29.2437 1.96554 29.6848C1.96569 30.3922 1.96473 31.0995 1.96174 31.8069C1.96106 32.0537 1.96166 32.3004 1.96233 32.5472C1.96191 32.6982 1.96144 32.8492 1.96091 33.0001C1.96143 33.0687 1.96196 33.1372 1.9625 33.2078C1.9582 33.7969 1.9582 33.7969 1.73061 34.0653C1.49011 34.2257 1.39854 34.2417 1.11538 34.2021C0.914897 34.0627 0.792147 33.9513 0.742105 33.706C0.729425 33.5083 0.7282 33.3131 0.730437 33.115C0.729948 33.0398 0.729459 32.9646 0.728955 32.8872C0.727798 32.6384 0.729129 32.3897 0.730587 32.1409C0.730531 31.9674 0.730363 31.7939 0.730088 31.6205C0.729892 31.2564 0.730862 30.8924 0.732774 30.5283C0.734955 30.1098 0.734968 29.6913 0.733784 29.2727C0.732692 28.8681 0.733173 28.4635 0.734327 28.0589C0.734679 27.8878 0.734651 27.7167 0.734221 27.5456C0.731818 26.0109 0.896057 24.798 2.01393 23.6563C2.51727 23.175 3.05776 22.8794 3.71303 22.6493C3.78507 22.624 3.78507 22.624 3.85856 22.5981C5.13197 22.2392 6.5755 22.5897 7.60952 23.3714Z" fill="#2E2E2E"/>
<path d="M33.5636 23.2808C34.4322 23.9795 35.0264 24.8912 35.2264 25.9989C35.2463 26.2584 35.2472 26.5171 35.2474 26.7772C35.248 26.8535 35.2485 26.9297 35.2491 27.0082C35.2508 27.2588 35.2514 27.5094 35.2518 27.76C35.2524 27.9346 35.253 28.1093 35.2537 28.284C35.2548 28.6494 35.2553 29.0147 35.2555 29.3801C35.2558 29.8021 35.2578 30.224 35.2607 30.646C35.2633 31.0529 35.2641 31.4597 35.2642 31.8667C35.2645 32.0394 35.2653 32.2122 35.2668 32.385C35.2686 32.6262 35.2683 32.8673 35.2674 33.1085C35.2689 33.2156 35.2689 33.2156 35.2705 33.3249C35.2672 33.6508 35.2651 33.8084 35.0658 34.0758C34.8846 34.2021 34.8846 34.2021 34.6796 34.2405C34.4278 34.1933 34.3126 34.1085 34.1327 33.9286C34.0681 33.735 34.0557 33.6164 34.0554 33.4159C34.0549 33.3213 34.0549 33.3213 34.0545 33.2249C34.0546 33.1213 34.0546 33.1213 34.0546 33.0157C34.0544 32.9428 34.0542 32.87 34.0539 32.795C34.0534 32.6365 34.053 32.4781 34.0528 32.3196C34.0523 32.0684 34.0512 31.8172 34.05 31.566C34.0464 30.8517 34.0431 30.1374 34.0421 29.423C34.0414 28.9862 34.0393 28.5494 34.0365 28.1125C34.0357 27.9464 34.0353 27.7803 34.0355 27.6141C34.0356 27.3808 34.0341 27.1476 34.0322 26.9143C34.0327 26.8464 34.0331 26.7785 34.0336 26.7085C34.0226 25.8751 33.691 25.2085 33.1543 24.5848C32.4391 23.9694 31.7126 23.6877 30.7612 23.7169C29.6101 23.8367 28.8784 24.5492 28.147 25.3837C28.092 25.4452 28.092 25.4452 28.0358 25.5079C27.9088 25.6538 27.9088 25.6538 27.8136 25.8181C27.3055 26.5487 26.4302 26.6049 25.6134 26.7765C25.3834 26.8269 25.1535 26.878 24.9238 26.9298C24.7815 26.9618 24.639 26.9927 24.4963 27.0225C24.0743 27.1146 23.6395 27.2102 23.3645 27.5712C23.3453 27.6163 23.3261 27.6614 23.3063 27.7079C23.286 27.753 23.2657 27.7982 23.2449 27.8446C23.1956 27.9802 23.1608 28.1148 23.1268 28.2548C23.5304 28.2368 23.934 28.2186 24.3376 28.2001C24.4746 28.1939 24.6116 28.1878 24.7485 28.1817C25.0747 28.1671 25.4008 28.1518 25.7269 28.1346C25.9217 28.1243 26.1145 28.1177 26.3097 28.116C26.9113 28.1006 27.3648 27.8368 27.8735 27.5456C27.959 27.4981 28.0446 27.4507 28.1303 27.4035C28.418 27.2442 28.7052 27.0848 28.9831 26.9088C29.2113 26.7806 29.3636 26.7825 29.621 26.8193C29.8098 26.9557 29.9409 27.0645 29.9939 27.2987C30.0064 27.4702 30.0074 27.6386 30.0048 27.8105C30.0052 27.8754 30.0056 27.9404 30.006 28.0073C30.0068 28.2217 30.0051 28.4359 30.0034 28.6503C30.0032 28.7993 30.0032 28.9484 30.0034 29.0974C30.0033 29.4096 30.002 29.7218 29.9998 30.034C29.9971 30.4344 29.9968 30.8347 29.9973 31.2351C29.9975 31.5428 29.9967 31.8505 29.9955 32.1582C29.9951 32.3059 29.9948 32.4535 29.9949 32.6011C29.9948 32.8073 29.9933 33.0135 29.9915 33.2197C29.9917 33.2808 29.9919 33.3419 29.9921 33.4049C29.9864 33.8177 29.9864 33.8177 29.8664 34.0338C29.7013 34.1856 29.5654 34.196 29.3478 34.2141C29.1271 34.1947 29.0167 34.0853 28.869 33.9286C28.7665 33.7236 28.7884 33.512 28.7866 33.2869C28.7859 33.2349 28.7853 33.1829 28.7846 33.1293C28.7824 32.9569 28.7807 32.7845 28.779 32.6122C28.7776 32.4928 28.7762 32.3735 28.7747 32.2541C28.7709 31.9397 28.7676 31.6252 28.7643 31.3108C28.7608 30.9901 28.757 30.6693 28.7533 30.3486C28.7459 29.719 28.739 29.0894 28.7323 28.4599C28.6718 28.4935 28.6718 28.4935 28.6101 28.5278C28.4273 28.6293 28.2444 28.7304 28.0615 28.8316C27.998 28.8669 27.9345 28.9022 27.8691 28.9385C27.8081 28.9722 27.7471 29.0059 27.6842 29.0407C27.628 29.0718 27.5718 29.103 27.5139 29.135C27.2187 29.2874 26.9396 29.3003 26.6145 29.3168C26.56 29.3197 26.5055 29.3227 26.4493 29.3257C26.2718 29.3352 26.0943 29.3441 25.9167 29.3528C25.8566 29.3558 25.7965 29.3588 25.7346 29.3618C25.0024 29.3975 24.27 29.4325 23.537 29.4425C23.4732 29.4443 23.4094 29.4461 23.3436 29.4479C22.939 29.4491 22.707 29.3777 22.3749 29.1435C22.0945 28.8479 21.9598 28.5799 21.9434 28.1736C21.9628 27.4845 22.2238 26.9913 22.6889 26.4988C23.1674 26.0474 23.7785 25.9138 24.4027 25.7712C24.463 25.7574 24.5233 25.7435 24.5854 25.7293C24.8379 25.6719 25.0905 25.6149 25.3436 25.5601C26.3273 25.3722 26.3273 25.3722 27.0917 24.7685C27.1482 24.71 27.2046 24.6516 27.2628 24.5914C27.3093 24.5385 27.3557 24.4855 27.4036 24.4309C27.4552 24.3728 27.5068 24.3146 27.56 24.2547C27.6508 24.1498 27.7404 24.0439 27.8281 23.9364C29.2063 22.2671 31.8328 22.0029 33.5636 23.2808Z" fill="#2E2E2E"/>
<path d="M9.49424 4.50269C9.57637 4.50233 9.65849 4.50198 9.74311 4.50161C9.9161 4.50117 10.0891 4.50126 10.2621 4.50184C10.5272 4.50243 10.7922 4.50045 11.0573 4.49829C11.2256 4.49818 11.3938 4.49822 11.5621 4.49842C11.6811 4.49727 11.6811 4.49727 11.8025 4.49609C11.8762 4.49674 11.9499 4.49738 12.0259 4.49804C12.0906 4.49805 12.1553 4.49806 12.222 4.49807C12.4472 4.54282 12.5271 4.62766 12.6679 4.80577C12.7362 5.04076 12.7362 5.04076 12.7362 5.28429C12.6155 5.47582 12.5291 5.59295 12.3261 5.69444C12.2151 5.70152 12.1039 5.70442 11.9927 5.70522C11.8887 5.70628 11.8887 5.70628 11.7826 5.70735C11.6699 5.7081 11.6699 5.7081 11.5549 5.70886C11.3971 5.71078 11.2393 5.71274 11.0815 5.71474C10.8317 5.71756 10.5819 5.72009 10.3321 5.72188C10.0917 5.72376 9.85132 5.72689 9.61093 5.73022C9.49824 5.73056 9.49824 5.73056 9.38328 5.7309C9.31393 5.73203 9.24459 5.73316 9.17314 5.73433C9.11192 5.73488 9.0507 5.73544 8.98763 5.73601C8.91443 5.74927 8.91443 5.74927 8.83975 5.7628C8.69278 5.98326 8.6859 6.041 8.68567 6.2948C8.68529 6.36208 8.6849 6.42936 8.6845 6.49868C8.68478 6.57241 8.68506 6.64614 8.68534 6.7221C8.6851 6.79981 8.68486 6.87752 8.68462 6.95759C8.68401 7.21515 8.68441 7.47271 8.68488 7.73027C8.68478 7.9088 8.68465 8.08734 8.68448 8.26587C8.68423 8.64032 8.68456 9.01477 8.68521 9.38922C8.68595 9.82222 8.68571 10.2552 8.68496 10.6882C8.68426 11.1046 8.68434 11.5211 8.68474 11.9375C8.68483 12.1148 8.68472 12.292 8.6844 12.4693C8.68405 12.7168 8.68458 12.9642 8.68534 13.2117C8.68507 13.2854 8.68479 13.3592 8.6845 13.4351C8.68489 13.5024 8.68527 13.5697 8.68567 13.639C8.68575 13.7268 8.68575 13.7268 8.68583 13.8164C8.69381 13.9859 8.69381 13.9859 8.83975 14.171C9.03425 14.1916 9.21465 14.1995 9.40932 14.1988C9.46598 14.1995 9.52263 14.2003 9.581 14.201C9.76259 14.2034 9.94416 14.2044 10.1258 14.2052C10.3641 14.2062 10.6023 14.2085 10.8406 14.2116C10.9225 14.2113 10.9225 14.2113 11.0061 14.211C11.3194 14.2152 11.5243 14.2423 11.7792 14.4444C11.8746 14.6352 11.8625 14.8001 11.8692 15.0132C11.8721 15.0991 11.8749 15.185 11.8779 15.2736C11.8806 15.3637 11.8832 15.4539 11.886 15.5467C11.889 15.6383 11.892 15.7299 11.895 15.8215C11.9022 16.0461 11.9092 16.2706 11.9159 16.4952C11.9471 16.4726 11.9783 16.45 12.0104 16.4267C12.7309 15.9043 13.4542 15.3863 14.1825 14.8748C14.2979 14.7937 14.4131 14.7124 14.5283 14.6311C14.5897 14.5878 14.6511 14.5446 14.7144 14.5C14.7658 14.4638 14.8171 14.4276 14.8701 14.3902C15.1295 14.2148 15.3556 14.2288 15.6598 14.2283C15.7146 14.228 15.7694 14.2277 15.8258 14.2273C16.0077 14.2263 16.1895 14.2259 16.3713 14.2255C16.4975 14.2251 16.6237 14.2247 16.7499 14.2243C17.0147 14.2236 17.2796 14.2232 17.5445 14.2229C17.8838 14.2226 18.223 14.2209 18.5623 14.219C18.8231 14.2177 19.0839 14.2174 19.3447 14.2172C19.4698 14.217 19.5948 14.2165 19.7199 14.2156C19.895 14.2144 20.0701 14.2146 20.2452 14.215C20.3226 14.2141 20.3226 14.2141 20.4016 14.2131C20.7064 14.2155 20.9023 14.2554 21.1444 14.4444C21.2514 14.6584 21.2604 14.8964 21.2128 15.128C21.1064 15.2722 21.1064 15.2722 20.9394 15.4015C20.758 15.4245 20.6063 15.4312 20.4258 15.4247C20.3744 15.424 20.323 15.4232 20.2701 15.4225C20.1585 15.4209 20.0469 15.4186 19.9353 15.4159C19.7574 15.4118 19.5797 15.41 19.4018 15.4089C18.8961 15.4056 18.3905 15.4005 17.8849 15.3886C16.1166 15.2809 16.1166 15.2809 14.5802 16.0136C14.4994 16.0918 14.42 16.1716 14.3425 16.2531C14.2059 16.3937 14.0536 16.5012 13.8917 16.6108C13.846 16.6439 13.8004 16.677 13.7534 16.711C13.2949 17.0429 12.835 17.3729 12.3731 17.7001C12.3253 17.734 12.2775 17.768 12.2282 17.803C11.4832 18.3291 11.4832 18.3291 11.0956 18.2726C10.7843 18.0788 10.7843 18.0788 10.7107 17.8862C10.6743 17.6545 10.6771 17.4245 10.6788 17.1906C10.6789 17.1394 10.679 17.0882 10.6791 17.0354C10.6795 16.8724 10.6803 16.7095 10.6812 16.5465C10.6815 16.4358 10.6818 16.325 10.6821 16.2143C10.6829 15.9434 10.684 15.6724 10.6855 15.4015C10.6269 15.4033 10.5684 15.4051 10.508 15.4069C10.2876 15.4128 10.0673 15.417 9.84682 15.4202C9.75201 15.422 9.65721 15.4243 9.56243 15.4273C8.96013 15.4457 8.45481 15.4257 7.95108 15.0597C7.797 14.9037 7.797 14.9037 7.70755 14.7521C7.67644 14.702 7.64534 14.652 7.61329 14.6004C7.48516 14.3243 7.46399 14.0531 7.46296 13.7517C7.46257 13.6825 7.46218 13.6133 7.46178 13.542C7.4617 13.4669 7.46163 13.3917 7.46155 13.3143C7.46121 13.2346 7.46087 13.1548 7.46052 13.0727C7.45952 12.809 7.45906 12.5452 7.45868 12.2815C7.45838 12.1444 7.45809 12.0073 7.45779 11.8702C7.45699 11.4882 7.45647 11.1062 7.45623 10.7242C7.45593 10.2314 7.45473 9.73858 7.45275 9.24579C7.45127 8.86401 7.45058 8.48223 7.45049 8.10045C7.45042 7.87283 7.44992 7.64523 7.44879 7.41761C7.44762 7.16336 7.44775 6.90913 7.4482 6.65488C7.44725 6.54299 7.44725 6.54299 7.44629 6.42883C7.44899 5.93284 7.4993 5.47637 7.78552 5.05838C7.82324 5.02296 7.86095 4.98753 7.89981 4.95103C7.95533 4.89631 7.95533 4.89631 8.01196 4.84048C8.48705 4.50088 8.92618 4.50125 9.49424 4.50269Z" fill="#2E2E2E"/>
<path d="M30.3677 14.9823C31.3668 14.9367 32.2606 15.3033 33.0166 15.9335C33.6314 16.5255 34.0518 17.3349 34.0847 18.1923C34.0861 18.3078 34.0863 18.4234 34.0855 18.5389C34.0851 18.5994 34.0848 18.66 34.0844 18.7223C34.0675 19.6259 33.7271 20.4229 33.1045 21.0877C32.348 21.7974 31.4213 22.1303 30.3914 22.1163C29.3908 22.053 28.5357 21.6468 27.8539 20.912C27.2194 20.1485 26.9534 19.2533 26.9967 18.2671C27.1 17.226 27.6041 16.3599 28.3989 15.6908C28.9792 15.2747 29.6606 15.0383 30.3677 14.9823ZM28.7321 16.9752C28.272 17.5864 28.1101 18.1975 28.1853 18.9576C28.3342 19.6204 28.6797 20.1584 29.232 20.5555C29.7887 20.8958 30.3774 21.03 31.02 20.908C31.7546 20.7175 32.3257 20.2762 32.7189 19.6294C33.0031 19.0372 33.0159 18.2529 32.8038 17.6331C32.4939 16.9883 31.9959 16.5384 31.3298 16.2916C30.3791 15.9673 29.4171 16.2531 28.7321 16.9752Z" fill="#2E2E2E"/>
<path d="M7.73975 15.8177C8.26542 16.3031 8.57906 16.784 8.83964 17.4535C8.86714 17.5239 8.86714 17.5239 8.89518 17.5958C9.15915 18.4372 8.97906 19.4109 8.62602 20.1964C8.16793 21.0521 7.41195 21.632 6.51542 21.9652C5.49694 22.2719 4.49058 22.0969 3.56369 21.6045C2.74875 21.1067 2.20959 20.3413 1.96365 19.4231C1.79089 18.2496 1.98933 17.2856 2.6371 16.2959C3.19207 15.5721 4.05279 15.1864 4.92179 15.0096C5.95004 14.932 6.93227 15.1372 7.73975 15.8177ZM3.4737 17.1662C3.10886 17.7006 2.97939 18.281 3.07182 18.9147C3.20095 19.5321 3.47222 20.0803 3.98613 20.4613C4.62804 20.8381 5.2211 21.0597 5.96401 20.8955C6.65184 20.6905 7.15086 20.3482 7.52586 19.7304C7.82916 19.1559 7.91447 18.5791 7.76939 17.9392C7.58318 17.3654 7.24356 16.8349 6.73065 16.5007C5.53508 15.9095 4.32575 16.1303 3.4737 17.1662Z" fill="#2E2E2E"/>
<path d="M9.71677 29.7236C9.78717 29.723 9.78717 29.723 9.859 29.7223C10.0162 29.7212 10.1734 29.7221 10.3307 29.7229C10.4434 29.7226 10.5561 29.7221 10.6689 29.7215C10.9751 29.7202 11.2813 29.7207 11.5875 29.7216C11.9078 29.7223 12.2281 29.7217 12.5483 29.7212C13.0862 29.7207 13.6241 29.7214 14.162 29.7227C14.7841 29.7242 15.4061 29.7237 16.0282 29.7222C16.5621 29.7209 17.0959 29.7208 17.6298 29.7215C17.9488 29.7219 18.2677 29.722 18.5867 29.7211C18.8866 29.7203 19.1864 29.7208 19.4862 29.7224C19.5963 29.7228 19.7065 29.7227 19.8166 29.7221C19.9668 29.7213 20.1169 29.7222 20.2671 29.7236C20.3932 29.7238 20.3932 29.7238 20.5219 29.7239C20.7746 29.7649 20.8533 29.8316 21.0075 30.0318C21.0987 30.2627 21.0824 30.3551 20.999 30.5915C20.8491 30.8163 20.7828 30.8443 20.529 30.9204C20.316 30.9376 20.316 30.9376 20.0724 30.9378C20.0049 30.9381 20.0049 30.9381 19.9361 30.9384C19.7858 30.939 19.6356 30.9386 19.4853 30.9381C19.3774 30.9383 19.2695 30.9386 19.1616 30.9389C18.8688 30.9395 18.576 30.9392 18.2832 30.9388C17.9767 30.9385 17.6703 30.9388 17.3638 30.939C16.8491 30.9392 16.3345 30.9389 15.8198 30.9383C15.2249 30.9375 14.63 30.9378 14.035 30.9385C13.5241 30.9391 13.0133 30.9392 12.5024 30.9389C12.1973 30.9386 11.8922 30.9386 11.5871 30.9391C11.3003 30.9395 11.0134 30.9392 10.7266 30.9384C10.6214 30.9382 10.5161 30.9383 10.4109 30.9386C10.2672 30.939 10.1235 30.9385 9.9798 30.9378C9.8592 30.9377 9.8592 30.9377 9.73616 30.9376C9.47356 30.9164 9.27995 30.8449 9.05747 30.7068C8.94839 30.5346 8.94817 30.3712 8.94238 30.1709C9.04167 29.7636 9.34666 29.7241 9.71677 29.7236Z" fill="#2E2E2E"/>
<path d="M16.643 6.19989C16.7724 6.19859 16.7724 6.19859 16.9044 6.19727C16.9999 6.19804 17.0953 6.19885 17.1907 6.19969C17.2913 6.19934 17.3919 6.19884 17.4926 6.19821C17.7657 6.19694 18.0388 6.19782 18.312 6.19917C18.5978 6.20029 18.8836 6.19969 19.1694 6.19934C19.6494 6.19903 20.1293 6.20011 20.6093 6.20202C21.1642 6.20422 21.7192 6.20421 22.2742 6.20303C22.8079 6.20195 23.3417 6.20241 23.8755 6.20358C24.1027 6.20405 24.3299 6.20398 24.5571 6.20347C24.8246 6.20295 25.0921 6.20378 25.3597 6.20565C25.4579 6.20612 25.5561 6.20613 25.6543 6.20563C25.7883 6.20504 25.9223 6.2063 26.0563 6.20765C26.1688 6.20794 26.1688 6.20794 26.2836 6.20823C26.5217 6.25091 26.6023 6.3287 26.7501 6.51627C26.7998 6.70363 26.7893 6.8738 26.7501 7.06314C26.5992 7.26607 26.5118 7.32487 26.2716 7.40494C26.1397 7.4116 26.0075 7.41417 25.8755 7.41454C25.7929 7.41493 25.7103 7.41532 25.6251 7.41572C25.5334 7.41581 25.4418 7.41588 25.3501 7.41595C25.2536 7.41627 25.1572 7.41661 25.0607 7.41698C24.7986 7.41788 24.5364 7.41832 24.2743 7.41862C24.1105 7.41882 23.9467 7.4191 23.783 7.41941C23.2706 7.42034 22.7583 7.42101 22.246 7.42127C21.6545 7.42158 21.063 7.42278 20.4715 7.42476C20.0143 7.42623 19.5571 7.42692 19.0999 7.42701C18.8268 7.42709 18.5538 7.42749 18.2807 7.42871C18.0238 7.42984 17.767 7.42999 17.5101 7.42939C17.4159 7.42933 17.3217 7.42963 17.2274 7.43031C17.0987 7.43117 16.97 7.43065 16.8412 7.43006C16.7692 7.43016 16.6972 7.43026 16.623 7.43036C16.3321 7.39247 16.1538 7.2677 15.9493 7.06314C15.9185 6.79103 15.9174 6.63701 16.0613 6.40066C16.2664 6.20016 16.3598 6.20004 16.643 6.19989Z" fill="#2E2E2E"/>
<path d="M16.9231 8.69339C17.0105 8.69304 17.0105 8.69304 17.0997 8.69269C17.2929 8.69204 17.4862 8.69191 17.6794 8.69183C17.8134 8.69162 17.9474 8.69139 18.0815 8.69115C18.3627 8.69074 18.6439 8.69061 18.9252 8.69065C19.2858 8.69066 19.6464 8.68972 20.007 8.68855C20.2839 8.68779 20.5608 8.68765 20.8377 8.68768C20.9707 8.6876 21.1036 8.6873 21.2366 8.68677C21.4225 8.6861 21.6084 8.6863 21.7943 8.68671C21.8493 8.68633 21.9044 8.68594 21.9611 8.68555C22.4425 8.68826 22.4425 8.68826 22.6488 8.84004C22.8197 9.09642 22.8222 9.22002 22.7855 9.52363C22.6509 9.70626 22.5425 9.84122 22.315 9.89696C22.1576 9.90997 22.0035 9.91161 21.8456 9.90965C21.7563 9.91055 21.7563 9.91055 21.6653 9.91147C21.469 9.91297 21.2728 9.91198 21.0765 9.91082C20.9399 9.91105 20.8033 9.91138 20.6666 9.91181C20.3805 9.91232 20.0943 9.91158 19.8082 9.90999C19.4415 9.90804 19.0749 9.90916 18.7082 9.91121C18.4262 9.91244 18.1441 9.91205 17.862 9.91116C17.7268 9.91094 17.5916 9.91122 17.4565 9.91201C17.2674 9.91288 17.0785 9.91156 16.8895 9.90965C16.8059 9.91069 16.8059 9.91069 16.7205 9.91175C16.4325 9.90638 16.3216 9.88866 16.0855 9.70698C15.9496 9.52363 15.9496 9.52363 15.9111 9.2801C15.955 9.01223 16.0108 8.93399 16.223 8.77168C16.4426 8.66187 16.6819 8.69325 16.9231 8.69339Z" fill="#2E2E2E"/>
<path d="M24.6307 29.715C24.6904 29.7148 24.75 29.7146 24.8115 29.7145C24.9375 29.7145 25.0634 29.7154 25.1893 29.7172C25.382 29.7195 25.5745 29.7186 25.7672 29.7172C25.8897 29.7177 26.0122 29.7184 26.1346 29.7192C26.1922 29.7189 26.2497 29.7186 26.309 29.7182C26.7079 29.7262 26.7079 29.7262 26.9228 29.8886C27.0624 30.087 27.0623 30.2124 27.05 30.4482C27.0083 30.6513 26.917 30.7357 26.7499 30.8517C26.3697 30.9838 25.9381 30.9328 25.54 30.9327C25.3877 30.9329 25.2355 30.9341 25.0832 30.9354C24.9859 30.9356 24.8885 30.9358 24.7912 30.9358C24.659 30.9362 24.659 30.9362 24.5242 30.9367C24.248 30.9172 24.0535 30.853 23.8232 30.7022C23.6894 30.498 23.7134 30.3369 23.7421 30.0998C23.9634 29.6938 24.21 29.7083 24.6307 29.715Z" fill="#2E2E2E"/>
<path d="M23.8704 8.68121C23.9949 8.67949 23.9949 8.67949 24.1219 8.67773C24.3725 8.70416 24.5001 8.75665 24.6992 8.90765C24.8065 9.12221 24.7916 9.28626 24.7676 9.52288C24.5783 9.77548 24.4776 9.8562 24.1628 9.90767C24.0667 9.90794 23.9706 9.90639 23.8746 9.90313C23.8263 9.90388 23.778 9.90463 23.7282 9.9054C23.4914 9.90206 23.3558 9.88274 23.1654 9.73811C23.0259 9.54624 22.9951 9.41801 22.9902 9.18108C23.1867 8.74892 23.4149 8.68265 23.8704 8.68121Z" fill="#2E2E2E"/>
<path d="M22.3066 29.7239C22.3553 29.7229 22.4039 29.7218 22.454 29.7207C22.6897 29.7225 22.8294 29.7407 23.0223 29.8799C23.1633 30.0842 23.1662 30.207 23.1537 30.4484C23.112 30.6514 23.0206 30.7358 22.8535 30.8518C22.4762 30.9695 22.1001 30.9694 21.7299 30.8347C21.5453 30.7087 21.4732 30.6566 21.418 30.4417C21.4277 30.2091 21.4559 30.0737 21.5926 29.8841C21.8229 29.7105 22.0297 29.7179 22.3066 29.7239Z" fill="#2E2E2E"/>
</g>
<defs>
<clipPath id="clip0_5826_47893">
<rect width="35" height="35" fill="white" transform="translate(0.5 0.5)"/>
</clipPath>
</defs>
</svg>
