<svg width="22" height="21" fill="none" xmlns="http://www.w3.org/2000/svg"><path d="M3.376 5.25H2.063a.656.656 0 110-1.313h5.25v-1.97a.656.656 0 01.657-.656h5.25a.656.656 0 01.656.656v1.97h5.25a.656.656 0 010 1.312h-1.313v13.782a.656.656 0 01-.656.656H4.032a.656.656 0 01-.656-.656V5.249zm9.188-1.313V2.624H8.625v1.313h3.938zM4.687 18.374H16.5V5.25H4.688v13.125zm3.938-2.625a.656.656 0 01-.656-.656V8.531a.656.656 0 111.312 0v6.562a.656.656 0 01-.656.656zm3.938 0a.656.656 0 01-.657-.656V8.531a.657.657 0 011.313 0v6.562a.656.656 0 01-.657.656z" fill="#D1D5DB"/></svg>