<svg width="90" height="15" fill="none" xmlns="http://www.w3.org/2000/svg"><path fill-rule="evenodd" clip-rule="evenodd" d="M81.24 0l-1.917 5.749h-6.08L78.2 9.317 76.283 15l4.956-3.502L86.13 15l-1.85-5.683 4.956-3.568H83.09L81.24 0zM62.928 0l-1.916 5.749h-6.08l4.957 3.568L57.972 15l4.956-3.502L67.818 15l-1.85-5.683 4.956-3.568h-6.146L62.928 0zm-18.31 0L42.7 5.749h-6.079l4.956 3.568L39.662 15l4.956-3.502L49.508 15l-1.85-5.683 4.955-3.568h-6.145L44.618 0zM26.307 0L24.39 5.749h-6.079l4.956 3.568L21.351 15l4.956-3.502L31.197 15l-1.85-5.683 4.955-3.568h-6.145L26.307 0zM7.996 0L6.079 5.749H0l4.956 3.568L3.04 15l4.956-3.502L12.886 15l-1.85-5.683L15.99 5.75H9.846L7.996 0z" fill="#FFDC0F"/></svg>