<svg width="90" height="16" fill="none" xmlns="http://www.w3.org/2000/svg"><path fill-rule="evenodd" clip-rule="evenodd" d="M81.301.5l-1.916 5.749h-6.08l4.957 3.568-1.917 5.683 4.956-3.502 4.89 3.502-1.85-5.683 4.956-3.568h-6.145L81.302.5zM62.99.5l-1.917 5.749h-6.079l4.956 3.568-1.916 5.683 4.956-3.502 4.89 3.502-1.85-5.683 4.955-3.568H64.84L62.99.5zM44.68.5l-1.917 5.749h-6.08l4.956 3.568-1.916 5.683 4.956-3.502 4.89 3.502-1.85-5.683 4.956-3.568h-6.146L44.68.5zM26.368.5L24.45 6.249h-6.079l4.956 3.568-1.916 5.683 4.956-3.502 4.89 3.502-1.85-5.683 4.955-3.568h-6.145L26.368.5zM8.057.5L6.141 6.249H.06l4.956 3.568L3.101 15.5l4.956-3.502 4.89 3.502-1.85-5.683 4.956-3.568H9.907L8.057.5z" fill="#FFDC0F"/></svg>