<svg width="61" height="60" viewBox="0 0 61 60" fill="none" xmlns="http://www.w3.org/2000/svg">
<path d="M35.3241 11.362L34.8481 10.6954C32.8539 7.90363 28.7049 7.90363 26.7106 10.6954L26.2346 11.362C25.1817 12.836 23.414 13.6253 21.6137 13.4253L19.4912 13.1894C16.3066 12.8356 13.6157 15.5264 13.9696 18.711L14.2054 20.8336C14.4055 22.6338 13.6162 24.4015 12.1422 25.4545L11.4755 25.9305C8.68378 27.9247 8.68378 32.0737 11.4755 34.068L12.1422 34.544C13.6162 35.597 14.4055 37.3647 14.2054 39.165L13.9696 41.2875C13.6157 44.472 16.3066 47.163 19.4912 46.809L21.6137 46.5732C23.414 46.3732 25.1817 47.1625 26.2346 48.6365L26.7106 49.303C28.7049 52.0947 32.8539 52.0947 34.8481 49.303L35.3241 48.6365C36.3771 47.1625 38.1449 46.3732 39.9451 46.5732L42.0676 46.809C45.2521 47.163 47.9431 44.472 47.5891 41.2875L47.3534 39.165C47.1534 37.3647 47.9426 35.597 49.4166 34.544L50.0831 34.068C52.8749 32.0737 52.8749 27.9247 50.0831 25.9305L49.4166 25.4545C47.9426 24.4015 47.1534 22.6338 47.3534 20.8336L47.5891 18.711C47.9431 15.5264 45.2521 12.8356 42.0676 13.1894L39.9451 13.4253C38.1449 13.6253 36.3771 12.836 35.3241 11.362Z" stroke="#34A853" stroke-width="5" stroke-linecap="round" stroke-linejoin="round"/>
<path d="M23.2802 30L27.8274 34.5473C28.0774 34.7973 28.4829 34.7973 28.7329 34.5473L38.2802 25" stroke="#34A853" stroke-width="5" stroke-linecap="round" stroke-linejoin="round"/>
</svg>
