<svg width="25" height="24" viewBox="0 0 25 24" fill="none" xmlns="http://www.w3.org/2000/svg">
<path fill-rule="evenodd" clip-rule="evenodd" d="M14.7666 4.80624C13.0706 4.30152 11.2521 4.40003 9.62062 5.08501C7.9891 5.77 6.64532 6.99913 5.81793 8.56326C4.99055 10.1274 4.73068 11.9299 5.08255 13.664C5.43442 15.3982 6.37629 16.9568 7.74789 18.0748C9.11948 19.1927 10.8361 19.8009 12.6055 19.7958C14.375 19.7906 16.0881 19.1726 17.4532 18.0468C18.8183 16.9209 19.7511 15.3569 20.093 13.6207L21.1968 13.8381C20.8047 15.8294 19.7347 17.6233 18.169 18.9147C16.6032 20.206 14.6383 20.9149 12.6088 20.9207C10.5792 20.9266 8.61032 20.2291 7.03712 18.9468C5.46392 17.6645 4.38361 15.8768 3.98002 13.8877C3.57643 11.8987 3.87449 9.83126 4.82349 8.03722C5.77249 6.24319 7.31379 4.83339 9.18512 4.04773C11.0565 3.26206 13.1422 3.14907 15.0875 3.72798C17.0327 4.30688 18.7173 5.54192 19.8546 7.22294L18.9228 7.85332C17.9312 6.38773 16.4625 5.31096 14.7666 4.80624Z" fill="#131112"/>
<path fill-rule="evenodd" clip-rule="evenodd" d="M19.0451 7.19334L19.3336 2.90625L20.4561 2.98178L20.092 8.39219L14.6816 8.02396L14.758 6.90156L19.0451 7.19334Z" fill="#131112"/>
<path fill-rule="evenodd" clip-rule="evenodd" d="M14.7666 4.80624C13.0706 4.30152 11.2521 4.40003 9.62062 5.08501C7.9891 5.77 6.64532 6.99913 5.81793 8.56326C4.99055 10.1274 4.73068 11.9299 5.08255 13.664C5.43442 15.3982 6.37629 16.9568 7.74789 18.0748C9.11948 19.1927 10.8361 19.8009 12.6055 19.7958C14.375 19.7906 16.0881 19.1726 17.4532 18.0468C18.8183 16.9209 19.7511 15.3569 20.093 13.6207L21.1968 13.8381C20.8047 15.8294 19.7347 17.6233 18.169 18.9147C16.6032 20.206 14.6383 20.9149 12.6088 20.9207C10.5792 20.9266 8.61032 20.2291 7.03712 18.9468C5.46392 17.6645 4.38361 15.8768 3.98002 13.8877C3.57643 11.8987 3.87449 9.83126 4.82349 8.03722C5.77249 6.24319 7.31379 4.83339 9.18512 4.04773C11.0565 3.26206 13.1422 3.14907 15.0875 3.72798C17.0327 4.30688 18.7173 5.54192 19.8546 7.22294L18.9228 7.85332C17.9312 6.38773 16.4625 5.31096 14.7666 4.80624Z" fill="#131112"/>
<path fill-rule="evenodd" clip-rule="evenodd" d="M19.0451 7.19334L19.3336 2.90625L20.4561 2.98178L20.092 8.39219L14.6816 8.02396L14.758 6.90156L19.0451 7.19334Z" fill="#131112"/>
</svg>
