<svg width="35" height="35" viewBox="0 0 35 35" fill="none" xmlns="http://www.w3.org/2000/svg">
<g clip-path="url(#clip0_5810_43124)">
<path d="M15.9645 4.33855C16.0403 4.33769 16.116 4.33683 16.194 4.33594C16.2755 4.33649 16.357 4.33704 16.4409 4.33761C16.5248 4.33735 16.6088 4.33709 16.6953 4.33682C16.8727 4.33664 17.0501 4.33714 17.2276 4.33828C17.4995 4.33975 17.7712 4.3383 18.0431 4.33655C18.2154 4.33673 18.3877 4.33708 18.56 4.33761C18.6415 4.33706 18.723 4.33651 18.8069 4.33594C18.9205 4.33723 18.9205 4.33723 19.0364 4.33855C19.103 4.33877 19.1696 4.33898 19.2382 4.33921C19.4666 4.38419 19.548 4.46406 19.688 4.64737C19.7393 5.06892 19.653 5.33454 19.4573 5.70267C19.2888 6.03782 19.1688 6.33632 19.1032 6.70776C19.0165 7.06976 18.7571 7.31875 18.4575 7.51846C18.3222 7.56358 18.1868 7.6087 18.0474 7.65518C18.0474 8.01612 18.0474 8.37706 18.0474 8.74893C18.1906 8.74417 18.1906 8.74417 18.3368 8.73932C18.4625 8.73675 18.5882 8.73426 18.7139 8.73184C18.7768 8.72955 18.8397 8.72726 18.9045 8.7249C19.3589 8.71831 19.3589 8.71831 19.5951 8.84827C19.7596 9.15656 19.7335 9.46167 19.6474 9.79475C19.5945 9.95457 19.5371 10.1121 19.4786 10.2699C19.2906 10.8253 19.2431 11.2422 19.3462 11.8251C19.383 12.067 19.4179 12.3092 19.453 12.5514C19.4623 12.6136 19.4715 12.6758 19.4811 12.7399C19.6313 13.7725 19.6313 13.7725 19.4829 14.2177C20.3401 14.2177 21.1974 14.2177 22.0806 14.2177C22.0129 14.0372 21.9452 13.8567 21.8755 13.6708C21.8458 13.4476 21.8458 13.4476 21.8456 13.2436C21.8442 13.1755 21.8429 13.1075 21.8416 13.0374C21.8856 12.7945 21.9545 12.7274 22.1489 12.5771C22.3668 12.5423 22.3668 12.5423 22.6274 12.5417C22.675 12.5412 22.7226 12.5407 22.7717 12.5402C22.9287 12.539 23.0856 12.5398 23.2427 12.5407C23.352 12.5406 23.4613 12.5403 23.5706 12.5399C23.7995 12.5395 24.0284 12.5401 24.2574 12.5414C24.5507 12.543 24.844 12.5421 25.1373 12.5404C25.363 12.5394 25.5886 12.5398 25.8143 12.5405C25.9224 12.5406 26.0306 12.5404 26.1387 12.5398C26.2899 12.5391 26.4411 12.5402 26.5923 12.5417C26.7213 12.542 26.7213 12.542 26.8529 12.5423C27.1094 12.5832 27.1905 12.6447 27.3442 12.8505C27.4665 13.4718 27.2736 13.9818 26.9341 14.4911C26.9613 14.5193 26.9885 14.5475 27.0166 14.5766C27.5173 15.1224 27.5594 15.5768 27.686 16.3368C28.7688 16.3594 29.8516 16.3819 30.9673 16.4052C31.0002 15.9968 31.0332 15.5885 31.0671 15.1678C31.0883 14.9073 31.1095 14.6469 31.1307 14.3864C31.1643 13.9741 31.1979 13.5617 31.231 13.1494C31.2578 12.8165 31.2849 12.4836 31.3121 12.1507C31.3224 12.0245 31.3326 11.8982 31.3427 11.7719C31.5545 9.12376 31.5545 9.12376 32.4712 8.27042C32.6671 8.11271 32.8661 7.9812 33.0864 7.86026C33.1266 7.83708 33.1668 7.81391 33.2082 7.79003C33.5241 7.6397 33.8523 7.6323 34.1973 7.62527C34.2688 7.62298 34.2688 7.62298 34.3419 7.62063C34.5584 7.62163 34.6988 7.63532 34.8778 7.76119C35.0445 7.98862 35.034 8.18331 35.0231 8.45385C35.022 8.50522 35.0209 8.55659 35.0197 8.60951C35.005 9.1603 34.9611 9.70871 34.9126 10.2574C34.9032 10.3687 34.8937 10.48 34.8843 10.5913C34.8643 10.8285 34.8439 11.0657 34.8232 11.3028C34.7905 11.6791 34.7586 12.0554 34.7268 12.4318C34.6533 13.2985 34.579 14.1651 34.5045 15.0317C34.4362 15.8267 34.3682 16.6218 34.3009 17.4169C34.2694 17.7898 34.2373 18.1625 34.2049 18.5353C34.1847 18.7686 34.1649 19.0019 34.1453 19.2352C34.1362 19.342 34.1269 19.4487 34.1175 19.5555C34.0264 20.5856 33.9915 21.6064 34.1313 22.634C34.1406 22.7074 34.15 22.7808 34.1596 22.8565C34.1796 23.0132 34.2 23.1698 34.2207 23.3264C34.2536 23.5751 34.2855 23.8238 34.3172 24.0726C34.3732 24.511 34.43 24.9492 34.4871 25.3874C34.5786 26.0897 34.6694 26.7921 34.7591 27.4947C34.7905 27.7383 34.8225 27.9818 34.8546 28.2254C35.0811 29.97 35.0811 29.97 35.0005 30.3505C34.8332 30.5612 34.7697 30.6173 34.4995 30.6593C34.3668 30.6598 34.3668 30.6598 34.2314 30.6602C34.1839 30.6605 34.1364 30.6608 34.0874 30.661C33.9872 30.6612 33.887 30.6607 33.7868 30.6596C33.6337 30.6581 33.4809 30.6596 33.3278 30.6613C33.2303 30.6611 33.1327 30.6608 33.0351 30.6602C32.9467 30.6599 32.8582 30.6596 32.767 30.6593C32.4852 30.6155 32.4345 30.5792 32.2661 30.3505C32.1877 30.1086 32.143 29.862 32.097 29.6122C32.0827 29.5392 32.0685 29.4662 32.0537 29.3909C32.0096 29.1641 31.9669 28.937 31.9243 28.7099C31.8987 28.577 31.8729 28.4442 31.8471 28.3114C31.7704 27.9158 31.6959 27.5198 31.6218 27.1237C31.5947 26.9796 31.5676 26.8354 31.5405 26.6913C31.4845 26.3933 31.4286 26.0953 31.3728 25.7973C31.3013 25.4154 31.2294 25.0336 31.1574 24.6518C31.1017 24.356 31.0462 24.0602 30.9908 23.7644C30.9644 23.6234 30.9379 23.4824 30.9113 23.3415C30.8744 23.146 30.8378 22.9504 30.8014 22.7548C30.7904 22.697 30.7794 22.6392 30.7681 22.5796C30.7583 22.5264 30.7484 22.4732 30.7383 22.4183C30.7296 22.3723 30.721 22.3263 30.7121 22.2789C30.6938 22.1474 30.6938 22.1474 30.6938 21.8739C30.3279 21.877 29.962 21.8818 29.5961 21.8881C29.4719 21.89 29.3478 21.8915 29.2236 21.8925C29.0438 21.8939 28.8642 21.8971 28.6844 21.9006C28.63 21.9007 28.5756 21.9008 28.5195 21.9009C28.0833 21.9119 27.6455 21.9707 27.2759 22.2157C27.1356 22.4497 27.1027 22.6854 27.0644 22.953C27.0508 23.0282 27.0372 23.1035 27.0232 23.181C26.9789 23.4299 26.9395 23.6793 26.8999 23.929C26.8698 24.1025 26.8394 24.2759 26.8086 24.4492C26.7442 24.8142 26.6816 25.1795 26.6203 25.545C26.4856 26.3464 26.3373 27.1453 26.1884 27.9441C26.1308 28.2534 26.0747 28.563 26.0191 28.8726C25.9894 29.0351 25.9597 29.1976 25.93 29.3601C25.917 29.4338 25.904 29.5076 25.8906 29.5835C25.8253 29.9365 25.7616 30.2472 25.5669 30.5556C25.2597 30.7092 24.8419 30.6423 24.5003 30.6441C24.346 30.6453 24.1918 30.6483 24.0376 30.6513C23.9394 30.652 23.8413 30.6526 23.7431 30.653C23.6091 30.6545 23.6091 30.6545 23.4723 30.6561C23.1987 30.6178 23.1373 30.564 22.9692 30.3505C22.8222 29.602 23.0511 28.7011 23.1487 27.9544C23.1671 27.8101 23.1855 27.6658 23.2038 27.5215C23.2519 27.1444 23.3006 26.7674 23.3495 26.3904C23.3994 26.0045 23.4486 25.6186 23.4979 25.2328C23.5945 24.4776 23.6918 23.7226 23.7895 22.9677C23.7171 22.9682 23.6446 22.9686 23.57 22.9691C23.2975 22.9707 23.025 22.9718 22.7526 22.9726C22.6353 22.9731 22.5181 22.9737 22.4008 22.9745C21.2546 22.9819 20.253 22.8608 19.1411 22.5575C19.1637 23.9562 19.1862 25.3548 19.2095 26.7958C19.4576 26.886 19.7058 26.9763 19.9614 27.0692C20.6465 27.5289 21.1466 28.0932 21.3286 28.9149C21.413 29.6832 21.413 29.6832 21.2223 29.9553C21.0072 30.112 20.7874 30.1833 20.5339 30.2522C20.4821 30.2665 20.4302 30.2808 20.3768 30.2955C20.2159 30.3384 20.0547 30.379 19.8931 30.4189C19.8478 30.4304 19.8025 30.442 19.7559 30.454C18.3273 30.8043 16.5306 30.7831 15.1079 30.4189C15.0559 30.406 15.0038 30.3932 14.9502 30.38C14.7885 30.3393 14.6277 30.2965 14.467 30.2522C14.4186 30.239 14.3701 30.2258 14.3201 30.2123C14.039 30.1281 13.843 30.0471 13.6724 29.8036C13.553 29.1636 13.7112 28.5423 14.0489 27.9964C14.5215 27.3457 15.0222 27.0756 15.7915 26.7958C15.8141 25.3972 15.8366 23.9985 15.8599 22.5575C15.4764 22.6478 15.0929 22.738 14.6977 22.831C13.9946 22.9478 13.3195 22.9877 12.6095 22.9817C12.4517 22.9805 12.294 22.9803 12.1363 22.9804C11.3684 22.9778 11.3684 22.9778 11.2114 22.8993C11.2217 22.9796 11.232 23.0598 11.2426 23.1425C11.3397 23.9017 11.4363 24.6609 11.5323 25.4202C11.5816 25.8105 11.6312 26.2008 11.6813 26.591C11.7296 26.9681 11.7774 27.3453 11.8249 27.7226C11.843 27.8659 11.8613 28.0092 11.8798 28.1525C12.1113 29.9465 12.1113 29.9465 12.0317 30.3505C11.8648 30.5619 11.8012 30.6173 11.5308 30.6593C11.3981 30.6598 11.3981 30.6598 11.2627 30.6602C11.2152 30.6605 11.1676 30.6608 11.1187 30.661C11.0185 30.6612 10.9183 30.6607 10.8181 30.6596C10.665 30.6581 10.5121 30.6596 10.3591 30.6613C10.2615 30.6611 10.1639 30.6608 10.0664 30.6602C9.97792 30.6599 9.88945 30.6596 9.7983 30.6593C9.57079 30.6239 9.57079 30.6239 9.41249 30.5248C9.24288 30.268 9.20211 30.0127 9.14702 29.7126C9.13334 29.6428 9.11967 29.573 9.10558 29.5011C9.06425 29.2882 9.02402 29.0752 8.98416 28.8621C8.94182 28.6368 8.89864 28.4117 8.85556 28.1865C8.71285 27.4404 8.57266 26.6938 8.43326 25.9471C8.36594 25.5865 8.29817 25.226 8.2303 24.8655C8.17772 24.5858 8.12542 24.3062 8.0732 24.0265C8.04831 23.8934 8.02331 23.7603 7.99822 23.6272C7.96342 23.4425 7.92901 23.2578 7.8947 23.073C7.88437 23.0186 7.87404 22.9642 7.8634 22.9082C7.81617 22.6517 7.78115 22.4085 7.79345 22.1474C7.75141 22.1383 7.70938 22.1292 7.66607 22.1199C7.61082 22.1078 7.55557 22.0957 7.49865 22.0833C7.41656 22.0654 7.41656 22.0654 7.33282 22.0472C7.17821 22.0106 7.17821 22.0106 6.97313 21.9423C6.77167 21.9317 6.57152 21.9247 6.36992 21.9207C6.28159 21.9185 6.28159 21.9185 6.19148 21.9164C6.00343 21.9119 5.81537 21.9079 5.62731 21.9038C5.4998 21.9009 5.3723 21.8979 5.24479 21.8949C4.93224 21.8876 4.61968 21.8806 4.30712 21.8739C4.29865 21.9596 4.29018 22.0454 4.28146 22.1337C4.23935 22.511 4.17226 22.8822 4.10247 23.2553C4.08879 23.3294 4.07511 23.4035 4.06101 23.4799C4.01601 23.7232 3.97067 23.9664 3.92527 24.2096C3.89367 24.3794 3.86207 24.5492 3.83048 24.719C3.76434 25.0741 3.69799 25.4291 3.63154 25.7842C3.55487 26.1938 3.47885 26.6035 3.4031 27.0133C3.32995 27.4088 3.25611 27.8043 3.18203 28.1997C3.1507 28.3674 3.11958 28.5352 3.08866 28.7029C3.04542 28.9373 3.0014 29.1716 2.95719 29.4058C2.93832 29.5095 2.93832 29.5095 2.91907 29.6153C2.85362 29.9575 2.7849 30.2553 2.59813 30.5556C2.29096 30.7092 1.87315 30.6423 1.53152 30.6441C1.37726 30.6453 1.2231 30.6483 1.06886 30.6513C0.970684 30.652 0.872506 30.6526 0.774328 30.653C0.640314 30.6545 0.640314 30.6545 0.503594 30.6561C0.230184 30.6178 0.168984 30.5632 0.000478054 30.3505C-0.154256 29.6202 0.081604 28.7183 0.177716 27.9897C0.210447 27.7412 0.24242 27.4927 0.274199 27.2441C0.364629 26.5379 0.456467 25.8318 0.548621 25.1258C0.605159 24.6923 0.660887 24.2587 0.716163 23.825C0.737214 23.6611 0.758574 23.4974 0.780271 23.3336C1.01606 21.5542 0.920407 19.889 0.764257 18.1081C0.736977 17.7953 0.710411 17.4824 0.683788 17.1696C0.621902 16.4436 0.55924 15.7177 0.496437 14.9918C0.416466 14.0674 0.336676 13.143 0.257951 12.2185C0.226385 11.8482 0.194342 11.4779 0.161908 11.1076C0.141731 10.8761 0.121968 10.6446 0.102308 10.4131C0.0932224 10.3071 0.0839714 10.2011 0.0745285 10.0951C0.0259438 9.5488 -0.0104117 9.00275 -0.0221026 8.45431C-0.0240637 8.40564 -0.0260244 8.35696 -0.028045 8.30682C-0.0301763 8.07479 -0.0155953 7.95041 0.123788 7.76146C0.336808 7.61066 0.534675 7.61123 0.786611 7.61673C0.859392 7.61793 0.859392 7.61793 0.933644 7.61915C1.66238 7.64925 2.20286 7.94514 2.72177 8.44906C3.29377 9.07204 3.49609 9.73721 3.56029 10.5701C3.56565 10.632 3.57102 10.6938 3.57654 10.7576C3.59388 10.9596 3.61018 11.1616 3.62646 11.3637C3.63837 11.5049 3.65034 11.6461 3.66237 11.7874C3.69369 12.1572 3.72413 12.5271 3.7544 12.8971C3.78547 13.2747 3.81744 13.6523 3.8493 14.03C3.89555 14.58 3.94155 15.1301 3.98673 15.6802C3.99153 15.7381 3.99632 15.796 4.00125 15.8556C4.03368 16.2525 4.03368 16.2525 4.03368 16.4052C5.11649 16.3826 6.19931 16.3601 7.31493 16.3368C7.38261 15.9759 7.45028 15.6149 7.52001 15.2431C7.69032 14.9442 7.82923 14.7288 8.06688 14.4911C8.00344 14.4023 8.00344 14.4023 7.93871 14.3117C7.65328 13.8583 7.56933 13.3823 7.65673 12.8505C7.80994 12.6442 7.89148 12.5832 8.14806 12.5423C8.23407 12.5421 8.32007 12.5419 8.40868 12.5417C8.45629 12.5412 8.50389 12.5407 8.55294 12.5402C8.70996 12.539 8.8669 12.5398 9.02392 12.5407C9.13322 12.5406 9.24252 12.5403 9.35183 12.5399C9.58077 12.5395 9.80968 12.5401 10.0386 12.5414C10.332 12.543 10.6252 12.5421 10.9186 12.5404C11.1442 12.5394 11.3699 12.5398 11.5955 12.5405C11.7037 12.5406 11.8118 12.5404 11.92 12.5398C12.0712 12.5391 12.2223 12.5402 12.3735 12.5417C12.5025 12.542 12.5025 12.542 12.6341 12.5423C12.8907 12.5832 12.972 12.6445 13.1255 12.8505C13.1594 13.0374 13.1594 13.0374 13.1554 13.2436C13.1553 13.3445 13.1553 13.3445 13.1551 13.4476C13.1255 13.6708 13.1255 13.6708 12.9204 14.2177C13.7776 14.2177 14.6349 14.2177 15.5181 14.2177C15.4955 14.15 15.4729 14.0823 15.4497 14.0126C15.3985 13.3493 15.524 12.702 15.6319 12.0503C15.7401 11.3544 15.729 10.8046 15.4796 10.146C15.3407 9.75555 15.2518 9.43732 15.313 9.02237C15.4083 8.87043 15.4083 8.87043 15.5864 8.74893C15.8209 8.71539 16.0509 8.72324 16.2871 8.73184C16.3831 8.73369 16.3831 8.73369 16.481 8.73558C16.6385 8.7388 16.7961 8.7437 16.9536 8.74893C16.9536 8.38799 16.9536 8.02706 16.9536 7.65518C16.7506 7.5875 16.7506 7.5875 16.5434 7.51846C16.2178 7.30854 15.9939 7.06502 15.8599 6.69815C15.8402 6.59296 15.8218 6.48754 15.8043 6.38199C15.753 6.08597 15.6519 5.86001 15.5095 5.59585C15.328 5.24975 15.2438 5.03504 15.313 4.64737C15.5117 4.39075 15.6442 4.3396 15.9645 4.33855ZM16.8169 5.46768C16.8451 5.62277 16.8733 5.77786 16.9023 5.93765C16.9182 6.02489 16.9341 6.11213 16.9504 6.20201C16.9996 6.42565 16.9996 6.42565 17.1464 6.52405C17.3132 6.56589 17.4406 6.57061 17.6116 6.55289C17.6646 6.54848 17.7177 6.54407 17.7723 6.53953C17.919 6.50536 17.919 6.50536 17.9929 6.37718C18.056 6.1945 18.0925 6.01722 18.1243 5.82657C18.144 5.70813 18.1637 5.5897 18.1841 5.46768C17.7329 5.46768 17.2817 5.46768 16.8169 5.46768ZM1.16259 8.88565C1.28595 10.3861 1.40953 11.8864 1.53339 13.3868C1.59089 14.0834 1.64832 14.7801 1.70557 15.4767C1.75547 16.0839 1.80551 16.691 1.85571 17.2982C1.8823 17.6197 1.90881 17.9412 1.93515 18.2627C1.95995 18.5653 1.98493 18.8679 2.01006 19.1705C2.01925 19.2816 2.02837 19.3927 2.03742 19.5037C2.04978 19.6554 2.06239 19.8071 2.07507 19.9587C2.08206 20.0436 2.08905 20.1285 2.09626 20.2159C2.11837 20.4596 2.11837 20.4596 2.18798 20.7802C3.65429 20.7802 5.1206 20.7802 6.63134 20.7802C6.77825 20.0996 6.77825 20.0996 6.76806 19.6864C6.72569 19.6862 6.68333 19.6859 6.63968 19.6857C6.19943 19.6828 5.75923 19.6781 5.31901 19.6722C5.15463 19.6703 4.99025 19.6689 4.82587 19.6679C4.58981 19.6664 4.35383 19.6633 4.1178 19.6597C4.04409 19.6596 3.97038 19.6596 3.89445 19.6595C3.82603 19.6581 3.75762 19.6568 3.68713 19.6554C3.62686 19.6548 3.5666 19.6542 3.50451 19.6535C3.35009 19.6181 3.35009 19.6181 3.23034 19.5085C3.11819 19.2931 3.10321 19.1145 3.08323 18.8723C3.07907 18.825 3.07491 18.7777 3.07063 18.729C3.05701 18.5715 3.04467 18.4139 3.03232 18.2562C3.02291 18.1444 3.01341 18.0325 3.00383 17.9206C2.98357 17.6821 2.96387 17.4435 2.94458 17.2049C2.91441 16.8319 2.88277 16.459 2.85091 16.0862C2.76634 15.0933 2.68392 14.1003 2.60507 13.107C2.57325 12.7065 2.54025 12.3061 2.50686 11.9058C2.48747 11.6679 2.46969 11.4298 2.45197 11.1918C2.44007 11.0477 2.42809 10.9037 2.41602 10.7597C2.41183 10.6968 2.40764 10.634 2.40332 10.5692C2.35301 10.007 2.16113 9.51164 1.74364 9.12063C1.55628 8.96465 1.40032 8.9289 1.16259 8.88565ZM33.0864 9.29581C32.5654 9.88195 32.5905 10.7482 32.5318 11.492C32.5253 11.5704 32.5189 11.6487 32.5122 11.7295C32.4983 11.8981 32.4846 12.0667 32.471 12.2354C32.4495 12.5027 32.4275 12.77 32.4054 13.0373C32.3506 13.7007 32.2966 14.3642 32.2426 15.0277C32.1969 15.5896 32.1508 16.1515 32.1043 16.7134C32.0828 16.9759 32.0616 17.2385 32.0405 17.5011C32.0272 17.6629 32.0138 17.8246 32.0004 17.9864C31.9947 18.0587 31.989 18.1311 31.9832 18.2056C31.8839 19.3851 31.8839 19.3851 31.6509 19.6181C31.5047 19.6371 31.5047 19.6371 31.3216 19.6399C31.2532 19.6412 31.1847 19.6426 31.1143 19.644C31.0032 19.6452 31.0032 19.6452 30.8898 19.6464C30.7763 19.6484 30.7763 19.6484 30.6605 19.6504C30.4181 19.6545 30.1757 19.6576 29.9333 19.6608C29.7693 19.6634 29.6052 19.6661 29.4412 19.6688C29.0384 19.6754 28.6357 19.6812 28.2329 19.6864C28.2426 19.8047 28.2527 19.9229 28.2628 20.041C28.2684 20.1069 28.2739 20.1727 28.2796 20.2405C28.2994 20.4218 28.3339 20.6014 28.3696 20.7802C29.8359 20.7802 31.3022 20.7802 32.813 20.7802C32.9302 19.7872 32.9302 19.7872 33.0231 18.7924C33.0289 18.7215 33.0289 18.7215 33.0348 18.6491C33.0407 18.5758 33.0407 18.5758 33.0468 18.5009C33.0556 18.395 33.0643 18.2891 33.0731 18.1832C33.0966 17.8998 33.1198 17.6164 33.143 17.3331C33.1674 17.0353 33.192 16.7377 33.2166 16.44C33.263 15.8781 33.3092 15.3162 33.3553 14.7543C33.4079 14.1139 33.4607 13.4734 33.5136 12.833C33.6221 11.5172 33.7303 10.2014 33.8384 8.88565C33.5119 8.88565 33.3213 9.08201 33.0864 9.29581ZM16.6802 9.84268C16.714 9.9879 16.7478 10.1331 16.7827 10.2827C16.9547 11.0211 16.8593 11.6755 16.7485 12.419C16.7226 12.5944 16.697 12.7698 16.6716 12.9453C16.6602 13.0223 16.6487 13.0993 16.6369 13.1786C16.5796 13.6095 16.5796 13.6095 16.7314 13.9998C17.0041 14.2649 17.3137 14.2329 17.6778 14.2281C17.9453 14.2112 18.1117 14.158 18.296 13.9619C18.4147 13.7651 18.4044 13.6675 18.3806 13.4401C18.3688 13.3235 18.3688 13.3235 18.3568 13.2046C18.3063 12.7885 18.2476 12.3732 18.1852 11.9588C18.0742 11.1958 18.145 10.597 18.3208 9.84268C17.7794 9.84268 17.238 9.84268 16.6802 9.84268ZM8.95556 13.6708C9.25877 14.0498 9.38584 14.1378 9.84423 14.2177C10.7316 14.2904 10.7316 14.2904 11.5532 14.0126C11.6434 13.8998 11.7337 13.787 11.8266 13.6708C10.8792 13.6708 9.93173 13.6708 8.95556 13.6708ZM23.1743 13.6708C23.4775 14.0498 23.6046 14.1378 24.063 14.2177C24.9503 14.2904 24.9503 14.2904 25.772 14.0126C25.8622 13.8998 25.9524 13.787 26.0454 13.6708C25.0979 13.6708 24.1505 13.6708 23.1743 13.6708ZM8.7011 15.564C8.58633 15.7711 8.55425 15.9581 8.51518 16.1917C8.50313 16.2617 8.50313 16.2617 8.49084 16.3332C8.46457 16.4872 8.43941 16.6414 8.41429 16.7956C8.39625 16.903 8.37815 17.0105 8.35999 17.1179C8.32212 17.343 8.28477 17.5681 8.24781 17.7933C8.20053 18.0814 8.15228 18.3693 8.10369 18.6571C8.06629 18.879 8.02925 19.1009 7.99233 19.3229C7.97466 19.429 7.95692 19.5351 7.9391 19.6412C7.91422 19.7899 7.88979 19.9386 7.86549 20.0873C7.85154 20.1718 7.83759 20.2563 7.82321 20.3434C7.79532 20.5605 7.78781 20.7666 7.79345 20.9853C10.7011 21.9726 13.5705 22.175 16.4916 21.1404C17.3555 20.8485 18.0753 21.0107 18.9143 21.2779C19.6821 21.516 20.4606 21.7148 21.2602 21.8056C21.3235 21.8139 21.3868 21.8223 21.452 21.8309C23.4149 22.0418 25.3594 21.6153 27.2075 20.9853C27.1668 20.3586 27.0805 19.744 26.9776 19.1249C26.9697 19.077 26.9618 19.0292 26.9537 18.9799C26.9121 18.7277 26.8701 18.4755 26.8277 18.2234C26.7843 17.9642 26.7421 17.7047 26.7002 17.4452C26.6676 17.2442 26.634 17.0434 26.6001 16.8426C26.5841 16.747 26.5685 16.6513 26.5533 16.5555C26.5319 16.422 26.5091 16.2886 26.4862 16.1553C26.4736 16.0796 26.4611 16.0039 26.4482 15.9259C26.3772 15.688 26.2886 15.5552 26.1138 15.3798C25.9228 15.3156 25.7476 15.3028 25.5471 15.3026C25.4887 15.3024 25.4303 15.3022 25.3701 15.302C25.3062 15.3021 25.2423 15.3022 25.1765 15.3023C25.1084 15.3021 25.0403 15.302 24.9701 15.3018C24.7413 15.3014 24.5124 15.3014 24.2836 15.3015C24.1197 15.3013 23.9559 15.3011 23.7921 15.3008C23.393 15.3003 22.9938 15.3 22.5946 15.3C22.2702 15.3 21.9458 15.2998 21.6214 15.2996C20.7017 15.299 19.782 15.2987 18.8624 15.2988C18.8128 15.2988 18.7632 15.2988 18.7121 15.2988C18.6625 15.2988 18.6129 15.2988 18.5617 15.2988C17.757 15.2988 16.9523 15.2981 16.1476 15.2972C15.3214 15.2962 14.4952 15.2957 13.6691 15.2958C13.2052 15.2958 12.7413 15.2956 12.2774 15.2949C11.8413 15.2942 11.4052 15.2942 10.969 15.2947C10.8088 15.2948 10.6485 15.2946 10.4883 15.2942C10.2699 15.2937 10.0515 15.294 9.83312 15.2945C9.73755 15.294 9.73755 15.294 9.64004 15.2935C9.12583 15.2961 9.12583 15.2961 8.7011 15.564ZM4.10204 17.4989C4.1246 17.8599 4.14716 18.2208 4.1704 18.5927C5.0953 18.5927 6.0202 18.5927 6.97313 18.5927C7.07465 18.0513 7.07465 18.0513 7.17821 17.4989C6.16308 17.4989 5.14794 17.4989 4.10204 17.4989ZM27.8227 17.4989C27.8904 17.8599 27.9581 18.2208 28.0278 18.5927C28.9527 18.5927 29.8776 18.5927 30.8306 18.5927C30.8531 18.2317 30.8757 17.8708 30.8989 17.4989C29.8838 17.4989 28.8686 17.4989 27.8227 17.4989ZM2.11962 21.9423C2.10243 22.0334 2.0892 22.1252 2.07766 22.2172C2.07009 22.2764 2.06252 22.3356 2.05472 22.3967C2.04665 22.4621 2.03859 22.5276 2.03028 22.5951C2.0216 22.6637 2.01293 22.7322 2.00398 22.8029C1.97521 23.031 1.94686 23.2592 1.91855 23.4873C1.89874 23.6455 1.87891 23.8036 1.85907 23.9618C1.81745 24.294 1.77604 24.6263 1.73478 24.9586C1.68193 25.3841 1.62855 25.8096 1.57501 26.2351C1.53392 26.562 1.49311 26.889 1.45239 27.2161C1.43283 27.3729 1.41318 27.5297 1.39344 27.6865C1.36582 27.9063 1.33858 28.126 1.31144 28.3458C1.30324 28.4105 1.29503 28.4751 1.28658 28.5417C1.24595 28.8742 1.22231 29.1952 1.23095 29.5302C1.38886 29.5302 1.54677 29.5302 1.70946 29.5302C2.06404 27.7415 2.40901 25.9511 2.74538 24.1589C2.77337 24.0098 2.80141 23.8608 2.82946 23.7117C2.88221 23.4313 2.93472 23.1509 2.9872 22.8705C3.00319 22.7855 3.01918 22.7004 3.03566 22.6128C3.05012 22.5353 3.06457 22.4578 3.07947 22.3779C3.09219 22.3099 3.1049 22.242 3.11801 22.172C3.14877 22.0154 3.14877 22.0154 3.14501 21.8739C2.98693 21.8721 2.82885 21.8708 2.67077 21.8697C2.53872 21.8685 2.53872 21.8685 2.404 21.8673C2.19734 21.849 2.19734 21.849 2.11962 21.9423ZM31.8559 21.8739C32.1129 23.3359 32.3839 24.795 32.6579 26.2539C32.7167 26.5673 32.7755 26.8808 32.8341 27.1943C32.8798 27.4383 32.9256 27.6823 32.9714 27.9262C32.9931 28.042 33.0148 28.1578 33.0365 28.2735C33.0664 28.4337 33.0965 28.5939 33.1267 28.7541C33.1355 28.8012 33.1443 28.8484 33.1534 28.8969C33.1935 29.1098 33.2355 29.3209 33.2915 29.5302C33.4494 29.5302 33.6073 29.5302 33.77 29.5302C33.7272 28.6718 33.6253 27.8238 33.5179 26.9715C33.4998 26.826 33.4817 26.6805 33.4635 26.535C33.4258 26.2324 33.3879 25.9299 33.3498 25.6274C33.3009 25.2389 33.2525 24.8503 33.2043 24.4617C33.1671 24.1624 33.1296 23.8631 33.092 23.5638C33.0741 23.4204 33.0562 23.277 33.0384 23.1335C33.0137 22.9344 32.9885 22.7353 32.9633 22.5362C32.956 22.4767 32.9487 22.4172 32.9411 22.3559C32.9295 22.0931 32.9295 22.0931 32.813 21.8739C32.6521 21.869 32.4911 21.8682 32.3302 21.8697C32.242 21.8703 32.1538 21.8709 32.0629 21.8715C31.9946 21.8723 31.9263 21.8731 31.8559 21.8739ZM16.9536 22.1474C16.9536 23.6814 16.9536 25.2153 16.9536 26.7958C17.3145 26.7958 17.6755 26.7958 18.0474 26.7958C18.0474 25.2618 18.0474 23.7278 18.0474 22.1474C17.8409 22.0958 17.7053 22.0697 17.5005 22.0705C17.4554 22.0703 17.4102 22.0701 17.3638 22.0699C17.2023 22.0766 17.2023 22.0766 16.9536 22.1474ZM9.02392 22.5575C9.24156 23.9234 9.49723 25.2813 9.75579 26.6398C9.80019 26.8734 9.84439 27.107 9.88859 27.3406C9.9314 27.5668 9.97428 27.7929 10.0172 28.019C10.0376 28.1264 10.0579 28.2338 10.0783 28.3411C10.1065 28.4899 10.1348 28.6386 10.1631 28.7874C10.1791 28.8717 10.1952 28.956 10.2117 29.0429C10.2444 29.207 10.2799 29.3685 10.3227 29.5302C10.4807 29.5302 10.6386 29.5302 10.8013 29.5302C10.7599 28.7544 10.6768 27.9884 10.5791 27.218C10.564 27.0975 10.5489 26.977 10.5339 26.8565C10.5026 26.6063 10.4711 26.3561 10.4394 26.106C10.3989 25.7855 10.3588 25.465 10.3188 25.1445C10.2878 24.8967 10.2567 24.6489 10.2255 24.4012C10.2107 24.2829 10.1958 24.1647 10.181 24.0464C10.1604 23.8819 10.1396 23.7173 10.1187 23.5528C10.1127 23.5043 10.1067 23.4557 10.1004 23.4057C10.0725 23.1873 10.0415 22.9745 9.98095 22.7626C9.85998 22.7281 9.73891 22.694 9.61779 22.6601C9.55038 22.641 9.48296 22.622 9.41351 22.6024C9.22743 22.5494 9.22743 22.5494 9.02392 22.5575ZM25.4216 22.6601C25.2877 22.6942 25.1539 22.7284 25.02 22.7626C24.832 23.9414 24.6844 25.1252 24.5366 26.3095C24.5013 26.5924 24.4656 26.8752 24.4297 27.158C24.4019 27.3781 24.3743 27.5982 24.3469 27.8183C24.3338 27.9227 24.3206 28.027 24.3074 28.1313C24.2889 28.2766 24.2709 28.4219 24.2529 28.5672C24.2426 28.6495 24.2323 28.7317 24.2217 28.8165C24.1993 29.0558 24.1959 29.2899 24.1997 29.5302C24.3576 29.5302 24.5155 29.5302 24.6782 29.5302C25.0202 27.806 25.3534 26.0803 25.6737 24.352C25.6966 24.2288 25.6966 24.2288 25.7199 24.1031C25.7632 23.8703 25.8062 23.6374 25.8491 23.4045C25.8621 23.3345 25.8751 23.2644 25.8885 23.1922C25.9003 23.1284 25.912 23.0645 25.9241 22.9987C25.9343 22.9429 25.9446 22.8871 25.9552 22.8297C25.9807 22.6946 25.9807 22.6946 25.977 22.5575C25.7826 22.5575 25.6098 22.612 25.4216 22.6601ZM15.1549 28.5347C14.9886 28.7228 14.939 28.8719 14.9028 29.12C15.7529 29.4021 16.5724 29.4895 17.4663 29.4875C17.5139 29.4875 17.5615 29.4876 17.6105 29.4877C18.8889 29.4882 18.8889 29.4882 20.0981 29.12C20.043 28.7184 19.8436 28.5001 19.5513 28.2314C18.9734 27.8424 18.3345 27.8768 17.6625 27.8769C17.5144 27.8767 17.3664 27.8755 17.2184 27.8742C16.4072 27.8709 15.737 27.9002 15.1549 28.5347Z" fill="#34A853"/>
</g>
<defs>
<clipPath id="clip0_5810_43124">
<rect width="35" height="35" fill="white"/>
</clipPath>
</defs>
</svg>
