<svg width="35" height="35" viewBox="0 0 35 35" fill="none" xmlns="http://www.w3.org/2000/svg">
<g clip-path="url(#clip0_5810_43130)">
<path d="M18.8337 1.35759C18.8947 1.35733 18.9557 1.35708 19.0186 1.35682C19.2242 1.35607 19.4299 1.35581 19.6356 1.35555C19.7825 1.35512 19.9295 1.35466 20.0765 1.35418C20.4766 1.35299 20.8767 1.35227 21.2768 1.35171C21.5266 1.35136 21.7764 1.35094 22.0262 1.35051C22.8072 1.34921 23.5882 1.34824 24.3692 1.34767C25.2717 1.347 26.1743 1.3452 27.0769 1.34244C27.7738 1.34038 28.4708 1.33936 29.1677 1.33914C29.5843 1.33898 30.0009 1.33836 30.4174 1.33665C30.8093 1.33506 31.201 1.33476 31.5929 1.33547C31.7368 1.3355 31.8807 1.33507 32.0247 1.33413C32.2209 1.33293 32.4171 1.3334 32.6134 1.3343C32.6706 1.33355 32.7277 1.3328 32.7866 1.33203C33.0594 1.33507 33.1906 1.34774 33.4266 1.4979C33.6533 1.73463 33.641 1.88246 33.6421 2.20458C33.6424 2.24884 33.6426 2.2931 33.6429 2.3387C33.6437 2.48768 33.6439 2.63667 33.6442 2.78565C33.6446 2.8922 33.6451 2.99875 33.6455 3.1053C33.6467 3.39527 33.6474 3.68523 33.648 3.9752C33.6484 4.15629 33.6488 4.33738 33.6492 4.51847C33.6505 5.08483 33.6515 5.65119 33.6521 6.21756C33.6527 6.87174 33.6545 7.5259 33.6573 8.18008C33.6593 8.68545 33.6604 9.19081 33.6606 9.69619C33.6607 9.99815 33.6614 10.3001 33.6631 10.6021C33.6647 10.8861 33.665 11.1702 33.6643 11.4543C33.6642 11.5585 33.6647 11.6628 33.6656 11.767C33.6668 11.9094 33.6663 12.0517 33.6654 12.1941C33.6656 12.2738 33.6657 12.3534 33.6659 12.4355C33.6249 12.6917 33.538 12.8048 33.3586 12.9887C33.1583 13.0889 32.9555 13.0693 32.7358 13.0711C32.6857 13.0718 32.6357 13.0725 32.5842 13.0732C32.4185 13.0753 32.2528 13.077 32.087 13.0787C31.9723 13.0801 31.8575 13.0816 31.7428 13.083C31.4405 13.0868 31.1382 13.0902 30.8359 13.0935C30.5275 13.0969 30.2191 13.1007 29.9108 13.1045C29.3055 13.1119 28.7002 13.1188 28.095 13.1255C28.1115 13.1762 28.1281 13.2269 28.1452 13.2791C28.2199 13.5083 28.2942 13.7377 28.3684 13.9671C28.3945 14.0469 28.4206 14.1267 28.4474 14.2089C28.4721 14.2854 28.4968 14.3618 28.5222 14.4406C28.5451 14.5111 28.568 14.5816 28.5916 14.6543C28.6418 14.8344 28.6418 14.8344 28.6418 15.0395C28.7127 15.0391 28.7836 15.0386 28.8566 15.0381C29.5254 15.034 30.1943 15.0309 30.8631 15.0289C31.2069 15.0278 31.5508 15.0264 31.8946 15.024C32.2266 15.0218 32.5586 15.0206 32.8906 15.0201C33.017 15.0197 33.1435 15.0189 33.27 15.0178C33.4475 15.0163 33.625 15.0161 33.8026 15.0162C33.8546 15.0155 33.9065 15.0148 33.9601 15.014C34.3093 15.016 34.5535 15.0781 34.8625 15.2446C35.0188 15.479 35.0174 15.568 35.0202 15.844C35.0213 15.925 35.0224 16.006 35.0235 16.0895C35.0239 16.1771 35.0243 16.2647 35.0246 16.3549C35.0252 16.4448 35.0259 16.5348 35.0265 16.6274C35.0276 16.8179 35.0282 17.0083 35.0284 17.1987C35.0287 17.4424 35.0313 17.6859 35.0344 17.9295C35.0369 18.1623 35.037 18.395 35.0374 18.6279C35.0388 18.7152 35.0401 18.8025 35.0415 18.8924C35.0384 19.495 35.0384 19.495 34.8431 19.7756C34.5556 19.9575 34.3282 19.9697 33.991 19.9657C33.9236 19.965 33.8563 19.9644 33.787 19.9638C33.7358 19.963 33.6847 19.9622 33.6321 19.9614C33.6323 20.0294 33.6326 20.0975 33.6328 20.1676C33.6389 21.822 33.6434 23.4765 33.6462 25.131C33.6477 25.9311 33.6496 26.7312 33.6527 27.5313C33.6554 28.2286 33.6572 28.9258 33.6578 29.6231C33.6582 29.9924 33.659 30.3617 33.661 30.731C33.6628 31.0784 33.6634 31.4259 33.663 31.7734C33.6631 31.901 33.6636 32.0286 33.6647 32.1562C33.666 32.3304 33.6657 32.5044 33.665 32.6785C33.6658 32.7292 33.6665 32.7798 33.6674 32.8319C33.6635 33.1633 33.5945 33.3324 33.3586 33.5649C33.1944 33.647 33.0878 33.6437 32.9043 33.6465C32.8054 33.6481 32.8054 33.6481 32.7045 33.6498C32.4028 33.6528 32.101 33.6556 31.7993 33.6572C31.6401 33.6583 31.4809 33.6602 31.3217 33.6628C31.0923 33.6666 30.863 33.668 30.6336 33.6691C30.527 33.6714 30.527 33.6714 30.4182 33.6737C29.9245 33.6723 29.9245 33.6723 29.6581 33.473C29.452 33.1798 29.4529 32.9328 29.4555 32.5879C29.4556 32.5155 29.4556 32.5155 29.4558 32.4416C29.4562 32.2877 29.457 32.1338 29.4579 31.9798C29.4582 31.8754 29.4585 31.7709 29.4588 31.6665C29.4596 31.4106 29.4607 31.1548 29.4622 30.8989C29.3865 30.8993 29.3865 30.8993 29.3094 30.8997C28.0827 30.9057 26.8561 30.9102 25.6295 30.9131C25.0363 30.9145 24.4431 30.9164 23.8499 30.9195C23.3329 30.9222 22.8159 30.924 22.2989 30.9246C22.0251 30.925 21.7513 30.9258 21.4776 30.9278C21.2199 30.9297 20.9622 30.9302 20.7045 30.9298C20.6099 30.9299 20.5154 30.9304 20.4208 30.9315C20.2916 30.9329 20.1624 30.9324 20.0332 30.9318C19.9248 30.9322 19.9248 30.9322 19.8142 30.9325C19.5687 30.8904 19.4545 30.7962 19.2766 30.6255C18.5021 29.0764 19.2082 27.1621 19.2082 25.4301C14.6965 25.4301 10.1848 25.4301 5.53637 25.4301C5.54449 27.9314 5.54449 27.9314 5.55485 30.4326C5.55577 30.9167 5.55577 30.9167 5.55595 31.1435C5.55626 31.3016 5.55698 31.4597 5.55802 31.6178C5.55952 31.8576 5.55973 32.0973 5.55965 32.337C5.56039 32.4073 5.56113 32.4775 5.56189 32.5499C5.5603 32.9154 5.54445 33.1844 5.33129 33.4966C5.11225 33.6426 5.05299 33.6509 4.80087 33.6531C4.73493 33.654 4.66899 33.6549 4.60105 33.6558C4.52991 33.6559 4.45877 33.6561 4.38548 33.6562C4.31223 33.6567 4.23898 33.6571 4.16352 33.6576C4.00848 33.6583 3.85345 33.6586 3.69841 33.6586C3.46135 33.6589 3.22437 33.6614 2.98731 33.664C2.83671 33.6644 2.68611 33.6646 2.5355 33.6648C2.42921 33.6663 2.42921 33.6663 2.32077 33.6678C1.82819 33.6646 1.82819 33.6646 1.56255 33.5031C1.33436 33.2472 1.35695 33.0312 1.35823 32.7032C1.35817 32.6489 1.35811 32.5947 1.35805 32.5387C1.35794 32.3559 1.35832 32.1731 1.35869 31.9902C1.35871 31.8595 1.3587 31.7289 1.35866 31.5982C1.35864 31.2426 1.35904 30.8869 1.35952 30.5313C1.35994 30.16 1.35999 29.7887 1.36007 29.4174C1.36028 28.7138 1.36084 28.0103 1.36153 27.3067C1.36229 26.5059 1.36267 25.7051 1.36301 24.9043C1.36373 23.2567 1.36493 21.609 1.36645 19.9614C1.31539 19.9624 1.26433 19.9635 1.21172 19.9646C1.14444 19.9654 1.07715 19.9662 1.00783 19.967C0.94126 19.968 0.874694 19.9691 0.806108 19.9702C0.53435 19.9577 0.371226 19.8915 0.13598 19.7563C-0.0202815 19.5219 -0.018869 19.4329 -0.0216815 19.1569C-0.0227744 19.0759 -0.0238684 18.9949 -0.0249944 18.9114C-0.025361 18.8238 -0.0257286 18.7363 -0.0261063 18.646C-0.0267235 18.5561 -0.0273396 18.4661 -0.0279755 18.3735C-0.0291025 18.183 -0.0296301 17.9926 -0.029828 17.8022C-0.0301959 17.5586 -0.0327691 17.315 -0.0358925 17.0715C-0.0384193 16.8387 -0.0385117 16.6059 -0.0389237 16.3731C-0.0402589 16.2858 -0.0415931 16.1984 -0.0429688 16.1085C-0.0398943 15.5059 -0.0398953 15.5059 0.155457 15.2253C0.462883 15.0308 0.728752 15.0286 1.08981 15.0179C1.13494 15.0165 1.18007 15.015 1.22657 15.0136C1.37004 15.0091 1.5135 15.0051 1.65698 15.0011C1.75453 14.9981 1.85209 14.9951 1.94964 14.9921C2.18818 14.9848 2.42672 14.9779 2.66528 14.9712C2.65314 14.9174 2.64099 14.8637 2.62849 14.8083C2.51395 14.3006 2.40023 13.7927 2.28739 13.2847C2.22936 13.0235 2.17102 12.7624 2.11198 12.5015C2.05496 12.2494 1.99876 11.9972 1.94311 11.7449C1.92178 11.6488 1.90017 11.5529 1.87826 11.457C1.84751 11.3222 1.8179 11.1871 1.78834 11.0521C1.77119 10.9754 1.75403 10.8988 1.73636 10.8198C1.69405 10.4832 1.71583 10.2153 1.89624 9.92538C2.23695 9.69606 2.60442 9.67863 3.00707 9.63913C2.97888 9.6149 2.95068 9.59066 2.92163 9.5657C1.87931 8.60481 1.39933 7.12913 1.34001 5.74371C1.33642 5.57675 1.33384 5.40976 1.33227 5.24277C1.33101 5.16244 1.32975 5.08211 1.32845 4.99935C1.3326 4.43282 1.3326 4.43282 1.49676 4.15463C1.80384 3.89509 2.13335 3.9262 2.52265 3.94951C3.32073 4.03786 4.11794 4.33886 4.85278 4.6489C4.88018 4.58933 4.90759 4.52976 4.93582 4.46838C5.29649 3.71271 5.85548 2.57528 6.63012 2.18796C6.8956 2.13949 7.13763 2.13176 7.38101 2.25872C8.12936 2.86328 8.63367 3.78718 9.0227 4.6489C9.14787 4.60065 9.14787 4.60065 9.27558 4.55143C11.216 3.81295 11.216 3.81295 12.0989 3.9653C12.282 4.0892 12.4097 4.17673 12.509 4.37546C12.6319 6.05507 12.4417 7.8121 11.3207 9.14993C11.1724 9.31551 11.0222 9.47855 10.8684 9.63913C10.9587 9.64799 10.9587 9.64799 11.0508 9.65702C11.6966 9.73515 11.6966 9.73515 11.9792 9.92538C12.8781 11.3699 11.5738 13.3091 11.2102 14.9712C16.9626 15.005 16.9626 15.005 22.8313 15.0395C22.8764 14.8365 22.9215 14.6335 22.968 14.4243C23.0004 14.309 23.0344 14.1941 23.0711 14.0801C23.0892 14.0235 23.1072 13.9669 23.1258 13.9085C23.1442 13.8517 23.1627 13.7949 23.1816 13.7364C23.2006 13.6772 23.2195 13.6181 23.239 13.5571C23.2852 13.4131 23.3316 13.2693 23.3782 13.1255C23.3147 13.1252 23.2512 13.125 23.1858 13.1247C22.5874 13.1221 21.9889 13.1182 21.3905 13.1129C21.0828 13.1102 20.7751 13.108 20.4675 13.1069C20.1705 13.1059 19.8735 13.1035 19.5766 13.1003C19.4633 13.0993 19.3501 13.0987 19.2368 13.0987C19.0781 13.0985 18.9194 13.0967 18.7607 13.0944C18.6906 13.0949 18.6906 13.0949 18.6191 13.0955C18.298 13.0885 18.1356 13.0092 17.9094 12.7837C17.8137 12.5923 17.8318 12.4343 17.831 12.2202C17.8307 12.1759 17.8305 12.1316 17.8302 12.086C17.8295 11.9371 17.8292 11.7881 17.829 11.6391C17.8285 11.5325 17.8281 11.426 17.8276 11.3194C17.8264 11.0295 17.8257 10.7395 17.8251 10.4495C17.8248 10.2685 17.8244 10.0874 17.8239 9.90628C17.8226 9.33992 17.8217 8.77355 17.8211 8.20719C17.8204 7.55301 17.8186 6.89884 17.8159 6.24467C17.8138 5.7393 17.8128 5.23393 17.8126 4.72856C17.8124 4.42659 17.8118 4.12464 17.8101 3.82268C17.8085 3.5386 17.8082 3.25454 17.8089 2.97045C17.8089 2.8662 17.8085 2.76195 17.8075 2.65771C17.8063 2.51531 17.8068 2.37302 17.8077 2.23062C17.8076 2.15096 17.8074 2.0713 17.8072 1.98922C17.8482 1.73303 17.9352 1.61996 18.1145 1.436C18.3387 1.32389 18.5872 1.35753 18.8337 1.35759ZM19.2766 2.80319C19.2766 5.71325 19.2766 8.62331 19.2766 11.6216C23.5402 11.6216 27.8038 11.6216 32.1965 11.6216C32.1965 8.71149 32.1965 5.80143 32.1965 2.80319C27.933 2.80319 23.6694 2.80319 19.2766 2.80319ZM6.90356 3.9653C6.53219 4.50326 6.23549 5.05801 6.01489 5.67429C5.99806 5.72099 5.98123 5.76769 5.96388 5.81581C5.68035 6.75049 5.94948 7.71008 6.39086 8.54538C6.54958 8.82818 6.72163 9.09759 6.90356 9.36569C7.60927 8.55141 8.02815 7.54501 8.016 6.46709C7.9453 5.53683 7.49955 4.71651 6.97192 3.9653C6.94936 3.9653 6.9268 3.9653 6.90356 3.9653ZM2.802 5.53757C2.79115 5.91319 2.81862 6.24903 2.91308 6.61423C2.93135 6.68508 2.93135 6.68508 2.95 6.75737C3.24916 7.85265 3.83975 8.53571 4.78602 9.1227C4.88674 9.1753 4.88674 9.1753 4.9895 9.22897C5.03461 9.20642 5.07973 9.18386 5.12622 9.16061C5.09899 9.0977 5.07176 9.03478 5.0437 8.96996C4.74017 8.25212 4.51233 7.55066 4.50097 6.76358C4.50313 6.36922 4.50313 6.36922 4.34596 6.02196C4.19877 5.92323 4.06382 5.86763 3.89575 5.81101C3.82675 5.78475 3.75775 5.75849 3.68666 5.73143C3.37859 5.62057 3.13151 5.53757 2.802 5.53757ZM10.2532 5.72983C10.2045 5.74767 10.1559 5.76552 10.1058 5.7839C9.73454 5.91464 9.73454 5.91464 9.43286 6.1528C9.39463 6.38106 9.39463 6.38106 9.39868 6.64413C9.36985 7.55965 9.10054 8.38821 8.74926 9.22897C9.49811 9.01565 10.1158 8.44309 10.5266 7.79343C10.8884 7.10387 11.1195 6.31978 11.0735 5.53757C10.7662 5.53757 10.535 5.62185 10.2532 5.72983ZM3.34887 11.143C3.43721 11.6731 3.53031 12.1934 3.64848 12.7164C3.66178 12.776 3.67508 12.8357 3.68878 12.8971C3.73759 13.1157 3.78678 13.3342 3.83593 13.5527C3.94591 14.0434 4.05588 14.534 4.16918 15.0395C5.99643 15.0395 7.82368 15.0395 9.70629 15.0395C9.84165 14.4347 9.977 13.8298 10.1164 13.2066C10.1593 13.0158 10.2021 12.8249 10.2462 12.6283C10.2799 12.4774 10.3135 12.3265 10.3472 12.1756C10.3649 12.097 10.3826 12.0183 10.4008 11.9373C10.4175 11.8624 10.4341 11.7874 10.4513 11.7103C10.4659 11.6451 10.4804 11.58 10.4955 11.5129C10.533 11.3425 10.533 11.3425 10.5266 11.143C8.15795 11.143 5.7893 11.143 3.34887 11.143ZM24.9504 13.0571C24.7953 13.4605 24.6571 13.8668 24.5275 14.279C24.5088 14.3374 24.4902 14.3957 24.471 14.4558C24.4534 14.5115 24.4358 14.5672 24.4177 14.6246C24.4018 14.6748 24.386 14.725 24.3696 14.7767C24.3292 14.903 24.3292 14.903 24.3352 15.0395C25.2601 15.0395 26.185 15.0395 27.1379 15.0395C26.9602 14.3275 26.9602 14.3275 26.7534 13.6253C26.7386 13.5774 26.7238 13.5295 26.7086 13.4802C26.6494 13.2503 26.6494 13.2503 26.5227 13.0571C26.406 13.0511 26.289 13.0498 26.1721 13.0504C26.1014 13.0506 26.0307 13.0509 25.9578 13.0511C25.8834 13.0517 25.809 13.0522 25.7323 13.0528C25.6576 13.0531 25.5829 13.0534 25.506 13.0538C25.3208 13.0546 25.1356 13.0557 24.9504 13.0571ZM1.36645 16.4751C1.36645 17.1518 1.36645 17.8286 1.36645 18.5258C12.0141 18.5258 22.6618 18.5258 33.6321 18.5258C33.6321 17.8491 33.6321 17.1723 33.6321 16.4751C22.9844 16.4751 12.3368 16.4751 1.36645 16.4751ZM2.802 19.9614C2.802 23.9994 2.802 28.0374 2.802 32.1977C3.23061 32.1977 3.65922 32.1977 4.10082 32.1977C4.10082 28.1597 4.10082 24.1217 4.10082 19.9614C3.67221 19.9614 3.2436 19.9614 2.802 19.9614ZM5.53637 19.9614C5.53637 21.2924 5.53637 22.6233 5.53637 23.9946C10.0481 23.9946 14.5598 23.9946 19.2082 23.9946C19.2082 22.6636 19.2082 21.3327 19.2082 19.9614C14.6965 19.9614 10.1848 19.9614 5.53637 19.9614ZM20.6438 19.9614C20.6438 21.2924 20.6438 22.6233 20.6438 23.9946C23.5539 23.9946 26.4639 23.9946 29.4622 23.9946C29.4622 22.6636 29.4622 21.3327 29.4622 19.9614C26.5521 19.9614 23.642 19.9614 20.6438 19.9614ZM30.8977 19.9614C30.8977 23.9994 30.8977 28.0374 30.8977 32.1977C31.3263 32.1977 31.7549 32.1977 32.1965 32.1977C32.1965 28.1597 32.1965 24.1217 32.1965 19.9614C31.7679 19.9614 31.3393 19.9614 30.8977 19.9614ZM20.6438 25.4301C20.6438 26.7611 20.6438 28.0921 20.6438 29.4633C23.5539 29.4633 26.4639 29.4633 29.4622 29.4633C29.4622 28.1324 29.4622 26.8014 29.4622 25.4301C26.5521 25.4301 23.642 25.4301 20.6438 25.4301Z" fill="#34A853"/>
<path d="M24.3111 21.2356C24.3982 21.2347 24.3982 21.2347 24.4871 21.2337C24.6099 21.2328 24.7328 21.2321 24.8556 21.2319C25.0432 21.2311 25.2306 21.2277 25.4182 21.2243C25.5376 21.2236 25.6571 21.2231 25.7765 21.2228C25.8604 21.2208 25.8604 21.2208 25.9459 21.2188C26.242 21.2211 26.3516 21.2334 26.5906 21.4257C26.8057 21.7036 26.8314 21.8642 26.796 22.218C26.6591 22.4559 26.5144 22.6081 26.2492 22.6965C26.0714 22.7048 25.8956 22.7094 25.7178 22.7104C25.6398 22.711 25.6398 22.711 25.5602 22.7116C25.4502 22.7122 25.3402 22.7127 25.2303 22.713C25.0625 22.7136 24.8948 22.7157 24.7271 22.7179C24.6201 22.7183 24.5131 22.7187 24.4061 22.719C24.3562 22.7198 24.3063 22.7206 24.2548 22.7215C23.8773 22.7199 23.6599 22.6316 23.3909 22.3718C23.2736 22.1495 23.2836 21.9873 23.3097 21.7395C23.5331 21.2609 23.8223 21.2388 24.3111 21.2356Z" fill="#34A853"/>
<path d="M11.6574 21.2381C11.7138 21.2376 11.7703 21.2372 11.8285 21.2367C11.9477 21.236 12.0669 21.2357 12.1862 21.2357C12.3682 21.2354 12.5501 21.2329 12.732 21.2303C12.8481 21.2299 12.9641 21.2297 13.0801 21.2295C13.1614 21.2281 13.1614 21.2281 13.2444 21.2266C13.5142 21.2288 13.6424 21.2421 13.8757 21.3912C14.0717 21.5944 14.081 21.6444 14.0951 21.9361C14.0875 22.3173 14.0875 22.3173 13.9456 22.4915C13.625 22.6878 13.3521 22.7269 12.984 22.7238C12.9323 22.724 12.8806 22.7242 12.8273 22.7244C12.7185 22.7246 12.6098 22.7242 12.501 22.7233C12.3351 22.7222 12.1693 22.7233 12.0033 22.7246C11.8973 22.7245 11.7912 22.7242 11.6852 22.7238C11.6359 22.7242 11.5866 22.7247 11.5358 22.7251C11.2332 22.7209 11.0423 22.676 10.801 22.4915C10.6532 22.3029 10.6001 22.1828 10.5703 21.9446C10.5998 21.7088 10.6555 21.5848 10.801 21.3978C11.0598 21.214 11.3528 21.2389 11.6574 21.2381Z" fill="#34A853"/>
<path d="M24.3622 26.6955C24.4442 26.6948 24.4442 26.6948 24.5279 26.694C24.6432 26.6932 24.7585 26.693 24.8738 26.6933C25.0495 26.6934 25.2251 26.6906 25.4008 26.6875C25.5131 26.6872 25.6255 26.687 25.7379 26.687C25.79 26.6859 25.8422 26.6847 25.8959 26.6836C26.2861 26.6886 26.4564 26.7903 26.7294 27.0694C26.8341 27.2788 26.8134 27.4533 26.7977 27.6846C26.7152 27.8704 26.6506 27.9856 26.484 28.1028C26.2428 28.1911 26.0049 28.184 25.7512 28.1837C25.6963 28.184 25.6414 28.1843 25.5848 28.1846C25.4688 28.185 25.3527 28.185 25.2367 28.1847C25.0597 28.1845 24.8827 28.1861 24.7057 28.1878C24.5928 28.188 24.4799 28.188 24.367 28.188C24.3143 28.1886 24.2616 28.1892 24.2073 28.1899C23.896 28.1872 23.6962 28.1496 23.4481 27.958C23.2728 27.7243 23.2911 27.4898 23.3114 27.2061C23.3705 27.0127 23.4282 26.9479 23.5889 26.8246C23.8476 26.6998 24.0808 26.6956 24.3622 26.6955Z" fill="#34A853"/>
</g>
<defs>
<clipPath id="clip0_5810_43130">
<rect width="35" height="35" fill="white"/>
</clipPath>
</defs>
</svg>
