<svg width="35" height="35" viewBox="0 0 35 35" fill="none" xmlns="http://www.w3.org/2000/svg">
<g clip-path="url(#clip0_5810_43139)">
<path d="M10.8983 -0.00946438C10.9592 -0.0101211 11.0202 -0.0107779 11.083 -0.0114546C11.1817 -0.0118904 11.1817 -0.0118904 11.2824 -0.0123349C11.3504 -0.0127246 11.4185 -0.0131142 11.4886 -0.0135157C11.6328 -0.0141618 11.777 -0.0146084 11.9213 -0.0148717C12.1405 -0.0155324 12.3596 -0.017652 12.5788 -0.0198117C12.7192 -0.0202584 12.8595 -0.0206172 12.9999 -0.0208799C13.0649 -0.0217239 13.1298 -0.0225679 13.1968 -0.0234375C13.8563 -0.0212638 14.4281 0.142127 14.9028 0.616785C15.4252 1.28756 15.4701 1.99921 15.4687 2.82397C15.4691 2.90607 15.4695 2.98816 15.4699 3.07275C15.4708 3.29879 15.4712 3.52482 15.4713 3.75087C15.4715 3.99532 15.4726 4.23976 15.4735 4.4842C15.475 4.90711 15.4761 5.33002 15.4767 5.75293C15.4777 6.36438 15.4795 6.97583 15.4814 7.58728C15.4845 8.57944 15.487 9.57161 15.4891 10.5638C15.4912 11.5273 15.4936 12.4907 15.4963 13.4542C15.4965 13.5434 15.4965 13.5434 15.4968 13.6344C15.4976 13.9326 15.4985 14.2308 15.4994 14.529C15.5064 17.001 15.5125 19.473 15.518 21.9449C15.5389 21.8654 15.5597 21.786 15.5812 21.7041C15.7809 20.9433 15.9807 20.1825 16.1804 19.4217C16.2831 19.0309 16.3857 18.6401 16.4883 18.2492C17.2789 15.2376 17.2789 15.2376 17.6515 13.828C17.6638 13.7814 17.6762 13.7347 17.6888 13.6867C17.864 13.0244 18.0398 12.3624 18.2158 11.7003C18.4193 10.9346 18.6202 10.1681 18.82 9.40137C18.9399 8.94134 19.0604 8.48147 19.181 8.02163C19.2651 7.70111 19.3488 7.38053 19.4318 7.05974C19.5093 6.75992 19.5876 6.46032 19.6666 6.16086C19.6955 6.05047 19.7242 5.94001 19.7525 5.82946C19.9652 5.00049 20.1773 4.26314 20.9184 3.76132C21.7421 3.29882 22.5387 3.50522 23.3991 3.73571C23.5587 3.77838 23.7186 3.81948 23.8787 3.86038C25.6034 4.30809 25.6034 4.30809 26.071 5.06442C26.468 5.75339 26.3587 6.50514 26.1653 7.24886C26.1275 7.38965 26.0886 7.53013 26.0496 7.67062C26.0237 7.76748 25.998 7.86437 25.9723 7.96128C25.7878 8.65137 25.7878 8.65137 25.7035 8.81991C25.7714 8.79774 25.8392 8.77557 25.9091 8.75272C26.1796 8.67586 26.4413 8.66342 26.7213 8.66442C26.7729 8.66407 26.8246 8.66372 26.8778 8.66336C27.0472 8.66241 27.2166 8.66247 27.3861 8.66263C27.5048 8.66236 27.6236 8.66207 27.7424 8.66174C27.9909 8.66123 28.2394 8.66125 28.4879 8.66161C28.8048 8.66201 29.1218 8.66085 29.4387 8.65926C29.6839 8.65825 29.9291 8.6582 30.1743 8.65841C30.2911 8.65838 30.4079 8.65802 30.5247 8.65733C31.3922 8.65282 32.2066 8.68438 32.8813 9.29843C33.3423 9.87885 33.4495 10.4987 33.4455 11.2225C33.4457 11.2823 33.4459 11.3421 33.4462 11.4038C33.4467 11.6026 33.4463 11.8014 33.4458 12.0002C33.446 12.1434 33.4463 12.2867 33.4466 12.4299C33.4472 12.8177 33.4469 13.2055 33.4465 13.5934C33.4462 13.9998 33.4465 14.4062 33.4467 14.8127C33.4469 15.4951 33.4466 16.1776 33.446 16.86C33.4452 17.6483 33.4455 18.4366 33.4462 19.2249C33.4468 19.9025 33.4469 20.5801 33.4466 21.2576C33.4464 21.662 33.4463 22.0663 33.4468 22.4707C33.4472 22.8509 33.4469 23.2311 33.4461 23.6113C33.4459 23.7506 33.446 23.8899 33.4463 24.0292C33.4467 24.2198 33.4462 24.4104 33.4455 24.6009C33.4458 24.6557 33.4461 24.7104 33.4464 24.7667C33.4436 25.1768 33.409 25.6063 33.2231 25.9781C33.2661 25.9799 33.3091 25.9816 33.3534 25.9835C33.8674 26.0175 34.2945 26.1181 34.6458 26.5164C35.0093 27.0357 35.0346 27.461 35.0309 28.0757C35.0303 28.2246 35.0323 28.3733 35.0345 28.5221C35.0376 29.1202 35.0018 29.5553 34.5951 30.0279C34.5512 30.0647 34.5073 30.1015 34.4621 30.1395C34.4185 30.1774 34.375 30.2153 34.3302 30.2543C34.0293 30.4524 33.7286 30.5069 33.3733 30.5074C33.2562 30.5081 33.2562 30.5081 33.1368 30.5088C33.0517 30.5085 32.9667 30.5083 32.879 30.5081C32.7872 30.5084 32.6954 30.5087 32.6036 30.5091C32.3518 30.5099 32.0999 30.5099 31.8481 30.5097C31.5763 30.5097 31.3046 30.5104 31.0328 30.5111C30.5006 30.5122 29.9684 30.5126 29.4362 30.5127C29.0038 30.5127 28.5714 30.513 28.139 30.5135C26.9134 30.5147 25.6878 30.5153 24.4622 30.5152C24.3961 30.5152 24.33 30.5152 24.262 30.5152C24.1958 30.5152 24.1297 30.5152 24.0616 30.5151C22.9887 30.5151 21.9158 30.5164 20.843 30.5183C19.7417 30.5203 18.6405 30.5212 17.5392 30.5211C16.9208 30.5211 16.3024 30.5215 15.684 30.5229C15.1577 30.5242 14.6314 30.5245 14.1051 30.5235C13.8365 30.5231 13.5679 30.5231 13.2993 30.5243C13.0535 30.5253 12.8078 30.5252 12.5621 30.524C12.4307 30.5236 12.2994 30.5247 12.168 30.5258C12.0903 30.5251 12.0126 30.5245 11.9326 30.5239C11.8319 30.5239 11.8319 30.5239 11.7291 30.5239C11.5034 30.4802 11.4221 30.393 11.2797 30.2164C11.241 30.0797 11.241 30.0797 11.2413 29.943C11.239 29.8753 11.239 29.8753 11.2367 29.8062C11.3095 29.5747 11.4109 29.5194 11.6215 29.3961C11.911 29.3542 12.1991 29.3594 12.4912 29.3615C12.5807 29.3611 12.6701 29.3607 12.7622 29.3603C13.0103 29.3591 13.2584 29.3597 13.5065 29.3606C13.7742 29.3612 14.0418 29.3602 14.3094 29.3595C14.7731 29.3583 15.2368 29.3582 15.7004 29.3587C16.3712 29.3594 17.0419 29.3585 17.7126 29.3572C18.8011 29.355 19.8897 29.354 20.9783 29.3538C21.0434 29.3537 21.1086 29.3537 21.1757 29.3537C21.241 29.3537 21.3062 29.3537 21.3734 29.3537C22.2985 29.3535 23.2236 29.353 24.1486 29.3522C24.2463 29.3521 24.2463 29.3521 24.3459 29.3521C25.4305 29.3511 26.515 29.3496 27.5996 29.3479C28.2688 29.3468 28.938 29.3463 29.6072 29.3465C30.0655 29.3467 30.5238 29.3464 30.9821 29.3457C31.2467 29.3453 31.5113 29.3452 31.7759 29.3456C32.0624 29.3461 32.3489 29.3456 32.6355 29.3449C32.7195 29.3452 32.8036 29.3456 32.8903 29.3459C32.9668 29.3455 33.0433 29.3452 33.1222 29.3448C33.1883 29.3448 33.2545 29.3448 33.3227 29.3448C33.5055 29.3268 33.6162 29.2901 33.7699 29.191C33.9105 28.9099 33.854 28.5472 33.8554 28.2382C33.8568 28.1623 33.8582 28.0864 33.8597 28.0082C33.86 27.9355 33.8604 27.8627 33.8607 27.7878C33.8614 27.721 33.862 27.6542 33.8627 27.5854C33.8521 27.4117 33.8521 27.4117 33.7472 27.292C33.4893 27.1032 33.2108 27.1305 32.9064 27.1312C32.8524 27.1311 32.7985 27.131 32.743 27.1308C32.5608 27.1304 32.3786 27.1305 32.1964 27.1306C32.0651 27.1304 31.9338 27.1302 31.8024 27.13C31.4404 27.1295 31.0783 27.1293 30.7162 27.1293C30.3262 27.1292 29.9361 27.1286 29.5461 27.1282C28.6928 27.1272 27.8394 27.1268 26.9861 27.1265C26.4536 27.1263 25.9211 27.1261 25.3886 27.1258C23.9153 27.1249 22.442 27.1242 20.9687 27.124C20.8734 27.124 20.7781 27.124 20.6828 27.1239C20.5873 27.1239 20.4918 27.1239 20.3963 27.1239C20.2046 27.1239 20.013 27.1238 19.8213 27.1238C19.7738 27.1238 19.7263 27.1238 19.6773 27.1238C18.136 27.1235 16.5948 27.1224 15.0535 27.1208C13.4245 27.1192 11.7956 27.1182 10.1667 27.1181C9.27846 27.1181 8.39025 27.1177 7.50205 27.1165C6.74589 27.1154 5.98974 27.115 5.23358 27.1156C4.84755 27.1159 4.46152 27.1158 4.07549 27.1149C3.72239 27.114 3.3693 27.1141 3.0162 27.1149C2.88818 27.115 2.76015 27.1148 2.63213 27.1142C2.45862 27.1135 2.28516 27.114 2.11166 27.1148C2.03643 27.114 2.03643 27.114 1.95969 27.1132C1.63165 27.1166 1.39851 27.1777 1.16252 27.4137C1.14522 27.6838 1.14986 27.9548 1.1497 28.2254C1.14845 28.3398 1.14845 28.3398 1.14717 28.4564C1.14703 28.5295 1.1469 28.6025 1.14676 28.6778C1.14634 28.7786 1.14634 28.7786 1.14591 28.8815C1.1504 29.0711 1.1504 29.0711 1.29924 29.2594C1.50647 29.3284 1.64518 29.3364 1.86192 29.3367C1.936 29.337 2.01009 29.3372 2.08642 29.3375C2.16771 29.3375 2.249 29.3375 2.33276 29.3374C2.46116 29.3378 2.46116 29.3378 2.59215 29.3381C2.77836 29.3386 2.96456 29.339 3.15077 29.3393C3.44519 29.3397 3.73961 29.3408 4.03403 29.3421C4.13483 29.3425 4.23563 29.3429 4.33643 29.3434C4.38691 29.3436 4.43739 29.3438 4.4894 29.344C5.17483 29.3469 5.86026 29.3492 6.5457 29.35C7.0081 29.3506 7.47047 29.3521 7.93286 29.3547C8.17755 29.3561 8.42222 29.3569 8.66691 29.3566C8.93975 29.3562 9.21256 29.3579 9.48539 29.3598C9.56654 29.3594 9.6477 29.3589 9.73131 29.3585C9.80559 29.3593 9.87987 29.3602 9.95639 29.3611C10.0532 29.3613 10.0532 29.3613 10.1519 29.3616C10.3741 29.4065 10.4552 29.4957 10.5961 29.6695C10.6708 29.8777 10.6728 29.9815 10.6132 30.195C10.5278 30.3531 10.5278 30.3531 10.3227 30.4898C10.1572 30.5074 10.1572 30.5074 9.95699 30.5081C9.8811 30.5087 9.80521 30.5093 9.72702 30.5099C9.64371 30.5098 9.56039 30.5098 9.47456 30.5097C9.34298 30.5104 9.34298 30.5104 9.20874 30.5111C8.96791 30.5123 8.72708 30.5126 8.48624 30.5127C8.33562 30.5128 8.18501 30.5131 8.03439 30.5135C7.50845 30.5147 6.98251 30.5153 6.45657 30.5152C5.96718 30.5151 5.47782 30.5165 4.98844 30.5187C4.56777 30.5205 4.1471 30.5212 3.72642 30.5211C3.47541 30.5211 3.22443 30.5215 2.97342 30.5229C2.69296 30.5245 2.41254 30.5239 2.13207 30.523C2.00835 30.5242 2.00835 30.5242 1.88213 30.5254C1.33063 30.5213 0.886455 30.4438 0.455694 30.0821C0.419653 30.0376 0.383612 29.9931 0.346479 29.9472C0.309205 29.9029 0.27193 29.8586 0.233526 29.8129C-0.060832 29.375 -0.0273719 28.9087 -0.0286795 28.4011C-0.0294899 28.2524 -0.0328523 28.1039 -0.0363065 27.9552C-0.0426532 27.4155 -0.0196577 26.9573 0.342207 26.525C0.74325 26.1413 1.117 25.9895 1.67521 25.9696C1.73161 25.9724 1.78801 25.9752 1.84611 25.9781C1.82436 25.9218 1.82436 25.9218 1.80217 25.8643C1.66604 25.4895 1.61145 25.1685 1.61499 24.7714C1.61467 24.7152 1.61435 24.659 1.61402 24.6011C1.61321 24.4145 1.61385 24.228 1.6145 24.0415C1.61422 23.907 1.61386 23.7726 1.61341 23.6381C1.61248 23.2741 1.61284 22.9102 1.61349 22.5462C1.61401 22.1647 1.61353 21.7832 1.6132 21.4016C1.61283 20.761 1.61332 20.1204 1.6143 19.4798C1.61541 18.74 1.61505 18.0001 1.61392 17.2603C1.61299 16.6242 1.61286 15.9881 1.6134 15.3521C1.61372 14.9726 1.61376 14.593 1.61308 14.2135C1.61249 13.8567 1.61291 13.4998 1.61409 13.143C1.61436 13.0123 1.61428 12.8816 1.61383 12.7509C1.61326 12.5719 1.61397 12.393 1.61499 12.2141C1.61454 12.1629 1.61408 12.1116 1.61361 12.0588C1.61981 11.4942 1.78885 10.9408 2.18791 10.5289C2.75014 10.0779 3.23791 9.96065 3.9471 9.95905C4.05304 9.95837 4.05304 9.95837 4.16112 9.95768C4.31028 9.95699 4.45944 9.95666 4.60859 9.95668C4.83514 9.95639 5.06159 9.9539 5.28811 9.95131C5.43356 9.95091 5.579 9.95064 5.72444 9.95051C5.7914 9.94953 5.85836 9.94855 5.92734 9.94753C6.48758 9.9512 6.9314 10.0941 7.40031 10.4007C7.80886 10.8278 8.07081 11.2878 8.08 11.8822C8.0811 11.947 8.0822 12.0118 8.08333 12.0785C8.08638 12.373 8.08917 12.6674 8.09075 12.9618C8.09188 13.1172 8.09375 13.2726 8.09636 13.428C8.10009 13.6523 8.10159 13.8764 8.1026 14.1007C8.10415 14.1702 8.1057 14.2397 8.10729 14.3113C8.10585 14.7915 8.10585 14.7915 7.90677 15.016C7.68495 15.1295 7.56064 15.1508 7.31486 15.109C7.15745 14.9813 7.06342 14.8795 6.97307 14.6988C6.96642 14.606 6.96381 14.513 6.96337 14.42C6.96265 14.3337 6.96265 14.3337 6.96191 14.2457C6.96163 14.1834 6.96134 14.1211 6.96105 14.0569C6.95946 13.9252 6.95781 13.7936 6.95611 13.6619C6.95371 13.4542 6.9517 13.2464 6.95079 13.0387C6.94973 12.8383 6.94698 12.638 6.94396 12.4376C6.94409 12.3759 6.94422 12.3141 6.94436 12.2505C6.93707 11.873 6.89159 11.6428 6.63127 11.3492C6.33086 11.092 6.01933 11.1132 5.64246 11.1145C5.54906 11.114 5.54906 11.114 5.45376 11.1134C5.32236 11.113 5.19096 11.1131 5.05955 11.1136C4.85909 11.1142 4.65877 11.1123 4.45832 11.1101C4.33037 11.11 4.20242 11.11 4.07447 11.1102C3.98505 11.1091 3.98505 11.1091 3.89382 11.1079C3.5223 11.1121 3.2946 11.1582 3.00822 11.4176C2.8088 11.7389 2.77376 12.0132 2.7771 12.3829C2.77678 12.4377 2.77646 12.4925 2.77613 12.5489C2.77532 12.7319 2.77596 12.9148 2.77661 13.0977C2.77633 13.2291 2.77597 13.3605 2.77552 13.4919C2.77458 13.8484 2.77495 14.2049 2.7756 14.5613C2.77612 14.9345 2.77563 15.3076 2.77531 15.6807C2.77494 16.3074 2.77543 16.934 2.77641 17.5606C2.77752 18.2849 2.77716 19.0093 2.77603 19.7336C2.7751 20.3556 2.77497 20.9776 2.77551 21.5996C2.77583 21.9711 2.77587 22.3425 2.77519 22.714C2.7746 23.0632 2.77501 23.4124 2.7762 23.7617C2.77647 23.8898 2.77639 24.0179 2.77594 24.1461C2.77538 24.3211 2.77608 24.496 2.7771 24.6709C2.77665 24.7216 2.77619 24.7723 2.77572 24.8245C2.77935 25.1453 2.83906 25.3638 3.00822 25.6363C3.34642 25.9424 3.63854 25.9493 4.07207 25.9437C4.13424 25.9438 4.19641 25.9439 4.26047 25.944C4.39147 25.9439 4.52246 25.9431 4.65345 25.9416C4.8533 25.9397 5.05302 25.9402 5.25287 25.9411C5.38051 25.9407 5.50815 25.9401 5.63579 25.9394C5.72488 25.9397 5.72488 25.9397 5.81578 25.94C6.1571 25.9347 6.41272 25.9094 6.69963 25.7047C6.97966 25.3098 6.93383 24.8752 6.93209 24.4114C6.93257 24.3225 6.93305 24.2335 6.93354 24.1418C6.93457 23.9489 6.93497 23.756 6.93487 23.5631C6.93473 23.258 6.93607 22.953 6.93762 22.6479C6.94041 22.0556 6.94169 21.4633 6.94282 20.871C6.94435 20.1166 6.94664 19.3622 6.95015 18.6078C6.95151 18.3045 6.95217 18.0013 6.95227 17.698C6.95241 17.5549 6.95286 17.4118 6.95344 17.2686C6.95414 17.0941 6.95436 16.9196 6.954 16.7451C6.95446 16.6683 6.95493 16.5914 6.95541 16.5122C6.95552 16.4455 6.95563 16.3787 6.95575 16.3099C6.97385 16.1265 7.01237 16.0162 7.10978 15.8609C7.29274 15.7186 7.39126 15.7245 7.62675 15.7328C7.86174 15.7926 7.86174 15.7926 7.97736 15.9088C8.08851 16.1041 8.09243 16.23 8.0924 16.4543C8.09288 16.5334 8.09336 16.6126 8.09385 16.6941C8.09333 16.7807 8.09281 16.8673 8.09227 16.9565C8.09243 17.0488 8.09269 17.1411 8.09302 17.2335C8.09367 17.484 8.09302 17.7346 8.09211 17.9851C8.09134 18.2475 8.09162 18.5099 8.09175 18.7723C8.09181 19.213 8.09106 19.6538 8.0898 20.0946C8.08835 20.6037 8.08811 21.1129 8.08854 21.622C8.08893 22.1121 8.08854 22.6022 8.08777 23.0923C8.08746 23.3007 8.0874 23.5091 8.08754 23.7175C8.08767 23.9632 8.08711 24.2088 8.08603 24.4545C8.0856 24.5873 8.08584 24.7201 8.0861 24.8529C8.08562 24.9325 8.08514 25.012 8.08464 25.094C8.08443 25.1972 8.08443 25.1972 8.08421 25.3026C8.06682 25.4996 8.06682 25.4996 7.9301 25.9098C8.33615 25.9323 8.74221 25.9549 9.16057 25.9781C9.12728 25.8965 9.09398 25.815 9.05968 25.7309C8.91398 25.2901 8.92688 24.8563 8.92899 24.396C8.9287 24.2985 8.92833 24.2009 8.92787 24.1033C8.92689 23.8365 8.92717 23.5697 8.92768 23.3029C8.928 23.0146 8.92715 22.7263 8.92645 22.4381C8.92527 21.8738 8.92521 21.3096 8.92557 20.7453C8.92585 20.2866 8.92575 19.8278 8.92538 19.3691C8.92533 19.3037 8.92528 19.2384 8.92523 19.1711C8.92512 19.0383 8.92502 18.9056 8.92491 18.7728C8.92397 17.5284 8.92435 16.2841 8.92513 15.0397C8.92581 13.902 8.92493 12.7643 8.92329 11.6265C8.92162 10.4575 8.92097 9.28853 8.92142 8.11952C8.92166 7.46353 8.92151 6.80754 8.92031 6.15155C8.9193 5.59311 8.91926 5.03467 8.92045 4.47623C8.92103 4.19148 8.92118 3.90675 8.92013 3.622C8.91918 3.36098 8.91951 3.09998 8.92083 2.83896C8.92121 2.70057 8.92025 2.56217 8.91924 2.42379C8.92505 1.69968 9.0547 1.06834 9.56592 0.529467C9.938 0.219866 10.4116 -0.0052221 10.8983 -0.00946438ZM10.2543 1.4371C9.9932 1.89143 10.0204 2.33817 10.0227 2.85184C10.0225 2.94773 10.0221 3.04363 10.0216 3.13952C10.0206 3.40238 10.0209 3.66523 10.0214 3.9281C10.0218 4.21184 10.0209 4.49558 10.0202 4.77932C10.019 5.33494 10.019 5.89054 10.0193 6.44616C10.0196 6.89777 10.0195 7.34937 10.0191 7.80098C10.0191 7.86526 10.019 7.92955 10.019 7.99578C10.0189 8.12637 10.0188 8.25696 10.0187 8.38755C10.0177 9.6121 10.0181 10.8366 10.0189 12.0612C10.0196 13.1814 10.0187 14.3016 10.017 15.4218C10.0154 16.5721 10.0147 17.7225 10.0152 18.8729C10.0154 19.5187 10.0153 20.1645 10.0141 20.8102C10.0131 21.36 10.013 21.9097 10.0142 22.4594C10.0148 22.7398 10.0149 23.0202 10.0139 23.3007C10.0129 23.5575 10.0133 23.8143 10.0146 24.0712C10.015 24.2078 10.014 24.3445 10.013 24.4811C10.017 24.9661 10.0534 25.2958 10.3227 25.7047C10.6606 25.9958 10.9993 26.0179 11.4316 26.012C11.4907 26.0121 11.5497 26.0122 11.6106 26.0123C11.7347 26.0122 11.8589 26.0114 11.983 26.01C12.1723 26.008 12.3616 26.0086 12.5509 26.0095C12.672 26.0091 12.7931 26.0085 12.9142 26.0078C12.9985 26.0081 12.9985 26.0081 13.0845 26.0084C13.4989 26.0016 13.783 25.9137 14.1038 25.6363C14.3009 25.4027 14.2962 25.1971 14.2965 24.903C14.2969 24.7798 14.2969 24.7798 14.2973 24.6542C14.2972 24.5626 14.2972 24.471 14.2971 24.3794C14.2973 24.2825 14.2975 24.1856 14.2977 24.0886C14.2983 23.8216 14.2984 23.5546 14.2985 23.2876C14.2986 22.9999 14.2991 22.7122 14.2996 22.4245C14.3005 21.7952 14.3009 21.1658 14.3012 20.5365C14.3014 20.1437 14.3017 19.7509 14.302 19.3582C14.3028 18.2712 14.3035 17.1842 14.3038 16.0972C14.3038 16.0276 14.3038 15.958 14.3038 15.8863C14.3038 15.8166 14.3038 15.7468 14.3039 15.6749C14.3039 15.5336 14.3039 15.3922 14.3039 15.2509C14.304 15.1457 14.304 15.1457 14.304 15.0384C14.3043 13.9017 14.3055 12.765 14.307 11.6283C14.3087 10.4619 14.3095 9.29555 14.3096 8.12919C14.3097 7.47405 14.3101 6.81891 14.3113 6.16376C14.3123 5.606 14.3127 5.04824 14.3121 4.49048C14.3119 4.20578 14.3119 3.9211 14.3129 3.63641C14.3138 3.3759 14.3137 3.11541 14.3128 2.8549C14.3127 2.76055 14.3129 2.6662 14.3135 2.57185C14.3143 2.44378 14.3136 2.3157 14.3129 2.18763C14.313 2.08084 14.313 2.08084 14.3131 1.97189C14.2722 1.66296 14.1396 1.48856 13.9115 1.28329C13.4817 0.98239 12.8882 1.07465 12.3819 1.07137C12.2544 1.07024 12.1269 1.06838 11.9994 1.06576C11.8148 1.06199 11.6302 1.06052 11.4455 1.05952C11.3892 1.05797 11.3328 1.05642 11.2748 1.05482C10.8745 1.05627 10.5408 1.14273 10.2543 1.4371ZM21.3285 4.85507C21.1079 5.20133 20.9847 5.52273 20.8848 5.91911C20.8698 5.9762 20.8548 6.03329 20.8393 6.09212C20.7897 6.28166 20.7411 6.47145 20.6925 6.66125C20.6572 6.79665 20.6219 6.93204 20.5865 7.06742C20.511 7.35719 20.4358 7.64707 20.361 7.93704C20.2421 8.39798 20.1222 8.85867 20.0021 9.31932C19.8791 9.79113 19.7562 10.2629 19.6336 10.7348C19.3117 11.9733 18.9855 13.2106 18.6565 14.4472C18.5515 14.8423 18.4467 15.2374 18.3421 15.6326C18.0565 16.7114 17.7701 17.79 17.4812 18.868C17.3195 19.4715 17.1585 20.0751 16.9979 20.6789C16.9004 21.0453 16.8026 21.4115 16.7039 21.7775C16.6118 22.1192 16.5206 22.4612 16.43 22.8033C16.3965 22.9294 16.3626 23.0554 16.3284 23.1813C16.2814 23.3543 16.2356 23.5275 16.1901 23.7009C16.1762 23.7508 16.1624 23.8007 16.1481 23.852C16.05 24.2343 16.029 24.5998 16.2057 24.9664C16.4994 25.3068 16.792 25.4103 17.2227 25.5124C17.286 25.5288 17.3494 25.5452 17.4146 25.5621C17.5424 25.5951 17.6704 25.6275 17.7985 25.6592C17.9606 25.7001 18.1212 25.7442 18.2817 25.7909C19.0226 26.0097 19.0226 26.0097 19.7734 25.9055C20.1553 25.6364 20.2802 25.2046 20.3904 24.7679C20.4106 24.6915 20.4106 24.6915 20.4311 24.6137C20.4756 24.4445 20.5192 24.2751 20.5627 24.1057C20.5945 23.9841 20.6264 23.8625 20.6583 23.7409C20.7268 23.4794 20.7949 23.2177 20.8626 22.956C20.9711 22.5369 21.0806 22.118 21.1902 21.6991C21.3239 21.188 21.4574 20.6768 21.5906 20.1655C21.8225 19.2754 22.0561 18.3856 22.2909 17.4962C22.3077 17.4326 22.3245 17.369 22.3418 17.3035C22.4262 16.9839 22.5106 16.6644 22.595 16.3448C22.7465 15.7713 22.8977 15.1978 23.0489 14.6242C23.134 14.3017 23.219 13.9793 23.304 13.6568C23.3212 13.5919 23.3383 13.527 23.3559 13.4601C23.5253 12.8181 23.6946 12.1761 23.864 11.5341C23.9986 11.024 24.1332 10.5139 24.2677 10.0037C24.3778 9.58637 24.4879 9.16903 24.598 8.7517C24.6657 8.49505 24.7335 8.2384 24.8011 7.98175C24.8326 7.86252 24.8641 7.7433 24.8955 7.62409C24.9385 7.46132 24.9814 7.29855 25.0243 7.13578C25.0369 7.08835 25.0494 7.04092 25.0623 6.99206C25.0939 6.87221 25.1253 6.75231 25.1567 6.63241C25.1702 6.58167 25.1838 6.53093 25.1978 6.47865C25.2679 6.17073 25.2575 5.94426 25.1139 5.66256C24.8079 5.30014 24.4583 5.15008 24.0074 5.03558C23.9573 5.02231 23.9073 5.00904 23.8557 4.99537C23.7506 4.96767 23.6453 4.94034 23.54 4.91338C23.3795 4.87221 23.2195 4.82969 23.0594 4.78697C22.9567 4.7601 22.854 4.73331 22.7513 4.7066C22.7038 4.694 22.6564 4.6814 22.6075 4.66842C22.1321 4.54808 21.7138 4.50409 21.3285 4.85507ZM25.7746 10.0221C25.7427 10.0624 25.7108 10.1028 25.6779 10.1444C25.6449 10.1844 25.612 10.2244 25.578 10.2656C25.3619 10.6094 25.4301 10.939 25.4301 11.3492C27.7085 11.3492 29.9869 11.3492 32.3344 11.3492C32.3681 10.6955 32.3681 10.6955 32.0941 10.1372C31.7145 9.78978 31.3973 9.76855 30.8881 9.76701C30.8401 9.76678 30.7922 9.76655 30.7428 9.76632C30.5849 9.76567 30.427 9.76553 30.2692 9.76546C30.1589 9.76524 30.0487 9.76501 29.9385 9.76477C29.7076 9.76436 29.4767 9.76423 29.2458 9.76427C28.9508 9.76428 28.6557 9.76335 28.3607 9.76217C28.133 9.76141 27.9053 9.76127 27.6777 9.76131C27.5689 9.76123 27.4602 9.76093 27.3514 9.7604C27.199 9.75972 27.0466 9.75992 26.8941 9.76034C26.7643 9.76019 26.7643 9.76019 26.6318 9.76004C26.3195 9.78161 26.0228 9.82132 25.7746 10.0221ZM25.4301 12.443C25.4301 16.0523 25.4301 19.6617 25.4301 23.3805C26.8964 23.403 28.3627 23.4256 29.8735 23.4488C30.127 23.7024 30.127 23.7024 30.1469 23.9273C30.0963 24.1205 30.0633 24.2337 29.8945 24.3463C29.6933 24.4223 29.5255 24.4251 29.3104 24.4276C29.1811 24.4297 29.1811 24.4297 29.0491 24.4318C28.9554 24.4326 28.8617 24.4334 28.768 24.4342C28.6718 24.4354 28.5756 24.4368 28.4795 24.4382C28.2268 24.4417 27.9742 24.4444 27.7216 24.4469C27.4636 24.4497 27.2056 24.4532 26.9476 24.4566C26.4418 24.4632 25.9359 24.469 25.4301 24.4742C25.4279 24.5826 25.4263 24.691 25.425 24.7994C25.4241 24.8598 25.4231 24.9202 25.4222 24.9824C25.4379 25.3302 25.5518 25.559 25.8103 25.7987C26.0918 25.9863 26.3005 25.989 26.631 25.9902C26.711 25.9909 26.711 25.9909 26.7927 25.9916C26.9698 25.9929 27.1468 25.9937 27.3239 25.9944C27.3843 25.9947 27.4448 25.995 27.5071 25.9952C27.8271 25.9967 28.1471 25.9977 28.4672 25.9983C28.7976 25.999 29.128 26.0014 29.4584 26.0041C29.7125 26.0059 29.9667 26.0065 30.2209 26.0067C30.3426 26.0071 30.4644 26.0078 30.5862 26.0091C30.7568 26.0108 30.9274 26.0107 31.0981 26.0102C31.1732 26.0116 31.1732 26.0116 31.2499 26.0129C31.5975 26.0094 31.7932 25.923 32.061 25.7047C32.2828 25.3987 32.3442 25.1377 32.3387 24.7647C32.3381 24.7101 32.3374 24.6555 32.3368 24.5992C32.336 24.5579 32.3352 24.5167 32.3344 24.4742C32.2207 24.4692 32.2207 24.4692 32.1047 24.4641C32.0047 24.4589 31.9047 24.4538 31.8046 24.4486C31.7547 24.4465 31.7049 24.4443 31.6535 24.4422C31.1766 24.4162 31.1766 24.4162 30.9672 24.2691C30.863 24.0606 30.8827 23.8834 30.8988 23.6539C31.1039 23.4488 31.1039 23.4488 32.3344 23.3805C32.3344 19.7711 32.3344 16.1617 32.3344 12.443C30.056 12.443 27.7776 12.443 25.4301 12.443ZM24.268 14.1519C24.0786 14.8699 23.8892 15.5879 23.6998 16.3059C23.6072 16.6569 23.5146 17.0079 23.422 17.3589C23.0365 18.8199 22.6512 20.2809 22.2676 21.7423C22.2194 21.9258 22.1712 22.1092 22.1231 22.2927C22.0919 22.4112 22.0608 22.5297 22.0297 22.6482C22.0146 22.7056 21.9995 22.763 21.984 22.8222C21.8952 23.1605 21.8065 23.4987 21.7178 23.837C21.6631 24.046 21.6082 24.255 21.5533 24.4639C21.5281 24.5599 21.503 24.6558 21.4779 24.7518C21.4438 24.8823 21.4095 25.0128 21.3752 25.1432C21.3466 25.2521 21.3466 25.2521 21.3175 25.3633C21.2595 25.5702 21.1914 25.7742 21.1235 25.9781C22.2514 25.9781 23.3793 25.9781 24.5414 25.9781C24.4963 25.73 24.4512 25.4818 24.4047 25.2262C24.3932 25.0561 24.3865 24.8857 24.3857 24.7153C24.3853 24.6695 24.3849 24.6236 24.3845 24.5763C24.3833 24.4256 24.3831 24.2749 24.3829 24.1242C24.3823 24.015 24.3816 23.9058 24.3808 23.7966C24.379 23.5023 24.3779 23.208 24.377 22.9137C24.376 22.6053 24.3741 22.297 24.3724 21.9886C24.3692 21.4057 24.3667 20.8227 24.3644 20.2397C24.3618 19.5756 24.3584 18.9116 24.355 18.2475C24.3479 16.8823 24.3418 15.5171 24.3363 14.1519C24.3138 14.1519 24.2912 14.1519 24.268 14.1519ZM15.3129 25.6363C15.2678 25.7491 15.2227 25.8619 15.1762 25.9781C15.3115 25.9781 15.4469 25.9781 15.5863 25.9781C15.5201 25.8629 15.4517 25.749 15.3813 25.6363C15.3587 25.6363 15.3362 25.6363 15.3129 25.6363Z" fill="#34A853"/>
<path d="M28.5736 31.1712C28.7464 31.3022 28.7768 31.3704 28.8471 31.5813C28.8534 31.735 28.8561 31.8889 28.8567 32.0427C28.8579 32.1346 28.8593 32.2265 28.8607 32.3183C28.8627 32.4628 28.8641 32.6072 28.8642 32.7517C28.8644 32.8914 28.8668 33.031 28.8695 33.1707C28.8701 33.2542 28.8708 33.3378 28.8714 33.4238C28.895 33.6432 28.895 33.6432 29.0746 33.7619C29.3061 33.8573 29.4901 33.862 29.74 33.8585C29.8226 33.8583 29.9051 33.858 29.9902 33.8577C30.1984 33.8386 30.3166 33.8166 30.4877 33.7005C30.5858 33.5042 30.5686 33.3306 30.5729 33.1114C30.5751 33.0196 30.5774 32.9279 30.5797 32.8361C30.5829 32.6915 30.5859 32.5469 30.5886 32.4023C30.5914 32.2627 30.5949 32.1231 30.5985 31.9835C30.6011 31.858 30.6011 31.858 30.6037 31.7301C30.6232 31.5254 30.647 31.4082 30.7611 31.2395C30.9617 31.1225 31.0838 31.102 31.3165 31.1114C31.5548 31.1839 31.5986 31.229 31.7181 31.4446C31.739 31.627 31.7485 31.7931 31.7478 31.9755C31.7481 32.0269 31.7485 32.0783 31.7489 32.1313C31.7493 32.24 31.7492 32.3487 31.7486 32.4574C31.7481 32.6223 31.75 32.7871 31.7522 32.952C31.7552 33.5782 31.7388 34.0423 31.3128 34.5373C31.2689 34.5742 31.225 34.611 31.1798 34.649C31.1145 34.7058 31.1145 34.7058 31.0479 34.7638C30.6401 35.0322 30.2203 35.0243 29.7485 35.0249C29.6838 35.0266 29.6191 35.0283 29.5524 35.03C29.0311 35.0322 28.6135 34.9316 28.2086 34.5915C28.1725 34.547 28.1365 34.5025 28.0994 34.4567C28.0435 34.3902 28.0435 34.3902 27.9864 34.3224C27.7625 33.9892 27.7322 33.6838 27.7327 33.29C27.7324 33.2381 27.7322 33.1861 27.7319 33.1325C27.7315 33.0231 27.7314 32.9136 27.7317 32.8042C27.7319 32.6369 27.7303 32.4697 27.7286 32.3024C27.7284 32.1958 27.7284 32.0893 27.7285 31.9827C27.7278 31.9328 27.7272 31.883 27.7266 31.8316C27.7285 31.6181 27.7408 31.4673 27.8446 31.2785C28.0771 31.0592 28.2825 31.0984 28.5736 31.1712Z" fill="#34A853"/>
<path d="M4.10096 31.1721C4.2372 31.2802 4.29684 31.3588 4.3744 31.5139C4.38336 31.6654 4.38826 31.817 4.39122 31.9687C4.39347 32.0608 4.39574 32.1528 4.39803 32.2449C4.40127 32.3901 4.40431 32.5353 4.40699 32.6806C4.40971 32.8207 4.41323 32.9608 4.41686 33.1009C4.41857 33.1849 4.42028 33.2688 4.42205 33.3553C4.42735 33.5764 4.42735 33.5764 4.57948 33.7698C4.81509 33.8483 5.00628 33.8521 5.25452 33.8552C5.33753 33.857 5.42054 33.8588 5.50607 33.8606C5.76768 33.8357 5.88086 33.7985 6.08338 33.6331C6.13361 33.4211 6.13361 33.4211 6.1245 33.1765C6.12505 33.132 6.1256 33.0876 6.12616 33.0418C6.12774 32.8999 6.12709 32.7581 6.12611 32.6162C6.12584 32.4748 6.12608 32.3335 6.12751 32.1921C6.12872 32.0634 6.12821 31.9347 6.12761 31.8061C6.1539 31.5623 6.21214 31.436 6.35682 31.2405C6.53223 31.1074 6.61735 31.1032 6.83961 31.1123C7.08138 31.1843 7.12487 31.2273 7.24549 31.4456C7.26631 31.628 7.27587 31.7941 7.27513 31.9764C7.27549 32.0278 7.27585 32.0793 7.27622 32.1322C7.27666 32.241 7.27657 32.3497 7.27598 32.4584C7.2754 32.6233 7.27736 32.788 7.27954 32.9529C7.2825 33.5791 7.26615 34.0433 6.84014 34.5383C6.79626 34.5751 6.75237 34.612 6.70716 34.6499C6.64186 34.7068 6.64186 34.7068 6.57525 34.7647C6.16749 35.0332 5.74768 35.0253 5.27589 35.0259C5.21116 35.0276 5.14644 35.0292 5.07975 35.031C4.55845 35.0331 4.14088 34.9325 3.73593 34.5925C3.69989 34.548 3.66385 34.5035 3.62672 34.4577C3.57081 34.3912 3.57081 34.3912 3.51376 34.3233C3.28981 33.9902 3.25959 33.6848 3.26009 33.291C3.25979 33.239 3.2595 33.1871 3.2592 33.1335C3.25881 33.0241 3.25877 32.9146 3.25907 32.8052C3.25929 32.6379 3.25768 32.4707 3.25595 32.3034C3.25579 32.1968 3.25574 32.0902 3.25581 31.9836C3.25518 31.9338 3.25455 31.8839 3.25391 31.8326C3.25585 31.619 3.26817 31.4683 3.37192 31.2795C3.6044 31.0602 3.80987 31.0994 4.10096 31.1721Z" fill="#34A853"/>
<path d="M5.19471 14.7642C5.33816 14.8864 5.39283 14.9875 5.41877 15.1743C5.42762 15.3534 5.42906 15.5314 5.4285 15.7107C5.42908 15.7789 5.42966 15.8472 5.43025 15.9176C5.43185 16.1434 5.43192 16.3691 5.43184 16.5949C5.43232 16.7517 5.43285 16.9086 5.43341 17.0654C5.43433 17.3941 5.43444 17.7228 5.43404 18.0515C5.43364 18.4731 5.43573 18.8946 5.43849 19.3162C5.44026 19.6401 5.44046 19.9639 5.44021 20.2877C5.44032 20.4432 5.44099 20.5987 5.4422 20.7541C5.44371 20.9713 5.44306 21.1884 5.44185 21.4056C5.44321 21.5022 5.44321 21.5022 5.4446 21.6008C5.43897 22.0356 5.43897 22.0356 5.23908 22.255C5.01454 22.3754 4.8989 22.3991 4.64784 22.3521C4.45849 22.2146 4.32692 22.1048 4.27493 21.8694C4.26292 21.6927 4.26222 21.5191 4.26507 21.342C4.2648 21.2751 4.26453 21.2081 4.26425 21.1391C4.2638 20.9181 4.26579 20.6972 4.26786 20.4762C4.26815 20.3225 4.26831 20.1689 4.26834 20.0152C4.26876 19.6934 4.27031 19.3715 4.27275 19.0497C4.27584 18.6369 4.27685 18.2241 4.2771 17.8114C4.27741 17.4941 4.27845 17.1769 4.27976 16.8597C4.28037 16.7075 4.28083 16.5553 4.28114 16.4031C4.28176 16.1905 4.28329 15.978 4.2851 15.7654C4.28514 15.7023 4.28519 15.6393 4.28524 15.5744C4.28592 15.5164 4.2866 15.4584 4.2873 15.3987C4.28762 15.3485 4.28794 15.2982 4.28827 15.2465C4.31579 15.0289 4.3844 14.8779 4.55812 14.7428C4.7919 14.6733 4.96032 14.7045 5.19471 14.7642Z" fill="#34A853"/>
<path d="M27.4217 13.7964C27.4931 13.7959 27.5645 13.7955 27.6381 13.7951C27.7538 13.7949 27.7538 13.7949 27.8718 13.7948C27.9511 13.7946 28.0304 13.7944 28.1121 13.7941C28.28 13.7938 28.448 13.7936 28.6159 13.7936C28.8727 13.7935 29.1295 13.7922 29.3864 13.791C29.5494 13.7908 29.7125 13.7906 29.8756 13.7906C29.9524 13.7901 30.0293 13.7896 30.1084 13.7891C30.2162 13.7894 30.2162 13.7894 30.3261 13.7897C30.3891 13.7896 30.4521 13.7895 30.517 13.7894C30.7134 13.8081 30.859 13.8572 31.0361 13.943C31.1842 14.1248 31.1725 14.2225 31.16 14.46C31.0884 14.7627 31.0884 14.7627 30.8994 14.9001C30.7234 14.927 30.7234 14.927 30.5102 14.9288C30.4303 14.9298 30.3505 14.9309 30.2682 14.9321C30.1819 14.9321 30.0956 14.9321 30.0067 14.9321C29.9181 14.9326 29.8295 14.9331 29.7382 14.9337C29.5507 14.9346 29.3632 14.9347 29.1757 14.9343C28.9356 14.9339 28.6956 14.936 28.4556 14.9388C28.2264 14.9409 27.9971 14.9407 27.7679 14.9406C27.6817 14.9418 27.5956 14.9429 27.5068 14.944C27.4267 14.9434 27.3467 14.9428 27.2642 14.9421C27.1938 14.9423 27.1233 14.9424 27.0508 14.9425C26.8662 14.9001 26.8662 14.9001 26.7043 14.742C26.5927 14.5583 26.5927 14.5583 26.597 14.3105C26.6828 14.0016 26.6828 14.0016 26.8662 13.8747C27.0709 13.8064 27.2078 13.7973 27.4217 13.7964Z" fill="#34A853"/>
<path d="M12.0554 2.8556C12.1934 2.85494 12.3314 2.85282 12.4694 2.85066C12.5568 2.85031 12.6442 2.84996 12.7343 2.84959C12.8542 2.84863 12.8542 2.84863 12.9766 2.84766C13.2164 2.87452 13.344 2.93338 13.5359 3.0771C13.6416 3.28845 13.6243 3.45952 13.6043 3.69234C13.4526 3.89107 13.3637 3.95482 13.1258 4.03413C12.8213 4.05028 12.5163 4.04679 12.2115 4.04695C12.1272 4.04779 12.043 4.04862 11.9562 4.04949C11.8343 4.04968 11.8343 4.04968 11.71 4.04989C11.5986 4.05031 11.5986 4.05031 11.485 4.05074C11.2736 4.03361 11.1269 3.99296 10.9383 3.89741C10.7729 3.69893 10.7313 3.60166 10.7417 3.34199C10.8026 3.1419 10.8401 3.06204 11.0066 2.94038C11.3463 2.82716 11.6996 2.85664 12.0554 2.8556Z" fill="#34A853"/>
<path d="M22.7159 8.39548C22.7826 8.41244 22.8493 8.4294 22.9179 8.44688C23.5343 8.61314 23.5343 8.61314 23.72 8.88681C23.7687 9.18456 23.7519 9.31586 23.5875 9.5704C23.3017 9.75703 23.0833 9.69578 22.7629 9.63876C22.5042 9.58418 22.2493 9.51929 21.9939 9.45077C21.8948 9.42619 21.8948 9.42619 21.7936 9.40111C21.4083 9.29814 21.1595 9.21097 20.9172 8.88681C20.8781 8.64727 20.8871 8.5297 21.007 8.31857C21.405 7.92048 22.2418 8.26663 22.7159 8.39548Z" fill="#34A853"/>
<path d="M22.4034 6.46195C22.6097 6.51167 22.8144 6.56574 23.0191 6.62182C23.0894 6.64023 23.1596 6.65865 23.232 6.67763C23.9902 6.88027 23.9902 6.88027 24.1513 7.08751C24.2201 7.31885 24.185 7.49146 24.13 7.72411C24.0233 7.88418 23.9571 7.91979 23.7731 7.97355C23.3944 8.02138 23.0247 7.87917 22.6603 7.78393C22.5766 7.76366 22.493 7.74339 22.4068 7.72251C21.631 7.52239 21.631 7.52239 21.3956 7.17724C21.3529 6.90668 21.3539 6.76649 21.4981 6.53209C21.7844 6.3532 22.0835 6.39938 22.4034 6.46195Z" fill="#34A853"/>
<path d="M11.5707 6.47738C11.6199 6.47683 11.6691 6.47628 11.7199 6.47571C11.8241 6.47476 11.9283 6.47403 12.0326 6.47349C12.1918 6.47232 12.3509 6.46932 12.5101 6.4663C12.6114 6.46561 12.7127 6.46503 12.814 6.46456C12.8615 6.46337 12.909 6.46217 12.9579 6.46094C13.1917 6.46198 13.3091 6.47791 13.4958 6.62366C13.611 6.77821 13.6416 6.85009 13.6412 7.04055C13.6427 7.08566 13.6442 7.13078 13.6458 7.17726C13.5775 7.39438 13.4487 7.46472 13.261 7.58742C13.0257 7.6228 13.0257 7.6228 12.7587 7.62374C12.7113 7.624 12.6638 7.62426 12.615 7.62453C12.5152 7.62471 12.4154 7.62422 12.3156 7.62307C12.1631 7.6216 12.0109 7.62306 11.8584 7.6248C11.7612 7.62462 11.6639 7.62427 11.5667 7.62374C11.4786 7.62343 11.3906 7.62312 11.2999 7.6228C11.037 7.58172 10.9574 7.52443 10.8 7.31398C10.7196 7.06211 10.7088 6.95287 10.8214 6.71157C11.0288 6.44273 11.255 6.48072 11.5707 6.47738Z" fill="#34A853"/>
<path d="M11.5241 4.68629C11.6001 4.68575 11.6001 4.68575 11.6776 4.6852C11.7846 4.68476 11.8917 4.68485 11.9987 4.68544C12.1623 4.68602 12.3257 4.68405 12.4893 4.68188C12.5934 4.68177 12.6974 4.68181 12.8015 4.68201C12.8503 4.68125 12.8991 4.68048 12.9494 4.67969C13.181 4.68293 13.3088 4.70069 13.4973 4.83981C13.6508 5.05715 13.6354 5.20821 13.6029 5.46788C13.4826 5.68561 13.4321 5.7299 13.1927 5.80968C12.9116 5.82365 12.6305 5.82238 12.3491 5.82234C12.211 5.82249 12.0731 5.82373 11.935 5.82503C11.8039 5.82523 11.8039 5.82523 11.6701 5.82543C11.5902 5.82571 11.5102 5.82599 11.4278 5.82628C11.2103 5.80967 11.0614 5.77328 10.8685 5.67296C10.7453 5.47138 10.7305 5.35369 10.7446 5.11754C10.8669 4.68489 11.1135 4.6846 11.5241 4.68629Z" fill="#34A853"/>
</g>
<defs>
<clipPath id="clip0_5810_43139">
<rect width="35" height="35" fill="white"/>
</clipPath>
</defs>
</svg>
