<svg width="35" height="35" viewBox="0 0 35 35" fill="none" xmlns="http://www.w3.org/2000/svg">
<g clip-path="url(#clip0_5826_47812)">
<path d="M12.8494 11.236C14.5245 12.6596 15.5763 14.48 15.8383 16.6797C16.0055 18.8189 15.4448 20.8812 14.0649 22.5386C13.9148 22.7085 13.7606 22.8733 13.6038 23.0371C13.557 23.0882 13.5102 23.1393 13.462 23.192C12.4354 24.2773 11.0274 24.9968 9.57055 25.293C9.50869 25.3081 9.44683 25.3233 9.3831 25.3389C7.40382 25.7634 5.25076 25.2525 3.55493 24.1992C1.87926 23.1037 0.745355 21.4654 0.205318 19.5508C0.183464 19.4782 0.16161 19.4056 0.139095 19.3307C-0.337429 17.4423 -0.00775029 15.265 0.944453 13.5779C2.12978 11.6228 3.87849 10.319 6.0889 9.73823C8.40825 9.17079 10.9809 9.76077 12.8494 11.236ZM2.59816 13.2873C1.47266 14.7617 0.974916 16.5779 1.19386 18.4199C1.45027 20.1929 2.40006 21.805 3.82409 22.8961C5.41923 24.0138 7.22071 24.4733 9.15269 24.1581C10.8244 23.8432 12.3721 22.8524 13.3773 21.4819C14.4262 19.8898 14.8977 18.1026 14.548 16.2012C14.2613 14.9908 13.7624 13.908 12.9202 12.9883C12.8675 12.93 12.8148 12.8718 12.7605 12.8118C11.4833 11.4664 9.72637 10.7737 7.89147 10.7153C5.80344 10.7824 3.96113 11.7013 2.59816 13.2873Z" fill="black"/>
<path d="M22.1066 18.0292C22.156 18.0289 22.2054 18.0287 22.2563 18.0284C22.4209 18.0277 22.5856 18.028 22.7502 18.0282C22.8686 18.0279 22.987 18.0276 23.1054 18.0272C23.4264 18.0263 23.7475 18.0262 24.0685 18.0264C24.3367 18.0265 24.605 18.0261 24.8732 18.0258C25.5062 18.0251 26.1391 18.025 26.7721 18.0254C27.4245 18.0259 28.0769 18.025 28.7294 18.0236C29.29 18.0223 29.8506 18.0219 30.4113 18.0222C30.7459 18.0223 31.0806 18.0221 31.4152 18.0212C31.73 18.0203 32.0447 18.0204 32.3595 18.0213C32.4748 18.0215 32.5901 18.0213 32.7054 18.0207C34.0604 18.0146 34.0604 18.0146 34.5645 18.485C35.0803 19.0839 35.0506 19.7709 35.0455 20.5165C35.0457 20.6365 35.046 20.7565 35.0465 20.8765C35.047 21.127 35.0463 21.3775 35.0447 21.628C35.0427 21.9475 35.0438 22.2669 35.0459 22.5864C35.0471 22.8339 35.0467 23.0814 35.0458 23.3289C35.0456 23.4466 35.0459 23.5643 35.0467 23.6821C35.0532 24.9183 35.0532 24.9183 34.6583 25.4298C34.2331 25.8287 33.855 25.9935 33.2677 25.995C33.2178 25.9953 33.1679 25.9956 33.1165 25.9959C32.9498 25.9968 32.783 25.9967 32.6162 25.9966C32.4965 25.997 32.3768 25.9974 32.2571 25.998C31.9321 25.9992 31.6071 25.9995 31.2821 25.9996C31.079 25.9997 30.8758 26 30.6727 26.0003C29.9638 26.0016 29.2549 26.0021 28.546 26.002C27.8856 26.002 27.2252 26.0034 26.5648 26.0056C25.9975 26.0073 25.4301 26.0081 24.8628 26.008C24.5241 26.008 24.1855 26.0083 23.8468 26.0098C23.5281 26.0111 23.2095 26.0111 22.8909 26.0101C22.7741 26.01 22.6574 26.0103 22.5407 26.0111C21.3481 26.019 21.3481 26.019 20.8182 25.5564C20.775 25.5062 20.7318 25.4559 20.6873 25.4042C20.6431 25.3543 20.5989 25.3044 20.5533 25.2531C20.3156 24.9083 20.2824 24.5604 20.283 24.1516C20.2825 24.1005 20.282 24.0495 20.2816 23.9968C20.2803 23.8289 20.28 23.661 20.2799 23.4931C20.2794 23.3756 20.279 23.2581 20.2785 23.1406C20.2777 22.8946 20.2774 22.6486 20.2775 22.4026C20.2775 22.0887 20.2756 21.7747 20.2733 21.4608C20.2718 21.2181 20.2715 20.9755 20.2716 20.7329C20.2714 20.6172 20.2708 20.5015 20.2697 20.3858C20.264 19.6987 20.2608 19.1062 20.7231 18.5557C20.7734 18.5133 20.8236 18.4709 20.8753 18.4273C20.9252 18.3836 20.9751 18.34 21.0265 18.2951C21.3704 18.063 21.6988 18.0298 22.1066 18.0292ZM21.6017 19.4142C21.4351 19.6423 21.4472 19.8638 21.4462 20.14C21.4458 20.1848 21.4455 20.2296 21.4451 20.2758C21.4442 20.4236 21.4442 20.5714 21.4444 20.7192C21.4441 20.8222 21.4438 20.9252 21.4435 21.0282C21.443 21.244 21.443 21.4597 21.4434 21.6755C21.4438 21.9517 21.4426 22.2278 21.441 22.5039C21.44 22.7166 21.4399 22.9293 21.4402 23.142C21.4401 23.2438 21.4398 23.3456 21.4391 23.4474C21.4382 23.5899 21.4387 23.7324 21.4395 23.8749C21.4394 23.9559 21.4394 24.0369 21.4394 24.1203C21.4678 24.3602 21.5253 24.4862 21.67 24.6779C21.92 24.8446 22.0384 24.8318 22.3365 24.832C22.3837 24.8322 22.4308 24.8324 22.4794 24.8326C22.6378 24.8331 22.7962 24.8327 22.9545 24.8323C23.0679 24.8325 23.1813 24.8327 23.2948 24.833C23.6031 24.8336 23.9114 24.8334 24.2197 24.833C24.5421 24.8326 24.8645 24.8329 25.1869 24.8332C25.7284 24.8334 26.2699 24.8331 26.8114 24.8324C27.4377 24.8317 28.064 24.8319 28.6903 24.8327C29.2277 24.8333 29.765 24.8334 30.3024 24.833C30.6235 24.8328 30.9446 24.8328 31.2657 24.8332C31.5676 24.8336 31.8695 24.8334 32.1714 24.8326C32.2823 24.8324 32.3932 24.8324 32.5041 24.8327C32.6553 24.8331 32.8065 24.8326 32.9577 24.832C33.0424 24.8319 33.1271 24.8319 33.2143 24.8318C33.4186 24.8153 33.5322 24.7898 33.7013 24.6779C33.8689 24.4465 33.8561 24.2184 33.8578 23.9396C33.8583 23.8934 33.8588 23.8472 33.8592 23.7997C33.8605 23.6474 33.8608 23.4952 33.8609 23.343C33.8614 23.2369 33.8618 23.1309 33.8623 23.0248C33.8631 22.8026 33.8634 22.5804 33.8633 22.3581C33.8633 22.0737 33.8652 21.7893 33.8675 21.5049C33.869 21.2859 33.8693 21.0668 33.8692 20.8478C33.8694 20.7429 33.87 20.6381 33.8711 20.5333C33.8724 20.3865 33.872 20.2398 33.8712 20.093C33.8714 20.0096 33.8716 19.9262 33.8718 19.8402C33.8316 19.5774 33.7491 19.4651 33.5645 19.2775C33.3676 19.179 33.1979 19.2001 32.9777 19.1995C32.9309 19.1993 32.8841 19.1991 32.836 19.1989C32.6785 19.1983 32.521 19.1982 32.3635 19.1981C32.2509 19.1978 32.1383 19.1975 32.0257 19.1971C31.7192 19.1962 31.4127 19.1957 31.1062 19.1954C30.9148 19.1952 30.7234 19.195 30.532 19.1947C29.9335 19.1937 29.3349 19.1931 28.7363 19.1928C28.0449 19.1925 27.3535 19.1913 26.662 19.1893C26.1279 19.1878 25.5938 19.1871 25.0597 19.1871C24.7406 19.187 24.4214 19.1866 24.1023 19.1854C23.802 19.1842 23.5018 19.1841 23.2016 19.1847C23.0914 19.1847 22.9812 19.1844 22.871 19.1838C22.7205 19.1829 22.5701 19.1833 22.4196 19.184C22.3354 19.1839 22.2512 19.1838 22.1645 19.1837C21.9233 19.2114 21.7954 19.2708 21.6017 19.4142Z" fill="black"/>
<path d="M22.0504 8.9961C22.1003 8.99568 22.1502 8.99526 22.2016 8.99484C22.3676 8.9937 22.5336 8.99402 22.6997 8.99435C22.8192 8.99385 22.9387 8.99326 23.0582 8.9926C23.3821 8.99108 23.7059 8.99088 24.0298 8.99101C24.3006 8.99102 24.5714 8.99043 24.8421 8.98986C25.4812 8.98855 26.1203 8.98835 26.7594 8.98881C27.4177 8.98927 28.076 8.9877 28.7343 8.98517C29.3003 8.98307 29.8664 8.98229 30.4324 8.98256C30.7701 8.9827 31.1078 8.98233 31.4455 8.98065C31.7633 8.97913 32.081 8.97926 32.3987 8.98065C32.515 8.98088 32.6312 8.98054 32.7474 8.97955C33.3667 8.97469 33.9369 8.97088 34.4529 9.36486C34.8589 9.79715 35.0203 10.1913 35.0196 10.7857C35.02 10.8382 35.0205 10.8907 35.021 10.9448C35.0223 11.1179 35.0225 11.2909 35.0227 11.464C35.0231 11.5848 35.0236 11.7056 35.0241 11.8264C35.0249 12.0795 35.0251 12.3326 35.0251 12.5858C35.025 12.9092 35.0269 13.2326 35.0293 13.556C35.0308 13.8055 35.0311 14.055 35.031 14.3046C35.0312 14.4238 35.0318 14.5429 35.0328 14.6621C35.0342 14.8293 35.0338 14.9964 35.0329 15.1636C35.0337 15.2122 35.0345 15.2609 35.0353 15.311C35.0295 15.7735 34.8607 16.1135 34.5639 16.4571C34.1021 16.853 33.8117 16.9608 33.2128 16.9628C33.139 16.9632 33.139 16.9632 33.0637 16.9636C32.8988 16.9643 32.7338 16.9646 32.5689 16.9648C32.4507 16.9653 32.3324 16.9657 32.2142 16.9662C31.8258 16.9676 31.4374 16.9684 31.049 16.969C30.9152 16.9693 30.7814 16.9696 30.6476 16.9699C30.0189 16.9712 29.3902 16.9722 28.7615 16.9727C28.0363 16.9734 27.3111 16.9752 26.5859 16.978C26.025 16.98 25.4641 16.981 24.9032 16.9813C24.5684 16.9814 24.2336 16.982 23.8988 16.9837C23.5836 16.9853 23.2685 16.9856 22.9533 16.9849C22.8379 16.9849 22.7225 16.9853 22.6072 16.9863C21.931 16.9915 21.3527 16.9871 20.8112 16.5324C20.7688 16.4822 20.7264 16.432 20.6827 16.3802C20.6391 16.3304 20.5955 16.2805 20.5505 16.2291C20.3168 15.8827 20.2821 15.5361 20.2826 15.1277C20.2821 15.0766 20.2817 15.0255 20.2812 14.9729C20.2799 14.8049 20.2796 14.637 20.2795 14.4691C20.2791 14.3516 20.2786 14.2341 20.2781 14.1167C20.2773 13.8707 20.277 13.6247 20.2771 13.3787C20.2771 13.0647 20.2753 12.7508 20.2729 12.4368C20.2714 12.1942 20.2711 11.9516 20.2712 11.7089C20.271 11.5932 20.2704 11.4776 20.2694 11.3619C20.2637 10.6807 20.2762 10.1189 20.6905 9.54911C20.7274 9.51368 20.7643 9.47826 20.8023 9.44176C20.8569 9.38704 20.8569 9.38704 20.9126 9.33121C21.2779 9.06566 21.604 8.99738 22.0504 8.9961ZM21.5329 10.4586C21.4561 10.6891 21.455 10.8653 21.4536 11.1083C21.4532 11.1531 21.4529 11.1979 21.4525 11.2441C21.4515 11.3922 21.4511 11.5404 21.4507 11.6885C21.4503 11.7916 21.4499 11.8948 21.4495 11.9979C21.4488 12.214 21.4484 12.4302 21.4481 12.6464C21.4478 12.9231 21.4461 13.1998 21.4442 13.4764C21.4429 13.6894 21.4426 13.9024 21.4425 14.1154C21.4422 14.2174 21.4417 14.3194 21.4408 14.4214C21.4396 14.5642 21.4398 14.707 21.4402 14.8499C21.44 14.9311 21.4397 15.0123 21.4394 15.0959C21.4676 15.3379 21.5199 15.463 21.6696 15.6539C21.9102 15.8143 22.1254 15.8081 22.4097 15.8089C22.48 15.8094 22.48 15.8094 22.5517 15.8099C22.7088 15.8107 22.8659 15.8106 23.0229 15.8105C23.1356 15.8109 23.2482 15.8114 23.3608 15.8119C23.6667 15.8131 23.9727 15.8134 24.2786 15.8135C24.5339 15.8136 24.7893 15.8141 25.0446 15.8146C25.6469 15.8157 26.2493 15.8161 26.8516 15.816C27.4731 15.8159 28.0946 15.8173 28.7162 15.8195C29.2497 15.8213 29.7832 15.822 30.3167 15.8219C30.6354 15.8219 30.9541 15.8223 31.2728 15.8237C31.5725 15.825 31.8722 15.8251 32.1718 15.8241C32.2818 15.8239 32.3918 15.8242 32.5018 15.8251C32.652 15.8261 32.802 15.8255 32.9522 15.8244C33.0362 15.8245 33.1202 15.8246 33.2068 15.8247C33.4692 15.7842 33.5819 15.7016 33.7693 15.5172C33.8677 15.3203 33.8469 15.1501 33.8475 14.93C33.8478 14.8838 33.848 14.8375 33.8482 14.7899C33.8489 14.6366 33.849 14.4833 33.8491 14.33C33.8493 14.2236 33.8495 14.1171 33.8498 14.0107C33.8502 13.7874 33.8503 13.5641 33.8503 13.3407C33.8503 13.0546 33.8512 12.7685 33.8524 12.4824C33.8531 12.2625 33.8533 12.0426 33.8533 11.8227C33.8533 11.7172 33.8536 11.6117 33.8542 11.5062C33.8548 11.3586 33.8546 11.2111 33.8542 11.0635C33.8543 10.9795 33.8544 10.8955 33.8545 10.8089C33.8381 10.6016 33.8224 10.4888 33.7009 10.3219C33.4588 10.1619 33.2436 10.1677 32.9583 10.1669C32.9111 10.1666 32.864 10.1663 32.8154 10.1659C32.6573 10.1651 32.4994 10.1652 32.3413 10.1653C32.228 10.1649 32.1147 10.1644 32.0014 10.1639C31.6937 10.1627 31.3859 10.1624 31.0782 10.1623C30.8213 10.1622 30.5644 10.1617 30.3076 10.1612C29.7016 10.1601 29.0957 10.1597 28.4897 10.1598C27.8645 10.1599 27.2392 10.1585 26.614 10.1563C26.0773 10.1545 25.5406 10.1538 25.0038 10.1539C24.6832 10.1539 24.3626 10.1535 24.042 10.1521C23.7405 10.1508 23.4391 10.1507 23.1376 10.1517C23.027 10.1519 22.9163 10.1516 22.8057 10.1507C22.6546 10.1497 22.5036 10.1503 22.3526 10.1514C22.2681 10.1513 22.1835 10.1512 22.0964 10.1511C21.832 10.1917 21.7192 10.2696 21.5329 10.4586Z" fill="black"/>
<path d="M22.7304 -0.0440685C22.8507 -0.0445323 22.971 -0.0451412 23.0914 -0.0458834C23.4165 -0.0474348 23.7416 -0.0468403 24.0667 -0.0457538C24.4078 -0.0448851 24.7489 -0.045692 25.09 -0.0462276C25.6627 -0.0468484 26.2353 -0.0460326 26.8079 -0.0444022C27.469 -0.0425417 28.13 -0.0431453 28.7911 -0.0450265C29.3598 -0.0465798 29.9285 -0.0467954 30.4972 -0.045902C30.8364 -0.0453704 31.1756 -0.0452944 31.5148 -0.0464271C31.8336 -0.0474178 32.1525 -0.0467236 32.4714 -0.0447543C32.5881 -0.0443041 32.7048 -0.0444291 32.8215 -0.0451859C33.487 -0.0491021 34.0468 -0.0411421 34.5575 0.440566C34.9051 0.826739 35.0306 1.1976 35.0274 1.70844C35.0279 1.76163 35.0284 1.81482 35.0288 1.86962C35.0301 2.04454 35.0298 2.21942 35.0294 2.39434C35.0297 2.51659 35.0301 2.63883 35.0305 2.76108C35.0311 3.01702 35.031 3.27294 35.0303 3.52888C35.0295 3.85589 35.0309 4.18286 35.0329 4.50986C35.0341 4.76228 35.0341 5.01468 35.0337 5.2671C35.0337 5.38762 35.0341 5.50813 35.035 5.62864C35.036 5.79763 35.0353 5.96653 35.0341 6.13551C35.0351 6.20926 35.0351 6.20926 35.0361 6.2845C35.0297 6.73077 34.8722 7.07925 34.5795 7.41448C34.5293 7.45766 34.479 7.50084 34.4273 7.54532C34.3774 7.58956 34.3275 7.6338 34.2761 7.67937C33.9344 7.91491 33.6045 7.94711 33.1969 7.94859C33.1476 7.94894 33.0983 7.9493 33.0476 7.94967C32.8832 7.95069 32.7189 7.95075 32.5545 7.95079C32.4364 7.95131 32.3182 7.95189 32.2001 7.95251C31.8796 7.95401 31.5591 7.95462 31.2386 7.95496C31.0382 7.95521 30.8378 7.95564 30.6374 7.95613C29.9376 7.9578 29.2378 7.95869 28.5381 7.95893C27.8867 7.95918 27.2354 7.96123 26.584 7.96409C26.0241 7.96646 25.4641 7.96752 24.9042 7.96756C24.5701 7.96762 24.236 7.96821 23.9019 7.97016C23.5874 7.97196 23.273 7.9721 22.9586 7.97101C22.8436 7.97088 22.7286 7.97134 22.6135 7.97243C21.9272 7.97855 21.3199 7.96047 20.7882 7.46805C20.4089 7.06966 20.2712 6.63833 20.276 6.09591C20.2756 6.04471 20.2753 5.99351 20.2749 5.94076C20.274 5.77287 20.2746 5.60502 20.2753 5.43713C20.2752 5.31958 20.275 5.20203 20.2747 5.08448C20.2744 4.8386 20.2748 4.59274 20.2758 4.34687C20.277 4.03281 20.2763 3.71879 20.2751 3.40474C20.2743 3.16212 20.2746 2.9195 20.2751 2.67688C20.2752 2.56114 20.2751 2.44539 20.2746 2.32965C20.2741 2.16739 20.2749 2.00519 20.276 1.84294C20.2756 1.7958 20.2752 1.74866 20.2747 1.70009C20.2807 1.23478 20.4178 0.781987 20.7403 0.435726C21.3303 -0.0715108 21.9965 -0.0488336 22.7304 -0.0440685ZM21.533 1.43571C21.4355 1.63076 21.4549 1.79745 21.4536 2.01551C21.4533 2.06098 21.4529 2.10646 21.4526 2.15332C21.4516 2.30406 21.4511 2.45481 21.4508 2.60556C21.4504 2.7103 21.45 2.81503 21.4496 2.91977C21.4489 3.13958 21.4485 3.35939 21.4482 3.5792C21.4478 3.86056 21.4462 4.1419 21.4443 4.42325C21.443 4.63971 21.4426 4.85616 21.4425 5.07262C21.4423 5.17633 21.4418 5.28003 21.4409 5.38373C21.4397 5.52904 21.4398 5.67429 21.4403 5.8196C21.44 5.90222 21.4398 5.98484 21.4395 6.06997C21.4674 6.31372 21.5186 6.439 21.6697 6.63102C21.9098 6.79087 22.1235 6.78508 22.4071 6.78556C22.4537 6.78582 22.5004 6.78608 22.5484 6.78635C22.7045 6.78705 22.8606 6.78678 23.0167 6.78651C23.1287 6.78681 23.2406 6.78716 23.3526 6.78757C23.6567 6.78849 23.9608 6.78853 24.2648 6.78835C24.5187 6.78828 24.7725 6.78861 25.0263 6.78894C25.625 6.7897 26.2237 6.78973 26.8225 6.78932C27.4403 6.7889 28.058 6.78974 28.6758 6.7912C29.2062 6.7924 29.7365 6.79281 30.2668 6.79259C30.5836 6.79247 30.9004 6.79265 31.2172 6.7936C31.5151 6.79446 31.8129 6.79433 32.1108 6.79343C32.2201 6.79327 32.3295 6.79346 32.4388 6.79402C32.588 6.79474 32.7373 6.79419 32.8865 6.79332C33.0118 6.79333 33.0118 6.79333 33.1396 6.79335C33.3817 6.7651 33.5079 6.70916 33.701 6.56266C33.8673 6.31321 33.8561 6.19159 33.8586 5.89418C33.8595 5.82395 33.8595 5.82395 33.8604 5.75231C33.862 5.59749 33.8626 5.44269 33.8631 5.28786C33.8637 5.18016 33.8643 5.07245 33.8649 4.96475C33.8661 4.73891 33.8666 4.51308 33.8668 4.28724C33.8671 3.99812 33.8697 3.70907 33.8728 3.41997C33.8749 3.19747 33.8754 2.97499 33.8754 2.75248C33.8757 2.64591 33.8766 2.53934 33.878 2.43279C33.8798 2.28353 33.8795 2.13442 33.8787 1.98515C33.879 1.90031 33.8794 1.81546 33.8797 1.72805C33.8247 1.43511 33.7263 1.34773 33.4959 1.16227C33.2689 1.11136 33.2689 1.11136 33.0159 1.11932C32.9684 1.11884 32.9209 1.11836 32.8719 1.11786C32.7132 1.11665 32.5545 1.11789 32.3957 1.11913C32.2817 1.11877 32.1678 1.11828 32.0538 1.11764C31.7444 1.11638 31.4352 1.11726 31.1259 1.11861C30.8021 1.11973 30.4784 1.11912 30.1547 1.11878C29.6111 1.11847 29.0674 1.11955 28.5238 1.12146C27.8953 1.12365 27.2669 1.12365 26.6384 1.12247C26.0338 1.12139 25.4292 1.12185 24.8245 1.12302C24.5672 1.12349 24.31 1.12341 24.0527 1.12291C23.7497 1.12239 23.4467 1.12321 23.1437 1.12509C23.0325 1.12556 22.9213 1.12556 22.8101 1.12507C22.6583 1.12448 22.5066 1.12557 22.3548 1.12709C22.2274 1.12737 22.2274 1.12737 22.0974 1.12767C21.8339 1.16862 21.721 1.2504 21.533 1.43571Z" fill="black"/>
<path d="M22.1144 27.0445C22.1885 27.0439 22.1885 27.0439 22.264 27.0434C22.4283 27.0424 22.5926 27.0429 22.7569 27.0434C22.8752 27.043 22.9935 27.0425 23.1117 27.0419C23.4322 27.0407 23.7527 27.0408 24.0732 27.0412C24.341 27.0414 24.6089 27.041 24.8768 27.0406C25.509 27.0396 26.1412 27.0397 26.7734 27.0405C27.4248 27.0413 28.0762 27.0403 28.7276 27.0385C29.2876 27.037 29.8476 27.0365 30.4076 27.0369C30.7418 27.0372 31.0759 27.037 31.41 27.0358C31.7244 27.0347 32.0387 27.035 32.353 27.0363C32.468 27.0366 32.5831 27.0363 32.6981 27.0356C33.3667 27.0318 33.915 27.0525 34.474 27.459C34.5094 27.4959 34.5449 27.5328 34.5814 27.5709C34.6179 27.6073 34.6543 27.6437 34.6919 27.6811C34.9604 28.0505 35.0306 28.3976 35.0288 28.8469C35.0294 28.8993 35.0299 28.9516 35.0305 29.0055C35.0321 29.1771 35.0322 29.3488 35.0321 29.5204C35.0326 29.6407 35.0331 29.761 35.0337 29.8813C35.0346 30.133 35.0347 30.3848 35.0343 30.6365C35.0339 30.9576 35.036 31.2787 35.0388 31.5997C35.0405 31.8481 35.0407 32.0965 35.0405 32.3449C35.0406 32.4632 35.0413 32.5815 35.0425 32.6998C35.0539 33.9433 35.0539 33.9433 34.6583 34.4538C34.233 34.8526 33.8551 35.0174 33.2676 35.019C33.2178 35.0193 33.1679 35.0196 33.1165 35.0199C32.9497 35.0208 32.783 35.0206 32.6162 35.0205C32.4965 35.0209 32.3768 35.0214 32.2571 35.0219C31.9321 35.0231 31.6071 35.0235 31.2821 35.0235C31.079 35.0236 30.8758 35.0239 30.6727 35.0243C29.9638 35.0256 29.2549 35.0261 28.5459 35.026C27.8855 35.0259 27.2252 35.0274 26.5648 35.0295C25.9974 35.0313 25.4301 35.0321 24.8628 35.032C24.5241 35.0319 24.1854 35.0323 23.8468 35.0338C23.5281 35.0351 23.2095 35.0351 22.8908 35.0341C22.7741 35.034 22.6574 35.0343 22.5407 35.0351C21.8535 35.0397 21.3444 35.0365 20.7984 34.5649C20.4001 34.1002 20.2933 33.7914 20.2896 33.1922C20.2891 33.1412 20.2885 33.0903 20.2879 33.0378C20.2862 32.8695 20.2851 32.7011 20.2841 32.5328C20.2838 32.4751 20.2834 32.4174 20.283 32.3579C20.2812 32.0521 20.2799 31.7464 20.2789 31.4407C20.278 31.1886 20.2761 30.9365 20.2733 30.6845C20.2699 30.3792 20.2682 30.074 20.2677 29.7687C20.2673 29.6528 20.2662 29.537 20.2646 29.4212C20.2552 28.7215 20.2615 28.0993 20.7646 27.5568C21.1583 27.1813 21.5773 27.0455 22.1144 27.0445ZM21.6016 28.4382C21.4339 28.6673 21.4468 28.8926 21.4451 29.1702C21.4446 29.2157 21.4441 29.2612 21.4437 29.3081C21.4424 29.4581 21.4421 29.6081 21.442 29.7581C21.4415 29.8626 21.4411 29.9672 21.4406 30.0717C21.4398 30.2907 21.4395 30.5097 21.4396 30.7287C21.4396 31.009 21.4377 31.2892 21.4354 31.5695C21.4339 31.7854 21.4336 32.0013 21.4336 32.2171C21.4335 32.3205 21.4329 32.4238 21.4318 32.5271C21.4305 32.6718 21.4309 32.8163 21.4317 32.961C21.4315 33.0432 21.4313 33.1254 21.4311 33.2101C21.4715 33.4711 21.5552 33.5836 21.7384 33.7702C21.9366 33.8693 22.1093 33.8479 22.3309 33.8486C22.3782 33.8489 22.4256 33.8491 22.4744 33.8494C22.634 33.8501 22.7935 33.8504 22.953 33.8507C23.0671 33.8511 23.1812 33.8515 23.2952 33.852C23.6057 33.8532 23.9161 33.8539 24.2266 33.8545C24.4204 33.8549 24.6142 33.8553 24.808 33.8557C25.4141 33.857 26.0201 33.858 26.6261 33.8585C27.3264 33.8592 28.0267 33.861 28.727 33.8638C29.2679 33.8658 29.8087 33.8668 30.3495 33.8671C30.6728 33.8672 30.996 33.8679 31.3193 33.8696C31.6233 33.8712 31.9272 33.8714 32.2312 33.8707C32.3429 33.8707 32.4546 33.8711 32.5662 33.8721C32.7185 33.8733 32.8707 33.8728 33.023 33.8719C33.1083 33.8721 33.1936 33.8722 33.2814 33.8724C33.536 33.8323 33.6136 33.7656 33.7696 33.5651C33.8678 33.3687 33.8483 33.1986 33.8501 32.9791C33.8507 32.9098 33.8507 32.9098 33.8514 32.8392C33.8528 32.6863 33.8536 32.5333 33.8543 32.3803C33.8545 32.3281 33.8548 32.2758 33.8551 32.222C33.8565 31.9455 33.8575 31.669 33.8581 31.3924C33.8589 31.1069 33.8612 30.8215 33.864 30.536C33.8658 30.3163 33.8663 30.0967 33.8666 29.8771C33.8669 29.7719 33.8677 29.6666 33.869 29.5614C33.8706 29.414 33.8706 29.2666 33.8701 29.1191C33.8705 29.0353 33.8709 28.9515 33.8713 28.8651C33.8315 28.6002 33.7538 28.488 33.5645 28.3015C33.3305 28.2234 33.1506 28.2241 32.9037 28.2235C32.8571 28.2233 32.8106 28.2231 32.7626 28.2229C32.6063 28.2223 32.45 28.2222 32.2936 28.2221C32.1817 28.2218 32.0697 28.2214 31.9578 28.2211C31.6534 28.2202 31.3491 28.2197 31.0447 28.2194C30.8546 28.2192 30.6645 28.2189 30.4744 28.2186C29.8798 28.2177 29.2852 28.217 28.6905 28.2168C28.0038 28.2165 27.3171 28.2153 26.6304 28.2133C26.0998 28.2118 25.5692 28.2111 25.0385 28.211C24.7215 28.211 24.4045 28.2105 24.0875 28.2093C23.7893 28.2082 23.4912 28.2081 23.193 28.2087C23.0836 28.2087 22.9742 28.2084 22.8647 28.2077C22.7153 28.2069 22.566 28.2073 22.4166 28.208C22.3329 28.2079 22.2493 28.2078 22.1632 28.2077C21.9228 28.2355 21.7949 28.2954 21.6016 28.4382Z" fill="black"/>
<path d="M11.4158 12.9877C12.6347 13.9514 13.3542 15.2967 13.5862 16.8286C13.6584 17.9302 13.5189 18.9506 13.0564 19.9604C13.0278 20.0233 12.9991 20.0862 12.9696 20.151C12.333 21.4243 11.1486 22.4348 9.80508 22.887C8.33123 23.352 6.80342 23.3047 5.40017 22.6264C5.33779 22.5969 5.2754 22.5675 5.21112 22.5372C3.83943 21.8435 2.96639 20.6414 2.43482 19.2319C1.9927 17.7654 2.16716 16.1513 2.86121 14.8011C3.05675 14.4392 3.28394 14.1181 3.55447 13.808C3.60673 13.7424 3.65898 13.6769 3.71282 13.6093C5.58517 11.3673 9.19166 11.2782 11.4158 12.9877ZM4.66531 14.3762C3.79625 15.2841 3.37367 16.4733 3.39666 17.72C3.50528 19.0482 4.10677 20.1038 5.07787 20.9919C5.96656 21.729 7.12113 22.1004 8.27394 21.9989C9.20584 21.8819 9.98819 21.5582 10.7322 20.9857C10.8013 20.9364 10.8704 20.887 10.9416 20.8362C11.7384 20.1432 12.2924 19.0239 12.3851 17.9755C12.4697 16.6164 12.072 15.4359 11.1773 14.3939C10.293 13.4889 9.17872 13.0445 7.92733 12.9834C6.65214 13.0035 5.58603 13.5054 4.66531 14.3762Z" fill="black"/>
<path d="M9.70976 3.32597C9.81356 3.32603 9.91736 3.32599 10.0212 3.32588C10.3016 3.32582 10.5821 3.32702 10.8625 3.32846C11.1561 3.32974 11.4497 3.32986 11.7433 3.3301C12.2987 3.33074 12.854 3.33242 13.4094 3.33448C14.0419 3.33678 14.6744 3.3379 15.3069 3.33893C16.6075 3.34107 17.9081 3.34472 19.2086 3.34925C19.2086 3.7553 19.2086 4.16136 19.2086 4.57972C19.0789 4.58012 18.9492 4.58052 18.8156 4.58093C17.5954 4.58484 16.3752 4.5898 15.155 4.59583C14.5276 4.59891 13.9002 4.6016 13.2728 4.6034C12.7261 4.60497 12.1794 4.60725 11.6327 4.61039C11.3432 4.61203 11.0536 4.61331 10.764 4.61374C10.4916 4.61415 10.2192 4.61551 9.94679 4.61761C9.84668 4.61821 9.74656 4.61846 9.64645 4.61834C9.51001 4.61823 9.37358 4.61949 9.23715 4.62082C9.1225 4.62129 9.1225 4.62129 9.00553 4.62178C8.81713 4.63248 8.81713 4.63248 8.69356 4.74378C8.54534 4.94488 8.5348 5.07882 8.53055 5.32543C8.52918 5.39522 8.52782 5.46501 8.52642 5.53691C8.5247 5.65024 8.5247 5.65024 8.52295 5.76586C8.52153 5.84305 8.52011 5.92024 8.51865 5.99977C8.51417 6.24704 8.51015 6.49431 8.50613 6.74158C8.50318 6.90892 8.5002 7.07626 8.49719 7.2436C8.48986 7.65446 8.48293 8.06533 8.47622 8.4762C8.09273 8.4762 7.70923 8.4762 7.31412 8.4762C7.30563 7.94354 7.29945 7.41092 7.29534 6.8782C7.29363 6.69719 7.2913 6.51619 7.28833 6.3352C7.28416 6.0742 7.28224 5.81326 7.28074 5.55224C7.27809 5.43193 7.27809 5.43193 7.27539 5.30919C7.2752 4.7356 7.38082 4.26899 7.77394 3.83383C8.32952 3.29914 8.98228 3.32027 9.70976 3.32597Z" fill="black"/>
<path d="M7.31485 26.5234C7.69834 26.5234 8.08184 26.5234 8.47696 26.5234C8.47831 26.6276 8.47967 26.7318 8.48106 26.8391C8.48626 27.2254 8.49232 27.6117 8.49865 27.9979C8.50127 28.1652 8.50365 28.3324 8.50579 28.4996C8.50891 28.7399 8.51288 28.9802 8.51701 29.2204C8.5178 29.2953 8.51859 29.3701 8.5194 29.4472C8.52076 29.517 8.52212 29.5868 8.52352 29.6587C8.52443 29.72 8.52534 29.7813 8.52628 29.8445C8.54667 30.0215 8.58689 30.1333 8.68203 30.2832C8.86948 30.3769 9.01976 30.3612 9.22966 30.3624C9.31728 30.363 9.40489 30.3637 9.49517 30.3644C9.59281 30.3648 9.69046 30.3652 9.7881 30.3656C9.89049 30.3663 9.99288 30.3669 10.0953 30.3676C10.3738 30.3695 10.6523 30.3709 10.9308 30.3723C11.2216 30.3738 11.5125 30.3757 11.8033 30.3775C12.3544 30.3809 12.9054 30.384 13.4564 30.3869C14.0836 30.3903 14.7108 30.3941 15.338 30.3978C16.6285 30.4056 17.9189 30.4129 19.2094 30.4199C19.2094 30.826 19.2094 31.232 19.2094 31.6504C17.8462 31.6551 16.4831 31.6588 15.1199 31.661C14.487 31.6621 13.854 31.6635 13.2211 31.6659C12.6693 31.6679 12.1175 31.6692 11.5657 31.6697C11.2736 31.67 10.9815 31.6706 10.6895 31.6721C10.4143 31.6735 10.1392 31.6739 9.86401 31.6736C9.76327 31.6736 9.66252 31.674 9.56178 31.6748C8.87857 31.6799 8.29103 31.6628 7.77467 31.1658C7.31406 30.6559 7.26694 30.108 7.28147 29.4474C7.28195 29.3634 7.28243 29.2794 7.28293 29.1929C7.28483 28.9268 7.28912 28.6608 7.29348 28.3948C7.2952 28.2135 7.29676 28.0322 7.29816 27.8508C7.30191 27.4083 7.3078 26.9659 7.31485 26.5234Z" fill="black"/>
<path d="M8.8224 15.3557C8.91398 15.4066 9.00384 15.4608 9.09157 15.5181C9.13898 15.5463 9.18638 15.5745 9.23523 15.6035C9.74031 15.9364 10.0261 16.4461 10.1853 17.022C10.2665 17.8183 10.1244 18.4576 9.62269 19.085C9.19012 19.53 8.67702 19.7694 8.05828 19.7824C7.31617 19.7805 6.83489 19.6594 6.27895 19.14C5.77461 18.6007 5.57096 18.0686 5.58788 17.3355C5.65921 16.609 6.00611 16.0484 6.56227 15.5864C7.20259 15.1956 8.1117 15.0547 8.8224 15.3557ZM7.1468 16.7119C6.86295 17.0446 6.81156 17.2416 6.81648 17.6687C6.85397 18.0072 7.04082 18.1908 7.28432 18.4105C7.56754 18.6066 7.79621 18.6172 8.13454 18.5942C8.50297 18.4664 8.75252 18.2397 8.95485 17.9106C9.05715 17.6214 9.036 17.4101 8.95485 17.116C8.75562 16.7798 8.50919 16.5316 8.13454 16.4067C7.73657 16.3767 7.43722 16.4184 7.1468 16.7119Z" fill="black"/>
<path d="M28.9872 10.8815C29.197 10.9685 29.3238 11.1207 29.48 11.2831C29.541 11.3459 29.6019 11.4087 29.6648 11.4735C29.7109 11.522 29.7571 11.5706 29.8047 11.6206C29.7009 11.865 29.5575 12.0211 29.3701 12.2075C29.3085 12.269 29.2469 12.3306 29.1835 12.394C29.1162 12.4606 29.049 12.5271 28.9817 12.5937C28.9129 12.6622 28.8441 12.7308 28.7754 12.7994C28.5948 12.9795 28.4137 13.1592 28.2326 13.3388C28.0477 13.5223 27.8632 13.7062 27.6786 13.8901C27.3167 14.2505 26.9544 14.6105 26.5918 14.9702C26.3231 14.7435 26.0602 14.5155 25.8123 14.2658C25.736 14.1891 25.736 14.1891 25.6581 14.1109C25.6067 14.0589 25.5553 14.0069 25.5023 13.9534C25.4491 13.8998 25.3958 13.8462 25.3409 13.791C25.2108 13.6602 25.0809 13.5291 24.9512 13.398C25.0158 13.3225 25.0804 13.247 25.145 13.1715C25.181 13.1295 25.217 13.0874 25.2541 13.0441C25.3976 12.8773 25.5344 12.7197 25.7031 12.5776C25.9507 12.5973 26.0669 12.714 26.2329 12.8895C26.2958 12.9552 26.2958 12.9552 26.36 13.0222C26.3914 13.056 26.4228 13.0897 26.4551 13.1245C26.6573 13.0337 26.7962 12.9359 26.9497 12.7767C26.9913 12.734 27.0328 12.6914 27.0756 12.6475C27.1417 12.5787 27.1417 12.5787 27.2092 12.5085C27.3036 12.412 27.398 12.3156 27.4925 12.2192C27.6409 12.0669 27.789 11.9144 27.9367 11.7614C28.0794 11.6137 28.2231 11.4672 28.367 11.3207C28.4111 11.2745 28.4552 11.2282 28.5006 11.1805C28.5629 11.1175 28.5629 11.1175 28.6264 11.0533C28.6626 11.0159 28.6989 10.9785 28.7362 10.94C28.8477 10.8687 28.8477 10.8687 28.9872 10.8815Z" fill="black"/>
<path d="M28.9872 1.8581C29.197 1.94504 29.3238 2.09728 29.48 2.25965C29.541 2.32248 29.6019 2.38531 29.6648 2.45004C29.7109 2.49859 29.7571 2.54715 29.8047 2.59717C29.7018 2.83685 29.5632 2.99383 29.3807 3.17885C29.3214 3.23926 29.262 3.29968 29.2009 3.36193C29.1361 3.42721 29.0712 3.49246 29.0063 3.55768C28.9397 3.62488 28.8731 3.69209 28.8065 3.7593C28.6671 3.89981 28.5274 4.04002 28.3876 4.18007C28.2082 4.3598 28.03 4.5406 27.852 4.72169C27.715 4.86073 27.5773 4.99899 27.4393 5.13704C27.3732 5.2034 27.3074 5.27005 27.2419 5.33697C27.1505 5.43026 27.0578 5.52237 26.9651 5.61442C26.9127 5.66718 26.8603 5.71994 26.8063 5.7743C26.6602 5.87842 26.6602 5.87842 26.5146 5.86947C26.3199 5.77903 26.1959 5.64197 26.046 5.48936C26.0145 5.4576 25.983 5.42583 25.9506 5.3931C25.8505 5.29188 25.7512 5.18997 25.6519 5.08802C25.584 5.01912 25.5161 4.95027 25.4481 4.88147C25.2819 4.71302 25.1164 4.54394 24.9512 4.37452C25.0158 4.29903 25.0804 4.22355 25.145 4.14808C25.181 4.10604 25.217 4.06401 25.2541 4.0207C25.3976 3.85384 25.5344 3.69626 25.7031 3.5542C25.9507 3.57391 26.0669 3.69051 26.2329 3.86609C26.2958 3.93179 26.2958 3.93179 26.36 3.99881C26.3914 4.03256 26.4228 4.06631 26.4551 4.10108C26.6573 4.0103 26.7962 3.91248 26.9497 3.75322C26.9913 3.71059 27.0328 3.66795 27.0756 3.62402C27.1417 3.55523 27.1417 3.55523 27.2092 3.48504C27.3036 3.38857 27.398 3.29213 27.4925 3.19572C27.6409 3.04347 27.789 2.89098 27.9367 2.73795C28.0794 2.59031 28.2231 2.44375 28.367 2.2973C28.4111 2.25102 28.4552 2.20474 28.5006 2.15706C28.5629 2.09408 28.5629 2.09408 28.6264 2.02982C28.6626 1.99243 28.6989 1.95505 28.7362 1.91653C28.8477 1.84522 28.8477 1.84522 28.9872 1.8581Z" fill="black"/>
<path d="M28.916 28.916C28.9877 28.9739 29.0587 29.0324 29.1296 29.0912C29.1693 29.1237 29.2089 29.1562 29.2498 29.1897C29.4507 29.3791 29.625 29.5951 29.8047 29.8047C28.7444 30.8649 27.6842 31.9252 26.5918 33.0176C26.3291 32.8862 26.1958 32.7742 25.9926 32.5684C25.9318 32.5072 25.871 32.4459 25.8083 32.3829C25.7454 32.3188 25.6825 32.2547 25.6177 32.1887C25.5531 32.1234 25.4885 32.0582 25.4238 31.993C25.266 31.8335 25.1084 31.6737 24.9512 31.5137C25.0654 31.2717 25.1995 31.104 25.387 30.9113C25.4397 30.8558 25.4924 30.8004 25.5466 30.7433C25.7031 30.625 25.7031 30.625 25.8414 30.6239C26.0171 30.7142 26.131 30.8282 26.2671 30.9711C26.3154 31.0212 26.3637 31.0713 26.4134 31.123C26.4497 31.1617 26.486 31.2004 26.5234 31.2402C26.8538 30.9649 27.1647 30.6767 27.4674 30.3713C27.5301 30.3085 27.5301 30.3085 27.5941 30.2443C27.7258 30.1122 27.8574 29.9798 27.9889 29.8474C28.0789 29.7571 28.1689 29.6667 28.259 29.5764C28.4782 29.3564 28.6972 29.1363 28.916 28.916Z" fill="black"/>
<path d="M15.791 21.3965C16.9189 21.3965 18.0469 21.3965 19.209 21.3965C19.209 21.8025 19.209 22.2086 19.209 22.627C18.0811 22.627 16.9531 22.627 15.791 22.627C15.791 22.2209 15.791 21.8148 15.791 21.3965Z" fill="black"/>
<path d="M15.791 12.373C16.9189 12.373 18.0469 12.373 19.209 12.373C19.209 12.7791 19.209 13.1852 19.209 13.6035C18.0811 13.6035 16.9531 13.6035 15.791 13.6035C15.791 13.1975 15.791 12.7914 15.791 12.373Z" fill="black"/>
<path d="M31.582 21.3965C31.9655 21.3965 32.349 21.3965 32.7441 21.3965C32.7441 21.8025 32.7441 22.2086 32.7441 22.627C32.3606 22.627 31.9771 22.627 31.582 22.627C31.582 22.2209 31.582 21.8148 31.582 21.3965Z" fill="black"/>
<path d="M29.3262 21.3965C29.7097 21.3965 30.0932 21.3965 30.4883 21.3965C30.4883 21.8025 30.4883 22.2086 30.4883 22.627C30.1048 22.627 29.7213 22.627 29.3262 22.627C29.3262 22.2209 29.3262 21.8148 29.3262 21.3965Z" fill="black"/>
<path d="M27.0703 21.3965C27.4538 21.3965 27.8373 21.3965 28.2324 21.3965C28.2324 21.8025 28.2324 22.2086 28.2324 22.627C27.8489 22.627 27.4654 22.627 27.0703 22.627C27.0703 22.2209 27.0703 21.8148 27.0703 21.3965Z" fill="black"/>
<path d="M24.8145 21.3965C25.1979 21.3965 25.5814 21.3965 25.9766 21.3965C25.9766 21.8025 25.9766 22.2086 25.9766 22.627C25.5931 22.627 25.2096 22.627 24.8145 22.627C24.8145 22.2209 24.8145 21.8148 24.8145 21.3965Z" fill="black"/>
<path d="M22.5586 21.3965C22.9421 21.3965 23.3256 21.3965 23.7207 21.3965C23.7207 21.8025 23.7207 22.2086 23.7207 22.627C23.3372 22.627 22.9537 22.627 22.5586 22.627C22.5586 22.2209 22.5586 21.8148 22.5586 21.3965Z" fill="black"/>
</g>
<defs>
<clipPath id="clip0_5826_47812">
<rect width="35" height="35" fill="white"/>
</clipPath>
</defs>
</svg>
