<svg width="35" height="35" viewBox="0 0 35 35" fill="none" xmlns="http://www.w3.org/2000/svg">
<g clip-path="url(#clip0_5826_47844)">
<path d="M3.43204 -0.00871715C3.50798 -0.00902189 3.58392 -0.00932662 3.66216 -0.00964059C3.74628 -0.00962799 3.83041 -0.00961539 3.91708 -0.0096024C4.05032 -0.0099794 4.05032 -0.0099794 4.18625 -0.010364C4.43365 -0.0110501 4.68105 -0.0113032 4.92845 -0.0114844C5.19495 -0.0117509 5.46145 -0.0124057 5.72796 -0.0130028C6.37201 -0.0143549 7.01607 -0.0150422 7.66012 -0.0156503C7.96327 -0.0159497 8.26642 -0.0163166 8.56957 -0.0166749C9.57709 -0.017838 10.5846 -0.0188288 11.5921 -0.0193237C11.8537 -0.0194543 12.1153 -0.0195856 12.3768 -0.0197192C12.4418 -0.0197523 12.5068 -0.0197854 12.5738 -0.0198195C13.6271 -0.0203869 14.6804 -0.022119 15.7337 -0.024339C16.8146 -0.0265988 17.8955 -0.0278309 18.9765 -0.0280494C19.5836 -0.0281975 20.1906 -0.0287969 20.7977 -0.0305419C21.3147 -0.0320245 21.8317 -0.0325767 22.3487 -0.0319113C22.6125 -0.0316003 22.8763 -0.0317325 23.1401 -0.0330571C23.4262 -0.0344809 23.7121 -0.0337861 23.9981 -0.032884C24.0815 -0.0336338 24.1649 -0.0343837 24.2508 -0.0351562C24.704 -0.0316955 24.996 -0.00392796 25.3611 0.273896C25.6068 0.590703 25.7109 0.830299 25.7138 1.22781C25.7148 1.33263 25.7148 1.33263 25.7158 1.43956C25.7162 1.51617 25.7166 1.59278 25.717 1.67171C25.7177 1.75241 25.7183 1.83312 25.719 1.91627C25.7208 2.13757 25.7223 2.35887 25.7237 2.58018C25.7252 2.81146 25.727 3.04273 25.7289 3.27401C25.7323 3.71196 25.7354 4.14992 25.7383 4.58787C25.7417 5.08647 25.7454 5.58507 25.7492 6.08367C25.757 7.10931 25.7643 8.13496 25.7713 9.16061C25.9253 8.89713 26.0791 8.63361 26.233 8.37008C26.2764 8.29582 26.3198 8.22156 26.3645 8.14505C26.6507 7.65472 26.9323 7.16247 27.2069 6.6655C27.6393 5.88821 28.0829 5.11772 28.5354 4.35189C28.6079 4.22891 28.6798 4.10558 28.7512 3.98192C29.1146 3.35937 29.5173 2.93064 30.2219 2.70893C31.125 2.51515 31.8101 2.82362 32.5859 3.25607C32.6516 3.29244 32.7173 3.3288 32.785 3.36627C34.6413 4.40289 34.6413 4.40289 34.952 5.2644C35.2114 6.37574 34.783 7.21168 34.218 8.14804C34.1325 8.29207 34.0471 8.43618 33.9619 8.58036C33.9185 8.65362 33.8752 8.72688 33.8305 8.80236C33.6225 9.15808 33.4225 9.51815 33.2225 9.87839C32.8714 10.5093 32.5114 11.1343 32.1458 11.7569C31.8606 12.244 31.5829 12.7348 31.3084 13.228C30.9573 13.8589 30.5973 14.4839 30.2318 15.1065C29.9465 15.5936 29.6688 16.0844 29.3944 16.5776C29.0433 17.2084 28.6834 17.8334 28.3178 18.4559C28.0309 18.9457 27.752 19.4396 27.476 19.9358C27.1615 20.5004 26.8423 21.0619 26.5147 21.6191C26.4783 21.6814 26.4419 21.7436 26.4044 21.8078C26.0592 22.3913 26.0592 22.3913 25.8397 22.6274C25.7945 22.6274 25.7494 22.6274 25.7029 22.6274C25.7032 22.6741 25.7035 22.7208 25.7037 22.7689C25.7098 23.9067 25.7143 25.0444 25.7171 26.1821C25.7185 26.7323 25.7204 27.2825 25.7236 27.8327C25.7263 28.3124 25.7281 28.792 25.7287 29.2717C25.729 29.5256 25.7299 29.7795 25.7319 30.0333C25.7341 30.3171 25.7341 30.6008 25.734 30.8846C25.735 30.9683 25.736 31.052 25.737 31.1382C25.7347 31.6156 25.6889 31.9296 25.4295 32.3344C25.1415 32.6084 24.9254 32.6852 24.5336 32.6829C24.4664 32.6827 24.3992 32.6825 24.33 32.6822C24.225 32.6814 24.225 32.6814 24.1179 32.6805C24.0117 32.68 24.0117 32.68 23.9033 32.6796C23.7284 32.6788 23.5536 32.6776 23.3787 32.6762C23.3809 32.7372 23.3809 32.7372 23.3831 32.7993C23.3888 32.9862 23.3923 33.173 23.3958 33.3598C23.3981 33.4237 23.4004 33.4876 23.4028 33.5534C23.4088 33.9819 23.3535 34.3026 23.1053 34.6587C22.8118 34.9378 22.592 35.0089 22.1938 35.0096C22.1176 35.0099 22.0415 35.0102 21.9631 35.0106C21.8791 35.0105 21.7952 35.0105 21.7086 35.0105C21.6197 35.0108 21.5308 35.011 21.4391 35.0113C21.1918 35.012 20.9444 35.0122 20.697 35.0124C20.4304 35.0127 20.1638 35.0133 19.8972 35.0139C19.2532 35.0153 18.6092 35.016 17.9652 35.0166C17.662 35.0169 17.3588 35.0172 17.0557 35.0176C16.0482 35.0188 15.0406 35.0197 14.0331 35.0202C13.7716 35.0204 13.5102 35.0205 13.2487 35.0206C13.1837 35.0207 13.1187 35.0207 13.0517 35.0207C11.9984 35.0213 10.9451 35.023 9.89174 35.0253C8.81073 35.0275 7.72973 35.0288 6.64873 35.029C6.04161 35.0291 5.43449 35.0297 4.82737 35.0315C4.31044 35.0329 3.79352 35.0335 3.27658 35.0328C3.01278 35.0325 2.749 35.0326 2.48521 35.034C2.19932 35.0354 1.91347 35.0347 1.62758 35.0338C1.50231 35.0349 1.50231 35.0349 1.37451 35.0361C0.94163 35.0328 0.667651 35.0238 0.341618 34.727C0.042253 34.3872 -0.0102603 34.1888 -0.00935379 33.746C-0.00951458 33.6933 -0.0096755 33.6407 -0.00984117 33.5864C-0.0103 33.4081 -0.0102671 33.2298 -0.0102391 33.0514C-0.0104645 32.923 -0.010719 32.7946 -0.0110006 32.6662C-0.0116872 32.3119 -0.01194 31.9576 -0.0121211 31.6033C-0.0123874 31.2217 -0.0130422 30.8402 -0.0136395 30.4586C-0.014992 29.5365 -0.0156788 28.6143 -0.0162869 27.6922C-0.0165863 27.2583 -0.0169531 26.8244 -0.0173115 26.3905C-0.0184745 24.9489 -0.0194672 23.5072 -0.0199604 22.0656C-0.0199928 21.9723 -0.0200253 21.8791 -0.0200579 21.7858C-0.020074 21.7396 -0.0200903 21.6933 -0.0201069 21.6457C-0.020189 21.4113 -0.0202722 21.177 -0.0203559 20.9427C-0.0203724 20.8962 -0.0203888 20.8497 -0.0204058 20.8017C-0.0209454 19.2936 -0.0225473 17.7855 -0.024769 16.2774C-0.0271126 14.6836 -0.0284607 13.0898 -0.028686 11.4959C-0.0288342 10.6269 -0.0294355 9.75779 -0.0311784 8.88872C-0.032659 8.14875 -0.0332144 7.40879 -0.032548 6.66882C-0.0322364 6.29108 -0.0323725 5.91336 -0.0336938 5.53562C-0.0348923 5.19001 -0.0348364 4.84443 -0.0337692 4.49883C-0.0336057 4.37361 -0.0339076 4.24838 -0.0347145 4.12317C-0.0357418 3.95326 -0.0350912 3.78344 -0.0340154 3.61354C-0.0347141 3.56465 -0.0354129 3.51575 -0.0361328 3.46538C-0.0313833 3.12293 0.0604409 2.93122 0.273259 2.66647C0.566218 2.40839 0.721691 2.31587 1.10906 2.318C1.17955 2.31822 1.25005 2.31844 1.32268 2.31867C1.43345 2.31953 1.43345 2.31953 1.54645 2.3204C1.65801 2.32087 1.65801 2.32087 1.77182 2.32134C1.9559 2.32215 2.13997 2.32327 2.32404 2.32468C2.32261 2.2792 2.32118 2.23372 2.3197 2.18686C2.31399 1.97931 2.31045 1.77178 2.30695 1.56418C2.30466 1.49263 2.30237 1.42107 2.30001 1.34735C2.29459 0.919428 2.30797 0.665982 2.59748 0.342255C2.88956 0.0849421 3.04605 -0.00800135 3.43204 -0.00871715ZM3.55451 1.23093C3.55451 9.87087 3.55451 18.5108 3.55451 27.4126C4.63732 27.4351 5.72013 27.4577 6.83576 27.4809C7.24591 27.7544 7.24591 27.7544 7.51935 28.1645C7.54191 29.2473 7.56447 30.3301 7.58771 31.4458C13.1597 31.4458 18.7317 31.4458 24.4725 31.4458C24.4725 28.829 24.4725 26.2122 24.4725 23.5161C24.0229 23.8022 23.5748 24.0885 23.1309 24.3829C23.0253 24.4527 22.9196 24.5224 22.814 24.5922C22.6507 24.7001 22.4874 24.8081 22.3243 24.9162C22.1647 25.0221 22.0048 25.1276 21.8449 25.2331C21.796 25.2656 21.7471 25.2982 21.6967 25.3317C21.2901 25.5993 21.0117 25.6452 20.5343 25.6439C20.4735 25.644 20.4126 25.6441 20.3499 25.6442C20.1453 25.6445 19.9406 25.6443 19.7359 25.6441C19.5895 25.6442 19.4431 25.6443 19.2967 25.6444C18.8984 25.6447 18.5002 25.6446 18.1019 25.6444C17.6856 25.6442 17.2693 25.6444 16.8531 25.6445C16.1539 25.6446 15.4547 25.6445 14.7555 25.6441C13.9465 25.6438 13.1375 25.6439 12.3286 25.6443C11.6348 25.6446 10.9409 25.6446 10.2471 25.6444C9.83243 25.6443 9.41772 25.6443 9.00302 25.6445C8.61312 25.6447 8.22323 25.6446 7.83333 25.6442C7.69003 25.6441 7.54673 25.6441 7.40343 25.6443C7.20821 25.6445 7.013 25.6442 6.81778 25.6439C6.76073 25.6441 6.70368 25.6442 6.64491 25.6444C6.15006 25.6427 6.15006 25.6427 5.94709 25.5669C5.86444 25.3189 5.82496 25.0719 5.87873 24.8149C5.98277 24.6717 5.98277 24.6717 6.15216 24.5415C6.345 24.5144 6.51128 24.504 6.70408 24.506C6.78818 24.5052 6.78818 24.5052 6.87397 24.5044C7.06208 24.5031 7.25013 24.5036 7.43824 24.5042C7.57298 24.5036 7.70772 24.5028 7.84245 24.502C8.20852 24.5001 8.57457 24.4999 8.94064 24.4999C9.3231 24.4997 9.70555 24.498 10.088 24.4964C10.8124 24.4936 11.5367 24.4922 12.2611 24.4913C13.0857 24.4903 13.9103 24.4876 14.7349 24.4849C16.4313 24.4792 18.1276 24.4755 19.824 24.4731C19.8272 24.4176 19.8303 24.362 19.8335 24.3048C19.8632 23.7778 19.8933 23.251 19.9239 22.7241C19.9396 22.4533 19.9552 22.1826 19.9703 21.9117C19.985 21.6498 20.0001 21.3878 20.0156 21.1259C20.0213 21.0266 20.0269 20.9273 20.0324 20.828C20.1216 19.2079 20.1216 19.2079 20.42 18.6591C20.4746 18.5574 20.4746 18.5574 20.5303 18.4536C20.568 18.3872 20.6056 18.3208 20.6444 18.2524C20.6799 18.1895 20.7154 18.1265 20.752 18.0617C20.8625 17.8693 20.9753 17.6784 21.0887 17.4876C21.4263 16.9147 21.7568 16.3385 22.0799 15.7573C22.3927 15.1952 22.7115 14.6374 23.0369 14.0825C25.8846 9.20082 24.4725 10.4117 24.4725 1.23093C17.5695 1.23093 10.6666 1.23093 3.55451 1.23093ZM1.23029 3.55515C1.23029 13.526 1.23029 23.4969 1.23029 33.77C8.13322 33.77 15.0361 33.77 22.1483 33.77C22.1483 33.4091 22.1483 33.0481 22.1483 32.6762C22.0708 32.6761 21.9934 32.6759 21.9137 32.6757C20.0304 32.6717 18.1471 32.6665 16.2638 32.6601C15.353 32.6571 14.4423 32.6544 13.5315 32.6526C12.7378 32.651 11.944 32.6487 11.1503 32.6456C10.7299 32.6439 10.3096 32.6427 9.88926 32.6422C9.49364 32.6418 9.09803 32.6404 8.70241 32.6384C8.55722 32.6377 8.41202 32.6375 8.26682 32.6376C8.0685 32.6377 7.87023 32.6366 7.67192 32.6351C7.61453 32.6355 7.55714 32.6358 7.49801 32.6361C7.03194 32.6305 6.65955 32.5223 6.30766 32.1987C6.26175 32.1566 6.21583 32.1144 6.16853 32.071C5.85428 31.7698 5.5444 31.4645 5.23652 31.1568C5.1627 31.0832 5.08888 31.0096 5.01504 30.9361C4.86136 30.7828 4.70781 30.6294 4.55435 30.4759C4.3581 30.2796 4.16139 30.0838 3.96455 29.8882C3.81237 29.7367 3.6605 29.585 3.50871 29.4332C3.4363 29.3609 3.36378 29.2886 3.29114 29.2165C3.18974 29.1158 3.08878 29.0146 2.98792 28.9134C2.93052 28.8561 2.87312 28.7988 2.81398 28.7397C2.47035 28.3569 2.38416 28.0492 2.38292 27.5447C2.38255 27.4591 2.38217 27.3736 2.38179 27.2854C2.38171 27.1903 2.38165 27.0952 2.38158 27.0001C2.38127 26.8992 2.38093 26.7983 2.38056 26.6974C2.37963 26.4198 2.37913 26.1421 2.37869 25.8645C2.37814 25.5652 2.3772 25.266 2.37631 24.9667C2.37483 24.4481 2.37358 23.9296 2.37251 23.411C2.37096 22.6611 2.36904 21.9113 2.36702 21.1615C2.36376 19.9451 2.3608 18.7286 2.35804 17.5122C2.35535 16.3304 2.35251 15.1486 2.34949 13.9668C2.34931 13.8939 2.34912 13.8211 2.34893 13.7461C2.34799 13.3808 2.34705 13.0154 2.34611 12.6501C2.33832 9.61845 2.33103 6.5868 2.32404 3.55515C1.9631 3.55515 1.60217 3.55515 1.23029 3.55515ZM30.1196 4.19895C29.7446 4.66566 29.4753 5.21895 29.1893 5.74265C29.4117 5.92791 29.6317 6.08188 29.8854 6.22089C29.9538 6.2587 30.0221 6.2965 30.0926 6.33545C30.1653 6.37528 30.238 6.41511 30.3129 6.45615C30.7726 6.70929 31.2299 6.96401 31.6774 7.23827C31.7456 7.27987 31.8138 7.32147 31.884 7.36433C32.0138 7.4441 32.1431 7.52475 32.2718 7.60636C32.3301 7.64201 32.3883 7.67766 32.4484 7.71439C32.5244 7.76217 32.5244 7.76217 32.602 7.81092C32.7432 7.8771 32.7432 7.8771 32.8872 7.82066C33.1408 7.63448 33.2613 7.34656 33.4105 7.07565C33.4451 7.01679 33.4797 6.95793 33.5154 6.89728C33.7419 6.48947 33.8587 6.14158 33.7694 5.67429C33.6108 5.34848 33.4255 5.19181 33.1157 5.01205C33.0382 4.96659 32.9608 4.92112 32.8809 4.87427C32.838 4.84964 32.795 4.82501 32.7507 4.79963C32.5889 4.70671 32.4281 4.61216 32.2673 4.51752C31.9247 4.31674 31.9247 4.31674 31.5813 4.11724C31.5336 4.08958 31.486 4.06191 31.4368 4.03341C30.9857 3.79412 30.485 3.82638 30.1196 4.19895ZM28.5057 6.90476C28.2801 7.31081 28.0545 7.71686 27.8221 8.13522C28.0714 8.33467 28.2763 8.48088 28.5505 8.63083C28.6255 8.67206 28.7004 8.7133 28.7776 8.75578C28.8169 8.77724 28.8562 8.79869 28.8967 8.8208C29.1033 8.93351 29.3093 9.04726 29.5153 9.16088C29.5775 9.19514 29.5776 9.19514 29.641 9.2301C30.0439 9.45219 30.4437 9.67944 30.8427 9.90829C30.904 9.94341 30.9652 9.97853 31.0283 10.0147C31.1673 10.0945 31.3062 10.1744 31.4451 10.2544C31.699 10.028 31.8477 9.77942 32.0091 9.48532C32.0339 9.44091 32.0588 9.3965 32.0844 9.35074C32.1452 9.24202 32.2054 9.13299 32.2654 9.0239C32.043 8.83863 31.823 8.68467 31.5693 8.54565C31.5009 8.50785 31.4326 8.47006 31.3621 8.43112C31.2894 8.39128 31.2167 8.35144 31.1418 8.31039C30.4786 7.94408 29.8236 7.56689 29.1769 7.1722C29.1184 7.13699 29.0599 7.10178 28.9997 7.06551C28.9486 7.03437 28.8976 7.00323 28.845 6.97115C28.7051 6.8896 28.7051 6.8896 28.5057 6.90476ZM27.1385 9.29733C27.1124 9.34465 27.0864 9.39197 27.0596 9.44073C26.5539 10.358 26.0425 11.2706 25.5117 12.1736C25.2274 12.6584 24.9508 13.1471 24.6776 13.6382C24.3266 14.2687 23.9669 14.8934 23.6015 15.5156C23.2687 16.0838 22.9465 16.6575 22.6267 17.2331C22.3588 17.7143 22.0838 18.1906 21.7957 18.6601C21.6388 18.9159 21.6388 18.9159 21.6014 19.2094C21.9623 19.4125 22.3233 19.6155 22.6951 19.8247C22.9317 19.5881 23.0509 19.4278 23.2057 19.1413C23.2273 19.1016 23.249 19.0619 23.2713 19.021C23.3176 18.936 23.3638 18.8508 23.4097 18.7656C23.5314 18.5396 23.6547 18.3145 23.7777 18.0893C23.8022 18.0443 23.8267 17.9993 23.8519 17.953C24.0569 17.5772 24.2674 17.2048 24.481 16.834C24.778 16.3176 25.0707 15.7989 25.3611 15.2788C25.6873 14.6948 26.0167 14.1129 26.3495 13.5327C26.6172 13.0655 26.8804 12.5959 27.1428 12.1257C27.5442 11.4065 27.9536 10.6922 28.369 9.98093C28.1828 9.78606 27.987 9.66014 27.7537 9.52377C27.6818 9.48121 27.6099 9.43865 27.5358 9.3948C27.349 9.28188 27.349 9.28188 27.1385 9.29733ZM29.3944 10.5962C29.3584 10.6609 29.3584 10.6609 29.3217 10.727C28.8722 11.5355 28.4192 12.3409 27.9503 13.1383C27.6109 13.7159 27.2839 14.2988 26.9653 14.888C26.6133 15.5384 26.2487 16.1814 25.8835 16.8243C25.6975 17.152 25.5123 17.48 25.327 17.8081C25.0962 18.2165 24.8653 18.6248 24.634 19.0329C24.5934 19.1047 24.5528 19.1764 24.5109 19.2503C24.4329 19.388 24.3549 19.5257 24.2767 19.6634C24.2417 19.7253 24.2066 19.7873 24.1705 19.8511C24.1242 19.9328 24.1242 19.9328 24.077 20.0161C23.9999 20.1557 23.9274 20.2967 23.8572 20.4399C23.9839 20.5197 24.1107 20.5993 24.238 20.6781C24.3538 20.7503 24.4687 20.8237 24.583 20.8981C24.6424 20.9358 24.7018 20.9736 24.763 21.0124C24.8183 21.0482 24.8737 21.084 24.9307 21.1208C25.0793 21.2027 25.0793 21.2027 25.2207 21.1842C25.427 21.0951 25.4738 20.9673 25.5785 20.7708C25.619 20.6962 25.6594 20.6216 25.7011 20.5447C25.7223 20.5047 25.7434 20.4647 25.7652 20.4235C25.8777 20.2109 25.9931 19.9999 26.108 19.7886C26.1314 19.7455 26.1547 19.7023 26.1788 19.6579C26.4001 19.2497 26.6333 18.8488 26.8693 18.4489C27.1938 17.8972 27.5109 17.342 27.8221 16.7827C28.173 16.1521 28.5327 15.5274 28.8981 14.9052C29.2308 14.3371 29.5527 13.7634 29.8729 13.1882C30.2054 12.592 30.5484 12.0026 30.8983 11.4165C30.6788 11.1816 30.4248 11.0463 30.1463 10.891C30.072 10.8483 30.072 10.8483 29.9962 10.8048C29.9485 10.778 29.9007 10.7512 29.8515 10.7235C29.8081 10.6991 29.7646 10.6746 29.7199 10.6494C29.5901 10.5823 29.5901 10.5823 29.3944 10.5962ZM21.2596 20.4399C21.2301 20.8972 21.201 21.3545 21.172 21.8118C21.1621 21.9672 21.1521 22.1226 21.1421 22.278C21.1277 22.502 21.1135 22.726 21.0994 22.95C21.0949 23.0189 21.0904 23.0879 21.0858 23.1589C21.0626 23.5295 21.0499 23.8967 21.0545 24.268C21.4787 24.0407 21.8824 23.7937 22.2807 23.5238C22.3358 23.4867 22.3909 23.4496 22.4477 23.4113C22.5629 23.3336 22.678 23.2558 22.793 23.1778C22.9697 23.0581 23.1468 22.9391 23.324 22.8201C23.4363 22.7442 23.5485 22.6684 23.6607 22.5924C23.7138 22.5568 23.7668 22.5212 23.8214 22.4845C23.8701 22.4514 23.9187 22.4183 23.9689 22.3842C24.0118 22.3552 24.0547 22.3262 24.0989 22.2963C24.2095 22.2205 24.2095 22.2205 24.2674 22.0805C24.2217 22.0551 24.176 22.0297 24.129 22.0035C23.9144 21.8841 23.7 21.7644 23.4855 21.6447C23.4082 21.6016 23.3308 21.5584 23.2511 21.5139C22.7411 21.2283 22.2348 20.9375 21.7349 20.6345C21.513 20.4887 21.513 20.4887 21.2596 20.4399ZM4.51154 28.643C4.75801 28.9306 4.99299 29.2015 5.25842 29.4674C5.31847 29.5275 5.37853 29.5876 5.4404 29.6496C5.50186 29.7108 5.56333 29.772 5.62665 29.8351C5.68944 29.8981 5.75222 29.9612 5.81691 30.0261C5.90633 30.1154 5.90633 30.1154 5.99756 30.2065C6.05186 30.2607 6.10617 30.315 6.16213 30.3708C6.26837 30.4965 6.26837 30.4965 6.35724 30.4887C6.35724 29.8797 6.35724 29.2706 6.35724 28.643C5.74816 28.643 5.13908 28.643 4.51154 28.643Z" fill="black"/>
<path d="M8.47658 2.93852C8.62745 3.04987 8.62745 3.04987 8.75002 3.21196C8.77672 3.43306 8.77672 3.43306 8.76711 3.67339C8.76464 3.7534 8.76217 3.83341 8.75963 3.91585C8.75646 3.97683 8.75329 4.03781 8.75002 4.10063C8.79143 4.11068 8.83285 4.12072 8.87552 4.13107C9.62812 4.33254 10.2104 4.68853 10.6641 5.3311C11.0142 5.94042 11.2428 6.61505 11.0742 7.31352C10.9717 7.48442 10.9717 7.48442 10.8008 7.58696C10.589 7.62434 10.3954 7.6372 10.1856 7.58696C9.98292 7.43804 9.92012 7.34352 9.85498 7.0991C9.84282 7.019 9.83066 6.9389 9.81813 6.85637C9.7334 6.41859 9.61946 6.05982 9.29689 5.74126C9.13898 5.65102 8.98107 5.56079 8.81838 5.46782C8.81838 6.55063 8.81838 7.63345 8.81838 8.74907C9.06652 8.83931 9.31467 8.92954 9.57033 9.02251C10.3808 9.47082 10.8214 10.1284 11.0742 11.0049C11.2551 11.7737 11.1089 12.577 10.698 13.2501C10.2032 13.9633 9.61138 14.3971 8.75002 14.5596C8.75359 14.6511 8.75359 14.6511 8.75723 14.7444C8.75908 14.8244 8.76093 14.9044 8.76283 14.9869C8.7664 15.1058 8.7664 15.1058 8.77004 15.2272C8.74833 15.467 8.71831 15.5577 8.54494 15.7217C8.2464 15.794 8.08684 15.8248 7.80153 15.7132C7.46155 15.4132 7.48262 14.9855 7.45119 14.5596C7.40404 14.5454 7.3569 14.5312 7.30833 14.5166C6.48576 14.2469 5.91546 13.765 5.50241 13.002C5.27352 12.5057 5.05197 11.8764 5.249 11.3363C5.35948 11.1772 5.48255 11.088 5.66984 11.0375C5.92086 11.0175 6.05906 11.0583 6.27626 11.1886C6.46602 11.476 6.50408 11.7438 6.57186 12.0781C6.658 12.4075 6.80053 12.677 7.04103 12.919C7.2779 13.0543 7.2779 13.0543 7.51955 13.1924C7.51955 12.0871 7.51955 10.9817 7.51955 9.84282C7.28268 9.80898 7.28268 9.80898 7.04103 9.77446C6.21528 9.39722 5.67819 8.8206 5.34487 7.98003C5.07132 7.11621 5.17524 6.28597 5.5884 5.48064C6.02124 4.74405 6.64149 4.35389 7.45119 4.10063C7.45868 4.03965 7.46617 3.97868 7.47389 3.91585C7.49014 3.79583 7.49014 3.79583 7.50673 3.67339C7.51704 3.59408 7.52735 3.51477 7.53797 3.43306C7.58831 3.21018 7.63424 3.09996 7.79299 2.93852C8.05314 2.8518 8.21037 2.87781 8.47658 2.93852ZM6.83595 5.87798C6.53432 6.26422 6.38851 6.68617 6.4258 7.17681C6.52927 7.6264 6.67477 7.97576 7.04103 8.27056C7.10166 8.32272 7.16228 8.37489 7.22475 8.42864C7.36862 8.55742 7.36862 8.55742 7.51955 8.54399C7.51955 7.52886 7.51955 6.51372 7.51955 5.46782C7.24452 5.46782 7.02887 5.69874 6.83595 5.87798ZM8.75002 10.0479C8.75002 11.1082 8.75002 12.1684 8.75002 13.2608C9.355 12.9583 9.61606 12.7369 9.84377 12.1115C9.96623 11.6412 9.87902 11.2122 9.66432 10.7828C9.40643 10.4841 9.13019 10.1746 8.75002 10.0479Z" fill="black"/>
<path d="M6.69133 21.5241C6.74034 21.5239 6.78934 21.5237 6.83983 21.5235C7.00488 21.5229 7.16992 21.5228 7.33496 21.5227C7.45296 21.5223 7.57096 21.522 7.68896 21.5216C8.01014 21.5207 8.33132 21.5203 8.6525 21.52C8.85306 21.5198 9.05361 21.5195 9.25416 21.5192C9.88133 21.5183 10.5085 21.5176 11.1357 21.5173C11.8602 21.517 12.5848 21.5158 13.3093 21.5139C13.869 21.5124 14.4286 21.5117 14.9883 21.5116C15.3227 21.5115 15.6572 21.5111 15.9916 21.5099C16.3062 21.5088 16.6208 21.5086 16.9354 21.5092C17.0509 21.5093 17.1664 21.509 17.2819 21.5083C17.4395 21.5074 17.5971 21.5078 17.7548 21.5086C17.843 21.5085 17.9312 21.5084 18.0221 21.5082C18.2704 21.5357 18.3985 21.5846 18.5935 21.7388C18.6988 21.986 18.7475 22.1413 18.6875 22.4053C18.5781 22.5842 18.5014 22.658 18.32 22.7641C18.0973 22.7903 18.0973 22.7903 17.8275 22.7911C17.7778 22.7915 17.7282 22.7919 17.677 22.7924C17.5105 22.7935 17.344 22.7932 17.1774 22.7928C17.0581 22.7933 16.9387 22.7939 16.8193 22.7946C16.4951 22.7961 16.1708 22.7963 15.8465 22.7962C15.5759 22.7962 15.3053 22.7968 15.0346 22.7973C14.3962 22.7987 13.7579 22.7988 13.1195 22.7984C12.4607 22.7979 11.8019 22.7995 11.1431 22.802C10.5776 22.8041 10.0122 22.8049 9.4467 22.8046C9.1089 22.8045 8.77111 22.8049 8.43331 22.8065C8.11567 22.8081 7.79807 22.8079 7.48042 22.8066C7.36383 22.8063 7.24723 22.8067 7.13064 22.8076C6.97147 22.8089 6.81245 22.808 6.65328 22.8066C6.56422 22.8067 6.47516 22.8067 6.3834 22.8068C6.09145 22.753 5.99009 22.6544 5.81028 22.4223C5.76301 22.1282 5.77503 21.9979 5.93845 21.7473C6.18494 21.5008 6.34868 21.5249 6.69133 21.5241Z" fill="black"/>
<path d="M6.65655 18.6195C6.70661 18.619 6.75668 18.6185 6.80826 18.618C6.9757 18.6168 7.14303 18.618 7.31046 18.6193C7.43062 18.6189 7.55079 18.6184 7.67094 18.6178C7.99707 18.6165 8.32315 18.6174 8.64927 18.6188C8.99044 18.6199 9.33162 18.6193 9.6728 18.6189C10.2457 18.6186 10.8186 18.6197 11.3914 18.6216C12.054 18.6238 12.7166 18.6238 13.3791 18.6226C14.0163 18.6215 14.6535 18.622 15.2907 18.6232C15.5619 18.6236 15.8332 18.6236 16.1045 18.6231C16.4238 18.6225 16.7431 18.6234 17.0624 18.6252C17.1797 18.6257 17.297 18.6257 17.4143 18.6252C17.5742 18.6246 17.734 18.6257 17.894 18.6272C18.0283 18.6275 18.0283 18.6275 18.1653 18.6278C18.4266 18.6682 18.5061 18.7267 18.6625 18.9359C18.7458 19.1913 18.7423 19.3131 18.654 19.5682C18.5033 19.7891 18.4359 19.8177 18.184 19.8929C17.9571 19.9103 17.9571 19.9103 17.6936 19.9107C17.6207 19.9111 17.6207 19.9111 17.5463 19.9115C17.3838 19.9122 17.2213 19.9119 17.0587 19.9117C16.9421 19.912 16.8254 19.9123 16.7087 19.9127C16.392 19.9136 16.0754 19.9137 15.7587 19.9135C15.4944 19.9134 15.2301 19.9138 14.9657 19.9141C14.3422 19.9149 13.7186 19.9149 13.0951 19.9145C12.4517 19.9141 11.8083 19.9149 11.1649 19.9164C10.6125 19.9176 10.0601 19.918 9.50774 19.9177C9.17782 19.9176 8.8479 19.9178 8.51797 19.9188C8.2078 19.9196 7.89764 19.9195 7.58747 19.9186C7.47363 19.9184 7.35979 19.9186 7.24595 19.9192C7.09056 19.9199 6.93522 19.9193 6.77983 19.9185C6.69287 19.9185 6.60592 19.9185 6.51633 19.9185C6.26979 19.8907 6.14348 19.8375 5.94767 19.6878C5.77675 19.4314 5.7743 19.3078 5.81095 19.0042C6.06729 18.6709 6.2432 18.6197 6.65655 18.6195Z" fill="black"/>
<path d="M13.6061 12.7745C13.7128 12.7739 13.7128 12.7739 13.8216 12.7733C13.9386 12.7732 13.9386 12.7732 14.0579 12.7731C14.1401 12.7727 14.2223 12.7724 14.3069 12.772C14.5323 12.7712 14.7577 12.7707 14.9832 12.7704C15.124 12.7702 15.2649 12.7699 15.4057 12.7696C15.8466 12.7687 16.2874 12.768 16.7282 12.7678C17.2369 12.7675 17.7456 12.7663 18.2543 12.7643C18.6476 12.7628 19.0409 12.7621 19.4342 12.762C19.6691 12.7619 19.904 12.7615 20.1388 12.7603C20.4008 12.759 20.6628 12.7593 20.9249 12.7597C21.0414 12.7588 21.0414 12.7588 21.1603 12.7578C21.2318 12.7582 21.3033 12.7586 21.377 12.759C21.4389 12.7589 21.5009 12.7588 21.5647 12.7587C21.8224 12.7964 22.0131 12.9036 22.1743 13.1088C22.2387 13.3406 22.2066 13.5094 22.1487 13.7411C22.0095 13.9177 21.9286 14.0036 21.7059 14.0493C21.6421 14.0496 21.5782 14.0499 21.5125 14.0502C21.439 14.0512 21.3655 14.0521 21.2897 14.0531C21.2094 14.0528 21.1291 14.0525 21.0464 14.0521C20.9616 14.0528 20.8767 14.0535 20.7893 14.0542C20.5568 14.0558 20.3244 14.0561 20.0919 14.0558C19.8977 14.0556 19.7036 14.0563 19.5094 14.057C19.0512 14.0585 18.5931 14.0585 18.135 14.0577C17.6626 14.0569 17.1902 14.0586 16.7177 14.0615C16.3119 14.0639 15.9061 14.0647 15.5003 14.0643C15.258 14.064 15.0158 14.0644 14.7735 14.0663C14.5033 14.0683 14.2331 14.067 13.9629 14.0655C13.8427 14.067 13.8427 14.067 13.72 14.0686C13.1921 14.0618 13.1921 14.0618 12.9987 13.9252C12.8701 13.7773 12.7905 13.6463 12.7578 13.4519C12.7955 13.255 12.8287 13.0901 12.9458 12.9251C13.1629 12.7831 13.3547 12.7753 13.6061 12.7745Z" fill="black"/>
<path d="M13.6061 4.02449C13.7128 4.0239 13.7128 4.0239 13.8216 4.0233C13.9386 4.02319 13.9386 4.02319 14.0579 4.02307C14.1401 4.02273 14.2223 4.02239 14.3069 4.02204C14.5323 4.02122 14.7577 4.02071 14.9832 4.0204C15.124 4.0202 15.2649 4.01992 15.4057 4.01962C15.8466 4.01868 16.2874 4.01802 16.7282 4.01776C17.2369 4.01745 17.7456 4.01625 18.2543 4.01427C18.6476 4.01279 19.0409 4.0121 19.4342 4.01201C19.6691 4.01194 19.904 4.01154 20.1388 4.01032C20.4008 4.00898 20.6628 4.00928 20.9249 4.00972C21.0414 4.00878 21.0414 4.00878 21.1603 4.00781C21.2318 4.00819 21.3033 4.00857 21.377 4.00897C21.4389 4.00887 21.5009 4.00877 21.5647 4.00866C21.8224 4.04636 22.0131 4.15361 22.1743 4.35879C22.2387 4.59061 22.2066 4.75937 22.1487 4.99112C22.0095 5.16773 21.9286 5.25359 21.7059 5.29935C21.6421 5.29963 21.5782 5.29991 21.5125 5.3002C21.439 5.30117 21.3655 5.30214 21.2897 5.30313C21.2094 5.3028 21.1291 5.30246 21.0464 5.30211C20.9616 5.30281 20.8767 5.3035 20.7893 5.30422C20.5568 5.3058 20.3244 5.30613 20.0919 5.30579C19.8977 5.30564 19.7036 5.30631 19.5094 5.30696C19.0512 5.30848 18.5931 5.30854 18.135 5.30771C17.6626 5.30689 17.1902 5.30857 16.7177 5.31148C16.3119 5.31389 15.9061 5.31471 15.5003 5.31427C15.258 5.31402 15.0158 5.31438 14.7735 5.31628C14.5033 5.31832 14.2331 5.31705 13.9629 5.31546C13.8427 5.31703 13.8427 5.31703 13.72 5.31863C13.1921 5.31176 13.1921 5.31176 12.9987 5.17521C12.8701 5.02728 12.7905 4.8963 12.7578 4.70193C12.7955 4.50503 12.8287 4.34009 12.9458 4.17508C13.1629 4.03311 13.3547 4.02531 13.6061 4.02449Z" fill="black"/>
<path d="M13.488 9.87786C13.5616 9.87709 13.6352 9.87632 13.7111 9.87553C13.8317 9.87636 13.8317 9.87636 13.9547 9.8772C14.0821 9.87648 14.0821 9.87648 14.2121 9.87575C14.4449 9.87475 14.6776 9.87499 14.9104 9.87585C15.154 9.87655 15.3977 9.87591 15.6413 9.87548C16.0505 9.87498 16.4596 9.87563 16.8688 9.87694C17.3418 9.87842 17.8147 9.87794 18.2877 9.87644C18.6938 9.8752 19.1 9.87502 19.5061 9.87574C19.7487 9.87616 19.9912 9.87622 20.2338 9.87532C20.5041 9.87438 20.7745 9.87568 21.0449 9.8772C21.1253 9.87665 21.2057 9.8761 21.2885 9.87553C21.3989 9.87668 21.3989 9.87668 21.5116 9.87786C21.5755 9.87797 21.6394 9.87807 21.7053 9.87817C21.9282 9.92342 22.0087 10.0096 22.1482 10.186C22.2204 10.4507 22.2422 10.6005 22.1397 10.8568C21.9584 11.0683 21.774 11.1325 21.4986 11.1604C21.4379 11.1606 21.3772 11.1607 21.3148 11.1609C21.2097 11.1616 21.2097 11.1616 21.1025 11.1623C20.9883 11.1621 20.9883 11.1621 20.8718 11.1618C20.7911 11.1622 20.7104 11.1625 20.6272 11.1629C20.4063 11.1637 20.1854 11.1638 19.9645 11.1637C19.7799 11.1636 19.5952 11.1639 19.4105 11.1643C18.9748 11.165 18.539 11.165 18.1033 11.1646C17.6543 11.1642 17.2053 11.1651 16.7563 11.1665C16.3703 11.1677 15.9843 11.1681 15.5983 11.1679C15.3679 11.1678 15.1376 11.168 14.9073 11.1689C14.6504 11.1698 14.3935 11.1693 14.1366 11.1685C14.0606 11.169 13.9846 11.1695 13.9064 11.1701C13.5272 11.1675 13.2448 11.1572 12.9197 10.938C12.7712 10.7572 12.7831 10.6625 12.7915 10.4253C12.8919 10.0237 13.0785 9.87852 13.488 9.87786Z" fill="black"/>
<path d="M13.5427 6.95476C13.615 6.95418 13.6872 6.95359 13.7617 6.95299C13.841 6.95305 13.9202 6.95312 14.0019 6.95318C14.0854 6.95272 14.1689 6.95226 14.2549 6.95179C14.484 6.95071 14.7131 6.95026 14.9422 6.95017C15.1335 6.95004 15.3247 6.94954 15.516 6.94906C15.9674 6.94794 16.4187 6.94761 16.87 6.94771C17.3355 6.94779 17.801 6.94635 18.2664 6.94419C18.6661 6.9424 19.0658 6.94166 19.4656 6.94175C19.7043 6.94179 19.9429 6.9414 20.1816 6.93995C20.4479 6.93838 20.7141 6.939 20.9804 6.93983C21.0594 6.93906 21.1384 6.93829 21.2198 6.9375C21.7515 6.9417 21.7515 6.9417 22.0249 7.09715C22.1982 7.30668 22.2168 7.45532 22.2168 7.72499C22.1082 7.9693 22.0311 8.05386 21.8066 8.20351C21.6478 8.2211 21.6478 8.2211 21.4573 8.22179C21.385 8.22237 21.3128 8.22296 21.2383 8.22356C21.159 8.22349 21.0798 8.22343 20.9981 8.22337C20.9146 8.22383 20.8311 8.22429 20.7451 8.22476C20.516 8.22584 20.2869 8.22629 20.0578 8.22638C19.8665 8.22651 19.6753 8.22701 19.484 8.22749C19.0326 8.22861 18.5813 8.22894 18.13 8.22884C17.6645 8.22876 17.199 8.2302 16.7336 8.23236C16.3339 8.23415 15.9342 8.23488 15.5344 8.2348C15.2957 8.23476 15.0571 8.23515 14.8184 8.2366C14.5521 8.23817 14.2859 8.23755 14.0196 8.23672C13.9011 8.23787 13.9011 8.23787 13.7802 8.23905C13.2485 8.23485 13.2485 8.23485 12.9751 8.0794C12.8018 7.86987 12.7832 7.72123 12.7832 7.45156C12.9489 7.07881 13.1414 6.95622 13.5427 6.95476Z" fill="black"/>
<path d="M13.7885 15.7032C13.8494 15.7027 13.9102 15.7023 13.9728 15.7018C14.1743 15.7005 14.3757 15.7002 14.5771 15.7001C14.717 15.6996 14.8569 15.6992 14.9968 15.6987C15.2902 15.6979 15.5836 15.6976 15.877 15.6977C16.253 15.6977 16.629 15.6959 17.005 15.6935C17.294 15.692 17.583 15.6917 17.872 15.6918C18.0106 15.6916 18.1492 15.691 18.2878 15.69C18.4818 15.6886 18.6756 15.689 18.8696 15.6898C18.9268 15.6891 18.9841 15.6883 19.0431 15.6875C19.3129 15.6904 19.4515 15.7043 19.6874 15.8471C19.877 16.0541 19.8926 16.1972 19.8926 16.475C19.784 16.7193 19.7069 16.8039 19.4824 16.9535C19.2819 16.9675 19.0878 16.9736 18.8872 16.9734C18.8264 16.9738 18.7656 16.9743 18.7029 16.9748C18.5015 16.9761 18.3001 16.9763 18.0987 16.9765C17.9588 16.9769 17.8189 16.9774 17.679 16.9779C17.3856 16.9787 17.0922 16.9789 16.7987 16.9788C16.4227 16.9788 16.0468 16.9807 15.6708 16.9831C15.3818 16.9846 15.0928 16.9848 14.8038 16.9848C14.6652 16.9849 14.5266 16.9855 14.3879 16.9866C14.194 16.9879 14.0002 16.9875 13.8062 16.9867C13.749 16.9875 13.6917 16.9883 13.6327 16.989C13.3629 16.9861 13.2243 16.9722 12.9884 16.8294C12.7988 16.6225 12.7832 16.4793 12.7832 16.2016C12.9989 15.7163 13.3031 15.7027 13.7885 15.7032Z" fill="black"/>
</g>
<defs>
<clipPath id="clip0_5826_47844">
<rect width="35" height="35" fill="white"/>
</clipPath>
</defs>
</svg>
