<svg width="24" height="24" viewBox="0 0 24 24" fill="none" xmlns="http://www.w3.org/2000/svg">
<path d="M20.0006 9.99979C20.0006 9.73457 19.8952 9.48022 19.7077 9.29268C19.5201 9.10514 19.2658 8.99979 19.0006 8.99979C18.7354 8.99979 18.481 9.10514 18.2935 9.29268C18.1059 9.48022 18.0006 9.73457 18.0006 9.99979H20.0006ZM6.00057 9.99979C6.00057 9.73457 5.89521 9.48022 5.70768 9.29268C5.52014 9.10514 5.26579 8.99979 5.00057 8.99979C4.73535 8.99979 4.481 9.10514 4.29346 9.29268C4.10593 9.48022 4.00057 9.73457 4.00057 9.99979H6.00057ZM20.2936 12.7068C20.4822 12.8889 20.7348 12.9897 20.997 12.9875C21.2592 12.9852 21.51 12.88 21.6954 12.6946C21.8808 12.5092 21.986 12.2584 21.9882 11.9962C21.9905 11.734 21.8897 11.4814 21.7076 11.2928L20.2936 12.7068ZM12.0006 2.99979L12.7076 2.29279C12.52 2.10532 12.2657 2 12.0006 2C11.7354 2 11.4811 2.10532 11.2936 2.29279L12.0006 2.99979ZM2.29357 11.2928C2.19806 11.385 2.12188 11.4954 2.06947 11.6174C2.01706 11.7394 1.98947 11.8706 1.98832 12.0034C1.98717 12.1362 2.01247 12.2678 2.06275 12.3907C2.11303 12.5136 2.18728 12.6253 2.28117 12.7192C2.37507 12.8131 2.48672 12.8873 2.60962 12.9376C2.73251 12.9879 2.86419 13.0132 2.99697 13.012C3.12975 13.0109 3.26097 12.9833 3.38297 12.9309C3.50498 12.8785 3.61532 12.8023 3.70757 12.7068L2.29357 11.2928ZM7.00057 21.9998H17.0006V19.9998H7.00057V21.9998ZM20.0006 18.9998V9.99979H18.0006V18.9998H20.0006ZM6.00057 18.9998V9.99979H4.00057V18.9998H6.00057ZM21.7076 11.2928L12.7076 2.29279L11.2936 3.70679L20.2936 12.7068L21.7076 11.2928ZM11.2936 2.29279L2.29357 11.2928L3.70757 12.7068L12.7076 3.70679L11.2936 2.29279ZM17.0006 21.9998C17.7962 21.9998 18.5593 21.6837 19.1219 21.1211C19.6845 20.5585 20.0006 19.7954 20.0006 18.9998H18.0006C18.0006 19.265 17.8952 19.5194 17.7077 19.7069C17.5201 19.8944 17.2658 19.9998 17.0006 19.9998V21.9998ZM7.00057 19.9998C6.73535 19.9998 6.481 19.8944 6.29346 19.7069C6.10593 19.5194 6.00057 19.265 6.00057 18.9998H4.00057C4.00057 19.7954 4.31664 20.5585 4.87925 21.1211C5.44186 21.6837 6.20492 21.9998 7.00057 21.9998V19.9998Z" fill="white"/>
</svg>
