<svg width="26" height="26" viewBox="0 0 26 26" fill="none" xmlns="http://www.w3.org/2000/svg">
<g clip-path="url(#clip0_6014_46700)">
<path d="M8.40049 0.517397C8.43929 0.516928 8.47809 0.516458 8.51807 0.515974C8.64606 0.514617 8.77405 0.51412 8.90205 0.513747C8.99128 0.513241 9.08052 0.512726 9.16975 0.512203C9.35673 0.511273 9.54371 0.510838 9.7307 0.510675C9.96985 0.510371 10.209 0.508245 10.4481 0.505668C10.6324 0.503986 10.8167 0.503581 11.001 0.503525C11.0891 0.503288 11.1773 0.502587 11.2654 0.501408C11.389 0.499886 11.5124 0.500162 11.6359 0.500867C11.7061 0.500581 11.7762 0.500295 11.8485 0.5C12.1054 0.546292 12.1973 0.635518 12.3816 0.816801C12.5578 1.12475 12.5142 1.48047 12.5131 1.8248C12.5129 1.94121 12.5143 2.05754 12.5157 2.17393C12.5157 2.24794 12.5158 2.32195 12.5158 2.39819C12.516 2.46554 12.5162 2.53289 12.5163 2.60227C12.4851 2.88226 12.3894 3.06602 12.19 3.26416C11.8735 3.40516 11.591 3.36983 11.2462 3.35585C11.2462 3.76548 11.2462 4.17511 11.2462 4.59716C11.4335 4.61578 11.6209 4.6344 11.8139 4.65358C13.7709 5.05319 15.667 6.07411 16.9235 7.64401C17.0936 7.56818 17.2112 7.4846 17.342 7.35304C17.3787 7.31641 17.4153 7.27978 17.4531 7.24204C17.4928 7.20191 17.5324 7.16178 17.5732 7.12043C17.6154 7.07813 17.6576 7.03583 17.7011 6.99224C17.7927 6.9004 17.8842 6.80844 17.9755 6.71636C18.1201 6.57074 18.265 6.42552 18.4101 6.28042C18.8225 5.86781 19.2343 5.45458 19.6455 5.04084C19.8971 4.78781 20.1492 4.53532 20.4017 4.28316C20.4978 4.18689 20.5938 4.0904 20.6895 3.99369C20.8232 3.85862 20.9577 3.72425 21.0923 3.59001C21.1318 3.54977 21.1713 3.50952 21.2119 3.46806C21.2488 3.43159 21.2856 3.39512 21.3236 3.35754C21.3711 3.30978 21.3711 3.30978 21.4196 3.26106C21.5486 3.16735 21.6477 3.14457 21.806 3.13015C21.9357 3.19457 22.0439 3.25373 22.1467 3.35585C22.1751 3.50043 22.1751 3.50043 22.1467 3.69439C22.0704 3.7984 22.0704 3.7984 21.9701 3.90791C21.9339 3.94759 21.8976 3.98726 21.8603 4.02814C21.6984 4.19968 21.5339 4.36813 21.3665 4.5344C21.3299 4.57093 21.2934 4.60746 21.2557 4.6451C21.1339 4.76678 21.0118 4.88826 20.8898 5.00975C20.8013 5.0981 20.7127 5.18646 20.6242 5.27483C20.3814 5.51712 20.1385 5.75922 19.8955 6.00129C19.6602 6.23573 19.4251 6.47029 19.1899 6.70484C18.4709 7.42198 17.7515 8.1387 17.032 8.85535C17.0025 8.88469 16.973 8.91403 16.9427 8.94426C15.7759 10.1064 14.609 11.2684 13.4417 12.43C13.1529 12.7173 12.8642 13.0047 12.5754 13.2921C12.5435 13.3239 12.5116 13.3556 12.4787 13.3883C11.443 14.4191 10.408 15.4506 9.37357 16.4826C8.30971 17.5439 7.24512 18.6045 6.17956 19.6641C6.02918 19.8137 5.8788 19.9632 5.72843 20.1128C5.69884 20.1422 5.66924 20.1717 5.63875 20.202C5.16214 20.6761 4.68631 21.1509 4.21075 21.626C3.73318 22.1031 3.25478 22.5794 2.77553 23.0548C2.51583 23.3125 2.25653 23.5705 1.99819 23.8296C1.7619 24.0665 1.5246 24.3023 1.28642 24.5374C1.20026 24.6228 1.11448 24.7086 1.02912 24.7948C0.913372 24.9116 0.79632 25.0269 0.678826 25.1419C0.629142 25.1931 0.629141 25.1931 0.578453 25.2452C0.405104 25.4119 0.290827 25.4941 0.044749 25.5C-0.165293 25.4738 -0.165293 25.4738 -0.282388 25.3856C-0.361661 25.1808 -0.335032 25.0659 -0.27884 24.8531C-0.160454 24.6875 -0.0175268 24.5506 0.128901 24.4094C0.171547 24.367 0.214194 24.3246 0.258133 24.2809C0.398957 24.1411 0.540948 24.0026 0.682983 23.8641C0.780987 23.7674 0.878916 23.6705 0.976773 23.5736C1.23429 23.319 1.4928 23.0654 1.75155 22.812C2.01549 22.5531 2.27847 22.2933 2.54154 22.0336C3.05766 21.5243 3.57481 21.016 4.09272 20.5085C4.00923 20.3333 3.93697 20.2349 3.78401 20.1135C2.05975 18.65 1.13346 16.4382 0.939267 14.2298C0.76323 11.9081 1.47749 9.55266 2.99004 7.76377C3.18039 7.54773 3.37965 7.34137 3.58176 7.1362C3.62062 7.09474 3.65948 7.05329 3.69952 7.01057C4.93218 5.72131 6.77269 4.88796 8.52105 4.59716C8.61472 4.59716 8.7084 4.59716 8.80491 4.59716C8.80491 4.18752 8.80491 3.77789 8.80491 3.35585C8.63103 3.36108 8.63103 3.36108 8.45363 3.36643C8.11782 3.37654 7.93768 3.31835 7.68364 3.10194C7.52113 2.90813 7.54495 2.67464 7.54237 2.4361C7.54191 2.39582 7.54145 2.35553 7.54098 2.31403C7.5402 2.2288 7.53959 2.14357 7.53914 2.05835C7.53849 1.9715 7.53733 1.88466 7.53565 1.79783C7.53322 1.67203 7.53231 1.5463 7.53172 1.42049C7.53073 1.38204 7.52974 1.34359 7.52871 1.30397C7.52999 1.02215 7.60158 0.861919 7.78299 0.647532C7.98266 0.51447 8.16417 0.519422 8.40049 0.517397ZM8.35073 1.32461C8.35073 1.73424 8.35073 2.14388 8.35073 2.56592C9.45611 2.56592 10.5615 2.56592 11.7004 2.56592C11.7004 2.15629 11.7004 1.74666 11.7004 1.32461C10.595 1.32461 9.4896 1.32461 8.35073 1.32461ZM9.59974 3.35585C9.59974 3.74686 9.59974 4.13787 9.59974 4.54073C9.88077 4.54073 10.1618 4.54073 10.4513 4.54073C10.4513 4.14972 10.4513 3.75871 10.4513 3.35585C10.1703 3.35585 9.88929 3.35585 9.59974 3.35585ZM3.77691 8.07776C2.36867 9.68232 1.6045 11.7993 1.71529 13.9298C1.88443 16.2178 2.85751 18.2953 4.61898 19.8065C4.6514 19.8334 4.68382 19.8602 4.71723 19.8879C4.97613 19.6732 5.21972 19.4506 5.45528 19.2108C5.37619 19.0272 5.28782 18.9267 5.13238 18.8017C3.82953 17.6975 3.06971 15.9768 2.86144 14.3125C2.77356 13.1678 2.90005 12.0526 3.29789 10.973C3.31882 10.9148 3.33975 10.8566 3.36132 10.7967C3.63451 10.0926 4.05089 9.45375 4.5469 8.88532C4.58584 8.83914 4.62477 8.79295 4.66489 8.74537C5.76984 7.47144 7.3255 6.73334 8.97523 6.45912C9.01849 6.45163 9.06174 6.44414 9.1063 6.43642C11.0209 6.16566 12.955 6.76801 14.4836 7.90497C14.6895 8.06828 14.8681 8.24496 15.05 8.43394C15.0875 8.43394 15.1249 8.43394 15.1635 8.43394C15.1753 8.46419 15.187 8.49445 15.199 8.52562C15.31 8.71615 15.4578 8.84609 15.6177 8.99817C15.8393 8.90864 15.9774 8.76494 16.1429 8.59615C16.2189 8.51913 16.2189 8.51913 16.2964 8.44055C16.3347 8.40113 16.373 8.36171 16.4126 8.32109C15.407 6.8221 13.4837 5.80726 11.7385 5.44703C11.2556 5.35436 10.7727 5.2954 10.281 5.27424C10.2369 5.27191 10.1928 5.26958 10.1473 5.26718C7.68945 5.19991 5.43632 6.33244 3.77691 8.07776ZM5.90947 8.60321C5.872 8.65907 5.83453 8.71492 5.79592 8.77248C5.84444 8.82004 5.89296 8.86761 5.94296 8.91662C6.00632 8.97906 6.06967 9.04151 6.13301 9.10396C6.16503 9.13531 6.19705 9.16666 6.23004 9.19896C6.53038 9.49566 6.53038 9.49566 6.54462 9.75988C6.53398 9.95736 6.53398 9.95736 6.42043 10.0702C6.21862 10.1063 6.08337 10.111 5.90991 9.99373C5.79253 9.89092 5.68065 9.78399 5.56883 9.67525C5.49364 9.61001 5.41798 9.5453 5.34173 9.48129C5.25742 9.40972 5.25742 9.40972 5.17141 9.33671C4.22308 10.3884 3.6838 11.7083 3.58176 13.1171C3.61496 13.1182 3.64817 13.1193 3.68238 13.1205C3.83338 13.1258 3.98433 13.132 4.1353 13.1382C4.18755 13.14 4.2398 13.1417 4.29364 13.1435C4.34414 13.1457 4.39464 13.1479 4.44666 13.1501C4.51624 13.1528 4.51624 13.1528 4.58721 13.1555C4.7301 13.1753 4.82387 13.2075 4.94432 13.2863C5.00771 13.5093 5.0017 13.6225 4.94432 13.8506C4.49467 13.8692 4.04503 13.8878 3.58176 13.907C3.71732 15.3621 4.21987 16.623 5.17141 17.7438C5.38383 17.5671 5.58294 17.3921 5.77108 17.1901C5.90613 17.0535 5.96049 17.012 6.15076 16.9538C6.30688 16.9538 6.30688 16.9538 6.4772 17.0103C6.56871 17.1922 6.55892 17.3166 6.53398 17.5181C6.42994 17.6693 6.30117 17.7869 6.16495 17.9095C6.12975 17.9427 6.09454 17.9759 6.05828 18.0101C5.9717 18.0915 5.88392 18.1717 5.79592 18.2516C5.83655 18.3653 5.83655 18.3653 5.90947 18.4773C6.0163 18.5265 6.0163 18.5265 6.13656 18.5337C6.27056 18.4284 6.38357 18.325 6.50226 18.2042C6.53885 18.1681 6.57544 18.1319 6.61315 18.0947C6.7363 17.9728 6.85842 17.8499 6.98057 17.7269C7.06836 17.6396 7.15621 17.5523 7.24412 17.4651C7.48321 17.2276 7.72141 16.9892 7.95947 16.7506C8.20817 16.5017 8.45768 16.2536 8.7071 16.0053C9.12583 15.5884 9.54407 15.171 9.96192 14.7532C10.3924 14.3228 10.8231 13.8928 11.2542 13.4631C11.2808 13.4366 11.3074 13.4101 11.3347 13.3829C11.468 13.25 11.6013 13.1172 11.7346 12.9844C12.8406 11.8823 13.9456 10.7791 15.05 9.67525C14.9938 9.5356 14.9938 9.5356 14.9364 9.39313C14.7009 9.36691 14.7009 9.36691 14.5561 9.54124C14.4994 9.60455 14.4428 9.66804 14.3865 9.73167C14.0861 10.0537 14.0861 10.0537 13.8699 10.1152C13.73 10.1125 13.73 10.1125 13.5171 10.0702C13.4405 9.71697 13.4405 9.71697 13.5242 9.54124C13.6511 9.36469 13.7972 9.21539 13.9536 9.06517C13.9971 9.02268 13.9971 9.02268 14.0415 8.97932C14.1125 8.91011 14.1838 8.84126 14.2552 8.77248C13.2442 7.72561 11.8104 7.27564 10.3946 7.1362C10.3758 7.58307 10.3571 8.02995 10.3378 8.49036C9.94038 8.54678 9.94038 8.54678 9.80555 8.50447C9.71329 8.43394 9.71329 8.43394 9.65652 8.26467C9.6482 8.17706 9.6425 8.08919 9.63855 8.00129C9.63617 7.95092 9.6338 7.90055 9.63134 7.84866C9.62911 7.79625 9.62688 7.74385 9.62458 7.68986C9.62213 7.6368 9.61968 7.58374 9.61715 7.52907C9.61113 7.39812 9.60534 7.26717 9.59974 7.1362C8.27269 7.1362 6.91813 7.78528 5.90947 8.60321Z" fill="white"/>
<path d="M17.0108 12.1801C17.0787 12.1795 17.1467 12.179 17.2167 12.1784C17.2902 12.1781 17.3637 12.1779 17.4395 12.1776C17.5152 12.1773 17.5908 12.1769 17.6688 12.1766C17.8291 12.176 17.9894 12.1756 18.1498 12.1754C18.3542 12.1751 18.5586 12.1737 18.7631 12.172C18.9591 12.1706 19.155 12.1705 19.351 12.1702C19.424 12.1695 19.4969 12.1687 19.5721 12.168C20.1192 12.1694 20.5454 12.244 20.9581 12.6368C21.188 12.9264 21.3283 13.2691 21.4794 13.6067C21.5357 13.7298 21.5948 13.8508 21.6555 13.9717C21.6839 14.0282 21.6839 14.0282 21.7128 14.0858C21.7309 14.1218 21.7491 14.1579 21.7678 14.195C21.9412 14.5401 21.9412 14.5401 21.9412 14.7399C22.0024 14.7391 22.0024 14.7391 22.0648 14.7383C22.4493 14.7336 22.8338 14.73 23.2183 14.7276C23.416 14.7264 23.6136 14.7247 23.8113 14.722C24.0386 14.7189 24.2659 14.7178 24.4933 14.7167C24.5642 14.7155 24.635 14.7143 24.7081 14.713C24.774 14.713 24.84 14.713 24.908 14.713C24.966 14.7125 25.024 14.7119 25.0838 14.7114C25.284 14.7487 25.3421 14.815 25.468 14.9772C25.4969 15.1402 25.4969 15.1402 25.497 15.3312C25.4975 15.4037 25.4981 15.4762 25.4987 15.5509C25.4982 15.6311 25.4976 15.7113 25.497 15.7914C25.4972 15.876 25.4975 15.9606 25.498 16.0452C25.4988 16.2748 25.4981 16.5044 25.4972 16.7341C25.4964 16.9747 25.4967 17.2152 25.4969 17.4558C25.4971 17.86 25.4963 18.2643 25.495 18.6685C25.4934 19.1352 25.4933 19.6018 25.494 20.0685C25.4946 20.5179 25.4943 20.9673 25.4935 21.4168C25.4931 21.6077 25.4931 21.7987 25.4934 21.9897C25.4937 22.215 25.4931 22.4402 25.4918 22.6655C25.4915 22.748 25.4915 22.8304 25.4918 22.9128C25.4947 23.8641 25.4947 23.8641 25.1866 24.2437C25.1483 24.2756 25.11 24.3076 25.0705 24.3405C25.0325 24.3734 24.9945 24.4062 24.9553 24.4401C24.6624 24.6437 24.3942 24.6616 24.0478 24.6599C23.998 24.6601 23.9482 24.6604 23.8969 24.6606C23.7302 24.6612 23.5635 24.661 23.3967 24.6607C23.2771 24.661 23.1576 24.6613 23.038 24.6617C22.7132 24.6625 22.3884 24.6625 22.0636 24.6623C21.7925 24.6623 21.5214 24.6626 21.2502 24.6628C20.6106 24.6635 19.971 24.6635 19.3313 24.6632C18.6715 24.6628 18.0116 24.6635 17.3517 24.6648C16.7852 24.6659 16.2186 24.6662 15.6521 24.666C15.3137 24.6659 14.9754 24.6661 14.637 24.6669C14.3188 24.6676 14.0005 24.6675 13.6823 24.6667C13.5656 24.6666 13.4488 24.6668 13.3321 24.6673C13.1726 24.6679 13.0131 24.6674 12.8537 24.6666C12.8076 24.6671 12.7615 24.6675 12.714 24.668C12.2522 24.6634 11.9276 24.5062 11.5922 24.17C11.4077 23.8502 11.3539 23.5938 11.3524 23.2261C11.352 23.1544 11.3516 23.0826 11.3512 23.0087C11.351 22.9294 11.3509 22.85 11.3507 22.7707C11.3504 22.687 11.35 22.6033 11.3496 22.5196C11.3483 22.245 11.3477 21.9705 11.3472 21.6959C11.3469 21.6014 11.3467 21.5068 11.3465 21.4122C11.3454 20.968 11.3445 20.5238 11.3441 20.0796C11.3435 19.5669 11.342 19.0543 11.3396 18.5416C11.3379 18.1452 11.337 17.7488 11.3368 17.3524C11.3367 17.1156 11.3362 16.8789 11.3347 16.6422C11.3334 16.4196 11.3331 16.197 11.3337 15.9744C11.3338 15.8927 11.3334 15.8111 11.3326 15.7294C11.3316 15.6179 11.3321 15.5063 11.3327 15.3948C11.3326 15.3324 11.3325 15.27 11.3323 15.2057C11.3684 14.9924 11.4452 14.8925 11.5922 14.7399C11.7451 14.7043 11.7451 14.7043 11.921 14.7063C12.0199 14.7063 12.0199 14.7063 12.1209 14.7063C12.1918 14.7079 12.2626 14.7094 12.3357 14.711C12.4085 14.7114 12.4813 14.7118 12.5564 14.7122C12.7495 14.7136 12.9426 14.7163 13.1358 14.7196C13.333 14.7226 13.5303 14.7239 13.7276 14.7254C14.1143 14.7287 14.501 14.7337 14.8877 14.7399C14.9037 14.6883 14.9196 14.6367 14.9361 14.5835C15.0452 14.2598 15.1924 13.9554 15.3358 13.6464C15.3803 13.548 15.3803 13.548 15.4257 13.4475C15.8457 12.5419 15.8457 12.5419 16.2861 12.3453C16.3239 12.3277 16.3617 12.3102 16.4006 12.292C16.6151 12.2048 16.7811 12.1816 17.0108 12.1801ZM16.4478 13.3214C16.2907 13.5585 16.1757 13.8092 16.0585 14.069C16.0347 14.1204 16.0109 14.1718 15.9864 14.2248C15.8605 14.4723 15.8605 14.4723 15.8128 14.7399C17.549 14.7399 19.2852 14.7399 21.074 14.7399C20.7529 13.8494 20.7529 13.8494 20.1505 13.0543C20.003 13.0111 19.8732 13.0044 19.7197 13.0037C19.657 13.0031 19.5943 13.0025 19.5297 13.002C19.4623 13.002 19.3948 13.0021 19.3253 13.0021C19.2557 13.0019 19.1862 13.0016 19.1145 13.0014C18.9674 13.001 18.8203 13.001 18.6732 13.0012C18.4481 13.0014 18.223 13 17.9979 12.9985C17.855 12.9984 17.7121 12.9984 17.5691 12.9984C17.4681 12.9976 17.4681 12.9976 17.3651 12.9968C17.3022 12.9971 17.2393 12.9975 17.1745 12.9979C17.0918 12.9978 17.0918 12.9978 17.0074 12.9978C16.7666 13.0325 16.6146 13.1447 16.4478 13.3214ZM12.1704 15.5702C12.1704 15.7464 12.1704 15.9225 12.1704 16.104C12.3104 16.2418 12.4093 16.3153 12.5751 16.408C12.6657 16.4632 12.7564 16.5185 12.847 16.5738C12.8963 16.603 12.9456 16.6322 12.9964 16.6622C13.2199 16.7964 13.4383 16.9385 13.6572 17.0803C13.8336 17.1945 14.0106 17.3077 14.1878 17.4206C14.4194 17.5683 14.6505 17.7167 14.8812 17.8659C14.9881 17.9347 15.0951 18.0035 15.2021 18.0723C15.2502 18.1037 15.2984 18.135 15.348 18.1673C15.853 18.4907 16.3039 18.7226 16.9088 18.7194C16.9731 18.7192 17.0373 18.719 17.1036 18.7188C17.2033 18.7181 17.2033 18.7181 17.3051 18.7173C17.4066 18.7169 17.4066 18.7169 17.5101 18.7165C17.6766 18.7158 17.8432 18.7148 18.0098 18.7136C18.0119 18.665 18.0141 18.6163 18.0163 18.5662C18.0201 18.5023 18.0239 18.4384 18.0278 18.3726C18.0312 18.3093 18.0345 18.246 18.038 18.1807C18.0698 17.9887 18.1073 17.9012 18.241 17.7647C18.4182 17.7381 18.5313 17.7255 18.683 17.8305C18.798 17.995 18.7915 18.1391 18.8011 18.3392C18.8049 18.4092 18.8087 18.4791 18.8126 18.5512C18.8159 18.6316 18.8159 18.6316 18.8192 18.7136C20.1096 18.7538 20.8834 18.5989 21.9581 17.8697C22.2386 17.6816 22.5238 17.5013 22.8085 17.3198C23.251 17.0365 23.6932 16.7526 24.1346 16.4673C24.1812 16.4373 24.2277 16.4073 24.2757 16.3763C24.3179 16.349 24.3601 16.3217 24.4036 16.2935C24.4405 16.2697 24.4774 16.2458 24.5154 16.2213C24.6001 16.168 24.6001 16.168 24.6586 16.104C24.6586 15.9279 24.6586 15.7517 24.6586 15.5702C20.5375 15.5702 16.4164 15.5702 12.1704 15.5702ZM12.1704 17.1123C12.1663 17.9346 12.1633 18.7568 12.1614 19.5791C12.1605 19.961 12.1592 20.3428 12.1573 20.7246C12.1554 21.093 12.1544 21.4614 12.1539 21.8298C12.1536 21.9704 12.153 22.111 12.152 22.2517C12.1508 22.4485 12.1506 22.6453 12.1507 22.8421C12.1501 22.9003 12.1494 22.9586 12.1488 23.0187C12.1501 23.3107 12.1524 23.5206 12.3438 23.7548C12.5265 23.8485 12.7229 23.8231 12.9236 23.8233C12.9721 23.8235 13.0206 23.8238 13.0706 23.824C13.2342 23.8248 13.3977 23.8252 13.5613 23.8256C13.6782 23.826 13.7951 23.8265 13.912 23.827C14.2966 23.8286 14.6812 23.8295 15.0659 23.8303C15.1982 23.8307 15.3304 23.831 15.4627 23.8313C16.0126 23.8326 16.5626 23.8337 17.1126 23.8344C17.9017 23.8353 18.6907 23.8373 19.4798 23.8407C20.0341 23.843 20.5885 23.8441 21.1428 23.8444C21.4741 23.8447 21.8054 23.8454 22.1368 23.8473C22.4484 23.8491 22.76 23.8495 23.0717 23.8488C23.1861 23.8487 23.3006 23.8492 23.415 23.8503C23.5712 23.8516 23.7272 23.8511 23.8834 23.8502C23.9288 23.851 23.9742 23.8518 24.021 23.8527C24.2483 23.8493 24.3586 23.8225 24.5422 23.681C24.6633 23.511 24.6945 23.4447 24.6933 23.2388C24.6937 23.1845 24.6941 23.1301 24.6945 23.0742C24.693 22.986 24.693 22.986 24.6914 22.8959C24.6914 22.8334 24.6915 22.7709 24.6915 22.7065C24.6913 22.5001 24.6891 22.2938 24.6868 22.0875C24.6863 21.9443 24.6859 21.8011 24.6856 21.6579C24.6845 21.2812 24.6816 20.9046 24.6784 20.528C24.6755 20.1435 24.6741 19.7591 24.6727 19.3747C24.6696 18.6205 24.6647 17.8664 24.6586 17.1123C24.5587 17.1675 24.4589 17.2229 24.3592 17.2784C24.3036 17.3092 24.248 17.34 24.1908 17.3718C23.9277 17.5225 23.6756 17.6894 23.4228 17.8573C23.312 17.9302 23.2012 18.003 23.0903 18.0758C23.0064 18.1309 23.0064 18.1309 22.9207 18.1872C22.6459 18.3669 22.3697 18.5444 22.093 18.721C22.0439 18.7525 21.9949 18.7841 21.9443 18.8166C21.142 19.3273 20.4805 19.486 19.5455 19.518C19.4756 19.5205 19.4058 19.5231 19.3338 19.5257C19.1622 19.532 18.9907 19.538 18.8192 19.5439C18.8149 19.6253 18.8149 19.6253 18.8106 19.7084C18.8063 19.7789 18.802 19.8494 18.7975 19.922C18.7935 19.9922 18.7895 20.0624 18.7853 20.1347C18.7614 20.3149 18.7614 20.3149 18.6457 20.4335C18.5373 20.4514 18.5373 20.4514 18.4145 20.4521C18.3739 20.4531 18.3334 20.4541 18.2916 20.4551C18.2558 20.448 18.2201 20.4409 18.1832 20.4335C18.052 20.2316 18.0464 20.1272 18.0314 19.8886C18.0271 19.8242 18.0228 19.7597 18.0183 19.6933C18.0155 19.644 18.0127 19.5947 18.0098 19.5439C17.9682 19.543 17.9266 19.5422 17.8837 19.5413C16.3472 19.5056 15.4185 19.1961 14.1393 18.3362C13.823 18.1239 13.5024 17.9186 13.1821 17.7128C13.122 17.6739 13.0619 17.6351 13 17.595C12.9426 17.5582 12.8853 17.5214 12.8262 17.4834C12.7751 17.4505 12.7239 17.4175 12.6712 17.3836C12.5078 17.2845 12.3404 17.1985 12.1704 17.1123Z" fill="white"/>
<path d="M8.52325 8.88082C8.78005 9.1441 8.93692 9.42498 9.09349 9.7322C9.11833 9.78001 9.14316 9.82782 9.16875 9.87708C9.25002 10.0338 9.33058 10.1907 9.41108 10.3477C9.46746 10.457 9.52388 10.5664 9.58033 10.6757C9.66788 10.8453 9.75538 11.0149 9.84266 11.1846C10.0184 11.5259 10.1962 11.8665 10.3763 12.2064C10.4894 12.4197 10.6017 12.6333 10.714 12.847C10.7675 12.9485 10.8214 13.0499 10.8756 13.1512C10.9511 13.2927 11.0255 13.4345 11.0997 13.5764C11.122 13.6177 11.1444 13.6589 11.1674 13.7014C11.303 13.9642 11.36 14.18 11.319 14.4632C11.2023 14.5868 11.1359 14.6369 10.943 14.6654C10.8863 14.6651 10.8296 14.6649 10.7712 14.6647C10.6742 14.665 10.6742 14.665 10.5753 14.6652C10.5054 14.6645 10.4355 14.6638 10.3635 14.663C10.2909 14.6629 10.2183 14.6628 10.1434 14.6627C9.98913 14.6623 9.83485 14.6614 9.68057 14.6602C9.44792 14.6583 9.21532 14.6577 8.98266 14.6574C8.55236 14.6561 8.12229 14.6511 7.6921 14.6433C7.63445 14.6424 7.57681 14.6415 7.51741 14.6405C7.36908 14.6376 7.22081 14.6325 7.07257 14.6274C6.99371 14.6247 6.91484 14.6221 6.83359 14.6193C6.58223 14.5739 6.48586 14.5056 6.33203 14.3432C6.33203 14.1289 6.33908 13.9872 6.51717 13.8203C6.82119 13.6982 7.11514 13.7277 7.45007 13.7385C7.52176 13.74 7.59345 13.7416 7.66731 13.7433C7.89601 13.7485 8.12461 13.7551 8.35325 13.7617C8.50839 13.7655 8.66355 13.7692 8.8187 13.7728C9.19881 13.7819 9.57885 13.7921 9.95888 13.8029C9.82326 13.5426 9.68759 13.2824 9.55185 13.0221C9.43538 12.7988 9.31907 12.5754 9.20286 12.352C8.92913 11.8263 8.65391 11.3013 8.37036 10.7789C8.32447 10.6939 8.27859 10.6088 8.23273 10.5238C8.1686 10.4049 8.10418 10.2861 8.03866 10.1677C7.97888 10.0596 7.92032 9.95115 7.86181 9.84264C7.82884 9.78255 7.79586 9.72246 7.76189 9.66054C7.68049 9.45122 7.67294 9.27882 7.6921 9.0609C7.92595 8.80757 8.15428 8.79288 8.52325 8.88082Z" fill="white"/>
</g>
<defs>
<clipPath id="clip0_6014_46700">
<rect width="25" height="25" fill="white" transform="translate(0.5 0.5)"/>
</clipPath>
</defs>
</svg>
