<svg width="36" height="35" viewBox="0 0 36 35" fill="none" xmlns="http://www.w3.org/2000/svg">
<path fill-rule="evenodd" clip-rule="evenodd" d="M14.3748 8.75C14.3748 6.74797 15.9978 5.125 17.9998 5.125C20.0019 5.125 21.6248 6.74797 21.6248 8.75V9.45833H14.3748V8.75ZM12.8748 10.9583V13.125C12.8748 13.5392 13.2106 13.875 13.6248 13.875C14.0391 13.875 14.3748 13.5392 14.3748 13.125V10.9583H21.6248V13.125C21.6248 13.5392 21.9606 13.875 22.3748 13.875C22.7891 13.875 23.1248 13.5392 23.1248 13.125V10.9583H26.0553L27.3983 28.4167H8.60141L9.94436 10.9583H12.8748ZM12.8748 9.45833V8.75C12.8748 5.91954 15.1694 3.625 17.9998 3.625C20.8303 3.625 23.1248 5.91954 23.1248 8.75V9.45833H26.7498C27.1417 9.45833 27.4676 9.76006 27.4976 10.1508L28.956 29.1091C28.972 29.3174 28.9004 29.523 28.7585 29.6763C28.6165 29.8295 28.4171 29.9167 28.2082 29.9167H7.79151C7.5826 29.9167 7.38316 29.8295 7.24121 29.6763C7.09927 29.523 7.02769 29.3174 7.04372 29.1091L8.50205 10.1508C8.53211 9.76006 8.85794 9.45833 9.24984 9.45833H12.8748Z" fill="white"/>
</svg>
