<svg width="36" height="35" viewBox="0 0 36 35" fill="none" xmlns="http://www.w3.org/2000/svg">
<path d="M18.1021 2.91602C20.4228 2.91602 22.6484 3.83789 24.2893 5.47883C25.9303 7.11977 26.8521 9.34537 26.8521 11.666V13.1243H32.6855V16.041H30.9836L29.8796 29.2871C29.8493 29.6515 29.6831 29.9912 29.4141 30.2389C29.1451 30.4866 28.7928 30.6241 28.4271 30.6243H7.77713C7.4112 30.6245 7.05858 30.4871 6.78924 30.2394C6.51991 29.9917 6.35355 29.6517 6.32317 29.2871L5.21922 16.041H3.5188V13.1243H9.35213V11.666C9.35213 9.34537 10.274 7.11977 11.9149 5.47883C13.5559 3.83789 15.7815 2.91602 18.1021 2.91602ZM19.5605 18.9577H16.6438V24.791H19.5605V18.9577ZM13.7271 18.9577H10.8105V24.791H13.7271V18.9577ZM25.3938 18.9577H22.4771V24.791H25.3938V18.9577ZM18.1021 5.83268C16.6055 5.83268 15.1662 6.4079 14.0818 7.43936C12.9974 8.47083 12.3509 9.87962 12.2761 11.3743L12.2688 11.666V13.1243H23.9355V11.666C23.9355 10.1694 23.3602 8.73006 22.3288 7.64567C21.2973 6.56127 19.8885 5.9148 18.3938 5.83997L18.1021 5.83268Z" fill="white"/>
</svg>
