<svg width="338" height="24" viewBox="0 0 338 24" fill="none" xmlns="http://www.w3.org/2000/svg">
<rect width="48" height="24" rx="2" fill="#FBFAF8"/>
<path fill-rule="evenodd" clip-rule="evenodd" d="M32.1663 7.44798C31.5891 7.23205 30.6845 7 29.5543 7C26.6746 7 24.6453 8.44574 24.6283 10.5164C24.6125 12.0486 26.0765 12.9017 27.1824 13.4125C28.3164 13.9339 28.6983 14.2673 28.6923 14.7335C28.6851 15.4479 27.7869 15.7741 26.9491 15.7741C25.7823 15.7741 25.1629 15.6133 24.2056 15.2154L23.8297 15.0457L23.4206 17.4315C24.1021 17.7285 25.36 17.9868 26.6673 18C29.7314 18 31.7206 16.5712 31.7428 14.3594C31.7534 13.1469 30.9774 12.2243 29.2963 11.4645C28.2768 10.9711 27.6532 10.6415 27.66 10.1426C27.66 9.70058 28.1874 9.22588 29.3283 9.22588C30.2827 9.21103 30.9723 9.41847 31.5099 9.63482L31.7717 9.757L32.1663 7.44798ZM18.6824 17.8418L20.5048 7.18583H23.419L21.5958 17.8418H18.6824ZM37.3888 7.19625H39.6411L41.9998 17.8446H39.295C39.295 17.8446 39.0281 16.6211 38.9408 16.2482C38.7154 16.2482 37.7739 16.247 36.8891 16.2459L36.8768 16.2459C36.0971 16.2449 35.3642 16.244 35.208 16.244C35.0948 16.532 34.5946 17.8446 34.5946 17.8446H31.5335L35.8619 8.0799C36.1692 7.38546 36.6907 7.19625 37.3888 7.19625ZM36.0462 14.0644C36.2875 13.4505 37.2079 11.0851 37.2079 11.0851C37.1994 11.099 37.256 10.9523 37.3334 10.752L37.3335 10.7519C37.4146 10.5418 37.5186 10.2728 37.594 10.0682L37.7906 10.9871C37.7906 10.9871 38.3491 13.5303 38.4662 14.0644H36.0462ZM13.3847 14.46L16.2376 7.19358H19.3247L14.7366 17.8288L11.6525 17.833L9.04395 8.51291C10.894 9.43601 12.5495 11.2805 13.0803 12.9833L13.3847 14.46Z" fill="#1A1F71"/>
<path fill-rule="evenodd" clip-rule="evenodd" d="M10.7374 7.1875H6.03703L6 7.40894C9.65663 8.29174 12.0762 10.423 13.0804 12.9845L12.0583 8.08684C11.8821 7.41191 11.37 7.21083 10.7374 7.1875" fill="#F9A51A"/>
<rect x="58" width="48" height="24" rx="2" fill="#FBFAF8"/>
<path fill-rule="evenodd" clip-rule="evenodd" d="M87.8068 21C92.8843 21 97.0004 16.9706 97.0004 12C97.0004 7.02944 92.8843 3 87.8068 3C82.7294 3 78.6133 7.02944 78.6133 12C78.6133 16.9706 82.7294 21 87.8068 21Z" fill="#F79E1B"/>
<path fill-rule="evenodd" clip-rule="evenodd" d="M76.1935 21C81.271 21 85.3871 16.9706 85.3871 12C85.3871 7.02944 81.271 3 76.1935 3C71.1161 3 67 7.02944 67 12C67 16.9706 71.1161 21 76.1935 21Z" fill="#EB001B"/>
<path fill-rule="evenodd" clip-rule="evenodd" d="M82.0002 5.02148C79.9332 6.67182 78.6133 9.18476 78.6133 11.9995C78.6133 14.8142 79.9332 17.3272 82.0002 18.9775C84.0672 17.3272 85.3871 14.8142 85.3871 11.9995C85.3871 9.18476 84.0672 6.67182 82.0002 5.02148Z" fill="#FF5F00"/>
<rect x="116" width="48" height="24" rx="2" fill="#FBFAF8"/>
<path fill-rule="evenodd" clip-rule="evenodd" d="M136.546 20.3903L136.873 18.4089L136.144 18.3927H132.664L135.083 3.77122C135.09 3.72695 135.114 3.68584 135.15 3.65661C135.186 3.62737 135.231 3.61133 135.279 3.61133H141.147C143.095 3.61133 144.439 3.99778 145.141 4.76066C145.47 5.11854 145.68 5.49263 145.781 5.90414C145.888 6.33604 145.889 6.85198 145.786 7.48136L145.778 7.52714V7.93047L146.107 8.10824C146.384 8.24842 146.604 8.40881 146.773 8.59243C147.055 8.89852 147.237 9.28747 147.314 9.74844C147.393 10.2226 147.367 10.787 147.237 11.4259C147.087 12.1607 146.844 12.8008 146.516 13.3244C146.215 13.8069 145.831 14.2073 145.375 14.5174C144.939 14.8121 144.422 15.0358 143.837 15.179C143.27 15.3197 142.624 15.3907 141.915 15.3907H141.458C141.132 15.3907 140.815 15.5028 140.566 15.7038C140.316 15.9089 140.151 16.1893 140.1 16.4959L140.066 16.6743L139.488 20.1668L139.462 20.2949C139.455 20.3355 139.443 20.3557 139.425 20.3694C139.41 20.382 139.387 20.3903 139.365 20.3903H136.546" fill="#28356A"/>
<path fill-rule="evenodd" clip-rule="evenodd" d="M146.418 7.57422C146.401 7.68098 146.381 7.79008 146.358 7.90219C145.584 11.6905 142.937 12.9992 139.556 12.9992H137.834C137.42 12.9992 137.072 13.2855 137.008 13.6744L135.877 20.5154C135.835 20.7709 136.041 21.001 136.311 21.001H139.365C139.726 21.001 140.033 20.7505 140.09 20.4105L140.12 20.2626L140.695 16.7839L140.732 16.5931C140.788 16.2519 141.096 16.0013 141.458 16.0013H141.915C144.873 16.0013 147.189 14.8562 147.866 11.542C148.148 10.1576 148.002 9.00157 147.254 8.18857C147.027 7.94346 146.747 7.73996 146.418 7.57422" fill="#019DDE"/>
<path fill-rule="evenodd" clip-rule="evenodd" d="M145.609 7.26482C145.491 7.2319 145.369 7.20216 145.244 7.17527C145.118 7.14903 144.989 7.12581 144.856 7.10543C144.392 7.03392 143.883 7 143.339 7H138.739C138.626 7 138.518 7.02439 138.422 7.0685C138.21 7.16574 138.053 7.35721 138.014 7.59162L137.036 13.5005L137.008 13.6728C137.072 13.2838 137.421 12.9976 137.834 12.9976H139.556C142.937 12.9976 145.585 11.6882 146.358 7.90055C146.381 7.78844 146.401 7.67934 146.418 7.57258C146.223 7.4735 146.011 7.38879 145.782 7.31661C145.726 7.29874 145.668 7.28153 145.609 7.26482" fill="#00164C"/>
<path fill-rule="evenodd" clip-rule="evenodd" d="M138.014 7.59231C138.052 7.3579 138.21 7.16643 138.422 7.06986C138.519 7.02558 138.626 7.00119 138.739 7.00119H143.339C143.883 7.00119 144.392 7.03527 144.856 7.10678C144.989 7.127 145.118 7.15039 145.244 7.17662C145.369 7.20335 145.491 7.23326 145.609 7.26601C145.668 7.28271 145.726 7.30009 145.783 7.3173C146.011 7.38948 146.223 7.47485 146.419 7.57326C146.649 6.17332 146.417 5.22013 145.623 4.35701C144.748 3.40667 143.168 3 141.147 3H135.279C134.866 3 134.514 3.2862 134.45 3.67583L132.006 18.4477C131.958 18.7399 132.194 19.0036 132.504 19.0036H136.126L138.014 7.59231" fill="#012F86"/>
<rect x="174" width="48" height="24" rx="2" fill="#FBFAF8"/>
<path fill-rule="evenodd" clip-rule="evenodd" d="M189.329 6.4043C189.396 7.00236 189.15 7.60267 188.786 8.03427C188.421 8.46588 187.822 8.80141 187.237 8.75672C187.157 8.17094 187.453 7.56021 187.79 7.17776C188.167 6.74653 188.803 6.42552 189.329 6.4043ZM191.221 9.88812C191.125 9.94538 190.086 10.5666 190.099 11.8281C190.112 13.3372 191.423 13.8626 191.497 13.8921C191.499 13.8928 191.5 13.8932 191.5 13.8934C191.499 13.8954 191.498 13.8996 191.496 13.9058C191.463 14.0086 191.252 14.6667 190.777 15.3453C190.342 15.9669 189.891 16.5865 189.179 16.5992C188.838 16.6054 188.609 16.5088 188.372 16.4084C188.123 16.3033 187.865 16.194 187.456 16.194C187.028 16.194 186.758 16.3066 186.498 16.4151C186.272 16.5092 186.053 16.6001 185.746 16.6119C185.06 16.6368 184.537 15.9397 184.098 15.32C183.202 14.0531 182.517 11.7391 183.437 10.1765C183.894 9.40079 184.71 8.9096 185.596 8.89731C185.979 8.89035 186.349 9.0338 186.673 9.15937C186.92 9.25532 187.141 9.34084 187.319 9.34084C187.479 9.34084 187.694 9.25803 187.944 9.16146C188.338 9.00948 188.821 8.82341 189.318 8.87236C189.658 8.88726 190.613 9.00754 191.227 9.88491C191.225 9.88563 191.224 9.88671 191.221 9.88812Z" fill="#2A2D2E"/>
<path d="M195.418 16H196.489V12.9353H198.655C200.268 12.9353 201.41 11.7986 201.41 10.1681V10.1562C201.41 8.52563 200.268 7.41281 198.655 7.41281H195.418V16ZM198.381 8.36496C199.607 8.36496 200.315 9.03741 200.315 10.1681V10.18C200.315 11.3107 199.607 11.9831 198.381 11.9831H196.489V8.36496H198.381ZM203.929 16.1131C204.791 16.1131 205.464 15.7382 205.869 15.0538H205.964V16H206.999V11.6082C206.999 10.2752 206.124 9.47183 204.559 9.47183C203.191 9.47183 202.215 10.1502 202.048 11.1559L202.042 11.1917H203.078L203.084 11.1738C203.25 10.6739 203.756 10.3883 204.524 10.3883C205.482 10.3883 205.964 10.8167 205.964 11.6082V12.1914L204.125 12.3045C202.631 12.3937 201.786 13.0543 201.786 14.1969V14.2088C201.786 15.3752 202.709 16.1131 203.929 16.1131ZM202.846 14.185V14.1731C202.846 13.5363 203.274 13.1912 204.25 13.1317L205.964 13.0245V13.6077C205.964 14.5242 205.196 15.2145 204.143 15.2145C203.399 15.2145 202.846 14.8336 202.846 14.185ZM208.571 18.2495C209.708 18.2495 210.238 17.8329 210.767 16.3928L213.273 9.5849H212.184L210.428 14.8634H210.333L208.571 9.5849H207.465L209.839 16.006L209.72 16.3868C209.488 17.1247 209.131 17.3925 208.542 17.3925C208.399 17.3925 208.238 17.3866 208.113 17.3628V18.2137C208.256 18.2375 208.435 18.2495 208.571 18.2495Z" fill="#2A2D2E"/>
<rect x="232" width="48" height="24" rx="2" fill="#FBFAF8"/>
<g clip-path="url(#clip0_5695_39744)">
<path d="M250.359 12.103C250.359 11.7628 250.329 11.4232 250.268 11.0879H245.284V13.0095H248.138C248.08 13.3162 247.956 13.6086 247.775 13.8689C247.593 14.1293 247.358 14.3523 247.083 14.5245V15.7751H248.787C249.784 14.9067 250.359 13.622 250.359 12.103Z" fill="#4285F4"/>
<path d="M245.285 16.9807C246.709 16.9807 247.912 16.5381 248.787 15.7756L247.083 14.5274C246.609 14.8325 245.999 15.0048 245.285 15.0048C243.907 15.0048 242.736 14.1276 242.318 12.9453H240.563V14.2313C241.003 15.0578 241.677 15.7526 242.511 16.2381C243.345 16.7237 244.305 16.9808 245.285 16.9807V16.9807Z" fill="#34A853"/>
<path d="M242.318 12.9463C242.097 12.3267 242.097 11.6558 242.318 11.0363V9.75H240.563C240.193 10.4455 240 11.2133 240 11.9919C240 12.7704 240.193 13.5382 240.563 14.2338L242.318 12.9463Z" fill="#FBBC04"/>
<path d="M255.134 12.8624V16.3786H253.952V7.69202H257.085C257.459 7.68443 257.831 7.74697 258.18 7.87603C258.528 8.00509 258.846 8.1981 259.115 8.44389C259.382 8.679 259.595 8.96357 259.741 9.27987C259.887 9.59617 259.962 9.93743 259.962 10.2824C259.962 10.6273 259.887 10.9686 259.741 11.2849C259.595 11.6012 259.382 11.8858 259.115 12.1209C258.566 12.6146 257.89 12.8611 257.085 12.8602H255.134L255.134 12.8624ZM255.134 8.76264V11.7954H257.116C257.43 11.8009 257.739 11.7188 258.004 11.5594C258.27 11.4 258.479 11.1704 258.607 10.8992C258.735 10.6279 258.776 10.3271 258.724 10.0343C258.672 9.74145 258.53 9.46954 258.315 9.25249C258.305 9.24212 258.295 9.23206 258.283 9.22199C258.134 9.07139 257.953 8.95244 257.751 8.87303C257.55 8.79363 257.333 8.75558 257.114 8.76141L255.134 8.76264ZM262.686 10.2423C263.56 10.2423 264.249 10.4625 264.754 10.9029C265.258 11.3434 265.511 11.9476 265.511 12.7157V16.3786H264.381V15.5551H264.33C263.84 16.2346 263.189 16.5742 262.377 16.5738C261.684 16.5738 261.104 16.3797 260.637 15.9915C260.413 15.8133 260.234 15.5902 260.113 15.3384C259.992 15.0866 259.932 14.8125 259.937 14.536C259.937 13.9207 260.183 13.4316 260.676 13.0689C261.168 12.7061 261.825 12.5243 262.646 12.5235C263.347 12.5235 263.927 12.6455 264.379 12.8868V12.6312C264.381 12.4427 264.338 12.2564 264.253 12.0856C264.169 11.9148 264.045 11.7639 263.892 11.6438C263.579 11.3776 263.172 11.2325 262.751 11.2375C262.091 11.2375 261.569 11.5004 261.184 12.026L260.145 11.4056C260.716 10.6296 261.563 10.2419 262.686 10.2423H262.686ZM261.157 14.5598C261.156 14.7016 261.192 14.8415 261.26 14.968C261.328 15.0944 261.427 15.2038 261.548 15.287C261.81 15.481 262.134 15.5839 262.467 15.5783C262.965 15.5769 263.443 15.3897 263.795 15.0573C264.187 14.7092 264.382 14.3007 264.382 13.832C264.014 13.5549 263.5 13.4161 262.841 13.4157C262.361 13.4157 261.961 13.5249 261.64 13.7433C261.317 13.9662 261.155 14.2359 261.155 14.5598H261.157ZM272 10.4372L268.055 18.999H266.835L268.299 16.0028L265.704 10.4372H266.988L268.861 14.7074H268.887L270.711 10.4372H272Z" fill="#5F6368"/>
<path d="M245.285 8.97621C246.038 8.96457 246.766 9.23321 247.311 9.72411L248.82 8.30029C247.864 7.45211 246.597 6.98627 245.285 7.00031C244.305 7.0005 243.345 7.25766 242.511 7.74309C241.678 8.22852 241.003 8.92314 240.563 9.74943L242.318 11.0357C242.736 9.85344 243.907 8.97621 245.285 8.97621Z" fill="#EA4335"/>
</g>
<g clip-path="url(#clip1_5695_39744)">
<path d="M290 0H338V24H290V0Z" fill="#FFB3C7"/>
<path d="M330.031 13.4426C329.903 13.4431 329.777 13.4633 329.659 13.5021C329.542 13.5409 329.435 13.5975 329.345 13.6686C329.255 13.7398 329.184 13.8241 329.136 13.9167C329.088 14.0094 329.063 14.1086 329.064 14.2086C329.064 14.6306 329.496 14.9737 330.033 14.9737C330.29 14.9726 330.537 14.8914 330.718 14.748C330.9 14.6045 331.001 14.4106 331 14.2086C331.001 14.1086 330.976 14.0094 330.927 13.9168C330.879 13.8242 330.808 13.74 330.718 13.6689C330.628 13.5979 330.521 13.5414 330.403 13.5027C330.285 13.4641 330.159 13.443 330.031 13.4426ZM326.847 12.8516C326.847 12.2727 326.222 11.8042 325.45 11.8042C324.678 11.8042 324.052 12.2727 324.052 12.8516C324.052 13.4304 324.678 13.899 325.45 13.899C326.222 13.899 326.847 13.4304 326.847 12.8516ZM326.852 10.8155H328.395V14.8877H326.852V14.6276C326.403 14.8706 325.869 15.0006 325.323 15C324.599 14.9973 323.906 14.7695 323.396 14.3666C322.887 13.9637 322.602 13.4188 322.605 12.8516C322.605 11.6645 323.822 10.7032 325.323 10.7032C325.891 10.7032 326.417 10.8408 326.852 11.0766V10.8155ZM314.512 11.3458V10.8155H312.933V14.8877H314.515V12.9862C314.515 12.3446 315.394 12.0005 316.005 12.0005H316.023V10.8165C315.396 10.8165 314.822 11.028 314.512 11.3458ZM310.578 12.8516C310.578 12.2727 309.953 11.8042 309.181 11.8042C308.41 11.8042 307.783 12.2727 307.783 12.8516C307.783 13.4304 308.41 13.899 309.181 13.899C309.953 13.899 310.578 13.4304 310.578 12.8516ZM310.583 10.8155H312.126V14.8877H310.583V14.6276C310.134 14.8704 309.601 15.0003 309.055 15C308.331 14.9973 307.638 14.7695 307.129 14.3666C306.619 13.9637 306.335 13.4188 306.338 12.8516C306.338 11.6645 307.554 10.7032 309.055 10.7032C309.622 10.7032 310.148 10.8408 310.583 11.0766V10.8155ZM319.866 10.7062C319.249 10.7062 318.667 10.858 318.277 11.2749V10.8155H316.741V14.8877H318.296V12.7473C318.296 12.129 318.821 11.8254 319.454 11.8254C320.13 11.8254 320.52 12.1452 320.52 12.7392V14.8877H322.061V12.298C322.061 11.3508 321.108 10.7062 319.866 10.7062ZM304.091 14.8877H305.706V9H304.091V14.8877ZM297 14.8887H298.71V9H297V14.8887ZM302.978 9C302.982 9.61987 302.83 10.2343 302.53 10.8079C302.23 11.3815 301.788 11.903 301.23 12.3426L303.593 14.8897H301.482L298.913 12.1219L299.576 11.7293C300.116 11.4117 300.554 10.9994 300.854 10.5255C301.155 10.0516 301.31 9.52917 301.307 9H302.978Z" fill="#0A0B09"/>
</g>
<defs>
<clipPath id="clip0_5695_39744">
<rect width="32" height="12" fill="white" transform="translate(240 7)"/>
</clipPath>
<clipPath id="clip1_5695_39744">
<rect x="290" width="48" height="24" rx="2" fill="white"/>
</clipPath>
</defs>
</svg>
