<svg width="36" height="36" viewBox="0 0 36 36" fill="none" xmlns="http://www.w3.org/2000/svg">
<path fill-rule="evenodd" clip-rule="evenodd" d="M12.5112 10.7083C12.5112 7.90089 14.7871 5.625 17.5946 5.625C20.402 5.625 22.6779 7.90089 22.6779 10.7083C22.6779 13.5158 20.402 15.7917 17.5946 15.7917C14.7871 15.7917 12.5112 13.5158 12.5112 10.7083ZM17.5946 4.125C13.9587 4.125 11.0112 7.07246 11.0112 10.7083C11.0112 14.3442 13.9587 17.2917 17.5946 17.2917C21.2304 17.2917 24.1779 14.3442 24.1779 10.7083C24.1779 7.07246 21.2304 4.125 17.5946 4.125ZM8.13623 27.2361C8.13623 24.9476 9.94021 23.125 12.1258 23.125H23.0633C25.2489 23.125 27.0529 24.9476 27.0529 27.2361V28.9167H8.13623V27.2361ZM12.1258 21.625C9.07621 21.625 6.63623 24.1552 6.63623 27.2361V29.6667C6.63623 30.0809 6.97202 30.4167 7.38623 30.4167H27.8029C28.2171 30.4167 28.5529 30.0809 28.5529 29.6667V27.2361C28.5529 24.1552 26.1129 21.625 23.0633 21.625H12.1258Z" fill="#232F3E"/>
</svg>
