<svg width="36" height="36" viewBox="0 0 36 36" fill="none" xmlns="http://www.w3.org/2000/svg">
<path d="M17.5947 4.875L17.9301 4.20418L17.5947 4.03647L17.2593 4.20418L17.5947 4.875ZM30.7197 11.4375H31.4697V10.974L31.0551 10.7667L30.7197 11.4375ZM30.7197 24.5625L31.0551 25.2333L31.4697 25.026V24.5625H30.7197ZM17.5947 31.125L17.2593 31.7958L17.5947 31.9635L17.9301 31.7958L17.5947 31.125ZM4.46973 24.5625H3.71973V25.026L4.13432 25.2333L4.46973 24.5625ZM4.46973 11.4375L4.13432 10.7667L3.71973 10.974V11.4375H4.46973ZM24.1364 19.4583C24.1364 19.8725 24.4722 20.2083 24.8864 20.2083C25.3006 20.2083 25.6364 19.8725 25.6364 19.4583H24.1364ZM24.8864 14.3542H25.6364V13.8906L25.2218 13.6833L24.8864 14.3542ZM12.0968 7.12085C11.7263 6.9356 11.2758 7.08577 11.0906 7.45626C10.9053 7.82674 11.0555 8.27725 11.426 8.46249L12.0968 7.12085ZM16.8447 30.3958C16.8447 30.81 17.1805 31.1458 17.5947 31.1458C18.0089 31.1458 18.3447 30.81 18.3447 30.3958H16.8447ZM17.2593 5.54582L30.3843 12.1083L31.0551 10.7667L17.9301 4.20418L17.2593 5.54582ZM29.9697 11.4375V24.5625H31.4697V11.4375H29.9697ZM30.3843 23.8917L17.2593 30.4542L17.9301 31.7958L31.0551 25.2333L30.3843 23.8917ZM17.9301 30.4542L4.80514 23.8917L4.13432 25.2333L17.2593 31.7958L17.9301 30.4542ZM5.21973 24.5625V11.4375H3.71973V24.5625H5.21973ZM4.80514 12.1083L17.9301 5.54582L17.2593 4.20418L4.13432 10.7667L4.80514 12.1083ZM30.3843 10.7667L17.2593 17.3292L17.9301 18.6708L31.0551 12.1083L30.3843 10.7667ZM17.9301 17.3292L4.80514 10.7667L4.13432 12.1083L17.2593 18.6708L17.9301 17.3292ZM25.6364 19.4583V14.3542H24.1364V19.4583H25.6364ZM25.2218 13.6833L12.0968 7.12085L11.426 8.46249L24.551 15.025L25.2218 13.6833ZM18.3447 30.3958V18H16.8447V30.3958H18.3447Z" fill="black"/>
</svg>
