<svg width="36" height="36" viewBox="0 0 36 36" fill="none" xmlns="http://www.w3.org/2000/svg">
<g clip-path="url(#clip0_5879_44856)">
<path d="M30.7491 4.25781H1.93476C0.920166 4.25781 0.0947266 5.08325 0.0947266 6.09784V24.8898C0.0947266 25.9044 0.920166 26.7298 1.93476 26.7298H21.9795C22.3038 26.7298 22.5668 26.4669 22.5668 26.1425C22.5668 25.8182 22.3039 25.5552 21.9795 25.5552H1.93476C1.56773 25.5552 1.26921 25.2567 1.26921 24.8897V6.09784C1.26921 5.73082 1.56773 5.4323 1.93476 5.4323H30.7491C31.1161 5.4323 31.4147 5.73082 31.4147 6.09784V14.2412C31.4147 14.5654 31.6776 14.8284 32.0019 14.8284C32.3262 14.8284 32.5892 14.5655 32.5892 14.2412V6.09784C32.5891 5.08325 31.7637 4.25781 30.7491 4.25781Z" fill="black"/>
<path d="M10.0778 8.64453H5.06668C4.39744 8.64453 3.85303 9.18895 3.85303 9.85818V13.6166C3.85303 14.2858 4.39744 14.8302 5.06668 14.8302H10.0779C10.7471 14.8302 11.2916 14.2858 11.2916 13.6166V9.85818C11.2915 9.18895 10.7471 8.64453 10.0778 8.64453ZM6.3586 13.6558H5.06668C5.04508 13.6558 5.02751 13.6382 5.02751 13.6166V9.85818C5.02751 9.83658 5.04508 9.81901 5.06668 9.81901H6.3586V13.6558ZM10.117 13.6166C10.117 13.6382 10.0994 13.6558 10.0778 13.6558H7.53309V12.3247H8.19863C8.52293 12.3247 8.78591 12.0617 8.78591 11.7374C8.78591 11.413 8.523 11.1501 8.19863 11.1501H7.53309V9.81901H10.0778C10.0994 9.81901 10.117 9.83658 10.117 9.85818V13.6166Z" fill="black"/>
<path d="M25.4247 8.01562C24.7312 8.01562 24.0858 8.22446 23.5471 8.58185C22.9925 8.21428 22.3393 8.01562 21.6663 8.01562C19.7882 8.01562 18.2603 9.54359 18.2603 11.4217C18.2603 13.2998 19.7882 14.8278 21.6663 14.8278C22.36 14.8278 23.0057 14.6188 23.5446 14.2612C24.0992 14.6284 24.7532 14.8278 25.4247 14.8278C27.3028 14.8278 28.8308 13.2998 28.8308 11.4217C28.8308 9.54359 27.3028 8.01562 25.4247 8.01562ZM22.6651 13.4164C22.3643 13.5676 22.0253 13.6532 21.6663 13.6532C20.4359 13.6532 19.4348 12.6522 19.4348 11.4217C19.4348 10.1912 20.4359 9.19018 21.6663 9.19018C22.0165 9.19018 22.3584 9.27269 22.6664 9.42711C22.2594 9.9882 22.0187 10.6772 22.0187 11.4217C22.0187 12.1458 22.2491 12.8411 22.6651 13.4164ZM25.4247 13.6532C25.0751 13.6532 24.7329 13.5705 24.4248 13.4162C24.8316 12.8551 25.0724 12.1662 25.0724 11.4217C25.0724 11.0974 24.8095 10.8344 24.4851 10.8344C24.1608 10.8344 23.8979 11.0973 23.8979 11.4217C23.8979 11.8639 23.768 12.2763 23.5452 12.6234C23.318 12.2682 23.1931 11.8528 23.1931 11.4217C23.1931 10.1912 24.1942 9.19018 25.4247 9.19018C26.6551 9.19018 27.6562 10.1912 27.6562 11.4217C27.6562 12.6522 26.6553 13.6532 25.4247 13.6532Z" fill="black"/>
<path d="M9.45152 18.0391H4.4403C4.11601 18.0391 3.85303 18.302 3.85303 18.6263C3.85303 18.9506 4.11594 19.2136 4.4403 19.2136H9.45146C9.77575 19.2136 10.0387 18.9507 10.0387 18.6263C10.0388 18.302 9.77582 18.0391 9.45152 18.0391Z" fill="black"/>
<path d="M22.6059 21.7969H4.4403C4.11601 21.7969 3.85303 22.0598 3.85303 22.3842C3.85303 22.7084 4.11594 22.9714 4.4403 22.9714H22.6058C22.9301 22.9714 23.1931 22.7085 23.1931 22.3842C23.1931 22.0598 22.9302 21.7969 22.6059 21.7969Z" fill="black"/>
<path d="M16.9681 18.0391H11.9569C11.6326 18.0391 11.3696 18.302 11.3696 18.6263C11.3696 18.9506 11.6325 19.2136 11.9569 19.2136H16.9681C17.2924 19.2136 17.5553 18.9507 17.5553 18.6263C17.5553 18.302 17.2924 18.0391 16.9681 18.0391Z" fill="black"/>
<path d="M23.2324 18.0391H19.474C19.1497 18.0391 18.8867 18.302 18.8867 18.6263C18.8867 18.9506 19.1496 19.2136 19.474 19.2136H23.2324C23.5567 19.2136 23.8197 18.9507 23.8197 18.6263C23.8196 18.302 23.5567 18.0391 23.2324 18.0391Z" fill="black"/>
<path d="M33.842 22.5221V19.8808C33.842 17.4846 31.8926 15.5352 29.4964 15.5352C27.1002 15.5352 25.1508 17.4846 25.1508 19.8808V22.5221C24.4234 22.7678 23.8979 23.4562 23.8979 24.2655V29.9031C23.8979 30.9177 24.7234 31.7432 25.738 31.7432H33.2548C34.2694 31.7432 35.0948 30.9177 35.0948 29.9031V24.2655C35.0948 23.4562 34.5694 22.7679 33.842 22.5221ZM26.3253 19.8808C26.3253 18.1322 27.7478 16.7096 29.4964 16.7096C31.2449 16.7096 32.6675 18.1322 32.6675 19.8808V22.4255H26.3252L26.3253 19.8808ZM33.9203 29.9031C33.9203 30.2702 33.6218 30.5687 33.2548 30.5687H25.738C25.371 30.5687 25.0724 30.2702 25.0724 29.9031V24.2655C25.0724 23.8985 25.371 23.6 25.738 23.6H33.2548C33.6218 23.6 33.9203 23.8985 33.9203 24.2655V29.9031Z" fill="black"/>
<path d="M29.4961 24.9297C28.6543 24.9297 27.9692 25.6146 27.9692 26.4566C27.9692 27.0905 28.3576 27.6351 28.9088 27.8657V28.649C28.9088 28.9733 29.1717 29.2363 29.4961 29.2363C29.8205 29.2363 30.0834 28.9734 30.0834 28.649V27.8657C30.6346 27.6351 31.023 27.0905 31.023 26.4566C31.0229 25.6146 30.338 24.9297 29.4961 24.9297ZM29.4961 26.8089C29.3018 26.8089 29.1438 26.6508 29.1438 26.4566C29.1438 26.2623 29.3019 26.1042 29.4961 26.1042C29.6903 26.1042 29.8484 26.2624 29.8484 26.4566C29.8484 26.6508 29.6904 26.8089 29.4961 26.8089Z" fill="black"/>
</g>
<defs>
<clipPath id="clip0_5879_44856">
<rect width="35" height="35" fill="white" transform="translate(0.0947266 0.5)"/>
</clipPath>
</defs>
</svg>
