<svg width="35" height="35" viewBox="0 0 35 35" fill="none" xmlns="http://www.w3.org/2000/svg">
<g clip-path="url(#clip0_6003_46753)">
<path d="M16.1785 8.05694C16.2754 8.05596 16.2754 8.05596 16.3742 8.05495C16.4438 8.05466 16.5135 8.05437 16.5852 8.05407C16.657 8.05368 16.7287 8.05329 16.8026 8.05289C16.9544 8.05224 17.1062 8.0518 17.2581 8.05153C17.4902 8.05087 17.7222 8.04875 17.9543 8.04659C18.1018 8.04615 18.2493 8.04579 18.3968 8.04553C18.4661 8.04468 18.5355 8.04384 18.607 8.04297C19.2249 8.04492 19.2249 8.04492 19.4825 8.27303C19.5416 8.45026 19.5629 8.56974 19.5725 8.75235C19.5768 8.83001 19.5768 8.83001 19.5812 8.90923C19.5839 8.96294 19.5865 9.01665 19.5893 9.07199C19.5923 9.12649 19.5952 9.18099 19.5983 9.23714C19.6055 9.37149 19.6124 9.50585 19.6192 9.64022C19.6952 9.66587 19.7711 9.69151 19.8494 9.71793C20.3628 9.89382 20.8577 10.0654 21.3295 10.3385C21.4616 10.4016 21.4616 10.4016 21.5998 10.386C21.7939 10.2989 21.9088 10.1702 22.0545 10.0162C22.3977 9.6559 22.3977 9.6559 22.7025 9.60429C23.0944 9.65716 23.2689 9.8715 23.5389 10.1468C23.5914 10.1987 23.6438 10.2507 23.6978 10.3043C23.8082 10.4143 23.918 10.525 24.0272 10.6362C24.1945 10.806 24.3642 10.9732 24.5343 11.1403C24.6413 11.2476 24.7482 11.3551 24.8549 11.4627C24.9311 11.5375 24.9311 11.5375 25.0089 11.6138C25.3523 11.9683 25.3523 11.9683 25.399 12.2979C25.3572 12.5351 25.3063 12.6274 25.1392 12.7976C25.0959 12.8434 25.0525 12.8892 25.0079 12.9364C24.912 13.0298 24.8127 13.1196 24.712 13.2077C24.6782 13.2486 24.6443 13.2895 24.6095 13.3316C24.6384 13.612 24.7471 13.8367 24.8701 14.0879C25.0701 14.51 25.2247 14.9361 25.3614 15.3824C25.4413 15.385 25.5213 15.3875 25.6036 15.3902C25.7094 15.3946 25.8153 15.3992 25.9211 15.4038C25.9737 15.4053 26.0262 15.4069 26.0804 15.4084C26.3924 15.4232 26.6144 15.4507 26.8653 15.6558C26.9305 15.8515 26.943 15.9767 26.9447 16.18C26.9454 16.2446 26.946 16.3091 26.9467 16.3757C26.9471 16.4801 26.9471 16.4801 26.9476 16.5867C26.948 16.6584 26.9483 16.7302 26.9487 16.8041C26.9494 16.9559 26.9498 17.1077 26.9501 17.2595C26.9508 17.4916 26.9529 17.7237 26.955 17.9558C26.9555 18.1033 26.9558 18.2507 26.9561 18.3982C26.957 18.4676 26.9578 18.537 26.9587 18.6084C26.9567 19.2264 26.9567 19.2264 26.7286 19.484C26.5514 19.543 26.4319 19.5644 26.2493 19.574C26.1716 19.5783 26.1716 19.5783 26.0924 19.5826C26.0387 19.5853 25.985 19.588 25.9297 19.5908C25.8751 19.5937 25.8206 19.5967 25.7645 19.5997C25.6301 19.607 25.4958 19.6139 25.3614 19.6207C25.3358 19.6967 25.3101 19.7726 25.2837 19.8509C25.1078 20.3642 24.9362 20.8592 24.6631 21.331C24.6001 21.4631 24.6001 21.4631 24.6156 21.6012C24.7028 21.7954 24.8314 21.9102 24.9854 22.056C25.3457 22.3992 25.3457 22.3992 25.3973 22.704C25.3445 23.0958 25.1301 23.2704 24.8549 23.5404C24.8029 23.5928 24.7509 23.6453 24.6974 23.6993C24.5873 23.8097 24.4767 23.9194 24.3655 24.0286C24.1956 24.1959 24.0284 24.3656 23.8614 24.5358C23.7541 24.6428 23.6466 24.7496 23.5389 24.8563C23.4891 24.9072 23.4392 24.958 23.3878 25.0104C23.0333 25.3537 23.0333 25.3537 22.7037 25.4005C22.4665 25.3587 22.3742 25.3077 22.2041 25.1407C22.1353 25.0757 22.1353 25.0757 22.0652 25.0093C21.9718 24.9135 21.882 24.8142 21.7939 24.7135C21.753 24.6796 21.7121 24.6458 21.67 24.6109C21.3896 24.6398 21.165 24.7486 20.9138 24.8715C20.4916 25.0715 20.0655 25.2262 19.6192 25.3629C19.6142 25.484 19.6142 25.484 19.6091 25.6075C19.6039 25.7139 19.5988 25.8204 19.5936 25.9268C19.5915 25.98 19.5894 26.0331 19.5872 26.0879C19.5605 26.6077 19.5605 26.6077 19.4141 26.7984C19.2084 26.9236 19.0531 26.9526 18.8139 26.9539C18.7493 26.9546 18.6847 26.9552 18.6182 26.9559C18.5489 26.9558 18.4796 26.9558 18.4083 26.9557C18.3366 26.956 18.265 26.9563 18.1912 26.9566C18.0398 26.957 17.8884 26.957 17.737 26.9567C17.5055 26.9565 17.274 26.9581 17.0425 26.9598C16.8954 26.96 16.7482 26.96 16.601 26.96C16.5318 26.9606 16.4627 26.9612 16.3914 26.9619C15.7755 26.9578 15.7755 26.9578 15.5177 26.7301C15.4586 26.5528 15.4373 26.4334 15.4277 26.2507C15.4248 26.199 15.4219 26.1472 15.419 26.0939C15.4163 26.0402 15.4136 25.9865 15.4109 25.9311C15.4079 25.8766 15.4049 25.8221 15.4019 25.766C15.3947 25.6316 15.3878 25.4972 15.3809 25.3629C15.305 25.3372 15.229 25.3116 15.1508 25.2852C14.6374 25.1093 14.1425 24.9377 13.6706 24.6646C13.5386 24.6015 13.5386 24.6015 13.4004 24.6171C13.2062 24.7042 13.0914 24.8329 12.9456 24.9869C12.6025 25.3472 12.6025 25.3472 12.2977 25.3988C11.9058 25.3459 11.7313 25.1316 11.4612 24.8563C11.4088 24.8044 11.3564 24.7524 11.3024 24.6988C11.192 24.5888 11.0822 24.4781 10.973 24.3669C10.8057 24.1971 10.636 24.0299 10.4659 23.8628C10.3589 23.7555 10.252 23.648 10.1453 23.5404C10.0945 23.4905 10.0436 23.4407 9.99127 23.3893C9.6479 23.0348 9.6479 23.0348 9.60116 22.7052C9.64295 22.468 9.69392 22.3757 9.86093 22.2055C9.92596 22.1368 9.92596 22.1368 9.9923 22.0667C10.0881 21.9733 10.1875 21.8835 10.2882 21.7954C10.322 21.7545 10.3558 21.7136 10.3907 21.6715C10.3618 21.3911 10.253 21.1664 10.1301 20.9152C9.93009 20.4931 9.77545 20.067 9.63876 19.6207C9.55883 19.6181 9.47891 19.6156 9.39656 19.6129C9.29073 19.6085 9.1849 19.6039 9.07907 19.5993C9.00022 19.597 9.00022 19.597 8.91978 19.5947C8.60777 19.5799 8.3858 19.5524 8.13485 19.3473C8.06962 19.1516 8.05715 19.0264 8.05548 18.8231C8.05449 18.7262 8.05449 18.7262 8.05349 18.6274C8.0532 18.5578 8.05291 18.4881 8.05261 18.4164C8.05202 18.3088 8.05202 18.3088 8.05143 18.199C8.05078 18.0472 8.05033 17.8954 8.05007 17.7436C8.04941 17.5115 8.04729 17.2794 8.04513 17.0473C8.04468 16.8998 8.04432 16.7524 8.04406 16.6049C8.0428 16.5008 8.0428 16.5008 8.0415 16.3947C8.04345 15.7767 8.04345 15.7767 8.27157 15.5191C8.4488 15.4601 8.56828 15.4388 8.75089 15.4291C8.80266 15.4263 8.85443 15.4234 8.90777 15.4205C8.96148 15.4178 9.01518 15.4151 9.07052 15.4123C9.12502 15.4094 9.17952 15.4064 9.23568 15.4034C9.37002 15.3961 9.50439 15.3892 9.63876 15.3824C9.6644 15.3065 9.69004 15.2305 9.71646 15.1522C9.89236 14.6389 10.064 14.1439 10.337 13.6721C10.4001 13.54 10.4001 13.54 10.3846 13.4019C10.2974 13.2077 10.1688 13.0929 10.0147 12.9471C9.65444 12.6039 9.65444 12.6039 9.60283 12.2991C9.65569 11.9073 9.87004 11.7327 10.1453 11.4627C10.1973 11.4103 10.2493 11.3578 10.3028 11.3038C10.4128 11.1935 10.5235 11.0837 10.6347 10.9745C10.8046 10.8072 10.9717 10.6375 11.1388 10.4673C11.2461 10.3603 11.3536 10.2535 11.4612 10.1468C11.5111 10.0959 11.561 10.0451 11.6123 9.99273C11.9669 9.64937 11.9669 9.64937 12.2964 9.60262C12.5336 9.64441 12.6259 9.69538 12.7961 9.86239C12.8419 9.90575 12.8878 9.9491 12.935 9.99377C13.0283 10.0896 13.1181 10.1889 13.2063 10.2896C13.3222 10.4102 13.3222 10.4102 13.4757 10.3788C13.7291 10.3078 13.9631 10.2023 14.2017 10.0931C14.5897 9.91912 14.9735 9.76391 15.3809 9.64022C15.3835 9.5603 15.3861 9.48037 15.3887 9.39803C15.3932 9.29219 15.3977 9.18636 15.4023 9.08053C15.4038 9.02797 15.4054 8.9754 15.407 8.92125C15.4217 8.60923 15.4492 8.38726 15.6544 8.13632C15.8501 8.07109 15.9752 8.05861 16.1785 8.05694ZM16.4747 9.09335C16.4631 9.48903 16.4631 9.48903 16.4543 9.88477C16.4375 10.2836 16.4375 10.2836 16.3051 10.4547C16.0481 10.5654 15.7837 10.6332 15.5134 10.7041C14.9287 10.8652 14.4212 11.0944 13.9015 11.4064C13.6532 11.55 13.5057 11.6216 13.2137 11.6296C12.9398 11.5381 12.8118 11.4194 12.6167 11.2082C12.5575 11.1454 12.4984 11.0826 12.4375 11.0178C12.3937 10.9693 12.3499 10.9207 12.3048 10.8707C11.9584 11.1604 11.6348 11.4636 11.3178 11.785C11.2743 11.8288 11.2309 11.8726 11.1861 11.9177C11.0803 12.0243 10.9747 12.131 10.8692 12.2379C10.9333 12.3134 10.9975 12.3889 11.0618 12.4643C11.0975 12.5064 11.1332 12.5484 11.1701 12.5917C11.2392 12.6706 11.3105 12.7476 11.3846 12.8219C11.4802 12.9215 11.4802 12.9215 11.6212 13.1266C11.6071 13.5265 11.468 13.7882 11.2708 14.122C10.9704 14.6543 10.7809 15.1977 10.61 15.7832C10.592 15.8447 10.574 15.9062 10.5555 15.9696C10.5323 16.0519 10.5323 16.0519 10.5088 16.1359C10.4591 16.2711 10.4591 16.2711 10.3224 16.4078C10.1939 16.4296 10.1939 16.4296 10.0398 16.4361C9.9654 16.4398 9.9654 16.4398 9.88946 16.4435C9.82647 16.4458 9.76348 16.4481 9.69857 16.4505C9.49836 16.459 9.29816 16.4674 9.09188 16.4762C9.09188 17.1529 9.09188 17.8297 9.09188 18.5269C9.48756 18.5386 9.48756 18.5386 9.88331 18.5473C10.282 18.5642 10.282 18.5642 10.4529 18.696C10.565 18.956 10.6345 19.2235 10.7069 19.4968C10.8848 20.1327 11.1403 20.9855 11.6212 21.4664C11.6554 21.6416 11.6554 21.6416 11.6212 21.8766C11.5157 22.0249 11.3998 22.1534 11.274 22.2848C11.13 22.4368 11 22.6017 10.8692 22.7652C11.3204 23.2164 11.7716 23.6676 12.2364 24.1324C12.585 23.8344 12.585 23.8344 12.92 23.5214C13.1251 23.3805 13.1251 23.3805 13.3449 23.3882C13.6435 23.4582 13.8589 23.5763 14.1206 23.7308C14.6529 24.0312 15.1962 24.2207 15.7818 24.3916C15.8433 24.4096 15.9048 24.4276 15.9681 24.4462C16.023 24.4616 16.0779 24.477 16.1345 24.4929C16.2696 24.5426 16.2696 24.5426 16.4063 24.6793C16.4281 24.8078 16.4281 24.8078 16.4346 24.9618C16.4371 25.0114 16.4395 25.061 16.442 25.1122C16.4455 25.2067 16.4455 25.2067 16.4491 25.3031C16.4575 25.5033 16.466 25.7035 16.4747 25.9098C17.1515 25.9098 17.8282 25.9098 18.5255 25.9098C18.5371 25.5141 18.5371 25.5141 18.5458 25.1183C18.5627 24.7197 18.5627 24.7197 18.6945 24.5487C18.9545 24.4366 19.222 24.3671 19.4953 24.2948C20.1312 24.1168 20.984 23.8613 21.4649 23.3805C21.6401 23.3463 21.6401 23.3463 21.8751 23.3805C22.0235 23.4859 22.1519 23.6018 22.2834 23.7276C22.4353 23.8717 22.6002 24.0016 22.7638 24.1324C23.2149 23.6812 23.6661 23.2301 24.1309 22.7652C23.8329 22.4166 23.8329 22.4166 23.52 22.0816C23.379 21.8766 23.379 21.8766 23.3867 21.6568C23.4567 21.3581 23.5748 21.1427 23.7293 20.8811C24.0297 20.3488 24.2192 19.8054 24.3901 19.2199C24.4081 19.1584 24.4261 19.0969 24.4447 19.0335C24.4601 18.9786 24.4755 18.9237 24.4914 18.8672C24.5411 18.732 24.5411 18.732 24.6778 18.5953C24.8063 18.5735 24.8063 18.5735 24.9603 18.567C25.01 18.5646 25.0596 18.5621 25.1107 18.5596C25.2052 18.5561 25.2052 18.5561 25.3016 18.5526C25.5018 18.5441 25.702 18.5357 25.9083 18.5269C25.9083 17.8502 25.9083 17.1734 25.9083 16.4762C25.5126 16.4645 25.5126 16.4645 25.1169 16.4558C24.7182 16.4389 24.7182 16.4389 24.5472 16.3071C24.4351 16.0471 24.3656 15.7796 24.2933 15.5063C24.1153 14.8704 23.8599 14.0176 23.379 13.5367C23.3448 13.3615 23.3448 13.3615 23.379 13.1266C23.4845 12.9782 23.6003 12.8497 23.7261 12.7183C23.8702 12.5663 24.0001 12.4014 24.1309 12.2379C23.4542 11.5611 23.4542 11.5611 22.7638 10.8707C22.4151 11.1687 22.4151 11.1687 22.0802 11.4817C21.8751 11.6226 21.8751 11.6226 21.6553 11.6149C21.3566 11.5449 21.1412 11.4268 20.8796 11.2723C20.3473 10.9719 19.8039 10.7824 19.2184 10.6115C19.1569 10.5935 19.0954 10.5755 19.032 10.5569C18.9497 10.5338 18.9497 10.5338 18.8657 10.5102C18.7306 10.4605 18.7306 10.4605 18.5938 10.3238C18.572 10.1953 18.572 10.1953 18.5655 10.0413C18.5619 9.96687 18.5619 9.96687 18.5582 9.89093C18.5558 9.82793 18.5535 9.76494 18.5511 9.70004C18.5427 9.49983 18.5342 9.29962 18.5255 9.09335C17.8487 9.09335 17.172 9.09335 16.4747 9.09335Z" fill="black"/>
<path d="M14.7825 0.632812C15.0462 0.685552 15.1039 0.720157 15.2933 0.892899C15.3412 0.936341 15.389 0.979784 15.4383 1.02454C15.8374 1.3983 16.2276 1.7808 16.6162 2.16542C16.7243 2.27204 16.8329 2.37823 16.9418 2.48399C17.1002 2.63784 17.2573 2.79299 17.4141 2.94849C17.4628 2.99535 17.5116 3.04222 17.5619 3.09051C17.7671 3.29663 17.8964 3.45285 18.005 3.72554C17.9642 4.09177 17.7557 4.26132 17.4998 4.51221C17.4105 4.60567 17.3214 4.69922 17.2323 4.79284C16.9774 5.05374 16.7209 5.31304 16.464 5.57193C16.3537 5.68341 16.2437 5.79525 16.1341 5.90745C15.9748 6.07045 15.8145 6.23231 15.6538 6.39396C15.6051 6.44423 15.5564 6.49449 15.5062 6.54628C15.2993 6.75232 15.1619 6.88759 14.88 6.97623C14.6474 6.97231 14.5357 6.91242 14.3552 6.76807C14.2936 6.58301 14.2788 6.47838 14.2802 6.28875C14.2804 6.23698 14.2807 6.18521 14.2809 6.13187C14.2815 6.07816 14.282 6.02445 14.2826 5.96912C14.2829 5.91461 14.2832 5.86011 14.2836 5.80396C14.2844 5.6696 14.2856 5.53524 14.2869 5.40088C13.3829 5.64999 12.5323 5.94664 11.6892 6.35791C11.645 6.37921 11.6007 6.40052 11.555 6.42246C10.5419 6.91548 9.63622 7.56745 8.81814 8.34033C8.72726 8.41755 8.63612 8.49447 8.5447 8.57104C6.44755 10.417 5.22007 13.2163 4.8584 15.9465C4.81864 16.2247 4.78844 16.418 4.57986 16.6118C4.39188 16.6387 4.23156 16.6486 4.04366 16.6457C3.99133 16.6458 3.939 16.6459 3.88509 16.646C3.77453 16.6459 3.66398 16.6451 3.55343 16.6437C3.38417 16.6417 3.21505 16.6423 3.04578 16.6432C2.93834 16.6428 2.83091 16.6422 2.72347 16.6415C2.67284 16.6417 2.62221 16.6419 2.57004 16.6421C2.22116 16.6357 2.22116 16.6357 2.05308 16.5174C1.70175 15.969 2.08195 14.7531 2.2056 14.1637C2.67631 12.1141 3.53866 10.1699 4.78493 8.47705C4.83012 8.41562 4.83012 8.41562 4.87623 8.35295C7.13411 5.31732 10.4384 3.21263 14.1502 2.46143C14.1953 2.46143 14.2404 2.46143 14.2869 2.46143C14.2855 2.41973 14.284 2.37803 14.2825 2.33507C14.2768 2.14506 14.2733 1.95507 14.2698 1.76501C14.2675 1.69941 14.2652 1.6338 14.2629 1.56621C14.2587 1.2633 14.2565 1.0784 14.4108 0.811989C14.5603 0.684082 14.5603 0.684082 14.7825 0.632812ZM15.3123 2.46143C15.3105 2.50839 15.3088 2.55536 15.3069 2.60375C15.3031 2.66535 15.2992 2.72694 15.2952 2.79041C15.292 2.85147 15.2888 2.91254 15.2856 2.97546C15.2317 3.19466 15.1589 3.23174 14.9705 3.3501C14.8179 3.39716 14.8179 3.39716 14.6503 3.42807C14.5876 3.44034 14.525 3.45261 14.4604 3.46525C14.3933 3.47801 14.3261 3.49076 14.257 3.50391C10.8582 4.20117 7.70098 6.18871 5.67361 9.02393C5.64087 9.06952 5.60813 9.11511 5.57441 9.16208C4.18209 11.1234 3.34236 13.2762 3.00759 15.6548C3.27829 15.6548 3.549 15.6548 3.8279 15.6548C3.85275 15.5358 3.8776 15.4169 3.90321 15.2943C4.37676 13.0683 5.12956 11.0257 6.56228 9.229C6.6066 9.17076 6.65093 9.11251 6.69659 9.0525C8.55887 6.66836 11.4807 4.79509 14.492 4.30713C14.9646 4.25378 14.9646 4.25378 15.1529 4.38911C15.2721 4.55028 15.278 4.66814 15.2909 4.86682C15.2954 4.92842 15.2999 4.99001 15.3045 5.05347C15.3084 5.12393 15.3084 5.12393 15.3123 5.1958C15.8016 4.79752 16.2369 4.34553 16.6795 3.89697C16.58 3.66812 16.454 3.518 16.2776 3.34262C16.2259 3.29107 16.1742 3.23952 16.121 3.18641C16.067 3.13327 16.013 3.08014 15.9574 3.02539C15.9032 2.9712 15.8489 2.917 15.7931 2.86117C15.5813 2.60452 15.5813 2.60452 15.3123 2.46143Z" fill="black"/>
<path d="M20.0546 2.41966C20.234 2.454 20.4113 2.49346 20.5891 2.53525C20.6548 2.55062 20.7204 2.56598 20.7881 2.58181C24.0917 3.3803 27.1785 5.28775 29.2579 7.99973C29.3009 8.05488 29.3009 8.05488 29.3448 8.11115C30.8457 10.0425 32.3813 12.8721 32.3341 15.3825C32.4127 15.3809 32.4127 15.3809 32.4929 15.3793C32.7305 15.375 32.9681 15.3724 33.2057 15.3697C33.2882 15.368 33.3706 15.3663 33.4556 15.3645C33.5746 15.3635 33.5746 15.3635 33.6959 15.3625C33.8055 15.3609 33.8055 15.3609 33.9172 15.3593C34.1383 15.3858 34.2305 15.4287 34.3849 15.5876C34.427 15.8134 34.4421 15.9201 34.3849 16.1345C34.2944 16.2638 34.2944 16.2638 34.1761 16.3923C34.1327 16.4398 34.0892 16.4873 34.0444 16.5362C33.8229 16.7692 33.5986 16.9989 33.371 17.2258C33.2974 17.2995 33.2974 17.2995 33.2223 17.3747C33.1196 17.4775 33.0168 17.5801 32.914 17.6827C32.7561 17.8402 32.5985 17.9981 32.441 18.156C32.3409 18.2561 32.2407 18.3562 32.1405 18.4563C32.0934 18.5036 32.0462 18.5509 31.9977 18.5996C31.9322 18.6647 31.9322 18.6647 31.8655 18.7311C31.8272 18.7693 31.7888 18.8076 31.7494 18.847C31.5986 18.9846 31.5053 19.0069 31.3002 19.0398C31.0203 19.0037 30.9762 18.9781 30.7793 18.7977C30.7077 18.7323 30.7077 18.7323 30.6346 18.6656C30.4009 18.4442 30.1711 18.2196 29.9439 17.9917C29.8702 17.9181 29.8702 17.9181 29.795 17.843C29.6923 17.7403 29.5896 17.6375 29.4871 17.5347C29.3295 17.3768 29.1717 17.2192 29.0137 17.0618C28.9136 16.9616 28.8135 16.8614 28.7134 16.7612C28.6662 16.7141 28.6189 16.6669 28.5702 16.6184C28.5051 16.553 28.5051 16.553 28.4387 16.4862C28.4004 16.4479 28.3621 16.4096 28.3227 16.3701C28.1761 16.2093 28.1635 16.1267 28.1428 15.9038C28.1642 15.656 28.1642 15.656 28.2691 15.5048C28.4979 15.3388 28.6965 15.3521 28.9674 15.3655C29.0151 15.3667 29.0627 15.3679 29.1119 15.3692C29.2289 15.3724 29.346 15.3773 29.463 15.3825C29.2446 14.4482 29.022 13.5314 28.6427 12.6482C28.6139 12.58 28.6139 12.58 28.5846 12.5104C28.0766 11.3211 27.3905 10.2561 26.5235 9.29856C26.4724 9.23925 26.4213 9.17995 26.3687 9.11885C25.4148 8.02255 24.2568 7.16355 22.9689 6.49582C22.9256 6.4733 22.8823 6.45077 22.8377 6.42756C21.7757 5.88313 20.6512 5.51254 19.4863 5.26001C19.1988 5.17325 19.1988 5.17325 19.0724 4.99192C19.0512 4.81346 19.042 4.6516 19.0427 4.47308C19.0424 4.42243 19.042 4.37178 19.0416 4.31959C19.0412 4.21255 19.0413 4.1055 19.0419 3.99845C19.0425 3.83488 19.0405 3.67146 19.0383 3.5079C19.0382 3.40381 19.0383 3.29971 19.0385 3.19561C19.0377 3.14683 19.0369 3.09804 19.0361 3.04778C19.0394 2.81641 19.0573 2.68821 19.1958 2.4996C19.463 2.31195 19.7486 2.37165 20.0546 2.41966ZM20.0978 3.48801C20.0978 3.75871 20.0978 4.02942 20.0978 4.30832C20.2118 4.34146 20.3258 4.37459 20.4433 4.40873C21.3636 4.68084 22.2456 4.975 23.1056 5.40207C23.1783 5.4376 23.1783 5.4376 23.2525 5.47384C26.3415 6.99505 28.7455 9.72778 29.8866 12.9745C30.6683 15.2743 30.6683 15.2743 30.5226 16.1302C30.369 16.3414 30.1895 16.3574 29.9415 16.4079C30.3398 16.8972 30.7918 17.3326 31.2403 17.7751C31.5768 17.5013 31.8861 17.2053 32.1931 16.8993C32.2336 16.8591 32.274 16.819 32.3157 16.7776C32.5145 16.6184 32.5145 16.6184 32.6075 16.4079C32.5149 16.4029 32.5149 16.4029 32.4203 16.3978C32.2994 16.3901 32.2994 16.3901 32.176 16.3823C32.0959 16.3775 32.0158 16.3728 31.9333 16.3679C31.7189 16.3396 31.7189 16.3396 31.5138 16.2029C31.4609 16.0031 31.4609 16.0031 31.4198 15.7414C31.4028 15.6416 31.3855 15.5418 31.368 15.4421C31.3586 15.3883 31.3493 15.3346 31.3396 15.2792C30.9482 13.1255 30.1988 11.0869 28.9161 9.29856C28.8874 9.25845 28.8587 9.21835 28.8291 9.17703C28.4198 8.61218 27.9626 8.09317 27.4806 7.58957C27.4272 7.53287 27.4272 7.53287 27.3728 7.47502C25.4092 5.39531 22.8528 4.14445 20.0978 3.48801Z" fill="black"/>
<path d="M30.0393 20.3312C30.1126 20.3306 30.1126 20.3306 30.1874 20.33C30.2905 20.3295 30.3937 20.3297 30.4968 20.3306C30.6541 20.3315 30.8111 20.3292 30.9684 20.3266C31.0689 20.3265 31.1693 20.3266 31.2697 20.327C31.3165 20.3261 31.3632 20.3252 31.4113 20.3242C31.6694 20.3292 31.7831 20.367 31.9903 20.5255C32.1288 20.7118 32.1288 20.7118 32.1532 20.8575C32.1444 20.9049 32.1357 20.9523 32.1266 21.0012C32.1172 21.0546 32.1078 21.1079 32.0981 21.1629C32.0365 21.4314 31.97 21.6957 31.8895 21.9593C31.8627 22.0473 31.8627 22.0473 31.8354 22.1371C31.3784 23.5864 30.6944 25.015 29.8046 26.2489C29.7578 26.3143 29.711 26.3798 29.6628 26.4473C28.8217 27.5964 27.8615 28.6629 26.7284 29.5301C26.6902 29.5595 26.6519 29.5889 26.6126 29.6192C24.9087 30.9233 22.3156 32.5379 20.0975 32.5379C20.099 32.5796 20.1004 32.6213 20.1019 32.6643C20.1076 32.8543 20.1111 33.0443 20.1146 33.2343C20.1169 33.2999 20.1192 33.3655 20.1216 33.4331C20.1258 33.7361 20.128 33.9209 19.9736 34.1874C19.8241 34.3153 19.8241 34.3153 19.6019 34.3665C19.3382 34.3138 19.2798 34.2787 19.09 34.106C19.0422 34.0625 18.9943 34.0191 18.9451 33.9743C18.7119 33.7552 18.4831 33.5322 18.2566 33.3062C18.2077 33.2574 18.1587 33.2087 18.1082 33.1585C18.0058 33.0563 17.9034 32.9542 17.8011 32.8519C17.6445 32.6954 17.4873 32.5394 17.33 32.3834C17.2301 32.2837 17.1303 32.184 17.0304 32.0842C16.9835 32.0378 16.9366 31.9914 16.8882 31.9435C16.8449 31.8999 16.8015 31.8563 16.7568 31.8114C16.7186 31.7734 16.6805 31.7354 16.6412 31.6962C16.4681 31.4933 16.4029 31.3763 16.4156 31.1042C16.4828 30.8679 16.5608 30.7677 16.733 30.5945C16.7878 30.5387 16.8426 30.4828 16.899 30.4253C16.9587 30.3663 17.0184 30.3073 17.0798 30.2466C17.141 30.1851 17.2021 30.1236 17.2651 30.0603C17.3945 29.9306 17.5242 29.8014 17.6546 29.6727C17.8212 29.508 17.9862 29.3419 18.1508 29.1752C18.3085 29.016 18.4675 28.858 18.6265 28.6999C18.6854 28.6403 18.7444 28.5806 18.8052 28.5191C18.861 28.4643 18.9169 28.4095 18.9745 28.3531C19.0231 28.3047 19.0718 28.2563 19.1219 28.2064C19.3132 28.0687 19.4536 28.0408 19.6874 28.0262C19.9994 28.1718 19.9994 28.1718 20.0975 28.368C20.1032 28.462 20.1049 28.5563 20.1042 28.6505C20.104 28.7056 20.1038 28.7607 20.1035 28.8174C20.1027 28.9037 20.1027 28.9037 20.1018 28.9918C20.1015 29.0499 20.1012 29.1079 20.1009 29.1678C20.1001 29.3113 20.0988 29.4549 20.0975 29.5985C21.0015 29.3494 21.8521 29.0527 22.6952 28.6414C22.7616 28.6095 22.7616 28.6095 22.8294 28.5769C25.6951 27.1824 27.8152 24.6287 28.9159 21.6688C29.0087 21.3972 29.0944 21.1241 29.1754 20.8487C29.3519 20.4082 29.5867 20.328 30.0393 20.3312ZM30.1464 21.3953C30.0874 21.5434 30.0874 21.5434 30.0273 21.6944C29.4555 23.1221 28.841 24.4825 27.8905 25.702C27.8626 25.7378 27.8348 25.7735 27.806 25.8104C27.029 26.7935 26.1251 27.7292 25.0878 28.4364C25.0189 28.4837 25.0189 28.4837 24.9486 28.532C23.4932 29.5208 21.1919 30.8974 19.3456 30.6922C19.186 30.5775 19.1455 30.5116 19.1055 30.3176C19.1015 30.2565 19.0976 30.1954 19.0935 30.1325C19.089 30.0709 19.0845 30.0093 19.0799 29.9459C19.0773 29.8989 19.0748 29.8519 19.0721 29.8036C18.5828 30.2018 18.1475 30.6538 17.7049 31.1024C17.8044 31.3312 17.9304 31.4813 18.1068 31.6567C18.1585 31.7083 18.2102 31.7598 18.2634 31.8129C18.3174 31.8661 18.3714 31.9192 18.427 31.974C18.4812 32.0282 18.5355 32.0823 18.5914 32.1382C18.8031 32.3948 18.8031 32.3948 19.0721 32.5379C19.0739 32.491 19.0757 32.444 19.0775 32.3956C19.0814 32.334 19.0852 32.2724 19.0892 32.2089C19.0924 32.1479 19.0956 32.0868 19.0988 32.0239C19.1527 31.8047 19.2255 31.7676 19.4139 31.6493C19.5665 31.6022 19.5665 31.6022 19.7341 31.5713C19.7968 31.559 19.8594 31.5467 19.924 31.5341C19.9911 31.5213 20.0583 31.5086 20.1274 31.4954C23.6761 30.7674 26.8385 28.6712 28.9159 25.702C28.9439 25.6622 28.972 25.6225 29.0008 25.5816C29.6573 24.6393 30.1885 23.6026 30.5992 22.5318C30.6331 22.4435 30.6331 22.4435 30.6677 22.3534C30.7859 22.0326 30.8644 21.7357 30.8983 21.3953C30.6502 21.3953 30.402 21.3953 30.1464 21.3953Z" fill="black"/>
<path d="M3.96481 17.775C4.09117 17.8642 4.09117 17.8642 4.22078 17.9829C4.26853 18.0265 4.31628 18.0701 4.36548 18.115C4.59913 18.3363 4.82893 18.561 5.05616 18.7889C5.1053 18.838 5.15443 18.887 5.20506 18.9376C5.30779 19.0403 5.41043 19.143 5.513 19.2459C5.67053 19.4038 5.82842 19.5613 5.98636 19.7188C6.08647 19.819 6.18656 19.9192 6.28663 20.0194C6.33391 20.0665 6.38118 20.1136 6.42989 20.1622C6.47328 20.2058 6.51668 20.2494 6.56139 20.2944C6.59966 20.3327 6.63793 20.371 6.67737 20.4105C6.82402 20.5713 6.83663 20.6538 6.85727 20.8768C6.83591 21.1246 6.83591 21.1246 6.73524 21.2736C6.48607 21.4531 6.26462 21.4438 5.96433 21.4493C5.91013 21.4513 5.85594 21.4534 5.8001 21.4554C5.66689 21.4603 5.53363 21.4635 5.40036 21.4664C5.94544 22.8607 6.55794 24.1395 7.5195 25.2945C7.55094 25.3332 7.58238 25.3718 7.61476 25.4116C9.47011 27.6903 12.0399 29.1236 14.8986 29.7432C15.1861 29.83 15.1861 29.83 15.3125 30.0113C15.3337 30.1898 15.3428 30.3516 15.3421 30.5302C15.3425 30.5808 15.3428 30.6315 15.3432 30.6836C15.3436 30.7907 15.3435 30.8977 15.343 31.0048C15.3424 31.1684 15.3443 31.3318 15.3465 31.4953C15.3466 31.5994 15.3466 31.7035 15.3464 31.8076C15.3472 31.8564 15.3479 31.9052 15.3487 31.9555C15.3455 32.1871 15.3277 32.3149 15.1886 32.5035C14.9617 32.6635 14.7561 32.6425 14.4922 32.609C14.2186 32.5602 13.9499 32.4968 13.6804 32.4295C13.6047 32.4108 13.5289 32.3921 13.4509 32.3729C10.6642 31.6703 8.36387 30.2657 6.28903 28.3023C6.24251 28.2587 6.19598 28.2151 6.14804 28.1702C4.33584 26.4209 2.90164 23.8623 2.39255 21.398C2.34842 21.3995 2.3043 21.4009 2.25883 21.4024C2.05846 21.4081 1.85811 21.4116 1.65769 21.4151C1.58825 21.4174 1.51881 21.4197 1.44727 21.4221C0.93383 21.4288 0.93383 21.4288 0.706796 21.2741C0.564284 21.0415 0.565945 20.9148 0.615205 20.6461C0.705648 20.5206 0.705648 20.5206 0.823938 20.3907C0.867411 20.3428 0.910883 20.295 0.955673 20.2457C1.17637 20.0115 1.40122 19.782 1.62911 19.5547C1.67818 19.5056 1.72725 19.4565 1.77781 19.4058C1.8805 19.3031 1.98326 19.2005 2.08612 19.0979C2.24402 18.9404 2.40154 18.7825 2.55904 18.6245C2.6592 18.5244 2.75938 18.4243 2.85958 18.3243C2.90672 18.277 2.95386 18.2297 3.00242 18.181C3.04603 18.1376 3.08964 18.0942 3.13457 18.0495C3.1729 18.0112 3.21123 17.973 3.25072 17.9335C3.47426 17.7296 3.67154 17.7371 3.96481 17.775ZM3.40058 19.2872C3.3422 19.3455 3.28382 19.4038 3.22368 19.4638C3.1623 19.5255 3.10093 19.5871 3.03769 19.6506C2.97605 19.712 2.91441 19.7733 2.8509 19.8366C2.79261 19.895 2.73432 19.9533 2.67426 20.0135C2.5933 20.0946 2.5933 20.0946 2.51069 20.1773C2.38479 20.2837 2.38479 20.2837 2.39255 20.3726C2.43952 20.3785 2.48648 20.3845 2.53488 20.3905C2.59647 20.4001 2.65807 20.4097 2.72153 20.4196C2.81313 20.4327 2.81313 20.4327 2.90658 20.4461C3.07614 20.5094 3.07614 20.5094 3.18963 20.6453C3.31329 20.9232 3.38484 21.2065 3.46066 21.5006C4.46254 25.1719 7.08071 28.2078 10.3479 30.0797C11.5864 30.766 12.9127 31.1972 14.2871 31.5152C14.2871 31.2445 14.2871 30.9738 14.2871 30.6949C14.1772 30.661 14.0673 30.6271 13.9541 30.5921C10.9095 29.6423 8.16053 28.0934 6.28903 25.4312C6.24708 25.3722 6.24708 25.3722 6.20429 25.312C5.25171 23.9645 4.192 22.1974 4.23825 20.5094C4.50896 20.4642 4.77966 20.4191 5.05856 20.3726C4.7847 20.0362 4.48871 19.7269 4.18271 19.4199C4.14255 19.3794 4.1024 19.339 4.06103 19.2973C3.72837 18.9573 3.72837 18.9573 3.40058 19.2872Z" fill="black"/>
<path d="M20.4438 13.4355C20.5342 13.5131 20.624 13.5914 20.713 13.6705C20.7531 13.701 20.7932 13.7315 20.8345 13.7629C21.7795 14.4957 22.2922 15.6758 22.4607 16.8332C22.6061 18.0853 22.3407 19.4252 21.5632 20.4424C21.4857 20.5327 21.4074 20.6225 21.3282 20.7115C21.2977 20.7516 21.2673 20.7917 21.2358 20.833C20.503 21.778 19.3229 22.2907 18.1655 22.4592C16.9134 22.6046 15.5735 22.3393 14.5564 21.5618C14.466 21.4842 14.3762 21.4059 14.2872 21.3268C14.2471 21.2963 14.207 21.2658 14.1657 21.2344C13.2208 20.5016 12.708 19.3214 12.5395 18.1641C12.3941 16.912 12.6595 15.5721 13.437 14.5549C13.5146 14.4645 13.5928 14.3747 13.672 14.2858C13.7025 14.2457 13.733 14.2056 13.7644 14.1643C14.4972 13.2193 15.6773 12.7066 16.8347 12.538C18.0868 12.3927 19.4267 12.658 20.4438 13.4355ZM14.5137 14.8648C13.8002 15.6958 13.4564 16.7527 13.5353 17.8404C13.6773 18.9282 14.139 19.8606 14.9708 20.5748C15.8849 21.2607 16.9276 21.5828 18.0649 21.4344C19.17 21.2327 20.0678 20.7057 20.7392 19.8108C21.3637 18.8486 21.5983 17.8241 21.3923 16.6954C21.1326 15.592 20.5356 14.729 19.5893 14.1149C17.8946 13.1456 15.8505 13.4236 14.5137 14.8648Z" fill="black"/>
</g>
<defs>
<clipPath id="clip0_6003_46753">
<rect width="35" height="35" fill="white"/>
</clipPath>
</defs>
</svg>
