<svg width="35" height="35" viewBox="0 0 35 35" fill="none" xmlns="http://www.w3.org/2000/svg">
<g clip-path="url(#clip0_6003_46763)">
<path d="M17.4574 -0.0154164C17.5097 -0.0154852 17.562 -0.0155541 17.6159 -0.015625C18.372 -0.0149499 19.0894 0.013468 19.8244 0.206752C19.9053 0.226578 19.9862 0.246405 20.0695 0.266833C21.3676 0.609271 22.5753 1.18567 23.6525 1.9841C23.7083 2.02445 23.7641 2.06481 23.8215 2.10639C24.7285 2.79378 25.4928 3.6323 26.1134 4.58175C26.155 4.63991 26.1966 4.69807 26.2395 4.75799C27.1929 6.13608 27.7582 8.02266 27.7672 9.68916C27.7678 9.74681 27.7684 9.80445 27.7689 9.86384C27.7706 10.0533 27.7718 10.2427 27.7728 10.4321C27.7731 10.4972 27.7735 10.5622 27.7739 10.6293C27.7757 10.9736 27.777 11.3179 27.778 11.6622C27.7789 11.946 27.7808 12.2298 27.7836 12.5137C27.787 12.8577 27.7887 13.2018 27.7891 13.5458C27.7896 13.6764 27.7906 13.8069 27.7923 13.9374C27.8077 15.2335 27.8077 15.2335 27.4123 15.7927C27.3742 15.8547 27.3361 15.9168 27.2969 15.9807C26.8857 16.3808 26.4141 16.6225 25.8413 16.6197C25.7618 16.6195 25.6823 16.6192 25.6003 16.619C25.5173 16.6184 25.4342 16.6179 25.3487 16.6173C25.2648 16.617 25.181 16.6167 25.0946 16.6163C24.8873 16.6155 24.6801 16.6144 24.4728 16.613C24.4692 16.6608 24.4655 16.7087 24.4618 16.758C24.3196 18.4823 23.6548 20.1585 22.422 21.3982C22.4424 21.4572 22.4627 21.5162 22.4837 21.577C22.5304 21.721 22.5733 21.8664 22.6101 22.0132C22.7875 22.695 23.046 23.441 23.6801 23.8208C24.4798 24.2105 25.3569 24.4271 26.214 24.652C28.614 25.2914 30.5919 26.9529 31.8427 29.0735C32.7013 30.5722 33.2215 32.2211 33.2484 33.9549C33.251 34.0181 33.2536 34.0812 33.2562 34.1462C33.257 34.2074 33.2578 34.2686 33.2586 34.3317C33.2599 34.3866 33.2613 34.4414 33.2627 34.498C33.2018 34.7452 33.0766 34.8426 32.881 35.0017C32.6929 35.0354 32.5471 35.0478 32.3595 35.0447C32.3073 35.0452 32.255 35.0457 32.2012 35.0462C32.0256 35.0474 31.85 35.0462 31.6744 35.0451C31.5474 35.0455 31.4205 35.046 31.2936 35.0467C30.9443 35.0481 30.595 35.0474 30.2457 35.0464C29.8691 35.0456 29.4926 35.0468 29.1161 35.0477C28.3783 35.0492 27.6405 35.0489 26.9027 35.0479C26.3033 35.0471 25.7038 35.047 25.1043 35.0474C25.0191 35.0475 24.9339 35.0475 24.8461 35.0476C24.6729 35.0477 24.4998 35.0478 24.3267 35.0479C22.7485 35.0489 21.1704 35.0479 19.5923 35.0461C18.1512 35.0445 16.7102 35.0446 15.2691 35.0462C13.6506 35.0481 12.032 35.0488 10.4135 35.0477C10.241 35.0476 10.0685 35.0475 9.89596 35.0474C9.81108 35.0474 9.7262 35.0473 9.63875 35.0473C9.03981 35.047 8.44087 35.0475 7.84193 35.0483C7.11229 35.0492 6.38267 35.049 5.65303 35.0471C5.28056 35.0462 4.90811 35.0459 4.53564 35.047C4.19493 35.048 3.85426 35.0475 3.51356 35.0457C3.39004 35.0453 3.26653 35.0455 3.14302 35.0463C2.97557 35.0473 2.80826 35.0463 2.64081 35.0447C2.59246 35.0455 2.5441 35.0463 2.49428 35.0471C2.23071 35.0421 2.12544 35.0067 1.91843 34.8375C1.77195 34.6529 1.7347 34.5857 1.73691 34.3557C1.73692 34.2984 1.73694 34.241 1.73696 34.182C1.73906 34.1211 1.74115 34.0603 1.74332 33.9976C1.74458 33.9341 1.74584 33.8705 1.74714 33.805C1.82777 31.1973 3.01024 28.8692 4.78531 27.0036C4.85127 26.9311 4.85127 26.9311 4.91856 26.857C6.12924 25.5676 7.77913 24.9419 9.42093 24.406C9.57624 24.3544 9.73152 24.3026 9.88676 24.2508C10.1692 24.1567 10.4518 24.0632 10.7347 23.9704C10.824 23.9405 10.824 23.9405 10.9151 23.9098C11.0744 23.8591 11.0744 23.8591 11.3081 23.8057C11.5652 23.6843 11.6506 23.4858 11.7686 23.2401C11.7927 23.1924 11.8167 23.1447 11.8414 23.0955C11.8917 22.9949 11.9413 22.8938 11.9903 22.7925C12.0655 22.6373 12.1433 22.4836 12.2215 22.3298C12.2701 22.2317 12.3185 22.1335 12.3668 22.0353C12.3901 21.9893 12.4135 21.9433 12.4375 21.8959C12.5604 21.6466 12.5604 21.6466 12.5332 21.3797C12.3538 21.1482 12.1696 20.9214 11.9831 20.6957C11.7534 20.4089 11.6123 20.1433 11.4717 19.8045C11.3719 19.5803 11.3719 19.5803 11.2111 19.4157C10.9278 19.349 10.677 19.3468 10.3881 19.353C10.003 19.345 9.74938 19.2143 9.43375 19.0056C9.37171 18.9675 9.30967 18.9294 9.24576 18.8902C8.9582 18.5947 8.62025 18.1344 8.61025 17.7075C8.61301 17.6314 8.61301 17.6314 8.61584 17.5537C8.65267 16.9261 8.65267 16.9261 8.40301 16.3871C8.22587 16.2897 8.22587 16.2897 8.03772 16.2146C7.64801 16.0375 7.45091 15.6267 7.29065 15.2465C7.21309 15.0065 7.21774 14.7712 7.21971 14.521C7.21935 14.4641 7.21899 14.4072 7.21862 14.3486C7.21772 14.1615 7.21832 13.9744 7.21901 13.7873C7.21887 13.6559 7.21867 13.5245 7.21841 13.3931C7.21811 13.1176 7.21855 12.8422 7.21951 12.5667C7.22067 12.2168 7.22001 11.867 7.21878 11.5171C7.21803 11.2455 7.21828 10.9738 7.2188 10.7021C7.21894 10.5733 7.21878 10.4446 7.21829 10.3158C7.21 7.48102 8.30072 4.92242 10.2541 2.87277C10.429 2.70344 10.6121 2.5478 10.8009 2.39425C10.864 2.34226 10.9271 2.29027 10.9921 2.2367C12.8404 0.745357 15.0885 -0.0132662 17.4574 -0.0154164ZM15.1076 1.71066C15.0577 1.72494 15.0079 1.73923 14.9565 1.75395C13.572 2.16635 12.3936 2.90872 11.3478 3.89816C11.2915 3.95006 11.2352 4.00196 11.1772 4.05544C10.1503 5.03423 9.43634 6.30697 9.02359 7.65792C8.99759 7.74243 8.9716 7.82694 8.94482 7.914C8.78456 8.4712 8.70782 8.99292 8.68179 9.57199C9.11041 9.57199 9.53902 9.57199 9.98062 9.57199C9.99613 9.38165 10.0116 9.19131 10.0276 8.9952C10.197 7.28087 10.9762 5.57593 12.3048 4.44503C13.5574 3.44395 14.9944 2.8011 16.615 2.78812C16.6814 2.78757 16.7479 2.78702 16.8163 2.78645C16.9571 2.7855 17.0978 2.78477 17.2385 2.78423C17.3803 2.78345 17.522 2.78206 17.6638 2.78002C19.6951 2.75095 21.4762 3.30282 22.9689 4.71847C24.3222 6.03787 24.8593 7.72772 25.0197 9.57199C25.4483 9.57199 25.8769 9.57199 26.3185 9.57199C26.2308 7.3206 25.0842 5.23181 23.4773 3.69976C22.3637 2.67583 21.0653 2.05221 19.6193 1.6423C19.5328 1.61754 19.4462 1.59278 19.3571 1.56726C17.9986 1.25049 16.444 1.32532 15.1076 1.71066ZM12.762 5.96603C12.0312 6.80833 11.5644 7.8526 11.4162 8.95675C11.4656 8.90644 11.515 8.85612 11.566 8.80428C12.7603 7.62652 14.3374 6.86264 16.0337 6.85387C16.5734 6.8779 16.8038 7.13364 17.1584 7.5212C17.3089 7.65413 17.4655 7.77824 17.6241 7.90145C17.6853 7.94925 17.6853 7.94925 17.7478 7.99802C18.1475 8.30525 18.5645 8.57298 19.0041 8.82003C19.0433 8.84229 19.0825 8.86456 19.1229 8.88749C20.3962 9.60007 22.102 10.2609 23.5841 10.1872C23.6484 8.42845 23.1786 6.97935 21.9691 5.66696C20.6549 4.41189 18.9606 4.06848 17.2032 4.09309C15.4752 4.13701 13.9739 4.70387 12.762 5.96603ZM12.0657 10.4468C11.9955 10.5422 11.9261 10.6382 11.8573 10.7347C11.758 10.8708 11.758 10.8708 11.656 10.9913C11.3896 11.3166 11.3757 11.5577 11.4119 11.9688C11.4183 12.0638 11.4183 12.0638 11.4249 12.1607C11.442 12.3919 11.463 12.6225 11.4845 12.8532C11.4932 12.9499 11.5019 13.0465 11.5106 13.1432C11.6174 14.3161 11.7498 15.4842 11.9374 16.6472C11.9515 16.7347 11.9656 16.8223 11.9801 16.9125C12.042 17.2815 12.1113 17.6266 12.2365 17.9802C12.5454 18.0021 12.8541 18.0154 13.1636 18.0272C13.2945 18.0366 13.2945 18.0366 13.4281 18.0463C13.6885 18.0537 13.8994 18.0507 14.1505 17.9802C14.3226 17.8029 14.4219 17.6371 14.5282 17.4149C14.7389 17.0249 15.1769 16.8176 15.5861 16.6814C15.771 16.6661 15.9488 16.6574 16.1338 16.656C16.1863 16.6554 16.2388 16.6548 16.2929 16.6541C16.4039 16.6531 16.5148 16.6525 16.6257 16.6523C16.7935 16.6515 16.9611 16.6481 17.1288 16.6446C17.8461 16.6373 18.3515 16.7115 18.9229 17.1812C19.4159 17.7869 19.5406 18.3048 19.4984 19.0757C19.4434 19.5453 19.1578 19.944 18.799 20.236C18.2081 20.6435 17.7254 20.667 17.0252 20.6739C16.9128 20.6754 16.8005 20.6777 16.6881 20.6809C15.9671 20.7014 15.3742 20.6802 14.7658 20.236C14.5521 20.0124 14.3952 19.7923 14.2841 19.5028C14.1688 19.3362 14.1688 19.3362 14.0125 19.3202C13.8366 19.3136 13.6641 19.3177 13.4883 19.326C13.4273 19.3276 13.3663 19.3291 13.3034 19.3307C13.1527 19.3347 13.0023 19.3403 12.8517 19.3474C13.6523 20.6275 14.7995 21.5742 16.2782 21.9578C17.7514 22.2457 19.1646 21.9886 20.4396 21.1931C21.9279 20.1325 22.7384 18.5942 23.0373 16.8181C23.3127 15.1146 23.5841 13.3515 23.5841 11.6228C23.5313 11.6153 23.4785 11.6078 23.4241 11.6001C20.7743 11.2151 17.9642 10.3983 16.0529 8.39065C15.9283 8.25128 15.9283 8.25128 15.7014 8.23898C14.1747 8.32962 12.9504 9.26317 12.0657 10.4468ZM8.61343 10.9392C8.60835 11.4464 8.60464 11.9536 8.60217 12.4608C8.60114 12.6333 8.59974 12.8057 8.59796 12.9782C8.59547 13.2264 8.59431 13.4747 8.59341 13.7229C8.59235 13.7997 8.59129 13.8765 8.5902 13.9556C8.59011 14.3699 8.6088 14.6788 8.81851 15.0407C9.142 15.2686 9.44174 15.2554 9.82788 15.2504C9.89927 15.2499 9.89927 15.2499 9.97211 15.2494C10.0889 15.2485 10.2057 15.2472 10.3224 15.2458C10.3142 15.1631 10.3142 15.1631 10.3058 15.0786C10.1696 13.7 10.0618 12.3222 9.98062 10.9392C9.52945 10.9392 9.07828 10.9392 8.61343 10.9392ZM25.0197 10.9392C25.0065 11.1298 24.9932 11.3204 24.9796 11.5168C24.798 14.1179 24.798 14.1179 24.6779 15.2458C25.4675 15.3056 25.4675 15.3056 26.1818 15.0407C26.43 14.6124 26.4136 14.2087 26.4069 13.7229C26.4065 13.6033 26.4065 13.6033 26.406 13.4813C26.4049 13.2278 26.4023 12.9743 26.3997 12.7208C26.3987 12.5484 26.3977 12.3761 26.3969 12.2037C26.3946 11.7822 26.3911 11.3607 26.3869 10.9392C25.9357 10.9392 25.4845 10.9392 25.0197 10.9392ZM9.98062 16.613C9.95693 17.0492 9.94762 17.3988 10.1857 17.7751C10.3441 17.8737 10.4843 17.9225 10.6642 17.9802C10.7538 17.686 10.6955 17.4376 10.6343 17.1428C10.6242 17.0919 10.6141 17.0409 10.6037 16.9884C10.5788 16.8632 10.5532 16.7381 10.5275 16.613C10.347 16.613 10.1666 16.613 9.98062 16.613ZM15.6544 18.1853C15.4869 18.4366 15.4614 18.6453 15.5177 18.9372C15.7022 19.1781 15.8378 19.2937 16.133 19.3474C16.3564 19.3639 16.5798 19.3632 16.8037 19.3645C16.8637 19.3659 16.9237 19.3673 16.9855 19.3687C17.3697 19.371 17.6412 19.3311 17.9787 19.1423C18.1462 18.891 18.1717 18.6823 18.1154 18.3903C17.9309 18.1495 17.7953 18.0339 17.5002 17.9802C17.2768 17.9637 17.0533 17.9644 16.8294 17.9631C16.7694 17.9617 16.7094 17.9603 16.6477 17.9588C16.2634 17.9565 15.9919 17.9965 15.6544 18.1853ZM21.0159 22.8636C20.9658 22.9136 20.9158 22.9635 20.8642 23.015C20.7851 23.0945 20.7851 23.0945 20.7045 23.1755C20.6534 23.2263 20.6023 23.2772 20.5496 23.3296C20.2635 23.6162 19.9901 23.9093 19.7259 24.2161C19.5837 24.3782 19.432 24.529 19.2775 24.6794C18.9892 24.9642 18.7195 25.2595 18.4572 25.5681C18.7238 25.8872 19.0008 26.1896 19.2962 26.4821C19.3351 26.5209 19.3739 26.5597 19.414 26.5996C19.5364 26.7216 19.659 26.8434 19.7816 26.9652C19.8654 27.0486 19.9492 27.1321 20.0329 27.2155C20.2367 27.4185 20.4406 27.6213 20.6447 27.8239C20.8358 27.6568 20.9266 27.4827 21.0324 27.2533C21.0664 27.18 21.1003 27.1067 21.1353 27.0312C21.1708 26.953 21.2063 26.8748 21.2428 26.7943C21.2973 26.6747 21.2973 26.6747 21.3529 26.5527C21.5636 26.0864 21.7721 25.6192 21.9649 25.1451C21.9851 25.0974 22.0053 25.0497 22.0261 25.0005C22.1796 24.609 22.1693 24.3393 22.0034 23.9541C21.9062 23.7507 21.8042 23.5506 21.7 23.3507C21.6644 23.2811 21.6289 23.2115 21.5922 23.1399C21.5049 22.9691 21.4169 22.7987 21.3283 22.6286C21.1966 22.6286 21.1029 22.7767 21.0159 22.8636ZM13.5353 22.9021C13.4179 23.1189 13.3033 23.3372 13.1892 23.5557C13.1561 23.6169 13.1229 23.6781 13.0887 23.7412C12.8991 24.1083 12.7948 24.336 12.9201 24.7478C13.0143 25.0191 13.1189 25.2851 13.2277 25.551C13.2579 25.6258 13.2881 25.7005 13.3192 25.7775C13.594 26.4493 13.8978 27.1049 14.2189 27.7556C14.4186 27.7763 14.4186 27.7763 14.5275 27.6764C14.5635 27.6398 14.5995 27.6032 14.6365 27.5655C14.6766 27.5251 14.7167 27.4847 14.758 27.4431C14.8 27.3996 14.8421 27.3561 14.8854 27.3112C14.9286 27.2673 14.9718 27.2234 15.0163 27.1781C15.2701 26.9182 15.5156 26.6534 15.7503 26.3761C15.9569 26.1407 16.1825 25.9235 16.4064 25.7048C16.1039 25.3431 15.7856 25.0047 15.4526 24.6711C15.4019 24.6202 15.3512 24.5693 15.299 24.5169C15.1927 24.4102 15.0863 24.3036 14.9798 24.1972C14.8162 24.0334 14.6532 23.8692 14.4902 23.7049C14.3866 23.6011 14.283 23.4974 14.1794 23.3937C14.1305 23.3443 14.0817 23.295 14.0314 23.2442C13.9862 23.1992 13.941 23.1542 13.8944 23.1078C13.8546 23.068 13.8149 23.0281 13.7739 22.9871C13.6766 22.8875 13.6766 22.8875 13.5353 22.9021ZM16.2697 23.3806C16.6104 23.793 16.9819 24.168 17.3634 24.5427C17.6219 24.4379 17.7664 24.2807 17.9488 24.0727C18.001 24.0137 18.0533 23.9546 18.1071 23.8938C18.2297 23.7489 18.3455 23.6023 18.4572 23.4489C18.3795 23.4497 18.3017 23.4505 18.2217 23.4513C17.5669 23.4559 16.9223 23.4393 16.2697 23.3806ZM11.0706 25.3738C10.9897 25.3999 10.9897 25.3999 10.9071 25.4265C10.8492 25.4457 10.7912 25.465 10.7315 25.4848C10.6708 25.5047 10.61 25.5247 10.5474 25.5452C10.4184 25.5877 10.2895 25.6305 10.1606 25.6735C9.96737 25.7377 9.77376 25.8006 9.58008 25.8634C8.15301 26.3332 6.92175 26.954 5.8368 28.0064C5.76124 28.0792 5.68397 28.1501 5.60615 28.2205C4.23712 29.488 3.43482 31.4723 3.21304 33.2927C3.21304 33.4055 3.21304 33.5183 3.21304 33.6345C7.49918 33.6345 11.7853 33.6345 16.2013 33.6345C15.8558 32.998 15.8558 32.998 15.4707 32.3912C15.4274 32.3268 15.4274 32.3268 15.3831 32.2611C15.2325 32.0381 15.0797 31.8168 14.9252 31.5965C13.5594 29.6459 12.4728 27.5169 11.6212 25.2946C11.3935 25.2946 11.2774 25.3064 11.0706 25.3738ZM23.3791 25.2946C23.3592 25.3447 23.3394 25.3947 23.3189 25.4462C22.4361 27.659 21.4188 29.8607 19.96 31.7605C19.6807 32.1275 19.4384 32.5158 19.1963 32.9082C19.1568 32.9721 19.1173 33.0361 19.0766 33.102C18.8928 33.3526 18.8928 33.3526 18.799 33.6345C23.0851 33.6345 27.3712 33.6345 31.7873 33.6345C31.726 32.8963 31.726 32.8963 31.5736 32.1861C31.5587 32.1311 31.5438 32.0761 31.5285 32.0194C30.9106 29.828 29.5208 27.8603 27.5174 26.7339C26.8363 26.3786 26.1346 26.116 25.4066 25.8736C25.2183 25.8109 25.0304 25.7468 24.8425 25.6825C24.7213 25.6415 24.6002 25.6006 24.479 25.5598C24.3958 25.5315 24.3958 25.5315 24.3111 25.5026C23.9995 25.3995 23.7055 25.3303 23.3791 25.2946ZM17.1875 26.8904C17.1161 26.9619 17.0452 27.0339 16.9746 27.1062C16.9188 27.1627 16.9188 27.1627 16.8618 27.2203C16.6288 27.4578 16.4068 27.7019 16.1914 27.9556C15.9661 28.2075 15.7219 28.4412 15.4803 28.6774C15.2014 28.9324 15.2014 28.9324 15.106 29.2752C15.2099 29.5566 15.3735 29.787 15.5434 30.0328C15.5801 30.087 15.6169 30.1413 15.6548 30.1971C15.833 30.4593 16.0133 30.7199 16.1938 30.9805C16.2562 31.0705 16.3185 31.1605 16.3808 31.2505C16.4111 31.2942 16.4414 31.3379 16.4727 31.383C16.8095 31.872 17.1215 32.3764 17.4318 32.8825C17.6719 32.8025 17.6857 32.7637 17.8051 32.5517C17.8369 32.4965 17.8687 32.4414 17.9014 32.3845C17.9354 32.3247 17.9693 32.2649 18.0043 32.2032C18.2869 31.7175 18.5844 31.2536 18.9186 30.8018C19.1817 30.4445 19.4414 30.0873 19.6791 29.7124C19.7444 29.6101 19.7444 29.6101 19.811 29.5057C19.9058 29.34 19.9058 29.34 19.8773 29.1953C19.8135 29.0255 19.7336 28.938 19.6054 28.81C19.5593 28.7635 19.5133 28.717 19.4658 28.6691C19.4157 28.6196 19.3657 28.5702 19.3141 28.5193C19.2629 28.4681 19.2117 28.4169 19.159 28.3641C19.0508 28.2561 18.9424 28.1483 18.8337 28.0408C18.6668 27.8755 18.5009 27.7093 18.335 27.543C18.2299 27.4383 18.1247 27.3336 18.0195 27.229C17.9696 27.179 17.9197 27.129 17.8683 27.0775C17.822 27.0319 17.7756 26.9862 17.7279 26.9392C17.6872 26.8987 17.6464 26.8583 17.6044 26.8166C17.4131 26.658 17.3675 26.7265 17.1875 26.8904Z" fill="black"/>
<path d="M27.6856 28.3705C27.895 28.4816 27.895 28.4816 28.0958 28.6439C28.1321 28.6713 28.1684 28.6987 28.2058 28.727C28.9056 29.2807 29.7828 30.3023 29.9073 31.2202C29.867 31.4872 29.7888 31.5993 29.5997 31.7885C29.3608 31.9079 29.1084 31.8946 28.8477 31.8568C28.5284 31.6364 28.3584 31.2846 28.1583 30.9588C27.9891 30.7058 27.7929 30.4892 27.5833 30.2693C27.4805 30.1478 27.4805 30.1478 27.4805 30.0111C27.4407 29.9937 27.4009 29.9762 27.3598 29.9583C27.0867 29.8083 26.8964 29.5877 26.7286 29.3275C26.669 29.1124 26.6873 29.0098 26.7286 28.7807C26.9815 28.3845 27.2251 28.3092 27.6856 28.3705Z" fill="black"/>
<path d="M25.3614 27.0684C25.575 27.1966 25.575 27.1966 25.7032 27.4102C25.7708 27.7538 25.7563 28.0053 25.575 28.3074C25.2729 28.4887 25.0214 28.5032 24.6778 28.4356C24.4642 28.3074 24.4642 28.3074 24.336 28.0938C24.2684 27.7502 24.2829 27.4987 24.4642 27.1966C24.7663 27.0153 25.0178 27.0008 25.3614 27.0684Z" fill="black"/>
</g>
<defs>
<clipPath id="clip0_6003_46763">
<rect width="35" height="35" fill="white"/>
</clipPath>
</defs>
</svg>
