<svg width="35" height="35" viewBox="0 0 35 35" fill="none" xmlns="http://www.w3.org/2000/svg">
<path d="M24.5004 4.07051C26.1449 5.60355 27.2085 7.69588 27.5472 9.91277C27.5597 9.99445 27.5722 10.0761 27.5851 10.1603C27.7242 11.3216 27.6501 12.5306 27.4104 13.6725C27.3983 13.7313 27.3862 13.79 27.3737 13.8505C26.9247 15.9539 26.139 17.9904 25.2913 19.9616C25.256 20.0437 25.2207 20.1258 25.1843 20.2104C24.4026 22.0134 23.535 23.7784 22.6338 25.5243C22.6105 25.5695 22.5872 25.6147 22.5632 25.6612C22.3646 26.0455 22.1656 26.4272 21.9417 26.7975C22.0129 26.7981 22.0841 26.7986 22.1574 26.7992C22.8283 26.8045 23.4992 26.8105 24.1701 26.8172C24.515 26.8206 24.8599 26.8238 25.2048 26.8264C25.5376 26.8289 25.8705 26.8321 26.2034 26.8357C26.3304 26.8369 26.4573 26.838 26.5843 26.8388C26.7622 26.8399 26.9401 26.8419 27.118 26.8441C27.1967 26.8443 27.1967 26.8443 27.277 26.8445C27.6538 26.8504 27.907 26.8903 28.1838 27.1521C28.3312 27.3978 28.3344 27.5404 28.2991 27.8229C28.1827 28.0849 28.0831 28.1945 27.8206 28.3014C27.6813 28.3183 27.6813 28.3183 27.5308 28.3179C27.4735 28.3181 27.4162 28.3183 27.3571 28.3184C27.2948 28.318 27.2325 28.3175 27.1683 28.317C27.1023 28.317 27.0362 28.317 26.9682 28.317C26.7499 28.3169 26.5317 28.3159 26.3135 28.3148C26.1622 28.3145 26.0108 28.3143 25.8595 28.3142C25.4612 28.3137 25.0629 28.3123 24.6646 28.3108C24.2582 28.3094 23.8518 28.3088 23.4453 28.3081C22.6479 28.3066 21.8505 28.3043 21.053 28.3014C21.0324 28.3541 21.0118 28.4068 20.9905 28.461C20.8458 28.8165 20.6457 29.1457 20.4592 29.4806C20.4195 29.5528 20.3798 29.625 20.3389 29.6993C20.0239 30.2663 19.6926 30.8227 19.3582 31.3783C19.3103 31.4581 19.2623 31.5379 19.2144 31.6177C19.0982 31.8111 18.9819 32.0045 18.8655 32.1979C18.9388 32.1981 19.0122 32.1982 19.0877 32.1984C20.8705 32.2024 22.6534 32.2076 24.4362 32.214C25.2984 32.2171 26.1606 32.2198 27.0227 32.2216C27.7741 32.2232 28.5254 32.2255 29.2768 32.2286C29.6747 32.2302 30.0726 32.2315 30.4706 32.2319C30.845 32.2324 31.2194 32.2337 31.5938 32.2358C31.7313 32.2364 31.8689 32.2367 32.0064 32.2365C32.194 32.2364 32.3816 32.2376 32.5691 32.239C32.651 32.2385 32.651 32.2385 32.7346 32.238C33.0459 32.242 33.2464 32.2795 33.4944 32.4714C33.6718 32.6782 33.7155 32.8252 33.6952 33.0909C33.6514 33.3462 33.5707 33.4769 33.3577 33.6335C33.1139 33.7147 32.8931 33.7114 32.6394 33.7108C32.5864 33.711 32.5334 33.7111 32.4788 33.7112C32.2998 33.7116 32.1207 33.7115 31.9417 33.7114C31.8126 33.7116 31.6835 33.7118 31.5545 33.712C31.1986 33.7126 30.8428 33.7127 30.4869 33.7128C30.1036 33.7129 29.7203 33.7134 29.337 33.7139C28.4983 33.7148 27.6596 33.7152 26.821 33.7155C26.2977 33.7157 25.7743 33.716 25.251 33.7163C23.803 33.7171 22.3551 33.7178 20.9071 33.7181C20.8134 33.7181 20.7198 33.7181 20.6261 33.7181C20.5323 33.7181 20.4384 33.7181 20.3445 33.7182C20.1562 33.7182 19.9678 33.7182 19.7795 33.7183C19.7094 33.7183 19.7094 33.7183 19.638 33.7183C18.1232 33.7185 16.6084 33.7196 15.0937 33.7212C13.4927 33.7229 11.8918 33.7238 10.2909 33.7239C9.41798 33.724 8.54505 33.7244 7.67213 33.7256C6.92898 33.7267 6.18584 33.727 5.44269 33.7264C5.0633 33.7262 4.68392 33.7262 4.30454 33.7272C3.95751 33.7281 3.61049 33.728 3.26346 33.7272C3.13765 33.727 3.01183 33.7272 2.88602 33.7278C2.71549 33.7286 2.54501 33.7281 2.37448 33.7273C2.30057 33.728 2.30057 33.728 2.22517 33.7288C1.92644 33.7257 1.74104 33.6775 1.50224 33.4967C1.32491 33.2899 1.28119 33.1429 1.30143 32.8772C1.34527 32.6219 1.42599 32.4912 1.63896 32.3346C1.89914 32.2479 2.14265 32.2571 2.41369 32.2581C2.50188 32.258 2.50188 32.258 2.59186 32.2579C2.78961 32.2578 2.98736 32.2581 3.18511 32.2585C3.32657 32.2585 3.46803 32.2585 3.60949 32.2585C3.9942 32.2585 4.37891 32.2589 4.76362 32.2594C5.16541 32.2598 5.56721 32.2598 5.969 32.2599C6.73016 32.2601 7.49132 32.2607 8.25248 32.2614C9.11891 32.2621 9.98533 32.2625 10.8518 32.2628C12.6343 32.2636 14.4169 32.2648 16.1995 32.2663C16.1692 32.2133 16.1389 32.1603 16.1076 32.1057C15.9923 31.9041 15.8771 31.7025 15.7618 31.5008C15.7124 31.4145 15.663 31.3282 15.6137 31.2419C14.1874 28.7485 14.1874 28.7485 14.012 28.3014C13.9271 28.3019 13.8422 28.3023 13.7548 28.3028C12.9551 28.307 12.1555 28.31 11.3558 28.3121C10.9447 28.3131 10.5336 28.3146 10.1225 28.3169C9.72579 28.3191 9.3291 28.3204 8.9324 28.3209C8.781 28.3213 8.62959 28.322 8.4782 28.3231C8.26625 28.3246 8.05434 28.3248 7.84239 28.3247C7.74835 28.3258 7.74835 28.3258 7.65241 28.327C7.32304 28.3254 7.10152 28.3115 6.83427 28.0964C6.65846 27.8619 6.66323 27.6288 6.69755 27.3444C6.8115 27.141 6.94384 26.9666 7.17181 26.8894C7.40775 26.8501 7.64502 26.857 7.88349 26.8581C7.96957 26.8581 7.96957 26.8581 8.05737 26.8581C8.24675 26.8581 8.43612 26.8587 8.6255 26.8592C8.75692 26.8593 8.88833 26.8594 9.01975 26.8595C9.36543 26.8598 9.71112 26.8604 10.0568 26.8612C10.4096 26.8619 10.7625 26.8622 11.1153 26.8626C11.8074 26.8633 12.4996 26.8645 13.1917 26.8659C13.0634 26.6197 12.935 26.3735 12.8066 26.1273C12.7709 26.0587 12.7351 25.9901 12.6983 25.9194C12.4856 25.5115 12.2717 25.1043 12.0567 24.6977C7.33756 15.7623 7.33756 15.7623 7.35978 11.4081C7.36017 11.3278 7.36056 11.2475 7.36095 11.1647C7.3886 9.16033 8.01505 7.14938 9.22685 5.53777C9.26941 5.48093 9.31197 5.42409 9.35583 5.36553C11.1093 3.10699 13.4972 1.74413 16.3237 1.34034C19.3569 1.00228 22.2565 2.04082 24.5004 4.07051ZM11.346 5.26433C11.3056 5.30028 11.2653 5.33623 11.2237 5.37328C10.1223 6.39641 9.41171 7.86676 9.02177 9.29753C8.9986 9.38019 8.97542 9.46284 8.95154 9.548C8.63462 10.9121 8.73358 12.3966 9.09013 13.7409C9.1059 13.8038 9.12168 13.8668 9.13793 13.9316C9.60135 15.7749 10.3054 17.5424 11.0726 19.278C11.0908 19.3193 11.109 19.3605 11.1277 19.403C12.0514 21.493 13.0359 23.5615 14.1128 25.577C14.2302 25.7968 14.3469 26.0169 14.4636 26.237C14.9683 27.1875 15.4868 28.1293 16.0205 29.0638C16.1368 29.2685 16.2521 29.4737 16.3672 29.679C16.4064 29.7488 16.4455 29.8186 16.4859 29.8904C16.5597 30.0221 16.6335 30.1538 16.707 30.2857C16.9558 30.728 17.2221 31.157 17.4983 31.5827C17.6657 31.3796 17.8157 31.1807 17.9443 30.9512C17.9754 30.896 18.0066 30.8408 18.0387 30.784C18.0885 30.695 18.0885 30.695 18.1392 30.6043C18.2127 30.4742 18.2862 30.3442 18.3598 30.2142C18.3979 30.1467 18.4361 30.0792 18.4755 30.0097C18.6266 29.7448 18.7812 29.4819 18.9359 29.2191C19.7973 27.755 20.6083 26.2662 21.3841 24.7553C21.5379 24.4558 21.6945 24.1581 21.8536 23.8615C23.1332 21.4689 24.2705 18.973 25.1546 16.4069C25.1915 16.3003 25.1915 16.3003 25.2292 16.1915C26.2022 13.3539 26.7065 10.4275 25.3549 7.63314C24.9075 6.73971 24.3354 5.99249 23.6507 5.26433C23.6147 5.22397 23.5788 5.18361 23.5417 5.14203C22.158 3.65236 19.9725 2.79999 17.9702 2.71367C15.3975 2.64486 13.2153 3.50655 11.346 5.26433Z" fill="black"/>
<path d="M22.1343 6.4847C23.4657 7.7637 24.2392 9.41186 24.2884 11.2666C24.3106 13.2754 23.5642 14.9633 22.1708 16.3891C20.8162 17.6807 19.1099 18.2314 17.2701 18.2154C15.4207 18.1644 13.7976 17.3781 12.5111 16.0641C11.2391 14.7124 10.6761 12.9665 10.7169 11.1313C10.7902 9.30222 11.6153 7.66416 12.9252 6.39794C15.5654 4.0663 19.5683 4.07749 22.1343 6.4847ZM14.015 7.38248C13.9608 7.42328 13.9066 7.46408 13.8508 7.50611C12.8781 8.32669 12.2664 9.64654 12.154 10.9027C12.0669 12.3685 12.4221 13.7567 13.396 14.886C13.4424 14.9364 13.4887 14.9868 13.5365 15.0387C13.5842 15.092 13.632 15.1452 13.6812 15.2C14.6601 16.2382 16.0512 16.7786 17.4629 16.8332C18.2883 16.8217 19.0868 16.6344 19.8255 16.2692C19.8877 16.2406 19.95 16.2119 20.0141 16.1824C20.5607 15.9122 20.9705 15.5337 21.3978 15.1071C21.4436 15.0621 21.4894 15.017 21.5367 14.9706C22.5356 13.9149 22.8731 12.5185 22.8518 11.1057C22.807 9.83415 22.2273 8.67678 21.3722 7.75418C21.3129 7.6992 21.2537 7.64421 21.1927 7.58756C21.1517 7.54702 21.1108 7.50649 21.0686 7.46472C20.0705 6.51629 18.7601 6.05273 17.3916 6.05862C16.1274 6.09589 14.9696 6.55578 14.015 7.38248Z" fill="black"/>
<path d="M19.3413 8.54146C19.4347 8.61006 19.5274 8.67974 19.619 8.75081C19.6895 8.80156 19.76 8.85232 19.8326 8.90462C20.5348 9.57623 20.893 10.4475 20.9317 11.4134C20.912 11.7098 20.8563 11.8259 20.6444 12.0321C20.4567 12.1862 20.3508 12.1688 20.1018 12.1688C19.8546 12.1264 19.6992 12.045 19.5466 11.8355C19.4626 11.6458 19.4432 11.4688 19.4182 11.263C19.3466 10.6872 19.13 10.2554 18.6791 9.88301C18.2003 9.56326 17.7101 9.45208 17.1402 9.52786C16.6592 9.63901 16.2461 9.85794 15.9447 10.2544C15.6336 10.7532 15.503 11.2406 15.5858 11.827C15.7213 12.3291 15.9306 12.7495 16.3765 13.0318C16.736 13.2268 17.0552 13.3499 17.4614 13.4035C17.7219 13.439 17.8366 13.4644 18.0638 13.6086C18.2285 13.885 18.2466 14.1105 18.1835 14.4246C18.0608 14.6208 17.9796 14.7317 17.7733 14.8348C16.9023 14.9226 16.0796 14.6742 15.3807 14.1512C14.64 13.5247 14.1688 12.7323 14.0819 11.7586C14.0238 10.8072 14.2953 9.90723 14.8979 9.16096C16.0329 7.96911 17.9283 7.63312 19.3413 8.54146Z" fill="black"/>
<path d="M13.7391 20.1645C14.106 20.3919 14.2479 20.7126 14.4335 21.0868C14.4669 21.1525 14.5003 21.2182 14.5347 21.2859C14.6446 21.503 14.7533 21.7207 14.862 21.9384C14.9381 22.0898 15.0142 22.2412 15.0904 22.3926C15.2498 22.7099 15.4086 23.0276 15.567 23.3454C15.7698 23.7522 15.9745 24.1581 16.1797 24.5637C16.3374 24.8761 16.494 25.1891 16.6502 25.5023C16.7252 25.6521 16.8006 25.8018 16.8763 25.9512C16.9823 26.1606 17.0866 26.3706 17.1906 26.5809C17.222 26.6422 17.2534 26.7035 17.2858 26.7666C17.4679 27.1401 17.5739 27.4711 17.4989 27.8892C17.3763 28.0854 17.295 28.1962 17.0887 28.2993C16.7736 28.3296 16.5661 28.3116 16.3046 28.1258C16.0871 27.918 15.971 27.6439 15.8397 27.3771C15.8063 27.3114 15.7729 27.2456 15.7385 27.1779C15.6287 26.961 15.5205 26.7432 15.4123 26.5254C15.3363 26.374 15.2603 26.2226 15.1842 26.0712C15.025 25.754 14.8666 25.4363 14.7088 25.1184C14.5067 24.7115 14.3026 24.3057 14.0978 23.9002C13.9403 23.5878 13.784 23.2747 13.6281 22.9616C13.5533 22.8117 13.4781 22.6621 13.4025 22.5126C13.2969 22.3033 13.193 22.0933 13.0893 21.883C13.058 21.8217 13.0267 21.7604 12.9944 21.6973C12.8129 21.3237 12.7073 20.9924 12.7821 20.5747C13.0208 20.1928 13.2914 20.0766 13.7391 20.1645Z" fill="black"/>
<path d="M5.81093 2.94014C6.26639 3.24911 6.60827 3.66154 6.74126 4.20372C6.84112 4.84682 6.74908 5.41421 6.39385 5.96824C6.058 6.39064 5.5903 6.66512 5.05898 6.76826C4.41666 6.82595 3.85939 6.69726 3.34999 6.28974C2.94967 5.9145 2.70636 5.47158 2.64263 4.92309C2.62363 4.27354 2.73537 3.82775 3.15773 3.32893C3.86685 2.58516 4.90919 2.42616 5.81093 2.94014ZM4.10195 4.44404C4.05026 4.63974 4.04648 4.79579 4.10195 4.99092C4.29899 5.21611 4.42607 5.31691 4.72145 5.37117C4.96859 5.32384 5.08503 5.23319 5.26405 5.05928C5.36328 4.86083 5.35787 4.73302 5.33241 4.5124C5.15707 4.21604 5.15707 4.21604 4.85817 4.06459C4.49982 4.04084 4.30604 4.13791 4.10195 4.44404Z" fill="black"/>
<path d="M29.9287 21.0396C30.4696 21.3484 30.7736 21.7565 30.9661 22.355C31.0467 23.0033 31.023 23.572 30.632 24.1022C30.2211 24.5963 29.7661 24.9021 29.1174 24.9665C28.4709 24.9807 27.8963 24.7722 27.4114 24.3374C27.014 23.8305 26.8086 23.277 26.8645 22.6284C26.9771 22.0525 27.2201 21.6506 27.6378 21.2442C28.3484 20.7815 29.139 20.6648 29.9287 21.0396ZM28.4112 22.5045C28.2808 22.6943 28.2808 22.6943 28.2958 22.9361C28.3826 23.222 28.4698 23.3408 28.7102 23.5171C28.9222 23.5474 29.0655 23.5328 29.2699 23.4744C29.4554 23.3336 29.5184 23.1863 29.5989 22.9702C29.5989 22.7169 29.5372 22.6363 29.3725 22.4404C29.0101 22.137 28.7574 22.1857 28.4112 22.5045Z" fill="black"/>
<path d="M4.03125 23.5156C4.48242 23.5156 4.93359 23.5156 5.39844 23.5156C5.39844 23.9894 5.39844 24.4631 5.39844 24.9512C4.94727 24.9512 4.49609 24.9512 4.03125 24.9512C4.03125 24.4774 4.03125 24.0037 4.03125 23.5156Z" fill="black"/>
<path d="M4.03125 18.1172C4.48242 18.1172 4.93359 18.1172 5.39844 18.1172C5.39844 18.5909 5.39844 19.0646 5.39844 19.5527C4.94727 19.5527 4.49609 19.5527 4.03125 19.5527C4.03125 19.079 4.03125 18.6053 4.03125 18.1172Z" fill="black"/>
<path d="M4.03125 15.4492C4.48242 15.4492 4.93359 15.4492 5.39844 15.4492C5.39844 15.9229 5.39844 16.3967 5.39844 16.8848C4.94727 16.8848 4.49609 16.8848 4.03125 16.8848C4.03125 16.411 4.03125 15.9373 4.03125 15.4492Z" fill="black"/>
<path d="M30.2812 9.36719C30.7324 9.36719 31.1836 9.36719 31.6484 9.36719C31.6484 9.84092 31.6484 10.3146 31.6484 10.8027C31.1973 10.8027 30.7461 10.8027 30.2812 10.8027C30.2812 10.329 30.2812 9.85527 30.2812 9.36719Z" fill="black"/>
<path d="M30.2812 6.69922C30.7324 6.69922 31.1836 6.69922 31.6484 6.69922C31.6484 7.17295 31.6484 7.64668 31.6484 8.13477C31.1973 8.13477 30.7461 8.13477 30.2812 8.13477C30.2812 7.66104 30.2812 7.1873 30.2812 6.69922Z" fill="black"/>
<path d="M4.03125 20.8516C4.48242 20.8516 4.93359 20.8516 5.39844 20.8516C5.39844 21.3027 5.39844 21.7539 5.39844 22.2188C4.94727 22.2188 4.49609 22.2188 4.03125 22.2188C4.03125 21.7676 4.03125 21.3164 4.03125 20.8516Z" fill="black"/>
<path d="M30.2812 12.1016C30.7324 12.1016 31.1836 12.1016 31.6484 12.1016C31.6484 12.5527 31.6484 13.0039 31.6484 13.4688C31.1973 13.4688 30.7461 13.4688 30.2812 13.4688C30.2812 13.0176 30.2812 12.5664 30.2812 12.1016Z" fill="black"/>
<path d="M30.2812 4.03125C30.7324 4.03125 31.1836 4.03125 31.6484 4.03125C31.6484 4.48242 31.6484 4.93359 31.6484 5.39844C31.1973 5.39844 30.7461 5.39844 30.2812 5.39844C30.2812 4.94727 30.2812 4.49609 30.2812 4.03125Z" fill="black"/>
</svg>
