<svg width="35" height="35" viewBox="0 0 35 35" fill="none" xmlns="http://www.w3.org/2000/svg">
<g clip-path="url(#clip0_6018_47289)">
<path d="M7.58686 0.821329C7.98627 1.08442 8.32117 1.40601 8.65097 1.75059C8.77956 1.87774 8.90809 1.99337 9.0456 2.11008C9.46592 2.47675 9.85781 2.87315 10.2531 3.26624C10.295 3.30786 10.3369 3.34947 10.3801 3.39234C10.6016 3.61241 10.8228 3.83269 11.0439 4.05315C11.2706 4.27903 11.498 4.5041 11.7256 4.729C11.9022 4.90378 12.0782 5.07918 12.254 5.25475C12.3375 5.33793 12.4212 5.42088 12.5052 5.50359C13.2628 6.2504 13.8889 6.96711 13.9576 8.0781C13.9371 9.01731 13.4392 9.75799 12.7822 10.3916C12.6225 10.54 12.4621 10.6874 12.3001 10.8331C12.0118 11.0952 11.7355 11.3679 11.4612 11.6443C11.4228 11.6829 11.3845 11.7215 11.345 11.7612C11.1492 11.9586 10.9539 12.1565 10.7592 12.3549C10.6863 12.4286 10.6134 12.5023 10.5405 12.5759C10.5066 12.6107 10.4727 12.6455 10.4379 12.6813C10.356 12.7638 10.2705 12.8428 10.1845 12.9209C10.1394 12.9209 10.0943 12.9209 10.0478 12.9209C9.96026 13.2266 9.96026 13.2266 10.0405 13.5216C10.0692 13.563 10.0978 13.6044 10.1274 13.647C10.3365 13.9639 10.5044 14.2959 10.6758 14.6342C10.9968 15.2562 11.3484 15.8392 11.7568 16.4073C11.8057 16.4755 11.8546 16.5437 11.905 16.6139C12.3042 17.1564 12.7318 17.6762 13.1591 18.1967C13.2456 18.3028 13.3308 18.41 13.4158 18.5173C14.2782 19.6022 15.279 20.6378 16.3369 21.5342C16.4062 21.5949 16.4754 21.6557 16.5446 21.7166C18.9135 23.7976 18.9135 23.7976 21.7287 25.0633C22.27 24.955 22.7257 24.3111 23.0994 23.9289C23.2156 23.8111 23.3319 23.6934 23.4482 23.5757C23.629 23.3924 23.8095 23.2089 23.9895 23.0249C24.165 22.8456 24.3413 22.6673 24.5178 22.4891C24.5969 22.4076 24.5969 22.4076 24.6776 22.3244C25.3503 21.6486 26.0676 21.1951 27.0351 21.1668C28.3517 21.2054 29.1166 22.1142 29.9906 22.9903C30.1005 23.0999 30.2104 23.2095 30.3203 23.319C30.5498 23.5479 30.7789 23.7771 31.0077 24.0066C31.2999 24.2996 31.5931 24.5914 31.8867 24.883C32.1136 25.1087 32.34 25.335 32.5661 25.5616C32.6739 25.6694 32.782 25.777 32.8902 25.8844C33.9609 26.9479 33.9609 26.9479 34.247 27.5498C34.2702 27.5932 34.2934 27.6366 34.3173 27.6813C34.5758 28.1818 34.5272 28.9281 34.4048 29.4668C34.2607 29.8559 34.0361 30.1754 33.7685 30.4893C33.721 30.5451 33.6735 30.6009 33.6246 30.6583C33.3979 30.917 33.1707 31.1606 32.9095 31.3844C32.5636 31.6832 32.242 32.0055 31.9197 32.3292C31.8162 32.4331 31.7123 32.5366 31.6084 32.6401C31.3202 32.9281 31.0354 33.2164 30.7706 33.5265C30.0147 34.4078 28.8873 34.8921 27.7457 35.0167C27.4105 35.0394 27.076 35.0367 26.7403 35.0309C26.6896 35.0304 26.6388 35.0299 26.5866 35.0294C25.7982 35.0215 25.0358 34.9769 24.2665 34.7959C24.1768 34.7756 24.1768 34.7756 24.0852 34.7548C22.656 34.4248 21.3081 33.9186 19.9816 33.2975C19.8323 33.2279 19.6825 33.1598 19.5324 33.092C16.7761 31.8376 14.2016 30.118 11.8935 28.1651C11.8396 28.1197 11.8396 28.1197 11.7846 28.0735C11.664 27.9719 11.5437 27.8699 11.4235 27.7677C11.3882 27.7378 11.3529 27.708 11.3165 27.6772C10.5866 27.0521 9.89645 26.3845 9.21847 25.704C9.09819 25.5834 8.97754 25.4631 8.85685 25.3429C8.46444 24.9507 8.08192 24.5558 7.72358 24.1319C7.65217 24.0504 7.5806 23.969 7.50889 23.8878C7.049 23.3632 6.60752 22.8287 6.18175 22.2761C6.07985 22.1455 5.9759 22.0167 5.87147 21.888C3.42609 18.851 1.38627 15.1968 0.38349 11.4213C0.367998 11.3632 0.352505 11.3051 0.336543 11.2453C0.0919796 10.2742 -0.0370437 9.31482 -0.0315225 8.31372C-0.0309349 8.1519 -0.0329286 7.99024 -0.0350773 7.82843C-0.0391657 6.95694 0.115211 6.17734 0.515937 5.39286C0.539244 5.34718 0.562552 5.30149 0.586566 5.25442C0.974903 4.53097 1.59643 4.00184 2.19318 3.45301C2.50004 3.16918 2.79763 2.87772 3.09116 2.58025C3.12848 2.54251 3.1658 2.50477 3.20426 2.46588C3.39077 2.2771 3.57665 2.08775 3.76171 1.89754C4.76291 0.87683 6.16924 -0.0192919 7.58686 0.821329ZM5.96337 3.06549C5.89363 3.13235 5.89363 3.13235 5.82247 3.20056C5.77308 3.25008 5.72369 3.2996 5.6728 3.35063C5.59407 3.42609 5.59407 3.42609 5.51376 3.50308C5.13618 3.86578 4.76577 4.23595 4.39445 4.60504C4.25842 4.74016 4.12191 4.87475 3.98496 5.00893C3.78582 5.20402 3.58813 5.40052 3.3905 5.59714C3.29928 5.68604 3.29928 5.68604 3.20621 5.77674C2.45343 6.53209 2.30183 7.18152 2.30183 8.21245C2.34628 11.6427 4.25732 15.2748 6.15131 18.0479C6.18924 18.1034 6.22716 18.159 6.26623 18.2162C7.13055 19.476 8.06812 20.6632 9.05849 21.826C9.1634 21.9494 9.26794 22.0731 9.37248 22.1967C9.68777 22.5685 10.0009 22.9357 10.3522 23.2744C10.464 23.386 10.5652 23.5029 10.6673 23.6235C11.1671 24.2024 11.7216 24.7522 12.3053 25.2465C12.4751 25.3922 12.6389 25.544 12.8035 25.6956C13.173 26.0317 13.5532 26.3506 13.9443 26.6612C13.9875 26.6957 14.0308 26.7302 14.0753 26.7658C15.7116 28.0691 17.4448 29.2066 19.2763 30.2159C19.3383 30.2501 19.4004 30.2843 19.4643 30.3195C21.8641 31.6319 25.1621 33.1927 27.9921 32.6042C28.5802 32.4301 29.0203 32.0687 29.4038 31.5999C29.7854 31.1365 30.1954 30.7085 30.6266 30.2917C30.6688 30.2508 30.7109 30.2098 30.7543 30.1677C30.9291 29.9977 31.104 29.8278 31.2807 29.6598C31.4113 29.5354 31.5403 29.4096 31.6691 29.2834C31.7094 29.2458 31.7497 29.2082 31.7912 29.1694C31.9171 29.0498 31.9171 29.0498 32.0595 28.8487C32.0519 28.3524 31.7562 28.0603 31.4229 27.7293C31.3493 27.6587 31.3493 27.6587 31.2742 27.5867C31.1358 27.4468 31.0075 27.3054 30.8792 27.1565C30.6147 26.8514 30.3334 26.5656 30.0472 26.2809C29.9742 26.2075 29.9742 26.2075 29.8997 26.1326C29.6746 25.9079 29.4481 25.6896 29.2055 25.4838C28.958 25.2708 28.7313 25.0419 28.5046 24.8075C28.45 24.7514 28.45 24.7514 28.3944 24.6942C28.2431 24.5386 28.0918 24.3829 27.9422 24.2257C27.8315 24.1096 27.7196 23.9949 27.6073 23.8803C27.5741 23.8448 27.541 23.8093 27.5067 23.7727C27.2621 23.5261 27.0736 23.4531 26.7275 23.4483C26.479 23.6088 26.312 23.7945 26.1229 24.0189C25.7055 24.4982 25.2432 24.9363 24.7915 25.3829C24.1818 25.9821 24.1818 25.9821 23.6135 26.6202C23.1706 27.1095 22.6044 27.3691 21.9533 27.4318C20.972 27.464 20.1376 27.0107 19.2763 26.5928C19.2107 26.5629 19.145 26.5331 19.0774 26.5023C17.6105 25.8153 16.2737 24.7587 15.038 23.7217C14.969 23.6644 14.8999 23.6071 14.8288 23.5481C14.236 23.0519 13.6819 22.5236 13.1372 21.9754C12.9995 21.837 12.861 21.6993 12.7225 21.5616C12.2812 21.1207 11.8573 20.6788 11.4722 20.1873C11.3433 20.0262 11.2066 19.8767 11.0646 19.727C9.54213 18.0503 7.53062 15.4732 7.57244 13.1116C7.62677 12.1356 8.18819 11.4569 8.86788 10.8032C8.97975 10.6955 9.09063 10.5869 9.20131 10.478C9.51567 10.169 9.8318 9.86191 10.1483 9.55512C10.3429 9.36638 10.5364 9.17665 10.7294 8.9863C10.8386 8.87927 10.9489 8.77349 11.0593 8.66767C11.1257 8.60225 11.1921 8.53677 11.2585 8.47122C11.3169 8.41454 11.3753 8.35785 11.4355 8.29945C11.5649 8.14711 11.5649 8.14711 11.5638 7.97412C11.4418 7.70088 11.2475 7.51958 11.0366 7.31073C10.9899 7.26345 10.9432 7.21617 10.8951 7.16746C10.7405 7.01137 10.585 6.85631 10.4294 6.7013C10.3216 6.59317 10.2139 6.48501 10.1062 6.37681C9.88026 6.15018 9.65384 5.92408 9.42707 5.69831C9.13646 5.40887 8.84726 5.11806 8.55843 4.82683C8.33625 4.60315 8.11327 4.38027 7.89005 4.15762C7.78309 4.05071 7.67639 3.94354 7.56996 3.8361C7.42106 3.68601 7.27111 3.53706 7.12084 3.38834C7.07704 3.34374 7.03324 3.29914 6.98811 3.25319C6.79678 3.06586 6.66693 2.95301 6.41008 2.86621C6.1834 2.87323 6.12303 2.90833 5.96337 3.06549Z" fill="#010102"/>
<path d="M19.4608 0.0524155C19.6619 0.131745 19.8573 0.218641 20.0532 0.310065C20.1264 0.343336 20.1996 0.376606 20.275 0.410885C23.0862 1.71174 25.6102 3.44295 27.8889 5.53528C27.9275 5.57044 27.9661 5.6056 28.0059 5.64183C28.5902 6.17467 29.1414 6.72095 29.6662 7.31263C29.7194 7.37088 29.7727 7.42912 29.8275 7.48913C31.1827 8.97282 32.356 10.6307 33.3576 12.3712C33.3842 12.4173 33.4108 12.4634 33.4381 12.5109C33.7929 13.13 34.1264 13.7589 34.4471 14.3964C34.4786 14.4587 34.5101 14.5211 34.5425 14.5853C35.1764 15.859 35.1764 15.859 34.951 16.5492C34.8 16.8435 34.6077 17.0126 34.3147 17.1564C33.9282 17.2668 33.6419 17.2377 33.2839 17.0602C32.8766 16.7225 32.6797 16.2201 32.4647 15.7507C30.9241 12.4698 28.6871 9.32703 25.9065 6.97083C25.8371 6.91012 25.7679 6.84932 25.6987 6.78845C23.6562 4.99997 21.2548 3.44691 18.7287 2.44202C18.3412 2.2819 18.1395 2.12552 17.9084 1.77552C17.78 1.39019 17.789 0.971724 17.917 0.587775C18.3134 0.0326843 18.8028 -0.14026 19.4608 0.0524155Z" fill="#010102"/>
<path d="M19.1604 6.41846C19.2068 6.43977 19.2533 6.46108 19.3011 6.48303C19.453 6.55382 19.6037 6.62673 19.7542 6.70044C19.8061 6.7257 19.8579 6.75096 19.9113 6.77698C21.0831 7.3549 22.1559 8.0689 23.1722 8.88794C23.238 8.93967 23.3037 8.99139 23.3714 9.04469C24.4196 9.89648 25.4449 10.8909 26.2352 11.9886C26.3212 12.107 26.41 12.2229 26.4994 12.3388C28.943 15.5371 28.943 15.5371 28.7777 16.9543C28.655 17.3564 28.4927 17.5357 28.1625 17.7747C27.892 17.9099 27.5685 17.8718 27.2738 17.843C26.6805 17.5794 26.4619 16.9074 26.19 16.3575C25.4992 14.9659 24.6287 13.7404 23.5816 12.5938C23.4733 12.4733 23.3709 12.3517 23.2705 12.2247C23.0957 12.0231 22.9104 11.8558 22.7073 11.6835C22.6072 11.5973 22.5091 11.5087 22.4131 11.418C21.2706 10.3424 19.901 9.55402 18.4973 8.87112C18.4574 8.85156 18.4174 8.832 18.3762 8.81185C18.2865 8.76867 18.1964 8.72653 18.106 8.68512C17.8348 8.5576 17.6413 8.45418 17.4685 8.20008C17.4361 8.15416 17.4038 8.10825 17.3705 8.06095C17.2039 7.78023 17.1847 7.49683 17.225 7.17896C17.3547 6.7755 17.5655 6.53112 17.9085 6.29029C18.3644 6.13833 18.737 6.21752 19.1604 6.41846Z" fill="#010102"/>
</g>
<defs>
<clipPath id="clip0_6018_47289">
<rect width="35" height="35" fill="white"/>
</clipPath>
</defs>
</svg>
