<svg width="35" height="35" viewBox="0 0 35 35" fill="none" xmlns="http://www.w3.org/2000/svg">
<g clip-path="url(#clip0_6018_47296)">
<path d="M12.3196 -0.0214918C12.4009 -0.0221806 12.4009 -0.0221806 12.4839 -0.0228833C12.6619 -0.0241747 12.8398 -0.0244487 13.0178 -0.024596C13.1426 -0.0250359 13.2673 -0.0254959 13.392 -0.025975C13.6531 -0.026792 13.9142 -0.0270471 14.1753 -0.0269659C14.5082 -0.026952 14.8411 -0.0288169 15.1739 -0.031173C15.4315 -0.032701 15.6891 -0.0329702 15.9467 -0.0328982C16.0693 -0.0330584 16.192 -0.033657 16.3146 -0.0347209C17.2531 -0.0421002 17.9964 0.0381999 18.7291 0.681962C18.7705 0.716241 18.8119 0.750519 18.8546 0.785836C19.2741 1.16233 19.5732 1.70052 19.6861 2.25423C19.6915 2.36271 19.6935 2.47139 19.6928 2.58C19.6925 2.64081 19.6923 2.70161 19.6921 2.76425C19.6915 2.82717 19.691 2.89009 19.6904 2.95491C19.6901 3.01889 19.6897 3.08286 19.6894 3.14877C19.6886 3.30633 19.6875 3.46387 19.6861 3.62142C19.7646 3.62081 19.8431 3.6202 19.9241 3.61958C20.6672 3.61401 21.4103 3.60992 22.1535 3.60725C22.5355 3.60583 22.9175 3.6039 23.2994 3.60079C23.6687 3.5978 24.0379 3.59618 24.4071 3.59547C24.5474 3.59497 24.6876 3.59399 24.8279 3.5925C26.0405 3.58018 26.948 3.75291 27.9704 4.45455C28.9325 5.41662 29.2191 6.47491 29.2202 7.80229C29.2201 7.88437 29.2201 7.88437 29.2201 7.96811C29.2206 8.08244 29.2211 8.19676 29.2217 8.31109C29.2226 8.54905 29.2227 8.78701 29.2223 9.02498C29.2219 9.32932 29.224 9.63359 29.2267 9.93792C29.2285 10.1733 29.2287 10.4087 29.2285 10.6441C29.2286 10.7564 29.2292 10.8686 29.2304 10.9808C29.232 11.1375 29.2313 11.2941 29.2301 11.4508C29.2302 11.5397 29.2304 11.6286 29.2305 11.7202C29.1748 12.0363 29.0707 12.1462 28.8462 12.3714C28.6249 12.4821 28.4019 12.4788 28.1626 12.4398C27.9756 12.3468 27.8971 12.2602 27.7525 12.098C27.7299 11.9626 27.7074 11.8273 27.6841 11.6878C19.0442 11.6878 10.4043 11.6878 1.50249 11.6878C1.50249 18.5579 1.50249 18.5921 2.18128 24.1458C2.5601 24.4674 3.03986 24.684 3.53748 24.6855C3.6381 24.6861 3.6381 24.6861 3.74076 24.6867C3.81428 24.6867 3.88779 24.6868 3.96353 24.6869C4.04102 24.6872 4.11851 24.6876 4.19835 24.6879C4.36687 24.6887 4.5354 24.6893 4.70392 24.6897C4.97051 24.6905 5.23709 24.6919 5.50368 24.6934C6.26174 24.6976 7.0198 24.7013 7.77787 24.7035C8.2413 24.7049 8.7047 24.7074 9.16812 24.7104C9.34489 24.7114 9.52167 24.712 9.69845 24.7122C9.94558 24.7125 10.1927 24.7141 10.4398 24.716C10.513 24.7158 10.5863 24.7156 10.6617 24.7154C11.0963 24.7203 11.3447 24.7643 11.6752 25.0606C11.8025 25.3151 11.8026 25.5597 11.7564 25.8382C11.6338 26.0344 11.5525 26.1452 11.3462 26.2484C11.2364 26.2553 11.1262 26.2579 11.0161 26.2584C10.9464 26.2589 10.8766 26.2594 10.8048 26.2599C10.7279 26.2601 10.6511 26.2603 10.5719 26.2605C10.4912 26.2609 10.4105 26.2614 10.3273 26.2618C10.059 26.2632 9.79073 26.264 9.52244 26.2647C9.4299 26.2649 9.33736 26.2652 9.24482 26.2655C8.80952 26.2668 8.37423 26.2678 7.93893 26.2683C7.43785 26.269 6.93679 26.2708 6.43572 26.2736C6.04773 26.2756 5.65974 26.2767 5.27175 26.2769C5.04041 26.277 4.80909 26.2776 4.57776 26.2794C4.31877 26.281 4.05984 26.281 3.80085 26.2805C3.68766 26.2818 3.68766 26.2818 3.57218 26.2831C2.55906 26.2764 1.71028 25.8712 0.980186 25.1853C0.423351 24.6073 -0.00858983 23.8379 -0.0105866 23.016C-0.0110437 22.9284 -0.0110444 22.9284 -0.0115107 22.8391C-0.0114981 22.7753 -0.0114851 22.7115 -0.0114721 22.6457C-0.0117235 22.5777 -0.0119746 22.5096 -0.0122336 22.4395C-0.0129882 22.2108 -0.013251 21.9822 -0.0135114 21.7535C-0.0139396 21.5898 -0.014394 21.426 -0.0148726 21.2623C-0.0161871 20.7705 -0.0169116 20.2787 -0.0175199 19.7869C-0.0178198 19.555 -0.0181863 19.3232 -0.0185442 19.0914C-0.0197072 18.3202 -0.0206984 17.5491 -0.0211937 16.7779C-0.0213242 16.5779 -0.0214553 16.3779 -0.021589 16.1778C-0.021622 16.1281 -0.021655 16.0784 -0.0216891 16.0272C-0.022256 15.2225 -0.0239873 14.4179 -0.0262088 13.6133C-0.028473 12.7864 -0.0297009 11.9596 -0.029919 11.1327C-0.0300667 10.6688 -0.0306606 10.2048 -0.032412 9.74091C-0.0340058 9.30416 -0.0342911 8.86742 -0.0335896 8.43067C-0.0335558 8.27073 -0.0339869 8.11079 -0.0349269 7.95086C-0.0423621 6.61036 0.126849 5.60534 1.07471 4.58539C1.81157 3.89953 2.71037 3.60949 3.69715 3.61365C3.75921 3.61364 3.82127 3.61363 3.88521 3.61362C4.08975 3.61367 4.29428 3.6142 4.49882 3.61474C4.64087 3.61487 4.78292 3.61496 4.92496 3.61503C5.29841 3.61529 5.67185 3.61596 6.04529 3.61672C6.42653 3.61742 6.80777 3.61773 7.18901 3.61808C7.93673 3.61881 8.68446 3.61998 9.43218 3.62142C9.43124 3.54717 9.4303 3.47292 9.42933 3.39643C9.42857 3.29759 9.42783 3.19875 9.42711 3.09991C9.42643 3.05114 9.42575 3.00238 9.42505 2.95213C9.42043 2.1047 9.74023 1.36884 10.3104 0.744981C10.8896 0.22788 11.5489 -0.022444 12.3196 -0.0214918ZM11.3446 1.90282C10.929 2.48418 10.9361 2.87393 10.9361 3.62142C13.3273 3.62142 15.7185 3.62142 18.1822 3.62142C18.2333 2.65358 18.2333 2.65358 17.7961 1.93032C17.4206 1.5868 17.1061 1.48547 16.5939 1.48241C16.5454 1.48196 16.4969 1.4815 16.4469 1.48102C16.2872 1.47973 16.1275 1.47946 15.9677 1.47931C15.8561 1.47887 15.7445 1.47841 15.6329 1.47793C15.399 1.47711 15.1652 1.47686 14.9314 1.47694C14.6328 1.47695 14.3343 1.47509 14.0357 1.47273C13.8052 1.47121 13.5746 1.47094 13.3441 1.47101C13.2341 1.47085 13.1241 1.47025 13.014 1.46919C12.1103 1.45475 12.1103 1.45475 11.3446 1.90282ZM1.92947 5.95525C1.05848 7.18933 1.50249 8.68184 1.50249 10.1839C10.1424 10.1839 18.7824 10.1839 27.6841 10.1839C27.9075 7.72364 27.9075 7.72364 26.9877 5.69783C26.5667 5.28766 26.034 5.11719 25.4556 5.11615C25.3772 5.11584 25.2988 5.11554 25.218 5.11522C25.0887 5.11524 25.0887 5.11524 24.9568 5.11526C24.8643 5.11504 24.7719 5.11478 24.6794 5.1145C24.425 5.11382 24.1707 5.11356 23.9163 5.11338C23.6421 5.11311 23.3678 5.11246 23.0936 5.11186C22.4311 5.11051 21.7687 5.10982 21.1062 5.10921C20.7942 5.10891 20.4822 5.10855 20.1701 5.10819C19.1327 5.10703 18.0953 5.10603 17.0578 5.10554C16.7886 5.10541 16.5194 5.10528 16.2502 5.10514C16.1833 5.10511 16.1164 5.10508 16.0475 5.10504C14.9639 5.10448 13.8803 5.10274 12.7967 5.10052C11.6839 5.09826 10.5712 5.09703 9.45844 5.09681C8.83377 5.09667 8.20911 5.09607 7.58444 5.09432C7.05239 5.09284 6.52034 5.09229 5.98828 5.09295C5.71696 5.09326 5.44566 5.09314 5.17435 5.09181C4.92558 5.0906 4.67684 5.09067 4.42807 5.09173C4.29626 5.09197 4.16444 5.09087 4.03263 5.08971C3.21938 5.09569 2.46159 5.30581 1.92947 5.95525Z" fill="black"/>
<path d="M23.3802 13.1126C23.456 13.1119 23.456 13.1119 23.5333 13.1112C25.6344 13.0956 25.6344 13.0956 26.5231 13.3316C26.6043 13.3525 26.6043 13.3525 26.6871 13.3738C28.2262 13.7794 29.6592 14.4425 30.8981 15.4507C30.9367 15.482 30.9753 15.5133 31.015 15.5456C32.9493 17.1246 34.1751 19.1987 34.7946 21.6031C34.8069 21.6496 34.8193 21.6962 34.832 21.7441C35.5103 24.429 34.8447 27.4803 33.4571 29.8208C33.1105 30.3868 32.7071 30.8848 32.2653 31.3785C32.2158 31.4362 32.1664 31.4939 32.1155 31.5534C31.824 31.8916 31.5181 32.1909 31.1715 32.4722C31.0745 32.5514 31.0745 32.5514 30.9755 32.6322C29.7373 33.6235 28.3303 34.3256 26.7965 34.7281C26.7423 34.7425 26.688 34.757 26.6322 34.7719C24.97 35.1945 22.9806 35.1836 21.3278 34.7281C21.2296 34.7011 21.2296 34.7011 21.1295 34.6736C19.4927 34.2067 18.0102 33.4376 16.7635 32.2722C16.6239 32.1424 16.4801 32.0211 16.3333 31.8997C15.9941 31.6035 15.7246 31.2543 15.4489 30.8999C15.398 30.8365 15.3472 30.7731 15.2948 30.7077C13.4687 28.3703 12.8267 25.4059 13.1644 22.4957C13.5504 19.6741 15.1032 17.0483 17.3536 15.3121C19.0674 14.033 21.2182 13.1264 23.3802 13.1126ZM21.943 14.8355C21.8892 14.8491 21.8353 14.8627 21.7798 14.8766C20.9618 15.088 20.2168 15.3758 19.4821 15.7925C19.4418 15.8153 19.4016 15.838 19.3601 15.8615C18.8396 16.1599 18.3642 16.4952 17.9098 16.8863C17.8479 16.9391 17.7859 16.9918 17.7221 17.0462C16.069 18.4975 15.0789 20.4834 14.6969 22.6285C14.6838 22.7008 14.6707 22.7732 14.6571 22.8477C14.3851 25.3163 15.0034 27.7612 16.4988 29.7469C16.6465 29.9297 16.7981 30.1078 16.9528 30.2847C16.9968 30.3378 17.0409 30.391 17.0863 30.4457C17.4339 30.8562 17.826 31.1878 18.2516 31.5152C18.3115 31.5617 18.3714 31.6082 18.4332 31.6562C20.4049 33.1407 22.8531 33.745 25.2998 33.4637C26.3259 33.3177 27.3098 33.0121 28.2321 32.5406C28.3439 32.4845 28.3439 32.4845 28.458 32.4273C29.3897 31.9451 30.168 31.3079 30.8981 30.5581C30.9488 30.512 30.9488 30.512 31.0006 30.465C32.4941 29.0717 33.4133 26.7865 33.5043 24.7629C33.571 22.1584 32.9071 19.8291 31.1715 17.8433C31.1275 17.7902 31.0834 17.737 31.038 17.6823C30.6903 17.2717 30.2982 16.9405 29.8727 16.6128C29.8144 16.5671 29.756 16.5214 29.6959 16.4742C28.4422 15.5236 27.0394 14.9767 25.4977 14.6988C25.426 14.6856 25.3542 14.6723 25.2803 14.6587C24.1801 14.5395 23.0176 14.5566 21.943 14.8355Z" fill="black"/>
<path d="M24.2675 15.9954C24.5175 16.1348 24.655 16.2349 24.8143 16.4739C24.8229 16.6029 24.8229 16.6029 24.8108 16.7511C24.8067 16.8075 24.8027 16.8639 24.7985 16.922C24.7933 16.9838 24.7882 17.0455 24.783 17.1092C24.7734 17.2449 24.764 17.3806 24.7547 17.5163C24.7472 17.6248 24.7472 17.6248 24.7395 17.7355C24.3323 21.6183 24.3323 21.6183 25.7351 25.0594C26.4132 25.7963 27.2347 26.4196 28.0809 26.9501C28.2937 27.1181 28.4162 27.3 28.467 27.5673C28.4675 27.8451 28.4601 27.9902 28.3092 28.2317C28.0757 28.4515 27.897 28.4709 27.5844 28.4622C26.991 28.3746 26.4925 27.6739 26.0862 27.2659C26.0124 27.1921 25.9386 27.1184 25.8647 27.0448C25.7109 26.8912 25.5574 26.7374 25.404 26.5833C25.2079 26.3864 25.0111 26.1901 24.8142 25.994C24.662 25.8423 24.5102 25.6903 24.3584 25.5382C24.286 25.4657 24.2134 25.3933 24.1408 25.3209C24.0394 25.2199 23.9384 25.1184 23.8376 25.0168C23.7802 24.9593 23.7228 24.9018 23.6637 24.8425C23.2918 24.4271 23.2802 24.1238 23.2817 23.5813C23.2811 23.5052 23.2806 23.4291 23.28 23.3508C23.2784 23.0994 23.2783 22.848 23.2784 22.5966C23.2779 22.4218 23.2774 22.247 23.2768 22.0722C23.2759 21.7059 23.2758 21.3396 23.2762 20.9732C23.2766 20.5503 23.2751 20.1274 23.2725 19.7045C23.2702 19.297 23.2697 18.8895 23.27 18.482C23.2699 18.3089 23.2692 18.1358 23.268 17.9627C23.2665 17.7206 23.2672 17.4787 23.2684 17.2367C23.2675 17.1652 23.2666 17.0937 23.2656 17.02C23.2692 16.7076 23.2727 16.4768 23.4711 16.2254C23.7294 15.9948 23.9285 15.9621 24.2675 15.9954Z" fill="black"/>
<path d="M13.7744 13.083C13.868 13.0827 13.868 13.0827 13.9636 13.0825C14.0953 13.0825 14.227 13.0834 14.3586 13.0851C14.5599 13.0875 14.7609 13.0866 14.9621 13.0852C15.0903 13.0857 15.2185 13.0864 15.3467 13.0872C15.4366 13.0867 15.4366 13.0867 15.5284 13.0862C15.8108 13.0916 15.9593 13.1028 16.2033 13.2565C16.4269 13.4939 16.4331 13.6761 16.4305 13.9922C16.3892 14.2626 16.2624 14.3774 16.0644 14.5615C15.804 14.6483 15.557 14.6436 15.2855 14.6462C15.2291 14.6467 15.1727 14.6473 15.1146 14.6478C14.9953 14.6488 14.8759 14.6495 14.7566 14.65C14.5747 14.6512 14.3929 14.6542 14.2111 14.6572C14.095 14.6579 13.9789 14.6585 13.8628 14.659C13.8087 14.6602 13.7547 14.6614 13.699 14.6626C13.3393 14.6612 13.1378 14.5931 12.8515 14.3564C12.7144 14.1603 12.6966 14.0155 12.7191 13.7796C12.7227 13.729 12.7263 13.6783 12.73 13.6261C12.9072 13.0982 13.2936 13.0757 13.7744 13.083Z" fill="black"/>
</g>
<defs>
<clipPath id="clip0_6018_47296">
<rect width="35" height="35" fill="white"/>
</clipPath>
</defs>
</svg>
