<svg width="22" height="22" viewBox="0 0 22 22" fill="none" xmlns="http://www.w3.org/2000/svg">
<path d="M7.69935 2.75H5.13268C4.7437 2.75 4.37065 2.90452 4.09559 3.17958C3.82054 3.45463 3.66602 3.82768 3.66602 4.21667V8.61667C3.66602 8.80927 3.70395 8.99999 3.77766 9.17794C3.85137 9.35588 3.9594 9.51756 4.09559 9.65376C4.23179 9.78995 4.39347 9.89798 4.57141 9.97169C4.74936 10.0454 4.94008 10.0833 5.13268 10.0833H7.69935C7.89195 10.0833 8.08267 10.0454 8.26062 9.97169C8.43856 9.89798 8.60025 9.78995 8.73644 9.65376C8.87263 9.51756 8.98067 9.35588 9.05437 9.17794C9.12808 8.99999 9.16602 8.80927 9.16602 8.61667V4.21667C9.16602 3.82768 9.01149 3.45463 8.73644 3.17958C8.46139 2.90452 8.08833 2.75 7.69935 2.75ZM7.69935 13.75H5.13268C4.7437 13.75 4.37065 13.9045 4.09559 14.1796C3.82054 14.4546 3.66602 14.8277 3.66602 15.2167V17.7833C3.66602 18.1723 3.82054 18.5454 4.09559 18.8204C4.37065 19.0955 4.7437 19.25 5.13268 19.25H7.69935C8.08833 19.25 8.46139 19.0955 8.73644 18.8204C9.01149 18.5454 9.16602 18.1723 9.16602 17.7833V15.2167C9.16602 14.8277 9.01149 14.4546 8.73644 14.1796C8.46139 13.9045 8.08833 13.75 7.69935 13.75ZM16.866 2.75H14.2993C13.9104 2.75 13.5373 2.90452 13.2623 3.17958C12.9872 3.45463 12.8327 3.82768 12.8327 4.21667V6.78333C12.8327 7.17232 12.9872 7.54537 13.2623 7.82042C13.5373 8.09548 13.9104 8.25 14.2993 8.25H16.866C17.255 8.25 17.6281 8.09548 17.9031 7.82042C18.1782 7.54537 18.3327 7.17232 18.3327 6.78333V4.21667C18.3327 3.82768 18.1782 3.45463 17.9031 3.17958C17.6281 2.90452 17.255 2.75 16.866 2.75ZM16.866 11.9167H14.2993C13.9104 11.9167 13.5373 12.0712 13.2623 12.3462C12.9872 12.6213 12.8327 12.9943 12.8327 13.3833V17.7833C12.8327 18.1723 12.9872 18.5454 13.2623 18.8204C13.5373 19.0955 13.9104 19.25 14.2993 19.25H16.866C17.255 19.25 17.6281 19.0955 17.9031 18.8204C18.1782 18.5454 18.3327 18.1723 18.3327 17.7833V13.3833C18.3327 12.9943 18.1782 12.6213 17.9031 12.3462C17.6281 12.0712 17.255 11.9167 16.866 11.9167Z" stroke="#34A853" stroke-width="1.375" stroke-miterlimit="10" stroke-linejoin="round"/>
</svg>
