<svg width="24" height="24" viewBox="0 0 24 24" fill="none" xmlns="http://www.w3.org/2000/svg">
<path d="M6.49911 16.5011V9.50106C6.49911 9.35906 6.54711 9.2404 6.64311 9.14506C6.73911 9.04973 6.85811 9.00173 7.00011 9.00106C7.14211 9.0004 7.26078 9.0484 7.35611 9.14506C7.45144 9.24173 7.49911 9.3604 7.49911 9.50106V16.5011C7.49911 16.6431 7.45111 16.7617 7.35511 16.8571C7.25911 16.9524 7.14011 17.0004 6.99811 17.0011C6.85611 17.0017 6.73744 16.9537 6.64211 16.8571C6.54678 16.7604 6.49911 16.6417 6.49911 16.5011ZM11.4991 16.5011V9.50106C11.4991 9.35906 11.5471 9.2404 11.6431 9.14506C11.7391 9.04973 11.8581 9.00173 12.0001 9.00106C12.1421 9.0004 12.2608 9.0484 12.3561 9.14506C12.4514 9.24173 12.4991 9.3604 12.4991 9.50106V16.5011C12.4991 16.6431 12.4511 16.7617 12.3551 16.8571C12.2591 16.9524 12.1401 17.0004 11.9981 17.0011C11.8561 17.0017 11.7374 16.9537 11.6421 16.8571C11.5468 16.7604 11.4991 16.6417 11.4991 16.5011ZM4.03811 20.0011C3.89611 20.0011 3.77711 19.9531 3.68111 19.8571C3.58511 19.7611 3.53711 19.6421 3.53711 19.5001C3.53711 19.3581 3.58511 19.2394 3.68111 19.1441C3.77711 19.0487 3.89578 19.0011 4.03711 19.0011H19.9611C20.1024 19.0011 20.2211 19.0491 20.3171 19.1451C20.4131 19.2411 20.4608 19.3601 20.4601 19.5021C20.4594 19.6441 20.4118 19.7627 20.3171 19.8581C20.2224 19.9534 20.1034 20.0011 19.9601 20.0011H4.03811ZM16.4991 16.5011V9.50106C16.4991 9.35906 16.5471 9.2404 16.6431 9.14506C16.7391 9.04973 16.8581 9.00173 17.0001 9.00106C17.1421 9.0004 17.2608 9.0484 17.3561 9.14506C17.4514 9.24173 17.4991 9.3604 17.4991 9.50106V16.5011C17.4991 16.6431 17.4511 16.7617 17.3551 16.8571C17.2591 16.9524 17.1401 17.0004 16.9981 17.0011C16.8561 17.0017 16.7374 16.9537 16.6421 16.8571C16.5468 16.7604 16.4991 16.6417 16.4991 16.5011ZM20.0381 7.00106H3.91711C3.81178 7.00106 3.72178 6.9644 3.64711 6.89106C3.57378 6.81773 3.53711 6.7284 3.53711 6.62306V6.39106C3.53711 6.31373 3.55644 6.2474 3.59511 6.19206C3.63378 6.1374 3.68478 6.09273 3.74811 6.05806L11.3101 2.45006C11.5261 2.34273 11.7548 2.28906 11.9961 2.28906C12.2374 2.28906 12.4674 2.34273 12.6861 2.45006L20.2171 6.03306C20.2851 6.07773 20.3424 6.13206 20.3891 6.19606C20.4358 6.26006 20.4591 6.33306 20.4591 6.41506V6.58206C20.4591 6.70873 20.4211 6.80973 20.3451 6.88506C20.2691 6.96173 20.1664 7.00006 20.0371 7.00006M6.17911 6.00106H17.8171L12.2671 3.36606C12.1778 3.32806 12.0881 3.30906 11.9981 3.30906C11.9081 3.30906 11.8181 3.32806 11.7281 3.36606L6.17911 6.00106Z" fill="black"/>
<path d="M20.0381 7.00106H3.91711C3.81178 7.00106 3.72178 6.9644 3.64711 6.89106C3.57378 6.81773 3.53711 6.7284 3.53711 6.62306V6.39106C3.53711 6.31373 3.55644 6.2474 3.59511 6.19206C3.63378 6.1374 3.68478 6.09273 3.74811 6.05806L11.3101 2.45006C11.5261 2.34273 11.7548 2.28906 11.9961 2.28906C12.2374 2.28906 12.4674 2.34273 12.6861 2.45006L20.2171 6.03306C20.2851 6.07773 20.3424 6.13206 20.3891 6.19606C20.4358 6.26006 20.4591 6.33306 20.4591 6.41506V6.58206C20.4591 6.70873 20.4211 6.80973 20.3451 6.88506C20.2691 6.96173 20.1664 7.00006 20.0371 7.00006M6.49911 16.5011V9.50106C6.49911 9.35906 6.54711 9.2404 6.64311 9.14506C6.73911 9.04973 6.85811 9.00173 7.00011 9.00106C7.14211 9.0004 7.26078 9.0484 7.35611 9.14506C7.45144 9.24173 7.49911 9.3604 7.49911 9.50106V16.5011C7.49911 16.6431 7.45111 16.7617 7.35511 16.8571C7.25911 16.9524 7.14011 17.0004 6.99811 17.0011C6.85611 17.0017 6.73744 16.9537 6.64211 16.8571C6.54678 16.7604 6.49911 16.6417 6.49911 16.5011ZM11.4991 16.5011V9.50106C11.4991 9.35906 11.5471 9.2404 11.6431 9.14506C11.7391 9.04973 11.8581 9.00173 12.0001 9.00106C12.1421 9.0004 12.2608 9.0484 12.3561 9.14506C12.4514 9.24173 12.4991 9.3604 12.4991 9.50106V16.5011C12.4991 16.6431 12.4511 16.7617 12.3551 16.8571C12.2591 16.9524 12.1401 17.0004 11.9981 17.0011C11.8561 17.0017 11.7374 16.9537 11.6421 16.8571C11.5468 16.7604 11.4991 16.6417 11.4991 16.5011ZM4.03811 20.0011C3.89611 20.0011 3.77711 19.9531 3.68111 19.8571C3.58511 19.7611 3.53711 19.6421 3.53711 19.5001C3.53711 19.3581 3.58511 19.2394 3.68111 19.1441C3.77711 19.0487 3.89578 19.0011 4.03711 19.0011H19.9611C20.1024 19.0011 20.2211 19.0491 20.3171 19.1451C20.4131 19.2411 20.4608 19.3601 20.4601 19.5021C20.4594 19.6441 20.4118 19.7627 20.3171 19.8581C20.2224 19.9534 20.1034 20.0011 19.9601 20.0011H4.03811ZM16.4991 16.5011V9.50106C16.4991 9.35906 16.5471 9.2404 16.6431 9.14506C16.7391 9.04973 16.8581 9.00173 17.0001 9.00106C17.1421 9.0004 17.2608 9.0484 17.3561 9.14506C17.4514 9.24173 17.4991 9.3604 17.4991 9.50106V16.5011C17.4991 16.6431 17.4511 16.7617 17.3551 16.8571C17.2591 16.9524 17.1401 17.0004 16.9981 17.0011C16.8561 17.0017 16.7374 16.9537 16.6421 16.8571C16.5468 16.7604 16.4991 16.6417 16.4991 16.5011ZM6.17911 6.00106H17.8171L12.2671 3.36606C12.1778 3.32806 12.0881 3.30906 11.9981 3.30906C11.9081 3.30906 11.8181 3.32806 11.7281 3.36606L6.17911 6.00106Z" stroke="black" stroke-width="0.5"/>
</svg>
