<svg width="36" height="35" viewBox="0 0 36 35" fill="none" xmlns="http://www.w3.org/2000/svg">
<g clip-path="url(#clip0_670_15056)">
<path d="M25.1852 11.6211C25.4458 11.731 25.6878 11.8693 25.9329 12.0099C26.0801 12.0921 26.2273 12.1743 26.3746 12.2564C26.4496 12.2986 26.5245 12.3409 26.6018 12.3844C26.949 12.5787 27.2999 12.766 27.6504 12.9541C28.1898 13.2452 28.7245 13.5434 29.2569 13.8471C29.8383 14.1786 30.427 14.4922 31.0219 14.7988C31.5475 15.071 32.0626 15.3591 32.5763 15.6531C32.9383 15.8596 33.3023 16.0616 33.6701 16.2578C33.7312 16.2904 33.7312 16.2904 33.7935 16.3237C33.9922 16.4297 34.1913 16.5352 34.3906 16.64C34.462 16.678 34.5335 16.7159 34.6071 16.755C34.6705 16.7884 34.7338 16.8217 34.7991 16.8561C34.9559 16.9503 35.0541 17.0145 35.1657 17.1582C35.1919 17.3364 35.1919 17.3364 35.1927 17.5548C35.1934 17.6375 35.1942 17.7202 35.195 17.8054C35.1948 17.8972 35.1946 17.989 35.1944 18.0808C35.1949 18.1774 35.1955 18.2739 35.1962 18.3705C35.1977 18.6329 35.1979 18.8953 35.1978 19.1578C35.1977 19.3767 35.1983 19.5957 35.1989 19.8147C35.2002 20.3313 35.2004 20.8478 35.2 21.3644C35.1995 21.8975 35.2011 22.4306 35.2036 22.9637C35.2057 23.4212 35.2065 23.8788 35.2062 24.3363C35.2061 24.6096 35.2064 24.883 35.2081 25.1563C35.2096 25.4134 35.2095 25.6704 35.2081 25.9274C35.2079 26.0218 35.2082 26.1161 35.2092 26.2105C35.2104 26.3392 35.2094 26.468 35.2082 26.5968C35.2082 26.6688 35.2083 26.7409 35.2083 26.8152C35.1504 27.069 35.0376 27.1353 34.8239 27.2754C34.6667 27.3659 34.5103 27.452 34.3494 27.5352C34.3035 27.5594 34.2577 27.5835 34.2104 27.6083C34.0605 27.6871 33.9103 27.7654 33.7601 27.8437C33.6012 27.927 33.4425 28.0104 33.2837 28.0939C33.1765 28.1502 33.0692 28.2066 32.9619 28.2629C32.4872 28.5119 32.0147 28.7647 31.5427 29.0186C30.7884 29.4237 30.0321 29.8248 29.2752 30.2249C28.6335 30.5641 27.9926 30.9047 27.353 31.2479C27.2336 31.3119 27.1142 31.3757 26.9947 31.4396C26.657 31.6203 26.3199 31.8017 25.985 31.9874C25.9044 32.0315 25.9044 32.0315 25.8223 32.0766C25.7267 32.129 25.6316 32.182 25.5369 32.2359C25.2662 32.3834 25.0811 32.4295 24.7751 32.4024C24.5892 32.3172 24.5892 32.3172 24.3991 32.1968C24.328 32.1523 24.2568 32.1079 24.1835 32.0621C24.108 32.0137 24.0325 31.9652 23.9548 31.9153C23.8753 31.8652 23.7958 31.8152 23.7163 31.7653C23.5144 31.6383 23.3133 31.5102 23.1123 31.3818C22.9392 31.2713 22.7657 31.1615 22.5921 31.0517C22.3435 30.8942 22.0953 30.7361 21.8474 30.5775C21.5096 30.3614 21.1708 30.1468 20.8316 29.9329C20.7785 29.8994 20.7255 29.8659 20.6708 29.8314C20.5647 29.7645 20.4586 29.6976 20.3526 29.6307C20.196 29.5319 20.0395 29.4329 19.8831 29.3339C19.2819 28.9535 18.6794 28.5751 18.0759 28.1983C17.4664 27.8177 16.8574 27.4366 16.251 27.0514C16.0586 26.9292 15.8653 26.8088 15.671 26.6898C15.6045 26.6486 15.6045 26.6486 15.5367 26.6065C15.4192 26.5336 15.3013 26.4613 15.1834 26.3891C14.9433 26.2073 14.8131 26.035 14.769 25.7326C14.769 25.6698 14.769 25.6071 14.769 25.5424C14.7686 25.47 14.7681 25.3975 14.7676 25.3229C14.7681 25.2441 14.7686 25.1653 14.7692 25.0842C14.7689 25.0007 14.7687 24.9172 14.7684 24.8311C14.7679 24.6026 14.7684 24.3741 14.7693 24.1456C14.7701 23.9061 14.7698 23.6667 14.7697 23.4273C14.7696 23.0253 14.7704 22.6233 14.7716 22.2212C14.7731 21.7568 14.7733 21.2923 14.7729 20.8279C14.7725 20.3806 14.7729 19.9334 14.7737 19.4862C14.774 19.296 14.774 19.1059 14.7739 18.9158C14.7737 18.6502 14.7747 18.3846 14.7758 18.119C14.7757 18.0402 14.7755 17.9614 14.7753 17.8803C14.7758 17.8078 14.7763 17.7354 14.7768 17.6607C14.7769 17.598 14.7771 17.5352 14.7772 17.4706C14.8025 17.2149 14.86 17.0171 15.0536 16.8436C15.4517 16.5943 15.8585 16.3712 16.2772 16.1585C16.8047 15.8869 17.3293 15.611 17.8494 15.3253C18.416 15.0146 18.9843 14.7073 19.5541 14.4025C19.5943 14.381 19.6345 14.3595 19.6759 14.3374C19.8809 14.2277 20.0859 14.1181 20.2909 14.0085C20.7707 13.752 21.2501 13.4949 21.7295 13.238C22.1029 13.0379 22.4764 12.8379 22.8501 12.6383C23.0263 12.5441 23.2026 12.4499 23.3788 12.3557C23.4628 12.3108 23.5467 12.266 23.6307 12.2212C23.7472 12.159 23.8637 12.0968 23.9801 12.0345C24.0464 11.9991 24.1126 11.9638 24.1808 11.9273C24.3046 11.8593 24.4266 11.7877 24.5465 11.713C24.7829 11.5774 24.9142 11.5831 25.1852 11.6211ZM24.6143 12.9891C24.527 13.0331 24.527 13.0331 24.4378 13.0779C24.3771 13.109 24.3164 13.14 24.2538 13.172C24.1947 13.2018 24.1356 13.2315 24.0747 13.2621C23.6876 13.458 23.3069 13.6635 22.9294 13.877C22.9294 13.9221 22.9294 13.9672 22.9294 14.0137C23.0039 14.0548 23.0039 14.0548 23.0799 14.0967C23.19 14.1575 23.3002 14.2183 23.4103 14.279C23.6292 14.3998 23.8481 14.5206 24.067 14.6413C24.5205 14.8915 24.9739 15.1417 25.4272 15.3924C26.2713 15.859 27.1168 16.3231 27.9656 16.7813C28.3647 16.997 28.7624 17.2151 29.1586 17.4359C29.2065 17.4625 29.2544 17.489 29.3037 17.5164C29.5914 17.6759 29.8777 17.8375 30.1635 18.0004C30.2999 18.0772 30.4363 18.1539 30.5728 18.2306C30.669 18.2862 30.669 18.2862 30.7671 18.3429C30.8275 18.3766 30.8879 18.4103 30.9501 18.445C31.0302 18.4906 31.0302 18.4906 31.1119 18.5371C31.3554 18.6248 31.5236 18.5655 31.753 18.4603C31.7989 18.4342 31.8447 18.4081 31.8919 18.3812C31.9436 18.3521 31.9952 18.3231 32.0484 18.2931C32.1015 18.2626 32.1545 18.2321 32.2092 18.2007C32.3142 18.1412 32.4192 18.0818 32.5243 18.0223C32.5759 17.9929 32.6276 17.9634 32.6809 17.933C32.9384 17.7868 33.1976 17.6434 33.4567 17.5C33.2987 17.3255 33.1377 17.2222 32.9304 17.1118C32.833 17.0595 32.833 17.0595 32.7337 17.0061C32.6284 16.9503 32.6284 16.9503 32.5211 16.8933C32.3714 16.8131 32.2218 16.7329 32.0722 16.6527C31.9955 16.6118 31.9188 16.5709 31.8398 16.5287C31.4865 16.3397 31.1344 16.1487 30.7822 15.9577C30.7142 15.9209 30.6463 15.8841 30.5764 15.8462C30.0614 15.5673 29.5471 15.2869 29.0331 15.0062C28.5713 14.7542 28.1089 14.5033 27.6462 14.253C27.0919 13.9529 26.5378 13.6526 25.9842 13.3515C25.9205 13.3169 25.8569 13.2824 25.7913 13.2468C25.7325 13.2148 25.6738 13.1828 25.6133 13.1499C25.5618 13.1219 25.5103 13.0939 25.4573 13.065C25.3408 12.999 25.2283 12.9259 25.1169 12.8516C24.8952 12.8516 24.8089 12.8906 24.6143 12.9891ZM21.107 14.8296C21.0556 14.8607 21.0042 14.8917 20.9512 14.9237C20.8713 14.9691 20.8713 14.9691 20.7898 15.0155C20.6589 15.0901 20.5292 15.1664 20.4001 15.2442C20.6094 15.4102 20.8254 15.5373 21.0612 15.6623C21.1383 15.7034 21.2153 15.7444 21.2947 15.7867C21.3355 15.8083 21.3763 15.8298 21.4183 15.8521C21.5911 15.9436 21.7636 16.0355 21.9362 16.1275C22.0247 16.1746 22.1132 16.2218 22.2017 16.2689C22.6105 16.4865 23.0179 16.7066 23.425 16.9275C23.4915 16.9636 23.558 16.9997 23.6265 17.0368C23.7602 17.1093 23.8939 17.1819 24.0275 17.2544C24.3678 17.439 24.7081 17.6233 25.0485 17.8076C25.1852 17.8817 25.322 17.9558 25.4587 18.0298C25.5264 18.0665 25.594 18.1031 25.6638 18.1409C25.8688 18.252 26.0739 18.3631 26.279 18.4741C26.3468 18.5109 26.4146 18.5476 26.4844 18.5854C26.62 18.6589 26.7556 18.7324 26.8912 18.8059C27.2497 19.0002 27.6084 19.194 27.9677 19.3868C28.0426 19.4272 28.1175 19.4675 28.1947 19.509C28.3384 19.5864 28.4822 19.6635 28.6262 19.7405C28.6909 19.7754 28.7555 19.8102 28.8222 19.8461C28.879 19.8766 28.9359 19.9071 28.9945 19.9386C29.0458 19.9685 29.0972 19.9985 29.1501 20.0293C29.2011 20.0548 29.2521 20.0803 29.3047 20.1065C29.4964 20.3128 29.4648 20.5553 29.4652 20.8227C29.4663 20.88 29.4674 20.9374 29.4686 20.9965C29.4719 21.1797 29.4734 21.3628 29.4748 21.546C29.4767 21.6703 29.4788 21.7945 29.4809 21.9187C29.486 22.2231 29.4894 22.5276 29.4919 22.8321C29.9176 22.6617 30.3186 22.4342 30.7223 22.2168C30.7223 21.3596 30.7223 20.5024 30.7223 19.6192C29.311 18.8386 29.311 18.8386 27.894 18.0683C27.3691 17.7854 26.8483 17.4962 26.3303 17.201C25.7086 16.8467 25.0801 16.5065 24.4484 16.1708C23.8074 15.83 23.1732 15.4788 22.5445 15.1159C22.4283 15.0492 22.3116 14.9835 22.1944 14.9189C22.0991 14.8663 22.005 14.8116 21.9128 14.7538C21.5887 14.5724 21.4067 14.6622 21.107 14.8296ZM18.6147 16.1724C18.5673 16.1975 18.5198 16.2226 18.4709 16.2486C18.3705 16.3019 18.2702 16.3555 18.17 16.4092C18.0174 16.491 17.8644 16.5719 17.7114 16.6527C17.6137 16.7048 17.5161 16.7568 17.4184 16.809C17.373 16.833 17.3276 16.857 17.2807 16.8817C17.0224 17.021 16.7962 17.1715 16.572 17.3633C17.0388 17.6466 17.5101 17.9203 17.9861 18.1879C18.1253 18.2663 18.2644 18.3447 18.4035 18.4231C18.5092 18.4826 18.5092 18.4826 18.617 18.5433C18.9495 18.7307 19.2817 18.9186 19.6139 19.1065C19.745 19.1805 19.876 19.2546 20.007 19.3286C20.2691 19.4767 20.5311 19.6249 20.7931 19.773C20.858 19.8096 20.9229 19.8463 20.9897 19.8841C21.1206 19.958 21.2514 20.032 21.3821 20.1059C21.713 20.293 22.0439 20.4799 22.375 20.6665C22.4414 20.7039 22.5077 20.7413 22.5761 20.7799C22.7079 20.8542 22.8398 20.9284 22.9717 21.0024C23.29 21.1816 23.6056 21.3637 23.9177 21.5535C23.9766 21.589 24.0355 21.6244 24.0962 21.661C24.2066 21.7277 24.3165 21.7953 24.4256 21.864C24.4748 21.8935 24.5239 21.9231 24.5745 21.9535C24.6168 21.9797 24.6591 22.0059 24.7026 22.0329C24.9788 22.1254 25.2049 22.0345 25.4598 21.9153C25.5311 21.8749 25.6023 21.8344 25.6758 21.7928C25.7147 21.7709 25.7536 21.7491 25.7937 21.7266C25.9174 21.657 26.0405 21.5866 26.1636 21.5161C26.2454 21.4699 26.3273 21.4237 26.4092 21.3775C26.567 21.2885 26.7246 21.1992 26.8821 21.1096C27.1586 20.9527 27.4363 20.7982 27.7145 20.6446C27.7145 20.5994 27.7145 20.5543 27.7145 20.5078C27.6606 20.4794 27.6068 20.4509 27.5512 20.4215C25.7396 19.463 25.7396 19.463 24.8776 18.9698C24.2364 18.6029 23.5867 18.2542 22.9339 17.9086C22.3508 17.5997 21.7723 17.2843 21.199 16.9574C20.7358 16.6936 20.2718 16.4318 19.8019 16.1798C19.7542 16.1539 19.7065 16.1279 19.6574 16.1012C19.2192 15.8686 19.0311 15.9487 18.6147 16.1724ZM15.8884 18.252C15.8566 19.1724 15.8323 20.0927 15.8175 21.0135C15.8104 21.4412 15.8008 21.8685 15.7852 22.296C15.7703 22.7091 15.7622 23.1219 15.7586 23.5353C15.7561 23.6924 15.7512 23.8495 15.7438 24.0065C15.6844 24.8454 15.6844 24.8454 16.0188 25.5801C16.3416 25.8525 16.6982 26.0461 17.0773 26.2287C17.3637 26.3728 17.6287 26.5486 17.8964 26.7243C18.0037 26.7919 18.1111 26.8595 18.2185 26.9269C18.5819 27.1557 18.9441 27.3864 19.3063 27.6172C19.9888 28.0519 20.6727 28.4844 21.3571 28.916C21.5693 29.0499 21.7815 29.1838 21.9937 29.3177C22.046 29.3506 22.0983 29.3836 22.1521 29.4175C22.4571 29.61 22.7612 29.8036 23.0648 29.9983C23.1332 30.0422 23.2017 30.086 23.2723 30.1312C23.406 30.2169 23.5396 30.3027 23.6731 30.3888C23.7336 30.4275 23.7942 30.4663 23.8565 30.5062C23.9102 30.5407 23.9638 30.5752 24.0191 30.6108C24.1651 30.703 24.1651 30.703 24.3649 30.7617C24.3921 29.7665 24.4126 28.7712 24.4251 27.7757C24.4311 27.3133 24.4393 26.8512 24.4526 26.389C24.4655 25.9427 24.4722 25.4965 24.4752 25.05C24.4773 24.88 24.4815 24.7099 24.4878 24.54C24.5558 23.6741 24.5558 23.6741 24.2523 22.9002C23.9781 22.6729 23.6766 22.5329 23.3448 22.4091C23.1398 22.3289 22.9597 22.2214 22.7708 22.1087C22.6386 22.0349 22.5063 21.9613 22.374 21.8878C22.2265 21.8056 22.0791 21.7234 21.9318 21.6411C21.8222 21.58 21.8222 21.58 21.7104 21.5176C21.3727 21.3288 21.0359 21.1384 20.6992 20.9479C20.6349 20.9115 20.5706 20.8751 20.5043 20.8377C20.3748 20.7644 20.2454 20.6911 20.1159 20.6178C19.8547 20.47 19.5934 20.3223 19.3321 20.1746C19.2016 20.1009 19.071 20.0271 18.9405 19.9533C18.6037 19.7629 18.2668 19.5726 17.9298 19.3826C17.7919 19.3048 17.654 19.227 17.5162 19.1492C17.4505 19.1121 17.3848 19.0751 17.3171 19.0369C16.9047 18.8038 16.4946 18.5676 16.0876 18.3254C15.9718 18.2464 15.9718 18.2464 15.8884 18.252ZM33.6896 18.6245C33.6247 18.66 33.5599 18.6954 33.493 18.732C33.4247 18.7695 33.3563 18.8071 33.2858 18.8458C33.2196 18.8821 33.1533 18.9184 33.085 18.9557C32.8898 19.0627 32.6946 19.1698 32.4997 19.2774C32.4474 19.299 32.395 19.3206 32.3411 19.3429C32.0172 19.4827 32.0172 19.4827 31.8288 19.7633C31.8076 19.9443 31.8063 20.1163 31.8118 20.2985C31.8113 20.364 31.8109 20.4294 31.8104 20.4969C31.8094 20.7057 31.8126 20.9143 31.8161 21.1231C31.8167 21.3318 31.8164 21.5405 31.816 21.7493C31.8161 21.879 31.8169 22.0087 31.8185 22.1384C31.8252 22.7777 31.8252 22.7777 31.7477 22.9688C31.5957 23.0463 31.5957 23.0463 31.4059 23.1055C31.2815 23.169 31.158 23.2344 31.0353 23.3012C30.9652 23.3393 30.895 23.3774 30.8228 23.4167C30.7501 23.4564 30.6775 23.4961 30.6027 23.537C30.5312 23.5759 30.4596 23.6148 30.3859 23.6549C29.9833 23.8736 29.9833 23.8736 29.584 24.098C29.5298 24.1291 29.4756 24.1601 29.4198 24.192C29.3729 24.2193 29.326 24.2466 29.2778 24.2748C29.0142 24.4011 28.8013 24.3564 28.5348 24.2676C28.4359 23.9996 28.451 23.7117 28.4449 23.4291C28.4434 23.3749 28.442 23.3207 28.4406 23.2648C28.4361 23.0921 28.4321 22.9193 28.428 22.7466C28.4251 22.6293 28.4221 22.512 28.4191 22.3947C28.4118 22.1075 28.4049 21.8204 28.3981 21.5332C27.7397 21.8841 27.0815 22.2355 26.4243 22.5885C26.3645 22.6205 26.3645 22.6205 26.3036 22.6531C26.1873 22.7154 26.071 22.7779 25.9548 22.8403C25.8872 22.8766 25.8197 22.9128 25.75 22.9502C25.6023 23.0241 25.6023 23.0241 25.527 23.1055C25.5205 23.2058 25.5187 23.3064 25.5188 23.407C25.5187 23.4721 25.5186 23.5371 25.5185 23.6042C25.5188 23.6762 25.519 23.7482 25.5193 23.8223C25.5193 23.8977 25.5193 23.9731 25.5192 24.0507C25.5193 24.3011 25.5198 24.5515 25.5204 24.8019C25.5205 24.975 25.5206 25.1481 25.5207 25.3212C25.5209 25.7311 25.5214 26.1409 25.5221 26.5508C25.5229 27.0173 25.5233 27.4839 25.5236 27.9504C25.5243 28.9103 25.5255 29.8702 25.527 30.8301C25.7864 30.7455 26.0266 30.6563 26.2683 30.5294C26.361 30.481 26.361 30.481 26.4555 30.4316C26.5213 30.3967 26.5871 30.3619 26.655 30.326C26.76 30.2708 26.76 30.2708 26.8673 30.2145C27.3119 29.9801 27.753 29.74 28.1931 29.4971C28.9029 29.1055 29.6243 28.7375 30.3464 28.3692C31.1911 27.9383 32.0319 27.5033 32.8612 27.0434C33.263 26.8212 33.6677 26.6044 34.072 26.3867C34.072 23.7699 34.072 21.1531 34.072 18.4571C33.9357 18.4571 33.8052 18.5611 33.6896 18.6245Z" fill="black"/>
<path d="M13.185 -0.0256381C13.2676 -0.0281935 13.3502 -0.030749 13.4353 -0.0333819C14.4193 -0.0428684 15.1681 0.307992 15.8894 0.957028C16.4982 1.59208 16.9832 2.44441 16.9832 3.34961C17.0322 3.36776 17.0812 3.38591 17.1317 3.40461C18.053 3.79403 18.9245 4.56614 19.3758 5.46875C19.498 5.46912 19.498 5.46912 19.6226 5.4695C20.3901 5.47203 21.1575 5.47597 21.925 5.48132C22.3196 5.48402 22.7141 5.48622 23.1087 5.48727C23.4894 5.48831 23.8702 5.49066 24.2509 5.49392C24.3962 5.49494 24.5415 5.49548 24.6868 5.49554C24.8902 5.4957 25.0936 5.49754 25.2971 5.49979C25.3873 5.49927 25.3873 5.49927 25.4793 5.49875C25.7462 5.50331 25.9073 5.52069 26.1466 5.64743C26.3241 5.8644 26.3226 5.99147 26.3221 6.27023C26.3225 6.31584 26.3229 6.36145 26.3233 6.40843C26.3241 6.55882 26.3224 6.70906 26.3207 6.85943C26.3205 6.96414 26.3205 7.06884 26.3207 7.17355C26.3206 7.39285 26.3193 7.6121 26.3171 7.83138C26.3144 8.1123 26.3141 8.39315 26.3146 8.67407C26.3148 8.89024 26.314 9.10639 26.3128 9.32255C26.3124 9.42612 26.3121 9.52969 26.3122 9.63326C26.3121 9.77808 26.3106 9.92284 26.3088 10.0677C26.3082 10.15 26.3076 10.2324 26.307 10.3172C26.2779 10.5443 26.2334 10.6388 26.075 10.8008C25.9474 10.852 25.9474 10.852 25.8101 10.8691C25.7652 10.8762 25.7202 10.8832 25.6739 10.8905C25.4507 10.8578 25.3458 10.7512 25.1863 10.5957C25.1452 10.4123 25.1452 10.4123 25.1475 10.2007C25.1476 10.1202 25.1476 10.0398 25.1476 9.95687C25.1494 9.87266 25.1511 9.78845 25.1529 9.70169C25.1533 9.62402 25.1536 9.54636 25.154 9.46634C25.1558 9.17627 25.1605 8.88623 25.165 8.59619C25.172 7.94763 25.1791 7.29907 25.1863 6.63086C23.4493 6.63086 21.7123 6.63086 19.9227 6.63086C19.9678 6.83388 20.0129 7.03691 20.0594 7.24609C20.084 7.53953 20.0816 7.83183 20.0807 8.12622C20.0818 8.20323 20.0829 8.28025 20.0841 8.3596C20.0841 8.43327 20.0842 8.50694 20.0842 8.58284C20.0845 8.68275 20.0845 8.68275 20.0848 8.78468C20.0594 8.95508 20.0594 8.95508 19.9681 9.07661C19.7126 9.26418 19.4378 9.2383 19.1359 9.23765C19.0568 9.23789 19.0568 9.23789 18.9761 9.23812C18.7988 9.23856 18.6215 9.2385 18.4443 9.23844C18.3174 9.23865 18.1905 9.23888 18.0636 9.23914C17.7186 9.23974 17.3736 9.2399 17.0285 9.23995C16.7407 9.24001 16.4529 9.24026 16.1652 9.24051C15.4864 9.24106 14.8076 9.24123 14.1288 9.24118C13.4279 9.24114 12.7271 9.24186 12.0262 9.24294C11.425 9.24383 10.8238 9.2442 10.2226 9.24416C9.86326 9.24414 9.50396 9.24434 9.14465 9.24506C8.80682 9.24572 8.469 9.24573 8.13117 9.24523C8.00705 9.24516 7.88293 9.24532 7.75881 9.24573C7.58963 9.24625 7.42047 9.24594 7.25128 9.24541C7.20195 9.24577 7.15262 9.24612 7.10179 9.24648C6.85309 9.24476 6.66476 9.23344 6.45585 9.09179C6.26579 8.84441 6.29651 8.54402 6.29777 8.24585C6.29612 8.17169 6.29612 8.17169 6.29444 8.09604C6.29398 7.57046 6.40779 7.17415 6.52421 6.63086C4.7872 6.63086 3.05019 6.63086 1.26054 6.63086C1.26054 15.6317 1.26054 24.6326 1.26054 33.9062C9.13349 33.9062 17.0064 33.9062 25.118 33.9062C25.118 33.6355 25.118 33.3648 25.118 33.0859C25.3914 32.8125 25.3914 32.8125 25.5281 32.7762C25.5732 32.7769 25.6184 32.7776 25.6648 32.7783C25.7325 32.7773 25.7325 32.7773 25.8016 32.7762C26.0011 32.8292 26.0814 32.928 26.2117 33.0859C26.246 33.2632 26.246 33.2632 26.2456 33.4619C26.2457 33.5338 26.2457 33.6057 26.2458 33.6798C26.2444 33.7545 26.243 33.8293 26.2416 33.9062C26.2421 33.981 26.2426 34.0557 26.2431 34.1327C26.238 34.7679 26.238 34.7679 26.0066 35C25.817 35.0342 25.817 35.0342 25.5816 35.0342C25.492 35.0349 25.4025 35.0356 25.3102 35.0363C25.2102 35.0356 25.1102 35.0349 25.0102 35.0343C24.9044 35.0345 24.7986 35.0349 24.6929 35.0354C24.4014 35.0364 24.11 35.0357 23.8186 35.0347C23.5046 35.034 23.1906 35.0348 22.8767 35.0354C22.2613 35.0364 21.6459 35.0358 21.0305 35.0348C20.3144 35.0337 19.5983 35.0339 18.8822 35.0341C17.6048 35.0345 16.3274 35.0336 15.0501 35.0319C13.8095 35.0303 12.569 35.0298 11.3284 35.0305C9.97876 35.0313 8.62909 35.0314 7.27942 35.0304C7.1356 35.0303 6.99179 35.0302 6.84797 35.0301C6.7772 35.03 6.70643 35.03 6.63352 35.0299C6.13393 35.0296 5.63433 35.0297 5.13474 35.03C4.52621 35.0304 3.91768 35.03 3.30916 35.0286C2.99845 35.0279 2.68776 35.0276 2.37706 35.0281C2.09294 35.0286 1.80885 35.0281 1.52473 35.0269C1.42165 35.0266 1.31856 35.0267 1.21547 35.0272C1.07594 35.0277 0.936408 35.0269 0.79688 35.026C0.719197 35.0259 0.641513 35.0259 0.561475 35.0258C0.37187 35 0.371871 35 0.244393 34.9257C0.124773 34.7241 0.140981 34.5508 0.140794 34.3178C0.140317 34.2442 0.140316 34.2442 0.139829 34.169C0.139007 34.0033 0.139656 33.8375 0.140291 33.6717C0.140006 33.5522 0.139631 33.4327 0.139175 33.3131C0.138182 32.9836 0.138479 32.6542 0.138982 32.3247C0.139304 31.9698 0.138451 31.6148 0.13775 31.2599C0.136572 30.5641 0.136518 29.8684 0.136876 29.1726C0.137151 28.6073 0.137054 28.0421 0.136688 27.4768C0.136637 27.3964 0.136585 27.3161 0.136532 27.2333C0.136428 27.0702 0.136323 26.907 0.136217 26.7438C0.135278 25.2122 0.135652 23.6805 0.136435 22.1489C0.137115 20.7465 0.136229 19.3441 0.134593 17.9416C0.132928 16.503 0.132269 15.0643 0.132724 13.6257C0.132963 12.8174 0.132807 12.0092 0.131613 11.201C0.13061 10.5129 0.13056 9.82491 0.131755 9.13688C0.132339 8.7856 0.132478 8.43433 0.131437 8.08306C0.130497 7.76179 0.130808 7.44055 0.132137 7.11928C0.132396 7.00276 0.132188 6.88624 0.13148 6.76972C0.130588 6.61187 0.131364 6.45412 0.132574 6.29628C0.132581 6.20844 0.132588 6.12061 0.132596 6.03012C0.172651 5.77293 0.235404 5.69229 0.44023 5.53711C0.577432 5.50346 0.577432 5.50346 0.724845 5.50422C0.781014 5.50385 0.837183 5.50347 0.895054 5.50308C0.956074 5.50407 1.01709 5.50505 1.07996 5.50606C1.14468 5.50602 1.20939 5.50598 1.27607 5.50594C1.48988 5.50613 1.70363 5.50826 1.91743 5.5104C2.06571 5.51091 2.21398 5.5113 2.36226 5.51158C2.75246 5.51262 3.14263 5.51531 3.53282 5.51833C3.931 5.52113 4.32919 5.52238 4.72738 5.52375C5.50863 5.52669 6.28986 5.53135 7.07109 5.53711C7.09109 5.48434 7.1111 5.43158 7.1317 5.37722C7.50647 4.4814 8.48374 3.76454 9.32695 3.34961C9.37207 3.34961 9.41718 3.34961 9.46367 3.34961C9.46464 3.31057 9.46561 3.27153 9.46661 3.23131C9.51384 2.42837 9.81622 1.75478 10.3523 1.16211C10.4086 1.09284 10.4086 1.09284 10.4661 1.02218C11.1756 0.21573 12.1596 -0.013944 13.185 -0.0256381ZM11.1128 1.97387C11.0394 2.06614 10.968 2.16009 10.8992 2.25586C10.8711 2.29481 10.843 2.33375 10.814 2.37388C10.6029 2.72506 10.5734 3.11024 10.5417 3.51129C10.5169 3.79031 10.4912 3.97447 10.284 4.16992C10.1085 4.26712 10.1085 4.26712 9.90373 4.35791C8.87074 4.85509 8.06157 5.72873 7.66416 6.80843C7.52629 7.26076 7.48125 7.5805 7.48125 8.0664C11.2485 8.0664 15.0158 8.0664 18.8973 8.0664C18.7801 6.7778 18.3415 5.80542 17.3934 4.92187C16.9727 4.60266 16.5046 4.36334 16.0342 4.12613C15.8894 4.0332 15.8894 4.0332 15.8211 3.82812C15.8015 3.66447 15.7831 3.50067 15.7655 3.33679C15.7145 2.92985 15.651 2.59359 15.4109 2.25586C15.3586 2.18038 15.3586 2.18038 15.3052 2.10338C14.8901 1.57388 14.2385 1.18467 13.5652 1.09375C12.6257 1.02464 11.7666 1.26431 11.1128 1.97387Z" fill="black"/>
<path d="M4.15424 18.8572C4.26342 18.8566 4.26342 18.8566 4.37479 18.8559C4.45305 18.8558 4.53132 18.8558 4.61195 18.8557C4.69269 18.8554 4.77342 18.8552 4.85661 18.855C5.02732 18.8546 5.19804 18.8545 5.36876 18.8545C5.62995 18.8543 5.89112 18.8531 6.1523 18.8518C6.31817 18.8516 6.48404 18.8515 6.64991 18.8514C6.7671 18.8507 6.7671 18.8507 6.88665 18.8499C6.95965 18.8501 7.03264 18.8503 7.10785 18.8506C7.17184 18.8505 7.23584 18.8504 7.30177 18.8503C7.57624 18.8761 7.76431 18.9452 7.95969 19.1406C8.03641 19.3609 8.0371 19.5717 8.03798 19.8036C8.03841 19.8819 8.03885 19.9601 8.0393 20.0407C8.03938 20.125 8.03945 20.2092 8.03953 20.296C8.03987 20.4262 8.03987 20.4262 8.04022 20.5591C8.04057 20.7427 8.04076 20.9263 8.04072 21.1098C8.04071 21.3446 8.04164 21.5794 8.04282 21.8141C8.04376 22.0387 8.04372 22.2632 8.0438 22.4878C8.04429 22.5719 8.04479 22.656 8.04529 22.7427C8.04508 22.8211 8.04487 22.8996 8.04465 22.9805C8.04475 23.0493 8.04485 23.1182 8.04495 23.1891C8.02003 23.469 7.95392 23.6581 7.75461 23.8574C7.54 23.9313 7.33611 23.9351 7.11042 23.9368C6.9992 23.9378 6.9992 23.9378 6.88573 23.9388C6.80597 23.939 6.72621 23.9393 6.64404 23.9396C6.52066 23.9402 6.52066 23.9402 6.39478 23.9408C6.22085 23.9415 6.04691 23.9419 5.87298 23.9422C5.60683 23.9428 5.34072 23.945 5.07458 23.9471C4.90559 23.9476 4.73661 23.9479 4.56762 23.9482C4.488 23.949 4.40839 23.9499 4.32635 23.9507C4.25199 23.9505 4.17762 23.9503 4.10101 23.9501C4.00319 23.9505 4.00319 23.9505 3.90341 23.9509C3.6839 23.9206 3.55771 23.8509 3.37961 23.7207C3.22132 23.4832 3.22501 23.3891 3.22303 23.1087C3.22216 23.0249 3.22129 22.9412 3.22039 22.8549C3.22018 22.7634 3.22003 22.672 3.21993 22.5805C3.21949 22.4865 3.21903 22.3926 3.21855 22.2987C3.21773 22.1019 3.21748 21.905 3.21756 21.7081C3.21757 21.4562 3.21571 21.2044 3.21335 20.9526C3.21183 20.7586 3.21155 20.5646 3.21163 20.3706C3.21146 20.2777 3.21086 20.1849 3.2098 20.0921C3.20846 19.962 3.20903 19.832 3.20968 19.7019C3.20949 19.628 3.20929 19.5541 3.20909 19.4779C3.25154 19.226 3.33499 19.1131 3.51633 18.9355C3.72283 18.849 3.93202 18.8581 4.15424 18.8572ZM4.405 20.0293C4.405 20.9316 4.405 21.834 4.405 22.7636C5.21711 22.7636 6.02922 22.7636 6.86594 22.7636C6.86594 21.8613 6.86594 20.959 6.86594 20.0293C6.05383 20.0293 5.24172 20.0293 4.405 20.0293Z" fill="black"/>
<path d="M4.03389 26.0328C4.11215 26.032 4.19041 26.0311 4.27105 26.0302C4.35564 26.0297 4.44024 26.0292 4.5274 26.0287C4.6143 26.0281 4.7012 26.0275 4.79074 26.027C4.97474 26.026 5.15873 26.0253 5.34273 26.0248C5.57805 26.024 5.81332 26.0217 6.04862 26.0189C6.27355 26.0167 6.49849 26.0164 6.72344 26.0158C6.84992 26.014 6.84992 26.014 6.97895 26.0122C7.05764 26.0124 7.13633 26.0126 7.21741 26.0128C7.321 26.0122 7.321 26.0122 7.42667 26.0116C7.67183 26.0546 7.78488 26.1427 7.95872 26.3184C8.04907 26.5314 8.03614 26.752 8.037 26.9814C8.03744 27.0596 8.03788 27.1379 8.03833 27.2185C8.0384 27.3028 8.03848 27.387 8.03856 27.4738C8.0389 27.604 8.0389 27.604 8.03925 27.7369C8.03959 27.9205 8.03978 28.104 8.03974 28.2876C8.03973 28.5224 8.04067 28.7571 8.04185 28.9919C8.04279 29.2165 8.04275 29.441 8.04283 29.6656C8.04332 29.7497 8.04381 29.8338 8.04432 29.9204C8.04411 29.9989 8.0439 30.0774 8.04368 30.1582C8.04378 30.2271 8.04388 30.2959 8.04398 30.3669C8.02573 30.5717 7.98492 30.7161 7.89036 30.8985C7.65354 31.0563 7.56182 31.0527 7.28246 31.0539C7.19966 31.0546 7.11685 31.0553 7.03153 31.0559C6.94202 31.0559 6.85251 31.0558 6.76029 31.0557C6.66758 31.056 6.57488 31.0563 6.48217 31.0566C6.28794 31.0571 6.09372 31.0571 5.89949 31.0568C5.65053 31.0564 5.4016 31.0575 5.15264 31.0591C4.96123 31.0601 4.76982 31.0602 4.57841 31.06C4.44197 31.06 4.30553 31.061 4.1691 31.0619C4.04489 31.0613 4.04489 31.0613 3.91817 31.0606C3.84516 31.0607 3.77216 31.0607 3.69694 31.0608C3.51536 31.0352 3.51536 31.0352 3.39191 30.9439C3.22662 30.7135 3.23266 30.498 3.2309 30.2244C3.23025 30.142 3.22959 30.0596 3.22891 29.9748C3.22862 29.8857 3.22833 29.7966 3.22803 29.7048C3.22764 29.6125 3.22725 29.5201 3.22685 29.4277C3.22613 29.234 3.22573 29.0404 3.2255 28.8467C3.22512 28.599 3.22348 28.3513 3.22153 28.1036C3.22026 27.9128 3.2199 27.722 3.2198 27.5311C3.21949 27.3955 3.21822 27.2599 3.21693 27.1243C3.21714 27.0415 3.21734 26.9587 3.21755 26.8734C3.2173 26.8007 3.21705 26.728 3.2168 26.6531C3.24585 26.4241 3.30738 26.2961 3.447 26.1133C3.65967 26.0424 3.81075 26.035 4.03389 26.0328ZM4.40403 27.207C4.40403 28.1094 4.40403 29.0117 4.40403 29.9414C5.21614 29.9414 6.02825 29.9414 6.86497 29.9414C6.86497 29.0391 6.86497 28.1367 6.86497 27.207C6.05286 27.207 5.24075 27.207 4.40403 27.207Z" fill="black"/>
<path d="M3.9318 11.7841C4.05806 11.7831 4.05806 11.7831 4.18687 11.7822C4.27844 11.7832 4.37 11.7844 4.46157 11.7856C4.55571 11.7857 4.64985 11.7857 4.744 11.7856C4.94105 11.7857 5.13806 11.7869 5.33511 11.7891C5.58767 11.7918 5.84017 11.7921 6.09275 11.7916C6.28704 11.7914 6.48132 11.7922 6.67561 11.7934C6.76874 11.7939 6.86187 11.7941 6.955 11.794C7.08508 11.7941 7.21516 11.7958 7.34523 11.7974C7.41925 11.798 7.49326 11.7986 7.56951 11.7992C7.75324 11.8262 7.75324 11.8262 7.877 11.9134C8.04556 12.1577 8.03551 12.4047 8.0366 12.6942C8.03704 12.7725 8.03748 12.8508 8.03793 12.9314C8.038 13.0156 8.03808 13.0999 8.03816 13.1867C8.0385 13.3169 8.0385 13.3169 8.03885 13.4497C8.03919 13.6333 8.03938 13.8169 8.03934 14.0005C8.03933 14.2352 8.04027 14.47 8.04144 14.7048C8.04239 14.9293 8.04235 15.1539 8.04243 15.3784C8.04292 15.4625 8.04341 15.5466 8.04392 15.6333C8.04371 15.7118 8.0435 15.7902 8.04328 15.8711C8.04338 15.9399 8.04347 16.0088 8.04357 16.0797C8.02494 16.289 7.99252 16.4276 7.88996 16.6113C7.64862 16.8013 7.46662 16.842 7.16337 16.8418C7.08786 16.8423 7.01234 16.8427 6.93454 16.8431C6.81319 16.8422 6.81319 16.8422 6.68939 16.8412C6.60572 16.8413 6.52204 16.8413 6.43583 16.8413C6.25909 16.8412 6.08234 16.8405 5.9056 16.8394C5.63511 16.8378 5.36466 16.838 5.09416 16.8384C4.92237 16.838 4.75059 16.8375 4.5788 16.8369C4.4979 16.837 4.417 16.8371 4.33365 16.8371C4.25814 16.8365 4.18262 16.8358 4.10482 16.8352C4.0055 16.8347 4.0055 16.8347 3.90417 16.8342C3.70071 16.8145 3.55807 16.7772 3.37824 16.6797C3.21779 16.4633 3.22352 16.2549 3.22166 15.9915C3.22079 15.9078 3.21991 15.8241 3.21901 15.7378C3.21886 15.6476 3.21871 15.5574 3.21855 15.4644C3.21811 15.3706 3.21765 15.2768 3.21717 15.183C3.21636 14.9865 3.2161 14.7901 3.21618 14.5936C3.2162 14.3423 3.21433 14.091 3.21198 13.8397C3.21045 13.646 3.21018 13.4523 3.21025 13.2585C3.21001 13.121 3.20853 12.9834 3.20703 12.8459C3.20745 12.7619 3.20787 12.678 3.20831 12.5915C3.20811 12.5178 3.20792 12.4441 3.20772 12.3681C3.28249 11.9253 3.5008 11.7833 3.9318 11.7841ZM4.40363 12.8515C4.40363 13.7539 4.40363 14.6562 4.40363 15.5859C5.21574 15.5859 6.02785 15.5859 6.86456 15.5859C6.86456 14.6836 6.86456 13.7812 6.86456 12.8515C6.05246 12.8515 5.24035 12.8515 4.40363 12.8515Z" fill="black"/>
<path d="M14.1627 2.23425C14.6867 2.54133 14.9916 2.91691 15.205 3.48635C15.3561 4.11314 15.3034 4.73571 14.9673 5.29493C14.6142 5.78112 14.2101 6.05809 13.6327 6.22072C12.9168 6.29367 12.3698 6.19428 11.7699 5.80202C11.3099 5.32109 11.0747 4.80356 11.0137 4.14431C11.0641 3.55915 11.2587 3.04091 11.6503 2.59768C12.3632 2.00102 13.3038 1.82946 14.1627 2.23425ZM12.2997 3.60171C12.1667 3.89531 12.1425 4.12639 12.1971 4.44338C12.3473 4.77508 12.5448 4.9396 12.8706 5.08372C13.1183 5.15669 13.3218 5.1458 13.5643 5.05861C13.821 4.90529 13.9978 4.72128 14.1112 4.44338C14.1613 4.12299 14.1416 3.88668 13.9916 3.59743C13.7386 3.30231 13.5675 3.17207 13.1649 3.13601C12.7986 3.15724 12.5431 3.34008 12.2997 3.60171Z" fill="black"/>
<path d="M9.71886 13.6623C9.81602 13.6617 9.81602 13.6617 9.91516 13.6611C9.98576 13.661 10.0564 13.661 10.1291 13.6609C10.2412 13.6604 10.2412 13.6604 10.3555 13.6599C10.6029 13.6589 10.8502 13.6584 11.0975 13.658C11.2693 13.6576 11.4411 13.6572 11.613 13.6568C11.9272 13.6562 12.2415 13.6558 12.5558 13.6556C13.0178 13.6553 13.4797 13.6541 13.9417 13.6521C14.3424 13.6504 14.7431 13.6499 15.1438 13.6498C15.314 13.6496 15.4843 13.649 15.6545 13.6481C15.8926 13.647 16.1307 13.6471 16.3688 13.6475C16.4391 13.6469 16.5094 13.6463 16.5819 13.6456C16.9476 13.6478 17.2172 13.6643 17.5302 13.877C17.6168 14.0787 17.6163 14.2746 17.5986 14.4922C17.5132 14.6631 17.5132 14.6631 17.3935 14.7657C17.1956 14.8316 17.0704 14.8427 16.8646 14.8432C16.7647 14.8436 16.7647 14.8436 16.6627 14.844C16.5898 14.844 16.5168 14.844 16.4416 14.8439C16.3262 14.8443 16.3262 14.8443 16.2085 14.8446C15.9534 14.8453 15.6984 14.8454 15.4434 14.8455C15.2666 14.8457 15.0897 14.8459 14.9129 14.8462C14.542 14.8466 14.171 14.8467 13.8001 14.8467C13.3713 14.8466 12.9426 14.8474 12.5139 14.8484C12.1014 14.8494 11.6889 14.8497 11.2764 14.8496C11.1009 14.8497 10.9254 14.85 10.7499 14.8506C10.5048 14.8512 10.2596 14.851 10.0145 14.8506C9.94162 14.851 9.86878 14.8514 9.79373 14.8518C9.72693 14.8515 9.66013 14.8512 9.5913 14.8509C9.50437 14.851 9.50437 14.851 9.41567 14.851C9.24214 14.8322 9.13249 14.7902 8.98532 14.6973C8.90579 14.5382 8.90336 14.4343 8.89987 14.2572C8.89723 14.177 8.89723 14.177 8.89453 14.0951C8.91696 13.9453 8.91696 13.9453 9.00348 13.8276C9.22228 13.6664 9.45394 13.6633 9.71886 13.6623Z" fill="black"/>
<path d="M9.20743 27.9489C9.26867 27.9484 9.32991 27.9479 9.393 27.9474C9.46037 27.9472 9.52774 27.9471 9.59715 27.9469C9.66796 27.9464 9.73877 27.946 9.81173 27.9455C10.0468 27.9442 10.2819 27.9434 10.517 27.9427C10.5971 27.9424 10.6773 27.9421 10.7598 27.9418C11.184 27.9404 11.6081 27.9394 12.0322 27.9388C12.4708 27.938 12.9094 27.9357 13.348 27.933C13.6848 27.9312 14.0216 27.9306 14.3584 27.9304C14.5201 27.93 14.6818 27.9292 14.8435 27.928C15.0697 27.9263 15.2958 27.9264 15.522 27.9268C15.5889 27.926 15.6559 27.9251 15.7249 27.9242C16.0213 27.9265 16.1853 27.9315 16.4427 28.0892C16.5829 28.2446 16.6157 28.3002 16.606 28.5058C16.5901 28.7433 16.5498 28.8893 16.3668 29.0527C16.1729 29.1149 15.9961 29.1299 15.7933 29.1307C15.7337 29.1311 15.6741 29.1315 15.6127 29.1319C15.5479 29.1319 15.483 29.132 15.4162 29.1321C15.3475 29.1324 15.2787 29.1328 15.2079 29.1331C14.9806 29.1341 14.7532 29.1346 14.5259 29.135C14.3679 29.1354 14.2098 29.1358 14.0518 29.1362C13.7205 29.1369 13.3891 29.1373 13.0578 29.1375C12.6333 29.1379 12.2088 29.1395 11.7843 29.1415C11.4579 29.1427 11.1315 29.1431 10.8051 29.1432C10.6486 29.1434 10.4921 29.144 10.3356 29.1449C10.1167 29.146 9.89775 29.1459 9.67881 29.1455C9.61423 29.1461 9.54966 29.1467 9.48313 29.1474C9.12931 29.1451 8.87888 29.1167 8.57381 28.916C8.48306 28.7368 8.48111 28.5673 8.50545 28.3691C8.70167 28.0511 8.84277 27.9509 9.20743 27.9489Z" fill="black"/>
<path d="M9.66306 20.8142C9.70924 20.8138 9.75541 20.8133 9.80298 20.8128C9.95486 20.8116 10.1067 20.8124 10.2585 20.8133C10.3645 20.8131 10.4705 20.8129 10.5765 20.8125C10.7983 20.8121 11.0201 20.8127 11.2419 20.814C11.5258 20.8155 11.8096 20.8146 12.0935 20.813C12.3122 20.812 12.531 20.8123 12.7497 20.813C12.8544 20.8132 12.959 20.813 13.0637 20.8124C13.2101 20.8117 13.3565 20.8127 13.5029 20.8142C13.5862 20.8145 13.6694 20.8147 13.7551 20.8149C14.0183 20.8563 14.1314 20.9353 14.3174 21.1231C14.4012 21.3693 14.408 21.4816 14.3046 21.7212C14.1707 21.8874 14.104 21.9367 13.9072 22.0117C13.7002 22.0296 13.7002 22.0296 13.4549 22.0305C13.3876 22.031 13.3876 22.031 13.319 22.0316C13.1712 22.0325 13.0235 22.0324 12.8757 22.0323C12.7727 22.0326 12.6697 22.0329 12.5667 22.0332C12.3509 22.0337 12.1351 22.0337 11.9193 22.0333C11.6432 22.0329 11.3671 22.0341 11.0909 22.0357C10.8782 22.0367 10.6655 22.0367 10.4528 22.0365C10.351 22.0365 10.2492 22.0369 10.1474 22.0376C10.0049 22.0384 9.86247 22.038 9.71996 22.0372C9.63896 22.0372 9.55797 22.0373 9.47452 22.0373C9.23653 22.0091 9.10769 21.9493 8.91698 21.8067C8.80986 21.5924 8.79041 21.3533 8.84862 21.1231C9.11372 20.8584 9.29339 20.8152 9.66306 20.8142Z" fill="black"/>
</g>
<defs>
<clipPath id="clip0_670_15056">
<rect width="35" height="35" fill="white" transform="translate(0.166016)"/>
</clipPath>
</defs>
</svg>
