<svg width="36" height="35" viewBox="0 0 36 35" fill="none" xmlns="http://www.w3.org/2000/svg">
<path d="M2.17397 6.52808C2.23531 6.52737 2.29664 6.52666 2.35983 6.52592C2.4605 6.52684 2.4605 6.52684 2.56319 6.52777C2.6347 6.52734 2.7062 6.52692 2.77987 6.52648C3.02024 6.52539 3.26056 6.52625 3.50093 6.52711C3.67294 6.52674 3.84495 6.52625 4.01696 6.52566C4.43612 6.52454 4.85526 6.52471 5.27442 6.5255C5.61504 6.52612 5.95565 6.5262 6.29626 6.5259C6.34472 6.52586 6.39317 6.52582 6.44309 6.52578C6.54152 6.52569 6.63995 6.5256 6.73837 6.52551C7.66162 6.52473 8.58486 6.52563 9.50811 6.5271C10.3005 6.52832 11.0929 6.52811 11.8854 6.52684C12.8053 6.52538 13.7252 6.52481 14.6451 6.52565C14.7432 6.52573 14.8412 6.52582 14.9393 6.5259C14.9876 6.52595 15.0358 6.52599 15.0855 6.52603C15.4258 6.52627 15.766 6.52587 16.1063 6.52522C16.5642 6.52438 17.022 6.52498 17.4798 6.52656C17.6482 6.52693 17.8165 6.52682 17.9848 6.52622C18.214 6.52547 18.4432 6.5264 18.6724 6.52777C18.7395 6.52716 18.8066 6.52655 18.8757 6.52592C19.3246 6.53114 19.3246 6.53114 19.5458 6.69166C19.6593 6.86321 19.6758 6.95912 19.6766 7.16384C19.6775 7.22863 19.6783 7.29342 19.6792 7.36018C19.6784 7.46443 19.6784 7.46443 19.6775 7.57079C19.6778 7.64259 19.6781 7.71438 19.6783 7.78836C19.6785 7.94005 19.678 8.09175 19.6769 8.24344C19.6754 8.47572 19.6769 8.70785 19.6786 8.94012C19.6784 9.08752 19.6781 9.23492 19.6775 9.38232C19.6781 9.45182 19.6786 9.52133 19.6792 9.59294C19.6728 10.0735 19.6728 10.0735 19.5108 10.2976C19.3566 10.3979 19.2768 10.4276 19.0943 10.4248C19.0492 10.4255 19.0041 10.4262 18.9576 10.4269C18.8209 10.3906 18.8209 10.3906 18.5475 10.1172C18.5475 9.30507 18.5475 8.49296 18.5475 7.65624C13.3139 7.65624 8.08028 7.65624 2.6881 7.65624C2.6881 8.73906 2.6881 9.82187 2.6881 10.9375C2.99314 10.9361 3.29819 10.9346 3.61248 10.9332C4.61875 10.9286 5.62501 10.9256 6.63128 10.9233C7.24157 10.9219 7.85185 10.92 8.46213 10.9169C8.99398 10.9141 9.52584 10.9124 10.0577 10.9118C10.3394 10.9114 10.621 10.9106 10.9027 10.9086C11.1678 10.9067 11.4328 10.9062 11.6979 10.9066C11.7952 10.9065 11.8925 10.9059 11.9899 10.9049C12.1227 10.9035 12.2555 10.904 12.3883 10.9046C12.4627 10.9044 12.537 10.9041 12.6136 10.9038C12.8512 10.9456 12.9313 11.024 13.0787 11.2109C13.115 11.3476 13.115 11.3476 13.1129 11.4844C13.114 11.552 13.114 11.552 13.115 11.6211C13.0617 11.822 12.9657 11.9011 12.8053 12.0312C12.6136 12.0649 12.6136 12.0649 12.3883 12.0641C12.3028 12.0645 12.2173 12.0649 12.1292 12.0653C12.0346 12.0643 11.9401 12.0633 11.8455 12.0623C11.7458 12.0622 11.6461 12.0623 11.5464 12.0624C11.2758 12.0625 11.0052 12.0609 10.7346 12.059C10.4518 12.0573 10.169 12.0571 9.88613 12.0568C9.3506 12.0559 8.81509 12.0537 8.27957 12.0509C7.66988 12.0479 7.06019 12.0464 6.4505 12.045C5.19635 12.0421 3.94223 12.0371 2.6881 12.0312C2.6881 13.2268 2.6881 14.4225 2.6881 15.6543C2.97658 15.6529 3.26506 15.6514 3.56228 15.65C4.51398 15.6454 5.46567 15.6424 6.41737 15.6401C6.99455 15.6387 7.57173 15.6368 8.1489 15.6337C8.65192 15.6309 9.15493 15.6292 9.65795 15.6286C9.92435 15.6282 10.1907 15.6274 10.4571 15.6254C10.7078 15.6235 10.9585 15.623 11.2092 15.6234C11.3451 15.6233 11.4811 15.6218 11.617 15.6203C11.6979 15.6206 11.7788 15.621 11.8622 15.6214C11.9325 15.6212 12.0028 15.6209 12.0753 15.6206C12.3069 15.6632 12.3874 15.7456 12.5318 15.9277C12.5706 16.0794 12.5706 16.0794 12.5703 16.2353C12.5718 16.2868 12.5733 16.3383 12.5748 16.3913C12.5105 16.6182 12.3831 16.6873 12.19 16.8164C11.9996 16.85 11.9996 16.85 11.7882 16.8493C11.7078 16.8497 11.6274 16.85 11.5445 16.8504C11.4569 16.8494 11.3693 16.8485 11.279 16.8474C11.1853 16.8474 11.0917 16.8474 10.998 16.8476C10.7442 16.8476 10.4905 16.846 10.2367 16.8441C9.97128 16.8424 9.70588 16.8423 9.44048 16.8419C8.93812 16.8411 8.43578 16.8388 7.93343 16.8361C7.36143 16.833 6.78943 16.8315 6.21743 16.8302C5.04097 16.8273 3.86454 16.8223 2.6881 16.8164C2.6881 17.9894 2.6881 19.1625 2.6881 20.3711C2.97415 20.3697 3.2602 20.3682 3.55492 20.3667C4.49898 20.3622 5.44303 20.3592 6.38709 20.3569C6.9596 20.3555 7.53209 20.3536 8.10459 20.3505C8.60358 20.3477 9.10256 20.346 9.60155 20.3454C9.86577 20.345 10.13 20.3442 10.3942 20.3422C10.6429 20.3403 10.8916 20.3397 11.1404 20.3402C11.2751 20.34 11.4098 20.3386 11.5445 20.3371C11.6249 20.3374 11.7054 20.3378 11.7882 20.3382C11.8928 20.3378 11.8928 20.3378 11.9996 20.3374C12.2417 20.3802 12.3571 20.475 12.5318 20.6445C12.5772 20.7962 12.5772 20.7962 12.5746 20.9521C12.5755 21.0036 12.5763 21.0551 12.5772 21.1081C12.5097 21.3337 12.383 21.4041 12.19 21.5332C11.9996 21.5668 11.9996 21.5668 11.7882 21.5661C11.7078 21.5665 11.6274 21.5668 11.5445 21.5672C11.4569 21.5662 11.3693 21.5653 11.279 21.5642C11.1853 21.5642 11.0917 21.5642 10.998 21.5644C10.7442 21.5644 10.4905 21.5628 10.2367 21.5609C9.97128 21.5592 9.70588 21.5591 9.44048 21.5587C8.93812 21.5579 8.43578 21.5556 7.93343 21.5529C7.36143 21.5498 6.78943 21.5483 6.21743 21.547C5.04097 21.5441 3.86454 21.5391 2.6881 21.5332C2.6881 22.7288 2.6881 23.9244 2.6881 25.1562C2.97658 25.1548 3.26506 25.1534 3.56228 25.1519C4.51398 25.1474 5.46567 25.1443 6.41737 25.1421C6.99455 25.1407 7.57173 25.1387 8.1489 25.1356C8.65192 25.1329 9.15493 25.1311 9.65795 25.1305C9.92435 25.1302 10.1907 25.1293 10.4571 25.1273C10.7078 25.1255 10.9585 25.1249 11.2092 25.1253C11.3451 25.1252 11.4811 25.1237 11.617 25.1222C11.6979 25.1226 11.7788 25.123 11.8622 25.1234C11.9325 25.1231 12.0028 25.1229 12.0753 25.1226C12.3066 25.1651 12.3871 25.2483 12.5318 25.4297C12.5682 25.5664 12.5682 25.5664 12.566 25.7031C12.5667 25.7482 12.5674 25.7934 12.5682 25.8398C12.515 26.0401 12.4176 26.1198 12.2584 26.25C12.0753 26.2836 12.0753 26.2836 11.8622 26.2829C11.7813 26.2833 11.7004 26.2836 11.617 26.284C11.5285 26.283 11.44 26.282 11.3488 26.281C11.2545 26.281 11.1602 26.281 11.0659 26.2812C10.8099 26.2812 10.5541 26.2796 10.2982 26.2777C10.0307 26.276 9.76317 26.2758 9.49567 26.2755C8.98919 26.2747 8.48273 26.2724 7.97627 26.2697C7.29183 26.2661 6.60738 26.2646 5.92293 26.263C4.84464 26.2604 3.76638 26.255 2.6881 26.25C2.6881 27.6937 2.6881 29.1375 2.6881 30.625C3.21787 30.6218 3.74765 30.6186 4.29347 30.6154C4.62868 30.614 4.96389 30.6127 5.2991 30.6116C5.83141 30.61 6.36371 30.6081 6.896 30.6044C7.32505 30.6014 7.75409 30.5998 8.18315 30.599C8.34701 30.5985 8.51088 30.5976 8.67473 30.5961C8.90389 30.5941 9.13299 30.5938 9.36215 30.594C9.4302 30.593 9.49825 30.592 9.56837 30.591C10.028 30.5937 10.028 30.5937 10.2497 30.7551C10.3517 30.9096 10.3814 30.9883 10.3785 31.1719C10.3792 31.217 10.3799 31.2621 10.3807 31.3086C10.328 31.507 10.2269 31.5883 10.0709 31.7187C9.90992 31.7532 9.90992 31.7532 9.72844 31.7535C9.62494 31.7546 9.62494 31.7546 9.51934 31.7558C9.44405 31.7552 9.36876 31.7547 9.29118 31.7541C9.21157 31.7546 9.13196 31.7551 9.04994 31.7556C8.78641 31.7568 8.52292 31.756 8.25939 31.7551C8.07651 31.7552 7.89365 31.7555 7.71077 31.7559C7.32736 31.7563 6.94396 31.7557 6.56055 31.7544C6.1174 31.7529 5.67429 31.7534 5.23114 31.7549C4.85052 31.7561 4.46992 31.7563 4.0893 31.7556C3.86203 31.7552 3.63479 31.7552 3.40752 31.756C3.15416 31.7567 2.90086 31.7556 2.64751 31.7541C2.57222 31.7547 2.49692 31.7552 2.41935 31.7558C2.35035 31.755 2.28134 31.7543 2.21025 31.7535C2.15036 31.7534 2.09048 31.7533 2.02878 31.7532C1.80798 31.706 1.73477 31.6204 1.59435 31.4453C1.56007 31.2539 1.56007 31.2539 1.55994 31.0281C1.55922 30.942 1.55851 30.8559 1.55778 30.7672C1.55837 30.6715 1.55898 30.5757 1.55962 30.48C1.55931 30.3784 1.55887 30.2769 1.55833 30.1753C1.55719 29.8959 1.55776 29.6165 1.5586 29.337C1.55922 29.0358 1.55827 28.7346 1.55751 28.4334C1.5563 27.8432 1.55656 27.2529 1.55735 26.6627C1.55797 26.1831 1.55805 25.7035 1.55776 25.224C1.55771 25.1558 1.55767 25.0876 1.55763 25.0173C1.55754 24.8788 1.55745 24.7403 1.55736 24.6018C1.55658 23.3023 1.55748 22.0027 1.55895 20.7031C1.56017 19.5873 1.55996 18.4716 1.5587 17.3558C1.55724 16.061 1.55666 14.7661 1.5575 13.4713C1.55759 13.3333 1.55767 13.1953 1.55776 13.0573C1.55782 12.9554 1.55782 12.9554 1.55788 12.8515C1.55812 12.3723 1.55772 11.8932 1.55708 11.414C1.55631 10.8303 1.55652 10.2466 1.55798 9.66292C1.5587 9.36494 1.55897 9.06698 1.55807 8.76901C1.55726 8.49644 1.5577 8.2239 1.55916 7.95134C1.55947 7.85253 1.55931 7.75372 1.55865 7.65491C1.55782 7.52099 1.55883 7.38707 1.55994 7.25315C1.55998 7.17864 1.56003 7.10414 1.56007 7.02737C1.62328 6.67431 1.82457 6.52838 2.17397 6.52808Z" fill="black"/>
<path d="M16.4089 24.036C16.4874 24.0353 16.5658 24.0347 16.6467 24.034C16.7734 24.0346 16.7734 24.0346 16.9026 24.0353C16.9896 24.0351 17.0766 24.0349 17.1662 24.0347C17.3501 24.0345 17.5339 24.0348 17.7178 24.0358C17.9532 24.0369 18.1885 24.0363 18.4239 24.035C18.6488 24.0341 18.8737 24.0347 19.0987 24.0353C19.1831 24.0348 19.2676 24.0344 19.3546 24.034C19.4723 24.035 19.4723 24.035 19.5924 24.036C19.6959 24.0362 19.6959 24.0362 19.8015 24.0364C20.0113 24.0665 20.1033 24.1238 20.2565 24.2676C20.3377 24.4164 20.3377 24.4164 20.4028 24.5867C20.4385 24.6782 20.4385 24.6782 20.4749 24.7716C20.5106 24.8668 20.5106 24.8668 20.547 24.964C20.5719 25.0283 20.5967 25.0925 20.6223 25.1588C20.6834 25.3172 20.7437 25.4758 20.8034 25.6348C20.833 25.5586 20.8626 25.4825 20.8931 25.404C21.0085 25.1562 21.0085 25.1562 21.2135 25.0195C21.5009 24.9853 21.6485 24.9937 21.8995 25.1426C21.9678 25.1993 22.0361 25.2559 22.1065 25.3143C22.1843 25.3775 22.2621 25.4407 22.3399 25.5039C22.3795 25.5368 22.4192 25.5698 22.4601 25.6037C22.6166 25.7327 22.7762 25.8574 22.9361 25.9821C23.0553 26.0751 23.174 26.1686 23.2926 26.2623C23.4639 26.3973 23.636 26.5314 23.8085 26.665C23.8526 26.6992 23.8966 26.7334 23.942 26.7687C24.0269 26.8346 24.112 26.9004 24.1972 26.9659C24.4871 27.1917 24.4871 27.1917 24.5631 27.3437C24.571 27.5404 24.5746 27.7355 24.5752 27.9322C24.5757 27.9932 24.5761 28.0541 24.5766 28.1169C24.578 28.319 24.5787 28.5211 24.5794 28.7232C24.5797 28.7921 24.58 28.861 24.5803 28.9321C24.5817 29.2967 24.5827 29.6614 24.5833 30.026C24.5841 30.4032 24.5864 30.7803 24.5891 31.1575C24.5909 31.447 24.5915 31.7366 24.5917 32.0262C24.5921 32.1653 24.5929 32.3043 24.5941 32.4434C24.5958 32.6378 24.5957 32.8322 24.5953 33.0266C24.5966 33.113 24.5966 33.113 24.5979 33.2012C24.5959 33.4318 24.5914 33.5928 24.4561 33.7843C24.2342 33.9469 24.046 33.9443 23.7811 33.941C23.7297 33.9414 23.6783 33.9418 23.6254 33.9423C23.453 33.9433 23.2807 33.9425 23.1084 33.9416C22.9849 33.942 22.8613 33.9425 22.7378 33.9431C22.4022 33.9443 22.0667 33.9438 21.7311 33.943C21.3802 33.9423 21.0292 33.9429 20.6783 33.9433C20.0889 33.9438 19.4995 33.9432 18.9101 33.9419C18.2284 33.9404 17.5467 33.9409 16.865 33.9424C16.28 33.9436 15.6951 33.9438 15.1101 33.9431C14.7606 33.9427 14.4111 33.9426 14.0615 33.9435C13.733 33.9443 13.4044 33.9438 13.0758 33.9422C12.9551 33.9418 12.8344 33.9419 12.7137 33.9425C12.5492 33.9433 12.3847 33.9423 12.2201 33.941C12.1722 33.9416 12.1242 33.9422 12.0748 33.9428C11.8497 33.9392 11.7287 33.9188 11.5453 33.7842C11.3791 33.5494 11.3995 33.307 11.4017 33.0299C11.4011 32.969 11.4005 32.9082 11.3999 32.8455C11.3983 32.6445 11.3988 32.4435 11.3994 32.2424C11.3991 32.1026 11.3986 31.9628 11.3981 31.823C11.3974 31.53 11.3977 31.237 11.3987 30.944C11.3999 30.5685 11.3983 30.1931 11.3959 29.8176C11.3944 29.5289 11.3945 29.2402 11.3951 28.9515C11.3951 28.8131 11.3947 28.6747 11.3936 28.5362C11.3925 28.3426 11.3934 28.1491 11.395 27.9555C11.3942 27.8984 11.3934 27.8412 11.3926 27.7823C11.3974 27.4866 11.4099 27.3782 11.6042 27.1412C11.6622 27.0953 11.7202 27.0493 11.7799 27.0019C11.8198 26.9669 11.8596 26.9318 11.9007 26.8957C11.9373 26.8659 11.974 26.8361 12.0117 26.8054C12.054 26.7709 12.0964 26.7365 12.14 26.701C12.1847 26.6649 12.2294 26.6289 12.2755 26.5918C12.3226 26.5537 12.3696 26.5157 12.4181 26.4765C12.9125 26.0785 13.4156 25.6919 13.9228 25.3104C14.0134 25.2416 14.1025 25.1707 14.1909 25.0991C14.3929 24.9632 14.553 24.9866 14.7878 25.0195C15.0267 25.2065 15.1388 25.3407 15.1979 25.6348C15.213 25.5944 15.2282 25.5541 15.2438 25.5125C15.3131 25.3293 15.3836 25.1467 15.4543 24.964C15.478 24.9005 15.5018 24.837 15.5264 24.7716C15.562 24.6801 15.562 24.6801 15.5985 24.5867C15.6199 24.5305 15.6414 24.4743 15.6635 24.4164C15.8398 24.0935 16.0557 24.0368 16.4089 24.036ZM16.7018 25.1562C16.4163 25.6286 16.4163 25.6286 16.4254 25.8865C16.5215 26.0999 16.65 26.2289 16.8174 26.3923C16.8651 26.4394 16.8651 26.4394 16.9137 26.4874C17.0148 26.587 17.1167 26.6855 17.2188 26.784C17.2877 26.8516 17.3565 26.9192 17.4253 26.9869C17.5936 27.1521 17.7627 27.3165 17.9323 27.4805C18.329 27.3107 18.6079 26.9752 18.9107 26.6772C18.9752 26.6161 19.0398 26.5549 19.1063 26.4919C19.1669 26.4322 19.2276 26.3724 19.2901 26.3109C19.346 26.2566 19.4019 26.2024 19.4595 26.1465C19.5921 25.9828 19.5921 25.9828 19.5692 25.7762C19.4984 25.5261 19.4984 25.5261 19.2995 25.1562C18.4422 25.1562 17.585 25.1562 16.7018 25.1562ZM15.0612 25.8398C14.9823 25.9195 14.9034 25.9992 14.8249 26.0793C14.6304 26.268 14.4178 26.4349 14.2067 26.6046C14.159 26.6431 14.1113 26.6817 14.0622 26.7214C12.986 27.5879 12.986 27.5879 12.5319 27.8906C12.5018 28.1035 12.5018 28.1035 12.5086 28.358C12.5086 28.406 12.5086 28.454 12.5085 28.5035C12.5087 28.6626 12.5103 28.8216 12.5119 28.9806C12.5122 29.0908 12.5125 29.2009 12.5127 29.3111C12.5135 29.6013 12.5155 29.8914 12.5178 30.1816C12.5203 30.5296 12.5212 30.8776 12.5224 31.2257C12.5244 31.7546 12.5283 32.2835 12.5319 32.8125C13.547 32.8125 14.5622 32.8125 15.6081 32.8125C15.7197 32.2066 15.7197 32.2066 15.8042 31.6C15.8138 31.5181 15.8234 31.4362 15.8332 31.3518C15.843 31.266 15.8528 31.1802 15.8628 31.0918C15.8733 31.0005 15.8839 30.9092 15.8944 30.8179C15.9163 30.6282 15.938 30.4383 15.9595 30.2485C15.9871 30.0063 16.0151 29.7642 16.0432 29.522C16.065 29.3341 16.0865 29.1462 16.1079 28.9583C16.1231 28.826 16.1385 28.6936 16.1538 28.5613C16.2771 27.9007 16.2771 27.9007 16.1376 27.2797C16.0984 27.246 16.0592 27.2123 16.0188 27.1776C15.9762 27.1388 15.9336 27.0999 15.8898 27.0599C15.7994 26.9819 15.7089 26.9039 15.6185 26.826C15.2902 26.5262 15.1777 26.2822 15.1295 25.8398C15.107 25.8398 15.0844 25.8398 15.0612 25.8398ZM20.8717 25.8398C20.8676 25.879 20.8634 25.9183 20.8591 25.9586C20.7769 26.487 20.5223 26.6978 20.1055 27.0058C19.8904 27.1912 19.7874 27.3268 19.7558 27.6136C19.7677 27.8503 19.791 28.0809 19.8219 28.3157C19.8501 28.5353 19.874 28.7552 19.8976 28.9753C19.9517 29.474 20.0099 29.9722 20.0689 30.4703C20.0914 30.6612 20.1135 30.852 20.1356 31.0429C20.1622 31.2715 20.189 31.5001 20.2159 31.7286C20.2258 31.8138 20.2357 31.8991 20.2459 31.9869C20.2553 32.0655 20.2646 32.144 20.2743 32.225C20.2865 32.3286 20.2865 32.3286 20.2989 32.4344C20.321 32.6154 20.321 32.6154 20.3932 32.8125C21.4084 32.8125 22.4235 32.8125 23.4694 32.8125C23.4973 31.9561 23.4973 31.9561 23.5161 31.0996C23.5218 30.7497 23.5285 30.4 23.5416 30.0502C23.5521 29.7678 23.5577 29.4857 23.5602 29.2032C23.5619 29.0959 23.5654 28.9887 23.5706 28.8816C23.6064 28.2942 23.6064 28.2942 23.3755 27.7719C23.1472 27.5508 22.8932 27.3755 22.6235 27.2087C22.4836 27.1206 22.3563 27.0203 22.2288 26.9152C21.8585 26.6232 21.4882 26.3319 21.1078 26.0532C21.0085 25.9766 21.0085 25.9766 20.8717 25.8398ZM17.2487 28.5742C17.0118 30.6722 17.0118 30.6722 16.7702 32.8125C17.5823 32.8125 18.3944 32.8125 19.2311 32.8125C19.0732 31.4139 18.9153 30.0152 18.7526 28.5742C18.4848 28.701 18.4848 28.701 18.2741 28.8476C17.794 28.8941 17.794 28.8941 17.5307 28.7109C17.4827 28.6658 17.4348 28.6207 17.3854 28.5742C17.3403 28.5742 17.2952 28.5742 17.2487 28.5742Z" fill="black"/>
<path d="M16.14 11.4723C16.1862 11.4718 16.2324 11.4714 16.2799 11.4709C16.4324 11.4695 16.5849 11.4687 16.7374 11.4681C16.7897 11.4678 16.8421 11.4675 16.896 11.4672C17.1735 11.4658 17.4509 11.4648 17.7283 11.4642C18.0132 11.4634 18.298 11.4611 18.5828 11.4584C18.8033 11.4566 19.0238 11.456 19.2442 11.4557C19.3491 11.4554 19.454 11.4546 19.5589 11.4534C20.4927 11.4427 21.2397 11.6109 21.9644 12.2363C22.709 13.0353 22.8065 13.9314 22.8053 14.9838C22.8056 15.0845 22.8059 15.1852 22.8062 15.2859C22.8067 15.4965 22.8067 15.7071 22.8063 15.9176C22.8059 16.1843 22.8071 16.4509 22.8087 16.7175C22.8097 16.9256 22.8097 17.1336 22.8095 17.3417C22.8096 17.4398 22.8099 17.5379 22.8106 17.636C22.8199 19.1295 22.4795 20.5586 21.4176 21.6699C20.3591 22.6513 19.074 23.0101 17.6597 22.9874C16.4384 22.9404 15.2867 22.3945 14.4374 21.5217C13.822 20.8097 13.4259 19.931 13.2828 19.0039C13.2711 18.9293 13.2595 18.8547 13.2475 18.7778C13.1949 18.3503 13.202 17.9204 13.2006 17.4904C13.2004 17.4444 13.2002 17.3984 13.2 17.351C13.199 17.1076 13.1983 16.8642 13.198 16.6208C13.1976 16.3719 13.196 16.1229 13.1941 15.874C13.1928 15.6803 13.1924 15.4866 13.1923 15.293C13.192 15.1573 13.1908 15.0216 13.1895 14.8859C13.1915 14.0314 13.34 13.3529 13.8297 12.6465C13.872 12.5844 13.9143 12.5224 13.9578 12.4585C14.5364 11.8459 15.2991 11.479 16.14 11.4723ZM14.8847 13.2286C14.4202 13.7555 14.3659 14.2656 14.3699 14.9336C14.37 14.9953 14.3701 15.057 14.3702 15.1206C14.3705 15.317 14.3714 15.5134 14.3723 15.7098C14.3726 15.8433 14.3729 15.9768 14.3732 16.1102C14.374 16.4368 14.3751 16.7633 14.3766 17.0898C14.9501 16.5263 15.3461 15.8262 15.5987 15.0625C15.6569 14.8978 15.71 14.7705 15.8121 14.6289C16.2173 14.4925 16.7006 14.569 17.1195 14.599C18.6185 14.6827 20.1525 14.5024 21.5543 13.9453C21.4709 13.5006 21.2744 13.2224 20.9391 12.9199C20.3771 12.5365 19.7543 12.5673 19.0984 12.5666C18.9812 12.5663 18.9812 12.5663 18.8617 12.5659C18.6969 12.5656 18.532 12.5654 18.3672 12.5654C18.1165 12.5653 17.8659 12.564 17.6152 12.5627C17.4545 12.5625 17.2938 12.5624 17.1331 12.5623C17.0589 12.5619 16.9846 12.5614 16.9082 12.5609C16.112 12.5632 15.4739 12.6585 14.8847 13.2286ZM21.1321 15.2457C21.076 15.2605 21.02 15.2752 20.9622 15.2904C20.8725 15.314 20.8725 15.314 20.781 15.3381C19.3916 15.6916 17.9924 15.7427 16.5641 15.7226C16.5317 15.7913 16.4994 15.8599 16.4661 15.9306C16.0215 16.8579 15.5348 17.6429 14.748 18.319C14.5197 18.521 14.5197 18.521 14.4292 18.8005C14.4446 18.9432 14.4724 19.0716 14.5133 19.209C14.539 19.2975 14.539 19.2975 14.5653 19.3879C14.9811 20.4017 15.5297 21.1153 16.5579 21.5487C17.5467 21.9186 18.5246 21.9171 19.5027 21.5182C20.3717 21.1207 21.0037 20.4992 21.3684 19.6108C21.5891 18.9795 21.6326 18.4094 21.6293 17.7459C21.6292 17.6722 21.6291 17.5986 21.629 17.5227C21.6286 17.2887 21.6278 17.0547 21.6269 16.8207C21.6266 16.6615 21.6263 16.5023 21.626 16.3431C21.6252 15.954 21.6241 15.5649 21.6226 15.1758C21.4363 15.1758 21.3098 15.198 21.1321 15.2457Z" fill="black"/>
<path d="M31.382 1.9867C31.5439 2.1183 31.6128 2.2025 31.7196 2.38831C31.7494 2.68024 31.6926 2.82922 31.5359 3.07618C31.318 3.19153 31.318 3.19153 31.0573 3.21289C30.809 3.13543 30.5992 2.99996 30.3855 2.85428C29.5106 2.26429 28.4679 2.19164 27.449 2.36935C26.3924 2.66025 25.5792 3.36694 25.0417 4.30664C24.6092 5.2603 24.5219 6.39612 24.882 7.38976C25.3556 8.4173 26.1083 9.16891 27.1651 9.57459C28.066 9.8429 29.1036 9.82996 29.9636 9.4336C30.8906 8.92818 31.6273 8.2103 31.9626 7.18949C32.0431 6.85225 32.0949 6.50968 32.1365 6.16552C32.17 5.91979 32.196 5.77401 32.3455 5.57103C32.5028 5.46185 32.5771 5.43162 32.7663 5.43457C32.8114 5.43387 32.8566 5.43316 32.903 5.43244C33.1094 5.48726 33.1872 5.57066 33.3132 5.74219C33.4872 6.84402 33.1092 7.97923 32.4929 8.88672C31.7419 9.88037 30.6934 10.6409 29.4632 10.9076C28.0156 11.0797 26.5958 10.9301 25.4045 10.0297C24.3764 9.19114 23.709 8.1463 23.4694 6.83594C23.4434 6.55028 23.4406 6.26813 23.4438 5.98145C23.443 5.91051 23.4422 5.83958 23.4414 5.76649C23.4462 4.47765 23.9794 3.39306 24.8778 2.48658C26.6731 0.787313 29.3481 0.586505 31.382 1.9867Z" fill="black"/>
<path d="M31.6711 15.8252C31.7162 15.8245 31.7613 15.8238 31.8078 15.8231C32.0186 15.879 32.0874 15.9566 32.218 16.1328C32.2583 16.3521 32.2525 16.569 32.249 16.7914C32.249 16.8581 32.2491 16.9248 32.2491 16.9935C32.2489 17.214 32.2468 17.4344 32.2447 17.6549C32.2441 17.8077 32.2438 17.9606 32.2435 18.1135C32.2424 18.5158 32.2398 18.9181 32.2367 19.3205C32.2339 19.731 32.2327 20.1416 32.2313 20.5521C32.2284 21.3577 32.2237 22.1632 32.218 22.9688C32.2745 22.9673 32.3311 22.9659 32.3893 22.9644C32.6455 22.9587 32.9017 22.9552 33.1579 22.9517C33.2469 22.9494 33.3359 22.9471 33.4276 22.9447C33.5131 22.9438 33.5985 22.943 33.6866 22.942C33.7654 22.9406 33.8441 22.9392 33.9253 22.9377C34.1752 22.9752 34.2529 23.0451 34.4055 23.2422C34.4418 23.3789 34.4418 23.3789 34.4396 23.5156C34.4407 23.5833 34.4407 23.5833 34.4418 23.6523C34.3881 23.8543 34.2941 23.9324 34.132 24.0625C33.9283 24.0969 33.9283 24.0969 33.6857 24.0972C33.641 24.0976 33.5963 24.0981 33.5503 24.0985C33.4006 24.0996 33.251 24.0987 33.1013 24.0979C32.9939 24.0983 32.8866 24.0987 32.7792 24.0993C32.4877 24.1006 32.1962 24.1001 31.9047 24.0992C31.5997 24.0985 31.2948 24.0992 30.9898 24.0996C30.4777 24.1001 29.9655 24.0995 29.4534 24.0981C28.8612 24.0967 28.2689 24.0971 27.6767 24.0986C27.1683 24.0999 26.66 24.1001 26.1517 24.0993C25.848 24.0989 25.5443 24.0989 25.2407 24.0998C24.9552 24.1006 24.6697 24.1 24.3842 24.0984C24.2794 24.0981 24.1746 24.0982 24.0697 24.0988C23.9267 24.0995 23.7838 24.0986 23.6408 24.0972C23.5607 24.0971 23.4807 24.097 23.3982 24.0969C23.1523 24.0554 23.0721 23.9836 22.9211 23.7891C22.8848 23.6523 22.8848 23.6523 22.8869 23.5156C22.8858 23.4479 22.8858 23.4479 22.8848 23.3789C22.942 23.1634 23.0082 23.0948 23.1945 22.9688C23.429 22.9353 23.659 22.9431 23.8952 22.9517C23.9592 22.9529 24.0232 22.9541 24.0891 22.9554C24.2467 22.9586 24.4042 22.9631 24.5617 22.9688C24.5603 22.8956 24.5588 22.8225 24.5574 22.7472C24.5524 22.4756 24.5493 22.204 24.5467 21.9323C24.5453 21.8148 24.5434 21.6974 24.5411 21.5799C24.5378 21.4108 24.5362 21.2419 24.535 21.0728C24.5336 21.0204 24.5322 20.968 24.5307 20.914C24.5306 20.6693 24.5407 20.5353 24.6915 20.338C24.8469 20.2259 24.9192 20.1972 25.1086 20.2002C25.1537 20.1995 25.1988 20.1988 25.2453 20.1981C25.4521 20.253 25.5255 20.3378 25.6555 20.5078C25.6793 20.7053 25.6875 20.876 25.6822 21.0728C25.6818 21.1271 25.6814 21.1813 25.681 21.2372C25.6795 21.41 25.676 21.5826 25.6725 21.7554C25.6712 21.8727 25.6699 21.99 25.6688 22.1073C25.666 22.3945 25.6607 22.6815 25.6555 22.9688C26.3773 22.9688 27.0992 22.9688 27.843 22.9688C27.8398 22.6364 27.8366 22.304 27.8333 21.9615C27.8319 21.7509 27.8306 21.5403 27.8296 21.3297C27.828 20.9955 27.826 20.6612 27.8223 20.327C27.8194 20.0575 27.8177 19.788 27.817 19.5185C27.8165 19.4157 27.8155 19.3129 27.814 19.2101C27.8121 19.0661 27.8118 18.9221 27.8119 18.7781C27.8113 18.6961 27.8107 18.6141 27.8101 18.5297C27.8495 18.2789 27.9179 18.1997 28.1164 18.0469C28.2531 18.0106 28.2531 18.0106 28.3898 18.0127C28.4349 18.012 28.4801 18.0113 28.5266 18.0106C28.729 18.0643 28.8067 18.1574 28.9367 18.3203C28.9696 18.5297 28.9696 18.5297 28.9677 18.7781C28.9678 18.8234 28.9678 18.8688 28.9679 18.9156C28.9677 19.065 28.9656 19.2144 28.9634 19.3639C28.9629 19.4677 28.9625 19.5715 28.9622 19.6753C28.9612 19.9482 28.9585 20.2211 28.9555 20.4939C28.9522 20.8215 28.9509 21.1491 28.9493 21.4768C28.9467 21.9741 28.9415 22.4714 28.9367 22.9688C29.6586 22.9688 30.3805 22.9688 31.1242 22.9688C31.1221 22.6603 31.1221 22.6603 31.1199 22.3456C31.1153 21.6667 31.1123 20.9879 31.11 20.309C31.1086 19.8974 31.1067 19.4857 31.1036 19.0741C31.1006 18.6769 31.099 18.2798 31.0983 17.8827C31.0978 17.731 31.0968 17.5794 31.0953 17.4277C31.0933 17.2156 31.093 17.0035 31.0932 16.7914C31.0922 16.7284 31.0912 16.6655 31.0902 16.6007C31.0929 16.175 31.0929 16.175 31.2543 15.9572C31.4091 15.8516 31.4855 15.8223 31.6711 15.8252Z" fill="black"/>
<path d="M34.2012 1.709C34.355 1.82042 34.3987 1.8942 34.4661 2.07216C34.4798 2.36657 34.3529 2.56825 34.1636 2.79032C34.0271 2.93417 33.8875 3.07419 33.7464 3.21352C33.6933 3.26681 33.6401 3.3201 33.5853 3.37501C33.4101 3.5505 33.2341 3.72524 33.058 3.89997C32.936 4.02179 32.814 4.14365 32.6921 4.26555C32.4367 4.52059 32.181 4.7753 31.9251 5.02972C31.5964 5.35642 31.2683 5.68376 30.9405 6.01131C30.6888 6.26276 30.4369 6.51398 30.1849 6.76515C30.0638 6.88583 29.9428 7.00655 29.8218 7.1273C29.653 7.29555 29.4841 7.46357 29.3151 7.63152C29.2647 7.68176 29.2144 7.73201 29.1626 7.78378C29.1167 7.82929 29.0708 7.87481 29.0235 7.92171C28.9835 7.96144 28.9436 8.00117 28.9024 8.04211C28.7105 8.21709 28.5242 8.23906 28.2669 8.23492C28.0823 8.19573 28.0052 8.13008 27.8672 8.00233C27.82 7.95885 27.7727 7.91536 27.724 7.87056C27.6733 7.8224 27.6226 7.77424 27.5703 7.72462C27.5164 7.674 27.4624 7.62337 27.4068 7.57122C27.2345 7.40764 27.0647 7.24175 26.8953 7.07521C26.8369 7.01943 26.7786 6.96365 26.7185 6.90618C26.186 6.38126 26.186 6.38126 26.1348 5.94728C26.2196 5.72762 26.3162 5.62587 26.4937 5.47304C26.7011 5.39287 26.8115 5.40143 27.0218 5.46721C27.3227 5.61927 27.5419 5.88478 27.7711 6.12672C27.8244 6.18153 27.8777 6.23634 27.9325 6.29282C28.0633 6.42755 28.1931 6.56301 28.3223 6.69923C28.5188 6.61015 28.659 6.51594 28.8105 6.36274C28.8513 6.32191 28.892 6.28108 28.9339 6.23901C28.9778 6.19433 29.0217 6.14966 29.0669 6.10363C29.1371 6.03292 29.1371 6.03292 29.2088 5.96078C29.3103 5.85846 29.4117 5.75599 29.513 5.65339C29.6733 5.49104 29.834 5.32915 29.9949 5.16738C30.4522 4.70738 30.9086 4.24652 31.3648 3.78545C31.6439 3.50341 31.9235 3.22187 32.2035 2.94062C32.31 2.83332 32.4164 2.72582 32.5226 2.61813C32.671 2.46758 32.82 2.31767 32.9692 2.16789C33.0129 2.12321 33.0567 2.07853 33.1017 2.0325C33.4588 1.67619 33.7002 1.48028 34.2012 1.709Z" fill="black"/>
</svg>
