<svg width="36" height="35" viewBox="0 0 36 35" fill="none" xmlns="http://www.w3.org/2000/svg">
<g clip-path="url(#clip0_670_15077)">
<path d="M18.5773 14.6877C18.6464 14.6874 18.6464 14.6874 18.7168 14.6871C18.8714 14.6865 19.0259 14.6864 19.1805 14.6863C19.2913 14.6859 19.402 14.6856 19.5127 14.6852C19.814 14.6843 20.1153 14.6839 20.4166 14.6836C20.6052 14.6834 20.7938 14.6831 20.9824 14.6828C21.5734 14.6819 22.1644 14.6812 22.7554 14.6809C23.4358 14.6806 24.1161 14.6794 24.7964 14.6775C25.3232 14.676 25.85 14.6753 26.3768 14.6752C26.6909 14.6751 27.005 14.6747 27.3191 14.6735C27.6154 14.6724 27.9117 14.6722 28.208 14.6728C28.3159 14.6729 28.4238 14.6726 28.5317 14.6719C30.5176 14.6601 32.2614 15.3165 33.6998 16.7096C34.9484 18.003 35.5813 19.6764 35.5771 21.4619C35.5776 21.5776 35.5776 21.5776 35.5781 21.6957C35.5791 21.9481 35.579 22.2006 35.5788 22.4531C35.5791 22.6303 35.5794 22.8076 35.5797 22.9848C35.5802 23.3553 35.5802 23.7259 35.5799 24.0964C35.5795 24.5221 35.5803 24.9478 35.5817 25.3734C35.5831 25.7861 35.5833 26.1987 35.5831 26.6114C35.5831 26.7855 35.5835 26.9596 35.5841 27.1337C35.5911 29.1344 35.2393 30.9489 33.8493 32.4707C33.8024 32.5231 33.7555 32.5756 33.7072 32.6296C32.5513 33.8562 30.9254 34.5764 29.2474 34.671C29.0079 34.6759 28.7688 34.6768 28.5292 34.676C28.4374 34.6762 28.3455 34.6765 28.2536 34.6768C28.0038 34.6775 27.754 34.6774 27.5041 34.6771C27.2337 34.6769 26.9632 34.6775 26.6927 34.678C26.1638 34.6789 25.635 34.679 25.1061 34.6789C24.6758 34.6788 24.2456 34.6789 23.8153 34.6792C23.7539 34.6792 23.6925 34.6793 23.6293 34.6793C23.5045 34.6794 23.3798 34.6795 23.255 34.6795C22.0868 34.6803 20.9186 34.6801 19.7503 34.6797C18.6836 34.6794 17.6169 34.6801 16.5502 34.6814C15.4527 34.6828 14.3553 34.6833 13.2578 34.6831C12.6425 34.6829 12.0272 34.6831 11.412 34.6841C10.8881 34.6849 10.3643 34.685 9.84043 34.6842C9.57363 34.6838 9.30684 34.6837 9.04004 34.6845C6.65712 34.6914 4.69597 34.3164 2.92523 32.6074C1.69443 31.327 1.08221 29.6484 1.08638 27.889C1.08603 27.8115 1.08569 27.7339 1.08533 27.654C1.08438 27.4004 1.08444 27.1468 1.0846 26.8933C1.08433 26.716 1.08404 26.5386 1.08371 26.3613C1.0832 25.9911 1.08321 25.6209 1.08358 25.2507C1.08399 24.8233 1.08315 24.3959 1.0817 23.9686C1.08035 23.5558 1.08014 23.1431 1.08038 22.7304C1.08034 22.5553 1.07998 22.3802 1.0793 22.2052C1.07846 21.9611 1.07891 21.717 1.07971 21.4729C1.07919 21.4006 1.07866 21.3283 1.07812 21.2539C1.08254 20.641 1.08254 20.641 1.31024 20.3711C1.53349 20.179 1.70569 20.0799 1.9981 20.0678C2.34737 20.1066 2.50071 20.202 2.7532 20.4367C2.94227 20.7406 2.92055 21.0082 2.91765 21.3595C2.91838 21.4675 2.91838 21.4675 2.91913 21.5776C2.92045 21.8156 2.91988 22.0536 2.91935 22.2916C2.92003 22.4575 2.92085 22.6235 2.9218 22.7895C2.92401 23.227 2.92472 23.6645 2.925 24.102C2.9256 24.8003 2.92804 25.4985 2.9313 26.1968C2.93215 26.4397 2.93211 26.6827 2.93196 26.9257C2.93501 28.6796 3.2022 30.1366 4.4561 31.4536C5.24197 32.2016 6.34752 32.7514 7.44411 32.7533C7.56212 32.7538 7.56212 32.7538 7.68251 32.7543C7.8117 32.7542 7.8117 32.7542 7.9435 32.7542C8.03616 32.7544 8.12882 32.7547 8.22149 32.755C8.47607 32.7557 8.73065 32.7559 8.98524 32.7561C9.25986 32.7564 9.53447 32.757 9.80909 32.7576C10.4723 32.759 11.1356 32.7597 11.7988 32.7603C12.1114 32.7606 12.4239 32.7609 12.7365 32.7613C13.7759 32.7624 14.8153 32.7634 15.8547 32.7639C16.1244 32.7641 16.3941 32.7642 16.6637 32.7643C16.7642 32.7644 16.7642 32.7644 16.8668 32.7644C17.9518 32.765 19.0368 32.7667 20.1218 32.7689C21.2365 32.7712 22.3512 32.7724 23.4659 32.7727C24.0914 32.7728 24.717 32.7734 25.3425 32.7752C25.8754 32.7766 26.4083 32.7772 26.9412 32.7765C27.2128 32.7762 27.4844 32.7763 27.7561 32.7777C28.0053 32.7789 28.2546 32.7788 28.5039 32.7777C28.6355 32.7775 28.7671 32.7786 28.8986 32.7798C30.2271 32.7701 31.4012 32.2169 32.3529 31.3075C33.3637 30.2497 33.7232 28.8983 33.7225 27.4683C33.7227 27.4016 33.723 27.3349 33.7232 27.2662C33.7239 27.0475 33.724 26.8287 33.7241 26.61C33.7243 26.4566 33.7245 26.3033 33.7248 26.15C33.7252 25.8291 33.7253 25.5083 33.7253 25.1874C33.7252 24.7783 33.7262 24.3691 33.7274 23.9599C33.7281 23.6433 33.7283 23.3267 33.7282 23.0102C33.7283 22.8594 33.7286 22.7086 33.7291 22.5579C33.7346 20.8442 33.5271 19.2946 32.3104 17.9924C31.3715 17.0482 30.1383 16.5962 28.824 16.5915C28.7204 16.5916 28.6169 16.5916 28.5134 16.5917C28.4029 16.5913 28.2925 16.5908 28.182 16.5903C27.9453 16.5893 27.7085 16.5887 27.4717 16.5884C27.0971 16.5879 26.7225 16.5865 26.3478 16.5848C25.4852 16.5812 24.6226 16.5789 23.76 16.5766C22.9688 16.5745 22.1775 16.5721 21.3862 16.5687C21.014 16.5671 20.6418 16.5661 20.2696 16.5657C20.038 16.5653 19.8064 16.5643 19.5747 16.5632C19.4676 16.5628 19.3604 16.5626 19.2532 16.5627C19.1066 16.5628 18.96 16.562 18.8133 16.5611C18.7314 16.5609 18.6495 16.5607 18.565 16.5605C18.194 16.5326 17.9313 16.4792 17.6567 16.2225C17.4925 15.9666 17.4431 15.821 17.4431 15.5176C17.5452 15.2005 17.6617 14.9768 17.9216 14.7656C18.1542 14.6881 18.3319 14.6883 18.5773 14.6877Z" fill="black"/>
<path d="M19.2884 0.888673C19.805 1.32007 20.2831 1.79819 20.7604 2.27213C20.8388 2.34977 20.9176 2.42709 20.9966 2.50411C21.7733 3.2612 22.4232 4.0496 22.453 5.18328C22.4639 6.38464 22.0489 7.16207 21.2171 8.00948C21.0269 8.20162 20.8355 8.39245 20.6439 8.58319C20.5382 8.68911 20.4327 8.79506 20.3271 8.90106C20.0417 9.18738 19.7557 9.47305 19.4695 9.75858C19.1695 10.0581 18.87 10.3581 18.5703 10.658C18.0674 11.1614 17.564 11.6643 17.0604 12.1669C16.543 12.6833 16.0261 13.2001 15.5098 13.7175C14.9462 14.2821 14.3824 14.8464 13.818 15.4102C13.5197 15.7082 13.2215 16.0063 12.9237 16.3048C12.6438 16.5853 12.3633 16.8653 12.0825 17.1449C11.9797 17.2475 11.8771 17.3502 11.7747 17.4531C11.6345 17.5938 11.4938 17.7338 11.3528 17.8738C11.3127 17.9143 11.2726 17.9549 11.2313 17.9967C10.4331 18.7837 9.5254 18.9744 8.43464 18.9696C8.37518 18.9689 8.31571 18.9682 8.25445 18.9674C8.07325 18.9655 7.89219 18.966 7.71099 18.9669C6.58911 18.9656 5.63359 18.7987 4.77915 18.0127C3.91434 17.0956 3.81416 16.0239 3.81763 14.8203C3.81785 14.6633 3.81623 14.5064 3.81451 14.3493C3.80763 12.7713 4.45028 11.9006 5.52528 10.8136C5.70408 10.6335 5.88332 10.4539 6.06259 10.2743C6.16182 10.1746 6.26104 10.075 6.36025 9.97526C6.68373 9.65036 7.00756 9.32581 7.33141 9.00128C7.4434 8.88901 7.55539 8.77674 7.66738 8.66446C8.19327 8.13727 8.71933 7.61024 9.24558 7.08342C9.85134 6.47699 10.4565 5.86999 11.0612 5.26252C11.5301 4.79161 11.9995 4.32122 12.4692 3.85122C12.7492 3.57107 13.029 3.2907 13.3082 3.00977C13.5708 2.74562 13.834 2.48213 14.0977 2.21913C14.1939 2.12289 14.29 2.02643 14.3858 1.9297C15.7177 0.585358 17.5031 -0.346156 19.2884 0.888673ZM16.0221 2.8898C15.9788 2.93264 15.9356 2.97547 15.891 3.01961C15.7472 3.16232 15.6044 3.30599 15.4616 3.44968C15.3583 3.55261 15.2549 3.65547 15.1515 3.75829C14.8715 4.03703 14.5924 4.31663 14.3135 4.59643C14.0211 4.88945 13.7282 5.18179 13.4353 5.47425C12.9436 5.96544 12.4525 6.4572 11.9617 6.94929C11.3946 7.51782 10.8266 8.08536 10.2581 8.65239C9.76957 9.13967 9.28158 9.62749 8.79404 10.1157C8.50303 10.4072 8.21184 10.6984 7.92016 10.9892C7.64595 11.2626 7.37242 11.5367 7.0994 11.8113C6.99922 11.9118 6.8988 12.0122 6.79814 12.1122C6.66052 12.2491 6.52377 12.3868 6.38721 12.5247C6.34742 12.5639 6.30763 12.6031 6.26663 12.6434C5.71584 13.2049 5.61303 13.764 5.61281 14.5301C5.61642 14.6969 5.62053 14.8637 5.6251 15.0305C5.62615 15.1552 5.62615 15.1552 5.62723 15.2823C5.64314 15.8495 5.71713 16.3857 6.14761 16.7945C6.75679 17.2483 7.57356 17.1665 8.29966 17.1753C8.36353 17.1768 8.4274 17.1782 8.4932 17.1797C9.46258 17.1845 9.92467 16.681 10.5819 16.0305C10.7644 15.8492 10.9464 15.6674 11.1284 15.4855C11.2291 15.3851 11.3299 15.2847 11.4307 15.1842C11.7031 14.9127 11.9754 14.6409 12.2475 14.369C12.4177 14.1991 12.5878 14.0292 12.758 13.8593C13.2908 13.3275 13.8235 12.7955 14.3559 12.2633C14.9701 11.6494 15.5847 11.036 16.1997 10.423C16.6757 9.94852 17.1512 9.47365 17.6265 8.99847C17.9102 8.71488 18.194 8.43145 18.4782 8.14843C18.7453 7.88252 19.0118 7.61614 19.278 7.34937C19.3757 7.25159 19.4736 7.15398 19.5717 7.05656C19.7056 6.92354 19.8388 6.7899 19.9719 6.65609C20.0108 6.61771 20.0498 6.57933 20.0899 6.53979C20.4128 6.21278 20.6194 5.88093 20.6588 5.4092C20.639 4.50903 19.7629 3.87724 19.1764 3.28576C19.1111 3.21966 19.0461 3.15325 18.9814 3.08655C18.3803 2.45905 18.3803 2.45905 17.5859 2.15119C17.4981 2.15224 17.4981 2.15224 17.4085 2.15332C17.35 2.15262 17.2915 2.15191 17.2312 2.15119C16.7285 2.24308 16.3719 2.53452 16.0221 2.8898Z" fill="black"/>
<path d="M18.7416 21.3965C19.005 21.5331 19.1872 21.7331 19.2885 22.0117C19.298 22.2024 19.3014 22.3856 19.297 22.5757C19.2964 22.6266 19.2958 22.6776 19.2951 22.7301C19.2935 22.8552 19.2911 22.9804 19.2885 23.1055C19.3512 23.0702 19.4139 23.0348 19.4786 22.9984C20.2401 22.5836 20.2401 22.5836 20.5531 22.6099C20.8951 22.732 21.1046 22.8795 21.3008 23.1952C21.3685 23.5188 21.331 23.7995 21.1892 24.0975C21.0415 24.3011 20.892 24.3992 20.677 24.5282C20.6091 24.5696 20.5411 24.6109 20.4711 24.6535C20.4192 24.684 20.3673 24.7146 20.3138 24.7461C20.3658 24.7775 20.4177 24.8089 20.4711 24.8412C20.5391 24.8831 20.607 24.9251 20.677 24.9683C20.7781 25.0302 20.7781 25.0302 20.8813 25.0933C21.1599 25.2917 21.254 25.4245 21.3307 25.7587C21.357 26.0596 21.2902 26.2617 21.1342 26.5235C20.9156 26.7264 20.7314 26.816 20.4378 26.8396C20.0259 26.8242 19.6975 26.6007 19.3568 26.3867C19.3542 26.4832 19.3542 26.4832 19.3515 26.5817C19.3124 27.4396 19.3124 27.4396 19.015 27.7539C18.7537 27.9846 18.5663 27.9945 18.227 27.9825C17.9708 27.9469 17.8343 27.8629 17.6478 27.6856C17.3894 27.2721 17.4216 26.8632 17.4428 26.3867C17.3475 26.4386 17.3475 26.4386 17.2502 26.4914C17.1649 26.5363 17.0795 26.5812 16.9941 26.626C16.9525 26.6488 16.9109 26.6717 16.868 26.6952C16.532 26.8694 16.2388 26.9343 15.863 26.8223C15.6341 26.692 15.534 26.6005 15.392 26.3697C15.3126 26.072 15.2963 25.8596 15.392 25.5664C15.6284 25.1897 15.9452 24.9938 16.349 24.8145C16.3941 24.8145 16.4392 24.8145 16.4857 24.8145C16.2784 24.5847 16.0271 24.4578 15.7594 24.3085C15.4893 24.1268 15.405 23.9824 15.3322 23.6652C15.3058 23.3643 15.3727 23.1622 15.5287 22.9004C15.7575 22.6828 15.9502 22.6063 16.2593 22.5843C16.6899 22.5987 17.0191 22.8102 17.3744 23.0371C17.377 22.9785 17.3795 22.9199 17.3821 22.8596C17.4391 21.8685 17.4391 21.8685 17.823 21.5033C18.1377 21.3603 18.4015 21.3319 18.7416 21.3965Z" fill="black"/>
<path d="M27.4928 21.3965C27.8362 21.5618 27.9673 21.7311 28.108 22.0801C28.1221 22.2659 28.1278 22.4339 28.1208 22.6184C28.1194 22.689 28.1194 22.689 28.118 22.761C28.1156 22.8758 28.112 22.9907 28.108 23.1055C28.1707 23.0701 28.2335 23.0348 28.2981 22.9984C29.0597 22.5836 29.0597 22.5836 29.3727 22.6098C29.6631 22.7136 29.8072 22.817 30.0221 23.0371C30.1221 23.3372 30.1395 23.6127 30.0904 23.9258C29.8869 24.3171 29.5091 24.5391 29.1334 24.7461C29.1853 24.7767 29.2372 24.8072 29.2907 24.8387C29.3926 24.9007 29.3926 24.9007 29.4966 24.964C29.564 25.0044 29.6314 25.0449 29.7008 25.0865C29.9449 25.2692 30.0669 25.4327 30.1201 25.7349C30.1207 26.122 30.0872 26.36 29.817 26.6601C29.5103 26.8465 29.2089 26.8563 28.86 26.7969C28.6152 26.6824 28.3959 26.5437 28.1764 26.3867C28.1738 26.4461 28.1713 26.5055 28.1686 26.5667C28.1158 27.493 28.1158 27.493 27.7235 27.8479C27.4282 27.9901 27.1996 28.0155 26.8775 27.959C26.6332 27.8413 26.5045 27.7354 26.3435 27.5189C26.2201 27.1489 26.2106 26.7745 26.1939 26.3867C26.147 26.4155 26.1 26.4443 26.0516 26.474C25.99 26.5115 25.9284 26.5489 25.865 26.5875C25.8039 26.6248 25.7428 26.6621 25.6799 26.7005C25.3869 26.867 25.1607 26.8879 24.8268 26.8652C24.5128 26.7606 24.3375 26.6205 24.1864 26.3202C24.1045 26.0578 24.1315 25.8264 24.2115 25.5664C24.458 25.161 24.8274 24.9703 25.2369 24.7461C25.1965 24.7196 25.156 24.6932 25.1143 24.666C24.2226 24.0783 24.2226 24.0783 24.1432 23.7207C24.1327 23.3899 24.1652 23.1276 24.3781 22.8662C24.6421 22.6087 24.8184 22.5965 25.1768 22.5976C25.5357 22.6511 25.8225 22.8471 26.1256 23.0371C26.1707 23.0597 26.2158 23.0822 26.2623 23.1055C26.2599 23.0362 26.2575 22.9669 26.2551 22.8956C26.2532 22.8032 26.2513 22.7108 26.2495 22.6184C26.2478 22.5729 26.2461 22.5275 26.2443 22.4806C26.2395 22.1567 26.2967 21.9443 26.4674 21.6699C26.7863 21.3814 27.0786 21.3237 27.4928 21.3965Z" fill="black"/>
<path d="M9.92465 21.3965C10.1966 21.5516 10.3721 21.7133 10.4715 22.0117C10.4763 22.1989 10.4779 22.3843 10.4758 22.5714C10.4755 22.6227 10.4752 22.6739 10.4749 22.7267C10.4741 22.853 10.4728 22.9792 10.4715 23.1055C10.5343 23.0701 10.597 23.0348 10.6617 22.9984C11.4232 22.5836 11.4232 22.5836 11.7362 22.6099C12.0771 22.7316 12.2846 22.879 12.4839 23.1909C12.5411 23.4707 12.53 23.7185 12.4539 23.9941C12.2088 24.3236 11.8407 24.5281 11.4969 24.7461C11.5431 24.7717 11.5893 24.7974 11.6368 24.8238C12.2954 25.2016 12.2954 25.2016 12.4539 25.498C12.5344 25.8028 12.5464 26.0381 12.4497 26.3397C12.2635 26.5979 12.0877 26.756 11.7701 26.8279C11.2894 26.8657 10.9358 26.6354 10.5399 26.3867C10.5373 26.4518 10.5348 26.517 10.5321 26.5841C10.5276 26.6698 10.5232 26.7555 10.5185 26.8439C10.5126 26.9712 10.5126 26.9712 10.5065 27.101C10.4598 27.4254 10.3401 27.6029 10.1255 27.8436C9.83203 28.0122 9.57177 28.0119 9.24106 27.959C8.96021 27.8186 8.8044 27.7047 8.69418 27.4121C8.67407 27.2338 8.65957 27.0611 8.65146 26.8823C8.64881 26.8347 8.64617 26.787 8.64345 26.7379C8.63704 26.6208 8.63136 26.5038 8.62582 26.3867C8.56802 26.4213 8.51021 26.4558 8.45065 26.4914C7.65349 26.948 7.65349 26.948 7.19028 26.8652C6.90888 26.7437 6.72779 26.5843 6.57504 26.3184C6.52132 25.9938 6.54037 25.7232 6.66049 25.4169C6.95075 25.12 7.3043 24.9398 7.66879 24.7461C7.60702 24.7106 7.54525 24.6751 7.4816 24.6385C7.40014 24.5904 7.31869 24.5422 7.23727 24.494C7.19661 24.4708 7.15594 24.4476 7.11404 24.4237C6.85432 24.2684 6.69681 24.1361 6.57504 23.8574C6.51502 23.5162 6.53969 23.2445 6.69467 22.9346C6.87329 22.7361 7.00821 22.6502 7.26932 22.5968C7.81806 22.5684 8.18048 22.8055 8.62582 23.1055C8.62759 23.0263 8.62935 22.9472 8.63116 22.8657C8.63501 22.7605 8.63893 22.6553 8.64291 22.5501C8.64437 22.4721 8.64437 22.4721 8.64585 22.3925C8.66131 22.0337 8.72616 21.8149 8.96762 21.5332C9.25483 21.3352 9.58964 21.3364 9.92465 21.3965Z" fill="black"/>
</g>
<defs>
<clipPath id="clip0_670_15077">
<rect width="35" height="35" fill="white" transform="translate(0.832031)"/>
</clipPath>
</defs>
</svg>
