<svg width="25" height="24" viewBox="0 0 25 24" fill="none" xmlns="http://www.w3.org/2000/svg">
<path fill-rule="evenodd" clip-rule="evenodd" d="M17.6251 3.46967C17.4844 3.32902 17.2936 3.25 17.0947 3.25C16.8958 3.25 16.705 3.32902 16.5644 3.46967L14.5644 5.46967L3.5644 16.4697C3.42374 16.6103 3.34473 16.8011 3.34473 17V20C3.34473 20.4142 3.68051 20.75 4.09473 20.75H7.09473C7.29364 20.75 7.4844 20.671 7.62506 20.5303L18.6243 9.53104C18.6246 9.5308 18.6248 9.53057 18.6251 9.53033L20.6251 7.53033C20.9179 7.23744 20.9179 6.76256 20.6251 6.46967L17.6251 3.46967ZM17.0341 9L15.0947 7.06066L4.84473 17.3107V19.25H6.78407L17.0341 9ZM18.0947 7.93934L19.0341 7L17.0947 5.06066L16.1554 6L18.0947 7.93934Z" fill="white"/>
</svg>
