<svg width="75" height="75" viewBox="0 0 75 75" fill="none" xmlns="http://www.w3.org/2000/svg">
<path d="M75 37.5C75 39.4253 72.2061 41.109 71.9162 42.9529C71.6189 44.8463 73.7532 47.3072 73.1739 49.091C72.5846 50.9058 69.4066 51.6426 68.5505 53.3192C67.6859 55.0133 68.9511 58.017 67.8399 59.5436C66.7237 61.0777 63.4742 60.7973 62.1359 62.1356C60.7976 63.4742 61.0777 66.7234 59.5439 67.8399C58.0173 68.9508 55.0133 67.6859 53.3194 68.5505C51.6428 69.4064 50.9058 72.5843 49.091 73.1737C47.3074 73.7529 44.8463 71.6189 42.9532 71.9162C41.1093 72.2061 39.4253 75 37.5 75C35.5745 75 33.8907 72.2061 32.0468 71.9162C30.154 71.6189 27.6926 73.7529 25.909 73.1737C24.0939 72.5843 23.3572 69.4064 21.6808 68.5505C19.9867 67.6859 16.9827 68.9508 15.4561 67.8399C13.9223 66.7234 14.2024 63.4742 12.8641 62.1356C11.5258 60.7973 8.27633 61.0774 7.16011 59.5436C6.04894 58.017 7.3141 55.013 6.44947 53.3192C5.59335 51.6426 2.41542 50.9058 1.82606 49.091C1.24707 47.3072 3.38112 44.8463 3.08378 42.9529C2.79388 41.109 0 39.4253 0 37.5C0 35.5745 2.79388 33.8907 3.08378 32.0468C3.38112 30.1537 1.24707 27.6923 1.82606 25.9088C2.41542 24.0939 5.59335 23.3572 6.44947 21.6806C7.31436 19.9864 6.0492 16.9824 7.16011 15.4561C8.27633 13.9221 11.5258 14.2021 12.8641 12.8638C14.2027 11.5255 13.9223 8.27606 15.4564 7.15984C16.983 6.04894 19.987 7.31383 21.6808 6.44921C23.3572 5.59335 24.0941 2.41515 25.909 1.82579C27.6926 1.2468 30.154 3.38085 32.0468 3.08351C33.8907 2.79362 35.5745 -2.74942e-06 37.5 -2.74942e-06C39.4253 -2.74942e-06 41.1093 2.79362 42.9532 3.08351C44.8463 3.38085 47.3074 1.2468 49.091 1.82579C50.9058 2.41542 51.6428 5.59335 53.3194 6.44921C55.0133 7.3141 58.0173 6.04894 59.5439 7.15984C61.0779 8.27633 60.7976 11.5255 62.1359 12.8641C63.4742 14.2024 66.7237 13.9223 67.8399 15.4561C68.9511 16.9827 67.6859 19.9867 68.5505 21.6806C69.4066 23.3572 72.5846 24.0939 73.1739 25.9088C73.7532 27.6926 71.6189 30.1537 71.9162 32.0465C72.2061 33.8907 75 35.5745 75 37.5Z" fill="#131112"/>
<path d="M69.5894 37.5002C69.5894 55.2226 55.2224 69.5898 37.4998 69.5898C19.7772 69.5898 5.41016 55.2226 5.41016 37.5002C5.41016 19.7773 19.7772 5.41033 37.4998 5.41033C55.2224 5.41033 69.5894 19.7773 69.5894 37.5002Z" fill="white"/>
<path d="M9.696 26.9429L10.0087 26.2541L13.3681 26.5559L10.9296 24.2256L11.2422 23.5368L14.5432 26.7557L14.292 27.3089L9.696 26.9429ZM9.52734 27.3145L9.83881 26.6283L12.7212 27.7864L13.8439 28.2961L13.4758 29.1069L9.52734 27.3145ZM11.0994 23.8514L11.4121 23.1626L15.3606 24.955L14.9913 25.7686L13.8686 25.2589L11.0994 23.8514Z" fill="#131112"/>
<path d="M14.1912 20.3533L16.4068 23.4199L15.8486 24.1886L13.2866 20.3369L13.6419 19.8477L14.1912 20.3533ZM17.6756 21.6728L14.0722 20.5172L13.4161 20.1586L13.7749 19.6646L18.2356 20.9016L17.6756 21.6728ZM16.3379 20.7677L16.9043 21.1789L15.5585 23.0321L14.9922 22.6208L16.3379 20.7677Z" fill="#131112"/>
<path d="M19.7072 19.4579L19.0278 20.1135L18.5482 19.6078L19.2233 18.9564C19.3919 18.7937 19.4976 18.6187 19.5402 18.4313C19.5815 18.2425 19.5605 18.0462 19.477 17.8425C19.3951 17.6375 19.2534 17.4306 19.0521 17.222L18.9053 17.0698C18.7509 16.9098 18.598 16.7856 18.4465 16.6972C18.2965 16.6075 18.1486 16.5529 18.0029 16.5334C17.8572 16.514 17.7165 16.5297 17.5808 16.5807C17.4437 16.6302 17.313 16.7149 17.1887 16.8348L16.49 17.509L16.004 17.0053L16.7027 16.3312C16.9114 16.1299 17.1366 15.9816 17.3784 15.8862C17.6203 15.788 17.8682 15.7433 18.1222 15.752C18.3762 15.7608 18.6257 15.8235 18.8708 15.9403C19.1159 16.0542 19.3459 16.2226 19.561 16.4455L19.7037 16.5934C19.9174 16.8148 20.0774 17.0508 20.1839 17.3012C20.2918 17.5503 20.3455 17.8019 20.3452 18.056C20.3449 18.3074 20.2914 18.5536 20.1846 18.7946C20.0778 19.0328 19.9187 19.2539 19.7072 19.4579ZM16.3813 16.6413L19.3922 19.7619L18.7492 20.3823L15.7383 17.2617L16.3813 16.6413Z" fill="#131112"/>
<path d="M24.0968 15.1215L24.4902 15.6968L22.5849 16.9996L22.1915 16.4244L24.0968 15.1215ZM20.3781 13.2554L22.8259 16.8349L22.0883 17.3392L19.6406 13.7598L20.3781 13.2554ZM22.7911 13.7449L23.1744 14.3055L21.5174 15.4385L21.1341 14.878L22.7911 13.7449ZM22.04 12.119L22.4351 12.6967L20.5323 13.9979L20.1372 13.4202L22.04 12.119Z" fill="#131112"/>
<path d="M26.5966 9.89081L28.2506 13.8993L27.4274 14.2389L25.7734 10.2305L26.5966 9.89081Z" fill="#131112"/>
<path d="M31.8796 8.30509L32.947 12.508L32.081 12.7279L29.6769 10.3395L30.3924 13.1568L29.5264 13.3767L28.459 9.17383L29.325 8.95389L31.7328 11.3445L31.0165 8.52429L31.8796 8.30509Z" fill="#131112"/>
<path d="M39.7858 9.93148L39.7552 11.6496C39.6862 11.7298 39.5804 11.8163 39.4378 11.9091C39.2952 11.9999 39.1121 12.0771 38.8885 12.1406C38.665 12.2041 38.3954 12.2331 38.0798 12.2275C37.7999 12.2225 37.5456 12.1723 37.3169 12.0768C37.0883 11.9794 36.8922 11.8399 36.7286 11.6583C36.5671 11.4767 36.4439 11.256 36.3592 10.9964C36.2745 10.7347 36.2351 10.4372 36.241 10.1036L36.2459 9.83267C36.2518 9.49916 36.2998 9.20314 36.3898 8.9446C36.4817 8.6861 36.6097 8.46895 36.7737 8.29315C36.9377 8.11735 37.1317 7.98478 37.3557 7.89544C37.5797 7.80609 37.8277 7.76385 38.0996 7.76869C38.4768 7.77541 38.7854 7.84247 39.0254 7.96987C39.2654 8.09528 39.4471 8.2673 39.5702 8.48595C39.6955 8.70265 39.7705 8.95023 39.7953 9.22868L38.9288 9.21324C38.9096 9.06595 38.8702 8.93716 38.8106 8.82688C38.751 8.7166 38.6641 8.62967 38.5501 8.56607C38.438 8.50252 38.2917 8.46913 38.111 8.46591C37.9622 8.46326 37.8286 8.49166 37.7104 8.55111C37.5942 8.60862 37.4953 8.69522 37.4138 8.81093C37.3323 8.92664 37.2692 9.07048 37.2244 9.24245C37.1797 9.41442 37.1553 9.61455 37.1512 9.84284L37.1463 10.1198C37.1422 10.3461 37.1605 10.547 37.2011 10.7224C37.2417 10.8959 37.3036 11.043 37.3868 11.1636C37.4721 11.2823 37.5777 11.3726 37.7037 11.4344C37.8297 11.4962 37.977 11.5286 38.1458 11.5316C38.2867 11.5341 38.4041 11.5243 38.4978 11.5021C38.5935 11.48 38.6704 11.4526 38.7286 11.4199C38.7888 11.3852 38.8351 11.3523 38.8674 11.3211L38.8811 10.5528L38.0652 10.5383L38.0765 9.90103L39.7858 9.93148Z" fill="#131112"/>
<path d="M43.8958 12.2095L43.766 12.8942L41.4982 12.4643L41.628 11.7796L43.8958 12.2095ZM42.5927 8.25821L41.785 12.5186L40.9072 12.3522L41.7148 8.0918L42.5927 8.25821ZM43.9492 10.3129L43.8227 10.9801L41.8505 10.6062L41.977 9.93903L43.9492 10.3129ZM44.5707 8.63321L44.4404 9.32084L42.1756 8.89149L42.3059 8.20385L44.5707 8.63321Z" fill="#131112"/>
<path d="M46.3574 9.12305L47.8723 9.689C48.183 9.80504 48.4325 9.95125 48.6209 10.1276C48.8112 10.3047 48.9328 10.507 48.9856 10.7344C49.0384 10.9618 49.0151 11.2085 48.9158 11.4745C48.8345 11.6921 48.7274 11.8652 48.5947 11.9936C48.4644 12.1209 48.3129 12.2116 48.1401 12.2657C47.9698 12.3187 47.784 12.3425 47.5825 12.3372L47.2653 12.3776L45.9485 11.8857L46.1868 11.2308L47.166 11.5966C47.313 11.6515 47.4445 11.671 47.5607 11.655C47.6769 11.6391 47.7765 11.5936 47.8596 11.5187C47.9446 11.4445 48.01 11.346 48.0558 11.2232C48.1045 11.093 48.1223 10.9715 48.1094 10.8585C48.0965 10.7456 48.0501 10.6456 47.9703 10.5586C47.8905 10.4715 47.7762 10.4002 47.6274 10.3446L46.9495 10.0914L45.6768 13.4978L44.8399 13.1852L46.3574 9.12305ZM47.1109 14.0336L46.861 11.8769L47.7475 12.2017L48.021 14.3291L48.0064 14.3681L47.1109 14.0336Z" fill="#131112"/>
<path d="M51.7299 11.3875L52.3698 11.791L51.6139 15.0782L54.2542 12.9792L54.8941 13.3827L51.2561 16.2152L50.7422 15.8911L51.7299 11.3875ZM51.3848 11.1699L52.0221 11.5718L50.4828 14.2699L49.8252 15.3129L49.0719 14.8379L51.3848 11.1699ZM54.6018 13.1984L55.2417 13.6019L52.9289 17.2699L52.1731 16.7934L52.8308 15.7504L54.6018 13.1984Z" fill="#131112"/>
<path d="M57.6449 16.7307L54.3075 18.5124L53.6211 17.8556L57.7832 15.8366L58.22 16.2546L57.6449 16.7307ZM55.8675 20.0053L57.4986 16.5907L57.9424 15.989L58.3836 16.4111L56.556 20.6642L55.8675 20.0053ZM56.9448 18.802L56.4609 19.3076L54.8062 17.7242L55.2901 17.2185L56.9448 18.802Z" fill="#131112"/>
<path d="M62.5952 21.5618L59.0803 24.1014L58.557 23.3771L59.8928 20.2626L57.5367 21.9649L57.0134 21.2407L60.5283 18.7012L61.0516 19.4254L59.7151 22.5441L62.0736 20.84L62.5952 21.5618Z" fill="#131112"/>
<path d="M63.8995 23.9034L62.5034 25.5711L64.6781 25.5383L65.0968 26.4175L61.9935 26.3153L60.5684 26.994L60.1791 26.1766L61.6042 25.4979L63.4795 23.0215L63.8995 23.9034Z" fill="#131112"/>
<path d="M10.046 39.4987L9.98133 38.561L10.5728 38.5202L10.6374 39.4579C10.6474 39.6028 10.6791 39.7192 10.7326 39.8069C10.7877 39.8945 10.8597 39.9564 10.9485 39.9926C11.0374 40.0288 11.1357 40.0432 11.2436 40.0358C11.3531 40.0282 11.4536 40.0001 11.545 39.9515C11.6365 39.9029 11.7077 39.8311 11.7587 39.7361C11.8097 39.6412 11.8303 39.5213 11.8203 39.3764L11.7737 38.7015L8.68769 38.9143L8.63542 38.156L12.3154 37.9023L12.4142 39.3354C12.4341 39.6236 12.3989 39.874 12.3086 40.0868C12.2201 40.3011 12.0886 40.4693 11.9142 40.5914C11.7398 40.7135 11.5354 40.7826 11.3012 40.7987C11.0636 40.8151 10.8543 40.7745 10.6732 40.6769C10.4921 40.5794 10.3472 40.4302 10.2386 40.2295C10.13 40.0304 10.0658 39.7868 10.046 39.4987Z" fill="#131112"/>
<path d="M12.6309 41.5293L12.9238 42.8734C12.9838 43.149 12.9942 43.3948 12.9548 43.6108C12.9158 43.8285 12.8271 44.0086 12.6888 44.1511C12.5504 44.2936 12.3632 44.3906 12.1273 44.442C11.9342 44.4841 11.7611 44.4872 11.6081 44.4514C11.4571 44.4169 11.3225 44.3503 11.2042 44.2516C11.0879 44.1542 10.9852 44.0322 10.8963 43.8857L10.7212 43.6775L10.4666 42.5091L11.0448 42.3779L11.2341 43.2468C11.2625 43.3772 11.3092 43.4802 11.3741 43.556C11.439 43.6317 11.5174 43.682 11.6093 43.707C11.7015 43.7336 11.8021 43.735 11.911 43.7112C12.0265 43.6861 12.1217 43.6429 12.1965 43.5816C12.2713 43.5204 12.3214 43.4412 12.3469 43.344C12.3724 43.2468 12.3708 43.1322 12.342 43.0002L12.211 42.3987L9.18851 43.0573L9.02669 42.3147L12.6309 41.5293ZM9.46576 44.3296L10.8932 43.1577L11.0692 43.9414L9.67357 45.1167L9.63891 45.1242L9.46576 44.3296Z" fill="#131112"/>
<path d="M12.9141 48.5721L12.7507 48.6344C12.4888 48.7344 12.2401 48.7886 12.0047 48.797C11.7693 48.8055 11.5536 48.773 11.3574 48.6996C11.1629 48.6256 10.9926 48.5134 10.8467 48.363C10.7013 48.2142 10.5871 48.0309 10.504 47.8131C10.4215 47.5969 10.3847 47.3841 10.3933 47.1747C10.4026 46.9669 10.4549 46.7698 10.5501 46.5834C10.6469 46.3965 10.7856 46.227 10.9662 46.0749C11.1474 45.9244 11.369 45.7992 11.631 45.6993L11.7943 45.637C12.0578 45.5364 12.3065 45.4822 12.5403 45.4744C12.7757 45.4659 12.9915 45.4984 13.1876 45.5718C13.3843 45.6468 13.5554 45.7587 13.7007 45.9075C13.8467 46.0579 13.9609 46.2412 14.0434 46.4574C14.1264 46.6752 14.1633 46.888 14.154 47.0958C14.1453 47.3052 14.0923 47.5026 13.9949 47.688C13.8981 47.8749 13.7591 48.0437 13.5779 48.1941C13.3989 48.3456 13.1776 48.4716 12.9141 48.5721ZM12.4771 47.9172L12.6452 47.8531C12.8282 47.7833 12.9829 47.7053 13.1091 47.6192C13.2353 47.5331 13.3334 47.4396 13.4034 47.3388C13.4734 47.2379 13.5143 47.1319 13.5262 47.0208C13.5396 46.909 13.5234 46.7932 13.4776 46.6732C13.4319 46.5533 13.3668 46.4561 13.2823 46.3817C13.2001 46.3082 13.0993 46.2572 12.9799 46.2286C12.8611 46.2016 12.726 46.198 12.5745 46.2179C12.423 46.2377 12.2557 46.2825 12.0726 46.3524L11.9046 46.4165C11.7231 46.4857 11.5685 46.5637 11.4407 46.6504C11.3144 46.7365 11.2155 46.8303 11.144 46.9317C11.074 47.0326 11.0323 47.1388 11.0189 47.2506C11.0055 47.3624 11.0216 47.4782 11.0674 47.5982C11.1131 47.7181 11.1782 47.8153 11.2627 47.8897C11.3471 47.9642 11.4487 48.0149 11.5675 48.0419C11.6878 48.0683 11.8237 48.0716 11.9753 48.0517C12.1283 48.0313 12.2956 47.9864 12.4771 47.9172Z" fill="#131112"/>
<path d="M12.2432 51.4347L11.8488 50.7351L12.3677 50.4484L12.7596 51.1436C12.8575 51.3172 12.979 51.4416 13.1242 51.5168C13.2708 51.5912 13.4369 51.6158 13.6225 51.5907C13.8089 51.5671 14.0094 51.4947 14.2243 51.3736L14.381 51.2853C14.5457 51.1924 14.6807 51.093 14.7859 50.9872C14.8918 50.8829 14.9684 50.7728 15.0156 50.657C15.0628 50.5413 15.0799 50.422 15.067 50.2994C15.0556 50.176 15.0138 50.0502 14.9416 49.9222L14.536 49.2028L15.0547 48.9104L15.4603 49.6298C15.5814 49.8447 15.6553 50.0618 15.6821 50.2813C15.7112 50.5014 15.695 50.7151 15.6334 50.9224C15.5719 51.1296 15.4669 51.3217 15.3184 51.4985C15.1721 51.6759 14.9843 51.8293 14.7548 51.9587L14.6025 52.0445C14.3744 52.1731 14.1459 52.2544 13.917 52.2885C13.6888 52.324 13.4702 52.3145 13.261 52.2599C13.0541 52.2059 12.8629 52.1091 12.6873 51.9696C12.514 51.8308 12.366 51.6525 12.2432 51.4347ZM15.2736 49.2988L12.0603 51.1103L11.6871 50.4482L14.9004 48.6367L15.2736 49.2988Z" fill="#131112"/>
<path d="M18.0001 53.3968L18.4655 53.9945L16.5425 55.4919C16.3186 55.6662 16.0927 55.765 15.8647 55.7884C15.6378 55.8131 15.4203 55.7716 15.2123 55.6639C15.0053 55.5575 14.8172 55.3957 14.6481 55.1784C14.4789 54.9612 14.3671 54.7379 14.3126 54.5085C14.2592 54.2804 14.2717 54.0587 14.3503 53.8434C14.4299 53.6295 14.5816 53.4353 14.8055 53.261L16.7285 51.7637L17.1955 52.3634L15.2724 53.8607C15.1418 53.9624 15.0513 54.066 15.0008 54.1717C14.9504 54.2773 14.9359 54.3839 14.9575 54.4912C14.98 54.6 15.0328 54.7076 15.1158 54.8142C15.2009 54.9235 15.2924 55.0011 15.3902 55.047C15.489 55.0942 15.5953 55.1056 15.709 55.0812C15.8238 55.0582 15.9465 54.9958 16.0771 54.8942L18.0001 53.3968Z" fill="#131112"/>
<path d="M19.7028 55.2809L17.1544 57.9479L16.6049 57.4228L19.1533 54.7559L19.7028 55.2809ZM21.3001 56.8072L18.9847 57.1143L17.7482 57.1872L18.1463 56.5724L19.0976 56.4021L20.626 56.1631L21.3001 56.8072ZM18.1271 58.8773L18.5192 56.8937L19.2514 56.9415L18.7773 59.4986L18.1271 58.8773Z" fill="#131112"/>
<path d="M23.1657 58.1761L21.0016 61.1633L20.3881 60.7188L22.5522 57.7316L23.1657 58.1761ZM24.0848 58.8419L23.7355 59.3241L21.2982 57.5583L21.6475 57.0762L24.0848 58.8419Z" fill="#131112"/>
<path d="M27.0668 61.0854L24.8951 63.4605L24.1584 63.1283L26.9242 60.3291L27.3931 60.5405L27.0668 61.0854ZM26.5695 64.2156L26.9097 61.0145L27.0951 60.4062L27.5686 60.6197L27.3085 64.5489L26.5695 64.2156ZM27.0924 62.9451L26.8477 63.4878L25.0716 62.6869L25.3164 62.1442L27.0924 62.9451Z" fill="#131112"/>
<path d="M31.2017 61.8639L31.9307 62.07L31.2676 64.4153C31.1904 64.6883 31.0668 64.9018 30.897 65.0556C30.7287 65.2099 30.5289 65.3052 30.2974 65.3416C30.0676 65.3784 29.8203 65.3593 29.5553 65.2844C29.2904 65.2095 29.0681 65.0958 28.8883 64.9432C28.7102 64.791 28.5891 64.6049 28.5249 64.3849C28.4623 64.1654 28.4697 63.9191 28.5469 63.646L29.21 61.3008L29.9413 61.5076L29.2782 63.8528C29.2332 64.0121 29.2216 64.1493 29.2435 64.2643C29.2654 64.3793 29.3168 64.4737 29.3978 64.5475C29.4803 64.6217 29.5866 64.6772 29.7166 64.714C29.8499 64.7517 29.9695 64.76 30.0755 64.7391C30.1831 64.7186 30.2755 64.6649 30.3528 64.5779C30.4316 64.4914 30.4936 64.3685 30.5386 64.2092L31.2017 61.8639Z" fill="#131112"/>
<path d="M34.4981 65.2198C34.5065 65.1545 34.504 65.0946 34.4906 65.04C34.4791 64.9841 34.4502 64.9309 34.4039 64.8807C34.3578 64.8288 34.2906 64.775 34.2025 64.7193C34.1143 64.6637 33.9986 64.6028 33.8556 64.5367C33.6967 64.4617 33.547 64.3811 33.4065 64.2949C33.2678 64.2089 33.1472 64.1141 33.0447 64.0107C32.9441 63.9057 32.8688 63.7896 32.8188 63.6622C32.7705 63.5351 32.7565 63.3928 32.7768 63.2353C32.7965 63.0829 32.8478 62.949 32.9308 62.8337C33.014 62.7167 33.1216 62.6216 33.2536 62.5484C33.3859 62.4735 33.5373 62.4223 33.7077 62.3949C33.8798 62.3677 34.0647 62.3668 34.2623 62.3923C34.532 62.4271 34.7611 62.506 34.9496 62.6291C35.1381 62.7521 35.2767 62.9054 35.3655 63.0888C35.4559 63.2725 35.4871 63.4732 35.459 63.691L34.7102 63.5944C34.724 63.4872 34.7135 63.3905 34.6786 63.3043C34.6457 63.2166 34.587 63.1434 34.5026 63.0849C34.4198 63.0265 34.3106 62.9886 34.1749 62.9711C34.0443 62.9543 33.9328 62.9603 33.8405 62.9893C33.7484 63.0166 33.6763 63.0609 33.6241 63.1223C33.5721 63.182 33.5409 63.2529 33.5303 63.335C33.5223 63.397 33.5301 63.4551 33.5538 63.5092C33.5792 63.5636 33.62 63.6165 33.6764 63.6681C33.7327 63.7196 33.8037 63.7705 33.8892 63.8207C33.9747 63.8708 34.0745 63.922 34.1887 63.9742C34.3802 64.0602 34.5465 64.1506 34.6876 64.2454C34.8303 64.3405 34.9467 64.4415 35.0368 64.5485C35.1269 64.6554 35.1902 64.7717 35.2268 64.8974C35.2634 65.023 35.272 65.1612 35.2526 65.312C35.2321 65.4711 35.1827 65.6095 35.1045 65.7271C35.0264 65.8448 34.923 65.9396 34.7945 66.0116C34.666 66.0836 34.5176 66.1317 34.3493 66.156C34.181 66.1803 33.9963 66.1795 33.7953 66.1535C33.6144 66.1302 33.439 66.0838 33.2692 66.0142C33.0996 65.9429 32.949 65.8494 32.8175 65.7337C32.6876 65.6182 32.5897 65.4796 32.5237 65.3178C32.4577 65.156 32.438 64.9721 32.4645 64.7661L33.2208 64.8636C33.2062 64.9775 33.2113 65.0761 33.2364 65.1593C33.2614 65.2426 33.3026 65.3126 33.36 65.3694C33.4191 65.4264 33.4916 65.4715 33.5775 65.5047C33.6652 65.5382 33.7626 65.5618 33.8698 65.5756C34.0005 65.5925 34.1101 65.5879 34.1986 65.5618C34.2888 65.536 34.3582 65.493 34.4068 65.4328C34.4571 65.3729 34.4875 65.3019 34.4981 65.2198Z" fill="#131112"/>
<path d="M39.596 66.2644L38.7955 66.3284L38.7532 65.7371L39.5487 65.6734C39.7474 65.6575 39.9114 65.5995 40.0406 65.4993C40.1697 65.3975 40.2618 65.2571 40.3169 65.0782C40.3738 64.8991 40.3923 64.6867 40.3727 64.4409L40.3583 64.2616C40.3432 64.073 40.3097 63.9088 40.2579 63.7689C40.2077 63.6289 40.14 63.5132 40.0547 63.4217C39.9695 63.3303 39.8685 63.2647 39.7518 63.2249C39.6349 63.1834 39.5033 63.1685 39.3568 63.1802L38.5335 63.2461L38.486 62.6527L39.3093 62.5868C39.5551 62.5671 39.7832 62.5912 39.9937 62.6591C40.2057 62.7251 40.3928 62.8296 40.555 62.9725C40.7173 63.1154 40.8474 63.2913 40.9455 63.5004C41.0451 63.7076 41.1054 63.9425 41.1264 64.2052L41.1404 64.3794C41.1613 64.6404 41.1391 64.8819 41.0739 65.104C41.0103 65.326 40.9098 65.5204 40.7724 65.6873C40.6365 65.8524 40.4683 65.9853 40.268 66.086C40.0692 66.185 39.8452 66.2444 39.596 66.2644ZM38.9305 62.6171L39.2248 66.2941L38.4672 66.3547L38.1729 62.6777L38.9305 62.6171Z" fill="#131112"/>
<path d="M44.9072 64.7974L45.0351 65.3763L43.118 65.8L42.99 65.2211L44.9072 64.7974ZM42.5644 62.1446L43.3604 65.7464L42.6183 65.9104L41.8223 62.3086L42.5644 62.1446ZM44.3135 63.2966L44.4381 63.8607L42.7708 64.2291L42.6462 63.6651L44.3135 63.2966ZM44.2367 61.775L44.3651 62.3564L42.4504 62.7795L42.322 62.1982L44.2367 61.775Z" fill="#131112"/>
<path d="M46.8917 60.8461L47.6008 60.5797L48.4581 62.8611C48.5579 63.1267 48.585 63.3718 48.5395 63.5964C48.4956 63.8204 48.3913 64.0157 48.2265 64.1823C48.0633 64.3482 47.8529 64.4796 47.5952 64.5765C47.3375 64.6733 47.091 64.7136 46.8557 64.6974C46.6221 64.6805 46.4142 64.6026 46.232 64.4635C46.0514 64.3239 45.9112 64.1213 45.8114 63.8557L44.9541 61.5742L45.6656 61.3069L46.5229 63.5883C46.5811 63.7433 46.6531 63.8605 46.739 63.9401C46.8248 64.0197 46.9222 64.0652 47.0312 64.0766C47.1417 64.0874 47.2602 64.0691 47.3866 64.0215C47.5163 63.9728 47.6176 63.9086 47.6904 63.8289C47.7649 63.7486 47.8075 63.6505 47.818 63.5347C47.8302 63.4182 47.8072 63.2825 47.749 63.1276L46.8917 60.8461Z" fill="#131112"/>
<path d="M49.9847 59.3446L51.7547 62.5809L51.0901 62.9444L49.3201 59.708L49.9847 59.3446ZM50.9805 58.7999L51.2662 59.3223L48.6255 60.7665L48.3398 60.2441L50.9805 58.7999Z" fill="#131112"/>
<path d="M54.479 59.6176C54.44 59.5645 54.3968 59.5229 54.3494 59.4927C54.3025 59.4602 54.2449 59.4417 54.1767 59.4373C54.1075 59.4316 54.0218 59.4391 53.9196 59.4597C53.8173 59.4803 53.6917 59.5161 53.5425 59.567C53.3758 59.6225 53.2119 59.6676 53.0507 59.7022C52.891 59.7358 52.7383 59.7505 52.5928 59.7464C52.4476 59.74 52.3129 59.7079 52.1888 59.6503C52.0661 59.5917 51.9577 59.4984 51.8636 59.3705C51.7726 59.2467 51.7173 59.1144 51.6977 58.9737C51.6771 58.8316 51.6893 58.6885 51.7343 58.5443C51.7782 58.3988 51.8524 58.2573 51.9567 58.1198C52.0624 57.9813 52.1956 57.853 52.3562 57.735C52.5753 57.5739 52.7955 57.4729 53.0168 57.4317C53.2381 57.3906 53.4442 57.4058 53.6351 57.4772C53.8273 57.5476 53.9884 57.6713 54.1185 57.8482L53.5102 58.2954C53.4461 58.2083 53.3717 58.1456 53.287 58.1073C53.2026 58.0666 53.1096 58.0542 53.0081 58.0701C52.908 58.085 52.8028 58.133 52.6926 58.214C52.5864 58.2921 52.51 58.3734 52.4632 58.4581C52.4155 58.5414 52.3939 58.6233 52.3986 58.7038C52.4022 58.7828 52.4285 58.8557 52.4775 58.9224C52.5145 58.9728 52.5603 59.0093 52.6148 59.0322C52.6707 59.054 52.7368 59.0641 52.8132 59.0624C52.8895 59.0608 52.9759 59.0486 53.0724 59.0259C53.1689 59.0032 53.2765 58.9713 53.3951 58.9302C53.5931 58.8601 53.7758 58.8107 53.9433 58.7819C54.1122 58.7521 54.2661 58.7448 54.4051 58.76C54.5442 58.7752 54.6703 58.8156 54.7835 58.8812C54.8967 58.9468 54.9983 59.0409 55.0884 59.1633C55.1834 59.2926 55.2433 59.4268 55.2679 59.5659C55.2926 59.705 55.2833 59.8449 55.2401 59.9857C55.1968 60.1265 55.1227 60.2638 55.0177 60.3975C54.9127 60.5313 54.7786 60.6582 54.6153 60.7783C54.4683 60.8863 54.3094 60.9738 54.1385 61.0407C53.9666 61.1063 53.7931 61.1426 53.618 61.1497C53.4444 61.1558 53.2778 61.1232 53.1184 61.0517C52.9589 60.9802 52.8177 60.8608 52.6946 60.6934L53.3091 60.2418C53.3771 60.3343 53.4489 60.4021 53.5245 60.445C53.6001 60.488 53.6782 60.5102 53.759 60.5116C53.841 60.5121 53.9247 60.4946 54.0098 60.4593C54.0963 60.423 54.1831 60.3728 54.2702 60.3088C54.3763 60.2307 54.4524 60.1517 54.4984 60.0718C54.5458 59.9908 54.5664 59.9118 54.56 59.8347C54.555 59.7566 54.528 59.6843 54.479 59.6176Z" fill="#131112"/>
<path d="M57.3996 56.6645L57.9408 56.1345C58.1037 56.3225 58.209 56.5278 58.2568 56.7505C58.3059 56.972 58.291 57.1969 58.2122 57.4254C58.1346 57.6527 57.9878 57.8722 57.7718 58.0837C57.6028 58.2491 57.423 58.3685 57.2324 58.4418C57.0405 58.5138 56.8432 58.5416 56.6403 58.5252C56.4386 58.5075 56.2368 58.4451 56.0349 58.3379C55.833 58.2307 55.6375 58.0805 55.4484 57.8875L55.2694 57.7047C55.0803 57.5116 54.9349 57.3124 54.8331 57.1071C54.7313 56.8994 54.6744 56.694 54.6621 56.4908C54.6511 56.2865 54.6837 56.0892 54.7597 55.8989C54.8357 55.7085 54.9564 55.5324 55.1217 55.3705C55.3413 55.1555 55.5656 55.0139 55.7944 54.9458C56.0244 54.8765 56.2496 54.8711 56.47 54.9296C56.6915 54.9868 56.8982 55.0965 57.09 55.2585L56.547 55.7903C56.437 55.69 56.3278 55.6208 56.2195 55.5826C56.11 55.5433 56.0002 55.5409 55.8899 55.5756C55.7797 55.6079 55.6643 55.6832 55.5436 55.8013C55.4531 55.89 55.3906 55.9843 55.3561 56.0842C55.3216 56.1842 55.3152 56.291 55.3367 56.4047C55.3582 56.5184 55.4089 56.639 55.4888 56.7664C55.5687 56.8914 55.6772 57.024 55.8143 57.1639L55.9968 57.3504C56.1304 57.4867 56.2582 57.5967 56.3804 57.6804C56.5013 57.7629 56.6178 57.8191 56.7297 57.8489C56.8417 57.8763 56.9492 57.8751 57.0523 57.8451C57.1553 57.8127 57.2551 57.7493 57.3516 57.6547C57.4651 57.5436 57.5409 57.4339 57.579 57.3257C57.6172 57.2174 57.6207 57.1087 57.5896 56.9997C57.5597 56.8895 57.4964 56.7778 57.3996 56.6645Z" fill="#131112"/>
<path d="M59.3408 52.8105L59.8135 53.1683L58.6514 54.7035L58.1787 54.3457L59.3408 52.8105ZM57.1169 53.2592L60.0581 55.4855L59.5994 56.0915L56.6582 53.8652L57.1169 53.2592ZM58.4701 51.4715L61.4113 53.6978L60.9541 54.3018L58.0129 52.0755L58.4701 51.4715Z" fill="#131112"/>
<path d="M62.8207 50.1005L63.3385 50.3892L62.4342 52.0111L61.9164 51.7225L62.8207 50.1005ZM59.332 50.0002L62.5539 51.7965L62.1837 52.4603L58.9619 50.6641L59.332 50.0002Z" fill="#131112"/>
<path d="M61.5804 46.7323L64.0627 48.7807L63.7682 49.5333L60.8324 46.913L61.0197 46.4341L61.5804 46.7323ZM64.7319 47.0702L61.5177 46.8928L60.9007 46.7384L61.0899 46.2548L65.0272 46.3152L64.7319 47.0702ZM63.4365 46.6124L63.9909 46.8293L63.2811 48.6436L62.7267 48.4267L63.4365 46.6124Z" fill="#131112"/>
<path d="M62.3609 41.6207L65.9587 42.4349L65.7909 43.1762L63.0521 44.076L65.4638 44.6218L65.296 45.3631L61.6982 44.5488L61.866 43.8075L64.6079 42.9059L62.1937 42.3595L62.3609 41.6207Z" fill="#131112"/>
<path d="M66.246 39.8428L66.1882 40.6438L65.5973 40.5962L65.6547 39.8002C65.669 39.6014 65.6365 39.4306 65.557 39.2877C65.4759 39.1447 65.3511 39.0324 65.1825 38.9508C65.0141 38.8675 64.8069 38.817 64.561 38.7993L64.3816 38.7863C64.1929 38.7727 64.0255 38.781 63.8794 38.8111C63.7334 38.8395 63.6088 38.8889 63.5055 38.9594C63.4022 39.0298 63.322 39.1197 63.265 39.2291C63.2064 39.3383 63.1717 39.4662 63.1612 39.6127L63.1018 40.4365L62.5079 40.3937L62.5674 39.5699C62.5851 39.324 62.6434 39.1021 62.7423 38.9044C62.8397 38.7048 62.9713 38.5356 63.1371 38.3969C63.3029 38.2581 63.4965 38.1561 63.718 38.0908C63.9379 38.0237 64.1792 37.9996 64.442 38.0185L64.6164 38.0311C64.8775 38.0499 65.1129 38.1084 65.3226 38.2065C65.5324 38.3029 65.7093 38.4317 65.8535 38.5928C65.9961 38.7521 66.1021 38.9383 66.1714 39.1516C66.2391 39.3631 66.264 39.5935 66.246 39.8428ZM62.54 39.949L66.2192 40.2143L66.1645 40.9723L62.4854 40.707L62.54 39.949Z" fill="#131112"/>
<mask id="mask0_5695_37557" style="mask-type:luminance" maskUnits="userSpaceOnUse" x="15" y="15" width="45" height="45">
<path d="M59.0456 37.4992C59.0456 49.3986 49.3991 59.0449 37.4998 59.0449C25.6006 59.0449 15.9541 49.3986 15.9541 37.4992C15.9541 25.6 25.6006 15.9537 37.4998 15.9537C49.3991 15.9537 59.0456 25.6 59.0456 37.4992Z" fill="white"/>
</mask>
<g mask="url(#mask0_5695_37557)">
<mask id="mask1_5695_37557" style="mask-type:luminance" maskUnits="userSpaceOnUse" x="13" y="15" width="49" height="16">
<path d="M61.0447 30.3184H13.9551V15.9545H61.0447V30.3184Z" fill="white"/>
</mask>
<g mask="url(#mask1_5695_37557)">
<path d="M17.1787 30.3301V30.2503H17.2053V30.1705H17.2319V30.0907H17.2585V30.0109H17.2851V29.9577H17.3117V29.878H17.3383V29.8248H17.3649V29.745H17.3915V29.6918H17.4181V29.612H17.4447V29.5588H17.4713V29.479H17.4979V29.3992H17.5245V29.346H17.5511V29.2662H17.5776V29.2131H17.6042V29.1333H17.6308V29.0801H17.6574V29.0269H17.684V28.9471H17.7106V28.8939H17.7372V28.8407H17.7638V28.7875H17.7904V28.7343H17.817V28.6545H17.8436V28.6014H17.8702V28.5482H17.8968V28.495H17.9234V28.4418H17.95V28.362H17.9766V28.3088H18.0032V28.2556H18.0298V28.2024H18.0564V28.1492H18.083V28.096H18.1096V28.0428H18.1362V27.9897H18.1628V27.9365H18.1893V27.8833H18.2159V27.8301H18.2425V27.7769H18.2691V27.7237H18.2957V27.6705H18.3223V27.6173H18.3489V27.5641H18.3755V27.5109H18.4021V27.4577H18.4287V27.4045H18.4553V27.3514H18.4819V27.2982H18.5085V27.245H18.5351V27.1918H18.5617V27.1652H18.5883V27.112H18.6149V27.0588H18.6415V27.0322H18.6681V26.979H18.6947V26.9258H18.7213V26.8726H18.7479V26.846H18.7745V26.7928H18.8011V26.7397H18.8276V26.6865H18.8542V26.6599H18.8808V26.6067H18.9074V26.5535H18.934V26.5003H18.9606V26.4737H18.9872V26.4205H19.0138V26.3673H19.0404V26.3141H19.067V26.2875H19.0936V26.2343H19.1202V26.2077H19.1468V26.1545H19.1734V26.128H19.2V26.0748H19.2266V26.0216H19.2532V25.995H19.2798V25.9418H19.3064V25.9152H19.333V25.862H19.3596V25.8354H19.3862V25.7822H19.4128V25.7556H19.4393V25.7024H19.4659V25.6492H19.4925V25.6226H19.5191V25.5694H19.5457V25.5428H19.5723V25.4897H19.5989V25.4631H19.6255V25.4099H19.6521V25.3833H19.6787V25.3301H19.7053V25.3035H19.7319V25.2769H19.7585V25.2237H19.7851V25.1971H19.8117V25.1439H19.8383V25.1173H19.8649V25.0907H19.8915V25.0375H19.9181V25.0109H19.9447V24.9577H19.9713V24.9311H19.9979V24.9045H20.0245V24.8514H20.0511V24.8248H20.0776V24.7716H20.1042V24.745H20.1308V24.6918H20.1574V24.6652H20.184V24.6386H20.2106V24.5854H20.2372V24.5588H20.2638V24.5322H20.2904V24.479H20.317V24.4524H20.3436V24.4258H20.3702V24.3992H20.3968V24.346H20.4234V24.3194H20.45V24.2928H20.4766V24.2662H20.5032V24.2131H20.5298V24.1865H20.5564V24.1599H20.583V24.1067H20.6096V24.0801H20.6362V24.0535H20.6628V24.0269H20.6893V23.9737H20.7159V23.9471H20.7425V23.9205H20.7691V23.8939H20.7957V23.8407H20.8223V23.8141H20.8489V23.7875H20.8755V23.7609H20.9021V23.7077H20.9287V23.6811H20.9553V23.6545H20.9819V23.628H21.0085V23.6014H21.0351V23.5748H21.0617V23.5482H21.0883V23.495H21.1149V23.4684H21.1415V23.4418H21.1681V23.4152H21.1947V23.3886H21.2213V23.362H21.2479V23.3088H21.2745V23.2822H21.3011V23.2556H21.3276V23.229H21.3542V23.2024H21.3808V23.1758H21.4074V23.1492H21.434V23.096H21.4606V23.0694H21.4872V23.0428H21.5138V23.0162H21.5404V22.9897H21.567V22.9631H21.5936V22.9365H21.6202V22.9099H21.6468V22.8833H21.6734V22.8567H21.7V22.8301H21.7266V22.7769H21.7532V22.7503H21.7798V22.7237H21.8064V22.6971H21.833V22.6705H21.8596V22.6439H21.8862V22.6173H21.9128V22.5907H21.9393V22.5641H21.9659V22.5375H21.9925V22.5109H22.0191V22.4843H22.0457V22.4577H22.0723V22.4311H22.0989V22.4045H22.1255V22.378H22.1521V22.3514H22.1787V22.3248H22.2053V22.2982H22.2319V22.2716H22.2585V22.245H22.2851V22.2184H22.3117V22.1918H22.3383V22.1652H22.3649V22.1386H22.3915V22.112H22.4181V22.0854H22.4447V22.0588H22.4713V22.0322H22.4979V22.0056H22.5245V21.979H22.5511V21.9524H22.5776V21.9258H22.6042V21.8992H22.6308V21.8726H22.6574V21.846H22.684V21.8194H22.7106V21.7928H22.7372V21.7662H22.7638V21.7397H22.7904V21.7131H22.8436V21.6865H22.8702V21.6599H22.8968V21.6333H22.9234V21.6067H22.95V21.5801H22.9766V21.5535H23.0032V21.5269H23.0298V21.5003H23.0564V21.4737H23.083V21.4471H23.1096V21.4205H23.1628V21.3939H23.1893V21.3673H23.2159V21.3407H23.2425V21.3141H23.2691V21.2875H23.2957V21.2609H23.3489V21.2343H23.3755V21.2077H23.4021V21.1811H23.4287V21.1545H23.4553V21.128H23.4819V21.1014H23.5085V21.0748H23.5617V21.0482H23.5883V21.0216H23.6149V20.995H23.6415V20.9684H23.6681V20.9418H23.6947V20.9152H23.7479V20.8886H23.7745V20.862H23.8011V20.8354H23.8276V20.8088H23.8542V20.7822H23.9074V20.7556H23.934V20.729H23.9606V20.7024H24.0138V20.6758H24.0404V20.6492H24.067V20.6226H24.0936V20.596H24.1468V20.5694H24.1734V20.5428H24.2V20.5162H24.2266V20.4897H24.2798V20.4631H24.3064V20.4365H24.333V20.4099H24.3862V20.3833H24.4128V20.3567H24.4393V20.3301H24.4659V20.3035H24.5191V20.2769H24.5457V20.2503H24.5723V20.2237H24.5989V20.1971H24.6521V20.1705H24.6787V20.1439H24.7319V20.1173H24.7585V20.0907H24.8117V20.0641H24.8383V20.0375H24.8649V20.0109H24.9181V19.9843H24.9447V19.9577H24.9979V19.9311H25.0245V19.9045H25.0511V19.878H25.1042V19.8514H25.1308V19.8248H25.184V19.7982H25.2106V19.7716H25.2372V19.745H25.2904V19.7184H25.317V19.6918H25.3702V19.6652H25.3968V19.6386H25.4234V19.612H25.4766V19.5854H25.5298V19.5588H25.5564V19.5322H25.6096V19.5056H25.6362V19.479H25.6893V19.4524H25.7159V19.4258H25.7691V19.3992H25.7957V19.3726H25.8489V19.346H25.9021V19.3194H25.9287V19.2928H25.9819V19.2662H26.0085V19.2397H26.0617V19.2131H26.0883V19.1865H26.1415V19.1599H26.1681V19.1333H26.2213V19.1067H26.2745V19.0801H26.3011V19.0535H26.3542V19.0269H26.4074V19.0003H26.434V18.9737H26.4872V18.9471H26.5404V18.9205H26.5936V18.8939H26.6202V18.8673H26.6734V18.8407H26.7266V18.8141H26.7798V18.7875H26.8064V18.7609H26.8596V18.7343H26.9128V18.7077H26.9393V18.6811H26.9925V18.6545H27.0457V18.628H27.0989V18.6014H27.1255V18.5748H27.1787V18.5482H27.2319V18.5216H27.2851V18.495H27.3383V18.4684H27.3915V18.4418H27.4447V18.4152H27.4979V18.3886H27.5511V18.362H27.6042V18.3354H27.6574V18.3088H27.7106V18.2822H27.7638V18.2556H27.7904V18.229H27.8436V18.2024H27.8968V18.1758H27.95V18.1492H28.0032V18.1226H28.0564V18.096H28.1096V18.0694H28.1628V18.0428H28.2159V18.0162H28.2957V17.9897H28.3489V17.9631H28.4021V17.9365H28.4553V17.9099H28.5085V17.8833H28.5883V17.8567H28.6415V17.8301H28.6947V17.8035H28.7479V17.7769H28.8276V17.7503H28.8808V17.7237H28.934V17.6971H28.9872V17.6705H29.0404V17.6439H29.1202V17.6173H29.1734V17.5907H29.2532V17.5641H29.3064V17.5375H29.3862V17.5109H29.4393V17.4843H29.5191V17.4577H29.5723V17.4311H29.6521V17.4045H29.7319V17.378H29.7851V17.3514H29.8649V17.3248H29.9181V17.2982H29.9979V17.2716H30.0511V17.245H30.1308V17.2184H30.2106V17.1918H30.2904V17.1652H30.3702V17.1386H30.45V17.112H30.5298V17.0854H30.6096V17.0588H30.6893V17.0322H30.7691V17.0056H30.8489V16.979H30.9287V16.9524H31.0085V16.9258H31.0617V16.8992H31.1681V16.8726H31.2479V16.846H31.3542V16.8194H31.4606V16.7928H31.5404V16.7662H31.6468V16.7397H31.7266V16.7131H31.833V16.6865H31.9128V16.6599H32.0191V16.6333H32.0989V16.6067H32.2319V16.5801H32.3383V16.5535H32.4447V16.5269H32.5776V16.5003H32.684V16.4737H32.7904V16.4471H32.9234V16.4205H33.0298V16.3939H33.1362V16.3673H33.2957V16.3407H33.4287V16.3141H33.5883V16.2875H33.7479V16.2609H33.8808V16.2343H34.0404V16.2077H34.1734V16.1811H34.3862V16.1545H34.5989V16.128H34.8117V16.1014H34.9979V16.0748H35.2106V16.0482H35.5298V16.0216H35.8755V15.995H36.2213V15.9684H36.833V15.9418H38.1628V15.9684H38.7745V15.995H39.1202V16.0216H39.4659V16.0482H39.7851V16.0748H39.9979V16.1014H40.2106V16.128H40.3968V16.1545H40.6096V16.1811H40.8223V16.2077H40.9553V16.2343H41.1149V16.2609H41.2745V16.2875H41.4074V16.3141H41.567V16.3407H41.7V16.3673H41.8596V16.3939H41.9659V16.4205H42.0989V16.4471H42.2053V16.4737H42.3117V16.5003H42.4447V16.5269H42.5511V16.5535H42.6574V16.5801H42.7904V16.6067H42.8968V16.6333H42.9766V16.6599H43.083V16.6865H43.1894V16.7131H43.2691V16.7397H43.3755V16.7662H43.4553V16.7928H43.5617V16.8194H43.6415V16.846H43.7479V16.8726H43.8276V16.8992H43.934V16.9258H44.0138V16.9524H44.0936V16.979H44.1734V17.0056H44.2266V17.0322H44.3064V17.0588H44.3862V17.0854H44.4659V17.112H44.5457V17.1386H44.6255V17.1652H44.7053V17.1918H44.7851V17.2184H44.8649V17.245H44.9447V17.2716H44.9979V17.2982H45.0776V17.3248H45.1574V17.3514H45.2106V17.378H45.2904V17.4045H45.3436V17.4311H45.4234V17.4577H45.4766V17.4843H45.5564V17.5109H45.6096V17.5375H45.6893V17.5641H45.7425V17.5907H45.8223V17.6173H45.8755V17.6439H45.9553V17.6705H46.0085V17.6971H46.0617V17.7237H46.1149V17.7503H46.1947V17.7769H46.2479V17.8035H46.3011V17.8301H46.3542V17.8567H46.4074V17.8833H46.4872V17.9099H46.5404V17.9365H46.5936V17.9631H46.6468V17.9897H46.7V18.0162H46.7798V18.0428H46.833V18.0694H46.8862V18.096H46.9394V18.1226H46.9925V18.1492H47.0457V18.1758H47.0989V18.2024H47.1521V18.229H47.2053V18.2556H47.2585V18.2822H47.3117V18.3088H47.3649V18.3354H47.3915V18.362H47.4447V18.3886H47.4979V18.4152H47.5511V18.4418H47.6042V18.4684H47.6574V18.495H47.7106V18.5216H47.7638V18.5482H47.817V18.5748H47.8702V18.6014H47.8968V18.628H47.95V18.6545H48.0032V18.6811H48.0564V18.7077H48.083V18.7343H48.1362V18.7609H48.1894V18.7875H48.2425V18.8141H48.2691V18.8407H48.3223V18.8673H48.3755V18.8939H48.4287V18.9205H48.4553V18.9471H48.5085V18.9737H48.5617V19.0003H48.6149V19.0269H48.6415V19.0535H48.6947V19.0801H48.7479V19.1067H48.7745V19.1333H48.8276V19.1599H48.8542V19.1865H48.9074V19.2131H48.934V19.2397H48.9872V19.2662H49.0138V19.2928H49.067V19.3194H49.1202V19.346H49.1468V19.3726H49.2V19.3992H49.2266V19.4258H49.2798V19.4524H49.3064V19.479H49.3596V19.5056H49.3862V19.5322H49.4394V19.5588H49.4925V19.5854H49.5191V19.612H49.5723V19.6386H49.5989V19.6652H49.6255V19.6918H49.6787V19.7184H49.7053V19.745H49.7585V19.7716H49.7851V19.7982H49.8383V19.8248H49.8649V19.8514H49.8915V19.878H49.9447V19.9045H49.9713V19.9311H50.0245V19.9577H50.0511V19.9843H50.0776V20.0109H50.1308V20.0375H50.1574V20.0641H50.2106V20.0907H50.2372V20.1173H50.2638V20.1439H50.317V20.1705H50.3436V20.1971H50.3968V20.2237H50.4234V20.2503H50.45V20.2769H50.5032V20.3035H50.5298V20.3301H50.5564V20.3567H50.583V20.3833H50.6362V20.4099H50.6628V20.4365H50.6893V20.4631H50.7159V20.4897H50.7691V20.5162H50.7957V20.5428H50.8223V20.5694H50.8755V20.596H50.9021V20.6226H50.9287V20.6492H50.9553V20.6758H51.0085V20.7024H51.0351V20.729H51.0617V20.7556H51.0883V20.7822H51.1415V20.8088H51.1681V20.8354H51.1947V20.862H51.2213V20.8886H51.2745V20.9152H51.3011V20.9418H51.3277V20.9684H51.3542V20.995H51.3808V21.0216H51.4074V21.0482H51.4606V21.0748H51.4872V21.1014H51.5138V21.128H51.5404V21.1545H51.567V21.1811H51.5936V21.2077H51.6202V21.2343H51.6734V21.2609H51.7V21.2875H51.7266V21.3141H51.7532V21.3407H51.7798V21.3673H51.8064V21.3939H51.8596V21.4205H51.8862V21.4471H51.9128V21.4737H51.9394V21.5003H51.9659V21.5269H51.9925V21.5535H52.0191V21.5801H52.0457V21.6067H52.0723V21.6333H52.0989V21.6599H52.1521V21.6865H52.1787V21.7131H52.2053V21.7397H52.2319V21.7662H52.2585V21.7928H52.2851V21.8194H52.3117V21.846H52.3383V21.8726H52.3649V21.8992H52.3915V21.9258H52.4181V21.9524H52.4447V21.979H52.4713V22.0056H52.4979V22.0322H52.5245V22.0588H52.5511V22.0854H52.5776V22.112H52.6042V22.1386H52.6308V22.1652H52.6574V22.1918H52.7106V22.2184H52.7372V22.245H52.7638V22.2716H52.7904V22.2982H52.817V22.3514H52.8436V22.378H52.8702V22.4045H52.8968V22.4311H52.9234V22.4577H52.95V22.4843H52.9766V22.5109H53.0032V22.5375H53.0298V22.5641H53.0564V22.5907H53.083V22.6173H53.1096V22.6439H53.1362V22.6705H53.1628V22.6971H53.1894V22.7237H53.2159V22.7503H53.2425V22.7769H53.2691V22.8035H53.2957V22.8301H53.3223V22.8567H53.3489V22.9099H53.3755V22.9365H53.4021V22.9631H53.4287V22.9897H53.4553V23.0162H53.4819V23.0428H53.5085V23.0694H53.5351V23.096H53.5617V23.1226H53.5883V23.1758H53.6149V23.2024H53.6415V23.229H53.6681V23.2556H53.6947V23.2822H53.7213V23.3088H53.7479V23.3354H53.7745V23.3886H53.8011V23.4152H53.8276V23.4418H53.8542V23.4684H53.8808V23.495H53.9074V23.5216H53.934V23.5748H53.9606V23.6014H53.9872V23.628H54.0138V23.6545H54.0404V23.6811H54.067V23.7077H54.0936V23.7343H54.1202V23.7875H54.1468V23.8141H54.1734V23.8407H54.2V23.8673H54.2266V23.9205H54.2532V23.9471H54.2798V23.9737H54.3064V24.0003H54.333V24.0535H54.3596V24.0801H54.3862V24.1067H54.4128V24.1599H54.4394V24.1865H54.4659V24.2131H54.4925V24.2397H54.5191V24.2928H54.5457V24.3194H54.5723V24.346H54.5989V24.3726H54.6255V24.4258H54.6521V24.4524H54.6787V24.479H54.7053V24.5322H54.7319V24.5588H54.7585V24.5854H54.7851V24.612H54.8117V24.6652H54.8383V24.6918H54.8649V24.745H54.8915V24.7716H54.9181V24.8248H54.9447V24.8514H54.9713V24.878H54.9979V24.9311H55.0245V24.9577H55.0511V25.0109H55.0776V25.0375H55.1042V25.0641H55.1308V25.1173H55.1574V25.1439H55.184V25.1971H55.2106V25.2237H55.2372V25.2503H55.2638V25.3035H55.2904V25.3301H55.317V25.3833H55.3436V25.4099H55.3702V25.4365H55.3968V25.4897H55.4234V25.5428H55.45V25.5694H55.4766V25.6226H55.5032V25.6492H55.5298V25.7024H55.5564V25.729H55.583V25.7822H55.6096V25.8354H55.6362V25.862H55.6628V25.9152H55.6894V25.9418H55.7159V25.995H55.7425V26.0216H55.7691V26.0748H55.7957V26.1014H55.8223V26.1545H55.8489V26.2077H55.8755V26.2343H55.9021V26.2875H55.9287V26.3141H55.9553V26.3673H55.9819V26.4205H56.0085V26.4471H56.0351V26.5003H56.0617V26.5535H56.0883V26.6067H56.1149V26.6333H56.1415V26.6865H56.1681V26.7397H56.1947V26.7928H56.2213V26.8194H56.2479V26.8726H56.2745V26.9258H56.3011V26.979H56.3277V27.0056H56.3542V27.0588H56.3808V27.112H56.4074V27.1652H56.434V27.1918H56.4606V27.245H56.4872V27.2982H56.5138V27.3514H56.5404V27.4045H56.567V27.4577H56.5936V27.5109H56.6202V27.5641H56.6468V27.6173H56.6734V27.6705H56.7V27.7237H56.7266V27.7769H56.7532V27.8301H56.7798V27.8833H56.8064V27.9365H56.833V27.9631H56.8596V28.0162H56.8862V28.0694H56.9128V28.1226H56.9394V28.1758H56.9659V28.2556H56.9925V28.3088H57.0191V28.362H57.0457V28.4152H57.0723V28.495H57.0989V28.5482H57.1255V28.6014H57.1521V28.6545H57.1787V28.7077H57.2053V28.7875H57.2319V28.8407H57.2585V28.8939H57.2851V28.9471H57.3117V29.0003H57.3383V29.0801H57.3649V29.1333H57.3915V29.2131H57.4181V29.2662H57.4447V29.346H57.4713V29.3992H57.4979V29.479H57.5245V29.5322H57.5511V29.612H57.5776V29.6652H57.6042V29.745H57.6308V29.7982H57.6574V29.878H57.684V29.9311H57.7106V30.0109H57.7372V30.0907H57.7638V30.1439H57.7904V30.2237H57.817V30.3035H57.8436V30.3301" fill="url(#paint0_linear_5695_37557)"/>
</g>
</g>
<mask id="mask2_5695_37557" style="mask-type:luminance" maskUnits="userSpaceOnUse" x="15" y="15" width="45" height="45">
<path d="M59.0456 37.4992C59.0456 49.3986 49.3991 59.0449 37.4998 59.0449C25.6006 59.0449 15.9541 49.3986 15.9541 37.4992C15.9541 25.6 25.6006 15.9537 37.4998 15.9537C49.3991 15.9537 59.0456 25.6 59.0456 37.4992Z" fill="white"/>
</mask>
<g mask="url(#mask2_5695_37557)">
<mask id="mask3_5695_37557" style="mask-type:luminance" maskUnits="userSpaceOnUse" x="13" y="30" width="49" height="15">
<path d="M61.0447 44.6816H13.9551V30.3181H61.0447V44.6816Z" fill="white"/>
</mask>
<g mask="url(#mask3_5695_37557)">
<path d="M17.1521 44.6914V44.6116H17.1255V44.5318H17.0989V44.452H17.0723V44.3723H17.0457V44.2925H17.0191V44.2127H16.9925V44.1329H16.9659V44.0531H16.9393V43.9733H16.9128V43.8935H16.8862V43.7872H16.8596V43.7074H16.833V43.601H16.8064V43.5212H16.7798V43.4148H16.7532V43.335H16.7266V43.2286H16.7V43.1489H16.6734V43.0425H16.6468V42.9627H16.6202V42.8563H16.5936V42.7233H16.567V42.6169H16.5404V42.5106H16.5138V42.3776H16.4872V42.2712H16.4606V42.1648H16.434V42.0318H16.4074V41.9254H16.3808V41.7925H16.3542V41.6595H16.3276V41.4999H16.3011V41.3403H16.2745V41.2074H16.2479V41.0478H16.2213V40.9148H16.1947V40.7286H16.1681V40.5159H16.1415V40.3297H16.1149V40.1169H16.0883V39.9042H16.0617V39.6648H16.0351V39.3191H16.0085V38.9733H15.9819V38.6276H15.9553V37.8297H15.9287V37.1648H15.9553V36.3669H15.9819V36.0212H16.0085V35.6754H16.0351V35.3297H16.0617V35.0903H16.0883V34.9042H16.1149V34.6914H16.1415V34.4786H16.1681V34.2659H16.1947V34.1063H16.2213V33.9467H16.2479V33.8137H16.2745V33.6542H16.3011V33.4946H16.3276V33.3616H16.3542V33.202H16.3808V33.0691H16.4074V32.9627H16.434V32.8563H16.4606V32.7233H16.4872V32.6169H16.5138V32.5106H16.5404V32.3776H16.567V32.2712H16.5936V32.1648H16.6202V32.0584H16.6468V31.952H16.6734V31.8723H16.7V31.7659H16.7266V31.6861H16.7532V31.5797H16.7798V31.4999H16.8064V31.3935H16.833V31.3137H16.8596V31.2074H16.8862V31.1276H16.9128V31.0212H16.9393V30.9414H16.9659V30.8616H16.9925V30.7818H17.0191V30.7286H17.0457V30.6489H17.0723V30.5691H17.0989V30.4893H17.1255V30.4095H17.1521V30.3297H17.1787V30.3031H57.8436V30.3829H57.8702V30.4627H57.8968V30.5425H57.9234V30.6223H57.95V30.702H57.9766V30.7818H58.0032V30.8616H58.0298V30.9414H58.0564V31.0212H58.083V31.101H58.1096V31.2074H58.1362V31.2872H58.1628V31.3935H58.1894V31.4733H58.2159V31.5797H58.2425V31.6595H58.2691V31.7659H58.2957V31.8457H58.3223V31.952H58.3489V32.0318H58.3755V32.1382H58.4021V32.2446H58.4287V32.3776H58.4553V32.484H58.4819V32.5903H58.5085V32.7233H58.5351V32.8297H58.5617V32.9361H58.5883V33.0691H58.6149V33.1754H58.6415V33.335H58.6681V33.4946H58.6947V33.6276H58.7213V33.7872H58.7479V33.9201H58.7745V34.0797H58.8011V34.2393H58.8276V34.452H58.8542V34.6648H58.8808V34.8776H58.9074V35.0637H58.934V35.2765H58.9606V35.6223H58.9872V35.9946H59.0138V36.3403H59.0404V37.0584H59.067V37.9361H59.0404V38.6542H59.0138V39.0265H58.9872V39.3723H58.9606V39.718H58.934V39.9308H58.9074V40.1435H58.8808V40.3563H58.8542V40.5425H58.8276V40.7552H58.8011V40.9148H58.7745V41.0744H58.7479V41.2074H58.7213V41.3669H58.6947V41.5265H58.6681V41.6595H58.6415V41.8191H58.6149V41.952H58.5883V42.0584H58.5617V42.1648H58.5351V42.2978H58.5085V42.4042H58.4819V42.5106H58.4553V42.6169H58.4287V42.7499H58.4021V42.8563H58.3755V42.9627H58.3489V43.0425H58.3223V43.1489H58.2957V43.2552H58.2691V43.335H58.2425V43.4414H58.2159V43.5212H58.1894V43.6276H58.1628V43.7074H58.1362V43.8137H58.1096V43.8935H58.083V43.9733H58.0564V44.0531H58.0298V44.1329H58.0032V44.2127H57.9766V44.2925H57.95V44.3723H57.9234V44.452H57.8968V44.5318H57.8702V44.6116H57.8436V44.6914" fill="url(#paint1_linear_5695_37557)"/>
</g>
</g>
<mask id="mask4_5695_37557" style="mask-type:luminance" maskUnits="userSpaceOnUse" x="15" y="15" width="45" height="45">
<path d="M59.0456 37.4992C59.0456 49.3986 49.3991 59.0449 37.4998 59.0449C25.6006 59.0449 15.9541 49.3986 15.9541 37.4992C15.9541 25.6 25.6006 15.9537 37.4998 15.9537C49.3991 15.9537 59.0456 25.6 59.0456 37.4992Z" fill="white"/>
</mask>
<g mask="url(#mask4_5695_37557)">
<mask id="mask5_5695_37557" style="mask-type:luminance" maskUnits="userSpaceOnUse" x="13" y="44" width="49" height="16">
<path d="M61.0447 59.0449H13.9551V44.6811H61.0447V59.0449Z" fill="white"/>
</mask>
<g mask="url(#mask5_5695_37557)">
<path d="M36.6204 59.0527V59.0261H36.1417V58.9995H35.796V58.9729H35.4502V58.9464H35.1577V58.9198H34.9449V58.8932H34.7587V58.8666H34.546V58.84H34.3332V58.8134H34.147V58.7868H33.9874V58.7602H33.8545V58.7336H33.6949V58.707H33.5619V58.6804H33.4023V58.6538H33.2428V58.6272H33.1098V58.6006H33.0034V58.574H32.8704V58.5474H32.764V58.5208H32.6577V58.4942H32.5247V58.4676H32.4183V58.441H32.3119V58.4144H32.1789V58.3878H32.0726V58.3612H31.9928V58.3346H31.8864V58.3081H31.8066V58.2815H31.7002V58.2549H31.6204V58.2283H31.514V58.2017H31.4343V58.1751H31.3279V58.1485H31.2481V58.1219H31.1417V58.0953H31.0619V58.0687H30.9821V58.0421H30.9023V58.0155H30.8226V57.9889H30.7428V57.9623H30.663V57.9357H30.5832V57.9091H30.5034V57.8825H30.4236V57.8559H30.3438V57.8293H30.264V57.8027H30.1843V57.7761H30.1045V57.7495H30.0513V57.7229H29.9715V57.6964H29.8917V57.6698H29.8385V57.6432H29.7587V57.6166H29.7055V57.59H29.6257V57.5634H29.5726V57.5368H29.4928V57.5102H29.4396V57.4836H29.3598V57.457H29.3066V57.4304H29.2268V57.4038H29.1736V57.3772H29.0938V57.3506H29.0406V57.324H28.9874V57.2974H28.9077V57.2708H28.8545V57.2442H28.8013V57.2176H28.7481V57.191H28.6949V57.1644H28.6151V57.1378H28.5619V57.1112H28.5087V57.0846H28.4555V57.0581H28.4023V57.0315H28.3226V57.0049H28.2694V56.9783H28.2162V56.9517H28.163V56.9251H28.1098V56.8985H28.0566V56.8719H28.0034V56.8453H27.9502V56.8187H27.897V56.7921H27.8438V56.7655H27.7906V56.7389H27.7374V56.7123H27.6843V56.6857H27.6311V56.6591H27.5779V56.6325H27.5247V56.6059H27.4715V56.5793H27.4183V56.5527H27.3651V56.5261H27.3119V56.4995H27.2587V56.4729H27.2055V56.4464H27.1789V56.4198H27.1257V56.3932H27.0726V56.3666H27.046V56.34H26.9928V56.3134H26.9396V56.2868H26.8864V56.2602H26.8598V56.2336H26.8066V56.207H26.7534V56.1804H26.7002V56.1538H26.6736V56.1272H26.6204V56.1006H26.5672V56.074H26.514V56.0474H26.4874V56.0208H26.4343V55.9942H26.3811V55.9676H26.3279V55.941H26.3013V55.9144H26.2481V55.8878H26.2215V55.8612H26.1683V55.8346H26.1417V55.8081H26.0885V55.7815H26.0353V55.7549H26.0087V55.7283H25.9555V55.7017H25.9289V55.6751H25.8757V55.6485H25.8492V55.6219H25.796V55.5953H25.7428V55.5687H25.7162V55.5421H25.663V55.5155H25.6364V55.4889H25.5832V55.4623H25.5566V55.4357H25.5034V55.4091H25.4768V55.3825H25.4236V55.3559H25.397V55.3293H25.3438V55.3027H25.3172V55.2761H25.264V55.2495H25.2374V55.2229H25.2109V55.1964H25.1577V55.1698H25.1311V55.1432H25.0779V55.1166H25.0513V55.09H25.0247V55.0634H24.9715V55.0368H24.9449V55.0102H24.8917V54.9836H24.8651V54.957H24.8385V54.9304H24.7853V54.9038H24.7587V54.8772H24.7055V54.8506H24.6789V54.824H24.6523V54.7974H24.5992V54.7708H24.5726V54.7442H24.546V54.7176H24.4928V54.691H24.4662V54.6644H24.4396V54.6378H24.3864V54.6112H24.3598V54.5846H24.3332V54.5581H24.3066V54.5315H24.2534V54.5049H24.2268V54.4783H24.2002V54.4517H24.1736V54.4251H24.1204V54.3985H24.0938V54.3719H24.0672V54.3453H24.014V54.3187H23.9875V54.2921H23.9609V54.2655H23.9343V54.2389H23.8811V54.2123H23.8545V54.1857H23.8279V54.1591H23.8013V54.1325H23.7481V54.1059H23.7215V54.0793H23.6949V54.0527H23.6683V54.0261H23.6417V53.9995H23.6151V53.9729H23.5619V53.9464H23.5353V53.9198H23.5087V53.8932H23.4821V53.8666H23.4555V53.84H23.4289V53.8134H23.4023V53.7868H23.3492V53.7602H23.3226V53.7336H23.296V53.707H23.2694V53.6804H23.2428V53.6538H23.2162V53.6272H23.163V53.6006H23.1364V53.574H23.1098V53.5474H23.0832V53.5208H23.0566V53.4942H23.03V53.4676H23.0034V53.441H22.9768V53.4144H22.9236V53.3878H22.897V53.3612H22.8704V53.3346H22.8438V53.3081H22.8172V53.2815H22.7906V53.2549H22.764V53.2283H22.7374V53.2017H22.7109V53.1751H22.6843V53.1485H22.6577V53.1219H22.6311V53.0953H22.6045V53.0687H22.5779V53.0421H22.5513V53.0155H22.5247V52.9889H22.4981V52.9623H22.4715V52.9357H22.4449V52.9091H22.4183V52.8825H22.3651V52.8559H22.3385V52.8293H22.3119V52.8027H22.2853V52.7761H22.2587V52.7495H22.2321V52.7229H22.2055V52.6964H22.1789V52.6698H22.1523V52.6432H22.1257V52.59H22.0992V52.5634H22.0726V52.5368H22.046V52.5102H22.0194V52.4836H21.9928V52.457H21.9662V52.4304H21.9396V52.4038H21.913V52.3772H21.8864V52.3506H21.8598V52.324H21.8332V52.2974H21.8066V52.2708H21.78V52.2442H21.7534V52.2176H21.7268V52.191H21.7002V52.1644H21.6736V52.1378H21.647V52.1112H21.6204V52.0846H21.5938V52.0581H21.5672V52.0049H21.5406V51.9783H21.514V51.9517H21.4874V51.9251H21.4609V51.8985H21.4343V51.8719H21.4077V51.8453H21.3811V51.7921H21.3545V51.7655H21.3279V51.7389H21.3013V51.7123H21.2747V51.6857H21.2481V51.6591H21.2215V51.6325H21.1949V51.5793H21.1683V51.5527H21.1417V51.5261H21.1151V51.4995H21.0885V51.4729H21.0619V51.4464H21.0353V51.3932H21.0087V51.3666H20.9821V51.34H20.9555V51.3134H20.9289V51.2868H20.9023V51.2602H20.8757V51.2336H20.8492V51.1804H20.8226V51.1538H20.796V51.1272H20.7694V51.074H20.7428V51.0474H20.7162V51.0208H20.6896V50.9942H20.663V50.941H20.6364V50.9144H20.6098V50.8878H20.5832V50.8612H20.5566V50.8081H20.53V50.7815H20.5034V50.7549H20.4768V50.7017H20.4502V50.6751H20.4236V50.6485H20.397V50.6219H20.3704V50.5687H20.3438V50.5421H20.3172V50.5155H20.2906V50.4889H20.264V50.4357H20.2374V50.4091H20.2109V50.3825H20.1843V50.3293H20.1577V50.3027H20.1311V50.2495H20.1045V50.2229H20.0779V50.1964H20.0513V50.1432H20.0247V50.1166H19.9981V50.0634H19.9715V50.0368H19.9449V50.0102H19.9183V49.957H19.8917V49.9304H19.8651V49.8772H19.8385V49.8506H19.8119V49.7974H19.7853V49.7708H19.7587V49.7442H19.7321V49.691H19.7055V49.6644H19.6789V49.6112H19.6523V49.5846H19.6257V49.5581H19.5992V49.5049H19.5726V49.4517H19.546V49.4251H19.5194V49.3719H19.4928V49.3453H19.4662V49.2921H19.4396V49.2655H19.413V49.2123H19.3864V49.1857H19.3598V49.1325H19.3332V49.0793H19.3066V49.0527H19.28V48.9995H19.2534V48.9729H19.2268V48.9198H19.2002V48.8932H19.1736V48.84H19.147V48.8134H19.1204V48.7602H19.0938V48.707H19.0672V48.6804H19.0406V48.6272H19.014V48.574H18.9875V48.5474H18.9609V48.4942H18.9343V48.441H18.9077V48.3878H18.8811V48.3612H18.8545V48.3081H18.8279V48.2549H18.8013V48.2017H18.7747V48.1751H18.7481V48.1219H18.7215V48.0687H18.6949V48.0155H18.6683V47.9889H18.6417V47.9357H18.6151V47.8825H18.5885V47.8293H18.5619V47.8027H18.5353V47.7495H18.5087V47.6964H18.4821V47.6432H18.4555V47.59H18.4289V47.5368H18.4023V47.4836H18.3757V47.4304H18.3492V47.3772H18.3226V47.324H18.296V47.2708H18.2694V47.2176H18.2428V47.1644H18.2162V47.1112H18.1896V47.0581H18.163V47.0315H18.1364V46.9783H18.1098V46.9251H18.0832V46.8719H18.0566V46.8187H18.03V46.7389H18.0034V46.6857H17.9768V46.6325H17.9502V46.5793H17.9236V46.4995H17.897V46.4464H17.8704V46.3932H17.8438V46.34H17.8172V46.2868H17.7906V46.207H17.764V46.1538H17.7375V46.1006H17.7109V46.0474H17.6843V45.9942H17.6577V45.9144H17.6311V45.8612H17.6045V45.7815H17.5779V45.7283H17.5513V45.6485H17.5247V45.5953H17.4981V45.5155H17.4715V45.4623H17.4449V45.3825H17.4183V45.3293H17.3917V45.2495H17.3651V45.1964H17.3385V45.1166H17.3119V45.0368H17.2853V44.9836H17.2587V44.9038H17.2321V44.824H17.2055V44.7442H17.1789V44.691H17.1523V44.6644H57.8438V44.691H57.8172V44.7708H57.7906V44.8506H57.764V44.9304H57.7374V44.9836H57.7109V45.0634H57.6843V45.1166H57.6577V45.1964H57.6311V45.2495H57.6045V45.3293H57.5779V45.3825H57.5513V45.4623H57.5247V45.5421H57.4981V45.5953H57.4715V45.6751H57.4449V45.7283H57.4183V45.8081H57.3917V45.8612H57.3651V45.941H57.3385V45.9942H57.3119V46.0474H57.2853V46.1006H57.2587V46.1538H57.2321V46.2336H57.2055V46.2868H57.1789V46.34H57.1523V46.3932H57.1257V46.4464H57.0991V46.5261H57.0726V46.5793H57.046V46.6325H57.0194V46.6857H56.9928V46.7655H56.9662V46.8187H56.9396V46.8719H56.913V46.9251H56.8864V46.9783H56.8598V47.0315H56.8332V47.0846H56.8066V47.1378H56.78V47.191H56.7534V47.2442H56.7268V47.2974H56.7002V47.324H56.6736V47.3772H56.647V47.4304H56.6204V47.4836H56.5938V47.5368H56.5672V47.59H56.5406V47.6432H56.514V47.6964H56.4874V47.7495H56.4609V47.8027H56.4343V47.8559H56.4077V47.8825H56.3811V47.9357H56.3545V47.9889H56.3279V48.0421H56.3013V48.0687H56.2747V48.1219H56.2481V48.1751H56.2215V48.2283H56.1949V48.2549H56.1683V48.3081H56.1417V48.3612H56.1151V48.4144H56.0885V48.441H56.0619V48.4942H56.0353V48.5474H56.0087V48.6006H55.9821V48.6272H55.9555V48.6804H55.9289V48.7336H55.9023V48.7602H55.8757V48.8134H55.8492V48.84H55.8226V48.8932H55.796V48.9198H55.7694V48.9729H55.7428V49.0261H55.7162V49.0527H55.6896V49.1059H55.663V49.1325H55.6364V49.1857H55.6098V49.2123H55.5832V49.2655H55.5566V49.2921H55.53V49.3453H55.5034V49.3985H55.4768V49.4251H55.4502V49.4783H55.4236V49.5049H55.397V49.5581H55.3704V49.5846H55.3438V49.6378H55.3172V49.6644H55.2906V49.691H55.264V49.7442H55.2374V49.7708H55.2109V49.824H55.1843V49.8506H55.1577V49.8772H55.1311V49.9304H55.1045V49.957H55.0779V50.0102H55.0513V50.0368H55.0247V50.09H54.9981V50.1166H54.9715V50.1432H54.9449V50.1964H54.9183V50.2229H54.8917V50.2761H54.8651V50.3027H54.8385V50.3293H54.8119V50.3825H54.7853V50.4091H54.7587V50.4357H54.7321V50.4889H54.7055V50.5155H54.6789V50.5421H54.6523V50.5687H54.6257V50.6219H54.5991V50.6485H54.5726V50.6751H54.546V50.7283H54.5194V50.7549H54.4928V50.7815H54.4662V50.8081H54.4396V50.8612H54.413V50.8878H54.3864V50.9144H54.3598V50.941H54.3332V50.9942H54.3066V51.0208H54.28V51.0474H54.2534V51.1006H54.2268V51.1272H54.2002V51.1538H54.1736V51.1804H54.147V51.2336H54.1204V51.2602H54.0938V51.2868H54.0672V51.3134H54.0406V51.34H54.014V51.3666H53.9874V51.4198H53.9609V51.4464H53.9343V51.4729H53.9077V51.4995H53.8811V51.5261H53.8545V51.5527H53.8279V51.5793H53.8013V51.6325H53.7747V51.6591H53.7481V51.6857H53.7215V51.7123H53.6949V51.7389H53.6683V51.7655H53.6417V51.8187H53.6151V51.8453H53.5885V51.8719H53.5619V51.8985H53.5353V51.9251H53.5087V51.9517H53.4821V52.0049H53.4555V52.0315H53.4289V52.0581H53.4023V52.0846H53.3757V52.1112H53.3491V52.1378H53.3226V52.1644H53.296V52.191H53.2694V52.2176H53.2428V52.2442H53.2162V52.2708H53.1896V52.2974H53.163V52.324H53.1364V52.3506H53.1098V52.3772H53.0832V52.4038H53.0566V52.4304H53.03V52.457H53.0034V52.4836H52.9768V52.5102H52.9502V52.5634H52.9236V52.59H52.897V52.6166H52.8704V52.6432H52.8438V52.6698H52.8172V52.6964H52.7906V52.7229H52.764V52.7495H52.7374V52.7761H52.7109V52.8027H52.6843V52.8293H52.6577V52.8559H52.6311V52.8825H52.6045V52.9091H52.5779V52.9357H52.5247V52.9623H52.4981V52.9889H52.4715V53.0155H52.4449V53.0421H52.4183V53.0687H52.3917V53.0953H52.3651V53.1219H52.3385V53.1485H52.3119V53.1751H52.2853V53.2017H52.2587V53.2283H52.2321V53.2549H52.2055V53.2815H52.1789V53.3081H52.1523V53.3346H52.1257V53.3612H52.0992V53.3878H52.0726V53.4144H52.046V53.441H52.0194V53.4676H51.9662V53.4942H51.9396V53.5208H51.913V53.5474H51.8864V53.574H51.8598V53.6006H51.8332V53.6272H51.8066V53.6538H51.7534V53.6804H51.7268V53.707H51.7002V53.7336H51.6736V53.7602H51.647V53.7868H51.6204V53.8134H51.5672V53.84H51.5406V53.8666H51.514V53.8932H51.4874V53.9198H51.4609V53.9464H51.4343V53.9729H51.4077V53.9995H51.3545V54.0261H51.3279V54.0527H51.3013V54.0793H51.2747V54.1059H51.2481V54.1325H51.2215V54.1591H51.1683V54.1857H51.1417V54.2123H51.1151V54.2389H51.0619V54.2655H51.0353V54.2921H51.0087V54.3187H50.9821V54.3453H50.9289V54.3719H50.9023V54.3985H50.8757V54.4251H50.8492V54.4517H50.796V54.4783H50.7694V54.5049H50.7428V54.5315H50.6896V54.5581H50.663V54.5846H50.6364V54.6112H50.6098V54.6378H50.5566V54.6644H50.53V54.691H50.5034V54.7176H50.4768V54.7442H50.4236V54.7708H50.397V54.7974H50.3704V54.824H50.3172V54.8506H50.2906V54.8772H50.2374V54.9038H50.2109V54.9304H50.1843V54.957H50.1311V54.9836H50.1045V55.0102H50.0513V55.0368H50.0247V55.0634H49.9981V55.09H49.9449V55.1166H49.9183V55.1432H49.8651V55.1698H49.8385V55.1964H49.7853V55.2229H49.7587V55.2495H49.7321V55.2761H49.6789V55.3027H49.6523V55.3293H49.5991V55.3559H49.5726V55.3825H49.546V55.4091H49.4928V55.4357H49.4396V55.4623H49.413V55.4889H49.3598V55.5155H49.3332V55.5421H49.28V55.5687H49.2534V55.5953H49.2002V55.6219H49.147V55.6485H49.1204V55.6751H49.0672V55.7017H49.0406V55.7283H48.9874V55.7549H48.9609V55.7815H48.9077V55.8081H48.8811V55.8346H48.8279V55.8612H48.7747V55.8878H48.7481V55.9144H48.6949V55.941H48.6683V55.9676H48.6151V55.9942H48.5619V56.0208H48.5087V56.0474H48.4821V56.074H48.4289V56.1006H48.3757V56.1272H48.3492V56.1538H48.296V56.1804H48.2428V56.207H48.1896V56.2336H48.163V56.2602H48.1098V56.2868H48.0566V56.3134H48.0034V56.34H47.9768V56.3666H47.9236V56.3932H47.8704V56.4198H47.8172V56.4464H47.7906V56.4729H47.7374V56.4995H47.6843V56.5261H47.6311V56.5527H47.5779V56.5793H47.5247V56.6059H47.4715V56.6325H47.4183V56.6591H47.3651V56.6857H47.3119V56.7123H47.2587V56.7389H47.2055V56.7655H47.1523V56.7921H47.0992V56.8187H47.046V56.8453H46.9928V56.8719H46.9396V56.8985H46.8864V56.9251H46.8332V56.9517H46.78V56.9783H46.7268V57.0049H46.6736V57.0315H46.6204V57.0581H46.5406V57.0846H46.4874V57.1112H46.4343V57.1378H46.3811V57.1644H46.3279V57.191H46.2481V57.2176H46.1949V57.2442H46.1417V57.2708H46.0885V57.2974H46.0087V57.324H45.9555V57.3506H45.9023V57.3772H45.8491V57.4038H45.7694V57.4304H45.6896V57.457H45.6364V57.4836H45.5566V57.5102H45.5034V57.5368H45.4236V57.5634H45.3704V57.59H45.2906V57.6166H45.2374V57.6432H45.1577V57.6698H45.1045V57.6964H45.0247V57.7229H44.9715V57.7495H44.8917V57.7761H44.8119V57.8027H44.7321V57.8293H44.6523V57.8559H44.5726V57.8825H44.4928V57.9091H44.413V57.9357H44.3332V57.9623H44.2534V57.9889H44.1736V58.0155H44.0938V58.0421H44.014V58.0687H43.9343V58.0953H43.8545V58.1219H43.7747V58.1485H43.6683V58.1751H43.5619V58.2017H43.4821V58.2283H43.3757V58.2549H43.296V58.2815H43.1896V58.3081H43.1098V58.3346H43.0034V58.3612H42.9236V58.3878H42.8172V58.4144H42.6843V58.441H42.5779V58.4676H42.4715V58.4942H42.3385V58.5208H42.2321V58.5474H42.1257V58.574H41.9928V58.6006H41.8864V58.6272H41.7534V58.6538H41.5938V58.6804H41.4609V58.707H41.3013V58.7336H41.1417V58.7602H41.0087V58.7868H40.8492V58.8134H40.663V58.84H40.4502V58.8666H40.2374V58.8932H40.0513V58.9198H39.8385V58.9464H39.5726V58.9729H39.2002V58.9995H38.8545V59.0261H38.3757V59.0527" fill="url(#paint2_linear_5695_37557)"/>
</g>
</g>
<path d="M59.0454 37.5006H58.3806C58.3803 43.2686 56.0444 48.4846 52.2646 52.2655C48.4837 56.045 43.2678 58.3809 37.4997 58.3812C31.7316 58.3809 26.5157 56.045 22.7348 52.2655C18.955 48.4846 16.6194 43.2686 16.6188 37.5006C16.6194 31.7322 18.955 26.5163 22.7348 22.7354C26.5157 18.9559 31.7316 16.62 37.4997 16.6197C43.2678 16.62 48.4837 18.9559 52.2646 22.7354C56.0444 26.5163 58.3803 31.7322 58.3806 37.5006H59.0454H59.7103C59.7098 25.2338 49.7665 15.2902 37.4997 15.2899C25.2329 15.2902 15.2896 25.2338 15.2891 37.5006C15.2896 49.7671 25.2329 59.7107 37.4997 59.7109C49.7665 59.7107 59.7098 49.7671 59.7103 37.5006H59.0454Z" fill="#131112"/>
<path d="M12.3123 32.5831C12.3123 33.6214 11.4708 34.4629 10.4325 34.4629C9.39423 34.4629 8.55273 33.6214 8.55273 32.5831C8.55273 31.5448 9.39423 30.7031 10.4325 30.7031C11.4708 30.7031 12.3123 31.5448 12.3123 32.5831Z" fill="#131112"/>
<path d="M66.4473 32.5831C66.4473 33.6214 65.6056 34.4629 64.5676 34.4629C63.529 34.4629 62.6875 33.6214 62.6875 32.5831C62.6875 31.5448 63.529 30.7031 64.5676 30.7031C65.6056 30.7031 66.4473 31.5448 66.4473 32.5831Z" fill="#131112"/>
<defs>
<linearGradient id="paint0_linear_5695_37557" x1="13.9548" y1="23.1373" x2="61.0444" y2="23.1373" gradientUnits="userSpaceOnUse">
<stop stop-color="#131112"/>
<stop offset="0.527586" stop-color="#36353C"/>
<stop offset="1" stop-color="#131112"/>
</linearGradient>
<linearGradient id="paint1_linear_5695_37557" x1="13.9548" y1="37.5007" x2="61.0444" y2="37.5007" gradientUnits="userSpaceOnUse">
<stop stop-color="#691B1E"/>
<stop offset="0.527586" stop-color="#EE213A"/>
<stop offset="1" stop-color="#691B1E"/>
</linearGradient>
<linearGradient id="paint2_linear_5695_37557" x1="13.955" y1="51.8639" x2="61.0446" y2="51.8639" gradientUnits="userSpaceOnUse">
<stop stop-color="#F36825"/>
<stop offset="0.527586" stop-color="#F2B712"/>
<stop offset="0.958621" stop-color="#F36825"/>
<stop offset="1" stop-color="#F36825"/>
</linearGradient>
</defs>
</svg>
