<svg width="25" height="25" viewBox="0 0 25 25" fill="none" xmlns="http://www.w3.org/2000/svg">
<path fill-rule="evenodd" clip-rule="evenodd" d="M12.0307 0.5C18.6803 0.5 24.0614 5.88107 24.0614 12.5307C23.4271 28.4898 0.634271 28.4898 0 12.5307C0 5.88107 5.40153 0.5 12.0307 0.5ZM12.133 5.00128C2.14834 5.39003 2.12788 19.6714 12.133 20.0806C16.2864 20.0806 19.6624 16.7046 19.6624 12.5512C19.6624 8.3977 16.2864 5.00128 12.133 5.00128Z" fill="url(#paint0_radial_5695_37743)"/>
<path fill-rule="evenodd" clip-rule="evenodd" d="M19.6623 12.5303C19.6623 16.6838 16.2863 20.0598 12.1329 20.0598C2.12777 19.671 2.14823 5.38968 12.1329 4.98047C16.2863 5.00093 19.6623 8.37689 19.6623 12.5303Z" fill="url(#paint1_radial_5695_37743)"/>
<path fill-rule="evenodd" clip-rule="evenodd" d="M20.0309 9.76687L20.8084 9.52135C20.8493 9.82826 21.0539 10.1965 21.2994 10.3398C21.6063 10.5444 22.1997 10.3602 22.302 9.99194C22.4657 9.68503 22.1383 8.86662 22.0155 8.62109L19.8672 9.29629L20.0309 9.76687ZM21.8518 9.19398C21.9746 9.41905 22.036 9.78733 21.7291 9.88964C21.4426 9.99194 21.238 9.68503 21.1971 9.39859L21.8518 9.19398Z" fill="white"/>
<path fill-rule="evenodd" clip-rule="evenodd" d="M19.0286 7.84467C19.3969 8.3971 20.0312 8.51986 20.6655 8.11065C21.9749 7.25132 20.7268 5.40988 19.4174 6.31014C18.8649 6.65797 18.6603 7.27178 19.0286 7.84467ZM19.7038 6.73981C20.0721 6.49428 20.4609 6.47382 20.6655 6.78073C21.0951 7.39454 19.7652 8.25387 19.3765 7.64006C19.1923 7.33316 19.3355 6.98533 19.7038 6.73981Z" fill="white"/>
<path fill-rule="evenodd" clip-rule="evenodd" d="M17.003 5.67578L17.6168 4.91874L18.2715 5.47117L17.6782 6.20775L18.0669 6.53511L19.4992 4.75506L19.1104 4.42769L18.558 5.12335L17.9033 4.57092L18.4557 3.89573L18.0465 3.56836L16.6143 5.34841L17.003 5.67578Z" fill="white"/>
<path fill-rule="evenodd" clip-rule="evenodd" d="M15.2634 4.73472C15.8363 4.98024 16.2455 4.7961 16.3887 4.44827C16.5114 4.14137 16.4296 3.87538 16.1227 3.58894C15.8976 3.36387 15.8158 3.26157 15.8567 3.11835C15.8976 3.01605 16.0409 2.95467 16.2455 3.03651C16.4501 3.11835 16.5728 3.24111 16.6342 3.32295L16.9002 2.99559C16.5114 2.54546 15.6112 2.3204 15.3452 2.95467C15.2224 3.26157 15.3657 3.54802 15.6521 3.83446C15.8772 4.03907 15.9386 4.14137 15.8772 4.28459C15.7135 4.63242 15.0997 4.20275 14.9769 4.01861L14.7109 4.36643C14.7928 4.46873 15.0178 4.63242 15.2634 4.73472Z" fill="white"/>
<path fill-rule="evenodd" clip-rule="evenodd" d="M12.9102 2.03371C12.6033 1.7268 11.7439 1.74726 11.2733 1.80864L11.2324 4.05928C11.703 4.14113 12.5419 4.14112 12.8897 3.83422C13.3603 3.46593 13.4421 2.40199 12.9102 2.03371ZM11.9281 3.691C11.8667 3.691 11.7849 3.691 11.7439 3.67054L11.7644 2.17693C12.2759 2.09509 12.7465 2.29969 12.7056 2.89304C12.726 3.44547 12.3987 3.71146 11.9281 3.691Z" fill="white"/>
<path fill-rule="evenodd" clip-rule="evenodd" d="M10.68 4.14136L10.5572 3.73215L9.65695 3.97768L9.51373 3.44571L10.3321 3.2411L10.2298 2.8319L9.41143 3.0365L9.28866 2.58637L10.1685 2.36131L10.0457 1.93164L8.69531 2.29993L9.2682 4.50965L10.68 4.14136Z" fill="white"/>
<path fill-rule="evenodd" clip-rule="evenodd" d="M6.89473 3.58868L7.77452 5.22551L8.22465 4.95953L7.34486 3.34316L7.89729 3.03626L7.69268 2.66797L6.1377 3.50684L6.3423 3.87513L6.89473 3.58868Z" fill="white"/>
<path fill-rule="evenodd" clip-rule="evenodd" d="M5.58571 5.67627C5.8517 5.55351 5.99492 5.55351 6.09722 5.65581C6.3632 5.94226 5.70847 6.331 5.48341 6.37192L5.68801 6.76067C5.83124 6.71975 6.07676 6.59699 6.2609 6.4333C6.73149 6.00364 6.73149 5.57397 6.46551 5.28752C6.24044 5.06246 5.97446 5.02154 5.56525 5.18522C5.25834 5.30798 5.13558 5.34891 5.03328 5.22614C4.80822 4.98062 5.38111 4.63279 5.54479 4.59187L5.34019 4.20312C4.7673 4.36681 4.19441 5.10338 4.66499 5.59443C4.89006 5.83995 5.21742 5.81949 5.58571 5.67627Z" fill="white"/>
<path fill-rule="evenodd" clip-rule="evenodd" d="M4.88986 8.06947C5.19677 7.55796 5.11492 7.08738 4.52157 6.69863L3.43718 6.02344L3.17119 6.45311L4.27605 7.14876C4.62388 7.37382 4.70572 7.59889 4.56249 7.82395C4.41927 8.04901 4.17375 8.06947 3.82592 7.86487L2.72106 7.16922L2.45508 7.59888L3.53948 8.27408C4.13283 8.68328 4.58296 8.56052 4.88986 8.06947Z" fill="white"/>
<path fill-rule="evenodd" clip-rule="evenodd" d="M3.8462 10.4425L2.98687 10.197L3.02779 10.0538C3.08917 9.84916 3.19147 9.78778 3.47791 9.78778C3.76436 9.80824 3.9485 9.78778 4.03034 9.78778L4.17357 9.27627C4.07126 9.29673 3.76436 9.27627 3.49837 9.27627C3.27331 9.27627 3.10963 9.31719 3.00733 9.46041C2.98687 9.03075 2.4549 8.72384 2.06615 8.98983C1.75924 9.17397 1.59556 9.99238 1.53418 10.3197L3.70298 10.9336L3.8462 10.4425ZM2.67996 9.89008L2.61858 10.0947L2.02523 9.931C2.04569 9.70594 2.16845 9.31719 2.47536 9.41949C2.6595 9.46041 2.74134 9.64456 2.67996 9.89008Z" fill="white"/>
<path fill-rule="evenodd" clip-rule="evenodd" d="M3.60108 12.0385L1.73919 11.9976L1.75965 11.3633H1.32998L1.28906 13.1229H1.71873L1.73919 12.5091L3.58062 12.55L3.60108 12.0385Z" fill="white"/>
<path fill-rule="evenodd" clip-rule="evenodd" d="M4.09173 18.3602L4.3168 18.749L3.76437 19.0968C3.27332 18.708 3.17102 17.9919 3.82575 17.6032C4.48048 17.1735 5.13521 17.685 5.21705 18.3602L5.44212 18.2988C5.27843 17.4395 4.4191 16.8461 3.62114 17.3577C2.70043 17.9305 3.06871 18.9126 3.74391 19.4242L4.64416 18.8717L4.25541 18.2579L4.09173 18.3602Z" fill="white"/>
<path fill-rule="evenodd" clip-rule="evenodd" d="M6.93578 19.5264L6.09691 20.5289C5.79 20.8972 5.4831 20.9381 5.23757 20.7335C5.01251 20.5494 4.97159 20.2425 5.29895 19.8742L6.13783 18.8716L5.91276 18.6875L5.07389 19.6696C4.62376 20.2016 4.72606 20.6108 5.07389 20.9177C5.44218 21.2246 5.8923 21.245 6.32197 20.7131L7.16085 19.731L6.93578 19.5264Z" fill="white"/>
<path fill-rule="evenodd" clip-rule="evenodd" d="M6.50684 21.9218L6.77282 22.0446L7.26387 21.4921L7.97998 21.8195L7.89814 22.5561L8.16413 22.6788L8.38919 20.3463L8.08228 20.2031L6.50684 21.9218ZM8.16413 20.5305C8.10274 20.776 8.06182 21.3489 8.04136 21.6149L7.42755 21.3489C7.6117 21.1238 8.00044 20.7351 8.16413 20.5305Z" fill="white"/>
<path fill-rule="evenodd" clip-rule="evenodd" d="M10.1276 20.8778C9.923 20.8369 9.73886 20.8164 9.57518 20.8164L9.14551 22.9647L9.43195 23.0261L9.6161 22.0849L9.88208 22.1259C10.1276 22.1873 10.2299 22.3305 10.2299 22.6374C10.2299 22.9238 10.2504 23.108 10.2708 23.1898L10.5573 23.2512C10.5164 23.1693 10.5164 22.9443 10.5164 22.6169C10.5164 22.3919 10.4345 22.2077 10.2913 22.1054C10.721 22.0645 10.9869 21.5325 10.721 21.1847C10.5982 21.021 10.414 20.9187 10.1276 20.8778ZM10.5164 21.5939C10.4754 21.8394 10.2504 21.9622 9.94346 21.9008L9.65702 21.8394L9.8207 21.0415C10.1276 21.0619 10.6187 21.1847 10.5164 21.5939Z" fill="white"/>
<path fill-rule="evenodd" clip-rule="evenodd" d="M12.092 21.082L11.3555 23.3122H11.6624L11.8874 22.6166H12.6649L12.9105 23.3122H13.2174L12.4399 21.1025L12.092 21.082ZM11.9284 22.3915C12.0102 22.1255 12.1943 21.614 12.2353 21.348C12.2966 21.5935 12.5012 22.1255 12.5831 22.3915H11.9284Z" fill="white"/>
<path fill-rule="evenodd" clip-rule="evenodd" d="M14.9979 20.6532C15.1411 21.1647 15.3048 21.9626 15.4889 22.4332C15.182 22.0445 14.3432 21.2874 13.9749 20.9192L13.668 21.001L14.2204 23.1493L14.4864 23.088C14.3636 22.5969 14.1386 21.7376 13.9953 21.2874C14.3227 21.6967 15.1616 22.4332 15.5503 22.822L15.8368 22.7401L15.2843 20.5918L14.9979 20.6532Z" fill="white"/>
<path fill-rule="evenodd" clip-rule="evenodd" d="M17.1663 19.8745L17.0436 19.6699L15.6113 20.4474L15.7341 20.6725L16.307 20.3451L17.2686 22.0842L17.5141 21.941L16.573 20.2019L17.1663 19.8745Z" fill="white"/>
<path fill-rule="evenodd" clip-rule="evenodd" d="M18.8851 20.6944L18.3531 20.101L18.9874 19.5281L18.8237 19.344L18.1894 19.9169L17.7188 19.4054L18.3736 18.7916L18.2303 18.6074L17.3301 19.4258L18.8441 21.0627L19.7649 20.2238L19.6012 20.0396L18.8851 20.6944Z" fill="white"/>
<path fill-rule="evenodd" clip-rule="evenodd" d="M20.3786 19.0163L19.7034 18.5866L20.174 17.8705L19.9694 17.7477L19.5193 18.4639L18.926 18.0751L19.417 17.3181L19.2124 17.1953L18.5781 18.1979L20.44 19.405L21.0947 18.3616L20.9106 18.2183L20.3786 19.0163Z" fill="white"/>
<path fill-rule="evenodd" clip-rule="evenodd" d="M22.8129 12.0601C22.7925 11.5282 22.4651 11.2008 22.0763 11.2417C21.749 11.2622 21.5444 11.5282 21.4216 11.8965C21.3398 12.1829 21.2579 12.2852 21.1147 12.2852C20.726 12.3057 20.8487 11.5486 20.951 11.344L20.5214 11.2622C20.46 11.3849 20.3986 11.6509 20.4191 11.9169C20.46 12.5307 20.7873 12.8172 21.1761 12.7967C21.5035 12.7762 21.6876 12.5716 21.8308 12.1829C21.9331 11.876 21.9945 11.7532 22.1377 11.7532C22.4855 11.7532 22.3832 12.408 22.3014 12.5512L22.7311 12.6535C22.772 12.5103 22.8129 12.3261 22.8129 12.0601Z" fill="white"/>
<path fill-rule="evenodd" clip-rule="evenodd" d="M3.11036 15.1897C3.0899 15.7421 2.29194 15.7421 2.27148 15.1897C2.27148 14.6373 3.0899 14.6373 3.11036 15.1897Z" fill="#F7E19E"/>
<path fill-rule="evenodd" clip-rule="evenodd" d="M21.79 15.1897C21.7696 15.7421 20.9716 15.7421 20.9512 15.1897C20.9512 14.6373 21.7696 14.6373 21.79 15.1897Z" fill="#F1CB53"/>
<path fill-rule="evenodd" clip-rule="evenodd" d="M13.5446 7.55859C14.8336 7.55859 15.7339 8.1724 15.918 9.17496C16.0203 9.70693 15.8976 10.1775 15.7339 10.5458L15.7134 10.6072C15.7134 10.6276 15.693 10.6481 15.693 10.6481L15.6725 10.689C15.6521 10.7299 15.6316 10.7709 15.6111 10.8118L15.5907 10.8527L15.5702 10.8936L15.5498 10.9346C15.5498 10.9346 15.5498 10.955 15.5293 10.955L15.5088 10.9959L15.4884 11.0369L15.4679 11.0778C15.4679 11.0778 15.4679 11.0982 15.4474 11.0982L15.427 11.1392L15.3861 11.1801C15.3861 11.1801 15.3861 11.1801 15.3656 11.2005L15.3247 11.2415L15.3042 11.2824C14.8132 11.8143 14.0561 12.2849 12.9513 12.7146L12.8285 12.7555C12.092 13.0215 11.3554 13.2261 10.5983 13.3898L10.3733 13.4512L10.1482 13.5126L9.80039 13.5944C9.71855 15.3744 10.1891 16.2952 11.1917 16.4179C11.2735 16.4179 11.3758 16.4384 11.4577 16.4384C12.0306 16.4384 12.5012 16.2133 12.8899 15.9473L12.9513 15.9064V15.8246L13.0127 15.7837L13.074 15.7427L13.1559 15.6814C13.6674 15.2926 14.0561 14.822 14.3835 14.3514L14.5063 14.1877L15.0587 14.6583L15.0178 14.6993L14.9359 14.8016C14.895 14.8629 14.8541 14.9039 14.8336 14.9652L14.7518 15.0675C14.2812 15.7223 13.8106 16.2542 13.1559 16.6635L13.0945 16.7044L13.074 16.7248L13.0127 16.7658C12.9717 16.7862 12.9104 16.8271 12.849 16.8476L12.7876 16.8885L12.7262 16.9294C12.1943 17.1954 11.4781 17.4614 10.6597 17.4614C10.4551 17.4614 10.271 17.4409 10.0664 17.4205C8.57277 17.1954 7.71343 16.111 7.69297 14.3514V14.2901C7.67251 12.6737 8.18402 11.1801 9.18658 9.87061L9.2275 9.80923C10.3528 8.37701 11.7032 7.61997 13.3605 7.55859C13.4423 7.55859 13.4833 7.55859 13.5446 7.55859ZM13.0127 8.33609C12.9513 8.33609 12.8694 8.33609 12.8081 8.35655H12.7671C12.0715 8.47931 11.56 8.92944 11.1508 9.48187L11.1099 9.54325C11.1099 9.56371 11.0894 9.56371 11.0894 9.58417L11.0485 9.64555L11.0076 9.70693L10.9666 9.76831L10.9257 9.82969L10.8848 9.89107L10.8439 9.95246L10.8029 10.0138C10.3324 10.7709 10.0255 11.6507 9.86177 12.6941C10.9052 12.51 11.8464 12.1417 12.583 11.6711C13.606 10.9959 14.1175 10.198 14.0766 9.29772C13.9948 8.74529 13.5856 8.33609 13.0127 8.33609Z" fill="#006DAD"/>
<path fill-rule="evenodd" clip-rule="evenodd" d="M7.95891 14.4137C7.93845 12.7769 8.44996 11.2219 9.47298 9.892C10.5983 8.45978 12.0305 7.74367 13.6878 7.68229C13.7492 7.68229 13.8106 7.68229 13.872 7.68229C14.2198 7.68229 14.5267 7.72321 14.8131 7.80505C14.4448 7.64136 14.0152 7.53906 13.5241 7.53906C13.4627 7.53906 13.4014 7.53906 13.34 7.53906C11.6827 7.6209 10.3323 8.35748 9.20699 9.7897C8.16351 11.1196 7.652 12.6337 7.67247 14.2705C7.69293 15.8664 8.36812 16.9099 9.57528 17.2782C8.59318 16.8485 7.97937 15.846 7.95891 14.4137Z" fill="#044D73"/>
<path fill-rule="evenodd" clip-rule="evenodd" d="M11.7238 16.521C12.4604 16.521 12.9309 16.1118 13.3606 15.7844C13.8926 15.3752 14.3632 14.8637 14.711 14.3931L14.4859 14.209L14.445 14.2704C14.0972 14.7614 13.6675 15.2729 13.1151 15.7026C12.6854 16.03 12.1125 16.3982 11.376 16.3982C11.2941 16.3982 11.1918 16.3982 11.11 16.3778C11.0486 16.3778 10.9872 16.3573 10.9463 16.3369C11.11 16.4187 11.2737 16.4801 11.4578 16.5005C11.5601 16.5005 11.6419 16.521 11.7238 16.521Z" fill="#044D73"/>
<path fill-rule="evenodd" clip-rule="evenodd" d="M14.036 9.3398C14.0769 10.2401 13.5859 11.0176 12.5424 11.7132C11.8877 12.1429 11.0897 12.4702 10.2099 12.6544C10.1895 12.7362 10.2099 12.6953 10.1895 12.7567C11.2329 12.5725 12.1536 12.327 12.9107 11.836C13.9337 11.1608 14.4452 10.3628 14.4043 9.46257C14.3838 8.9306 14.0565 8.56231 13.5859 8.48047C13.8314 8.66461 14.0155 8.95106 14.036 9.3398Z" fill="#044D73"/>
<defs>
<radialGradient id="paint0_radial_5695_37743" cx="0" cy="0" r="1" gradientUnits="userSpaceOnUse" gradientTransform="translate(6.91004 7.12446) scale(16.396 16.396)">
<stop stop-color="#9B9C9E"/>
<stop offset="0.3207" stop-color="#656667"/>
<stop offset="0.7848" stop-color="#1D1D1D"/>
<stop offset="1"/>
</radialGradient>
<radialGradient id="paint1_radial_5695_37743" cx="0" cy="0" r="1" gradientUnits="userSpaceOnUse" gradientTransform="translate(8.29206 7.75445) rotate(49.888) scale(13.5265)">
<stop stop-color="#FFFEFC"/>
<stop offset="0.2422" stop-color="#FFFDF7"/>
<stop offset="1" stop-color="#F1CB54"/>
</radialGradient>
</defs>
</svg>
