<svg width="81" height="80" viewBox="0 0 81 80" fill="none" xmlns="http://www.w3.org/2000/svg">
<path fill-rule="evenodd" clip-rule="evenodd" d="M30.8448 20C30.8448 14.8914 34.9862 10.75 40.0948 10.75C45.2034 10.75 49.3448 14.8914 49.3448 20V22.5833H30.8448V20ZM29.3448 24.0833V30C29.3448 30.4142 29.6806 30.75 30.0948 30.75C30.509 30.75 30.8448 30.4142 30.8448 30V24.0833H49.3448V30C49.3448 30.4142 49.6806 30.75 50.0948 30.75C50.509 30.75 50.8448 30.4142 50.8448 30V24.0833H59.4003L62.6182 65.9167H17.5714L20.7893 24.0833H29.3448ZM29.3448 22.5833V20C29.3448 14.0629 34.1577 9.25 40.0948 9.25C46.0319 9.25 50.8448 14.0629 50.8448 20V22.5833H60.0948C60.4867 22.5833 60.8125 22.8851 60.8426 23.2758L64.1759 66.6091C64.192 66.8174 64.1204 67.023 63.9784 67.1762C63.8365 67.3295 63.6371 67.4167 63.4281 67.4167H16.7615C16.5526 67.4167 16.3531 67.3295 16.2112 67.1762C16.0692 67.023 15.9977 66.8174 16.0137 66.6091L19.347 23.2758C19.3771 22.8851 19.7029 22.5833 20.0948 22.5833H29.3448Z" fill="black"/>
</svg>
