<svg width="24" height="25" viewBox="0 0 24 25" fill="none" xmlns="http://www.w3.org/2000/svg">
<path d="M11.9621 1.25C7.04961 1.25 2.88711 4.4 1.34961 8.75H22.5746C21.0371 4.4 16.8746 1.25 11.9621 1.25Z" fill="#3E4347"/>
<path d="M11.9621 23.75C16.8746 23.75 21.0371 20.6375 22.5746 16.25H1.34961C2.88711 20.6375 7.04961 23.75 11.9621 23.75Z" fill="#FFE62E"/>
<path d="M1.35039 8.75C0.937891 9.9125 0.712891 11.1875 0.712891 12.5C0.712891 13.8125 0.937891 15.0875 1.35039 16.25H22.5754C22.9879 15.0875 23.2129 13.8125 23.2129 12.5C23.2129 11.1875 22.9879 9.9125 22.5754 8.75H1.35039Z" fill="#ED4C5C"/>
</svg>
