<svg width="24" height="24" viewBox="0 0 24 24" fill="none" xmlns="http://www.w3.org/2000/svg">
<path d="M5 12V11.25C4.58579 11.25 4.25 11.5858 4.25 12H5ZM19 12H19.75C19.75 11.5858 19.4142 11.25 19 11.25V12ZM16 12V12.75C16.4142 12.75 16.75 12.4142 16.75 12H16ZM8 12H7.25C7.25 12.4142 7.58579 12.75 8 12.75V12ZM11.25 19C11.25 19.4142 11.5858 19.75 12 19.75C12.4142 19.75 12.75 19.4142 12.75 19H11.25ZM5 12.75H19V11.25H5V12.75ZM18.25 12V19.5H19.75V12H18.25ZM18.25 19.5C18.25 19.9142 17.9142 20.25 17.5 20.25V21.75C18.7426 21.75 19.75 20.7426 19.75 19.5H18.25ZM17.5 20.25H6.5V21.75H17.5V20.25ZM6.5 20.25C6.08579 20.25 5.75 19.9142 5.75 19.5H4.25C4.25 20.7426 5.25736 21.75 6.5 21.75V20.25ZM5.75 19.5V12H4.25V19.5H5.75ZM12 3.75C13.7949 3.75 15.25 5.20507 15.25 7H16.75C16.75 4.37665 14.6234 2.25 12 2.25V3.75ZM15.25 7V12H16.75V7H15.25ZM16 11.25H8V12.75H16V11.25ZM8.75 12V7H7.25V12H8.75ZM8.75 7C8.75 5.20507 10.2051 3.75 12 3.75V2.25C9.37665 2.25 7.25 4.37665 7.25 7H8.75ZM12 14.75C12.4142 14.75 12.75 15.0858 12.75 15.5H14.25C14.25 14.2574 13.2426 13.25 12 13.25V14.75ZM12.75 15.5C12.75 15.9142 12.4142 16.25 12 16.25V17.75C13.2426 17.75 14.25 16.7426 14.25 15.5H12.75ZM12 16.25C11.5858 16.25 11.25 15.9142 11.25 15.5H9.75C9.75 16.7426 10.7574 17.75 12 17.75V16.25ZM11.25 15.5C11.25 15.0858 11.5858 14.75 12 14.75V13.25C10.7574 13.25 9.75 14.2574 9.75 15.5H11.25ZM11.25 17V19H12.75V17H11.25Z" fill="black"/>
</svg>
