<svg width="25" height="24" viewBox="0 0 25 24" fill="none" xmlns="http://www.w3.org/2000/svg">
<path d="M12.5 5.75C12.9142 5.75 13.25 5.41421 13.25 5C13.25 4.58579 12.9142 4.25 12.5 4.25V5.75ZM7.04109 17.5012C7.3351 17.7929 7.80997 17.7911 8.10174 17.4971C8.39351 17.2031 8.39169 16.7282 8.09768 16.4364L7.04109 17.5012ZM10.876 7.58397C10.6462 7.92862 10.7393 8.39427 11.084 8.62404C11.4286 8.8538 11.8943 8.76067 12.124 8.41603L10.876 7.58397ZM13.5 5L14.124 5.41603C14.3538 5.07138 14.2607 4.60573 13.916 4.37596L13.5 5ZM10.916 2.37596C10.5714 2.1462 10.1057 2.23933 9.87596 2.58397C9.6462 2.92862 9.73933 3.39427 10.084 3.62404L10.916 2.37596ZM12.5 18.2188C12.0858 18.2188 11.75 18.5546 11.75 18.9688C11.75 19.383 12.0858 19.7188 12.5 19.7188V18.2188ZM17.9589 6.46762C17.6649 6.17585 17.19 6.17767 16.8983 6.47168C16.6065 6.7657 16.6083 7.24057 16.9023 7.53234L17.9589 6.46762ZM14.124 16.416C14.3538 16.0714 14.2607 15.6057 13.916 15.376C13.5714 15.1462 13.1057 15.2393 12.876 15.584L14.124 16.416ZM11.5 19L10.876 18.584C10.6462 18.9286 10.7393 19.3943 11.084 19.624L11.5 19ZM14.084 21.624C14.4286 21.8538 14.8943 21.7607 15.124 21.416C15.3538 21.0714 15.2607 20.6057 14.916 20.376L14.084 21.624ZM12.5 4.25C8.21979 4.25 4.75 7.71979 4.75 12H6.25C6.25 8.54822 9.04822 5.75 12.5 5.75V4.25ZM4.75 12C4.75 14.1507 5.62702 16.0979 7.04109 17.5012L8.09768 16.4364C6.95577 15.3033 6.25 13.7347 6.25 12H4.75ZM12.124 8.41603L14.124 5.41603L12.876 4.58397L10.876 7.58397L12.124 8.41603ZM13.916 4.37596L10.916 2.37596L10.084 3.62404L13.084 5.62404L13.916 4.37596ZM12.5 19.7188C16.7802 19.7188 20.25 16.249 20.25 11.9688H18.75C18.75 15.4206 15.9518 18.2188 12.5 18.2188V19.7188ZM20.25 11.9688C20.25 9.81811 19.373 7.87088 17.9589 6.46762L16.9023 7.53234C18.0442 8.66552 18.75 10.234 18.75 11.9688H20.25ZM12.876 15.584L10.876 18.584L12.124 19.416L14.124 16.416L12.876 15.584ZM11.084 19.624L14.084 21.624L14.916 20.376L11.916 18.376L11.084 19.624Z" fill="black"/>
</svg>
