<svg width="24" height="24" viewBox="0 0 24 24" fill="none" xmlns="http://www.w3.org/2000/svg">
<path d="M18.5 10L19.0554 9.49601C18.9133 9.33934 18.7115 9.25 18.5 9.25V10ZM22 13.8571H22.75C22.75 13.6708 22.6806 13.4911 22.5554 13.3532L22 13.8571ZM22 18L22.0001 18.75C22.4143 18.7499 22.75 18.4142 22.75 18H22ZM19.9148 18.0003L19.2076 18.2501L19.2076 18.2501L19.9148 18.0003ZM17.0852 18.0003L17.7924 18.2501L17.7924 18.2501L17.0852 18.0003ZM15 10V9.25C14.5858 9.25 14.25 9.58579 14.25 10H15ZM1 5.25C0.585786 5.25 0.25 5.58579 0.25 6C0.25 6.41421 0.585786 6.75 1 6.75V5.25ZM15 6H15.75C15.75 5.58579 15.4142 5.25 15 5.25V6ZM4.0002 17.25C3.58599 17.2499 3.25011 17.5856 3.25 17.9998C3.24989 18.414 3.58558 18.7499 3.9998 18.75L4.0002 17.25ZM4.5 12.75C4.91421 12.75 5.25 12.4142 5.25 12C5.25 11.5858 4.91421 11.25 4.5 11.25V12.75ZM3 11.25C2.58579 11.25 2.25 11.5858 2.25 12C2.25 12.4142 2.58579 12.75 3 12.75V11.25ZM4.5 15.75C4.91421 15.75 5.25 15.4142 5.25 15C5.25 14.5858 4.91421 14.25 4.5 14.25V15.75ZM4 14.25C3.58579 14.25 3.25 14.5858 3.25 15C3.25 15.4142 3.58579 15.75 4 15.75V14.25ZM4.5 9.75C4.91421 9.75 5.25 9.41421 5.25 9C5.25 8.58579 4.91421 8.25 4.5 8.25V9.75ZM2 8.25C1.58579 8.25 1.25 8.58579 1.25 9C1.25 9.41421 1.58579 9.75 2 9.75V8.25ZM17.9446 10.504L21.4446 14.3611L22.5554 13.3532L19.0554 9.49601L17.9446 10.504ZM21.25 13.8571V18H22.75V13.8571H21.25ZM21.9999 17.25L19.9146 17.2503L19.9149 18.7503L22.0001 18.75L21.9999 17.25ZM20.6219 17.7505C20.3135 16.8774 19.481 16.25 18.5 16.25V17.75C18.8254 17.75 19.1043 17.9577 19.2076 18.2501L20.6219 17.7505ZM18.5 16.25C17.519 16.25 16.6865 16.8774 16.3781 17.7505L17.7924 18.2501C17.8957 17.9577 18.1746 17.75 18.5 17.75V16.25ZM17.0854 17.2503L15.0001 17.25L14.9999 18.75L17.0851 18.7503L17.0854 17.2503ZM15.75 18V10H14.25V18H15.75ZM15 10.75H18.5V9.25H15V10.75ZM1 6.75H15V5.25H1V6.75ZM14.25 6V18H15.75V6H14.25ZM15 17.25L7.91472 17.2503L7.91478 18.7503L15 18.75L15 17.25ZM8.62193 17.7505C8.31354 16.8774 7.481 16.25 6.5 16.25V17.75C6.82544 17.75 7.10429 17.9577 7.20757 18.2501L8.62193 17.7505ZM6.5 16.25C5.519 16.25 4.68646 16.8774 4.37807 17.7505L5.79243 18.2501C5.89571 17.9577 6.17456 17.75 6.5 17.75L6.5 16.25ZM5.08545 17.2503L4.0002 17.25L3.9998 18.75L5.08505 18.7503L5.08545 17.2503ZM18.5 17.75C18.9142 17.75 19.25 18.0858 19.25 18.5H20.75C20.75 17.2574 19.7426 16.25 18.5 16.25V17.75ZM19.25 18.5C19.25 18.9142 18.9142 19.25 18.5 19.25V20.75C19.7426 20.75 20.75 19.7426 20.75 18.5H19.25ZM18.5 19.25C18.0858 19.25 17.75 18.9142 17.75 18.5H16.25C16.25 19.7426 17.2574 20.75 18.5 20.75V19.25ZM17.75 18.5C17.75 18.0858 18.0858 17.75 18.5 17.75V16.25C17.2574 16.25 16.25 17.2574 16.25 18.5H17.75ZM6.5 17.75C6.91421 17.75 7.25 18.0858 7.25 18.5H8.75C8.75 17.2574 7.74264 16.25 6.5 16.25V17.75ZM7.25 18.5C7.25 18.9142 6.91421 19.25 6.5 19.25V20.75C7.74264 20.75 8.75 19.7426 8.75 18.5H7.25ZM6.5 19.25C6.08579 19.25 5.75 18.9142 5.75 18.5H4.25C4.25 19.7426 5.25736 20.75 6.5 20.75V19.25ZM5.75 18.5C5.75 18.0858 6.08579 17.75 6.5 17.75V16.25C5.25736 16.25 4.25 17.2574 4.25 18.5H5.75ZM4.5 11.25H3V12.75H4.5V11.25ZM4.5 14.25H4V15.75H4.5V14.25ZM4.5 8.25H2V9.75H4.5V8.25ZM16.3781 17.7505C16.2949 17.9859 16.25 18.2385 16.25 18.5H17.75C17.75 18.4111 17.7652 18.3273 17.7924 18.2501L16.3781 17.7505ZM20.75 18.5C20.75 18.2385 20.7051 17.9859 20.6219 17.7505L19.2076 18.2501C19.2348 18.3273 19.25 18.4111 19.25 18.5H20.75ZM4.37807 17.7505C4.29491 17.9859 4.25 18.2385 4.25 18.5H5.75C5.75 18.4111 5.76517 18.3273 5.79243 18.2501L4.37807 17.7505ZM8.75 18.5C8.75 18.2385 8.70509 17.9859 8.62193 17.7505L7.20757 18.2501C7.23483 18.3273 7.25 18.4111 7.25 18.5H8.75Z" fill="black"/>
</svg>
