<svg width="61" height="61" viewBox="0 0 61 61" fill="none" xmlns="http://www.w3.org/2000/svg">
<g clip-path="url(#clip0_5948_46524)">
<path d="M60.282 19.2784C60.282 17.2084 58.6039 15.5284 56.532 15.5284H50.1308C51.7883 13.8934 52.8476 11.7522 52.8476 9.11406C52.8476 5.86656 50.982 2.33594 45.7451 2.33594C38.8545 2.33594 33.0983 9.67281 30.3926 13.7847C27.6851 9.67281 21.7545 2.33594 14.8639 2.33594C9.62703 2.33594 7.7614 5.86469 7.7614 9.11219C7.7614 11.7503 8.85078 13.8934 10.5402 15.5266H4.03015C1.95828 15.5266 0.280151 17.2066 0.280151 19.2766V30.5003H4.0639V54.9072C4.0639 56.9791 5.74203 58.6572 7.8139 58.6572H52.7951C54.867 58.6572 56.5451 56.9791 56.5451 54.9072V30.4984H60.2801V19.2747L60.282 19.2784ZM45.7451 6.08969C48.0626 6.08969 49.0976 7.06469 49.0976 9.11781C49.0976 13.2822 44.4495 15.5303 40.077 15.5303H33.7283C36.3926 11.5722 41.082 6.08969 45.7451 6.08969ZM14.8658 6.08969C19.5289 6.08969 24.3964 11.5722 27.0608 15.5284H20.712C16.3395 15.5284 11.5152 13.2241 11.5152 9.05781C11.5152 7.00469 12.5464 6.08969 14.8658 6.08969ZM56.532 26.7541H32.157V19.2803H56.532V26.7541ZM4.03203 19.2784H28.407V26.7522H4.03203V19.2784ZM7.81578 30.5041H28.407V54.9128H7.81578V30.5041ZM52.797 54.9128H32.157V30.5059H52.797V54.9128Z" fill="white"/>
</g>
<defs>
<clipPath id="clip0_5948_46524">
<rect width="60" height="60" fill="white" transform="translate(0.280151 0.5)"/>
</clipPath>
</defs>
</svg>
