<svg width="26" height="25" viewBox="0 0 26 25" fill="none" xmlns="http://www.w3.org/2000/svg">
<path fill-rule="evenodd" clip-rule="evenodd" d="M7.90723 3.75C7.38232 3.75 6.8789 3.95852 6.50774 4.32968C6.13658 4.70084 5.92806 5.20426 5.92806 5.72917C5.92806 6.25408 6.13658 6.75749 6.50774 7.12865C6.8789 7.49981 7.38232 7.70833 7.90723 7.70833H11.7792C11.7792 7.70829 11.7792 7.70837 11.7792 7.70833C11.6327 7.24555 11.4031 6.63499 11.0705 6.03037C10.391 4.7948 9.38258 3.75 7.90723 3.75ZM11.9697 8.95833V13.9583H3.84473V11.6667C3.84473 11.073 3.84521 10.6653 3.87104 10.3492C3.89626 10.0405 3.94252 9.87463 4.00368 9.7546C4.14348 9.4802 4.36658 9.2571 4.64098 9.11729C4.76101 9.05613 4.92688 9.00987 5.23563 8.98464C5.55167 8.95882 5.95936 8.95833 6.55306 8.95833H11.9697ZM5.36783 7.72393C4.92325 7.15799 4.67806 6.45621 4.67806 5.72917C4.67806 4.87274 5.01827 4.05138 5.62386 3.4458C6.22945 2.84021 7.0508 2.5 7.90723 2.5C10.0777 2.5 11.4131 4.05937 12.1658 5.42797C12.3312 5.72874 12.4734 6.02844 12.5947 6.31325C12.716 6.02844 12.8582 5.72874 13.0237 5.42797C13.7764 4.05937 15.1117 2.5 17.2822 2.5C18.1386 2.5 18.96 2.84022 19.5656 3.44577C20.1711 4.05135 20.5114 4.87274 20.5114 5.72917C20.5114 6.45622 20.2662 7.158 19.8216 7.72393C19.9032 7.72783 19.9811 7.7327 20.0556 7.73879C20.4417 7.77033 20.7904 7.83761 21.116 8.00353C21.6255 8.26317 22.0399 8.67749 22.2996 9.18717C22.4654 9.51277 22.5327 9.86142 22.5643 10.2474C22.5947 10.6204 22.5947 11.0793 22.5947 11.6405V18.5679C22.5947 19.129 22.5947 19.5879 22.5643 19.9609C22.5327 20.347 22.4654 20.6957 22.2995 21.0213C22.0399 21.5308 21.6256 21.9452 21.116 22.2048C20.7904 22.3707 20.4417 22.438 20.0556 22.4695C19.6827 22.5 19.2237 22.5 18.6626 22.5H6.52686C5.96572 22.5 5.5068 22.5 5.13383 22.4695C4.74781 22.438 4.39916 22.3707 4.07356 22.2048C3.56388 21.9452 3.14956 21.5308 2.88993 21.0213C2.72401 20.6956 2.65673 20.347 2.62519 19.9609C2.59471 19.5879 2.59472 19.129 2.59473 18.5678V11.6405C2.59472 11.0793 2.59471 10.6204 2.62519 10.2474C2.65673 9.8614 2.72401 9.51273 2.88991 9.18712M3.84473 15.2083V18.5417C3.84473 19.1354 3.84521 19.5431 3.87104 19.8591C3.89626 20.1679 3.94252 20.3337 4.00367 20.4537C4.14349 20.7281 4.3666 20.9513 4.64093 21.091C4.76096 21.1522 4.92688 21.1985 5.23563 21.2237C5.55167 21.2495 5.95936 21.25 6.55306 21.25H11.9697V15.2083H3.84473ZM13.2197 15.2083V21.25H18.6364C19.2301 21.25 19.6378 21.2495 19.9538 21.2237C20.2626 21.1985 20.4285 21.1522 20.5485 21.0911C20.8228 20.9513 21.046 20.7281 21.1857 20.4538C21.2469 20.3338 21.2932 20.1679 21.3184 19.8591C21.3442 19.5431 21.3447 19.1354 21.3447 18.5417V15.2083H13.2197ZM21.3447 13.9583V11.6667C21.3447 11.073 21.3442 10.6653 21.3184 10.3492C21.2932 10.0405 21.2469 9.87464 21.1858 9.75461C21.046 9.48028 20.8229 9.2571 20.5485 9.11728C20.4285 9.05613 20.2626 9.00987 19.9538 8.98464C19.6378 8.95882 19.2301 8.95833 18.6364 8.95833H13.2197V13.9583H21.3447ZM17.2822 7.70833C17.8071 7.70833 18.3105 7.49984 18.6817 7.12867C19.0529 6.7575 19.2614 6.25407 19.2614 5.72917C19.2614 5.20426 19.0529 4.70084 18.6817 4.32966C18.3105 3.9585 17.8071 3.75 17.2822 3.75C15.8069 3.75 14.7985 4.7948 14.1189 6.03037C13.7864 6.63499 13.5568 7.24543 13.4103 7.70821C13.4103 7.70825 13.4103 7.70817 13.4103 7.70821L17.2822 7.70833ZM5.36783 7.72393C5.28632 7.72783 5.20836 7.7327 5.13384 7.73879C4.74779 7.77033 4.39913 7.83761 4.07352 8.00352M4.07352 8.00352C3.56391 8.26317 3.14956 8.67751 2.88991 9.18712L4.07352 8.00352Z" fill="white"/>
</svg>
