<svg width="25" height="25" viewBox="0 0 25 25" fill="none" xmlns="http://www.w3.org/2000/svg">
<path d="M17.4805 4.65918V3.00391H16.4062V4.65918H8.59375V3.00391H7.51953V4.65918H2.24609V21.9932H22.7539V4.65918H17.4805ZM3.32031 5.7334H7.51953V7.42285H8.59375V5.7334H16.4062V7.42285H17.4805V5.7334H21.6797V9.42725H3.32031V5.7334ZM21.6797 20.9189H3.32031V9.81787H21.6797V20.9189Z" fill="#232F3E"/>
<path d="M6.98438 13.8096C6.98438 14.0232 7.06926 14.2282 7.22035 14.3793C7.37144 14.5304 7.57636 14.6152 7.79004 14.6152C8.00371 14.6152 8.20864 14.5304 8.35973 14.3793C8.51082 14.2282 8.5957 14.0232 8.5957 13.8096C8.5957 13.5959 8.51082 13.391 8.35973 13.2399C8.20864 13.0888 8.00371 13.0039 7.79004 13.0039C7.57636 13.0039 7.37144 13.0888 7.22035 13.2399C7.06926 13.391 6.98438 13.5959 6.98438 13.8096Z" fill="#232F3E"/>
<path d="M11.6445 13.8096C11.6445 13.9154 11.6654 14.0201 11.7059 14.1179C11.7463 14.2156 11.8057 14.3044 11.8805 14.3793C11.9553 14.4541 12.0441 14.5134 12.1419 14.5539C12.2396 14.5944 12.3444 14.6152 12.4502 14.6152C12.556 14.6152 12.6608 14.5944 12.7585 14.5539C12.8563 14.5134 12.9451 14.4541 13.0199 14.3793C13.0947 14.3044 13.154 14.2156 13.1945 14.1179C13.235 14.0201 13.2559 13.9154 13.2559 13.8096C13.2559 13.7038 13.235 13.599 13.1945 13.5013C13.154 13.4035 13.0947 13.3147 13.0199 13.2399C12.9451 13.1651 12.8563 13.1057 12.7585 13.0652C12.6608 13.0247 12.556 13.0039 12.4502 13.0039C12.3444 13.0039 12.2396 13.0247 12.1419 13.0652C12.0441 13.1057 11.9553 13.1651 11.8805 13.2399C11.8057 13.3147 11.7463 13.4035 11.7059 13.5013C11.6654 13.599 11.6445 13.7038 11.6445 13.8096Z" fill="#232F3E"/>
<path d="M16.3125 13.8096C16.3125 14.0232 16.3974 14.2282 16.5485 14.3793C16.6996 14.5304 16.9045 14.6152 17.1182 14.6152C17.3318 14.6152 17.5368 14.5304 17.6879 14.3793C17.8389 14.2282 17.9238 14.0232 17.9238 13.8096C17.9238 13.5959 17.8389 13.391 17.6879 13.2399C17.5368 13.0888 17.3318 13.0039 17.1182 13.0039C16.9045 13.0039 16.6996 13.0888 16.5485 13.2399C16.3974 13.391 16.3125 13.5959 16.3125 13.8096Z" fill="#232F3E"/>
<path d="M6.98438 16.9307C6.98438 17.1443 7.06926 17.3493 7.22035 17.5004C7.37144 17.6514 7.57636 17.7363 7.79004 17.7363C8.00371 17.7363 8.20864 17.6514 8.35973 17.5004C8.51082 17.3493 8.5957 17.1443 8.5957 16.9307C8.5957 16.717 8.51082 16.5121 8.35973 16.361C8.20864 16.2099 8.00371 16.125 7.79004 16.125C7.57636 16.125 7.37144 16.2099 7.22035 16.361C7.06926 16.5121 6.98438 16.717 6.98438 16.9307Z" fill="#232F3E"/>
<path d="M11.6445 16.9307C11.6445 17.0365 11.6654 17.1412 11.7059 17.239C11.7463 17.3367 11.8057 17.4255 11.8805 17.5004C11.9553 17.5752 12.0441 17.6345 12.1419 17.675C12.2396 17.7155 12.3444 17.7363 12.4502 17.7363C12.556 17.7363 12.6608 17.7155 12.7585 17.675C12.8563 17.6345 12.9451 17.5752 13.0199 17.5004C13.0947 17.4255 13.154 17.3367 13.1945 17.239C13.235 17.1412 13.2559 17.0365 13.2559 16.9307C13.2559 16.8249 13.235 16.7201 13.1945 16.6223C13.154 16.5246 13.0947 16.4358 13.0199 16.361C12.9451 16.2862 12.8563 16.2268 12.7585 16.1863C12.6608 16.1458 12.556 16.125 12.4502 16.125C12.3444 16.125 12.2396 16.1458 12.1419 16.1863C12.0441 16.2268 11.9553 16.2862 11.8805 16.361C11.8057 16.4358 11.7463 16.5246 11.7059 16.6223C11.6654 16.7201 11.6445 16.8249 11.6445 16.9307Z" fill="#232F3E"/>
<path d="M16.3125 16.9307C16.3125 17.1443 16.3974 17.3493 16.5485 17.5004C16.6996 17.6514 16.9045 17.7363 17.1182 17.7363C17.3318 17.7363 17.5368 17.6514 17.6879 17.5004C17.8389 17.3493 17.9238 17.1443 17.9238 16.9307C17.9238 16.717 17.8389 16.5121 17.6879 16.361C17.5368 16.2099 17.3318 16.125 17.1182 16.125C16.9045 16.125 16.6996 16.2099 16.5485 16.361C16.3974 16.5121 16.3125 16.717 16.3125 16.9307Z" fill="#232F3E"/>
</svg>
