<svg width="25" height="25" viewBox="0 0 25 25" fill="none" xmlns="http://www.w3.org/2000/svg">
<path fill-rule="evenodd" clip-rule="evenodd" d="M12.5026 9.79036C11.0069 9.79036 9.79427 11.0029 9.79427 12.4987C9.79427 13.9945 11.0069 15.207 12.5026 15.207C13.9984 15.207 15.2109 13.9945 15.2109 12.4987C15.2109 11.0029 13.9984 9.79036 12.5026 9.79036ZM8.96094 12.4987C8.96094 10.5426 10.5466 8.95703 12.5026 8.95703C14.4586 8.95703 16.0442 10.5426 16.0442 12.4987C16.0442 14.4548 14.4586 16.0404 12.5026 16.0404C10.5466 16.0404 8.96094 14.4548 8.96094 12.4987Z" fill="black"/>
<path fill-rule="evenodd" clip-rule="evenodd" d="M2.16368 12.3764C3.54403 7.98161 7.64958 4.79297 12.501 4.79297C17.3524 4.79297 21.4579 7.98165 22.8383 12.3764C22.8638 12.4577 22.8638 12.5449 22.8383 12.6262C21.4579 17.021 17.3524 20.2096 12.501 20.2096C7.64958 20.2096 3.54401 17.021 2.16368 12.6262C2.13815 12.5449 2.13815 12.4577 2.16368 12.3764ZM2.99884 12.5013C4.31116 16.4941 8.07003 19.3763 12.501 19.3763C16.9319 19.3763 20.6908 16.4941 22.0032 12.5013C20.6908 8.50846 16.9319 5.6263 12.501 5.6263C8.07003 5.6263 4.31118 8.50844 2.99884 12.5013Z" fill="black"/>
</svg>
