<svg width="36" height="36" viewBox="0 0 36 36" fill="none" xmlns="http://www.w3.org/2000/svg">
<path d="M14.0219 22.5938L26.3813 10.2344C26.673 9.94271 27.0132 9.79688 27.4021 9.79688C27.791 9.79688 28.1313 9.94271 28.423 10.2344C28.7146 10.526 28.8605 10.8726 28.8605 11.2742C28.8605 11.6757 28.7146 12.0218 28.423 12.3125L15.0427 25.7292C14.7511 26.0208 14.4108 26.1667 14.0219 26.1667C13.633 26.1667 13.2927 26.0208 13.0011 25.7292L6.73024 19.4583C6.43858 19.1667 6.29858 18.8206 6.31024 18.42C6.32191 18.0194 6.47406 17.6728 6.7667 17.3802C7.05934 17.0876 7.40594 16.9417 7.80649 16.9427C8.20705 16.9437 8.55316 17.0895 8.84483 17.3802L14.0219 22.5938Z" fill="#34A853"/>
</svg>
