<svg width="36" height="36" viewBox="0 0 36 36" fill="none" xmlns="http://www.w3.org/2000/svg">
<path d="M27.4793 15.0833L28.0347 14.5793C27.8926 14.4227 27.6909 14.3333 27.4793 14.3333V15.0833ZM32.5835 20.7083H33.3335C33.3335 20.522 33.2641 20.3423 33.1389 20.2043L32.5835 20.7083ZM32.5835 26.75L32.5836 27.5C32.9978 27.4999 33.3335 27.1642 33.3335 26.75H32.5835ZM29.5425 26.7504L28.8353 27.0002V27.0002L29.5425 26.7504ZM25.4161 26.7504L26.1233 27.0002V27.0002L25.4161 26.7504ZM22.3752 15.0833V14.3333C21.9609 14.3333 21.6252 14.6691 21.6252 15.0833H22.3752ZM1.9585 8.5C1.54428 8.5 1.2085 8.83579 1.2085 9.25C1.2085 9.66421 1.54428 10 1.9585 10V8.5ZM22.3752 9.25H23.1252C23.1252 8.83579 22.7894 8.5 22.3752 8.5V9.25ZM6.3337 26C5.91948 25.9999 5.58361 26.3356 5.5835 26.7498C5.58338 27.164 5.91908 27.4999 6.33329 27.5L6.3337 26ZM7.06266 18.75C7.47688 18.75 7.81266 18.4142 7.81266 18C7.81266 17.5858 7.47688 17.25 7.06266 17.25V18.75ZM4.87516 17.25C4.46095 17.25 4.12516 17.5858 4.12516 18C4.12516 18.4142 4.46095 18.75 4.87516 18.75V17.25ZM7.06266 23.125C7.47688 23.125 7.81266 22.7892 7.81266 22.375C7.81266 21.9608 7.47688 21.625 7.06266 21.625V23.125ZM6.3335 21.625C5.91928 21.625 5.5835 21.9608 5.5835 22.375C5.5835 22.7892 5.91928 23.125 6.3335 23.125V21.625ZM7.06266 14.375C7.47688 14.375 7.81266 14.0392 7.81266 13.625C7.81266 13.2108 7.47688 12.875 7.06266 12.875V14.375ZM3.41683 12.875C3.00262 12.875 2.66683 13.2108 2.66683 13.625C2.66683 14.0392 3.00262 14.375 3.41683 14.375V12.875ZM26.9239 15.5873L32.0281 21.2123L33.1389 20.2043L28.0347 14.5793L26.9239 15.5873ZM31.8335 20.7083V26.75H33.3335V20.7083H31.8335ZM32.5834 26L29.5424 26.0004L29.5426 27.5004L32.5836 27.5L32.5834 26ZM30.2497 26.5006C29.847 25.3604 28.7597 24.5417 27.4793 24.5417V26.0417C28.1042 26.0417 28.6377 26.4407 28.8353 27.0002L30.2497 26.5006ZM27.4793 24.5417C26.1989 24.5417 25.1117 25.3604 24.709 26.5006L26.1233 27.0002C26.3209 26.4407 26.8545 26.0417 27.4793 26.0417V24.5417ZM25.4163 26.0004L22.3753 26L22.3751 27.5L25.416 27.5004L25.4163 26.0004ZM23.1252 26.75V15.0833H21.6252V26.75H23.1252ZM22.3752 15.8333H27.4793V14.3333H22.3752V15.8333ZM1.9585 10H22.3752V8.5H1.9585V10ZM21.6252 9.25V26.75H23.1252V9.25H21.6252ZM22.3751 26L12.0425 26.0004L12.0425 27.5004L22.3752 27.5L22.3751 26ZM12.7497 26.5006C12.347 25.3604 11.2597 24.5417 9.97933 24.5417V26.0417C10.6042 26.0417 11.1377 26.4407 11.3353 27.0002L12.7497 26.5006ZM9.97933 24.5417C8.69894 24.5417 7.61171 25.3604 7.20897 26.5006L8.62333 27.0002C8.82095 26.4407 9.3545 26.0417 9.97933 26.0417V24.5417ZM7.91635 26.0004L6.3337 26L6.33329 27.5L7.91595 27.5004L7.91635 26.0004ZM27.4793 26.0417C28.2732 26.0417 28.9168 26.6853 28.9168 27.4792H30.4168C30.4168 25.8568 29.1017 24.5417 27.4793 24.5417V26.0417ZM28.9168 27.4792C28.9168 28.2731 28.2732 28.9167 27.4793 28.9167V30.4167C29.1017 30.4167 30.4168 29.1015 30.4168 27.4792H28.9168ZM27.4793 28.9167C26.6854 28.9167 26.0418 28.2731 26.0418 27.4792H24.5418C24.5418 29.1015 25.857 30.4167 27.4793 30.4167V28.9167ZM26.0418 27.4792C26.0418 26.6853 26.6854 26.0417 27.4793 26.0417V24.5417C25.857 24.5417 24.5418 25.8568 24.5418 27.4792H26.0418ZM9.97933 26.0417C10.7732 26.0417 11.4168 26.6853 11.4168 27.4792H12.9168C12.9168 25.8568 11.6017 24.5417 9.97933 24.5417V26.0417ZM11.4168 27.4792C11.4168 28.2731 10.7732 28.9167 9.97933 28.9167V30.4167C11.6017 30.4167 12.9168 29.1015 12.9168 27.4792H11.4168ZM9.97933 28.9167C9.18542 28.9167 8.54183 28.2731 8.54183 27.4792H7.04183C7.04183 29.1015 8.35699 30.4167 9.97933 30.4167V28.9167ZM8.54183 27.4792C8.54183 26.6853 9.18542 26.0417 9.97933 26.0417V24.5417C8.35699 24.5417 7.04183 25.8568 7.04183 27.4792H8.54183ZM7.06266 17.25H4.87516V18.75H7.06266V17.25ZM7.06266 21.625H6.3335V23.125H7.06266V21.625ZM7.06266 12.875H3.41683V14.375H7.06266V12.875ZM24.709 26.5006C24.6005 26.8077 24.5418 27.1374 24.5418 27.4792H26.0418C26.0418 27.3099 26.0708 27.149 26.1233 27.0002L24.709 26.5006ZM30.4168 27.4792C30.4168 27.1374 30.3581 26.8077 30.2497 26.5006L28.8353 27.0002C28.8879 27.149 28.9168 27.3099 28.9168 27.4792H30.4168ZM7.20897 26.5006C7.10051 26.8077 7.04183 27.1374 7.04183 27.4792H8.54183C8.54183 27.3099 8.57076 27.149 8.62333 27.0002L7.20897 26.5006ZM12.9168 27.4792C12.9168 27.1374 12.8581 26.8077 12.7497 26.5006L11.3353 27.0002C11.3879 27.149 11.4168 27.3099 11.4168 27.4792H12.9168Z" fill="black"/>
</svg>
