<svg width="36" height="36" viewBox="0 0 36 36" fill="none" xmlns="http://www.w3.org/2000/svg">
<path d="M18 4.875L18.3354 4.20418L18 4.03647L17.6646 4.20418L18 4.875ZM31.125 11.4375H31.875V10.974L31.4604 10.7667L31.125 11.4375ZM31.125 24.5625L31.4604 25.2333L31.875 25.026V24.5625H31.125ZM18 31.125L17.6646 31.7958L18 31.9635L18.3354 31.7958L18 31.125ZM4.875 24.5625H4.125V25.026L4.53959 25.2333L4.875 24.5625ZM4.875 11.4375L4.53959 10.7667L4.125 10.974V11.4375H4.875ZM24.5417 19.4583C24.5417 19.8725 24.8775 20.2083 25.2917 20.2083C25.7059 20.2083 26.0417 19.8725 26.0417 19.4583H24.5417ZM25.2917 14.3542H26.0417V13.8906L25.6271 13.6833L25.2917 14.3542ZM12.5021 7.12085C12.1316 6.9356 11.6811 7.08577 11.4958 7.45626C11.3106 7.82674 11.4608 8.27725 11.8313 8.46249L12.5021 7.12085ZM17.25 30.3958C17.25 30.81 17.5858 31.1458 18 31.1458C18.4142 31.1458 18.75 30.81 18.75 30.3958H17.25ZM17.6646 5.54582L30.7896 12.1083L31.4604 10.7667L18.3354 4.20418L17.6646 5.54582ZM30.375 11.4375V24.5625H31.875V11.4375H30.375ZM30.7896 23.8917L17.6646 30.4542L18.3354 31.7958L31.4604 25.2333L30.7896 23.8917ZM18.3354 30.4542L5.21041 23.8917L4.53959 25.2333L17.6646 31.7958L18.3354 30.4542ZM5.625 24.5625V11.4375H4.125V24.5625H5.625ZM5.21041 12.1083L18.3354 5.54582L17.6646 4.20418L4.53959 10.7667L5.21041 12.1083ZM30.7896 10.7667L17.6646 17.3292L18.3354 18.6708L31.4604 12.1083L30.7896 10.7667ZM18.3354 17.3292L5.21041 10.7667L4.53959 12.1083L17.6646 18.6708L18.3354 17.3292ZM26.0417 19.4583V14.3542H24.5417V19.4583H26.0417ZM25.6271 13.6833L12.5021 7.12085L11.8313 8.46249L24.9563 15.025L25.6271 13.6833ZM18.75 30.3958V18H17.25V30.3958H18.75Z" fill="black"/>
</svg>
