<svg width="36" height="36" viewBox="0 0 36 36" fill="none" xmlns="http://www.w3.org/2000/svg">
<path fill-rule="evenodd" clip-rule="evenodd" d="M11.4202 5.28541L15.8126 9.94609C16.3569 10.524 16.3573 11.4297 15.8134 12.0081L13.6901 14.2664C15.0234 18.3424 18.0049 21.6032 21.7837 23.1452L22.2068 23.3094L24.2194 21.1688C24.7847 20.5675 25.7271 20.5415 26.3243 21.1106L30.7167 25.7713C31.261 26.3493 31.2614 27.2549 30.7175 27.8333L29.6253 28.9951C27.6303 31.1168 24.5922 31.7148 21.9239 30.5109C18.1521 28.8091 15.1086 26.7291 12.7934 24.2708C10.4782 21.8125 8.51828 18.5799 6.91372 14.573C5.82399 11.8518 6.29664 8.76708 8.10118 6.64743L8.33367 6.3876L9.31531 5.34353C9.88061 4.74228 10.823 4.71626 11.4202 5.28541Z" stroke="black" stroke-width="1.5" stroke-linecap="round" stroke-linejoin="round"/>
</svg>
