<svg width="36" height="36" viewBox="0 0 36 36" fill="none" xmlns="http://www.w3.org/2000/svg">
<path d="M17.9443 1.59375C10.7803 1.59375 4.70996 6.1875 2.46777 12.5312H33.4209C31.1787 6.1875 25.1084 1.59375 17.9443 1.59375Z" fill="#3E4347"/>
<path d="M17.9443 34.4062C25.1084 34.4062 31.1787 29.8672 33.4209 23.4688H2.46777C4.70996 29.8672 10.7803 34.4062 17.9443 34.4062Z" fill="#FFE62E"/>
<path d="M2.46973 12.5312C1.86816 14.2266 1.54004 16.0859 1.54004 18C1.54004 19.9141 1.86816 21.7734 2.46973 23.4688H33.4229C34.0244 21.7734 34.3525 19.9141 34.3525 18C34.3525 16.0859 34.0244 14.2266 33.4229 12.5312H2.46973Z" fill="#ED4C5C"/>
</svg>
