<svg width="36" height="35" viewBox="0 0 36 35" fill="none" xmlns="http://www.w3.org/2000/svg">
<path fill-rule="evenodd" clip-rule="evenodd" d="M12.7615 10.2083C12.7615 7.53896 14.9254 5.375 17.5948 5.375C20.2642 5.375 22.4281 7.53896 22.4281 10.2083V16.5H12.7615V10.2083ZM17.5948 3.375C13.8209 3.375 10.7615 6.43439 10.7615 10.2083V16.75H7.38647C6.97226 16.75 6.63647 17.0858 6.63647 17.5V28.4375C6.63647 30.0598 7.95164 31.375 9.57397 31.375H25.6156C27.238 31.375 28.5531 30.0598 28.5531 28.4375V17.5C28.5531 17.0858 28.2174 16.75 27.8031 16.75H24.4281V10.2083C24.4281 6.43439 21.3688 3.375 17.5948 3.375ZM17.5948 20.4167C18.8029 20.4167 19.7823 21.396 19.7823 22.6042C19.7823 23.5529 19.1783 24.3606 18.3339 24.6636C18.3411 24.7052 18.3448 24.748 18.3448 24.7917V27.7083C18.3448 28.1225 18.009 28.4583 17.5948 28.4583C17.1806 28.4583 16.8448 28.1225 16.8448 27.7083V24.7917C16.8448 24.748 16.8485 24.7052 16.8557 24.6636C16.0113 24.3606 15.4073 23.5529 15.4073 22.6042C15.4073 21.396 16.3867 20.4167 17.5948 20.4167Z" fill="white"/>
</svg>
