<svg width="25" height="26" viewBox="0 0 25 26" fill="none" xmlns="http://www.w3.org/2000/svg">
<path d="M3.125 5.70703V4.95703C2.71079 4.95703 2.375 5.29282 2.375 5.70703H3.125ZM21.875 5.70703H22.625C22.625 5.29282 22.2892 4.95703 21.875 4.95703V5.70703ZM21.875 20.2904V21.0404C22.2892 21.0404 22.625 20.7046 22.625 20.2904H21.875ZM3.125 20.2904H2.375C2.375 20.7046 2.71079 21.0404 3.125 21.0404V20.2904ZM3.48923 7.13475C3.12714 6.93359 2.67054 7.06404 2.46938 7.42613C2.26822 7.78822 2.39868 8.24482 2.76077 8.44598L3.48923 7.13475ZM12.5 12.9987L12.1358 13.6543C12.3623 13.7802 12.6377 13.7802 12.8642 13.6543L12.5 12.9987ZM22.2392 8.44598C22.6013 8.24482 22.7318 7.78822 22.5306 7.42613C22.3295 7.06404 21.8729 6.93359 21.5108 7.13475L22.2392 8.44598ZM3.125 6.45703H21.875V4.95703H3.125V6.45703ZM21.125 5.70703V20.2904H22.625V5.70703H21.125ZM21.875 19.5404H3.125V21.0404H21.875V19.5404ZM3.875 20.2904V5.70703H2.375V20.2904H3.875ZM2.76077 8.44598L12.1358 13.6543L12.8642 12.3431L3.48923 7.13475L2.76077 8.44598ZM12.8642 13.6543L22.2392 8.44598L21.5108 7.13475L12.1358 12.3431L12.8642 13.6543Z" fill="white"/>
</svg>
