<svg width="25" height="24" viewBox="0 0 25 24" fill="none" xmlns="http://www.w3.org/2000/svg">
<path d="M15.9989 1.47805C15.5851 2.31669 15.221 3.12675 15.1962 3.29829L15.1465 3.59373L10.992 3.60326H6.84582L3.78375 5.00418L0.72168 6.41463V10.9795V15.5444L1.05271 15.6207C1.30927 15.6779 1.48306 15.8208 1.81409 16.2401L2.25271 16.7929V20.3285C2.25271 23.4735 2.26927 23.8833 2.38513 23.9309C2.6003 24.0262 3.82513 23.9976 3.99892 23.8928C4.14789 23.7975 4.15616 23.6545 4.15616 20.3381V16.8882L4.7272 16.2401C5.24858 15.6493 5.32306 15.6016 5.65409 15.6016C5.98513 15.6016 6.04306 15.6397 6.59754 16.3068C7.24306 17.0883 7.44996 17.2217 8.02927 17.2217C8.51754 17.2217 8.82375 17.0121 9.48582 16.2211C9.96582 15.6397 10.0155 15.6016 10.3631 15.6016C10.7189 15.6016 10.7603 15.6397 11.2734 16.2592C11.9106 17.0311 12.2003 17.2217 12.7382 17.2217C13.2431 17.2217 13.5658 17.0025 14.2113 16.2115C14.6831 15.6397 14.7327 15.6016 15.0803 15.6016C15.4279 15.6016 15.4775 15.6397 15.9575 16.2211C16.6196 17.0121 16.9258 17.2217 17.4141 17.2217C17.9934 17.2217 18.192 17.0978 18.8375 16.3164C19.4003 15.6397 19.45 15.6016 19.7975 15.6016C20.1369 15.6016 20.1948 15.6397 20.7244 16.2687L21.2872 16.9358V20.3095C21.2872 23.2543 21.3037 23.7117 21.4196 23.8356C21.6017 24.0548 22.9589 24.0548 23.141 23.8356C23.2569 23.7117 23.2734 23.2447 23.2734 20.1951V16.6976L23.6458 16.202C23.9437 15.8113 24.101 15.6874 24.3741 15.6302L24.7217 15.5444V10.9795V6.41463L21.6596 5.00418C19.9796 4.23224 18.5562 3.60326 18.4982 3.60326C18.4486 3.59373 18.3824 3.46983 18.3493 3.31735C18.3079 3.09816 16.9175 0.153368 16.7851 0.000886552C16.7686 -0.0277037 16.4127 0.639402 15.9989 1.47805ZM17.3893 2.11656C17.9603 3.26017 18.0431 3.59373 17.9024 4.08929C17.6044 5.1376 16.3548 5.36632 15.792 4.48002C15.5686 4.12741 15.5272 3.42218 15.701 3.01239C16.0982 2.12609 16.7603 0.915774 16.8182 0.992014C16.8513 1.03013 17.1079 1.53523 17.3893 2.11656ZM15.3617 4.51814C15.9162 5.75705 17.3727 5.84282 18.0762 4.68968C18.2251 4.45143 18.3824 4.26083 18.4237 4.26083C18.4734 4.26083 19.541 4.71827 20.7906 5.28055L23.0665 6.3098L17.8693 6.33839C15.0058 6.34792 10.3548 6.34792 7.52444 6.33839L2.37685 6.3098L4.61133 5.29008L6.84582 4.27036H11.0417L15.2375 4.26083L15.3617 4.51814ZM24.2665 10.9605V14.9917L23.9769 15.1156C23.8031 15.1823 23.5134 15.4682 23.2569 15.8018C22.5037 16.7929 22.09 16.8977 21.4941 16.2592L21.1217 15.8589V13.4192C21.1217 11.6371 21.0969 10.9414 21.0224 10.8556C20.89 10.7032 20.832 10.7127 20.6748 10.8938C20.5589 11.0177 20.5424 11.3607 20.5424 13.1333C20.5424 15.1728 20.5424 15.2204 20.3851 15.1251C20.2941 15.0775 20.021 15.0298 19.781 15.0298C19.2431 15.0298 18.9617 15.2204 18.4651 15.8875C18.2665 16.1544 18.0017 16.4403 17.8775 16.5165C17.4306 16.7834 16.9589 16.6213 16.5782 16.0591C16.4127 15.8208 16.4044 15.6969 16.4044 13.3811C16.4044 11.3417 16.3879 10.9319 16.2803 10.8366C16.181 10.7413 16.1313 10.7413 16.032 10.8366C15.9244 10.9319 15.9079 11.3131 15.9079 13.0952C15.9079 15.1061 15.8996 15.2395 15.7672 15.1632C15.5024 15.0298 14.7493 15.0108 14.4927 15.1251C14.3603 15.1918 14.0624 15.4873 13.8224 15.7827C13.3093 16.4307 13.0444 16.6499 12.7382 16.6499C12.3989 16.6499 12.101 16.4307 11.6955 15.8875C11.1989 15.2204 10.9175 15.0298 10.3796 15.0298C10.1396 15.0298 9.86651 15.0775 9.77547 15.1251C9.61823 15.2204 9.61823 15.1728 9.61823 13.0952C9.61823 11.5704 9.5934 10.9414 9.51892 10.8556C9.38651 10.7032 9.32858 10.7127 9.17133 10.8938C9.05547 11.0177 9.03892 11.3893 9.03892 13.4383C9.03064 16.0686 9.05547 15.9542 8.50927 16.4403C8.24444 16.669 7.85547 16.7071 7.57409 16.526C7.47478 16.4593 7.1934 16.1448 6.93685 15.8303C6.37409 15.1156 6.13409 14.9917 5.43892 15.0584L4.90099 15.1061V13.0285C4.90099 10.8652 4.86789 10.6555 4.53685 10.7985C4.42099 10.8461 4.40444 11.132 4.40444 13.3049V15.7541L4.04858 16.1544C3.41133 16.8787 2.95616 16.8024 2.21961 15.8399C1.94651 15.4777 1.6403 15.1823 1.46651 15.1156L1.17685 14.9917V10.9605V6.92925H12.7217H24.2665V10.9605ZM3.65961 20.2809V23.321H3.20444H2.74927V20.2428V17.1741L3.19616 17.2027L3.65133 17.2408L3.65961 20.2809ZM22.6941 20.2237V23.321H22.2803H21.8665V20.2809V17.2313L22.2637 17.1931C22.4789 17.1741 22.661 17.155 22.6775 17.1455C22.6858 17.136 22.6941 18.5178 22.6941 20.2237Z" fill="#232F3E"/>
</svg>
