<svg width="25" height="19" viewBox="0 0 25 19" fill="none" xmlns="http://www.w3.org/2000/svg">
<path d="M15.3834 10.2473C15.4574 10.3213 15.5544 10.3583 15.6514 10.3583C15.7483 10.3583 15.8454 10.3213 15.9193 10.2473L16.1567 10.01L16.394 10.2473C16.4679 10.3213 16.565 10.3583 16.6619 10.3583C16.7589 10.3583 16.8559 10.3213 16.9299 10.2473C17.0778 10.0993 17.0778 9.85939 16.9299 9.71141L16.6925 9.47408L16.9299 9.23675C17.0778 9.08877 17.0778 8.84882 16.9299 8.70083C16.7819 8.55285 16.5419 8.55285 16.394 8.70083L16.1567 8.93816L15.9193 8.70083C15.7713 8.55285 15.5314 8.55285 15.3834 8.70083C15.2355 8.84882 15.2355 9.08877 15.3834 9.23675L15.6208 9.47408L15.3834 9.71141C15.2355 9.85939 15.2355 10.0993 15.3834 10.2473Z" fill="#232F3E"/>
<path d="M20.214 5.66844L19.9767 5.43111L20.214 5.19379C20.362 5.0458 20.362 4.80585 20.214 4.65786C20.0661 4.50988 19.8261 4.50988 19.6782 4.65786L19.4408 4.89519L19.2035 4.65786C19.0555 4.50988 18.8156 4.50988 18.6676 4.65786C18.5196 4.80585 18.5196 5.0458 18.6676 5.19379L18.905 5.43111L18.6676 5.66844C18.5196 5.81643 18.5196 6.05638 18.6676 6.20436C18.7416 6.27833 18.8386 6.31536 18.9356 6.31536C19.0325 6.31536 19.1295 6.27838 19.2035 6.20436L19.4408 5.96704L19.6782 6.20436C19.7521 6.27833 19.8492 6.31536 19.9461 6.31536C20.043 6.31536 20.1401 6.27838 20.214 6.20436C20.3621 6.05638 20.3621 5.81643 20.214 5.66844Z" fill="#232F3E"/>
<path d="M18.6676 14.2883C18.7416 14.3623 18.8386 14.3993 18.9356 14.3993C19.0325 14.3993 19.1295 14.3624 19.2035 14.2883L19.4408 14.051L19.6782 14.2883C19.7521 14.3623 19.8492 14.3993 19.9461 14.3993C20.043 14.3993 20.1401 14.3624 20.214 14.2883C20.362 14.1404 20.362 13.9004 20.214 13.7524L19.9767 13.5151L20.214 13.2778C20.362 13.1298 20.362 12.8898 20.214 12.7418C20.0661 12.5939 19.8261 12.5939 19.6782 12.7418L19.4408 12.9792L19.2035 12.7418C19.0555 12.5939 18.8156 12.5939 18.6676 12.7418C18.5196 12.8898 18.5196 13.1298 18.6676 13.2778L18.905 13.5151L18.6676 13.7524C18.5196 13.9004 18.5196 14.1403 18.6676 14.2883Z" fill="#232F3E"/>
<path d="M13.6457 4.65786C13.4977 4.50988 13.2577 4.50988 13.1098 4.65786L12.8725 4.89519L12.6351 4.65786C12.4872 4.50988 12.2472 4.50988 12.0993 4.65786C11.9513 4.80585 11.9513 5.0458 12.0993 5.19379L12.3366 5.43111L12.0993 5.66844C11.9513 5.81643 11.9513 6.05638 12.0993 6.20436C12.1732 6.27833 12.2703 6.31536 12.3672 6.31536C12.4641 6.31536 12.5612 6.27838 12.6351 6.20436L12.8725 5.96704L13.1098 6.20436C13.1838 6.27833 13.2808 6.31536 13.3777 6.31536C13.4747 6.31536 13.5717 6.27838 13.6457 6.20436C13.7937 6.05638 13.7937 5.81643 13.6457 5.66844L13.4083 5.43111L13.6457 5.19379C13.7937 5.0458 13.7937 4.80585 13.6457 4.65786Z" fill="#232F3E"/>
<path d="M7.07732 12.7418C6.92933 12.5939 6.68938 12.5939 6.54144 12.7418L6.30411 12.9792L6.06679 12.7418C5.9188 12.5939 5.67885 12.5939 5.53091 12.7418C5.38293 12.8898 5.38293 13.1298 5.53091 13.2778L5.76824 13.5151L5.53091 13.7524C5.38293 13.9004 5.38293 14.1404 5.53091 14.2883C5.60488 14.3623 5.70191 14.3993 5.79885 14.3993C5.89579 14.3993 5.99282 14.3624 6.06679 14.2883L6.30411 14.051L6.54144 14.2883C6.61541 14.3623 6.71244 14.3993 6.80938 14.3993C6.90632 14.3993 7.00335 14.3624 7.07732 14.2883C7.2253 14.1404 7.2253 13.9004 7.07732 13.7524L6.83999 13.5151L7.07732 13.2778C7.2253 13.1298 7.2253 12.8899 7.07732 12.7418Z" fill="#232F3E"/>
<path d="M9.84085 2.27349H18.9919C19.6747 2.27349 20.3584 2.11214 20.9689 1.80685L22.8709 0.855894C22.9736 0.804566 23.075 0.7733 23.1724 0.762894C23.4176 0.736597 23.6523 0.811831 23.8334 0.974628C24.0121 1.13532 24.1146 1.3651 24.1146 1.60514C24.1146 1.73602 24.0836 1.86703 24.0251 1.98408L23.0656 3.90328C22.7602 4.51393 22.5988 5.19769 22.5988 5.88043V10.9893C22.5988 11.1986 22.7685 11.3683 22.9777 11.3683C23.187 11.3683 23.3566 11.1986 23.3566 10.9893V5.88033C23.3566 5.3146 23.4904 4.74816 23.7434 4.2421L24.7029 2.32289C24.8139 2.10118 24.8724 1.85293 24.8724 1.60505C24.8724 1.15027 24.6784 0.714988 24.3399 0.410863C24.0017 0.106925 23.5468 -0.0395121 23.0918 0.00919098C22.9042 0.0292535 22.7159 0.0859722 22.5319 0.177941L20.63 1.12894C20.1241 1.38188 19.5577 1.51557 18.9919 1.51557H9.84085C9.63155 1.51557 9.46191 1.68525 9.46191 1.8945C9.46191 2.10385 9.6316 2.27353 9.84085 2.27349Z" fill="#232F3E"/>
<path d="M13.6457 12.7418C13.4977 12.5939 13.2577 12.5939 13.1098 12.7418L12.8725 12.9792L12.6351 12.7418C12.4872 12.5939 12.2472 12.5939 12.0993 12.7418C11.9513 12.8898 11.9513 13.1298 12.0993 13.2778L12.3366 13.5151L12.0993 13.7524C11.9513 13.9004 11.9513 14.1404 12.0993 14.2883C12.1732 14.3623 12.2703 14.3993 12.3672 14.3993C12.4641 14.3993 12.5612 14.3624 12.6351 14.2883L12.8725 14.051L13.1098 14.2883C13.1838 14.3623 13.2808 14.3993 13.3777 14.3993C13.4747 14.3993 13.5717 14.3624 13.6457 14.2883C13.7937 14.1404 13.7937 13.9004 13.6457 13.7524L13.4083 13.5151L13.6457 13.2778C13.7937 13.1298 13.7937 12.8899 13.6457 12.7418Z" fill="#232F3E"/>
<path d="M7.07732 4.65786C6.92933 4.50988 6.68938 4.50988 6.54144 4.65786L6.30411 4.89519L6.06679 4.65786C5.9188 4.50988 5.67885 4.50988 5.53091 4.65786C5.38293 4.80585 5.38293 5.0458 5.53091 5.19379L5.76824 5.43111L5.53091 5.66844C5.38293 5.81643 5.38293 6.05638 5.53091 6.20436C5.60488 6.27833 5.70191 6.31536 5.79885 6.31536C5.89579 6.31536 5.99282 6.27838 6.06679 6.20436L6.30411 5.96704L6.54144 6.20436C6.61541 6.27833 6.71244 6.31536 6.80938 6.31536C6.90632 6.31536 7.00335 6.27838 7.07732 6.20436C7.2253 6.05638 7.2253 5.81643 7.07732 5.66844L6.83999 5.43111L7.07732 5.19379C7.2253 5.0458 7.2253 4.80585 7.07732 4.65786Z" fill="#232F3E"/>
<path d="M24.6944 16.6078L23.7429 14.705C23.49 14.199 23.3562 13.6325 23.3562 13.0667V12.5052C23.3562 12.2959 23.1865 12.1262 22.9773 12.1262C22.768 12.1262 22.5984 12.2959 22.5984 12.5052V13.0667C22.5984 13.7495 22.7597 14.4332 23.0651 15.0439L24.0166 16.9467C24.067 17.0475 24.0979 17.1472 24.1086 17.2427C24.1378 17.5033 24.0494 17.7578 23.866 17.9412C23.6827 18.1246 23.4278 18.2131 23.1676 18.1838C23.0718 18.1731 22.9723 18.1422 22.8715 18.0918L20.9687 17.1404C20.3581 16.835 19.6743 16.6736 18.9916 16.6736H6.75259C6.0698 16.6736 5.38613 16.835 4.77545 17.1404L2.8727 18.0918C2.77191 18.1422 2.6723 18.1731 2.57668 18.1838C2.31615 18.2131 2.06157 18.1246 1.8782 17.9413C1.69487 17.7579 1.60641 17.5034 1.63557 17.2428C1.6463 17.1472 1.67724 17.0475 1.72763 16.9468L2.67905 15.0439C2.98445 14.4332 3.14584 13.7495 3.14584 13.0667V5.88033C3.14584 5.19755 2.98445 4.51383 2.67905 3.90319L1.71952 1.98394C1.66098 1.86689 1.63004 1.73588 1.63004 1.605C1.63004 1.36495 1.73255 1.13517 1.91129 0.974486C2.09237 0.811736 2.32698 0.736642 2.57232 0.762751C2.66968 0.773158 2.77121 0.80447 2.87396 0.855892L4.77559 1.8067C5.38623 2.1121 6.06999 2.27349 6.75273 2.27349H8.32482C8.53412 2.27349 8.70376 2.1038 8.70376 1.89455C8.70376 1.68525 8.53407 1.51561 8.32482 1.51561H6.75268C6.18695 1.51561 5.62046 1.38188 5.11445 1.12889L3.21282 0.178033C3.02879 0.0860172 2.8404 0.0292515 2.6528 0.00918902C2.19774 -0.0395141 1.74277 0.10697 1.40462 0.410861C1.06613 0.714986 0.87207 1.15027 0.87207 1.60505C0.87207 1.85292 0.930664 2.10117 1.04152 2.32294L2.0011 4.24214C2.25413 4.74816 2.38782 5.31464 2.38782 5.88042V13.0668C2.38782 13.6326 2.25413 14.199 2.0011 14.7051L1.04973 16.6078C0.959305 16.7887 0.903008 16.9739 0.882336 17.1585C0.827445 17.6494 0.99507 18.1301 1.34227 18.4772C1.68948 18.8244 2.17004 18.992 2.66087 18.9371C2.84546 18.9165 3.03076 18.8602 3.2116 18.7697L5.11435 17.8183C5.62037 17.5653 6.1868 17.4316 6.75259 17.4316H18.9915C19.5572 17.4316 20.1237 17.5653 20.6297 17.8183L22.5325 18.7697C22.7133 18.8602 22.8986 18.9165 23.0832 18.9372C23.1444 18.9441 23.2056 18.9474 23.2663 18.9474C23.6919 18.9474 24.098 18.7811 24.4018 18.4773C24.749 18.1301 24.9166 17.6495 24.8617 17.1586C24.8411 16.974 24.7848 16.7887 24.6944 16.6078Z" fill="#232F3E"/>
<path d="M8.81509 10.2473C8.88906 10.3213 8.98609 10.3583 9.08303 10.3583C9.17997 10.3583 9.277 10.3213 9.35096 10.2473L9.58829 10.01L9.82562 10.2473C9.89959 10.3213 9.99662 10.3583 10.0936 10.3583C10.1905 10.3583 10.2875 10.3213 10.3615 10.2473C10.5095 10.0993 10.5095 9.85939 10.3615 9.71141L10.1242 9.47408L10.3615 9.23675C10.5095 9.08877 10.5095 8.84882 10.3615 8.70083C10.2135 8.55285 9.97356 8.55285 9.82562 8.70083L9.58829 8.93816L9.35096 8.70083C9.20298 8.55285 8.96303 8.55285 8.81509 8.70083C8.66711 8.84886 8.66711 9.08882 8.81509 9.23675L9.05242 9.47408L8.81509 9.71141C8.66711 9.85939 8.66711 10.0993 8.81509 10.2473Z" fill="#232F3E"/>
</svg>
