<svg width="25" height="24" viewBox="0 0 25 24" fill="none" xmlns="http://www.w3.org/2000/svg">
<path d="M4.45458 0.0836789C3.66922 0.25197 3.09805 0.537555 2.46569 1.06793C1.94042 1.5116 1.42024 2.25107 1.22135 2.84263C0.940867 3.68919 0.961266 2.98543 0.961266 12.0222V20.3092L1.10406 20.7682C1.45594 21.9105 2.05771 22.7163 3.01646 23.3334C3.32244 23.5322 3.67432 23.6801 4.30159 23.8892C4.56678 23.9759 5.06145 23.981 13.5831 23.9963C20.1975 24.0065 22.6657 23.9963 22.8901 23.9555C23.8693 23.7668 24.624 23.0427 24.879 22.0431C24.9453 21.7779 24.9555 20.7784 24.9555 14.1385C24.9555 5.77498 24.9708 6.20336 24.6393 5.58629C24.4404 5.20891 24.0121 4.78563 23.6347 4.58164C23.0176 4.25526 23.3899 4.27056 16.2554 4.27056H9.7634L9.73281 3.97477C9.52372 2.13377 8.31508 0.670148 6.57097 0.165275C5.9386 -0.0183157 5.06655 -0.0540138 4.45458 0.0836789ZM6.21399 0.603852C7.26963 0.884337 8.11619 1.5065 8.63126 2.37346C8.74346 2.56215 8.91175 2.93443 9.00354 3.19961L9.17183 3.68409L9.18203 10.5432C9.19223 17.0301 9.18713 17.3973 9.10554 17.2749C8.64656 16.617 8.35078 16.311 7.80001 15.9387C6.32618 14.929 4.36789 14.9341 2.88897 15.9387C2.34329 16.311 2.04751 16.617 1.58853 17.2749C1.50694 17.3973 1.50184 17.0301 1.51204 10.5432L1.52224 3.68409L1.68543 3.20981C2.175 1.77169 3.31734 0.777242 4.75547 0.547755C5.09205 0.491657 5.92331 0.527356 6.21399 0.603852ZM22.8901 4.90292C23.6602 5.10691 24.1803 5.65768 24.3435 6.43794C24.3792 6.61133 24.3894 9.1867 24.3843 14.2915L24.369 21.8901L24.2619 22.1553C24.0376 22.701 23.65 23.0937 23.1298 23.3028L22.8391 23.4201L15.164 23.4354L7.48892 23.4456L7.82041 23.2263C8.83015 22.5429 9.52882 21.4057 9.70221 20.1664C9.743 19.891 9.7583 17.3922 9.7583 12.2975V4.83153H16.1993C21.4061 4.83153 22.6861 4.84683 22.8901 4.90292ZM5.9794 15.8011C7.44303 16.0356 8.63636 17.1168 9.05454 18.5855C9.18713 19.0496 9.21263 20.044 9.10044 20.4367C8.68226 21.9411 7.74901 22.8999 6.29049 23.3232C5.83151 23.4557 4.86256 23.4557 4.40359 23.3232C3.63863 23.0988 3.00116 22.7163 2.52178 22.1961C1.82312 21.4312 1.44064 20.3398 1.51714 19.3403C1.55794 18.7844 1.66503 18.407 1.94551 17.8358C2.35349 17.0046 3.22045 16.2396 4.0823 15.954C4.68407 15.7552 5.36234 15.6991 5.9794 15.8011Z" fill="#232F3E"/>
<path d="M11.5836 6.76858C11.2318 6.87568 10.8799 7.34485 10.8799 7.71203C10.8799 8.46679 11.6601 8.97167 12.3333 8.66058C12.726 8.47699 12.9198 8.17611 12.9198 7.73753C12.9198 7.43155 12.8535 7.24796 12.675 7.05417C12.4098 6.76858 11.9661 6.65129 11.5836 6.76858ZM12.2007 7.41115C12.3588 7.54374 12.4098 7.75793 12.3282 7.96702C12.2874 8.06902 12.0426 8.19651 11.8845 8.19651C11.5836 8.19651 11.3695 7.82933 11.5021 7.54884C11.6346 7.26836 11.9559 7.20206 12.2007 7.41115Z" fill="#232F3E"/>
<path d="M16.5667 6.81492C16.3066 6.93222 16.0516 7.2229 15.9802 7.47789C15.8731 7.88587 16.021 8.26325 16.4035 8.57433C16.582 8.71712 16.633 8.73242 16.9696 8.73242C17.454 8.73242 17.6937 8.58963 17.8926 8.17145C18.066 7.82467 18.0507 7.55438 17.8416 7.2025C17.5968 6.78432 17.0206 6.60583 16.5667 6.81492ZM17.1991 7.35549C17.4846 7.50339 17.5203 7.89607 17.2704 8.09496C17.1175 8.21735 16.9441 8.22245 16.7503 8.12045C16.5871 8.03886 16.5412 7.95216 16.5412 7.71758C16.5412 7.37079 16.8727 7.1872 17.1991 7.35549Z" fill="#232F3E"/>
<path d="M21.615 6.81607C20.8143 7.18325 20.8398 8.34089 21.6507 8.68257C22.0077 8.83047 22.4718 8.74887 22.7573 8.48878C23.1602 8.1216 23.1602 7.35664 22.7573 6.98946C22.4616 6.71918 21.9822 6.64778 21.615 6.81607ZM22.3596 7.42804C22.4616 7.53003 22.5075 7.62693 22.5075 7.73912C22.5075 7.85132 22.4616 7.94821 22.3596 8.05021C22.2576 8.1522 22.1607 8.1981 22.0485 8.1981C21.8292 8.1981 21.5895 7.95841 21.5895 7.73912C21.5895 7.62693 21.6354 7.53003 21.7374 7.42804C21.8394 7.32604 21.9363 7.28015 22.0485 7.28015C22.1607 7.28015 22.2576 7.32604 22.3596 7.42804Z" fill="#232F3E"/>
<path d="M14.2204 7.60501C14.0572 7.85489 14.3377 8.13028 14.5876 7.96199C14.7151 7.88039 14.7457 7.6458 14.6437 7.54381C14.5366 7.43671 14.3071 7.47241 14.2204 7.60501Z" fill="#232F3E"/>
<path d="M19.2951 7.57969C19.2186 7.72758 19.2339 7.82958 19.3512 7.94687C19.5093 8.10496 19.8051 7.97237 19.8051 7.73268C19.8051 7.50319 19.4022 7.3859 19.2951 7.57969Z" fill="#232F3E"/>
<path d="M14.17 9.95615C13.5937 10.1091 13.2725 10.7823 13.507 11.3433C13.6192 11.6085 13.7212 11.7105 14.017 11.8481C14.3434 12.0011 14.5627 12.0011 14.8942 11.8481C15.2205 11.6952 15.4092 11.43 15.4551 11.0679C15.5418 10.3233 14.8942 9.76746 14.17 9.95615ZM14.7769 10.6497C14.9911 10.9047 14.9401 11.1852 14.6494 11.3382C14.2567 11.5371 13.8436 11.124 14.0527 10.7313C14.1394 10.5579 14.2516 10.4967 14.4607 10.4916C14.6035 10.4916 14.6749 10.5273 14.7769 10.6497Z" fill="#232F3E"/>
<path d="M19.3103 9.93129C18.479 10.1251 18.2087 11.1195 18.836 11.6856C19.2185 12.0273 19.7182 12.0528 20.1262 11.7519C20.3965 11.5428 20.5342 11.2725 20.5342 10.9308C20.5342 10.477 20.2333 10.0894 19.7845 9.95679C19.6468 9.91599 19.5193 9.88029 19.504 9.88539C19.4887 9.89049 19.4021 9.90579 19.3103 9.93129ZM19.8304 10.6198C19.9222 10.7064 19.9579 10.7982 19.9579 10.941C19.9579 11.4306 19.2797 11.5632 19.0961 11.1093C18.9074 10.6606 19.4887 10.273 19.8304 10.6198Z" fill="#232F3E"/>
<path d="M11.7572 10.7277C11.5481 10.8755 11.6603 11.207 11.9255 11.207C12.0479 11.207 12.206 11.0387 12.206 10.9163C12.206 10.8806 12.1601 10.8042 12.104 10.7481C11.9816 10.6257 11.9102 10.6206 11.7572 10.7277Z" fill="#232F3E"/>
<path d="M16.7962 10.7465C16.6687 10.874 16.6636 11.0117 16.786 11.1188C16.9747 11.2922 17.2551 11.1749 17.2551 10.925C17.2551 10.8026 17.0868 10.6445 16.9645 10.6445C16.9288 10.6445 16.8523 10.6904 16.7962 10.7465Z" fill="#232F3E"/>
<path d="M21.8858 10.7175C21.7787 10.794 21.7634 11.054 21.8552 11.1458C21.8909 11.1815 21.9776 11.207 22.049 11.207C22.1204 11.207 22.2071 11.1815 22.2428 11.1458C22.3346 11.054 22.3142 10.8246 22.2122 10.7328C22.1 10.6308 22.0031 10.6257 21.8858 10.7175Z" fill="#232F3E"/>
<path d="M11.5734 13.1694C11.0175 13.3683 10.737 14.021 10.9767 14.5514C11.1552 14.9441 11.6754 15.2399 12.0579 15.1583C12.578 15.0512 12.9197 14.6483 12.9197 14.1434C12.9197 13.6742 12.7361 13.3938 12.3078 13.2C12.0426 13.0776 11.8488 13.0674 11.5734 13.1694ZM12.2466 13.8374C12.5015 14.123 12.3078 14.5769 11.9304 14.5871C11.7672 14.5922 11.706 14.5616 11.5836 14.4239C11.4612 14.2862 11.4357 14.225 11.4612 14.0975C11.5428 13.6844 11.9763 13.5417 12.2466 13.8374Z" fill="#232F3E"/>
<path d="M16.6428 13.1601C16.3827 13.2417 16.0614 13.5884 15.9849 13.8689C15.8676 14.2871 16.0461 14.741 16.4184 14.9807C16.8723 15.2662 17.3109 15.2203 17.6934 14.8532C18.137 14.4248 18.1166 13.7771 17.6475 13.364C17.3619 13.1142 17.0151 13.0428 16.6428 13.1601ZM17.3058 13.8332C17.5812 14.1086 17.367 14.5982 16.9692 14.588C16.4643 14.5727 16.3674 13.874 16.8468 13.6904C16.9743 13.6394 17.1732 13.7057 17.3058 13.8332Z" fill="#232F3E"/>
<path d="M21.7372 13.1599C21.2374 13.3486 20.9977 13.7158 21.0436 14.2207C21.115 15.0111 21.9412 15.4242 22.5939 14.9958C22.9305 14.7816 23.0427 14.5623 23.0427 14.1391C23.0427 13.8229 23.0223 13.7464 22.8999 13.5679C22.6449 13.2007 22.1248 13.0171 21.7372 13.1599ZM22.2268 13.7158C22.3747 13.7821 22.5073 13.9963 22.5073 14.1646C22.5073 14.445 22.1758 14.6643 21.9004 14.5674C21.523 14.4348 21.4924 13.9249 21.8494 13.726C22.0024 13.6393 22.0636 13.6393 22.2268 13.7158Z" fill="#232F3E"/>
<path d="M14.2769 13.9252C14.0831 14.068 14.2106 14.4199 14.4554 14.4199C14.6849 14.4199 14.8022 14.017 14.6084 13.9099C14.4758 13.8437 14.3891 13.8437 14.2769 13.9252Z" fill="#232F3E"/>
<path d="M19.331 13.949C19.076 14.2295 19.4381 14.5814 19.7033 14.3162C19.8256 14.1938 19.8307 14.1224 19.7237 13.9694C19.6319 13.8317 19.4432 13.8215 19.331 13.949Z" fill="#232F3E"/>
<path d="M14.0781 16.3764C13.5529 16.5702 13.2877 17.1924 13.507 17.7228C13.869 18.5846 15.1287 18.5387 15.4194 17.6514C15.5622 17.223 15.3582 16.6671 14.9757 16.4427C14.7564 16.3152 14.3229 16.2846 14.0781 16.3764ZM14.7309 16.9782C14.8074 17.0496 14.8737 17.172 14.8941 17.2842C14.9196 17.4474 14.8992 17.4933 14.7666 17.631C14.5575 17.835 14.3433 17.8401 14.1393 17.6361C14.0373 17.5341 13.9914 17.4372 13.9914 17.325C13.9914 17.1108 14.2311 16.866 14.4453 16.866C14.532 16.866 14.6544 16.917 14.7309 16.9782Z" fill="#232F3E"/>
<path d="M19.0351 16.4435C18.8056 16.5608 18.7342 16.6322 18.6169 16.8668C18.4894 17.1065 18.4741 17.1881 18.4996 17.4227C18.5302 17.7797 18.7291 18.0755 19.0402 18.2335C19.3768 18.4069 19.8307 18.3763 20.0958 18.1622C20.4987 17.8358 20.6262 17.4839 20.4936 17.0402C20.3712 16.6169 19.9479 16.3058 19.5094 16.3058C19.3972 16.3058 19.1983 16.367 19.0351 16.4435ZM19.8001 16.9994C20.2488 17.3768 19.693 18.0449 19.2289 17.6828C18.9841 17.489 19.0147 17.0912 19.2901 16.9433C19.489 16.8362 19.6267 16.8515 19.8001 16.9994Z" fill="#232F3E"/>
<path d="M11.6963 17.1684C11.6096 17.3315 11.6402 17.4743 11.7728 17.561C12.038 17.7344 12.3389 17.4029 12.1298 17.1735C12.0125 17.0409 11.7677 17.0409 11.6963 17.1684Z" fill="#232F3E"/>
<path d="M16.7759 17.1534C16.73 17.1942 16.6943 17.2758 16.6943 17.3319C16.6943 17.4492 16.8677 17.6328 16.9748 17.6328C17.0768 17.6328 17.2553 17.4492 17.2553 17.3472C17.2553 17.0973 16.9544 16.9749 16.7759 17.1534Z" fill="#232F3E"/>
<path d="M21.8546 17.1316C21.7833 17.203 21.7731 17.4223 21.8393 17.5243C21.8648 17.5651 21.9617 17.5957 22.0484 17.5957C22.2269 17.5957 22.3034 17.5192 22.3034 17.3203C22.3034 17.1571 22.2167 17.0704 22.0484 17.0704C21.977 17.0704 21.8903 17.0959 21.8546 17.1316Z" fill="#232F3E"/>
<path d="M11.416 19.6316C11.1305 19.7999 10.9214 20.1161 10.8908 20.4323C10.8551 20.8046 11.0591 21.2023 11.3701 21.3859C11.7985 21.6358 12.2422 21.6001 12.5992 21.289C12.8338 21.0799 12.9205 20.8709 12.9205 20.4986C12.9205 20.1518 12.7726 19.8764 12.4768 19.6724C12.2116 19.4888 11.6965 19.4684 11.416 19.6316ZM12.2269 20.2079C12.3238 20.2997 12.3595 20.3813 12.3595 20.5292C12.3595 20.9983 11.7271 21.1513 11.5129 20.7332C11.2834 20.2895 11.8546 19.8662 12.2269 20.2079Z" fill="#232F3E"/>
<path d="M16.5668 19.5895C16.1996 19.7527 15.96 20.1301 15.96 20.5381C15.9702 21.4866 17.1176 21.9048 17.75 21.1857C18.0661 20.8236 18.0967 20.4106 17.8316 19.9873C17.6378 19.6711 17.3675 19.5181 17.0003 19.5232C16.8473 19.5232 16.6535 19.5538 16.5668 19.5895ZM17.2706 20.1811C17.4389 20.3137 17.4899 20.5381 17.3879 20.7318C17.1737 21.15 16.5413 20.997 16.5413 20.5279C16.5413 20.1403 16.9646 19.9414 17.2706 20.1811Z" fill="#232F3E"/>
<path d="M21.6154 19.5893C21.4165 19.6811 21.2074 19.9055 21.1105 20.14C20.7586 20.9764 21.6154 21.823 22.4313 21.4609C22.7526 21.3181 22.8546 21.2263 22.9719 20.9713C23.2116 20.4562 22.9464 19.7627 22.4415 19.574C22.2426 19.4975 21.799 19.5077 21.6154 19.5893ZM22.3752 20.2369C22.5435 20.4307 22.5435 20.6398 22.3854 20.8285C22.2885 20.9407 22.2222 20.9713 22.0489 20.9713C21.6409 20.9713 21.4573 20.5531 21.7225 20.2369C21.8245 20.1094 21.8959 20.0788 22.0489 20.0788C22.2018 20.0788 22.2732 20.1094 22.3752 20.2369Z" fill="#232F3E"/>
<path d="M14.2514 20.3644C14.1239 20.5276 14.1239 20.5327 14.2259 20.6806C14.3126 20.803 14.5421 20.8336 14.6441 20.7316C14.7461 20.6296 14.7155 20.4001 14.5931 20.3134C14.435 20.2012 14.3738 20.2114 14.2514 20.3644Z" fill="#232F3E"/>
<path d="M19.3562 20.3149C19.2339 20.3965 19.2135 20.5393 19.2951 20.6974C19.4021 20.8963 19.805 20.7586 19.805 20.524C19.805 20.422 19.6316 20.2333 19.5347 20.2333C19.499 20.2333 19.4174 20.269 19.3562 20.3149Z" fill="#232F3E"/>
<path d="M5.01563 17.8419C4.42917 17.9592 3.8427 18.4691 3.65911 19.025C3.53161 19.4024 3.57751 20.0245 3.7611 20.3764C3.93959 20.7334 4.24558 21.0292 4.60256 21.1975C4.84224 21.3097 4.95954 21.3301 5.34712 21.3301C5.7347 21.3301 5.84689 21.3097 6.08658 21.1975C6.43846 21.0292 6.75464 20.7232 6.93313 20.3764C7.11162 20.0245 7.16262 19.4024 7.03513 19.0301C6.76484 18.2192 5.83669 17.6736 5.01563 17.8419ZM5.83159 18.4844C6.38236 18.7088 6.66795 19.3565 6.49456 19.9837C6.37216 20.4325 5.85709 20.7946 5.34712 20.7946C4.83714 20.7946 4.32207 20.4325 4.19968 19.9837C3.90899 18.9383 4.84224 18.0815 5.83159 18.4844Z" fill="#232F3E"/>
</svg>
