<svg width="25" height="24" viewBox="0 0 25 24" fill="none" xmlns="http://www.w3.org/2000/svg">
<g clip-path="url(#clip0_5695_37914)">
<path d="M23.4512 12.2698C23.418 12.183 23.4015 12.0915 23.4015 12C23.4015 11.9085 23.418 11.817 23.4512 11.7302L24.3275 9.42947C24.4032 9.23072 24.4401 9.02419 24.4398 8.82047C24.4401 8.25605 24.1594 7.7115 23.6648 7.38834L21.6029 6.04219C21.4475 5.9408 21.3344 5.7848 21.2859 5.60555L20.6425 3.22824C20.4393 2.47964 19.7609 1.96486 18.9917 1.96486C18.9629 1.96486 18.9341 1.96552 18.9049 1.96702L16.4529 2.08955L16.4098 2.09049C16.2365 2.09049 16.0687 2.03156 15.9335 1.92305L14.0161 0.378657C13.7038 0.126516 13.3223 -0.00032749 12.9434 6.34968e-07C12.5641 -0.00032749 12.1826 0.126516 11.8697 0.378985L9.95265 1.923C9.81774 2.03156 9.64965 2.09044 9.47631 2.09044L9.43721 2.0895L6.96938 1.96636L6.98485 1.9673C6.95101 1.96514 6.92096 1.96481 6.89462 1.96481C6.12554 1.96481 5.44702 2.47959 5.24391 3.22819L4.60041 5.6055C4.55204 5.78475 4.43884 5.94075 4.28345 6.04214L2.22156 7.38834C1.72693 7.7115 1.44596 8.25633 1.44629 8.82075C1.44629 9.02419 1.4829 9.23072 1.55823 9.42919L2.43521 11.7302C2.4684 11.817 2.48485 11.9085 2.48485 12C2.48485 12.0912 2.4684 12.183 2.43521 12.2698L1.55856 14.5708C1.4829 14.769 1.44629 14.9755 1.44629 15.1789C1.44601 15.7433 1.72665 16.2882 2.22156 16.6119L4.28345 17.9581C4.43884 18.0595 4.55199 18.2149 4.60041 18.3945L5.24391 20.7711C5.44702 21.52 6.12554 22.0348 6.89429 22.0351C6.92096 22.0348 6.94951 22.0345 6.9796 22.0329L7.05868 22.0289L9.43941 21.9101L9.44406 21.9098L9.47757 21.9091C9.64998 21.9091 9.81746 21.9681 9.95265 22.077L11.8701 23.6216C12.1826 23.8734 12.5641 24.0002 12.9434 23.9999C13.3223 24.0002 13.7038 23.8734 14.0163 23.6216L15.9337 22.077C16.0689 21.9678 16.2364 21.9091 16.4088 21.9091L16.4457 21.9101L16.4891 21.9122L18.894 22.0322L18.9105 22.0332C18.9359 22.0341 18.9629 22.0347 18.9917 22.0347C19.7604 22.0347 20.4393 21.5202 20.6424 20.771L21.2859 18.3944C21.3343 18.2148 21.4475 18.0594 21.6025 17.958L23.6648 16.6118C24.1594 16.2881 24.4401 15.7435 24.4397 15.1792C24.4401 14.9757 24.4031 14.7692 24.3275 14.5704L23.4512 12.2698ZM23.1435 15.8144L21.0819 17.1605C20.7306 17.3897 20.476 17.7405 20.3662 18.1457L19.7227 20.5224C19.6334 20.8543 19.3316 21.0825 18.9917 21.0825L18.9496 21.0812L16.4947 20.9587H16.496C16.4681 20.9572 16.4392 20.9565 16.4088 20.9565C16.0193 20.9563 15.6404 21.0896 15.3358 21.3352L13.4184 22.8799C13.2792 22.9918 13.1124 23.0473 12.9433 23.0473C12.774 23.0473 12.6072 22.9918 12.4679 22.8799L10.5505 21.3352C10.246 21.0899 9.86706 20.9565 9.47752 20.9565C9.45207 20.9565 9.42296 20.9572 9.39165 20.9591V20.9587L6.93245 21.0816H6.9331L6.89434 21.0822C6.5551 21.0825 6.25304 20.8543 6.1637 20.5224L5.52029 18.1458C5.41051 17.7405 5.15588 17.3897 4.80423 17.1603L2.74262 15.8144C2.52338 15.6714 2.39935 15.4296 2.39902 15.179C2.39902 15.0891 2.41515 14.9985 2.44862 14.9101L3.32532 12.6091C3.40004 12.4131 3.43754 12.2066 3.43754 12C3.43754 11.7935 3.40004 11.587 3.32532 11.3907L2.44862 9.09028C2.41515 9.00127 2.39902 8.9107 2.39902 8.82075C2.39935 8.5702 2.52306 8.32894 2.74229 8.18597L4.80451 6.83981C5.15588 6.60999 5.41046 6.25927 5.52024 5.85427L6.1637 3.47728C6.25304 3.14578 6.5551 2.91722 6.89466 2.91755L6.92785 2.9182L6.9384 2.91881L9.3917 3.0413H9.39385L9.47635 3.04317C9.86616 3.0435 10.2451 2.91014 10.5503 2.66517L12.4677 1.1205L12.1691 0.749626L12.468 1.12017C12.6073 1.00791 12.7741 0.952735 12.9434 0.952735C13.1124 0.952735 13.2793 1.00823 13.4185 1.12017L15.3362 2.66484C15.6414 2.91075 16.0207 3.04317 16.4099 3.04317C16.4387 3.04317 16.4651 3.04256 16.4889 3.04163L16.4979 3.04102L18.9106 2.92069L18.9552 2.91849L18.9918 2.91755C19.3314 2.91722 19.6334 3.14578 19.7228 3.47728L20.3663 5.85427C20.476 6.25927 20.7306 6.60999 21.082 6.83981L23.1439 8.18597C23.3632 8.32894 23.4872 8.5702 23.4872 8.82047C23.4872 8.91038 23.4714 9.00122 23.4373 9.09056L22.5612 11.391C22.4865 11.5869 22.4489 11.7935 22.4489 12C22.4489 12.2065 22.4865 12.4131 22.5612 12.609L23.4376 14.91C23.4714 14.9987 23.4872 15.0893 23.4872 15.1792C23.4871 15.4295 23.3631 15.6711 23.1435 15.8144Z" fill="#FE3801"/>
<path d="M11.3852 10.6586C11.3681 10.6285 11.3428 10.6115 11.3056 10.6189L10.6357 10.7507C10.5985 10.7578 10.5814 10.7829 10.5771 10.8174L10.0232 14.57C10.0188 14.6041 10.0337 14.6234 10.071 14.616L10.7671 14.4792C10.8043 14.4717 10.8223 14.4519 10.8255 14.4122L10.9033 13.7402L12.1685 13.4915L12.5 14.0829C12.518 14.1185 12.5425 14.13 12.5797 14.1228L13.2707 13.9867C13.3078 13.9796 13.3141 13.956 13.2973 13.9262L11.3852 10.6586ZM10.9905 13.0328L11.1508 11.6869L11.1669 11.6838L11.8253 12.8687L10.9905 13.0328Z" fill="#FE3801"/>
<path d="M8.21171 12.7235L8.01545 12.7344C7.5887 12.7577 7.41413 12.6538 7.37349 12.4466C7.32854 12.218 7.46063 12.0208 7.77976 11.9582C8.07713 11.8996 8.36181 11.943 8.67409 12.0692C8.70324 12.08 8.72898 12.0695 8.74482 12.0388L8.97427 11.4911C8.99354 11.4487 8.98421 11.4288 8.94793 11.4136C8.59909 11.2397 8.12429 11.1835 7.64612 11.2778C6.86467 11.4313 6.45188 11.9709 6.58243 12.6355C6.70801 13.2734 7.18496 13.5379 7.93852 13.4948L8.13512 13.4839C8.57673 13.4578 8.73052 13.5655 8.77271 13.7782C8.82268 14.0334 8.64432 14.2505 8.26721 14.3246C7.88457 14.4 7.52452 14.2831 7.24759 14.1386C7.21721 14.1225 7.18524 14.1287 7.16912 14.16L6.85623 14.7018C6.83546 14.7386 6.85374 14.774 6.8792 14.7911C7.21407 15.0066 7.80545 15.1223 8.36898 15.0112C9.30456 14.8273 9.69315 14.2484 9.56476 13.5947C9.43604 12.9409 8.97549 12.6783 8.21171 12.7235Z" fill="#FE3801"/>
<path d="M16.1056 12.7067L14.511 13.0202C14.4899 13.0242 14.4772 13.0156 14.4728 12.9945L13.9156 10.1614C13.9094 10.1291 13.8842 10.112 13.8523 10.1186L13.1772 10.2513C13.1452 10.2575 13.1279 10.283 13.1341 10.3152L13.8241 13.8231C13.8306 13.8548 13.856 13.8721 13.8879 13.8659L16.2426 13.4026C16.2748 13.3964 16.2916 13.371 16.2854 13.3391L16.1694 12.7489C16.1632 12.7169 16.1378 12.7002 16.1056 12.7067Z" fill="#FE3801"/>
<path d="M18.9973 12.1592L17.4396 12.4653C17.4186 12.4697 17.4055 12.4613 17.4015 12.4402L17.2542 11.6904C17.2499 11.6693 17.2585 11.6565 17.2796 11.6522L18.5768 11.3973C18.6084 11.3911 18.6258 11.3657 18.6193 11.3338L18.5085 10.7703C18.5023 10.7387 18.4766 10.7216 18.445 10.7279L17.1481 10.9828C17.127 10.9871 17.114 10.9784 17.1096 10.9573L16.9686 10.2397C16.9645 10.218 16.9732 10.2056 16.9943 10.2013L18.552 9.89489C18.5836 9.88866 18.6006 9.86325 18.5945 9.83133L18.4828 9.26288C18.4763 9.23063 18.4509 9.21361 18.4192 9.22013L16.1015 9.6757C16.0695 9.68222 16.0525 9.7073 16.059 9.73955L16.7487 13.2475C16.7549 13.2795 16.7803 13.2968 16.8123 13.2903L19.1301 12.8348C19.1617 12.8282 19.1787 12.8028 19.1725 12.7709L19.0609 12.2021C19.0543 12.1701 19.0289 12.1527 18.9973 12.1592Z" fill="#FE3801"/>
</g>
<defs>
<clipPath id="clip0_5695_37914">
<rect width="24" height="24" fill="white" transform="translate(0.943359)"/>
</clipPath>
</defs>
</svg>
