<svg width="25" height="24" viewBox="0 0 25 24" fill="none" xmlns="http://www.w3.org/2000/svg">
<path d="M4.41064 0.0836789C3.62528 0.25197 3.05411 0.537555 2.42174 1.06793C1.89647 1.5116 1.3763 2.25107 1.17741 2.84263C0.896922 3.68919 0.917321 2.98543 0.917321 12.0222V20.3092L1.06011 20.7682C1.412 21.9105 2.01376 22.7163 2.97251 23.3334C3.2785 23.5322 3.63038 23.6801 4.25765 23.8892C4.52283 23.9759 5.01751 23.981 13.5392 23.9963C20.1535 24.0065 22.6218 23.9963 22.8462 23.9555C23.8253 23.7668 24.5801 23.0427 24.8351 22.0431C24.9014 21.7779 24.9116 20.7784 24.9116 14.1385C24.9116 5.77498 24.9269 6.20336 24.5954 5.58629C24.3965 5.20891 23.9681 4.78563 23.5907 4.58164C22.9737 4.25526 23.3459 4.27056 16.2114 4.27056H9.71946L9.68886 3.97477C9.47977 2.13377 8.27113 0.670148 6.52703 0.165275C5.89466 -0.0183157 5.02261 -0.0540138 4.41064 0.0836789ZM6.17004 0.603852C7.22569 0.884337 8.07224 1.5065 8.58732 2.37346C8.69951 2.56215 8.8678 2.93443 8.9596 3.19961L9.12789 3.68409L9.13809 10.5432C9.14829 17.0301 9.14319 17.3973 9.06159 17.2749C8.60262 16.617 8.30683 16.311 7.75606 15.9387C6.28224 14.929 4.32394 14.9341 2.84502 15.9387C2.29935 16.311 2.00356 16.617 1.54459 17.2749C1.46299 17.3973 1.45789 17.0301 1.46809 10.5432L1.47829 3.68409L1.64148 3.20981C2.13106 1.77169 3.2734 0.777242 4.71152 0.547755C5.0481 0.491657 5.87936 0.527356 6.17004 0.603852ZM22.8462 4.90292C23.6162 5.10691 24.1364 5.65768 24.2996 6.43794C24.3353 6.61133 24.3455 9.1867 24.3404 14.2915L24.3251 21.8901L24.218 22.1553C23.9936 22.701 23.606 23.0937 23.0859 23.3028L22.7952 23.4201L15.1201 23.4354L7.44498 23.4456L7.77646 23.2263C8.78621 22.5429 9.48487 21.4057 9.65826 20.1664C9.69906 19.891 9.71436 17.3922 9.71436 12.2975V4.83153H16.1553C21.3621 4.83153 22.6422 4.84683 22.8462 4.90292ZM5.93546 15.8011C7.39908 16.0356 8.59242 17.1168 9.0106 18.5855C9.14319 19.0496 9.16869 20.044 9.05649 20.4367C8.63832 21.9411 7.70506 22.8999 6.24654 23.3232C5.78756 23.4557 4.81862 23.4557 4.35964 23.3232C3.59468 23.0988 2.95721 22.7163 2.47784 22.1961C1.77918 21.4312 1.3967 20.3398 1.47319 19.3403C1.51399 18.7844 1.62108 18.407 1.90157 17.8358C2.30955 17.0046 3.1765 16.2396 4.03836 15.954C4.64013 15.7552 5.31839 15.6991 5.93546 15.8011Z" fill="#232F3E"/>
<path d="M14.1764 7.60501C14.0133 7.85489 14.2937 8.13028 14.5436 7.96199C14.6711 7.88039 14.7017 7.6458 14.5997 7.54381C14.4926 7.43671 14.2631 7.47241 14.1764 7.60501Z" fill="#232F3E"/>
<path d="M19.2512 7.57969C19.1747 7.72758 19.19 7.82958 19.3073 7.94687C19.4654 8.10496 19.7612 7.97237 19.7612 7.73268C19.7612 7.50319 19.3583 7.3859 19.2512 7.57969Z" fill="#232F3E"/>
<path d="M11.7132 10.7277C11.5042 10.8755 11.6164 11.207 11.8815 11.207C12.0039 11.207 12.162 11.0387 12.162 10.9163C12.162 10.8806 12.1161 10.8042 12.06 10.7481C11.9376 10.6257 11.8662 10.6206 11.7132 10.7277Z" fill="#232F3E"/>
<path d="M16.7522 10.7465C16.6247 10.874 16.6196 11.0117 16.742 11.1188C16.9307 11.2922 17.2112 11.1749 17.2112 10.925C17.2112 10.8026 17.0429 10.6445 16.9205 10.6445C16.8848 10.6445 16.8083 10.6904 16.7522 10.7465Z" fill="#232F3E"/>
<path d="M21.8418 10.7175C21.7348 10.794 21.7195 11.054 21.8113 11.1458C21.8469 11.1815 21.9336 11.207 22.005 11.207C22.0764 11.207 22.1631 11.1815 22.1988 11.1458C22.2906 11.054 22.2702 10.8246 22.1682 10.7328C22.056 10.6308 21.9591 10.6257 21.8418 10.7175Z" fill="#232F3E"/>
<path d="M14.2329 13.9252C14.0391 14.068 14.1666 14.4199 14.4114 14.4199C14.6409 14.4199 14.7582 14.017 14.5644 13.9099C14.4318 13.8437 14.3451 13.8437 14.2329 13.9252Z" fill="#232F3E"/>
<path d="M19.287 13.949C19.032 14.2295 19.3941 14.5814 19.6593 14.3162C19.7817 14.1938 19.7868 14.1224 19.6797 13.9694C19.5879 13.8317 19.3992 13.8215 19.287 13.949Z" fill="#232F3E"/>
<path d="M11.6524 17.1684C11.5657 17.3315 11.5963 17.4743 11.7289 17.561C11.9941 17.7344 12.2949 17.4029 12.0859 17.1735C11.9686 17.0409 11.7238 17.0409 11.6524 17.1684Z" fill="#232F3E"/>
<path d="M16.732 17.1534C16.6861 17.1942 16.6504 17.2758 16.6504 17.3319C16.6504 17.4492 16.8238 17.6328 16.9309 17.6328C17.0329 17.6328 17.2114 17.4492 17.2114 17.3472C17.2114 17.0973 16.9105 16.9749 16.732 17.1534Z" fill="#232F3E"/>
<path d="M21.8107 17.1316C21.7393 17.203 21.7291 17.4223 21.7954 17.5243C21.8209 17.5651 21.9178 17.5957 22.0045 17.5957C22.183 17.5957 22.2595 17.5192 22.2595 17.3203C22.2595 17.1571 22.1728 17.0704 22.0045 17.0704C21.9331 17.0704 21.8464 17.0959 21.8107 17.1316Z" fill="#232F3E"/>
<path d="M14.2075 20.3644C14.08 20.5276 14.08 20.5327 14.182 20.6806C14.2687 20.803 14.4982 20.8336 14.6002 20.7316C14.7021 20.6296 14.6715 20.4001 14.5492 20.3134C14.3911 20.2012 14.3299 20.2114 14.2075 20.3644Z" fill="#232F3E"/>
<path d="M19.3123 20.3149C19.1899 20.3965 19.1695 20.5393 19.2511 20.6974C19.3582 20.8963 19.7611 20.7586 19.7611 20.524C19.7611 20.422 19.5877 20.2333 19.4908 20.2333C19.4551 20.2333 19.3735 20.269 19.3123 20.3149Z" fill="#232F3E"/>
<path d="M4.97169 17.8419C4.38522 17.9592 3.79875 18.4691 3.61516 19.025C3.48767 19.4024 3.53356 20.0245 3.71716 20.3764C3.89565 20.7334 4.20163 21.0292 4.55861 21.1975C4.7983 21.3097 4.91559 21.3301 5.30317 21.3301C5.69075 21.3301 5.80295 21.3097 6.04263 21.1975C6.39451 21.0292 6.7107 20.7232 6.88919 20.3764C7.06768 20.0245 7.11868 19.4024 6.99118 19.0301C6.7209 18.2192 5.79275 17.6736 4.97169 17.8419ZM5.78765 18.4844C6.33842 18.7088 6.624 19.3565 6.45061 19.9837C6.32822 20.4325 5.81314 20.7946 5.30317 20.7946C4.7932 20.7946 4.27813 20.4325 4.15573 19.9837C3.86505 18.9383 4.7983 18.0815 5.78765 18.4844Z" fill="#232F3E"/>
</svg>
