<svg width="25" height="24" viewBox="0 0 25 24" fill="none" xmlns="http://www.w3.org/2000/svg">
<g clip-path="url(#clip0_5695_37893)">
<path d="M22.6489 7.46625C22.769 7.38617 22.809 7.22605 22.769 7.10595V7.06594C22.4888 5.70477 21.7281 4.50377 20.6072 3.66307C20.4871 3.58298 20.367 3.54297 20.2069 3.62305C18.8057 4.10345 17.6848 4.10345 16.8041 3.58303C15.4029 2.74233 15.1627 0.740645 15.1627 0.740645C15.1627 0.580527 15.0426 0.460427 14.8825 0.420362C13.5214 -0.140121 12.0001 -0.140121 10.5989 0.420362C10.4788 0.46038 10.3587 0.58048 10.3587 0.740645C10.3587 0.740645 10.1185 2.70227 8.7173 3.58303C7.83658 4.14351 6.6756 4.14351 5.27441 3.62305C5.15431 3.54297 5.03421 3.58303 4.91411 3.66307C3.79319 4.50377 3.03258 5.70477 2.75231 7.06589V7.10591C2.75231 7.22601 2.79233 7.38612 2.87241 7.46621C4.07341 8.66721 4.754 10.4687 4.754 12.3903C4.754 14.3119 4.07341 16.1134 2.87241 17.3144C2.75231 17.3945 2.71229 17.5546 2.75231 17.6747V17.7147C3.03253 19.0759 3.79319 20.2769 4.91411 21.1176C5.03421 21.1976 5.15431 21.2377 5.27441 21.1976C5.51461 21.1176 10.5588 19.3961 12.4003 23.7598C12.4404 23.9199 12.6005 24 12.7606 24C12.9208 24 13.0809 23.9199 13.1209 23.7197C15.0025 19.3961 20.0467 21.0775 20.2469 21.1576C20.367 21.2377 20.4871 21.1976 20.6072 21.1176C21.7281 20.2769 22.4888 19.0759 22.769 17.7148V17.6748C22.769 17.5547 22.729 17.3945 22.6489 17.3145C20.1668 14.8324 20.1668 9.94829 22.6489 7.46625ZM20.2869 20.317C19.246 20.0368 14.8824 19.0359 12.7606 22.679C11.4796 20.5172 9.39784 19.9967 7.71644 19.9967C6.59552 19.9967 5.63471 20.2369 5.23435 20.357C4.43367 19.6765 3.83317 18.7557 3.59296 17.7148C4.83398 16.3937 5.55458 14.4721 5.55458 12.3904C5.55458 10.3087 4.83398 8.38708 3.59296 7.02592C3.83317 5.98503 4.43367 5.0643 5.23435 4.38371C6.79565 4.90413 8.11675 4.86412 9.15764 4.2236C10.5588 3.34278 10.9992 1.66138 11.1193 1.02086C12.2002 0.660563 13.3211 0.660563 14.402 1.02086C14.5221 1.66138 14.9625 3.34278 16.3636 4.22355C17.4045 4.86407 18.7256 4.90413 20.2869 4.38367C21.1276 5.06425 21.6881 5.98499 21.9283 7.02587C19.3261 9.82819 19.3261 14.8724 21.9283 17.6748C21.6881 18.7156 21.1276 19.6364 20.2869 20.317Z" fill="#232F3E"/>
<path d="M20.9271 7.06508C21.0072 6.94498 21.0072 6.78486 20.9672 6.66476C20.807 6.26445 20.5668 5.86408 20.2866 5.54384C20.1665 5.42374 20.0464 5.38373 19.8863 5.42374C19.3658 5.54384 18.8454 5.62393 18.365 5.62393C15.2424 5.62393 14.1215 3.06181 13.8012 1.9809C13.7612 1.82079 13.6411 1.7407 13.4809 1.70069C13.0005 1.6206 12.5201 1.6206 12.0397 1.70069C11.8796 1.7407 11.7595 1.82079 11.7194 1.9809C11.3591 3.06181 10.2382 5.62393 7.1556 5.62393C6.6752 5.62393 6.15478 5.54384 5.63431 5.42374C5.4742 5.38373 5.31403 5.42374 5.234 5.54384C4.95378 5.86413 4.71358 6.26445 4.55341 6.66476C4.47333 6.78486 4.51339 6.94498 4.59343 7.06508C6.87533 10.0676 6.87533 14.7515 4.59343 17.754C4.51335 17.8741 4.51335 18.0342 4.55341 18.1543C4.71353 18.5947 4.95373 18.955 5.27401 19.3153C5.39411 19.4354 5.51421 19.4754 5.67433 19.4354C6.35491 19.2753 7.03545 19.1952 7.71603 19.1952C9.63764 19.1952 11.279 19.8357 12.48 21.0367C12.5601 21.1168 12.6401 21.1568 12.7602 21.1568C12.8803 21.1568 12.9604 21.1168 13.0405 21.0367C14.2415 19.8357 15.8828 19.1952 17.8044 19.1952C18.485 19.1952 19.1656 19.2753 19.8462 19.4354C20.0063 19.4754 20.1664 19.4354 20.2465 19.3153C20.5668 18.955 20.807 18.5947 20.9671 18.1543C21.0472 18.0342 21.0071 17.8741 20.9271 17.754C18.6452 14.7515 18.6452 10.0676 20.9271 7.06508ZM20.1665 18.0343C20.0464 18.2344 19.9263 18.4346 19.8062 18.5947C19.1256 18.4746 18.4451 18.3946 17.8045 18.3946C15.8028 18.3946 14.0814 19.0351 12.7603 20.1961C11.4392 18.9951 9.71777 18.3946 7.71608 18.3946C7.07556 18.3946 6.39498 18.4746 5.75446 18.5947C5.59434 18.3946 5.47424 18.2344 5.39416 18.0343C7.71608 14.8316 7.71608 9.94753 5.39416 6.74485C5.47424 6.54466 5.59434 6.38455 5.71444 6.22443C6.23486 6.34453 6.71526 6.38455 7.19566 6.38455C10.6786 6.38455 12.0397 3.62224 12.4401 2.42124C12.6803 2.38122 12.8804 2.38122 13.1206 2.42124C13.561 3.58222 14.8821 6.38455 18.365 6.38455C18.8454 6.38455 19.3258 6.34453 19.8462 6.22443C19.9663 6.38455 20.0864 6.54471 20.1665 6.74485C17.8446 9.94749 17.8446 14.8316 20.1665 18.0343Z" fill="#232F3E"/>
<path d="M15.1623 9.58789H10.3583C10.1181 9.58789 9.95801 9.74801 9.95801 9.98821C9.95801 10.2284 10.1181 10.3885 10.3583 10.3885H15.1623C15.4025 10.3885 15.5626 10.2284 15.5626 9.98821C15.5626 9.74806 15.4025 9.58789 15.1623 9.58789Z" fill="#232F3E"/>
<path d="M15.1623 11.5898H10.3583C10.1181 11.5898 9.95801 11.75 9.95801 11.9902C9.95801 12.2304 10.1181 12.3905 10.3583 12.3905H15.1623C15.4025 12.3905 15.5626 12.2304 15.5626 11.9902C15.5626 11.75 15.4025 11.5898 15.1623 11.5898Z" fill="#232F3E"/>
<path d="M15.1623 13.5918H10.3583C10.1181 13.5918 9.95801 13.7519 9.95801 13.9921C9.95801 14.2323 10.1181 14.3924 10.3583 14.3924H15.1623C15.4025 14.3924 15.5626 14.2323 15.5626 13.9921C15.5626 13.7519 15.4025 13.5918 15.1623 13.5918Z" fill="#232F3E"/>
<path d="M12.7607 7.98618C13.0009 7.98618 13.161 7.82607 13.161 7.58587C13.161 7.34567 13.0009 7.18555 12.7607 7.18555C12.5205 7.18555 12.3604 7.34567 12.3604 7.58587C12.3604 7.82607 12.5205 7.98618 12.7607 7.98618Z" fill="#232F3E"/>
<path d="M12.7607 15.9941C12.5205 15.9941 12.3604 16.1543 12.3604 16.3945C12.3604 16.6347 12.5205 16.7948 12.7607 16.7948C13.0009 16.7948 13.161 16.6347 13.161 16.3945C13.161 16.1543 13.0009 15.9941 12.7607 15.9941Z" fill="#232F3E"/>
</g>
<defs>
<clipPath id="clip0_5695_37893">
<rect width="24" height="24" fill="white" transform="translate(0.760742)"/>
</clipPath>
</defs>
</svg>
