<svg width="25" height="24" viewBox="0 0 25 24" fill="none" xmlns="http://www.w3.org/2000/svg">
<g clip-path="url(#clip0_5695_37887)">
<path d="M5.88064 5.2793L0.982207 10.1777C0.94756 10.2041 0.916652 10.235 0.890332 10.2696L0.799394 10.3605V10.4787C0.790827 10.5305 0.790827 10.5834 0.799394 10.6352L0.799394 13.4393H2.23939V23.9993H5.11939V13.4393H6.07939V20.6393H8.95939V13.4393H16.6394V20.6393H19.5194V13.4393H20.4794V23.9993H23.3594V13.4393H24.7994V10.6399C24.808 10.5881 24.808 10.5352 24.7994 10.4834V10.3605L24.7066 10.2677C24.6812 10.2343 24.6516 10.2044 24.6185 10.1787C24.6175 10.178 24.6166 10.1774 24.6156 10.1768L19.7181 5.2793H19.5194H5.88064ZM6.27814 6.2393H19.3206L23.1606 10.0793H2.43814L6.27814 6.2393ZM1.75939 11.0393H23.8394V12.4793H22.96C22.9082 12.4707 22.8553 12.4707 22.8035 12.4793H21.0335C21.0065 12.4748 20.9792 12.4726 20.9519 12.4727C20.9286 12.4732 20.9055 12.4754 20.8825 12.4793H19.12C19.0682 12.4707 19.0153 12.4707 18.9635 12.4793H17.1935C17.1665 12.4748 17.1392 12.4726 17.1119 12.4727C17.0886 12.4732 17.0655 12.4754 17.0425 12.4793H8.56002C8.50818 12.4707 8.45529 12.4707 8.40346 12.4793H6.63346C6.60651 12.4748 6.57922 12.4726 6.55189 12.4727C6.52864 12.4732 6.50545 12.4754 6.48252 12.4793H4.72002C4.66818 12.4707 4.61529 12.4707 4.56346 12.4793H2.79346C2.76651 12.4748 2.73922 12.4726 2.71189 12.4727C2.68864 12.4732 2.66545 12.4754 2.64252 12.4793H1.75939V11.0393ZM3.19939 13.4393H4.15939V23.0393H3.19939V13.4393ZM7.03939 13.4393H7.99939V19.6793H7.03939V13.4393ZM17.5994 13.4393H18.5594V19.6793H17.5994V13.4393ZM21.4394 13.4393H22.3994V23.0393H21.4394V13.4393Z" fill="#232F3E"/>
</g>
<defs>
<clipPath id="clip0_5695_37887">
<rect width="24" height="24" fill="white" transform="translate(0.799805)"/>
</clipPath>
</defs>
</svg>
