<svg width="24" height="24" viewBox="0 0 24 24" fill="none" xmlns="http://www.w3.org/2000/svg">
<g clip-path="url(#clip0_5695_37810)">
<path d="M15.9634 8.77239L18.2374 9.58902C18.2891 9.60758 18.3418 9.61637 18.3938 9.61637C18.5834 9.61637 18.7613 9.49877 18.8291 9.31005L19.3788 7.77947C19.4202 7.66398 19.4141 7.53677 19.3618 7.42586C19.3095 7.31489 19.2152 7.22927 19.0998 7.18779L16.8258 6.37116C16.5852 6.28466 16.3204 6.40975 16.2341 6.65013L15.6845 8.18072C15.643 8.2962 15.6491 8.42341 15.7014 8.53432C15.7537 8.64529 15.8479 8.73091 15.9634 8.77239ZM16.9484 7.39816L18.3517 7.9021L18.1147 8.56197L16.7114 8.05803L16.9484 7.39816Z" fill="#232F3E"/>
<path d="M5.65783 20.9348C5.92567 20.9348 6.1428 20.7177 6.1428 20.4498C6.1428 20.182 5.92567 19.9648 5.65783 19.9648C5.38998 19.9648 5.17285 20.182 5.17285 20.4498C5.17285 20.7177 5.38998 20.9348 5.65783 20.9348Z" fill="#232F3E"/>
<path d="M15.8032 12.7629L15.932 12.6342C16.539 12.0271 17.248 11.5506 18.0394 11.2177L21.0711 9.94254C21.0711 9.94254 21.8944 9.5875 22.0784 9.48327C22.3248 9.34362 22.569 9.15135 22.8249 8.89535C24.3229 7.3974 24.3981 4.98209 22.9962 3.39661C22.8885 3.27481 22.7247 3.21837 22.5649 3.24828C22.405 3.27809 22.2726 3.38962 22.216 3.54207L21.1112 6.51822L20.2868 6.21303L21.4485 3.05133C21.5046 2.89869 21.4765 2.72785 21.3743 2.60131C21.2722 2.47477 21.1111 2.41109 20.9501 2.43376C19.3864 2.65312 18.1157 3.75886 17.6668 5.24318L15.7587 4.53684C15.6307 4.48945 15.4883 4.50107 15.3696 4.5685C15.2509 4.63598 15.1681 4.7524 15.1433 4.88659L14.7042 7.26269C14.4988 8.3746 14.0178 9.40021 13.304 10.2634L9.24307 6.2028L9.53181 5.91405C9.71247 5.7334 9.71247 5.44054 9.53181 5.25988L9.22667 4.95474C10.1568 3.81287 11.3468 3.75654 12.212 3.92805C12.4028 3.96593 12.597 3.88025 12.6977 3.71373C12.7983 3.54726 12.7842 3.33561 12.6621 3.18409C12.2537 2.67717 11.7455 2.28203 11.1521 2.00984C9.71761 1.35079 8.02538 1.56788 6.804 2.53208L6.55144 2.27952C6.37079 2.09886 6.07793 2.09886 5.89727 2.27952L3.08852 5.08832C2.90914 5.2677 2.90765 5.55803 3.08528 5.7392C3.24543 5.90259 3.16957 6.26221 2.92297 6.50881C2.67637 6.75541 2.31675 6.83127 2.15336 6.67112C1.97219 6.4935 1.6818 6.49499 1.50248 6.67436L0.135493 8.04129C-0.0451645 8.22195 -0.0451645 8.51481 0.135493 8.69547L3.11586 11.6758C3.20616 11.7661 3.32458 11.8113 3.44295 11.8113C3.56131 11.8113 3.67968 11.7661 3.77003 11.6758L5.13702 10.3088C5.31583 10.13 5.31793 9.84078 5.1417 9.6594C4.98273 9.49581 5.05905 9.13665 5.30498 8.89072C5.55086 8.64484 5.91002 8.56847 6.07361 8.72743C6.25494 8.90372 6.54425 8.90162 6.72305 8.72281L6.97844 8.46742L11.061 12.55L4.35353 19.2573C4.02264 19.5882 3.84039 20.0282 3.84039 20.4962C3.84039 20.9642 4.02264 21.4041 4.35353 21.735C4.69506 22.0766 5.1437 22.2473 5.59239 22.2473C6.04103 22.2473 6.48966 22.0765 6.83119 21.735L13.5386 15.0276L20.7441 22.2331C20.8344 22.3234 20.9528 22.3686 21.0711 22.3686C21.1895 22.3686 21.3079 22.3234 21.3982 22.2331L23.009 20.6224C23.0957 20.5356 23.1445 20.418 23.1445 20.2953C23.1445 20.1726 23.0957 20.055 23.009 19.9682L15.8032 12.7629ZM20.2693 3.57835L19.4192 5.89185L18.5375 5.56543C18.7913 4.66826 19.432 3.94388 20.2693 3.57835ZM10.7662 2.85058C10.8405 2.88466 10.913 2.9212 10.9839 2.96016C10.0441 3.07868 9.21994 3.53384 8.57029 4.29831L7.46398 3.19201C8.40793 2.49677 9.68132 2.35219 10.7662 2.85058ZM6.22441 3.26072L8.5506 5.58692L6.44552 7.69201L4.11932 5.36581L6.22441 3.26072ZM3.44295 10.6946L1.11675 8.36838L1.82957 7.65557L4.15576 9.98176L3.44295 10.6946ZM4.65076 8.23655C4.48367 8.40364 4.35708 8.5918 4.27007 8.78777L3.02602 7.54378C3.22184 7.45671 3.4099 7.33007 3.57704 7.16293C3.76392 6.97606 3.90099 6.76327 3.98764 6.54248L5.27142 7.82625C5.05047 7.9128 4.83758 8.04977 4.65076 8.23655ZM7.63251 7.81325L8.58889 6.85687L12.6717 10.9392L11.7151 11.8958L7.63251 7.81325ZM6.17702 21.0808C6.02083 21.237 5.81319 21.323 5.59234 21.323C5.37149 21.323 5.16385 21.237 5.0077 21.0808C4.68535 20.7584 4.68535 20.2339 5.0077 19.9115L13.5357 11.3835C14.6174 10.3019 15.336 8.93497 15.614 7.43076L15.9532 5.59524L21.2235 7.5463C21.4628 7.63496 21.7289 7.51279 21.8177 7.27343L22.7693 4.70984C23.327 5.86533 23.1196 7.29235 22.1708 8.24123C21.9746 8.4374 21.7951 8.58039 21.6222 8.6784C21.5147 8.73931 20.6534 9.1146 20.6534 9.1146L17.6806 10.365C16.7783 10.7445 15.9699 11.2878 15.2778 11.98L6.17702 21.0808ZM21.0711 21.2519L14.1927 14.3735L15.1491 13.4171L22.0277 20.2953L21.0711 21.2519Z" fill="#232F3E"/>
</g>
<defs>
<clipPath id="clip0_5695_37810">
<rect width="24" height="24" fill="white"/>
</clipPath>
</defs>
</svg>
