<svg width="35" height="35" viewBox="0 0 35 35" fill="none" xmlns="http://www.w3.org/2000/svg">
<g clip-path="url(#clip0_6032_50004)">
<path d="M9.95284 -0.018588C10.0161 -0.0188495 10.0794 -0.019111 10.1446 -0.0193805C10.355 -0.0200818 10.5655 -0.0198146 10.7759 -0.0195424C10.9275 -0.0198398 11.079 -0.0201942 11.2305 -0.0206011C11.6411 -0.0215149 12.0517 -0.0215562 12.4623 -0.0213829C12.8056 -0.0213097 13.1489 -0.021644 13.4922 -0.0219712C14.3488 -0.0227724 15.2054 -0.0227146 16.062 -0.0222749C16.8042 -0.0219219 17.5465 -0.0226904 18.2887 -0.0239906C19.0524 -0.0253182 19.8162 -0.0258593 20.58 -0.0256228C21.0081 -0.0254992 21.4362 -0.0256765 21.8644 -0.0266287C22.2672 -0.0274913 22.6701 -0.0273531 23.073 -0.0264639C23.2203 -0.0263028 23.3676 -0.0264869 23.515 -0.0270534C24.4847 -0.0305108 25.3807 -0.0105889 26.2574 0.456386C26.3032 0.480085 26.3489 0.503784 26.3961 0.5282C27.0087 0.853617 27.5673 1.25334 28.0262 1.77658C28.0608 1.81597 28.0955 1.85536 28.1311 1.89594C28.3006 2.10784 28.3646 2.23295 28.4064 2.50717C28.368 2.73361 28.368 2.73361 28.2655 2.90023C28.0306 3.04701 27.8142 3.06208 27.5477 3.00705C27.3921 2.8721 27.2863 2.76077 27.1632 2.60116C26.3928 1.6906 25.3883 1.21489 24.2018 1.10607C23.0875 1.03434 22.0321 1.47759 21.178 2.17098C20.4378 2.85499 19.9415 3.85965 19.8774 4.86845C19.8749 4.94972 19.8724 5.03098 19.8698 5.1147C19.8669 5.20304 19.8641 5.29138 19.8611 5.3824C19.8584 5.47501 19.8557 5.56763 19.853 5.66024C19.85 5.75419 19.847 5.84814 19.844 5.94209C19.8368 6.17142 19.8298 6.40075 19.8231 6.63009C19.8776 6.62955 19.9321 6.629 19.9882 6.62844C20.0607 6.62802 20.1332 6.62759 20.2079 6.62715C20.2793 6.62661 20.3507 6.62606 20.4243 6.6255C21.5632 6.64936 22.5278 7.10108 23.3521 7.86911C24.2781 8.83603 24.5525 9.96795 24.5481 11.2632C24.5482 11.3599 24.5482 11.3599 24.5483 11.4585C24.5484 11.6729 24.548 11.8874 24.5476 12.1018C24.5476 12.2561 24.5476 12.4104 24.5477 12.5648C24.5477 12.9826 24.5473 13.4005 24.5468 13.8184C24.5464 14.2555 24.5463 14.6926 24.5463 15.1297C24.5461 15.863 24.5456 16.5963 24.545 17.3296C24.5444 18.0847 24.5439 18.8397 24.5436 19.5948C24.5436 19.6647 24.5436 19.6647 24.5436 19.736C24.5435 19.9698 24.5434 20.2036 24.5433 20.4373C24.5426 22.3746 24.5413 24.3119 24.5399 26.2492C25.9836 26.2267 27.4274 26.2041 28.9149 26.1809C28.7344 25.8876 28.5539 25.5943 28.368 25.2922C28.1718 24.7433 28.1327 24.2551 28.1338 23.6757C28.1332 23.5918 28.1325 23.5079 28.1319 23.4214C28.1303 23.1906 28.1296 22.9598 28.1293 22.729C28.1288 22.4793 28.1271 22.2295 28.1256 21.9798C28.1228 21.4916 28.1211 21.0034 28.1198 20.5152C28.1187 20.1185 28.1173 19.7218 28.1156 19.3251C28.1153 19.2685 28.1151 19.212 28.1148 19.1537C28.1144 19.0389 28.1139 18.924 28.1134 18.8091C28.1088 17.7334 28.1056 16.6578 28.1027 15.5821C28.1001 14.5977 28.0959 13.6133 28.0909 12.6289C28.0859 11.6175 28.0818 10.6062 28.0789 9.59483C28.0772 9.02722 28.0751 8.45962 28.072 7.89203C28.0694 7.40928 28.0677 6.92654 28.0673 6.44378C28.0671 6.19744 28.0664 5.95112 28.0645 5.70478C28.0625 5.43804 28.0626 5.17133 28.0629 4.90458C28.062 4.82636 28.061 4.74814 28.0601 4.66755C28.0605 4.59627 28.061 4.52499 28.0614 4.45155C28.0612 4.38997 28.061 4.32839 28.0608 4.26495C28.1059 4.04546 28.1935 3.96379 28.368 3.82736C28.627 3.79035 28.7777 3.78645 29.0046 3.92135C29.2848 4.35723 29.2767 4.92804 29.2731 5.43235C29.2733 5.5245 29.2733 5.5245 29.2735 5.61852C29.2737 5.82235 29.2729 6.02616 29.2722 6.22998C29.2721 6.3769 29.2722 6.52382 29.2722 6.67074C29.2723 7.06814 29.2715 7.46553 29.2705 7.86292C29.2697 8.27876 29.2696 8.6946 29.2694 9.11045C29.269 9.89725 29.2679 10.6841 29.2665 11.4709C29.265 12.3669 29.2642 13.2629 29.2635 14.1589C29.2621 16.0015 29.2597 17.8441 29.2567 19.6867C29.32 19.6863 29.3833 19.6858 29.4485 19.6854C30.046 19.6812 30.6434 19.6781 31.2408 19.6761C31.548 19.675 31.8551 19.6736 32.1622 19.6713C32.4587 19.669 32.7552 19.6678 33.0518 19.6673C33.1648 19.6669 33.2778 19.6662 33.3908 19.6651C33.5493 19.6636 33.7078 19.6634 33.8664 19.6635C33.9566 19.663 34.0468 19.6625 34.1397 19.6621C34.4037 19.6888 34.5692 19.7527 34.7938 19.8918C34.8875 20.0793 34.8719 20.2301 34.8731 20.44C34.8738 20.5265 34.8745 20.613 34.8751 20.7022C34.8755 20.7973 34.8758 20.8923 34.876 20.9874C34.8764 21.0851 34.8768 21.1827 34.8772 21.2803C34.8779 21.4855 34.8783 21.6907 34.8786 21.8959C34.8789 22.157 34.8806 22.4181 34.8825 22.6792C34.8838 22.8812 34.8841 23.0833 34.8843 23.2853C34.8845 23.3814 34.885 23.4776 34.8859 23.5737C34.8953 24.6448 34.6762 25.5814 33.9251 26.379C33.0974 27.1376 32.1529 27.3548 31.0665 27.3507C30.9604 27.3508 30.9604 27.3508 30.8521 27.3508C30.6194 27.3507 30.3868 27.3502 30.1541 27.3497C29.9924 27.3495 29.8306 27.3494 29.6688 27.3494C29.2439 27.3491 28.819 27.3484 28.3941 27.3477C27.9601 27.347 27.5262 27.3467 27.0923 27.3463C26.2415 27.3456 25.3907 27.3444 24.5399 27.343C24.5402 27.3881 24.5405 27.4332 24.5408 27.4797C24.5438 27.9533 24.5459 28.4269 24.5474 28.9005C24.5481 29.0768 24.549 29.2531 24.5502 29.4294C24.5519 29.6841 24.5526 29.9388 24.5532 30.1935C24.5539 30.2712 24.5546 30.3488 24.5554 30.4288C24.5555 31.813 24.2088 32.9135 23.2453 33.9268C22.6082 34.5307 21.7132 35.0063 20.8153 35.0084C20.7539 35.0087 20.6924 35.009 20.6291 35.0093C20.5619 35.0093 20.4947 35.0093 20.4254 35.0093C20.3538 35.0095 20.2822 35.0098 20.2084 35.0101C19.9676 35.0108 19.7268 35.0111 19.486 35.0113C19.3136 35.0118 19.1413 35.0122 18.9689 35.0127C18.451 35.014 17.9331 35.0147 17.4153 35.0153C17.1711 35.0156 16.927 35.016 16.6829 35.0164C15.8709 35.0175 15.0589 35.0185 14.2469 35.019C14.0362 35.0191 13.8255 35.0193 13.6149 35.0194C13.5625 35.0194 13.5102 35.0195 13.4562 35.0195C12.609 35.0201 11.7618 35.0218 10.9145 35.024C10.0439 35.0263 9.1732 35.0275 8.30253 35.0277C7.81403 35.0279 7.32553 35.0285 6.83703 35.0302C6.3771 35.0319 5.9172 35.0321 5.45727 35.0314C5.28887 35.0314 5.12048 35.0318 4.95208 35.0328C3.49751 35.0404 2.35857 34.8568 1.25576 33.8126C0.590384 33.0764 0.128317 32.1475 0.126396 31.1406C0.126092 31.0663 0.125786 30.9919 0.125472 30.9153C0.125485 30.834 0.125498 30.7528 0.125511 30.669C0.125259 30.5823 0.125008 30.4957 0.124749 30.4064C0.124066 30.166 0.123811 29.9255 0.123629 29.6851C0.123362 29.4257 0.122707 29.1664 0.12211 28.907C0.12076 28.2805 0.120071 27.6541 0.119463 27.0277C0.119163 26.7324 0.118797 26.4371 0.118439 26.1418C0.117276 25.1597 0.116284 24.1776 0.115789 23.1954C0.115659 22.9407 0.115528 22.6859 0.115394 22.4311C0.115361 22.3678 0.115328 22.3044 0.115294 22.2392C0.114727 21.2144 0.112996 20.1895 0.110774 19.1647C0.10851 18.1116 0.107282 17.0585 0.107064 16.0053C0.106916 15.4144 0.106322 14.8235 0.104571 14.2326C0.103082 13.7292 0.102539 13.2257 0.103201 12.7223C0.103511 12.4657 0.103391 12.2092 0.102056 11.9527C0.0941096 10.3333 0.16856 9.04629 1.34014 7.80929C2.35792 6.84666 3.56428 6.60796 4.92073 6.63009C4.91965 6.57298 4.91858 6.51587 4.91747 6.45702C4.91393 6.24018 4.91138 6.02334 4.90946 5.80648C4.90795 5.66844 4.90534 5.53043 4.9027 5.39241C4.8916 3.89004 5.37993 2.61942 6.40754 1.52237C7.3669 0.549686 8.57642 -0.0247212 9.95284 -0.018588ZM7.04895 2.42092C5.12894 4.73829 6.01448 8.15569 6.01448 10.8684C10.2104 10.8684 14.4063 10.8684 18.7293 10.8684C18.741 8.82541 18.741 8.82541 18.7497 6.78243C18.7528 6.38382 18.7528 6.38382 18.7546 6.19616C18.7556 6.06741 18.756 5.93866 18.7561 5.8099C18.757 4.76978 18.8258 3.77604 19.3317 2.84042C19.3554 2.79517 19.379 2.74992 19.4033 2.7033C19.7259 2.10128 20.1527 1.63177 20.6434 1.16134C20.6885 1.11623 20.7336 1.07111 20.7801 1.02462C19.4163 1.02142 18.0525 1.01901 16.6887 1.01754C16.0554 1.01684 15.4221 1.01588 14.7887 1.01431C14.2363 1.01294 13.6839 1.01206 13.1315 1.01176C12.8393 1.01158 12.5472 1.01117 12.2551 1.01017C11.9793 1.00923 11.7036 1.00896 11.4278 1.00916C11.3273 1.00912 11.2269 1.00886 11.1265 1.00833C9.58369 1.00058 8.15833 1.2499 7.04895 2.42092ZM1.98982 8.7236C1.51613 9.28599 1.22133 9.95301 1.22034 10.6905C1.22007 10.7641 1.21981 10.8377 1.21954 10.9135C1.2196 10.994 1.21966 11.0744 1.21972 11.1573C1.21952 11.2431 1.21931 11.3289 1.21911 11.4173C1.21855 11.6552 1.21843 11.8932 1.21838 12.1312C1.21825 12.3879 1.21774 12.6446 1.21728 12.9013C1.21635 13.4626 1.21594 14.0239 1.21564 14.5852C1.21545 14.9358 1.21516 15.2863 1.21485 15.6369C1.21402 16.6079 1.21331 17.5788 1.21308 18.5497C1.21307 18.6119 1.21305 18.674 1.21304 18.738C1.21302 18.8003 1.21301 18.8625 1.21299 18.9267C1.21296 19.0529 1.21293 19.1791 1.2129 19.3053C1.21288 19.3679 1.21287 19.4305 1.21285 19.4949C1.21258 20.509 1.21139 21.523 1.2098 22.537C1.20818 23.5784 1.20733 24.6199 1.20725 25.6614C1.20718 26.2459 1.20679 26.8305 1.20555 27.4151C1.20449 27.9129 1.20415 28.4108 1.20471 28.9086C1.20498 29.1625 1.20492 29.4163 1.20395 29.6702C1.20292 29.9458 1.20349 30.2214 1.2042 30.497C1.20365 30.5767 1.2031 30.6564 1.20253 30.7385C1.20803 31.6473 1.49415 32.4171 2.11265 33.0908C2.93566 33.8504 3.84477 33.9849 4.9176 33.983C5.01627 33.9832 5.01627 33.9832 5.11693 33.9835C5.33589 33.9839 5.55485 33.9838 5.77382 33.9838C5.93141 33.984 6.089 33.9842 6.24659 33.9845C6.6737 33.9851 7.10082 33.9852 7.52793 33.9853C7.79506 33.9853 8.06218 33.9855 8.32931 33.9857C9.21392 33.9863 10.0985 33.9866 10.9831 33.9865C11.0308 33.9865 11.0784 33.9865 11.1274 33.9865C11.1751 33.9865 11.2227 33.9865 11.2719 33.9865C12.0439 33.9865 12.816 33.9871 13.588 33.9881C14.3824 33.9891 15.1767 33.9895 15.9711 33.9895C16.4164 33.9895 16.8617 33.9897 17.3071 33.9904C17.7261 33.9911 18.1451 33.9911 18.5641 33.9906C18.7174 33.9905 18.8707 33.9906 19.024 33.9911C20.9282 33.9996 20.9282 33.9996 22.5532 33.0809C23.3323 32.2262 23.4677 31.2194 23.4639 30.1031C23.4642 30.0201 23.4645 29.9372 23.4647 29.8517C23.4653 29.624 23.4653 29.3962 23.465 29.1684C23.4648 28.9218 23.4654 28.6752 23.466 28.4286C23.4668 27.9464 23.4669 27.4642 23.4668 26.982C23.4667 26.5899 23.4668 26.1977 23.4671 25.8055C23.4671 25.7215 23.4671 25.7215 23.4672 25.6359C23.4673 25.5222 23.4674 25.4085 23.4674 25.2948C23.4682 24.2301 23.468 23.1653 23.4676 22.1006C23.4673 21.1282 23.468 20.1557 23.4693 19.1832C23.4707 18.1828 23.4712 17.1825 23.471 16.1821C23.4708 15.6212 23.471 15.0603 23.472 14.4994C23.4728 14.0219 23.4729 13.5445 23.4721 13.067C23.4717 12.8237 23.4716 12.5805 23.4724 12.3373C23.4733 12.0727 23.4726 11.8082 23.4717 11.5436C23.4722 11.468 23.4727 11.3923 23.4732 11.3144C23.4663 10.3022 23.2488 9.39169 22.5574 8.6296C21.782 7.90125 20.8559 7.69736 19.8231 7.72384C19.8231 8.0171 19.8231 8.31037 19.8231 8.61251C19.9401 8.65199 20.0571 8.69147 20.1777 8.73214C20.6624 8.91152 20.9516 9.11906 21.1935 9.58129C21.3543 10.0584 21.3561 10.6525 21.1475 11.1162C20.9035 11.511 20.5367 11.7596 20.0965 11.8938C19.8819 11.9217 19.6702 11.9218 19.454 11.9203C19.359 11.9208 19.359 11.9208 19.2621 11.9214C19.0505 11.9224 18.839 11.9219 18.6275 11.9214C18.4755 11.9218 18.3236 11.9223 18.1716 11.9228C17.7593 11.924 17.3471 11.924 16.9348 11.9236C16.5905 11.9234 16.2461 11.9238 15.9018 11.9242C15.0429 11.9252 14.184 11.9249 13.3251 11.9241C12.58 11.9234 11.8349 11.9243 11.0899 11.926C10.3239 11.9276 9.55802 11.9283 8.7921 11.9278C8.36244 11.9276 7.9328 11.9278 7.50315 11.9289C7.09904 11.93 6.69496 11.9297 6.29086 11.9284C6.14274 11.9282 5.99462 11.9284 5.84651 11.9291C5.64391 11.93 5.44139 11.9292 5.2388 11.928C5.15141 11.929 5.15141 11.929 5.06226 11.93C4.58486 11.9242 4.1755 11.795 3.80375 11.4884C3.45305 11.0614 3.3131 10.7185 3.32737 10.1613C3.37721 9.73223 3.52412 9.35765 3.84407 9.06112C4.16987 8.81309 4.52606 8.71118 4.92073 8.61251C4.92073 8.31925 4.92073 8.02599 4.92073 7.72384C3.7817 7.68629 2.81122 7.87884 1.98982 8.7236ZM4.51057 9.91134C4.35138 10.1079 4.35138 10.1079 4.37813 10.3514C4.45356 10.6381 4.53468 10.7163 4.78401 10.8684C4.82913 10.8684 4.87424 10.8684 4.92073 10.8684C4.92073 10.4849 4.92073 10.1014 4.92073 9.70626C4.76849 9.70626 4.63212 9.8313 4.51057 9.91134ZM19.8231 9.77462C19.8231 10.1356 19.8231 10.4965 19.8231 10.8684C20.157 10.7096 20.157 10.7096 20.2332 10.5266C20.268 10.178 20.268 10.178 20.1051 9.88144C19.9715 9.76113 19.9715 9.76113 19.8231 9.77462ZM29.2567 20.7805C29.251 21.3642 29.2454 21.9479 29.2396 22.5493C29.2371 22.7322 29.2346 22.9151 29.232 23.1036C29.2312 23.2505 29.2305 23.3974 29.23 23.5442C29.2286 23.619 29.2272 23.6937 29.2257 23.7707C29.2254 24.4889 29.4316 25.1119 29.9403 25.634C30.4889 26.0702 31.0127 26.2675 31.7176 26.2492C32.3791 26.1337 32.9418 25.8777 33.3454 25.3288C33.7153 24.7375 33.7881 24.2599 33.7817 23.5709C33.7816 23.5001 33.7815 23.4293 33.7813 23.3564C33.7806 23.093 33.7787 22.8297 33.7769 22.5664C33.7741 21.977 33.7713 21.3877 33.7684 20.7805C32.2795 20.7805 30.7906 20.7805 29.2567 20.7805Z" fill="black"/>
<path d="M5.65727 13.3207C5.71655 13.3205 5.77583 13.3203 5.8369 13.3201C6.03509 13.3195 6.23328 13.3194 6.43147 13.3193C6.57377 13.319 6.71606 13.3186 6.85835 13.3183C7.24465 13.3174 7.63095 13.3169 8.01725 13.3166C8.25876 13.3164 8.50027 13.3162 8.74177 13.3158C9.49786 13.3149 10.2539 13.3142 11.01 13.314C11.882 13.3137 12.7539 13.3125 13.6258 13.3105C14.3003 13.309 14.9749 13.3083 15.6494 13.3082C16.0521 13.3082 16.4547 13.3078 16.8573 13.3065C17.2362 13.3054 17.6151 13.3053 17.994 13.3059C18.1327 13.3059 18.2713 13.3056 18.41 13.3049C19.4821 13.3 20.5144 13.3567 21.3298 14.1506C22.0456 15.0214 22.1265 15.8246 22.1174 16.9159C22.1159 17.1238 22.1174 17.3316 22.1191 17.5395C22.1206 18.5577 22.0008 19.3981 21.2694 20.1644C20.6486 20.7377 19.9679 20.9397 19.1346 20.9365C19.0439 20.937 19.0439 20.937 18.9515 20.9374C18.7503 20.9383 18.549 20.9382 18.3478 20.9381C18.203 20.9385 18.0582 20.9389 17.9134 20.9395C17.5209 20.9407 17.1284 20.941 16.7359 20.9411C16.4904 20.9412 16.2449 20.9415 15.9994 20.9418C15.142 20.9431 14.2846 20.9436 13.4273 20.9435C12.6295 20.9435 11.8317 20.9449 11.0339 20.9471C10.3478 20.9489 9.66177 20.9496 8.97572 20.9495C8.56646 20.9495 8.15721 20.9498 7.74795 20.9513C7.36275 20.9526 6.97758 20.9526 6.59238 20.9516C6.45155 20.9515 6.31071 20.9518 6.16987 20.9526C5.19269 20.958 4.23853 20.9533 3.48797 20.2346C2.83249 19.584 2.52445 18.9305 2.50843 18.0039C2.50828 17.9515 2.50813 17.8992 2.50797 17.8452C2.50729 17.7609 2.50729 17.7609 2.50659 17.6749C2.5059 17.5568 2.50558 17.4387 2.5056 17.3206C2.5053 17.1427 2.50282 16.9649 2.50023 16.787C2.49335 15.7711 2.64015 14.9165 3.34884 14.1402C4.0027 13.5053 4.77258 13.3198 5.65727 13.3207ZM3.96648 15.1077C3.68381 15.5456 3.61386 15.9401 3.6108 16.4564C3.61041 16.5077 3.61002 16.5589 3.60962 16.6118C3.60897 16.7202 3.60853 16.8286 3.60826 16.937C3.6076 17.1012 3.60548 17.2652 3.60332 17.4293C3.5926 18.3952 3.5926 18.3952 4.03911 19.2263C4.62675 19.8133 5.20247 19.8682 5.99846 19.87C6.13317 19.8692 6.26789 19.8684 6.4026 19.8676C6.54583 19.868 6.68906 19.8684 6.83229 19.8691C7.21984 19.8703 7.60737 19.8695 7.99493 19.8681C8.40117 19.867 8.80742 19.8676 9.21367 19.8679C9.89572 19.8683 10.5777 19.8672 11.2598 19.8653C12.0476 19.8631 12.8354 19.8631 13.6232 19.8643C14.3821 19.8653 15.141 19.8649 15.8999 19.8637C16.2224 19.8632 16.5449 19.8633 16.8674 19.8638C17.2473 19.8643 17.6272 19.8635 18.0072 19.8616C18.1463 19.8612 18.2855 19.8612 18.4247 19.8617C18.6152 19.8622 18.8056 19.8612 18.996 19.8596C19.0507 19.8602 19.1053 19.8608 19.1617 19.8613C19.6613 19.8541 20.044 19.6766 20.4582 19.4058C21.0436 18.7938 21.0401 18.1425 21.0288 17.3396C21.0264 17.1543 21.0274 16.9692 21.0287 16.7839C21.0282 16.6644 21.0276 16.5449 21.0267 16.4254C21.027 16.371 21.0274 16.3165 21.0277 16.2603C21.018 15.7917 20.8778 15.396 20.5976 15.0185C20.0713 14.5218 19.6147 14.4137 18.9021 14.4145C18.8144 14.4142 18.8144 14.4142 18.7249 14.4139C18.529 14.4133 18.3331 14.4132 18.1372 14.4131C17.9967 14.4127 17.8563 14.4124 17.7158 14.412C17.3341 14.4111 16.9525 14.4107 16.5709 14.4104C16.3324 14.4102 16.0939 14.4099 15.8554 14.4096C15.109 14.4087 14.3626 14.408 13.6163 14.4077C12.755 14.4074 11.8938 14.4062 11.0325 14.4042C10.3666 14.4028 9.70063 14.4021 9.03467 14.402C8.63703 14.4019 8.2394 14.4015 7.84177 14.4003C7.46763 14.3992 7.09351 14.399 6.71937 14.3996C6.58228 14.3997 6.44518 14.3994 6.30809 14.3987C6.12047 14.3978 5.93289 14.3982 5.74526 14.3989C5.69143 14.3984 5.6376 14.3978 5.58214 14.3973C4.92543 14.4031 4.40254 14.6104 3.96648 15.1077Z" fill="black"/>
<path d="M19.4557 22.2609C20.1016 22.725 20.4723 23.2902 20.6435 24.0639C20.651 24.2667 20.6549 24.4679 20.6556 24.6707C20.656 24.732 20.6565 24.7933 20.6569 24.8564C20.6583 25.0593 20.6591 25.2621 20.6598 25.465C20.66 25.5345 20.6603 25.6041 20.6606 25.6757C20.662 26.0442 20.663 26.4126 20.6636 26.7811C20.6644 27.1599 20.6668 27.5386 20.6695 27.9174C20.6713 28.2101 20.6718 28.5028 20.6721 28.7956C20.6724 28.9351 20.6732 29.0746 20.6745 29.2141C20.6829 30.2028 20.6865 31.1638 19.9599 31.9252C19.4317 32.4584 18.7982 32.7388 18.0458 32.7626C17.3685 32.7386 16.7529 32.5132 16.2455 32.0542C15.6271 31.3887 15.4266 30.6885 15.4294 29.7935C15.429 29.734 15.4287 29.6746 15.4283 29.6133C15.4274 29.4186 15.4274 29.224 15.4276 29.0293C15.4273 28.8927 15.427 28.7561 15.4267 28.6194C15.4262 28.3337 15.4262 28.048 15.4266 27.7622C15.427 27.3979 15.4258 27.0336 15.4242 26.6694C15.4232 26.3873 15.4232 26.1053 15.4234 25.8233C15.4233 25.689 15.423 25.5548 15.4223 25.4206C15.4175 24.3558 15.441 23.4339 16.2028 22.6153C17.0911 21.763 18.4016 21.6122 19.4557 22.2609ZM16.8351 23.5736C16.5802 24.0031 16.5115 24.3897 16.5143 24.8787C16.5138 24.937 16.5133 24.9954 16.5129 25.0554C16.5116 25.2467 16.5119 25.438 16.5123 25.6292C16.512 25.7632 16.5116 25.8972 16.5112 26.0312C16.5106 26.3115 16.5107 26.5918 16.5114 26.8721C16.5122 27.2299 16.5108 27.5876 16.5088 27.9454C16.5076 28.222 16.5076 28.4986 16.508 28.7751C16.508 28.907 16.5076 29.0388 16.5067 29.1707C16.4714 30.2364 16.4714 30.2364 16.9278 31.1651C17.2307 31.4591 17.5852 31.6383 18.0082 31.6606C18.4881 31.6364 18.8292 31.4707 19.1761 31.1423C19.5382 30.7412 19.5702 30.3264 19.5696 29.8135C19.57 29.7537 19.5705 29.694 19.571 29.6324C19.5723 29.4357 19.5725 29.2389 19.5727 29.0421C19.5731 28.9047 19.5736 28.7673 19.5741 28.6299C19.5749 28.3421 19.5751 28.0542 19.5751 27.7664C19.575 27.3986 19.5769 27.0309 19.5793 26.6631C19.5808 26.3794 19.5811 26.0956 19.581 25.8118C19.5811 25.6762 19.5817 25.5407 19.5828 25.4052C19.5842 25.2151 19.5838 25.0251 19.5829 24.835C19.5841 24.752 19.5841 24.752 19.5853 24.6674C19.5801 24.1975 19.4456 23.7908 19.1444 23.4254C18.7559 23.1064 18.4399 22.9321 17.919 22.9491C17.464 23.0145 17.1282 23.2274 16.8351 23.5736Z" fill="black"/>
<path d="M8.08166 22.3385C8.12087 22.3664 8.16008 22.3943 8.20048 22.4231C8.2597 22.4626 8.31892 22.5021 8.37993 22.5427C8.9407 23.074 9.16173 23.7105 9.18742 24.4696C9.16902 25.275 8.84794 25.9225 8.27205 26.4788C7.65684 26.9813 6.94701 27.1221 6.17347 27.0443C5.49519 26.9224 4.92231 26.6309 4.51549 26.0723C4.03679 25.3484 3.93985 24.7114 4.03056 23.8587C4.1933 23.1752 4.60383 22.6244 5.17985 22.2266C6.1109 21.7011 7.20175 21.7407 8.08166 22.3385ZM5.3593 23.5938C5.0794 24.0013 5.08921 24.4029 5.12431 24.8841C5.26677 25.2964 5.57495 25.6128 5.94462 25.8411C6.32361 25.9897 6.64782 26.013 7.03837 25.9094C7.47914 25.7116 7.77431 25.4193 8.01677 25.0037C8.13288 24.5392 8.11217 24.1233 7.87257 23.7049C7.64499 23.3738 7.35902 23.1341 6.98283 22.9914C6.32366 22.8972 5.77907 23.0482 5.3593 23.5938Z" fill="black"/>
<path d="M13.7195 27.9404C14.3117 28.3729 14.6915 28.835 14.8725 29.5626C14.992 30.3489 14.8724 31.0565 14.4058 31.7058C13.9264 32.2867 13.3869 32.6179 12.6428 32.7427C11.9017 32.8008 11.2728 32.6194 10.6604 32.1958C10.0709 31.6625 9.7735 31.0713 9.70339 30.2817C9.69387 29.5245 9.93926 28.8559 10.4553 28.2993C11.3296 27.4339 12.6782 27.2792 13.7195 27.9404ZM11.1774 29.1324C10.8842 29.5259 10.7613 29.8985 10.827 30.3885C10.9338 30.8535 11.1661 31.2089 11.5662 31.4737C11.9889 31.6809 12.4173 31.7023 12.8607 31.5506C13.2903 31.3551 13.5643 31.0454 13.7665 30.6235C13.855 30.1518 13.8377 29.7464 13.5999 29.3247C13.3254 28.9617 13.0199 28.7405 12.5745 28.6411C12.0603 28.5744 11.534 28.751 11.1774 29.1324Z" fill="black"/>
<path d="M13.812 22.3189C14.4013 22.773 14.787 23.3129 14.9018 24.0618C14.9618 24.8787 14.8132 25.5427 14.2865 26.181C13.7276 26.7838 13.1438 27.0375 12.3247 27.076C11.5571 27.0542 10.8687 26.7604 10.3345 26.2066C9.85353 25.6096 9.66769 24.903 9.71927 24.1475C9.81755 23.4258 10.1506 22.8571 10.7118 22.3974C11.6426 21.7267 12.8491 21.6633 13.812 22.3189ZM11.1463 23.4978C10.8899 23.9019 10.7646 24.2327 10.8301 24.7155C10.9369 25.1804 11.1692 25.5359 11.5692 25.8007C11.992 26.0079 12.4203 26.0293 12.8638 25.8776C13.2923 25.6826 13.5646 25.3737 13.7696 24.9548C13.8527 24.5024 13.8611 24.1241 13.6302 23.7147C13.3663 23.3521 13.0258 23.0521 12.5775 22.9681C12.0321 22.9044 11.5259 23.0885 11.1463 23.4978Z" fill="black"/>
<path d="M8.08194 28.0061C8.25373 28.136 8.39914 28.2782 8.5431 28.4382C8.58963 28.489 8.63616 28.5397 8.68409 28.592C9.1303 29.2253 9.21732 29.8638 9.15834 30.6257C8.98847 31.336 8.5982 31.9779 7.96926 32.3678C7.35795 32.6871 6.74006 32.8539 6.05653 32.6893C5.76893 32.5592 5.76893 32.5592 5.67201 32.403C5.62924 32.1144 5.6418 31.9735 5.79591 31.7237C6.07498 31.5432 6.252 31.5688 6.5759 31.5827C7.02364 31.5827 7.36834 31.3805 7.69021 31.0807C7.98003 30.7556 8.03502 30.3953 8.01973 29.9755C7.95676 29.5197 7.72317 29.2087 7.36657 28.9295C7.04426 28.7156 6.73544 28.6789 6.3556 28.7116C5.97185 28.812 5.62159 28.9619 5.3921 29.3006C5.17738 29.6883 5.16762 30.0017 5.19349 30.4377C5.22933 31.0523 5.22933 31.0523 5.07173 31.2807C4.85151 31.4215 4.6974 31.4096 4.44154 31.3777C4.23722 31.2783 4.18205 31.2059 4.0944 30.9963C3.91065 30.3143 3.95059 29.5245 4.26317 28.8905C4.69348 28.1908 5.25259 27.7976 6.04104 27.584C6.77686 27.4415 7.46233 27.5897 8.08194 28.0061Z" fill="black"/>
<path d="M8.34261 2.23924C8.42983 2.23875 8.51704 2.23827 8.6069 2.23777C8.70376 2.23793 8.80061 2.2381 8.89747 2.23828C8.99931 2.23799 9.10116 2.23763 9.203 2.23722C9.47983 2.23631 9.75666 2.23627 10.0335 2.23644C10.2645 2.23652 10.4956 2.23618 10.7266 2.23585C11.2717 2.2351 11.8168 2.23507 12.3618 2.23548C12.9242 2.23589 13.4866 2.23505 14.049 2.23359C14.5317 2.23239 15.0144 2.23198 15.4972 2.2322C15.7855 2.23233 16.0739 2.23215 16.3622 2.2312C16.6335 2.23034 16.9047 2.23047 17.1759 2.23136C17.2754 2.23152 17.3749 2.23134 17.4744 2.23077C17.6104 2.23006 17.7463 2.23073 17.8822 2.23148C17.9963 2.23146 17.9963 2.23146 18.1126 2.23144C18.3431 2.26042 18.4724 2.32495 18.6582 2.46214C18.7186 2.58978 18.7186 2.58978 18.7351 2.72703C18.7423 2.77197 18.7496 2.81691 18.757 2.86321C18.7076 3.09986 18.5663 3.19878 18.3848 3.35081C18.1791 3.39363 18.1791 3.39363 17.9458 3.39375C17.8572 3.39462 17.7685 3.39548 17.6772 3.39637C17.5794 3.3956 17.4817 3.39479 17.3839 3.39395C17.2806 3.3943 17.1773 3.3948 17.074 3.39543C16.7937 3.3967 16.5136 3.39581 16.2333 3.39447C15.9401 3.39335 15.6468 3.39395 15.3535 3.3943C14.8611 3.39461 14.3687 3.39352 13.8762 3.39161C13.3068 3.38942 12.7375 3.38942 12.1681 3.3906C11.6204 3.39169 11.0726 3.39123 10.5249 3.39006C10.2917 3.38959 10.0586 3.38966 9.82551 3.39017C9.55106 3.39069 9.27666 3.38986 9.00222 3.38799C8.90147 3.38752 8.80072 3.38751 8.69997 3.388C8.56254 3.3886 8.4251 3.38734 8.28766 3.38599C8.21073 3.3858 8.13379 3.38561 8.05452 3.38541C7.81272 3.34296 7.73372 3.26802 7.58398 3.07737C7.5199 2.91075 7.5199 2.91075 7.51562 2.73557C7.70504 2.32833 7.90726 2.24004 8.34261 2.23924Z" fill="black"/>
<path d="M7.84846 8.25111C7.93117 8.25043 8.01388 8.24975 8.0991 8.24905C8.1909 8.24899 8.2827 8.24894 8.3745 8.24891C8.47106 8.24839 8.56763 8.24781 8.6642 8.24719C8.92662 8.24568 9.18903 8.24508 9.45146 8.24474C9.61536 8.24449 9.77926 8.24406 9.94316 8.24357C10.5148 8.2419 11.0864 8.24101 11.6581 8.24077C12.1912 8.24052 12.7243 8.23847 13.2574 8.23561C13.7149 8.23324 14.1725 8.23218 14.63 8.23214C14.9033 8.23208 15.1767 8.23148 15.45 8.22954C15.7071 8.22775 15.9641 8.2276 16.2211 8.22869C16.3155 8.22882 16.4098 8.22836 16.5042 8.22727C16.6329 8.22588 16.7617 8.2268 16.8905 8.22783C16.9986 8.22763 16.9986 8.22763 17.1089 8.22742C17.3616 8.28484 17.4327 8.3973 17.5691 8.61165C17.5929 8.75745 17.5929 8.75745 17.5734 8.89363C17.5661 8.96157 17.5661 8.96157 17.5587 9.03089C17.4713 9.22349 17.3457 9.27032 17.159 9.3636C16.9673 9.3896 16.9673 9.3896 16.7542 9.39011C16.6326 9.39112 16.6326 9.39112 16.5085 9.39216C16.4202 9.39185 16.3318 9.39154 16.2408 9.39123C16.1463 9.39162 16.0519 9.39209 15.9574 9.39265C15.7013 9.39387 15.4453 9.39379 15.1892 9.3934C14.9753 9.39319 14.7615 9.39361 14.5476 9.39402C14.043 9.39498 13.5384 9.39487 13.0339 9.3941C12.5135 9.39331 11.9931 9.39427 11.4728 9.39611C11.0257 9.39762 10.5787 9.39807 10.1317 9.39767C9.86478 9.39744 9.59791 9.39761 9.33102 9.39878C9.08009 9.39984 8.82919 9.39957 8.57826 9.39828C8.44241 9.39791 8.30655 9.39889 8.1707 9.3999C8.08962 9.39923 8.00855 9.39856 7.92501 9.39787C7.85469 9.39785 7.78437 9.39784 7.71192 9.39782C7.46902 9.35445 7.35403 9.26029 7.17849 9.09017C7.09824 8.88151 7.10132 8.77996 7.1614 8.56465C7.32807 8.25631 7.52663 8.25253 7.84846 8.25111Z" fill="black"/>
<path d="M7.8402 5.18511C7.92215 5.18452 8.00409 5.18393 8.08852 5.18333C8.17981 5.18302 8.2711 5.18273 8.3624 5.18244C8.45817 5.1819 8.55394 5.18134 8.64972 5.18075C8.96469 5.17896 9.27967 5.17791 9.59465 5.17694C9.70303 5.17657 9.81141 5.1762 9.91979 5.17583C10.3706 5.17436 10.8213 5.17308 11.2721 5.17231C11.9184 5.1712 12.5647 5.16893 13.211 5.16503C13.6653 5.16239 14.1195 5.16105 14.5738 5.16069C14.8452 5.16044 15.1166 5.15962 15.388 5.1574C15.6434 5.15535 15.8987 5.15491 16.1541 5.15572C16.2924 5.15574 16.4307 5.15407 16.569 5.15234C17.2448 5.157 17.2448 5.157 17.4575 5.35594C17.5976 5.57771 17.616 5.68982 17.5721 5.94758C17.4505 6.16195 17.3997 6.21015 17.162 6.28938C17.0327 6.29617 16.9032 6.2989 16.7737 6.29944C16.6524 6.30017 16.6524 6.30017 16.5286 6.30092C16.4397 6.30111 16.3509 6.30129 16.2593 6.30148C16.1649 6.30191 16.0704 6.30236 15.976 6.30284C15.6658 6.30428 15.3557 6.30499 15.0455 6.30567C14.9387 6.30595 14.8319 6.30623 14.7251 6.30651C14.2235 6.30781 13.7219 6.30879 13.2203 6.30936C12.6412 6.31003 12.0621 6.31183 11.4831 6.31459C11.0355 6.31665 10.5879 6.31766 10.1402 6.31789C9.8729 6.31805 9.60557 6.31866 9.33822 6.32038C9.08673 6.32197 8.83528 6.32226 8.58378 6.32156C8.4476 6.32151 8.31142 6.32281 8.17524 6.32416C8.09396 6.32369 8.01269 6.32321 7.92895 6.32272C7.85845 6.32288 7.78796 6.32305 7.71532 6.32322C7.47204 6.28034 7.35746 6.18598 7.18151 6.01594C7.0815 5.77842 7.10544 5.69323 7.20287 5.45198C7.38165 5.16064 7.51533 5.18684 7.8402 5.18511Z" fill="black"/>
<path d="M18.6215 14.6089C18.7018 14.6072 18.7018 14.6072 18.7836 14.6055C18.9334 14.6303 18.9334 14.6303 19.0555 14.7171C19.1385 14.8354 19.1385 14.8354 19.1385 15.1088C19.2005 15.1243 19.2626 15.1398 19.3265 15.1558C19.5886 15.2617 19.6851 15.3407 19.8221 15.5873C19.818 15.8264 19.8014 15.9905 19.6726 16.194C19.4944 16.3046 19.3468 16.3265 19.1385 16.3393C18.9975 16.2752 18.9975 16.2752 18.8651 16.2026C18.6827 16.1911 18.6827 16.1911 18.5233 16.2026C18.5007 16.2477 18.4781 16.2928 18.4549 16.3393C18.4914 16.3493 18.5279 16.3594 18.5655 16.3697C19.0733 16.5226 19.654 16.7252 19.9332 17.2066C20.0886 17.5938 20.0947 18.0081 19.9844 18.4085C19.8397 18.7464 19.6263 18.9132 19.327 19.1164C19.1698 19.2394 19.1307 19.3653 19.0701 19.5522C18.9548 19.6804 18.9548 19.6804 18.7967 19.7573C18.5567 19.7488 18.3867 19.7353 18.1857 19.5992C18.1131 19.4838 18.1131 19.4838 18.1131 19.2104C18.0539 19.2062 17.9947 19.2019 17.9337 19.1976C17.6402 19.1269 17.5005 19.0176 17.2928 18.8002C17.2026 18.5455 17.1997 18.4431 17.3142 18.1978C17.4295 18.0483 17.4295 18.0483 17.5662 17.9799C17.9982 17.9559 17.9982 17.9559 18.1772 18.0483C18.4021 18.1573 18.6174 18.1249 18.8651 18.1166C18.8651 18.0038 18.8651 17.891 18.8651 17.7748C18.7526 17.7228 18.7526 17.7228 18.6378 17.6696C18.5384 17.6221 18.439 17.5746 18.3396 17.527C18.2902 17.5044 18.2409 17.4817 18.1901 17.4584C17.8091 17.274 17.555 17.0688 17.3612 16.6811C17.3251 16.2568 17.309 15.8757 17.5662 15.519C17.6866 15.4108 17.8106 15.309 17.9369 15.2079C18.0776 15.0787 18.1263 14.9477 18.1815 14.767C18.3465 14.6019 18.3952 14.6101 18.6215 14.6089Z" fill="black"/>
</g>
<defs>
<clipPath id="clip0_6032_50004">
<rect width="35" height="35" fill="white"/>
</clipPath>
</defs>
</svg>
