<svg width="25" height="25" viewBox="0 0 25 25" fill="none" xmlns="http://www.w3.org/2000/svg">
<path fill-rule="evenodd" clip-rule="evenodd" d="M18.2385 3.63569C18.0978 3.49503 17.9071 3.41602 17.7082 3.41602C17.5093 3.41602 17.3185 3.49503 17.1778 3.63569L15.0945 5.71902C15.0943 5.71926 15.094 5.7195 15.0938 5.71974L3.63617 17.1774C3.49552 17.318 3.4165 17.5088 3.4165 17.7077V20.8327C3.4165 21.2469 3.75229 21.5827 4.1665 21.5827H7.2915C7.49042 21.5827 7.68118 21.5037 7.82183 21.363L19.2802 9.90468C19.2803 9.90451 19.2805 9.90434 19.2807 9.90417L21.3635 7.82135C21.6564 7.52845 21.6564 7.05358 21.3635 6.76069L18.2385 3.63569ZM18.7498 8.31369L19.7725 7.29102L17.7082 5.22668L16.6855 6.24935L18.7498 8.31369ZM17.6892 9.37435L15.6248 7.31001L4.9165 18.0183V20.0827H6.98084L17.6892 9.37435Z" fill="white"/>
</svg>
