<svg width="26" height="25" viewBox="0 0 26 25" fill="none" xmlns="http://www.w3.org/2000/svg">
<g clip-path="url(#clip0_5728_39697)">
<mask id="mask0_5728_39697" style="mask-type:luminance" maskUnits="userSpaceOnUse" x="0" y="0" width="26" height="25">
<path d="M25.5 0H0.5V25H25.5V0Z" fill="white"/>
</mask>
<g mask="url(#mask0_5728_39697)">
<path fill-rule="evenodd" clip-rule="evenodd" d="M5.96842 0.208984C6.16967 0.208984 6.35616 0.314572 6.4597 0.487138L8.7986 4.3853C8.80211 4.39094 8.80553 4.39664 8.80886 4.4024L11.1472 8.29964C11.2006 8.38868 11.2288 8.49056 11.2288 8.5944V23.6432L13.208 23.6318V1.56315C13.208 0.814707 13.8137 0.208984 14.5622 0.208984H23.9372C24.6856 0.208984 25.2913 0.814707 25.2913 1.56315V24.2194C25.2913 24.5358 25.0348 24.7923 24.7184 24.7923H22.3747C22.0583 24.7923 21.8018 24.5358 21.8018 24.2194C21.8018 23.903 22.0583 23.6465 22.3747 23.6465H24.1455V21.6673H22.3747C22.0583 21.6673 21.8018 21.4108 21.8018 21.0944C21.8018 20.778 22.0583 20.5215 22.3747 20.5215H24.1455V18.5423H20.0309C19.7145 18.5423 19.458 18.2858 19.458 17.9694C19.458 17.653 19.7145 17.3965 20.0309 17.3965H24.1455V15.4173H22.3747C22.0583 15.4173 21.8018 15.1608 21.8018 14.8444C21.8018 14.528 22.0583 14.2715 22.3747 14.2715H24.1455V12.2923H22.3747C22.0583 12.2923 21.8018 12.0358 21.8018 11.7194C21.8018 11.403 22.0583 11.1465 22.3747 11.1465H24.1455V9.16732H22.3747C22.0583 9.16732 21.8018 8.91081 21.8018 8.5944C21.8018 8.27799 22.0583 8.02148 22.3747 8.02148H24.1455V6.04232H20.0309C19.7145 6.04232 19.458 5.78581 19.458 5.4694C19.458 5.15299 19.7145 4.89648 20.0309 4.89648H24.1455V1.56315C24.1455 1.44753 24.0528 1.35482 23.9372 1.35482H14.5622C14.4466 1.35482 14.3538 1.44753 14.3538 1.56315V24.2014C14.3538 24.5166 14.0993 24.7725 13.7842 24.7743L10.6592 24.7923C10.5067 24.7932 10.3601 24.7332 10.252 24.6257C10.1438 24.5181 10.083 24.3719 10.083 24.2194V9.38928L6.54134 10.5698V24.2194C6.54134 24.5358 6.28484 24.7923 5.96842 24.7923C5.65201 24.7923 5.39551 24.5358 5.39551 24.2194V10.5698L1.85384 9.38928V22.6569C1.85384 22.9733 1.59734 23.2298 1.28092 23.2298C0.964511 23.2298 0.708008 22.9733 0.708008 22.6569V8.5944C0.708008 8.49056 0.736228 8.38868 0.789652 8.29964L3.128 4.4024C3.13132 4.39664 3.13474 4.39094 3.13825 4.38531L5.47715 0.487138C5.58069 0.314572 5.76718 0.208984 5.96842 0.208984ZM3.94905 5.26107L2.13965 8.27674L5.96842 9.55299L9.7972 8.27674L7.9878 5.26107H3.94905ZM7.30029 4.11523H4.63655L5.96842 1.89545L7.30029 4.11523Z" fill="white"/>
</g>
</g>
<defs>
<clipPath id="clip0_5728_39697">
<rect width="25" height="25" fill="white" transform="translate(0.5)"/>
</clipPath>
</defs>
</svg>
