<svg width="35" height="35" viewBox="0 0 35 35" fill="none" xmlns="http://www.w3.org/2000/svg">
<g clip-path="url(#clip0_6026_49258)">
<path d="M17.1583 3.89777C17.2045 3.94095 17.2507 3.98413 17.2983 4.02862C17.4319 4.12241 17.4319 4.12241 17.5989 4.06467C17.7908 3.95642 17.9417 3.83426 18.1068 3.68842C20.1647 1.97353 22.9234 1.29856 25.5576 1.52182C28.3454 1.82632 30.8953 3.17099 32.686 5.33691C34.0664 7.06169 34.9927 9.27397 35.0164 11.5028C35.0171 11.5552 35.0178 11.6076 35.0185 11.6617C35.0306 12.8575 35.0103 14.0083 34.7267 15.1771C34.7098 15.247 34.693 15.317 34.6756 15.3891C34.4307 16.3767 34.1115 17.3225 33.7013 18.2532C33.6782 18.3062 33.6552 18.3592 33.6314 18.4137C33.0958 19.6319 32.4143 20.7874 31.6505 21.8763C31.6251 21.9128 31.5997 21.9494 31.5735 21.987C30.8178 23.0728 29.9852 24.0955 29.1086 25.0857C29.027 25.1779 28.9457 25.2704 28.8648 25.3632C28.4123 25.8754 27.9314 26.3578 27.4475 26.8402C27.3052 26.9821 27.1633 27.1244 27.0214 27.2667C26.9295 27.3586 26.8375 27.4505 26.7455 27.5424C26.7039 27.5841 26.6623 27.6259 26.6194 27.6689C26.325 27.9617 26.0181 28.2366 25.7033 28.5071C25.6268 28.5737 25.5505 28.6403 25.4741 28.7069C24.9257 29.182 24.3666 29.6399 23.7892 30.0794C23.7166 30.1347 23.7166 30.1347 23.6426 30.191C19.0277 33.6874 19.0277 33.6874 17.2267 33.4974C17.0205 33.4482 16.8261 33.3775 16.6285 33.3009C16.5726 33.2796 16.5167 33.2583 16.4591 33.2364C13.6888 32.1531 11.2241 30.2228 9.04119 28.2364C8.9019 28.1106 8.76038 27.9882 8.61768 27.8663C8.25628 27.5519 7.92425 27.2073 7.58802 26.8665C7.38954 26.6674 7.19017 26.4692 6.99041 26.2713C6.89623 26.1778 6.80206 26.0842 6.70789 25.9907C6.63797 25.9216 6.63797 25.9216 6.56664 25.8511C6.25439 25.5404 5.96018 25.2189 5.67396 24.8841C5.61397 24.8151 5.55398 24.7461 5.49398 24.6772C5.0238 24.1281 4.57904 23.5626 4.14602 22.9838C4.07226 22.8853 3.99822 22.787 3.92385 22.689C3.25085 21.7998 2.67338 20.8609 2.11927 19.8939C2.08603 19.836 2.05278 19.7781 2.01853 19.7184C1.21193 18.2962 0.649842 16.7659 0.273568 15.1771C0.258224 15.1135 0.24288 15.05 0.227072 14.9845C0.0144131 14.0643 -0.0259287 13.1523 -0.0297768 12.212C-0.0302112 12.1579 -0.0306456 12.1037 -0.0310932 12.048C-0.0361176 11.0424 0.0792923 10.0531 0.359017 9.08454C0.373111 9.03492 0.387204 8.9853 0.401725 8.93417C0.50956 8.57052 0.64117 8.21971 0.790536 7.87116C0.809724 7.82603 0.828912 7.78091 0.848681 7.73441C0.985403 7.43088 1.13242 7.19394 1.43568 7.04231C1.83653 6.99605 1.83653 6.99605 2.03436 7.11387C2.18327 7.23617 2.30586 7.34713 2.39271 7.52082C2.42477 7.90655 2.33547 8.17775 2.17481 8.52058C1.35839 10.3716 1.23174 12.7338 1.70911 14.6986C1.72418 14.7621 1.73925 14.8257 1.75478 14.8911C2.51927 18.0331 4.22964 20.7879 6.28919 23.2435C6.324 23.2851 6.35881 23.3266 6.39467 23.3695C7.15667 24.2767 7.96524 25.1308 8.8014 25.9693C8.83856 26.0067 8.87572 26.044 8.91401 26.0825C9.32559 26.4956 9.74102 26.8989 10.1857 27.2767C10.2648 27.3465 10.3437 27.4164 10.4225 27.4866C11.0502 28.0405 11.7024 28.5535 12.3732 29.054C12.4601 29.1195 12.5469 29.185 12.6338 29.2506C13.8962 30.1963 15.2514 31.0696 16.6969 31.7072C16.7481 31.7307 16.7994 31.7542 16.8522 31.7784C17.3235 31.9761 17.7161 31.9405 18.1891 31.7593C18.2846 31.7175 18.3797 31.6744 18.4743 31.6303C18.5529 31.5943 18.5529 31.5943 18.6331 31.5576C20.585 30.6415 22.3494 29.3432 23.9943 27.9603C24.0477 27.9156 24.0477 27.9156 24.1022 27.87C25.0557 27.0702 25.9503 26.2153 26.8312 25.337C26.8667 25.3017 26.9021 25.2664 26.9387 25.2301C27.3394 24.8309 27.7298 24.4271 28.0958 23.9954C28.1631 23.9182 28.2305 23.841 28.298 23.7639C28.7522 23.2404 29.186 22.7059 29.5997 22.1497C29.6333 22.105 29.6668 22.0603 29.7014 22.0142C31.4274 19.7065 32.7606 17.1897 33.3595 14.3568C33.3869 14.2287 33.3869 14.2287 33.4148 14.098C33.8408 11.5857 33.3353 8.87861 31.8641 6.78596C31.7715 6.66531 31.6774 6.54572 31.5822 6.42707C31.5549 6.39222 31.5276 6.35737 31.4995 6.32146C30.0477 4.47448 27.9025 3.3694 25.5906 3.03519C23.2021 2.76324 20.876 3.41827 18.9834 4.89609C18.7352 5.1001 18.5005 5.31928 18.2699 5.54289C18.0244 5.77984 17.8491 5.92979 17.5087 5.97419C17.102 5.92539 16.8248 5.62921 16.5388 5.35468C14.6786 3.64273 12.3355 2.93818 9.84298 3.00039C8.67532 3.05021 7.51818 3.41085 6.47718 3.93195C6.16606 4.08247 5.93579 4.1582 5.59278 4.08443C5.37268 3.99572 5.29758 3.90585 5.19544 3.6927C5.14329 3.38963 5.13808 3.17077 5.30199 2.90416C5.50624 2.69795 5.72469 2.5838 5.98585 2.4665C6.06197 2.43165 6.06197 2.43165 6.13962 2.39609C9.82266 0.758967 14.0493 1.3796 17.1583 3.89777Z" fill="black"/>
<path d="M19.0048 7.58716C19.3646 7.81252 19.5008 8.11551 19.679 8.48544C19.7089 8.54575 19.7388 8.60605 19.7695 8.66818C19.8643 8.86004 19.9579 9.05244 20.0515 9.24487C20.1158 9.3754 20.1801 9.50588 20.2445 9.63633C20.4018 9.95546 20.5581 10.275 20.7138 10.595C20.7144 10.5205 20.7151 10.446 20.7157 10.3693C20.7184 10.0918 20.7229 9.81434 20.728 9.53687C20.7299 9.417 20.7313 9.29712 20.7323 9.17724C20.7338 9.00446 20.737 8.83177 20.7405 8.65901C20.7406 8.6058 20.7406 8.55259 20.7407 8.49777C20.7502 8.14312 20.8221 7.93749 21.0556 7.65551C21.2921 7.53725 21.5489 7.5541 21.8075 7.58716C22.0467 7.73166 22.1292 7.80026 22.2177 8.06567C22.2253 8.25832 22.2291 8.44933 22.2298 8.64202C22.2305 8.73025 22.2305 8.73025 22.2311 8.82027C22.2325 9.01503 22.2333 9.20979 22.234 9.40455C22.2342 9.47106 22.2345 9.53757 22.2348 9.60609C22.2362 9.95797 22.2372 10.3098 22.2379 10.6617C22.2386 11.0253 22.241 11.3889 22.2437 11.7524C22.2455 12.0319 22.246 12.3114 22.2463 12.5909C22.2466 12.725 22.2474 12.859 22.2487 12.9931C22.2503 13.1806 22.2503 13.3681 22.2498 13.5556C22.2507 13.611 22.2516 13.6663 22.2525 13.7233C22.2501 13.9825 22.2284 14.1328 22.0875 14.3534C21.8932 14.5406 21.7764 14.5739 21.5127 14.5854C21.4349 14.5905 21.4349 14.5905 21.3554 14.5956C21.1191 14.5438 20.9969 14.4011 20.8505 14.218C20.7264 14.0138 20.6222 13.8014 20.518 13.5865C20.4732 13.4962 20.4732 13.4962 20.4276 13.404C20.3329 13.2128 20.2392 13.0212 20.1455 12.8295C20.0813 12.6993 20.017 12.5691 19.9526 12.4389C19.7954 12.1209 19.6392 11.8024 19.4833 11.4836C19.4827 11.5626 19.482 11.6416 19.4814 11.7229C19.4786 12.0166 19.4741 12.3103 19.4691 12.6039C19.4672 12.7309 19.4657 12.8578 19.4648 12.9848C19.4633 13.1676 19.4601 13.3503 19.4566 13.5331C19.4565 13.6179 19.4565 13.6179 19.4563 13.7045C19.4476 14.0516 19.4038 14.2402 19.1415 14.4915C18.9207 14.6019 18.6967 14.6001 18.4579 14.5598C18.2168 14.4261 18.0681 14.279 17.9794 14.0129C17.9721 13.8269 17.9687 13.6426 17.9684 13.4565C17.968 13.3998 17.9677 13.3431 17.9674 13.2846C17.9664 13.0969 17.9659 12.9091 17.9655 12.7213C17.9651 12.5908 17.9647 12.4603 17.9643 12.3297C17.9636 12.0559 17.9632 11.7821 17.963 11.5083C17.9626 11.1577 17.961 10.8072 17.959 10.4566C17.9577 10.1869 17.9574 9.91722 17.9573 9.64751C17.9571 9.5183 17.9565 9.38909 17.9556 9.25988C17.9545 9.07891 17.9546 8.89798 17.955 8.717C17.9544 8.66383 17.9538 8.61065 17.9531 8.55587C17.9556 8.22754 18.0113 8.00319 18.1845 7.72387C18.4098 7.54029 18.7271 7.52615 19.0048 7.58716Z" fill="black"/>
<path d="M8.61297 15.926C8.7796 16.0585 8.7796 16.0585 8.95477 16.2678C9.05568 16.3791 9.15682 16.4902 9.25811 16.6011C9.50264 16.8742 9.74309 17.1503 9.98016 17.43C10.3603 17.0157 10.722 16.5945 11.0643 16.1482C11.2231 15.9813 11.3321 15.9191 11.5524 15.8577C11.8372 15.8628 11.9854 15.8918 12.2141 16.064C12.4192 16.3276 12.4205 16.5391 12.4159 16.8597C12.4164 16.9186 12.4169 16.9774 12.4174 17.038C12.4185 17.2321 12.4172 17.426 12.4157 17.6201C12.4158 17.7552 12.416 17.8903 12.4162 18.0254C12.4164 18.3083 12.4154 18.5913 12.4135 18.8742C12.4112 19.2367 12.4116 19.5992 12.4129 19.9617C12.4136 20.2406 12.413 20.5195 12.412 20.7984C12.4116 20.9321 12.4117 21.0658 12.4121 21.1994C12.4125 21.3863 12.4111 21.5731 12.4092 21.76C12.4096 21.8151 12.4101 21.8702 12.4106 21.927C12.4062 22.1852 12.383 22.3359 12.2423 22.5554C12.0212 22.7691 11.8624 22.786 11.5548 22.7809C11.3288 22.7501 11.2234 22.6557 11.0739 22.4885C10.9001 22.105 10.9135 21.7187 10.9089 21.3056C10.9076 21.2318 10.9062 21.1581 10.9049 21.0821C10.9008 20.8474 10.8976 20.6127 10.8945 20.378C10.8919 20.2184 10.8892 20.0589 10.8865 19.8994C10.8799 19.5092 10.8741 19.119 10.8688 18.7288C10.8359 18.7675 10.8029 18.8062 10.769 18.846C10.7258 18.8961 10.6826 18.9463 10.6381 18.9979C10.5953 19.0479 10.5525 19.0979 10.5083 19.1494C10.3369 19.3328 10.2616 19.3429 10.0058 19.3782C9.67309 19.3764 9.5064 19.2114 9.2736 18.9902C9.15985 18.8655 9.15985 18.8655 9.02313 18.6604C9.02288 18.7059 9.02263 18.7514 9.02237 18.7983C9.01951 19.2718 9.01477 19.7453 9.00894 20.2188C9.00701 20.3955 9.00556 20.5722 9.0046 20.7489C9.00314 21.003 8.99995 21.2569 8.99643 21.511C8.99634 21.5899 8.99626 21.6689 8.99617 21.7503C8.98616 22.2992 8.98616 22.2992 8.82399 22.571C8.59842 22.7649 8.43552 22.7858 8.13686 22.7809C7.91084 22.7501 7.80548 22.6557 7.65594 22.4885C7.52123 22.1688 7.49928 21.8734 7.50045 21.5311C7.5001 21.4778 7.49975 21.4245 7.49939 21.3696C7.49844 21.1944 7.4985 21.0192 7.49866 20.8439C7.49839 20.7215 7.4981 20.5991 7.49777 20.4767C7.49726 20.2205 7.49728 19.9642 7.49764 19.708C7.49804 19.3804 7.49688 19.0528 7.4953 18.7252C7.49429 18.4725 7.49423 18.2198 7.49444 17.9671C7.49441 17.8463 7.49405 17.7255 7.49336 17.6048C7.49251 17.4356 7.49298 17.2665 7.49377 17.0974C7.49325 17.048 7.49273 16.9986 7.49219 16.9477C7.49577 16.5994 7.5668 16.367 7.7243 16.0628C7.99417 15.816 8.27517 15.8158 8.61297 15.926Z" fill="black"/>
<path d="M24.5631 7.56843C24.6641 7.56765 24.765 7.56626 24.866 7.56423C25.6796 7.54786 26.2673 7.63486 26.8793 8.21026C27.5804 8.95735 27.5023 9.91835 27.4979 10.8815C27.4972 11.0745 27.4979 11.2675 27.4988 11.4605C27.5004 13.2753 27.5004 13.2753 26.804 14.0149C26.2247 14.56 25.6414 14.5963 24.8824 14.5918C24.7325 14.5912 24.5828 14.5932 24.4329 14.5953C24.3368 14.5954 24.2407 14.5954 24.1446 14.5952C24.0151 14.5954 24.0151 14.5954 23.8829 14.5956C23.6135 14.5556 23.5016 14.4776 23.3102 14.2878C23.199 14.0655 23.2305 13.8206 23.2297 13.5762C23.2293 13.5168 23.2288 13.4573 23.2284 13.396C23.227 13.1987 23.2262 13.0013 23.2255 12.804C23.2252 12.7366 23.225 12.6693 23.2247 12.5999C23.2233 12.2436 23.2223 11.8873 23.2216 11.531C23.2209 11.1627 23.2185 10.7945 23.2158 10.4263C23.214 10.1433 23.2135 9.86035 23.2132 9.57738C23.2129 9.44163 23.2121 9.30587 23.2108 9.17012C23.2091 8.98011 23.2092 8.79018 23.2097 8.60017C23.2088 8.54408 23.2079 8.488 23.207 8.43021C23.2095 8.15875 23.2223 8.02935 23.372 7.79455C23.697 7.48243 24.138 7.57073 24.5631 7.56843ZM24.6774 9.02416C24.6774 10.3777 24.6774 11.7312 24.6774 13.1257C25.5233 13.2182 25.5233 13.2182 25.9078 12.8523C26.0697 12.5167 26.0655 12.1857 26.0651 11.8208C26.0654 11.7618 26.0657 11.7028 26.066 11.642C26.0664 11.5178 26.0664 11.3935 26.0661 11.2692C26.0659 11.08 26.0675 10.8909 26.0692 10.7018C26.0694 10.5806 26.0694 10.4594 26.0694 10.3382C26.07 10.2822 26.0706 10.2261 26.0713 10.1683C26.0684 9.8048 26.0171 9.54915 25.8395 9.22924C25.5045 8.93529 25.5045 8.93529 24.6774 9.02416Z" fill="black"/>
<path d="M15.9965 7.86304C16.0684 7.9011 16.1403 7.93917 16.2144 7.97839C16.6782 8.35971 16.9008 8.85689 17.0219 9.4353C17.0508 9.78767 17.0509 10.1387 17.0491 10.4919C17.0493 10.5928 17.0495 10.6937 17.0497 10.7946C17.05 11.0047 17.0496 11.2148 17.0486 11.4249C17.0475 11.6937 17.0482 11.9624 17.0494 12.2312C17.0501 12.439 17.0499 12.6468 17.0493 12.8546C17.0492 12.9537 17.0494 13.0528 17.0499 13.1519C17.0504 13.2903 17.0494 13.4286 17.0484 13.567C17.0483 13.6455 17.0481 13.7241 17.0479 13.805C17.0121 14.0942 16.8974 14.2706 16.7015 14.4811C16.4693 14.6003 16.2487 14.6088 15.9965 14.5623C15.8044 14.4396 15.6883 14.3559 15.5864 14.1521C15.5806 14.0281 15.579 13.904 15.5797 13.7799C15.5799 13.7063 15.5801 13.6327 15.5804 13.5569C15.5812 13.4412 15.5812 13.4412 15.5821 13.3232C15.5824 13.2456 15.5827 13.168 15.583 13.088C15.5838 12.8958 15.5851 12.7036 15.5864 12.5115C15.1352 12.5115 14.684 12.5115 14.2192 12.5115C14.2227 12.6758 14.2227 12.6758 14.2264 12.8434C14.2283 12.9877 14.2302 13.132 14.232 13.2762C14.2337 13.3484 14.2354 13.4205 14.2372 13.4948C14.2379 13.5646 14.2385 13.6345 14.2392 13.7064C14.2403 13.7705 14.2413 13.8346 14.2425 13.9006C14.2143 14.1219 14.1452 14.2464 14.0141 14.4255C13.7391 14.6089 13.517 14.6093 13.1938 14.5623C12.9546 14.4178 12.8721 14.3492 12.7836 14.0837C12.7761 13.9312 12.7728 13.7785 12.7715 13.6258C12.7711 13.5795 12.7706 13.5332 12.7702 13.4856C12.7688 13.3324 12.768 13.1792 12.7673 13.026C12.7671 12.9735 12.7668 12.921 12.7665 12.8669C12.7651 12.5887 12.7641 12.3104 12.7634 12.0322C12.7627 11.7462 12.7603 11.4602 12.7576 11.1742C12.7558 10.9532 12.7553 10.7321 12.755 10.5111C12.7547 10.4057 12.7539 10.3004 12.7526 10.1951C12.7434 9.38074 12.8232 8.73282 13.3989 8.11992C14.1245 7.48215 15.1609 7.36649 15.9965 7.86304ZM14.2875 9.36694C14.2001 9.54175 14.2114 9.66549 14.2125 9.86095C14.2127 9.93144 14.2129 10.0019 14.2132 10.0746C14.2137 10.1484 14.2143 10.2223 14.2149 10.2983C14.2152 10.3727 14.2155 10.4471 14.2158 10.5237C14.2166 10.7078 14.2179 10.8919 14.2192 11.0759C14.6703 11.0759 15.1215 11.0759 15.5864 11.0759C15.5919 10.8324 15.596 10.5889 15.5992 10.3453C15.6009 10.2765 15.6026 10.2076 15.6044 10.1367C15.6088 9.69307 15.5787 9.43468 15.2617 9.10632C14.8404 8.88399 14.5682 9.02027 14.2875 9.36694Z" fill="black"/>
<path d="M19.9089 15.8312C19.9893 15.8308 20.0698 15.8303 20.1527 15.8298C20.8993 15.8352 21.526 15.948 22.0793 16.4764C22.6465 17.1079 22.7049 17.7884 22.706 18.6054C22.7063 18.6926 22.7063 18.6926 22.7067 18.7816C22.707 18.9039 22.7072 19.0262 22.7072 19.1485C22.7073 19.3334 22.7086 19.5183 22.7099 19.7033C22.7157 21.4338 22.7157 21.4338 22.1476 22.1502C21.5578 22.7278 20.9192 22.8008 20.126 22.7959C19.9811 22.7953 19.8363 22.7973 19.6914 22.7995C19.5984 22.7996 19.5054 22.7996 19.4125 22.7994C19.329 22.7995 19.2455 22.7996 19.1594 22.7997C18.8876 22.7582 18.7798 22.6922 18.593 22.492C18.4587 22.1742 18.4366 21.8812 18.4386 21.5409C18.4382 21.4619 18.4382 21.4619 18.4378 21.3814C18.4372 21.2084 18.4376 21.0353 18.4381 20.8623C18.438 20.7414 18.4379 20.6206 18.4377 20.4997C18.4375 20.2467 18.4378 19.9937 18.4384 19.7407C18.4392 19.4172 18.4387 19.0937 18.4379 18.7703C18.4374 18.5207 18.4376 18.2712 18.4379 18.0216C18.438 17.9024 18.4379 17.7832 18.4376 17.6639C18.4373 17.4969 18.4378 17.3299 18.4386 17.1629C18.4383 17.1142 18.438 17.0654 18.4377 17.0151C18.441 16.6211 18.4708 16.2628 18.75 15.9698C19.097 15.7729 19.5234 15.8248 19.9089 15.8312ZM19.8918 17.2967C19.8918 18.6276 19.8918 19.9586 19.8918 21.3299C20.702 21.4045 20.702 21.4045 21.0368 21.1804C21.3078 20.8416 21.2707 20.4631 21.2729 20.0466C21.2734 19.9602 21.2734 19.9602 21.274 19.8721C21.2747 19.7507 21.2751 19.6292 21.2754 19.5078C21.2761 19.3229 21.2782 19.1382 21.2803 18.9533C21.2808 18.835 21.2811 18.7166 21.2814 18.5982C21.2823 18.5434 21.2831 18.4886 21.284 18.4322C21.2826 18.0717 21.2348 17.817 21.0539 17.5018C20.6613 17.2263 20.6613 17.2263 19.8918 17.2967Z" fill="black"/>
<path d="M16.6962 16.2485C17.0956 16.5743 17.3586 16.9354 17.4995 17.4319C17.5177 17.6658 17.5177 17.6658 17.5193 17.9249C17.5198 17.9724 17.5202 18.0199 17.5207 18.0689C17.522 18.2248 17.5223 18.3807 17.5224 18.5366C17.5229 18.6456 17.5233 18.7545 17.5238 18.8635C17.5246 19.0913 17.5249 19.3191 17.5248 19.547C17.5248 19.8386 17.5267 20.1302 17.529 20.4218C17.5305 20.6466 17.5308 20.8714 17.5307 21.0962C17.5309 21.2037 17.5315 21.3112 17.5326 21.4187C17.5339 21.5691 17.5335 21.7193 17.5327 21.8697C17.5329 21.9552 17.5331 22.0406 17.5333 22.1286C17.4934 22.3943 17.413 22.5064 17.226 22.6956C17.0065 22.8054 16.7805 22.7964 16.5424 22.764C16.3227 22.6398 16.2272 22.5495 16.1237 22.3196C16.0438 21.9998 16.0493 21.6992 16.0554 21.3712C16.056 21.3078 16.0566 21.2444 16.0572 21.1792C16.0588 21.0238 16.0613 20.8685 16.0639 20.7132C15.6353 20.7132 15.2067 20.7132 14.7651 20.7132C14.7683 20.8277 14.7714 20.9421 14.7747 21.0601C14.7773 21.2108 14.7798 21.3615 14.7822 21.5121C14.7845 21.5875 14.7868 21.6629 14.7891 21.7406C14.7959 22.3016 14.7959 22.3016 14.6358 22.5731C14.4089 22.7659 14.2464 22.7878 13.9472 22.7829C13.7212 22.7521 13.6158 22.6577 13.4663 22.4905C13.3516 22.2066 13.3123 21.9669 13.3119 21.6619C13.3114 21.5806 13.311 21.4994 13.3105 21.4157C13.3108 21.3287 13.3111 21.2418 13.3114 21.1522C13.3113 21.0609 13.3112 20.9697 13.311 20.8784C13.3108 20.6874 13.3111 20.4964 13.3117 20.3054C13.3125 20.0624 13.3121 19.8194 13.3112 19.5764C13.3107 19.3879 13.3109 19.1994 13.3112 19.0109C13.3114 18.8783 13.311 18.7458 13.3105 18.6132C13.3144 17.871 13.348 17.1013 13.8775 16.5318C14.6752 15.7869 15.7658 15.5968 16.6962 16.2485ZM14.9018 17.5687C14.7374 17.9268 14.7491 18.2687 14.7565 18.6539C14.7594 18.8597 14.7622 19.0656 14.7651 19.2777C15.1937 19.2777 15.6223 19.2777 16.0639 19.2777C16.0732 19.0226 16.0799 18.768 16.0853 18.5129C16.0881 18.4408 16.091 18.3686 16.094 18.2943C16.1051 17.8614 16.1051 17.8614 15.9042 17.4886C15.5096 17.2177 15.2584 17.2526 14.9018 17.5687Z" fill="black"/>
<path d="M8.54461 7.58819C8.7367 7.7108 8.85287 7.79455 8.95477 7.99834C8.96069 8.17788 8.96267 8.35557 8.96144 8.53507C8.96135 8.58799 8.96125 8.6409 8.96115 8.69541C8.96077 8.86467 8.95991 9.03392 8.95904 9.20318C8.9587 9.31782 8.95839 9.43247 8.95811 9.54711C8.95741 9.82839 8.95607 10.1096 8.95477 10.3909C9.40594 10.3909 9.85711 10.3909 10.322 10.3909C10.3196 10.2328 10.3172 10.0748 10.3147 9.91187C10.3131 9.7578 10.3119 9.60372 10.3107 9.44965C10.3097 9.34303 10.3083 9.23642 10.3065 9.12981C10.304 8.97606 10.3028 8.82235 10.3019 8.66859C10.3009 8.62136 10.2998 8.57413 10.2987 8.52547C10.2986 8.20804 10.3619 7.9952 10.527 7.72491C10.7288 7.56053 10.9571 7.56003 11.2128 7.56576C11.4255 7.60121 11.5422 7.71025 11.6891 7.86163C11.8003 8.08397 11.7688 8.32882 11.7696 8.57321C11.7703 8.66243 11.7703 8.66243 11.771 8.75344C11.7723 8.9508 11.7731 9.14815 11.7738 9.34551C11.7741 9.41283 11.7743 9.48015 11.7746 9.54952C11.7761 9.90583 11.777 10.2621 11.7777 10.6184C11.7784 10.9867 11.7808 11.3549 11.7835 11.7232C11.7853 12.0062 11.7859 12.2891 11.7861 12.5721C11.7864 12.7078 11.7872 12.8436 11.7885 12.9793C11.7902 13.1693 11.7901 13.3593 11.7896 13.5493C11.7905 13.6054 11.7914 13.6615 11.7923 13.7192C11.7898 13.9907 11.777 14.1201 11.6273 14.3549C11.4009 14.5723 11.2473 14.5769 10.9348 14.5707C10.7604 14.5579 10.6639 14.5356 10.527 14.4241C10.3334 14.1072 10.2938 13.8441 10.3019 13.4804C10.3022 13.431 10.3025 13.3815 10.3028 13.3305C10.3039 13.1738 10.3065 13.0171 10.3091 12.8604C10.3102 12.7536 10.3111 12.6468 10.3119 12.54C10.314 12.2793 10.318 12.0188 10.322 11.7581C9.87078 11.7581 9.41961 11.7581 8.95477 11.7581C8.95794 11.9269 8.96111 12.0956 8.96438 12.2695C8.96652 12.4335 8.96818 12.5975 8.96979 12.7616C8.97116 12.8753 8.97303 12.989 8.9754 13.1027C8.97873 13.2664 8.98027 13.4301 8.98147 13.5939C8.98288 13.6445 8.98429 13.6951 8.98575 13.7472C8.98586 13.9995 8.96301 14.1379 8.82493 14.3521C8.62548 14.5471 8.57037 14.5587 8.28399 14.5822C8.06941 14.5787 7.99569 14.5597 7.8012 14.4498C7.50718 14.1211 7.49902 13.7471 7.50045 13.3237C7.5001 13.2698 7.49975 13.2158 7.49939 13.1602C7.49844 12.9827 7.4985 12.8053 7.49866 12.6278C7.49839 12.5039 7.4981 12.3799 7.49777 12.256C7.49726 11.9966 7.49728 11.7371 7.49764 11.4777C7.49804 11.1459 7.49688 10.8142 7.4953 10.4824C7.49429 10.2265 7.49423 9.97068 7.49444 9.71481C7.49441 9.59252 7.49405 9.47023 7.49336 9.34795C7.49251 9.17667 7.49298 9.00544 7.49377 8.83416C7.49325 8.78411 7.49273 8.73406 7.49219 8.68249C7.49619 8.28855 7.57657 7.96288 7.83966 7.66082C8.07373 7.55327 8.29483 7.5421 8.54461 7.58819Z" fill="black"/>
<path d="M24.7432 15.8446C24.8042 15.844 24.8653 15.8435 24.9282 15.8429C25.0576 15.842 25.187 15.8412 25.3164 15.8407C25.5137 15.8395 25.711 15.8365 25.9083 15.8335C26.034 15.8328 26.1598 15.8322 26.2856 15.8318C26.3443 15.8306 26.4031 15.8294 26.4636 15.8281C26.8452 15.8295 27.0509 15.8852 27.3441 16.1343C27.4622 16.3706 27.4459 16.6278 27.4124 16.8862C27.2898 17.0825 27.2085 17.1933 27.0023 17.2964C26.8584 17.3022 26.7143 17.3037 26.5702 17.3031C26.4843 17.3029 26.3984 17.3026 26.3099 17.3024C26.2197 17.3018 26.1296 17.3013 26.0367 17.3007C25.9451 17.3003 25.8535 17.3 25.7619 17.2997C25.5373 17.2989 25.3128 17.2977 25.0882 17.2964C25.0882 17.725 25.0882 18.1536 25.0882 18.5952C25.4328 18.5872 25.4328 18.5872 25.7773 18.5768C26.1616 18.5722 26.371 18.6581 26.6477 18.9157C26.7669 19.1478 26.7754 19.3684 26.7288 19.6206C26.6062 19.8127 26.5225 19.9289 26.3187 20.0308C26.2246 20.0365 26.1304 20.0381 26.0362 20.0375C25.9865 20.0373 25.9369 20.0371 25.8858 20.0369C25.7913 20.036 25.7913 20.036 25.6949 20.0351C25.4947 20.0336 25.2945 20.0322 25.0882 20.0308C25.0882 20.4594 25.0882 20.888 25.0882 21.3296C25.2167 21.3264 25.3452 21.3233 25.4775 21.32C25.6468 21.3174 25.8161 21.3149 25.9854 21.3125C26.07 21.3102 26.1546 21.3079 26.2418 21.3056C27.0257 21.2971 27.0257 21.2971 27.3441 21.603C27.4622 21.8394 27.4459 22.0966 27.4124 22.355C27.2898 22.5512 27.2085 22.662 27.0023 22.7652C26.9092 22.7726 26.8157 22.776 26.7223 22.7773C26.6357 22.7786 26.6357 22.7786 26.5474 22.7799C26.4849 22.7804 26.4223 22.7809 26.3579 22.7814C26.2937 22.782 26.2294 22.7825 26.1633 22.7831C26.0271 22.7841 25.891 22.7848 25.7549 22.7853C25.5469 22.7865 25.339 22.7895 25.1311 22.7925C24.9988 22.7932 24.8666 22.7938 24.7344 22.7943C24.6723 22.7955 24.6102 22.7967 24.5462 22.7979C24.2576 22.7969 24.1041 22.7909 23.8542 22.6352C23.6095 22.3716 23.6413 22.1295 23.6395 21.7864C23.6386 21.6982 23.6386 21.6982 23.6378 21.6082C23.6361 21.4131 23.635 21.2179 23.634 21.0228C23.6336 20.9562 23.6332 20.8897 23.6329 20.8211C23.631 20.4687 23.6297 20.1164 23.6287 19.7641C23.6276 19.4 23.6245 19.0359 23.621 18.6718C23.6187 18.392 23.618 18.1122 23.6176 17.8324C23.6171 17.6982 23.6161 17.5639 23.6144 17.4297C23.6123 17.2418 23.6123 17.054 23.6128 16.8661C23.6111 16.783 23.6111 16.783 23.6094 16.6981C23.6126 16.4063 23.627 16.3028 23.8175 16.0672C24.1215 15.8302 24.3695 15.8478 24.7432 15.8446Z" fill="black"/>
<path d="M3.82869 4.58072C4.02482 4.75233 4.08754 4.87681 4.16621 5.12332C4.1727 5.44126 4.06015 5.64132 3.84578 5.871C3.62314 5.98232 3.45915 5.97377 3.21345 5.9479C2.97155 5.83501 2.8846 5.76224 2.73494 5.53775C2.69766 5.32821 2.6978 5.1321 2.73494 4.92251C3.06324 4.50781 3.33108 4.45233 3.82869 4.58072Z" fill="black"/>
</g>
<defs>
<clipPath id="clip0_6026_49258">
<rect width="35" height="35" fill="white"/>
</clipPath>
</defs>
</svg>
