<svg width="35" height="35" viewBox="0 0 35 35" fill="none" xmlns="http://www.w3.org/2000/svg">
<path d="M27.5479 1.29736C28.8974 2.48388 29.4561 4.54902 29.6499 6.26196C29.6575 6.38433 29.663 6.50684 29.667 6.62939C29.6723 6.76091 29.6723 6.76091 29.6777 6.89508C29.7317 8.88974 29.3017 11.0204 27.9428 12.5417C27.6334 12.8659 27.3161 13.1 26.9326 13.3286C26.969 13.3478 27.0054 13.367 27.0429 13.3868C28.2132 14.0076 29.2306 14.6976 30.2139 15.5845C30.2651 15.6306 30.3163 15.6768 30.369 15.7244C32.1379 17.4104 33.1897 19.7968 33.7002 22.147C33.7125 22.203 33.7247 22.259 33.7373 22.3167C34.0699 23.9243 34.0613 25.8097 33.7002 27.4106C33.6888 27.4636 33.6775 27.5166 33.6657 27.5711C33.322 29.1369 32.6554 30.5874 31.5811 31.7856C31.5385 31.8338 31.4959 31.882 31.4521 31.9317C30.3637 33.093 28.822 33.6935 27.2537 33.7806C27.0239 33.7856 26.7945 33.7866 26.5647 33.7859C26.4778 33.7861 26.3909 33.7864 26.3014 33.7867C26.0633 33.7874 25.8252 33.7872 25.5871 33.7869C25.3291 33.7868 25.0711 33.7874 24.8132 33.7879C24.3089 33.7888 23.8047 33.7889 23.3005 33.7887C22.8903 33.7886 22.4801 33.7887 22.07 33.789C21.9821 33.7891 21.9821 33.7891 21.8925 33.7891C21.7735 33.7892 21.6545 33.7893 21.5355 33.7894C20.4217 33.7901 19.3079 33.79 18.1941 33.7896C17.1771 33.7892 16.16 33.79 15.143 33.7913C14.0964 33.7926 13.0499 33.7932 12.0033 33.7929C11.4166 33.7928 10.83 33.793 10.2433 33.7939C9.74396 33.7947 9.24458 33.7948 8.7452 33.794C8.49086 33.7936 8.23654 33.7935 7.98221 33.7943C5.99092 33.8004 4.21436 33.5886 2.70176 32.1635C1.60662 31.0747 1.07315 29.6562 1.05859 28.1284C1.07391 26.5211 1.66421 25.1918 2.7585 24.0252C4.26292 22.58 6.14501 22.4562 8.1173 22.465C8.37231 22.4659 8.62732 22.4655 8.88234 22.4654C9.32285 22.4653 9.76335 22.4659 10.2039 22.4671C10.8407 22.4688 11.4776 22.4693 12.1145 22.4695C13.1481 22.47 14.1817 22.4713 15.2153 22.4733C16.2186 22.4752 17.2219 22.4766 18.2253 22.4775C18.2872 22.4776 18.3492 22.4776 18.4131 22.4777C18.724 22.4779 19.0349 22.4782 19.3459 22.4784C21.9204 22.4806 24.4948 22.4842 27.0693 22.4888C27.0693 22.7369 27.0693 22.9851 27.0693 23.2407C26.9442 23.257 26.9442 23.257 26.8165 23.2736C25.4955 23.4562 24.4771 23.87 23.5146 24.813C23.4717 24.8534 23.4288 24.8939 23.3846 24.9355C22.5897 25.7521 22.2049 26.9969 22.2073 28.1113C22.207 28.2345 22.207 28.2345 22.2067 28.3602C22.2179 28.7053 22.2529 29.0492 22.2842 29.3931C25.5777 29.3931 28.8713 29.3931 32.2646 29.3931C33.4236 25.9162 33.462 22.4246 31.7973 19.0777C31.3991 18.3073 30.9241 17.6028 30.3506 16.9517C30.2983 16.8919 30.2461 16.8322 30.1922 16.7706C30.0419 16.6012 29.8894 16.4341 29.7354 16.2681C29.6978 16.2268 29.6603 16.1856 29.6216 16.1431C28.3361 14.788 26.4219 13.8304 24.6084 13.4653C24.5872 13.5986 24.5872 13.5986 24.5657 13.7345C24.149 15.7667 22.891 17.7373 21.1904 18.9341C20.3316 19.5 19.3464 19.9615 18.3193 20.0962C18.2343 20.1074 18.2343 20.1074 18.1476 20.1189C16.1491 20.3484 14.2812 19.6741 12.7139 18.4556C12.6319 18.3961 12.6319 18.3961 12.5483 18.3354C12.3379 18.1746 12.2429 18.089 12.1969 17.8232C12.2354 17.6352 12.2354 17.6352 12.3721 17.4985C12.5065 17.4684 12.641 17.4389 12.7765 17.4137C13.8342 17.2165 14.5663 16.7495 15.3115 15.9946C15.3582 15.9478 15.4049 15.901 15.453 15.8528C15.8556 15.4242 16.1844 14.9351 16.5254 14.4576C18.4389 11.7826 18.4389 11.7826 20.0553 11.5C20.9564 11.4135 21.7541 11.5279 22.626 11.7563C22.598 11.6952 22.5699 11.634 22.5411 11.571C22.081 10.5475 21.9259 9.63744 22.2842 8.54345C22.8003 7.26817 23.6931 6.19171 24.5785 5.15539C25.4983 4.07725 26.3184 2.9652 26.8496 1.64209C27.0154 1.23478 27.1166 1.178 27.5479 1.29736ZM27.4111 2.39111C27.3609 2.47132 27.3142 2.55372 27.2688 2.63677C26.6832 3.68936 25.9942 4.61175 25.2236 5.53564C23.5091 7.51128 23.5091 7.51128 22.8783 9.96458C22.9433 10.6412 23.2044 11.3072 23.6514 11.8247C23.719 11.8247 23.7867 11.8247 23.8564 11.8247C23.8789 11.7486 23.9014 11.6724 23.9245 11.594C24.283 10.4255 24.8344 9.46609 25.6338 8.54345C25.6642 8.50794 25.6947 8.47242 25.7261 8.43584C26.0979 8.0096 26.0979 8.0096 26.3174 7.85986C26.5769 7.84223 26.5769 7.84223 26.7959 7.85986C26.8469 8.00832 26.8469 8.00832 26.8643 8.20165C26.7556 8.37789 26.7556 8.37789 26.5951 8.56054C26.5381 8.62672 26.4811 8.69289 26.4223 8.76108C26.3183 8.87665 26.2136 8.99166 26.1078 9.10554C25.3212 9.95571 24.5059 11.2095 24.4631 12.4058C24.466 12.4622 24.4688 12.5185 24.4717 12.5767C25.0453 12.8667 25.5989 12.9575 26.2309 12.805C27.1805 12.4643 27.7888 11.6772 28.2144 10.7908C29.14 8.75435 29.1934 6.2655 28.4228 4.17109C28.1745 3.53777 27.8957 2.93174 27.4795 2.39111C27.4569 2.39111 27.4344 2.39111 27.4111 2.39111ZM18.3185 13.3793C17.82 13.9072 17.4082 14.5121 16.9831 15.0987C16.0227 16.4213 15.0902 17.444 13.5342 18.0454C14.3888 18.9599 15.8473 19.336 17.0584 19.4318C18.7937 19.479 20.3229 18.7492 21.5878 17.5968C22.0576 17.1479 22.4158 16.6774 22.7627 16.1313C22.8048 16.0668 22.8469 16.0023 22.8903 15.9359C23.4107 15.0986 23.7454 14.1588 23.9248 13.1919C22.3684 13.4725 21.007 14.5931 20.0502 15.8152C19.8916 15.9946 19.8916 15.9946 19.631 16.0544C19.5591 16.0573 19.4872 16.0601 19.4131 16.063C19.3837 15.7247 19.3728 15.5795 19.5583 15.2875C19.6224 15.2143 19.688 15.1424 19.7549 15.0718C19.7894 15.0334 19.824 14.9951 19.8596 14.9555C19.9601 14.8449 20.0623 14.7361 20.165 14.6274C20.2114 14.5764 20.2577 14.5254 20.3055 14.4728C20.9739 13.7657 21.7618 13.2785 22.626 12.8501C22.6809 12.8226 22.7358 12.7951 22.7923 12.7668C22.8453 12.7403 22.8453 12.7403 22.8994 12.7134C21.4705 11.7608 19.4619 12.2354 18.3185 13.3793ZM2.87225 25.048C2.06272 26.0692 1.70245 27.3152 1.79319 28.6072C1.9874 30.0354 2.69009 31.2421 3.82715 32.1274C4.78871 32.7788 5.77435 33.0393 6.92692 33.0325C7.00126 33.0327 7.0756 33.0328 7.15219 33.0329C7.39926 33.0331 7.64631 33.0324 7.89338 33.0316C8.07129 33.0316 8.2492 33.0316 8.42711 33.0317C8.8091 33.0318 9.19109 33.0313 9.57308 33.0306C10.1254 33.0294 10.6776 33.0291 11.2299 33.0289C12.1261 33.0286 13.0223 33.0277 13.9186 33.0264C14.7887 33.0252 15.6589 33.0242 16.5291 33.0236C16.5828 33.0236 16.6365 33.0235 16.6918 33.0235C16.9613 33.0233 17.2308 33.0232 17.5002 33.023C19.7329 33.0216 21.9656 33.0192 24.1982 33.0161C24.0317 32.8825 23.8653 32.7494 23.6952 32.6204C22.4554 31.6683 21.7255 30.395 21.4983 28.8547C21.3104 27.4124 21.676 25.9089 22.5576 24.7446C22.9623 24.2497 23.3784 23.8431 23.9101 23.4816C24.0664 23.3808 24.0664 23.3808 24.1982 23.2407C21.9091 23.2344 19.6199 23.2296 17.3308 23.2268C17.0601 23.2264 16.7894 23.2261 16.5187 23.2257C16.4648 23.2256 16.4109 23.2256 16.3554 23.2255C15.4846 23.2243 14.6138 23.2221 13.7431 23.2196C12.8486 23.2171 11.954 23.2155 11.0595 23.215C10.5082 23.2146 9.95698 23.2134 9.40571 23.2112C8.98187 23.2096 8.55805 23.2094 8.13421 23.2098C7.96116 23.2097 7.78811 23.2092 7.61506 23.2081C5.71276 23.1971 4.1728 23.5459 2.87225 25.048ZM22.626 30.145C22.964 31.1591 23.8159 31.9702 24.7451 32.4692C25.9882 33.0824 27.3108 33.1998 28.6416 32.811C29.9335 32.3719 31.1012 31.4762 31.7861 30.2817C31.7861 30.2366 31.7861 30.1915 31.7861 30.145C28.7633 30.145 25.7404 30.145 22.626 30.145Z" fill="black"/>
<path d="M7.32339 30.9497C7.37264 30.9501 7.42188 30.9504 7.47262 30.9507C7.52484 30.9505 7.57707 30.9502 7.63087 30.95C7.80679 30.9495 7.98269 30.9499 8.15861 30.9503C8.28435 30.9502 8.41009 30.9499 8.53583 30.9496C8.87804 30.949 9.22025 30.9492 9.56246 30.9497C9.91995 30.95 10.2774 30.9497 10.6349 30.9495C11.2353 30.9492 11.8358 30.9496 12.4362 30.9502C13.1312 30.951 13.8262 30.9507 14.5212 30.95C15.117 30.9493 15.7128 30.9492 16.3086 30.9496C16.6648 30.9498 17.0211 30.9498 17.3773 30.9494C17.7122 30.949 18.047 30.9493 18.3819 30.9501C18.5051 30.9502 18.6283 30.9502 18.7514 30.9499C18.919 30.9495 19.0866 30.95 19.2542 30.9507C19.3034 30.9504 19.3527 30.9501 19.4034 30.9497C19.7394 30.9524 19.7394 30.9524 19.8917 31.1048C19.9088 31.3098 19.9088 31.3098 19.8917 31.5149C19.7241 31.6825 19.6322 31.6681 19.4034 31.6699C19.3542 31.6696 19.3049 31.6693 19.2542 31.669C19.202 31.6692 19.1497 31.6694 19.0959 31.6696C18.92 31.6702 18.7441 31.6697 18.5682 31.6693C18.4425 31.6695 18.3167 31.6697 18.191 31.67C17.8488 31.6707 17.5066 31.6704 17.1643 31.67C16.8069 31.6696 16.4494 31.67 16.0919 31.6702C15.4915 31.6704 14.8911 31.6701 14.2906 31.6694C13.5956 31.6687 12.9006 31.6689 12.2057 31.6697C11.6098 31.6703 11.014 31.6704 10.4182 31.67C10.062 31.6698 9.70572 31.6698 9.34948 31.6703C9.01462 31.6707 8.67977 31.6704 8.34492 31.6696C8.22173 31.6694 8.09855 31.6695 7.97536 31.6698C7.80778 31.6701 7.64021 31.6697 7.47262 31.669C7.39875 31.6694 7.39875 31.6694 7.32339 31.6699C6.98741 31.6672 6.98741 31.6672 6.83508 31.5149C6.81799 31.3098 6.81799 31.3098 6.83508 31.1048C7.0027 30.9371 7.09464 30.9516 7.32339 30.9497Z" fill="black"/>
</svg>
