<svg width="36" height="35" viewBox="0 0 36 35" fill="none" xmlns="http://www.w3.org/2000/svg">
<g clip-path="url(#clip0_6026_49285)">
<path d="M19.2339 5.51148C19.3077 5.54325 19.3815 5.57502 19.4576 5.60775C19.7008 5.71253 19.9437 5.81789 20.1867 5.92324C20.3573 5.99692 20.528 6.07048 20.6987 6.14402C20.9644 6.25856 21.2302 6.37315 21.4959 6.48794C22.3585 6.86069 23.2224 7.23052 24.0865 7.60017C24.5598 7.80282 25.0329 8.00607 25.5061 8.2092C25.891 8.37433 26.2762 8.53878 26.6619 8.70196C26.8585 8.78518 27.0549 8.86885 27.2513 8.95262C27.3762 9.00568 27.5014 9.05806 27.6265 9.11041C27.6983 9.1411 27.7701 9.1718 27.844 9.20342C27.9041 9.22878 27.9642 9.25413 28.0262 9.28026C28.2112 9.38129 28.3232 9.47783 28.4582 9.64028C28.4926 9.81774 28.4926 9.81774 28.4929 10.0229C28.4941 10.1398 28.4941 10.1398 28.4952 10.2591C28.4944 10.387 28.4944 10.387 28.4936 10.5175C28.4943 10.6527 28.4943 10.6527 28.495 10.7905C28.4963 11.0379 28.4958 11.2853 28.4949 11.5327C28.4942 11.7931 28.4949 12.0536 28.4953 12.314C28.4958 12.7528 28.4951 13.1916 28.4938 13.6305C28.4923 14.1335 28.4928 14.6366 28.4943 15.1396C28.4956 15.574 28.4957 16.0083 28.495 16.4426C28.4946 16.7009 28.4945 16.9591 28.4954 17.2174C28.5046 20.1939 27.8419 22.9059 25.9972 25.2946C25.9535 25.3523 25.9098 25.41 25.8648 25.4695C25.1637 26.3631 24.3371 27.1808 23.3996 27.8239C23.3602 27.8511 23.3208 27.8784 23.2803 27.9064C22.1089 28.7052 20.8066 29.3129 19.4347 29.6696C19.379 29.6848 19.3232 29.7001 19.2658 29.7158C18.3999 29.9477 17.703 29.9652 16.8371 29.7379C16.7562 29.7175 16.7562 29.7175 16.6738 29.6967C15.3725 29.3606 14.1285 28.8433 13.009 28.0973C12.9486 28.0576 12.9486 28.0576 12.8871 28.017C12.2993 27.6257 11.7742 27.1859 11.2677 26.6946C11.1674 26.5974 11.0661 26.5014 10.9646 26.4054C9.49894 24.9892 8.43577 23.0688 7.90336 21.1076C7.89035 21.0605 7.87734 21.0134 7.86393 20.9649C7.81927 20.7911 7.78213 20.6167 7.74528 20.4411C7.71971 20.3205 7.71971 20.3205 7.69362 20.1975C7.49603 19.1722 7.50876 18.1406 7.51041 17.1008C7.51062 16.8921 7.5102 16.6835 7.50979 16.4748C7.50884 15.9831 7.50893 15.4913 7.50971 14.9996C7.5105 14.4932 7.50953 13.9868 7.5077 13.4804C7.50619 13.0434 7.50574 12.6065 7.50614 12.1695C7.50637 11.9094 7.5062 11.6493 7.50503 11.3892C7.50397 11.1456 7.50424 10.9021 7.50553 10.6585C7.5059 10.5266 7.50492 10.3947 7.50391 10.2629C7.50491 10.1452 7.50491 10.1452 7.50594 10.0252C7.50596 9.95702 7.50597 9.88889 7.50599 9.81869C7.54967 9.59093 7.63677 9.51184 7.81364 9.36684C7.95923 9.28485 7.95923 9.28485 8.11869 9.21642C8.17943 9.18998 8.24018 9.16353 8.30276 9.13629C8.36888 9.1083 8.43499 9.08031 8.50311 9.05148C8.5731 9.02125 8.64309 8.99101 8.71519 8.95986C8.94704 8.8599 9.17928 8.76089 9.41154 8.66188C9.57445 8.59188 9.73734 8.52182 9.90021 8.45172C10.3696 8.24993 10.8394 8.04921 11.3094 7.84883C11.5159 7.76082 11.7222 7.67271 11.9286 7.58462C12.5568 7.31661 13.1851 7.04883 13.8137 6.78188C14.5143 6.48434 15.2144 6.18598 15.9126 5.88292C15.9727 5.85684 16.0328 5.83077 16.0947 5.80391C16.3706 5.68408 16.6464 5.56396 16.922 5.4434C17.0171 5.40201 17.1121 5.36061 17.2072 5.31922C17.2882 5.28376 17.3693 5.2483 17.4527 5.21177C18.1012 4.94808 18.6261 5.24654 19.2339 5.51148ZM17.0913 6.64769C17.0215 6.67832 16.9516 6.70896 16.8797 6.74052C16.7282 6.80708 16.5768 6.87398 16.4256 6.94118C16.0604 7.10346 15.6942 7.26372 15.3282 7.42419C15.2005 7.4802 15.0729 7.5363 14.9452 7.59242C14.0366 7.99172 13.1235 8.38069 12.21 8.7687C12.0616 8.8318 11.9132 8.89492 11.7649 8.95804C11.0229 9.27368 10.2803 9.58804 9.53763 9.90217C9.45671 9.9364 9.37579 9.97063 9.29242 10.0059C9.09572 10.0891 8.89902 10.1723 8.70231 10.2555C8.6975 11.3739 8.6939 12.4924 8.69169 13.6108C8.69064 14.1302 8.68921 14.6497 8.68684 15.1691C8.68478 15.6225 8.68347 16.0759 8.68302 16.5293C8.68275 16.7688 8.68215 17.0082 8.68063 17.2477C8.67288 18.5248 8.70097 19.7645 9.09111 20.9922C9.10844 21.0481 9.12576 21.104 9.14361 21.1615C10.0395 23.9513 12.0109 26.2981 14.5996 27.6631C15.3741 28.056 16.176 28.3583 17.0165 28.5758C17.0978 28.5971 17.0978 28.5971 17.1807 28.6189C17.8444 28.778 18.4258 28.7227 19.0801 28.5459C19.182 28.5187 19.182 28.5187 19.2859 28.4908C20.8382 28.0562 22.246 27.2993 23.4679 26.2516C23.506 26.219 23.5441 26.1864 23.5833 26.1528C25.6511 24.3589 27.0579 21.7499 27.2961 19.0055C27.3055 18.717 27.3047 18.4288 27.3038 18.1402C27.3038 18.0121 27.3038 18.0121 27.3039 17.8813C27.3038 17.6486 27.3035 17.4159 27.303 17.1832C27.3026 16.9394 27.3025 16.6956 27.3024 16.4519C27.3022 15.9909 27.3017 15.53 27.301 15.069C27.3002 14.544 27.2998 14.0189 27.2995 13.4939C27.2988 12.4144 27.2976 11.335 27.2961 10.2555C27.2335 10.2289 27.2335 10.2289 27.1697 10.2017C23.2854 8.54814 23.2854 8.54814 21.777 7.90124C21.5498 7.8038 21.3225 7.70646 21.0953 7.60912C21.0192 7.5765 20.9431 7.54387 20.8646 7.51026C20.7161 7.44661 20.5676 7.38303 20.419 7.31955C20.0548 7.1636 19.6919 7.00536 19.3306 6.84305C19.2589 6.81112 19.1873 6.77918 19.1134 6.74628C18.9782 6.68587 18.8433 6.62486 18.7086 6.56314C18.0616 6.27512 17.723 6.36375 17.0913 6.64769Z" fill="black"/>
<path d="M19.0515 8.51245C19.1271 8.54519 19.2026 8.57793 19.2805 8.61166C19.4853 8.70059 19.6897 8.79036 19.894 8.88054C20.107 8.97435 20.3205 9.06712 20.534 9.15993C20.7962 9.27399 21.0584 9.38809 21.3204 9.50263C21.8982 9.75506 22.478 10.0024 23.0596 10.246C23.1341 10.2773 23.2085 10.3086 23.2852 10.3408C23.712 10.52 23.712 10.52 24.1393 10.698C24.333 10.7785 24.5264 10.8599 24.7197 10.9413C24.8048 10.9763 24.8048 10.9763 24.8916 11.0119C25.2228 11.1526 25.4884 11.2835 25.6564 11.6196C25.6639 11.8289 25.6672 12.0367 25.6675 12.2461C25.6678 12.3112 25.6681 12.3762 25.6685 12.4433C25.6695 12.6598 25.67 12.8763 25.6703 13.0928C25.6707 13.244 25.6711 13.3951 25.6715 13.5463C25.6722 13.8645 25.6726 14.1827 25.6729 14.5009C25.6732 14.9048 25.6749 15.3086 25.6768 15.7125C25.6781 16.0256 25.6785 16.3387 25.6786 16.6519C25.6788 16.8005 25.6793 16.9491 25.6802 17.0976C25.6968 20.0224 24.9103 22.462 22.8409 24.578C22.3809 25.0376 21.8956 25.4182 21.3498 25.77C21.2857 25.8125 21.2217 25.8549 21.1557 25.8987C20.1027 26.5573 18.6347 27.2252 17.3783 26.9404C16.6795 26.767 16.0385 26.515 15.4025 26.1801C15.362 26.1591 15.3215 26.138 15.2798 26.1163C13.8554 25.3673 12.6406 24.2599 11.7795 22.8989C11.7321 22.8257 11.6847 22.7524 11.6358 22.677C10.7403 21.2092 10.3332 19.5259 10.334 17.8168C10.3338 17.7498 10.3336 17.6828 10.3333 17.6138C10.3327 17.3947 10.3325 17.1756 10.3325 16.9564C10.3322 16.8033 10.332 16.6501 10.3318 16.4969C10.3314 16.1771 10.3312 15.8573 10.3313 15.5375C10.3313 15.1274 10.3303 14.7173 10.3292 14.3073C10.3284 13.9915 10.3283 13.6758 10.3283 13.3601C10.3282 13.2088 10.3279 13.0575 10.3274 12.9063C10.3267 12.6954 10.3269 12.4845 10.3273 12.2736C10.327 12.2111 10.3266 12.1486 10.3262 12.0842C10.3265 12.0267 10.3267 11.9692 10.327 11.91C10.327 11.8602 10.327 11.8104 10.3269 11.7592C10.3469 11.5952 10.3949 11.4867 10.4807 11.3462C10.6164 11.2564 10.6164 11.2564 10.7827 11.1791C10.8442 11.1502 10.9058 11.1213 10.9692 11.0915C11.2907 10.9479 11.6131 10.8072 11.9376 10.6703C12.0108 10.6392 12.0841 10.6081 12.1596 10.576C12.3974 10.475 12.6353 10.3744 12.8732 10.2738C13.2053 10.1332 13.5373 9.99259 13.8693 9.85187C13.9108 9.83426 13.9524 9.81665 13.9952 9.79851C14.5712 9.55444 15.1454 9.30655 15.7182 9.05506C15.9132 8.96985 16.1082 8.8847 16.3032 8.79955C16.4253 8.74597 16.5473 8.69205 16.6691 8.63777C16.8374 8.5628 17.0062 8.48905 17.1751 8.41552C17.2233 8.3936 17.2716 8.37167 17.3213 8.34909C17.9778 8.06702 18.4259 8.23339 19.0515 8.51245ZM17.5212 9.56535C17.4527 9.59466 17.3842 9.62398 17.3137 9.65419C17.2393 9.68664 17.1649 9.7191 17.0883 9.75254C17.0097 9.78636 16.9311 9.82018 16.8502 9.85502C16.6391 9.94596 16.4283 10.0373 16.2176 10.1289C16.0135 10.2174 15.8093 10.3054 15.6051 10.3934C15.225 10.5573 14.8452 10.7217 14.4655 10.8864C13.9156 11.1247 13.3655 11.3624 12.8155 11.6003C12.5393 11.7196 12.2632 11.8391 11.9871 11.9585C11.8933 11.999 11.7994 12.0396 11.7056 12.0802C11.6068 12.1229 11.6068 12.1229 11.5061 12.1665C11.5029 12.9598 11.5004 13.7532 11.499 14.5466C11.4983 14.9151 11.4973 15.2836 11.4957 15.6521C11.4942 16.0084 11.4934 16.3648 11.4931 16.7211C11.4928 16.8563 11.4923 16.9915 11.4916 17.1267C11.48 19.3251 11.9467 21.4084 13.4201 23.104C13.4663 23.1592 13.5125 23.2145 13.56 23.2714C14.6428 24.53 16.2068 25.5584 17.8635 25.8384C19.667 25.7257 21.2971 24.5237 22.4887 23.2516C23.8187 21.7201 24.511 19.7604 24.5021 17.7385C24.5021 17.6474 24.5021 17.6474 24.5021 17.5544C24.5021 17.3561 24.5015 17.1579 24.501 16.9596C24.5009 16.8212 24.5008 16.6827 24.5007 16.5442C24.5005 16.1816 24.4998 15.8191 24.499 15.4566C24.4983 15.0858 24.498 14.7151 24.4977 14.3444C24.4969 13.6184 24.4958 12.8924 24.4943 12.1665C23.2873 11.641 22.0796 11.1169 20.8713 10.5942C20.761 10.5465 20.761 10.5465 20.6485 10.4978C20.2564 10.3281 19.864 10.1589 19.4712 9.99059C19.3539 9.94027 19.2367 9.88977 19.1196 9.8391C18.958 9.76928 18.7963 9.70007 18.6344 9.63104C18.5875 9.61061 18.5406 9.59018 18.4923 9.56913C18.1199 9.41167 17.8891 9.40624 17.5212 9.56535Z" fill="black"/>
<path d="M31.6723 18.8003C31.8366 18.9229 31.9594 19.0293 32.0971 19.176C32.1526 19.2323 32.1526 19.2323 32.2092 19.2897C32.3262 19.4089 32.4414 19.5297 32.5567 19.6505C32.6358 19.7315 32.7151 19.8124 32.7945 19.8931C33.4426 20.5566 33.4426 20.5566 33.467 20.8658C33.4427 21.2282 33.2901 21.479 33.1225 21.7956C33.0028 22.1092 33.0576 22.3034 33.1845 22.6063C33.229 22.6955 33.229 22.6955 33.2744 22.7865C33.4327 23.1204 33.5209 23.4276 33.5863 23.7906C33.6485 23.8068 33.6485 23.8068 33.7118 23.8234C34.1497 23.9453 34.5643 24.0992 34.9535 24.3374C35.068 24.5664 35.0345 24.8242 35.0358 25.076C35.0362 25.1359 35.0365 25.1957 35.0369 25.2574C35.0376 25.3842 35.038 25.5109 35.0383 25.6377C35.039 25.8315 35.0411 26.0253 35.0432 26.2192C35.0437 26.3423 35.044 26.4654 35.0443 26.5885C35.0452 26.6465 35.046 26.7044 35.0469 26.7642C35.046 27.0017 35.0452 27.164 34.9338 27.3767C34.8112 27.487 34.7171 27.5428 34.5623 27.5984C34.5143 27.616 34.4662 27.6336 34.4167 27.6518C34.3668 27.6691 34.317 27.6863 34.2657 27.7041C34.2156 27.7225 34.1655 27.7408 34.1138 27.7597C33.7459 27.8921 33.7459 27.8921 33.5863 27.8921C33.5631 28.0211 33.5631 28.0211 33.5393 28.1527C33.4669 28.4856 33.3361 28.7726 33.1845 29.0764C33.0539 29.388 33.0077 29.5796 33.1225 29.9045C33.1808 30.025 33.1808 30.025 33.2403 30.148C33.5149 30.7186 33.5149 30.7186 33.4496 31.0367C33.3115 31.2399 33.1437 31.4093 32.9711 31.5835C32.9186 31.6377 32.8661 31.6919 32.8121 31.7477C32.6429 31.9209 32.4719 32.0921 32.3003 32.2629C32.2417 32.3218 32.183 32.3807 32.1226 32.4414C32.0666 32.4973 32.0106 32.5532 31.9529 32.6108C31.9023 32.6614 31.8516 32.7119 31.7994 32.764C31.5993 32.9502 31.5533 32.9513 31.2664 32.9422C30.9221 32.9021 30.6486 32.7671 30.3446 32.6062C29.9833 32.4716 29.6897 32.6624 29.3566 32.814C29.2764 32.8507 29.1962 32.8873 29.1136 32.9251C28.8618 33.0221 28.6574 33.0602 28.391 33.0874C28.3794 33.1296 28.3678 33.1719 28.3558 33.2153C28.0462 34.2971 28.0462 34.2971 27.7074 34.523C27.5024 34.5381 27.304 34.5454 27.0989 34.5459C27.0391 34.5464 26.9794 34.5469 26.9178 34.5473C26.7914 34.548 26.6651 34.5483 26.5387 34.5483C26.3455 34.5486 26.1523 34.5511 25.9591 34.5537C25.8363 34.5541 25.7135 34.5544 25.5907 34.5545C25.5329 34.5555 25.4752 34.5565 25.4157 34.5575C25.0158 34.5544 25.0158 34.5544 24.805 34.3997C24.6581 34.1904 24.5667 33.9661 24.4774 33.7283C24.4591 33.6818 24.4408 33.6353 24.4219 33.5873C24.2895 33.2454 24.2895 33.2454 24.2895 33.0874C24.2063 33.0733 24.1231 33.0592 24.0374 33.0447C23.6606 32.9642 23.3384 32.7961 22.9984 32.6188C22.6853 32.5037 22.4874 32.5603 22.1877 32.6904C22.0966 32.7368 22.0966 32.7368 22.0037 32.7841C21.4783 33.0262 21.4783 33.0262 21.1449 32.9507C21.0271 32.8637 21.0271 32.8637 20.8998 32.7486C20.8519 32.7052 20.8039 32.6619 20.7545 32.6172C20.7029 32.5694 20.6513 32.5215 20.5981 32.4722C20.5436 32.422 20.4892 32.3717 20.4331 32.32C20.2597 32.1576 20.0891 31.9927 19.9187 31.8271C19.8598 31.7719 19.8009 31.7166 19.7402 31.6598C19.269 31.199 19.269 31.199 19.2148 30.886C19.232 30.6076 19.2834 30.4399 19.4146 30.195C19.4501 30.1262 19.4856 30.0573 19.5222 29.9864C19.6401 29.8077 19.7317 29.7098 19.9145 29.6011C20.1897 29.5543 20.2903 29.5772 20.5211 29.7378C20.7189 30.017 20.699 30.1529 20.6664 30.4898C20.6439 30.5575 20.6213 30.6251 20.5981 30.6949C20.8913 30.9881 21.1846 31.2814 21.4867 31.5835C21.577 31.5539 21.6672 31.5243 21.7602 31.4938C21.8166 31.4756 21.873 31.4573 21.9311 31.4385C22.0992 31.3827 22.0992 31.3827 22.243 31.312C22.5051 31.1899 22.6678 31.1543 22.9479 31.2417C23.2219 31.3509 23.4798 31.4883 23.7407 31.6252C24.0552 31.7696 24.3831 31.8748 24.7132 31.9779C24.9966 32.071 25.1748 32.1346 25.3148 32.4038C25.4402 32.6962 25.5462 32.994 25.6566 33.2925C26.3672 33.3264 26.3672 33.3264 27.0922 33.3609C27.126 33.1578 27.126 33.1578 27.1606 32.9507C27.2388 32.6226 27.3453 32.3842 27.5707 32.1304C27.8888 31.9544 28.2393 31.8632 28.5865 31.7619C28.9057 31.6684 29.179 31.5368 29.4677 31.3742C29.9249 31.1357 29.9249 31.1357 30.1897 31.1947C30.3139 31.2441 30.3139 31.2441 30.4418 31.3101C30.5498 31.3618 30.6581 31.4131 30.7665 31.4639C30.8155 31.4896 30.8645 31.5154 30.915 31.5419C31.055 31.5966 31.055 31.5966 31.1873 31.5467C31.3879 31.4067 31.5542 31.2374 31.7235 31.0623C31.7582 31.027 31.7928 30.9918 31.8285 30.9555C31.9134 30.8689 31.998 30.7819 32.0824 30.6949C31.9807 30.3781 31.8579 30.0789 31.7206 29.7763C31.6068 29.3638 31.8043 29.0384 31.997 28.6825C32.1732 28.3512 32.3122 28.0386 32.4064 27.675C32.4908 27.3531 32.5548 27.1321 32.8181 26.9191C33.1704 26.737 33.4654 26.659 33.8598 26.5933C33.8372 26.1196 33.8147 25.6458 33.7914 25.1577C33.4635 25.0341 33.4635 25.0341 33.135 24.9124C32.8675 24.8085 32.6952 24.7312 32.5609 24.4742C32.5067 24.3233 32.4574 24.1706 32.4114 24.017C32.268 23.5503 32.0736 23.1233 31.8374 22.696C31.7076 22.4437 31.65 22.2804 31.7158 21.9991C31.7996 21.7419 31.9152 21.5057 32.0408 21.2666C32.0955 21.1266 32.0955 21.1266 32.0456 20.9942C31.9056 20.7937 31.7363 20.6274 31.5612 20.458C31.5259 20.4234 31.4907 20.3888 31.4544 20.3531C31.3678 20.2681 31.2808 20.1836 31.1938 20.0992C31.1253 20.1296 31.0568 20.16 30.9863 20.1913C30.8945 20.2304 30.8028 20.2695 30.711 20.3085C30.6661 20.3286 30.6212 20.3488 30.5749 20.3695C30.2534 20.5041 30.037 20.5319 29.6898 20.441C29.4535 20.3344 29.4535 20.3344 29.2242 20.206C29.1476 20.1638 29.071 20.1215 28.9921 20.0781C28.7712 19.9443 28.6826 19.887 28.6089 19.6377C28.5933 19.3664 28.6581 19.2332 28.8012 19.0054C29.019 18.8965 29.2477 18.9099 29.4848 18.937C29.5539 18.9723 29.6229 19.0075 29.6941 19.0439C29.9643 19.1761 30.0826 19.15 30.3734 19.0738C30.5599 18.9861 30.743 18.8955 30.9243 18.7977C31.1874 18.7117 31.4097 18.7247 31.6723 18.8003Z" fill="black"/>
<path d="M8.90112 0.456834C8.96088 0.456379 9.02063 0.455924 9.0822 0.455455C9.20855 0.454763 9.33491 0.454443 9.46127 0.454464C9.65453 0.454166 9.84769 0.451683 10.0409 0.449091C10.1637 0.448689 10.2865 0.448418 10.4093 0.448289C10.4671 0.447307 10.5248 0.446325 10.5843 0.445312C10.9842 0.448424 10.9842 0.448424 11.195 0.603099C11.3419 0.81243 11.4332 1.03665 11.5225 1.27448C11.55 1.34427 11.55 1.34427 11.5781 1.41547C11.7105 1.7574 11.7105 1.7574 11.7105 1.91535C11.7937 1.92944 11.8769 1.94354 11.9626 1.95807C12.3394 2.03856 12.6616 2.2067 13.0016 2.38398C13.3147 2.49907 13.5126 2.44245 13.8123 2.31242C13.873 2.28149 13.9337 2.25056 13.9963 2.21869C14.5217 1.97658 14.5217 1.97658 14.8551 2.05206C14.9729 2.13907 14.9729 2.13907 15.1002 2.25421C15.1481 2.29755 15.1961 2.34089 15.2454 2.38555C15.2971 2.43341 15.3487 2.48127 15.4019 2.53058C15.4836 2.60594 15.4836 2.60594 15.5668 2.68282C15.7403 2.8452 15.9109 3.01012 16.0813 3.17572C16.1402 3.23093 16.1991 3.28614 16.2598 3.34302C16.731 3.80387 16.731 3.80387 16.787 4.11246C16.7671 4.40561 16.6939 4.62206 16.5555 4.87616C16.5251 4.93835 16.5251 4.93835 16.4941 5.0018C16.3554 5.26891 16.2249 5.41686 15.9488 5.53839C15.7054 5.53343 15.5771 5.49636 15.3763 5.35895C15.2215 5.13272 15.2373 4.9878 15.2652 4.71808C15.3329 4.51505 15.3329 4.51505 15.4019 4.30792C15.1087 4.01466 14.8154 3.7214 14.5133 3.41925C14.423 3.44886 14.3328 3.47847 14.2398 3.50897C14.1834 3.52721 14.127 3.54546 14.0689 3.56425C13.9008 3.62007 13.9008 3.62007 13.757 3.69082C13.4949 3.8129 13.3322 3.84852 13.0521 3.76105C12.7781 3.65193 12.5202 3.51443 12.2593 3.3776C11.9448 3.23314 11.6169 3.128 11.2868 3.0249C11.0034 2.93174 10.8252 2.86821 10.6851 2.59894C10.5598 2.30656 10.4538 2.00878 10.3433 1.71027C9.86962 1.68771 9.39589 1.66515 8.9078 1.64191C8.88524 1.77726 8.86268 1.91261 8.83944 2.05206C8.77054 2.36909 8.67209 2.64953 8.42928 2.87238C8.01512 3.09932 7.55263 3.22047 7.10342 3.35907C6.80563 3.45973 6.54256 3.60662 6.27169 3.76559C5.98645 3.87484 5.77101 3.79472 5.49998 3.6748C5.37309 3.60956 5.24634 3.54405 5.11973 3.47827C4.95101 3.40422 4.95101 3.40422 4.80784 3.4537C4.61245 3.59817 4.44487 3.76633 4.27645 3.94049C4.24182 3.97574 4.20719 4.01099 4.17151 4.0473C4.08655 4.13387 4.00201 4.22086 3.91757 4.30792C4.0193 4.62465 4.14214 4.92386 4.27939 5.2265C4.39319 5.63893 4.19571 5.96441 4.00302 6.32025C3.82677 6.65162 3.68783 6.96417 3.59361 7.32774C3.50922 7.64969 3.44516 7.87072 3.1819 8.08371C2.82955 8.26574 2.53463 8.34375 2.14022 8.40949C2.17406 9.12008 2.17406 9.12008 2.20858 9.84503C2.53645 9.96864 2.53645 9.96864 2.86502 10.0904C3.13246 10.1942 3.30484 10.2715 3.43905 10.5286C3.4933 10.6795 3.54259 10.8322 3.58859 10.9858C3.73335 11.4542 3.92786 11.8854 4.15661 12.3188C4.30672 12.6163 4.36336 12.7943 4.25936 13.1263C4.17251 13.3226 4.07553 13.511 3.97658 13.7015C3.90253 13.8702 3.90253 13.8702 3.95201 14.0134C4.09648 14.2087 4.26464 14.3763 4.43881 14.5447C4.47405 14.5794 4.5093 14.614 4.54562 14.6497C4.63218 14.7346 4.71917 14.8192 4.80624 14.9036C4.89414 14.8678 4.89414 14.8678 4.98381 14.8313C6.00669 14.4242 6.00669 14.4242 6.33151 14.5592C6.57769 14.6894 6.81916 14.8189 6.99374 15.0403C7.04008 15.2501 7.03403 15.445 6.99374 15.6556C6.81998 15.8651 6.72114 15.9217 6.45114 15.9504C6.24178 15.929 6.24178 15.929 6.053 15.8807C5.69493 15.8483 5.43684 16.0281 5.12293 16.1854C4.83635 16.284 4.61521 16.2876 4.32772 16.2025C4.16338 16.0799 4.04062 15.9735 3.90288 15.8267C3.84738 15.7705 3.84738 15.7705 3.79077 15.7131C3.67378 15.5939 3.55859 15.4731 3.44332 15.3522C3.36417 15.2713 3.28491 15.1904 3.20553 15.1096C2.55744 14.4461 2.55744 14.4461 2.53302 14.137C2.55733 13.7746 2.70986 13.5238 2.87749 13.2072C2.99716 12.8936 2.94243 12.6993 2.81554 12.3965C2.78584 12.337 2.75615 12.2775 2.72555 12.2162C2.56729 11.8824 2.47911 11.5752 2.41366 11.2122C2.37224 11.2014 2.33083 11.1905 2.28816 11.1794C1.85031 11.0575 1.43569 10.9036 1.04647 10.6653C0.932003 10.4364 0.965484 10.1786 0.964228 9.92674C0.963643 9.83697 0.963643 9.83697 0.963047 9.74538C0.9624 9.61861 0.961954 9.49185 0.961691 9.36508C0.961027 9.17123 0.958907 8.97743 0.956751 8.78359C0.956304 8.66049 0.955945 8.53739 0.955683 8.41429C0.954839 8.35632 0.953995 8.29835 0.953125 8.23862C0.954023 8.00108 0.954786 7.83882 1.06615 7.62606C1.18883 7.51575 1.28293 7.45994 1.43767 7.40439C1.48574 7.38677 1.53381 7.36914 1.58333 7.35098C1.63317 7.33371 1.683 7.31644 1.73434 7.29865C1.80948 7.27115 1.80948 7.27115 1.88614 7.2431C2.25409 7.11066 2.25409 7.11066 2.41366 7.11066C2.42917 7.02465 2.44468 6.93865 2.46066 6.85004C2.5331 6.5172 2.66386 6.23018 2.81554 5.92639C2.94609 5.61478 2.99229 5.42316 2.87749 5.09833C2.8192 4.97778 2.8192 4.97778 2.75973 4.8548C2.48506 4.28419 2.48506 4.28419 2.55038 3.96613C2.68853 3.76289 2.8563 3.59347 3.02889 3.41925C3.08138 3.36507 3.13387 3.31089 3.18794 3.25506C3.35712 3.0819 3.5281 2.91071 3.69967 2.73993C3.75831 2.68102 3.81696 2.62211 3.87738 2.56142C3.93338 2.50551 3.98938 2.4496 4.04708 2.39199C4.09773 2.34142 4.14838 2.29084 4.20057 2.23873C4.40068 2.05254 4.44669 2.0515 4.73361 2.06061C5.00916 2.09261 5.22016 2.17775 5.46847 2.29987C5.74096 2.43015 5.74096 2.43015 6.03671 2.47077C6.29799 2.37278 6.54778 2.25433 6.79988 2.13484C7.06649 2.021 7.32422 1.96669 7.60897 1.91535C7.6206 1.87314 7.63224 1.83093 7.64422 1.78744C8.02431 0.459139 8.02431 0.459139 8.90112 0.456834Z" fill="black"/>
<path d="M21.124 13.2806C21.2239 13.3642 21.3221 13.4498 21.4188 13.537C21.48 13.5918 21.5411 13.6466 21.6042 13.703C22.5532 14.6001 23.1615 15.7904 23.2191 17.1071C23.2436 18.5658 22.9301 19.789 21.9657 20.9198C21.9223 20.9762 21.8788 21.0327 21.8341 21.0909C21.1039 21.9696 19.8797 22.5611 18.7528 22.6971C17.282 22.7869 15.8999 22.578 14.734 21.6028C14.6842 21.5579 14.6343 21.5129 14.5829 21.4666C14.5217 21.4118 14.4606 21.357 14.3976 21.3005C13.4485 20.4035 12.8402 19.2132 12.7826 17.8965C12.7586 16.4656 13.052 15.1759 14.036 14.0838C14.0908 14.0227 14.1456 13.9615 14.2021 13.8985C15.9997 11.9968 19.0132 11.7199 21.124 13.2806ZM14.9247 14.8358C14.1324 15.7767 13.8949 16.8502 13.9677 18.0487C14.1037 19.0642 14.6294 19.9839 15.4032 20.6463C16.3919 21.3801 17.4039 21.6273 18.6161 21.535C19.7164 21.3507 20.674 20.7313 21.3377 19.8388C21.9821 18.8616 22.1829 17.7669 21.9895 16.6227C21.7151 15.5631 21.082 14.6556 20.1662 14.0518C18.3829 13.0313 16.3443 13.3374 14.9247 14.8358Z" fill="black"/>
<path d="M28.9277 22.3148C29.4341 22.4494 29.8245 23.0314 30.0997 23.4475C30.7504 24.5777 30.9385 25.7276 30.6578 27.0062C30.4406 27.8045 30.011 28.4835 29.4161 29.053C29.3759 29.0953 29.3356 29.1377 29.2941 29.1814C28.5113 29.9504 27.3953 30.2722 26.3229 30.3048C25.1935 30.2595 24.0499 29.8807 23.251 29.053C23.0941 28.8584 23.0585 28.7784 23.0117 28.5232C23.0672 28.2611 23.1097 28.1759 23.3322 28.0276C23.5543 27.9507 23.5543 27.9507 23.8107 27.9592C23.9573 28.0431 24.0796 28.1413 24.2096 28.2492C24.8913 28.8029 25.7276 29.1311 26.6134 29.053C27.4815 28.9203 28.317 28.5781 28.8583 27.8609C29.3821 27.0813 29.6383 26.2805 29.5251 25.3346C29.4173 24.7937 29.2221 24.2092 28.8223 23.8112C28.7325 23.7209 28.7325 23.7209 28.7325 23.5842C28.6917 23.5673 28.6508 23.5504 28.6086 23.5329C28.4263 23.4288 28.3523 23.3608 28.254 23.1741C28.2071 22.8996 28.2119 22.6974 28.3566 22.4563C28.5489 22.3409 28.7027 22.3022 28.9277 22.3148Z" fill="black"/>
<path d="M12.4638 5.67277C13.0013 6.14453 13.0013 6.14453 13.0235 6.48454C13.0108 6.69548 12.9955 6.8014 12.8739 6.9716C12.6955 7.11038 12.6021 7.10841 12.3738 7.09523C12.0876 7.03241 11.9758 6.94648 11.7631 6.74943C11.0772 6.16004 10.3237 5.91211 9.42179 5.95475C8.55495 6.04492 7.74292 6.41933 7.17447 7.09123C6.60634 7.86076 6.38139 8.67437 6.4802 9.62426C6.57887 10.2177 6.82191 10.6804 7.16673 11.1685C7.28193 11.3702 7.3191 11.526 7.33683 11.7568C7.25231 11.9525 7.17745 12.0639 7.00785 12.1925C6.79259 12.254 6.66215 12.2324 6.44816 12.1669C5.71525 11.5806 5.35929 10.596 5.23691 9.69342C5.11883 8.51094 5.40016 7.33723 6.14615 6.39802C7.7667 4.49281 10.4454 4.15902 12.4638 5.67277Z" fill="black"/>
<path d="M20.3928 15.5163C20.6505 15.6956 20.7229 15.808 20.7944 16.1145C20.7719 16.4658 20.5369 16.6477 20.2892 16.8739C20.2332 16.9222 20.1771 16.9705 20.1194 17.0202C20.0544 17.0778 20.0544 17.0778 19.988 17.1366C19.9023 17.2121 19.8161 17.2869 19.7295 17.3612C19.5255 17.5399 19.327 17.7243 19.1282 17.9089C18.8465 18.1701 18.5631 18.4282 18.2723 18.6793C18.0441 18.8787 17.8209 19.0839 17.597 19.2884C17.4269 19.4358 17.3529 19.477 17.1287 19.5025C16.6205 19.4537 16.2722 19.0023 15.9324 18.6566C15.8832 18.6074 15.834 18.5581 15.7834 18.5074C15.2739 17.9937 15.2739 17.9937 15.2402 17.6397C15.2462 17.4353 15.2597 17.3712 15.377 17.1954C15.578 17.0631 15.7086 17.0251 15.9495 17.0202C16.2458 17.1654 16.4618 17.3794 16.6886 17.6141C16.7229 17.649 16.7572 17.684 16.7926 17.72C16.8765 17.8054 16.9599 17.8913 17.0432 17.9772C17.2752 17.8755 17.4385 17.7426 17.6243 17.5714C17.6842 17.5165 17.7441 17.4616 17.8058 17.405C17.87 17.3457 17.9341 17.2864 18.0002 17.2253C18.0679 17.1632 18.1355 17.1012 18.2032 17.0392C18.2543 16.9923 18.2543 16.9923 18.3065 16.9445C18.3408 16.9131 18.3751 16.8817 18.4104 16.8493C18.4797 16.7858 18.5491 16.7222 18.6184 16.6587C18.6522 16.6277 18.686 16.5968 18.7208 16.5649C18.8166 16.477 18.9122 16.3889 19.0077 16.3008C19.9677 15.4239 19.9677 15.4239 20.3928 15.5163Z" fill="black"/>
</g>
<defs>
<clipPath id="clip0_6026_49285">
<rect width="35" height="35" fill="white" transform="translate(0.5)"/>
</clipPath>
</defs>
</svg>
