<svg width="35" height="35" viewBox="0 0 35 35" fill="none" xmlns="http://www.w3.org/2000/svg">
<g clip-path="url(#clip0_6026_49297)">
<path d="M15.3713 19.4901C15.7893 19.7759 16.1844 20.0816 16.5728 20.4031C16.6405 20.458 16.7082 20.5129 16.778 20.5694C17.1988 20.9169 17.5706 21.2816 17.9219 21.6932C17.9564 21.7334 17.991 21.7735 18.0266 21.8149C19.8969 23.9952 21.1963 26.5645 20.9573 29.4338C20.8036 30.5007 20.1179 31.4152 19.2709 32.0946C18.8653 32.3698 18.4509 32.6077 18.0062 32.8203C21.3173 32.8203 24.6284 32.8203 28.0399 32.8203C27.9842 32.7138 27.9286 32.6074 27.8712 32.4978C27.7642 32.0636 27.7733 31.6279 27.7728 31.1844C27.7725 31.1053 27.7722 31.0262 27.7719 30.9447C27.7715 30.7781 27.7713 30.6116 27.7713 30.445C27.7711 30.19 27.7696 29.9351 27.768 29.6801C27.7677 29.518 27.7676 29.3559 27.7675 29.1938C27.7669 29.1176 27.7663 29.0414 27.7657 28.9629C27.7659 28.8919 27.7662 28.8208 27.7664 28.7476C27.7663 28.6853 27.7662 28.623 27.7661 28.5589C27.7899 28.3611 27.8479 28.2326 27.9556 28.0631C28.2412 27.8638 28.5178 27.8851 28.862 27.8917C28.9607 27.8932 29.0593 27.8946 29.161 27.8961C29.2362 27.898 29.3115 27.8999 29.3889 27.9018C28.9547 26.4219 28.9547 26.4219 28.0557 25.1805C27.8712 24.9991 27.8712 24.9991 27.7817 24.7572C27.7869 24.5153 27.7869 24.5153 27.9134 24.2835C28.1242 24.1122 28.1242 24.1122 28.3982 24.0517C28.8464 24.1374 29.0745 24.372 29.3889 24.6766C29.4933 24.7739 29.4933 24.7739 29.5997 24.8731C29.6415 24.9147 29.6832 24.9563 29.7262 24.9991C29.7356 24.9056 29.7449 24.812 29.7545 24.7156C29.8007 24.3661 29.8995 24.0569 30.0319 23.7292C30.0652 23.6457 30.0652 23.6457 30.0992 23.5605C30.3142 23.0401 30.5862 22.5647 30.9066 22.0964C30.972 21.9988 30.972 21.9988 31.0387 21.8992C31.2317 21.6303 31.3659 21.475 31.6708 21.3203C31.9574 21.2853 32.0916 21.3127 32.34 21.4513C32.5375 21.7346 32.5478 21.8435 32.5087 22.177C32.3789 22.3843 32.3789 22.3843 32.203 22.5903C31.5924 23.3537 31.2555 24.1571 30.991 25.0797C31.0188 25.1063 31.0466 25.1329 31.0753 25.1604C31.1351 25.1195 31.1351 25.1195 31.1962 25.0778C31.6129 24.8091 32.0016 24.6311 32.5087 24.5959C32.8443 24.6711 32.9045 24.7203 33.0989 24.9991C33.0839 25.2665 33.0693 25.4792 32.9197 25.7097C32.7616 25.8054 32.7616 25.8054 32.477 25.876C31.9571 26.0303 31.7014 26.3973 31.4297 26.8265C31.2444 27.1705 31.1172 27.5349 30.991 27.9018C31.1571 27.8976 31.1571 27.8976 31.3266 27.8933C31.4729 27.891 31.6193 27.8888 31.7656 27.8867C31.8385 27.8847 31.9114 27.8826 31.9865 27.8805C32.3981 27.876 32.683 27.8813 33.0146 28.1437C33.1146 28.335 33.1106 28.4536 33.1125 28.667C33.1133 28.7422 33.1141 28.8173 33.1149 28.8947C33.1155 29.017 33.1155 29.017 33.116 29.1418C33.1165 29.2258 33.117 29.3097 33.1175 29.3962C33.1183 29.5744 33.1188 29.7526 33.1191 29.9308C33.12 30.2018 33.1226 30.4726 33.1252 30.7436C33.1258 30.9168 33.1262 31.0901 33.1266 31.2634C33.1276 31.3438 33.1286 31.4242 33.1297 31.5071C33.128 32.0147 33.0477 32.4307 32.8459 32.9009C32.9285 32.8992 33.011 32.8975 33.096 32.8958C33.4027 32.8899 33.7094 32.8863 34.0162 32.8832C34.1489 32.8816 34.2815 32.8794 34.4142 32.8766C34.605 32.8727 34.7959 32.8708 34.9868 32.8694C35.0459 32.8678 35.105 32.8661 35.1659 32.8644C35.4523 32.8642 35.6027 32.8825 35.8345 33.049C35.9657 33.2234 35.9657 33.2234 36.0078 33.4653C35.955 33.7684 35.8822 33.8447 35.6284 34.0297C35.3544 34.0702 35.3544 34.0702 35.0216 34.0703C34.9601 34.0708 34.8986 34.0713 34.8352 34.0718C34.628 34.0729 34.4209 34.0718 34.2137 34.0707C34.0641 34.0711 33.9145 34.0716 33.7649 34.0722C33.3529 34.0736 32.941 34.0729 32.529 34.0719C32.085 34.0712 31.6411 34.0723 31.1971 34.0732C30.3271 34.0746 29.4571 34.0743 28.587 34.0734C27.8801 34.0727 27.1732 34.0726 26.4664 34.0729C26.3659 34.073 26.2654 34.073 26.1619 34.0731C25.9578 34.0732 25.7537 34.0733 25.5496 34.0734C23.6342 34.0743 21.7188 34.0732 19.8034 34.0715C18.1588 34.0701 16.5141 34.0703 14.8694 34.0718C12.961 34.0735 11.0527 34.0742 9.14431 34.0732C8.94094 34.0731 8.73758 34.073 8.53421 34.0729C8.43414 34.0729 8.33407 34.0728 8.23097 34.0728C7.52466 34.0725 6.81834 34.0729 6.11203 34.0737C5.25166 34.0746 4.3913 34.0744 3.53093 34.0726C3.09168 34.0718 2.65244 34.0715 2.21318 34.0725C1.81146 34.0735 1.40978 34.073 1.00806 34.0712C0.862354 34.0709 0.716647 34.0711 0.570944 34.0719C0.373576 34.0728 0.176325 34.0718 -0.021036 34.0703C-0.130863 34.0703 -0.24069 34.0702 -0.353845 34.0702C-0.674409 34.0229 -0.775279 33.9547 -0.965088 33.7072C-1.01368 33.4284 -1.00929 33.2887 -0.847752 33.0501C-0.50668 32.8187 -0.173558 32.8523 0.235109 32.8518C0.318849 32.8504 0.402589 32.8491 0.488867 32.8477C0.756045 32.8438 1.02318 32.8421 1.29039 32.8404C1.47165 32.8382 1.65291 32.8358 1.83416 32.8332C2.27825 32.8272 2.72232 32.8231 3.16643 32.8203C3.09951 32.7843 3.03258 32.7483 2.96363 32.7112C1.68081 32.0104 0.78839 31.1909 0.299664 29.8319C-0.240046 27.5381 0.780011 25.2384 1.986 23.3059C2.50064 22.5525 3.10578 21.8581 3.75665 21.2095C3.83165 21.1326 3.90664 21.0558 3.98391 20.9767C7.03469 17.9064 11.6208 17.0485 15.3713 19.4901ZM5.27435 21.4513C5.20506 21.5131 5.20506 21.5131 5.13437 21.5761C3.24105 23.2806 1.60219 25.6918 1.39578 28.2243C1.38499 29.1988 1.61459 30.0241 2.28539 30.7711C4.44179 32.8037 8.03931 32.9215 10.8723 32.9153C13.5574 32.896 16.7925 32.6757 18.852 30.8168C19.5164 30.1222 19.8392 29.2234 19.8002 28.2829C19.5381 25.8186 18.169 23.6848 16.4042 21.9351C16.3324 21.8605 16.2607 21.7859 16.1868 21.709C14.7429 20.2497 12.7384 19.2206 10.6127 19.1584C8.56986 19.2321 6.73959 20.1354 5.27435 21.4513ZM29.0517 29.1113C29.0439 29.5274 29.0372 29.9432 29.0332 30.3593C29.0315 30.5007 29.0292 30.6421 29.0262 30.7835C29.0221 30.9873 29.0202 31.191 29.0187 31.3948C29.017 31.4575 29.0153 31.5203 29.0135 31.5849C29.0133 32.0079 29.1 32.2408 29.3889 32.5784C29.8049 32.9279 30.2078 32.9279 30.742 32.9242C31.0716 32.8934 31.2522 32.7883 31.4969 32.5784C31.5473 32.5368 31.5977 32.4952 31.6497 32.4524C31.9058 32.156 31.8448 31.7802 31.8424 31.4184C31.8422 31.3525 31.8421 31.2866 31.842 31.2188C31.8415 31.0084 31.8405 30.7981 31.8394 30.5878C31.839 30.4452 31.8386 30.3026 31.8382 30.1599C31.8374 29.8104 31.8357 29.4608 31.8341 29.1113C30.9159 29.1113 29.9977 29.1113 29.0517 29.1113Z" fill="black"/>
<path d="M30.3494 1.07422C30.7992 1.08709 30.7992 1.08709 30.9962 1.2215C31.2004 1.5482 31.1738 1.88032 31.1721 2.25141C31.1721 2.31737 31.1721 2.38333 31.1721 2.45129C31.1721 2.6694 31.1714 2.88751 31.1708 3.10562C31.1707 3.25681 31.1705 3.408 31.1705 3.55919C31.1702 3.9572 31.1694 4.35521 31.1685 4.75323C31.1676 5.15933 31.1673 5.56544 31.1669 5.97156C31.166 6.76845 31.1646 7.56535 31.1629 8.36225C31.2645 8.3741 31.366 8.38595 31.4707 8.39816C32.2648 8.4908 32.9203 8.89494 33.5074 9.42089C33.5621 9.46561 33.6169 9.51033 33.6732 9.5564C34.4306 10.2289 34.8868 11.3098 34.9927 12.3105C34.9944 12.3983 34.9962 12.486 34.998 12.5765C35.0029 12.7094 35.0029 12.7094 35.0078 12.8449C34.9627 13.0854 34.9627 13.0854 34.7922 13.2613C34.5061 13.4447 34.343 13.449 34.0061 13.443C33.9016 13.4419 33.7971 13.4409 33.6895 13.4398C33.58 13.4371 33.4704 13.4343 33.3609 13.4315C33.2498 13.4299 33.1387 13.4284 33.0276 13.4271C32.7563 13.4232 32.4851 13.4179 32.2139 13.4112C32.2048 13.5115 32.1958 13.6119 32.1864 13.7153C32.1247 14.2059 31.8892 14.5252 31.5033 14.8274C31.0634 15.0863 30.6098 15.1109 30.1119 15.0398C29.6764 14.9122 29.3798 14.6629 29.0792 14.3289C28.925 14.0414 28.878 13.7304 28.8184 13.4112C28.7495 13.4133 28.6806 13.4154 28.6096 13.4176C28.3527 13.4246 28.0959 13.4297 27.8389 13.4335C27.7279 13.4356 27.617 13.4383 27.5061 13.4419C27.3462 13.4468 27.1862 13.4489 27.0262 13.4509C26.882 13.4541 26.882 13.4541 26.735 13.4574C26.3989 13.3979 26.2817 13.2666 26.0696 13.004C25.8429 12.2347 26.2866 11.1443 26.6431 10.4779C27.3147 9.42031 28.2512 8.72474 29.4582 8.39279C29.6268 8.36225 29.6268 8.36225 29.9502 8.36225C29.9497 8.27625 29.9492 8.19026 29.9486 8.10166C29.9437 7.29165 29.94 6.48164 29.9377 5.67162C29.9364 5.25517 29.9347 4.83873 29.9319 4.42228C29.9293 4.02046 29.9278 3.61866 29.9272 3.21684C29.9268 3.06346 29.9259 2.91008 29.9246 2.7567C29.9228 2.54203 29.9226 2.32742 29.9227 2.11274C29.9218 2.04919 29.9209 1.98563 29.9201 1.92015C29.9216 1.65539 29.9331 1.47104 30.0634 1.23799C30.1928 1.11462 30.1928 1.11462 30.3494 1.07422ZM28.0655 10.5762C27.6805 11.0403 27.3632 11.5756 27.3632 12.1897C29.4708 12.1897 31.5785 12.1897 33.75 12.1897C33.4436 11.1609 33.0443 10.4621 32.1242 9.88373C30.7419 9.15247 29.1381 9.44312 28.0655 10.5762ZM30.0311 13.4112C30.1587 13.7111 30.1587 13.7111 30.2736 13.8183C30.6143 13.853 30.6143 13.853 30.9103 13.7064C31.0166 13.5785 31.0166 13.5785 31.0012 13.4112C30.6811 13.4112 30.3609 13.4112 30.0311 13.4112Z" fill="black"/>
<path d="M3.62292 27.0808C3.92567 27.1045 3.92567 27.1045 4.10398 27.2307C4.2848 27.445 4.30361 27.5771 4.33104 27.8456C4.42274 28.437 4.62848 28.8124 5.14691 29.1757C6.58477 29.9841 8.58532 29.8674 10.2003 29.8648C10.5071 29.8646 10.8138 29.8664 11.1205 29.8683C13.798 29.9269 13.798 29.9269 16.19 28.9804C16.6201 28.5668 16.6986 28.0881 16.767 27.5329C16.8204 27.3117 16.8616 27.2324 17.0617 27.1045C17.2208 27.0742 17.2208 27.0742 17.3901 27.076C17.4739 27.0751 17.4739 27.0751 17.5594 27.0742C17.7727 27.1148 17.8409 27.1667 17.9648 27.3325C18.0919 28.0694 17.9394 28.8289 17.4789 29.4427C16.4618 30.5576 14.968 30.8626 13.4623 31.0026C12.5886 31.0687 11.7161 31.0711 10.8399 31.071C10.5786 31.0712 10.3173 31.0726 10.0559 31.074C9.21542 31.0762 8.38172 31.0593 7.54417 30.9908C7.47295 30.985 7.40174 30.9793 7.32837 30.9733C6.24247 30.8739 5.17086 30.6336 4.25407 30.0688C4.17787 30.0234 4.10167 29.9779 4.02316 29.9311C3.35505 29.3125 3.10173 28.6264 3.00781 27.7758C3.03463 27.3846 3.20199 27.1175 3.62292 27.0808Z" fill="black"/>
<path d="M17.2233 7.34895C17.6915 7.61933 17.9259 7.89336 18.0018 8.33132C18.0339 8.85594 17.9491 9.23143 17.4755 9.63194C17.0673 9.92344 16.6211 10.0355 16.0576 10.0742C15.3512 10.0291 14.8491 9.84355 14.3745 9.45049C14.0307 9.1239 13.9923 8.78345 14.012 8.37716C14.0901 7.95033 14.3224 7.63242 14.7774 7.36383C15.5457 6.98843 16.449 6.97222 17.2233 7.34895ZM15.2721 8.30132C15.1811 8.4813 15.1802 8.57245 15.2415 8.75872C15.3833 8.94494 15.5158 9.0362 15.7618 9.14808C16.1034 9.19657 16.2243 9.16057 16.5217 9.02333C16.7845 8.81043 16.8362 8.70935 16.8226 8.42228C16.6407 8.16475 16.6407 8.16475 16.333 7.9989C15.8199 7.9615 15.5954 7.97455 15.2721 8.30132Z" fill="black"/>
<path d="M8.32909 11.1251C8.41391 11.4065 8.41391 11.4065 8.47045 11.6878C8.53341 11.5715 8.5828 11.4654 8.63478 11.2799C8.72623 11.0511 8.78892 11.0651 8.89454 11.1251C8.96522 11.3643 8.96522 11.3643 9.00763 11.6878C9.01014 12.1669 8.98749 12.3267 8.90691 12.6866C8.8728 12.805 8.8728 12.805 8.83799 12.9257C8.86576 13.1723 8.8873 13.3505 8.93871 13.5306C8.99984 13.8056 9.00399 14.0266 9.00763 14.3887C8.97936 14.7052 8.97936 14.7052 8.92281 14.9514C8.83093 15.085 8.83093 15.085 8.7249 15.0639C8.64979 14.8723 8.58843 14.6451 8.527 14.3887C8.45399 14.5242 8.40703 14.639 8.34676 14.86C8.27254 15.0639 8.27254 15.0639 8.18419 15.0569C8.06073 14.8966 8.06073 14.8966 8.01809 14.6138C8.00365 14.2331 7.99699 13.9596 8.0499 13.6247C8.08444 13.4598 8.12179 13.3045 8.15945 13.1508C8.12176 12.8149 8.12176 12.8149 8.05696 12.56C8.00068 12.2749 8.0061 12.028 8.01036 11.6738C8.01809 11.4628 8.01809 11.4628 8.04636 11.2377C8.13903 11.0533 8.22966 11.0389 8.32909 11.1251Z" fill="black"/>
<path d="M33.6424 6.26352C33.8784 6.48112 33.8784 6.48112 34.0078 6.76088C33.9988 7.20485 33.9327 7.43984 33.6805 7.80223C33.3989 8.00428 33.3989 8.00428 33.0411 8.07422C32.5359 7.97948 32.362 7.80079 32.0592 7.38258C31.9907 7.00179 31.9907 7.00179 32.0592 6.63654C32.547 6.0011 32.931 5.94574 33.6424 6.26352Z" fill="black"/>
<path d="M22.3469 15.1333C22.8768 15.2818 22.9095 15.3765 23.0078 15.6065C22.9134 15.8274 22.9134 15.8274 22.5239 15.9851C21.8004 16.1086 21.4215 16.0886 20.6472 16.0167C20.2813 15.9496 20.2813 15.9496 20.0807 15.8274C20.0065 15.632 19.963 15.5091 20.0807 15.3226C20.7633 15.0392 21.3315 15.0328 22.3469 15.1333Z" fill="black"/>
</g>
<defs>
<clipPath id="clip0_6026_49297">
<rect width="35" height="35" fill="white"/>
</clipPath>
</defs>
</svg>
