<svg width="55" height="55" viewBox="0 0 55 55" fill="none" xmlns="http://www.w3.org/2000/svg">
<path d="M18.9062 40.0303C18.4504 40.0303 18.0132 39.8493 17.6909 39.5269C17.3686 39.2046 17.1875 38.7674 17.1875 38.3116V17.6866C17.1877 17.3937 17.2626 17.1058 17.4053 16.85C17.548 16.5943 17.7537 16.3792 18.0029 16.2253C18.252 16.0714 18.5364 15.9837 18.8289 15.9705C19.1215 15.9573 19.4126 16.0191 19.6745 16.15L40.2995 26.4625C40.5846 26.6054 40.8244 26.8248 40.9919 27.0962C41.1594 27.3675 41.2482 27.6802 41.2482 27.9991C41.2482 28.318 41.1594 28.6306 40.9919 28.902C40.8244 29.1733 40.5846 29.3927 40.2995 29.5356L19.6745 39.8481C19.436 39.9677 19.173 40.03 18.9062 40.0303ZM20.625 20.4675V35.5306L35.6881 27.9991L20.625 20.4675Z" fill="white"/>
<path d="M27.5 7.375C31.5793 7.375 35.5669 8.58464 38.9586 10.8509C42.3504 13.1172 44.994 16.3384 46.555 20.1072C48.1161 23.8759 48.5245 28.0229 47.7287 32.0237C46.9329 36.0246 44.9685 39.6996 42.0841 42.5841C39.1996 45.4685 35.5246 47.4329 31.5237 48.2287C27.5229 49.0245 23.3759 48.6161 19.6072 47.055C15.8384 45.494 12.6173 42.8504 10.3509 39.4586C8.08465 36.0669 6.87501 32.0792 6.87501 28C6.87501 22.5299 9.048 17.2839 12.9159 13.4159C16.7839 9.54798 22.0299 7.375 27.5 7.375ZM27.5 3.9375C22.7409 3.9375 18.0887 5.34874 14.1316 7.99276C10.1745 10.6368 7.09039 14.3948 5.26916 18.7917C3.44793 23.1885 2.97141 28.0267 3.89986 32.6944C4.82832 37.362 7.12005 41.6496 10.4853 45.0148C13.8505 48.38 18.138 50.6717 22.8057 51.6001C27.4733 52.5286 32.3115 52.0521 36.7083 50.2309C41.1052 48.4096 44.8632 45.3255 47.5072 41.3684C50.1513 37.4114 51.5625 32.7591 51.5625 28C51.5625 21.6182 49.0274 15.4978 44.5148 10.9852C40.0022 6.47265 33.8818 3.9375 27.5 3.9375Z" fill="white"/>
</svg>
