<svg width="22" height="21" viewBox="0 0 22 21" fill="none" xmlns="http://www.w3.org/2000/svg">
<path d="M3.37598 5.24936H2.06348C1.88943 5.24936 1.72251 5.18022 1.59944 5.05715C1.47637 4.93408 1.40723 4.76716 1.40723 4.59311C1.40723 4.41906 1.47637 4.25214 1.59944 4.12907C1.72251 4.006 1.88943 3.93686 2.06348 3.93686H7.31348V1.9668C7.31348 1.79275 7.38262 1.62583 7.50569 1.50276C7.62876 1.37969 7.79568 1.31055 7.96973 1.31055H13.2197C13.3938 1.31055 13.5607 1.37969 13.6838 1.50276C13.8068 1.62583 13.876 1.79275 13.876 1.9668V3.93686H19.126C19.3 3.93686 19.4669 4.006 19.59 4.12907C19.7131 4.25214 19.7822 4.41906 19.7822 4.59311C19.7822 4.76716 19.7131 4.93408 19.59 5.05715C19.4669 5.18022 19.3 5.24936 19.126 5.24936H17.8135V19.0306C17.8135 19.2047 17.7443 19.3716 17.6213 19.4946C17.4982 19.6177 17.3313 19.6869 17.1572 19.6869H4.03223C3.85818 19.6869 3.69126 19.6177 3.56819 19.4946C3.44512 19.3716 3.37598 19.2047 3.37598 19.0306V5.24936ZM12.5635 3.93686V2.62436H8.62598V3.93686H12.5635ZM4.68848 18.3744H16.501V5.24936H4.68848V18.3744ZM8.62598 15.7494C8.45193 15.7494 8.28501 15.6802 8.16194 15.5571C8.03887 15.4341 7.96973 15.2672 7.96973 15.0931V8.53061C7.96973 8.35656 8.03887 8.18964 8.16194 8.06657C8.28501 7.9435 8.45193 7.87436 8.62598 7.87436C8.80002 7.87436 8.96694 7.9435 9.09002 8.06657C9.21309 8.18964 9.28223 8.35656 9.28223 8.53061V15.0931C9.28223 15.2672 9.21309 15.4341 9.09002 15.5571C8.96694 15.6802 8.80002 15.7494 8.62598 15.7494ZM12.5635 15.7494C12.3894 15.7494 12.2225 15.6802 12.0994 15.5571C11.9764 15.4341 11.9072 15.2672 11.9072 15.0931V8.53061C11.9072 8.35656 11.9764 8.18964 12.0994 8.06657C12.2225 7.9435 12.3894 7.87436 12.5635 7.87436C12.7375 7.87436 12.9044 7.9435 13.0275 8.06657C13.1506 8.18964 13.2197 8.35656 13.2197 8.53061V15.0931C13.2197 15.2672 13.1506 15.4341 13.0275 15.5571C12.9044 15.6802 12.7375 15.7494 12.5635 15.7494Z" fill="#D1D5DB"/>
</svg>
