<svg width="90" height="15" viewBox="0 0 90 15" fill="none" xmlns="http://www.w3.org/2000/svg">
<path fill-rule="evenodd" clip-rule="evenodd" d="M81.2392 0L79.3229 5.7489H73.2437L78.1996 9.31718L76.2833 15L81.2392 11.4978L86.1291 15L84.2789 9.31718L89.2348 5.7489H83.0895L81.2392 0Z" fill="#FFDC0F"/>
<path fill-rule="evenodd" clip-rule="evenodd" d="M62.9282 0L61.0119 5.7489H54.9326L59.8886 9.31718L57.9723 15L62.9282 11.4978L67.8181 15L65.9679 9.31718L70.9238 5.7489H64.7784L62.9282 0Z" fill="#FFDC0F"/>
<path fill-rule="evenodd" clip-rule="evenodd" d="M44.6177 0L42.7014 5.7489H36.6221L41.578 9.31718L39.6617 15L44.6177 11.4978L49.5075 15L47.6573 9.31718L52.6133 5.7489H46.4679L44.6177 0Z" fill="#FFDC0F"/>
<path fill-rule="evenodd" clip-rule="evenodd" d="M26.3066 0L24.3903 5.7489H18.311L23.267 9.31718L21.3507 15L26.3066 11.4978L31.1965 15L29.3463 9.31718L34.3022 5.7489H28.1568L26.3066 0Z" fill="#FFDC0F"/>
<path fill-rule="evenodd" clip-rule="evenodd" d="M7.99559 0L6.0793 5.7489H0L4.95595 9.31718L3.03965 15L7.99559 11.4978L12.8855 15L11.0352 9.31718L15.9912 5.7489H9.84581L7.99559 0Z" fill="#FFDC0F"/>
</svg>
