<svg width="90" height="16" viewBox="0 0 90 16" fill="none" xmlns="http://www.w3.org/2000/svg">
<path fill-rule="evenodd" clip-rule="evenodd" d="M81.3013 0.5L79.385 6.2489H73.3057L78.2616 9.81718L76.3453 15.5L81.3013 11.9978L86.1911 15.5L84.3409 9.81718L89.2969 6.2489H83.1515L81.3013 0.5Z" fill="#FFDC0F"/>
<path fill-rule="evenodd" clip-rule="evenodd" d="M62.9897 0.5L61.0734 6.2489H54.9941L59.9501 9.81718L58.0338 15.5L62.9897 11.9978L67.8796 15.5L66.0294 9.81718L70.9853 6.2489H64.84L62.9897 0.5Z" fill="#FFDC0F"/>
<path fill-rule="evenodd" clip-rule="evenodd" d="M44.6792 0.5L42.7629 6.2489H36.6836L41.6395 9.81718L39.7232 15.5L44.6792 11.9978L49.5691 15.5L47.7188 9.81718L52.6748 6.2489H46.5294L44.6792 0.5Z" fill="#FFDC0F"/>
<path fill-rule="evenodd" clip-rule="evenodd" d="M26.3677 0.5L24.4514 6.2489H18.3721L23.328 9.81718L21.4117 15.5L26.3677 11.9978L31.2575 15.5L29.4073 9.81718L34.3633 6.2489H28.2179L26.3677 0.5Z" fill="#FFDC0F"/>
<path fill-rule="evenodd" clip-rule="evenodd" d="M8.05712 0.5L6.14082 6.2489H0.0615234L5.01747 9.81718L3.10117 15.5L8.05712 11.9978L12.947 15.5L11.0968 9.81718L16.0527 6.2489H9.90734L8.05712 0.5Z" fill="#FFDC0F"/>
</svg>
