<svg width="35" height="35" viewBox="0 0 35 35" fill="none" xmlns="http://www.w3.org/2000/svg">
<path d="M4.55354 1.05798C4.59901 1.05759 4.64449 1.05719 4.69135 1.05678C4.84443 1.05578 4.99743 1.05673 5.15051 1.05767C5.26109 1.05736 5.37166 1.05692 5.48223 1.05638C5.78662 1.05523 6.09099 1.0558 6.39537 1.05665C6.72343 1.05727 7.05148 1.05631 7.37954 1.05556C8.02241 1.05434 8.66527 1.05461 9.30815 1.0554C9.83048 1.05602 10.3528 1.0561 10.8751 1.0558C10.9494 1.05576 11.0237 1.05572 11.1002 1.05568C11.251 1.05559 11.4018 1.0555 11.5527 1.05541C12.968 1.05463 14.3834 1.05553 15.7988 1.057C17.014 1.05822 18.2293 1.05801 19.4446 1.05674C20.8548 1.05528 22.265 1.0547 23.6752 1.05554C23.8255 1.05563 23.9758 1.05572 24.126 1.0558C24.237 1.05587 24.237 1.05587 24.3501 1.05593C24.872 1.05617 25.3939 1.05577 25.9158 1.05512C26.5516 1.05436 27.1873 1.05456 27.823 1.05602C28.1476 1.05674 28.4721 1.05702 28.7967 1.05612C29.0936 1.05531 29.3904 1.05575 29.6872 1.05721C29.7949 1.05751 29.9025 1.05735 30.0101 1.05669C30.156 1.05587 30.3018 1.05671 30.4477 1.05798C30.5288 1.05803 30.61 1.05807 30.6936 1.05812C30.899 1.09239 30.899 1.09239 31.0618 1.20092C31.2131 1.42634 31.2067 1.5806 31.2069 1.85137C31.2073 1.90054 31.2077 1.94971 31.2081 2.00037C31.2091 2.16602 31.2081 2.33159 31.2072 2.49723C31.2075 2.61683 31.2079 2.73642 31.2085 2.85602C31.2096 3.18535 31.2091 3.51466 31.2082 3.84398C31.2076 4.19888 31.2086 4.55377 31.2093 4.90867C31.2105 5.60418 31.2103 6.29968 31.2095 6.99519C31.2088 7.56028 31.2088 8.12537 31.2091 8.69046C31.2091 8.77079 31.2091 8.85112 31.2092 8.93388C31.2093 9.09704 31.2094 9.26021 31.2095 9.42337C31.2102 10.9545 31.2093 12.4857 31.2079 14.0169C31.2066 15.3316 31.2069 16.6464 31.2081 17.9611C31.2096 19.4867 31.2102 21.0123 31.2093 22.5378C31.2092 22.7004 31.2091 22.863 31.2091 23.0256C31.209 23.1456 31.209 23.1456 31.2089 23.268C31.2087 23.8326 31.2091 24.3972 31.2097 24.9619C31.2105 25.6496 31.2103 26.3374 31.2088 27.0252C31.2081 27.3763 31.2078 27.7275 31.2087 28.0786C31.2096 28.3998 31.2091 28.7209 31.2077 29.042C31.2074 29.1585 31.2075 29.2749 31.2082 29.3914C31.209 29.5492 31.2082 29.7069 31.2069 29.8647C31.2068 29.9525 31.2068 30.0403 31.2067 30.1307C31.1725 30.3502 31.1725 30.3502 31.0474 30.5156C30.8395 30.667 30.6914 30.6509 30.4376 30.6407C30.3576 30.6383 30.2776 30.6358 30.1951 30.6333C30.1342 30.6301 30.0732 30.6269 30.0104 30.6236C30.0073 30.6658 30.0043 30.7079 30.0011 30.7513C29.9594 31.2672 29.8867 31.7755 29.8021 32.286C29.7795 32.4232 29.7579 32.5606 29.7364 32.6981C29.7219 32.7859 29.7075 32.8737 29.6926 32.9642C29.6798 33.0431 29.667 33.1221 29.6538 33.2035C29.597 33.4395 29.5173 33.6271 29.3951 33.8365C29.1662 33.951 28.9084 33.919 28.6565 33.9212C28.5967 33.9217 28.5368 33.9223 28.4752 33.9229C28.3484 33.9238 28.2216 33.9245 28.0949 33.9251C27.901 33.9262 27.7072 33.9292 27.5134 33.9323C27.3903 33.933 27.2672 33.9335 27.1441 33.934C27.0861 33.9352 27.0281 33.9364 26.9684 33.9376C26.5685 33.9362 26.5685 33.9362 26.3535 33.7849C26.2473 33.6266 26.2033 33.5207 26.1713 33.334C26.1609 33.2764 26.1504 33.2187 26.1397 33.1593C26.1298 33.098 26.1198 33.0367 26.1096 32.9735C26.093 32.8786 26.093 32.8786 26.076 32.7818C26.0533 32.651 26.0311 32.5201 26.0093 32.3892C25.9788 32.2058 25.9469 32.0227 25.9144 31.8397C25.8954 31.7306 25.8764 31.6215 25.8575 31.5123C25.8444 31.437 25.8444 31.437 25.8311 31.3602C25.789 31.1076 25.7721 30.8818 25.7721 30.6236C20.3129 30.6236 14.8537 30.6236 9.22911 30.6236C9.20655 30.8718 9.18399 31.1199 9.16075 31.3756C9.11985 31.6801 9.07106 31.9829 9.02083 32.286C8.99825 32.4232 8.97669 32.5606 8.95514 32.6981C8.94069 32.7859 8.92624 32.8737 8.91135 32.9642C8.89854 33.0431 8.88573 33.1221 8.87253 33.2035C8.81579 33.4395 8.73608 33.6271 8.61388 33.8365C8.38496 33.951 8.12714 33.919 7.87528 33.9212C7.81543 33.9217 7.75558 33.9223 7.69391 33.9229C7.56715 33.9238 7.44038 33.9245 7.31361 33.9251C7.11975 33.9262 6.92597 33.9292 6.73213 33.9323C6.60903 33.933 6.48593 33.9335 6.36282 33.934C6.30485 33.9352 6.24688 33.9364 6.18716 33.9376C5.78722 33.9362 5.78722 33.9362 5.57227 33.7849C5.46608 33.6266 5.42204 33.5207 5.39004 33.334C5.37962 33.2764 5.3692 33.2187 5.35846 33.1593C5.34853 33.098 5.33859 33.0367 5.32835 32.9735C5.31727 32.9102 5.30619 32.847 5.29478 32.7818C5.27204 32.651 5.2498 32.5201 5.22805 32.3892C5.19755 32.2058 5.1656 32.0227 5.13316 31.8397C5.11412 31.7306 5.09516 31.6215 5.07628 31.5123C5.06755 31.4621 5.05882 31.4119 5.04983 31.3602C5.00854 31.1121 4.981 30.8752 4.99083 30.6236C4.92985 30.6268 4.86887 30.63 4.80605 30.6333C4.72603 30.6357 4.64602 30.6382 4.56358 30.6407C4.48428 30.6439 4.40497 30.6471 4.32326 30.6503C4.10216 30.6236 4.10216 30.6236 3.95377 30.5156C3.78368 30.2906 3.79445 30.1454 3.79431 29.8647C3.79391 29.8155 3.79352 29.7663 3.79311 29.7157C3.79211 29.55 3.79306 29.3844 3.794 29.2188C3.79368 29.0992 3.79325 28.9796 3.79271 28.86C3.79156 28.5307 3.79213 28.2014 3.79298 27.8721C3.79359 27.5172 3.79264 27.1623 3.79189 26.8074C3.79067 26.1119 3.79094 25.4164 3.79173 24.7208C3.79234 24.1558 3.79243 23.5907 3.79213 23.0256C3.79209 22.9452 3.79205 22.8649 3.792 22.7822C3.79192 22.619 3.79183 22.4558 3.79174 22.2927C3.79096 20.7615 3.79186 19.2303 3.79332 17.6992C3.79455 16.3844 3.79433 15.0697 3.79307 13.7549C3.79161 12.2293 3.79103 10.7038 3.79187 9.17819C3.79196 9.01561 3.79205 8.85304 3.79213 8.69046C3.79219 8.57047 3.79219 8.57047 3.79226 8.44805C3.7925 7.88342 3.7921 7.3188 3.79145 6.75417C3.79069 6.06639 3.79089 5.37861 3.79235 4.69083C3.79307 4.33969 3.79335 3.98856 3.79245 3.63742C3.79163 3.31628 3.79207 2.99517 3.79353 2.67404C3.79384 2.55756 3.79368 2.44109 3.79302 2.32462C3.79219 2.16683 3.79304 2.00915 3.79431 1.85137C3.79436 1.76358 3.7944 1.67578 3.79445 1.58533C3.82872 1.36583 3.82872 1.36583 3.93938 1.20092C4.15515 1.05706 4.29479 1.05812 4.55354 1.05798ZM4.92247 2.18614C4.92247 11.2096 4.92247 20.233 4.92247 29.5299C13.224 29.5299 21.5256 29.5299 30.0787 29.5299C30.0787 20.5065 30.0787 11.483 30.0787 2.18614C21.7772 2.18614 13.4756 2.18614 4.92247 2.18614ZM6.15294 30.6236C6.30472 31.7205 6.30472 31.7205 6.49474 32.8111C6.90079 32.8111 7.30685 32.8111 7.72521 32.8111C7.77404 32.5326 7.82277 32.254 7.87124 31.9754C7.88775 31.8807 7.90433 31.7859 7.92097 31.6912C7.94489 31.5549 7.96856 31.4187 7.99223 31.2824C8.00655 31.2004 8.02087 31.1184 8.03563 31.034C8.07217 30.8295 8.07217 30.8295 8.067 30.6236C7.43536 30.6236 6.80372 30.6236 6.15294 30.6236ZM26.9342 30.6236C27.086 31.7205 27.086 31.7205 27.276 32.8111C27.682 32.8111 28.0881 32.8111 28.5065 32.8111C28.5553 32.5326 28.604 32.254 28.6525 31.9754C28.669 31.8807 28.6856 31.7859 28.7022 31.6912C28.7261 31.5549 28.7498 31.4187 28.7735 31.2824C28.7878 31.2004 28.8021 31.1184 28.8169 31.034C28.8534 30.8295 28.8534 30.8295 28.8483 30.6236C28.2166 30.6236 27.585 30.6236 26.9342 30.6236Z" fill="#34A853"/>
<path d="M6.67249 20.7455C6.75097 20.7448 6.82945 20.7441 6.91031 20.7433C7.0397 20.7442 7.0397 20.7442 7.1717 20.7452C7.26423 20.7449 7.35676 20.7444 7.44928 20.7439C7.70379 20.7427 7.95827 20.7433 8.21278 20.7441C8.48715 20.7448 8.76152 20.7438 9.0359 20.7431C9.57349 20.7418 10.1111 20.7421 10.6487 20.7429C11.0855 20.7435 11.5223 20.7436 11.9591 20.7433C12.0212 20.7433 12.0834 20.7432 12.1473 20.7432C12.2735 20.7431 12.3997 20.743 12.5259 20.7429C13.7096 20.7421 14.8934 20.743 16.0772 20.7445C17.0935 20.7457 18.1098 20.7455 19.126 20.7442C20.3055 20.7428 21.485 20.7422 22.6645 20.743C22.7902 20.7431 22.9159 20.7432 23.0416 20.7433C23.1035 20.7433 23.1653 20.7434 23.2291 20.7434C23.6655 20.7437 24.1019 20.7433 24.5383 20.7426C25.07 20.7419 25.6017 20.7421 26.1333 20.7435C26.4047 20.7442 26.6761 20.7445 26.9475 20.7436C27.1958 20.7428 27.444 20.7432 27.6923 20.7447C27.825 20.7452 27.9577 20.7443 28.0904 20.7433C28.2082 20.7444 28.2082 20.7444 28.3283 20.7455C28.3961 20.7455 28.464 20.7456 28.5339 20.7456C28.7608 20.7894 28.8422 20.8753 28.9848 21.0533C29.0192 21.1972 29.0192 21.1972 29.0195 21.3543C29.0206 21.444 29.0206 21.444 29.0218 21.5355C29.021 21.6331 29.021 21.6331 29.0201 21.7327C29.0209 21.8361 29.0209 21.8361 29.0216 21.9416C29.0228 22.1696 29.022 22.3976 29.0211 22.6256C29.0213 22.7839 29.0215 22.9423 29.0219 23.1006C29.0223 23.4326 29.0217 23.7645 29.0204 24.0964C29.0188 24.5221 29.0197 24.9478 29.0214 25.3736C29.0224 25.7006 29.0221 26.0276 29.0213 26.3546C29.0212 26.5115 29.0214 26.6685 29.022 26.8255C29.0227 27.0448 29.0217 27.2641 29.0201 27.4834C29.0207 27.5484 29.0212 27.6135 29.0218 27.6806C29.021 27.7404 29.0203 27.8002 29.0195 27.8618C29.0193 27.9395 29.0193 27.9395 29.0192 28.0188C28.9698 28.2252 28.8741 28.3027 28.7113 28.4361C28.5339 28.4704 28.5339 28.4704 28.3283 28.4706C28.2498 28.4713 28.1713 28.472 28.0904 28.4727C28.0042 28.4721 27.9179 28.4715 27.8291 28.4709C27.7365 28.4712 27.644 28.4716 27.5515 28.4722C27.297 28.4733 27.0425 28.4727 26.788 28.4719C26.5136 28.4713 26.2392 28.4722 25.9649 28.473C25.4273 28.4742 24.8897 28.4739 24.3521 28.4731C23.9153 28.4725 23.4784 28.4724 23.0416 28.4727C22.9795 28.4728 22.9174 28.4728 22.8534 28.4729C22.7272 28.4729 22.6011 28.473 22.4749 28.4731C21.2911 28.4739 20.1073 28.473 18.9235 28.4715C17.9073 28.4703 16.891 28.4705 15.8747 28.4718C14.6952 28.4733 13.5157 28.4738 12.3363 28.473C12.2106 28.4729 12.0848 28.4728 11.9591 28.4727C11.8973 28.4727 11.8354 28.4726 11.7717 28.4726C11.3353 28.4724 10.8988 28.4728 10.4624 28.4734C9.93076 28.4742 9.3991 28.474 8.86743 28.4725C8.59603 28.4718 8.32465 28.4715 8.05326 28.4724C7.80497 28.4732 7.55673 28.4728 7.30845 28.4713C7.17574 28.4709 7.04302 28.4718 6.91031 28.4727C6.79259 28.4716 6.79259 28.4716 6.67249 28.4706C6.60463 28.4705 6.53677 28.4705 6.46685 28.4704C6.24 28.4266 6.15851 28.3407 6.016 28.1627C5.98159 28.0188 5.98159 28.0188 5.98128 27.8618C5.98051 27.802 5.97974 27.7422 5.97894 27.6806C5.9795 27.6155 5.98005 27.5504 5.98062 27.4834C5.98014 27.4144 5.97966 27.3455 5.97917 27.2745C5.97796 27.0464 5.97876 26.8185 5.97969 26.5904C5.9795 26.4321 5.97924 26.2737 5.97889 26.1154C5.97849 25.7835 5.97908 25.4516 5.98035 25.1196C5.98191 24.6939 5.98101 24.2682 5.97938 23.8425C5.97839 23.5155 5.9787 23.1885 5.97941 22.8615C5.97959 22.7045 5.97937 22.5475 5.97873 22.3905C5.97804 22.1712 5.9791 21.952 5.98062 21.7327C5.98007 21.6676 5.97951 21.6025 5.97894 21.5355C5.97971 21.4757 5.98048 21.4159 5.98128 21.3543C5.98138 21.3025 5.98149 21.2506 5.98159 21.1972C6.069 20.8317 6.32918 20.7457 6.67249 20.7455ZM7.10975 21.8736C7.10975 23.6783 7.10975 25.483 7.10975 27.3424C13.9676 27.3424 20.8254 27.3424 27.891 27.3424C27.891 25.5377 27.891 23.733 27.891 21.8736C21.0332 21.8736 14.1754 21.8736 7.10975 21.8736Z" fill="#34A853"/>
<path d="M6.67249 11.9955C6.75097 11.9948 6.82945 11.9941 6.91031 11.9933C7.0397 11.9942 7.0397 11.9942 7.1717 11.9952C7.26423 11.9949 7.35676 11.9944 7.44928 11.9939C7.70379 11.9927 7.95827 11.9933 8.21278 11.9941C8.48715 11.9948 8.76152 11.9938 9.0359 11.9931C9.57349 11.9918 10.1111 11.9921 10.6487 11.9929C11.0855 11.9935 11.5223 11.9936 11.9591 11.9933C12.0212 11.9933 12.0834 11.9932 12.1473 11.9932C12.2735 11.9931 12.3997 11.993 12.5259 11.9929C13.7096 11.9921 14.8934 11.993 16.0772 11.9945C17.0935 11.9957 18.1098 11.9955 19.126 11.9942C20.3055 11.9928 21.485 11.9922 22.6645 11.993C22.7902 11.9931 22.9159 11.9932 23.0416 11.9933C23.1035 11.9933 23.1653 11.9934 23.2291 11.9934C23.6655 11.9937 24.1019 11.9933 24.5383 11.9926C25.07 11.9919 25.6017 11.9921 26.1333 11.9935C26.4047 11.9942 26.6761 11.9945 26.9475 11.9936C27.1958 11.9928 27.444 11.9932 27.6923 11.9947C27.825 11.9952 27.9577 11.9943 28.0904 11.9933C28.2082 11.9944 28.2082 11.9944 28.3283 11.9955C28.3961 11.9955 28.464 11.9956 28.5339 11.9956C28.7608 12.0394 28.8422 12.1253 28.9848 12.3033C29.0192 12.4472 29.0192 12.4472 29.0195 12.6043C29.0206 12.694 29.0206 12.694 29.0218 12.7855C29.021 12.8831 29.021 12.8831 29.0201 12.9827C29.0209 13.0861 29.0209 13.0861 29.0216 13.1916C29.0228 13.4196 29.022 13.6476 29.0211 13.8756C29.0213 14.0339 29.0215 14.1923 29.0219 14.3506C29.0223 14.6826 29.0217 15.0145 29.0204 15.3464C29.0188 15.7721 29.0197 16.1978 29.0214 16.6236C29.0224 16.9506 29.0221 17.2776 29.0213 17.6046C29.0212 17.7615 29.0214 17.9185 29.022 18.0755C29.0227 18.2948 29.0217 18.5141 29.0201 18.7334C29.0207 18.7984 29.0212 18.8635 29.0218 18.9306C29.021 18.9904 29.0203 19.0502 29.0195 19.1118C29.0193 19.1895 29.0193 19.1895 29.0192 19.2688C28.9698 19.4752 28.8741 19.5527 28.7113 19.6861C28.5339 19.7204 28.5339 19.7204 28.3283 19.7206C28.2498 19.7213 28.1713 19.722 28.0904 19.7227C28.0042 19.7221 27.9179 19.7215 27.8291 19.7209C27.7365 19.7212 27.644 19.7216 27.5515 19.7222C27.297 19.7233 27.0425 19.7227 26.788 19.7219C26.5136 19.7213 26.2392 19.7222 25.9649 19.723C25.4273 19.7242 24.8897 19.7239 24.3521 19.7231C23.9153 19.7225 23.4784 19.7224 23.0416 19.7227C22.9795 19.7228 22.9174 19.7228 22.8534 19.7229C22.7272 19.7229 22.6011 19.723 22.4749 19.7231C21.2911 19.7239 20.1073 19.723 18.9235 19.7215C17.9073 19.7203 16.891 19.7205 15.8747 19.7218C14.6952 19.7233 13.5157 19.7238 12.3363 19.723C12.2106 19.7229 12.0848 19.7228 11.9591 19.7227C11.8973 19.7227 11.8354 19.7226 11.7717 19.7226C11.3353 19.7224 10.8988 19.7228 10.4624 19.7234C9.93076 19.7242 9.3991 19.724 8.86743 19.7225C8.59603 19.7218 8.32465 19.7215 8.05326 19.7224C7.80497 19.7232 7.55673 19.7228 7.30845 19.7213C7.17574 19.7209 7.04302 19.7218 6.91031 19.7227C6.79259 19.7216 6.79259 19.7216 6.67249 19.7206C6.60463 19.7205 6.53677 19.7205 6.46685 19.7204C6.24 19.6766 6.15851 19.5907 6.016 19.4127C5.98159 19.2688 5.98159 19.2688 5.98128 19.1118C5.98051 19.052 5.97974 18.9922 5.97894 18.9306C5.9795 18.8655 5.98005 18.8004 5.98062 18.7334C5.98014 18.6644 5.97966 18.5955 5.97917 18.5245C5.97796 18.2964 5.97876 18.0685 5.97969 17.8404C5.9795 17.6821 5.97924 17.5237 5.97889 17.3654C5.97849 17.0335 5.97908 16.7016 5.98035 16.3696C5.98191 15.9439 5.98101 15.5182 5.97938 15.0925C5.97839 14.7655 5.9787 14.4385 5.97941 14.1115C5.97959 13.9545 5.97937 13.7975 5.97873 13.6405C5.97804 13.4212 5.9791 13.202 5.98062 12.9827C5.98007 12.9176 5.97951 12.8525 5.97894 12.7855C5.97971 12.7257 5.98048 12.6659 5.98128 12.6043C5.98138 12.5525 5.98149 12.5006 5.98159 12.4472C6.069 12.0817 6.32918 11.9957 6.67249 11.9955ZM7.10975 13.1236C7.10975 14.9283 7.10975 16.733 7.10975 18.5924C13.9676 18.5924 20.8254 18.5924 27.891 18.5924C27.891 16.7877 27.891 14.983 27.891 13.1236C21.0332 13.1236 14.1754 13.1236 7.10975 13.1236Z" fill="#34A853"/>
<path d="M6.67249 3.24548C6.75097 3.24477 6.82945 3.24406 6.91031 3.24332C7.0397 3.24424 7.0397 3.24424 7.1717 3.24517C7.26423 3.24486 7.35676 3.24442 7.44928 3.24388C7.70379 3.24273 7.95827 3.2433 8.21278 3.24415C8.48715 3.24477 8.76152 3.24381 9.0359 3.24306C9.57349 3.24184 10.1111 3.24211 10.6487 3.2429C11.0855 3.24352 11.5223 3.2436 11.9591 3.2433C12.0212 3.24326 12.0834 3.24322 12.1473 3.24318C12.2735 3.24309 12.3997 3.243 12.5259 3.24291C13.7096 3.24213 14.8934 3.24303 16.0772 3.2445C17.0935 3.24572 18.1098 3.24551 19.126 3.24424C20.3055 3.24278 21.485 3.2422 22.6645 3.24304C22.7902 3.24313 22.9159 3.24322 23.0416 3.2433C23.1035 3.24334 23.1653 3.24339 23.2291 3.24343C23.6655 3.24367 24.1019 3.24327 24.5383 3.24262C25.07 3.24186 25.6017 3.24206 26.1333 3.24352C26.4047 3.24424 26.6761 3.24452 26.9475 3.24362C27.1958 3.24281 27.444 3.24325 27.6923 3.24471C27.825 3.24516 27.9577 3.24426 28.0904 3.24332C28.2082 3.24439 28.2082 3.24439 28.3283 3.24548C28.3961 3.24553 28.464 3.24557 28.5339 3.24562C28.7608 3.28944 28.8422 3.37532 28.9848 3.55333C29.0192 3.69724 29.0192 3.69724 29.0195 3.85427C29.0206 3.94397 29.0206 3.94397 29.0218 4.03548C29.021 4.13308 29.021 4.13308 29.0201 4.23265C29.0209 4.33607 29.0209 4.33607 29.0216 4.44157C29.0228 4.6696 29.022 4.89757 29.0211 5.1256C29.0213 5.28394 29.0215 5.44229 29.0219 5.60064C29.0223 5.93256 29.0217 6.26447 29.0204 6.59639C29.0188 7.02213 29.0197 7.44783 29.0214 7.87357C29.0224 8.20057 29.0221 8.52756 29.0213 8.85455C29.0212 9.01154 29.0214 9.16854 29.022 9.32553C29.0227 9.54484 29.0217 9.76408 29.0201 9.98338C29.0207 10.0484 29.0212 10.1135 29.0218 10.1806C29.021 10.2404 29.0203 10.3002 29.0195 10.3618C29.0193 10.4395 29.0193 10.4395 29.0192 10.5188C28.9698 10.7252 28.8741 10.8027 28.7113 10.9361C28.5339 10.9704 28.5339 10.9704 28.3283 10.9706C28.2498 10.9713 28.1713 10.972 28.0904 10.9727C28.0042 10.9721 27.9179 10.9715 27.8291 10.9709C27.7365 10.9712 27.644 10.9716 27.5515 10.9722C27.297 10.9733 27.0425 10.9727 26.788 10.9719C26.5136 10.9713 26.2392 10.9722 25.9649 10.973C25.4273 10.9742 24.8897 10.9739 24.3521 10.9731C23.9153 10.9725 23.4784 10.9724 23.0416 10.9727C22.9795 10.9728 22.9174 10.9728 22.8534 10.9729C22.7272 10.9729 22.6011 10.973 22.4749 10.9731C21.2911 10.9739 20.1073 10.973 18.9235 10.9715C17.9073 10.9703 16.891 10.9705 15.8747 10.9718C14.6952 10.9733 13.5157 10.9738 12.3363 10.973C12.2106 10.9729 12.0848 10.9728 11.9591 10.9727C11.8973 10.9727 11.8354 10.9726 11.7717 10.9726C11.3353 10.9724 10.8988 10.9728 10.4624 10.9734C9.93076 10.9742 9.3991 10.974 8.86743 10.9725C8.59603 10.9718 8.32465 10.9715 8.05326 10.9724C7.80497 10.9732 7.55673 10.9728 7.30845 10.9713C7.17574 10.9709 7.04302 10.9718 6.91031 10.9727C6.79259 10.9716 6.79259 10.9716 6.67249 10.9706C6.60463 10.9705 6.53677 10.9705 6.46685 10.9704C6.24 10.9266 6.15851 10.8407 6.016 10.6627C5.98159 10.5188 5.98159 10.5188 5.98128 10.3618C5.98051 10.302 5.97974 10.2422 5.97894 10.1806C5.9795 10.1155 5.98005 10.0504 5.98062 9.98338C5.98014 9.91444 5.97966 9.8455 5.97917 9.77447C5.97796 9.54644 5.97876 9.31847 5.97969 9.09044C5.9795 8.93209 5.97924 8.77374 5.97889 8.6154C5.97849 8.28347 5.97908 7.95157 5.98035 7.61964C5.98191 7.1939 5.98101 6.76821 5.97938 6.34246C5.97839 6.01547 5.9787 5.68848 5.97941 5.36148C5.97959 5.20449 5.97937 5.0475 5.97873 4.89051C5.97804 4.6712 5.9791 4.45196 5.98062 4.23265C5.98007 4.16759 5.97951 4.10252 5.97894 4.03548C5.97971 3.97568 5.98048 3.91588 5.98128 3.85427C5.98138 3.80245 5.98149 3.75063 5.98159 3.69724C6.069 3.33168 6.32918 3.24571 6.67249 3.24548ZM7.10975 4.37364C7.10975 6.17833 7.10975 7.98302 7.10975 9.84239C13.9676 9.84239 20.8254 9.84239 27.891 9.84239C27.891 8.03771 27.891 6.23302 27.891 4.37364C21.0332 4.37364 14.1754 4.37364 7.10975 4.37364Z" fill="#34A853"/>
<path d="M14.7656 22.9688C16.5703 22.9688 18.375 22.9688 20.2344 22.9688C20.2344 23.3297 20.2344 23.6906 20.2344 24.0625C18.4297 24.0625 16.625 24.0625 14.7656 24.0625C14.7656 23.7016 14.7656 23.3406 14.7656 22.9688Z" fill="#34A853"/>
<path d="M14.7656 14.2188C16.5703 14.2188 18.375 14.2188 20.2344 14.2188C20.2344 14.5797 20.2344 14.9406 20.2344 15.3125C18.4297 15.3125 16.625 15.3125 14.7656 15.3125C14.7656 14.9516 14.7656 14.5906 14.7656 14.2188Z" fill="#34A853"/>
<path d="M14.7656 5.46875C16.5703 5.46875 18.375 5.46875 20.2344 5.46875C20.2344 5.82969 20.2344 6.19062 20.2344 6.5625C18.4297 6.5625 16.625 6.5625 14.7656 6.5625C14.7656 6.20156 14.7656 5.84063 14.7656 5.46875Z" fill="#34A853"/>
</svg>
