<svg width="35" height="35" viewBox="0 0 35 35" fill="none" xmlns="http://www.w3.org/2000/svg">
<g clip-path="url(#clip0_5810_43166)">
<path d="M11.689 -0.000120441C12.2259 0.232871 12.4762 0.790106 12.6973 1.30298C12.7499 1.43774 12.8013 1.573 12.8511 1.70886C12.8681 1.75433 12.8851 1.7998 12.9026 1.84665C13.0786 2.41279 13.0949 3.1187 12.8511 3.66138C12.6395 4.02515 12.335 4.25693 11.9624 4.44324C11.9398 5.21023 11.9173 5.97722 11.894 6.76746C12.2324 6.76746 12.5708 6.76746 12.9194 6.76746C12.9178 6.64629 12.9163 6.52513 12.9146 6.40029C12.9133 6.23928 12.9121 6.07826 12.9109 5.91724C12.9097 5.83762 12.9086 5.75801 12.9074 5.67598C12.9035 4.97478 12.9261 4.38365 13.4345 3.85578C13.9511 3.37565 14.461 3.31927 15.1411 3.33667C15.2104 3.3376 15.2796 3.33852 15.351 3.33948C15.5203 3.34187 15.6896 3.34523 15.8589 3.34949C15.8363 3.30437 15.8138 3.25925 15.7905 3.21277C15.7147 2.23532 15.9561 1.37391 16.4741 0.546755C16.6987 0.29705 16.9581 0.0217804 17.3062 -0.0164092C17.7073 -0.0279552 17.9394 -0.00328663 18.2515 0.273317C18.8664 0.855104 19.1732 1.73605 19.2232 2.5687C19.2292 3.17145 19.2292 3.17145 19.1401 3.34949C19.1821 3.34806 19.2241 3.34663 19.2673 3.34515C19.4613 3.33939 19.6553 3.33589 19.8494 3.3324C19.9154 3.33011 19.9814 3.32782 20.0494 3.32546C20.6469 3.31744 21.1477 3.43951 21.5968 3.84937C22.0073 4.30144 22.0892 4.82165 22.0863 5.41896C22.086 5.49783 22.0858 5.5767 22.0856 5.65795C22.085 5.73929 22.0845 5.82062 22.0839 5.90442C22.0836 5.98734 22.0832 6.07026 22.0829 6.15569C22.0821 6.35962 22.0809 6.56354 22.0796 6.76746C22.418 6.76746 22.7563 6.76746 23.105 6.76746C23.1094 6.44355 23.1118 6.12075 23.1096 5.79698C23.1094 5.68704 23.1102 5.57711 23.1122 5.46719C23.1473 4.83596 23.1473 4.83596 22.902 4.28754C22.7419 4.17893 22.7419 4.17893 22.5734 4.109C22.3155 3.98023 22.2005 3.73937 22.0796 3.48621C21.8011 2.65077 22.0954 1.73665 22.4398 0.968393C22.598 0.665654 22.7771 0.431211 23.0366 0.204958C23.0776 0.168741 23.1186 0.132523 23.1608 0.0952088C23.4365 -0.0808823 23.747 -0.0408706 24.062 -0.000120441C24.6275 0.272159 24.9277 0.80513 25.1558 1.36707C25.3939 2.07139 25.6031 2.8211 25.3224 3.54175C25.1116 3.95437 24.8152 4.23754 24.4038 4.44324C24.3812 5.25535 24.3587 6.06746 24.3354 6.90418C24.4257 6.92674 24.5159 6.94929 24.6089 6.97254C24.7456 7.06226 24.7456 7.06226 24.8823 7.17761C24.9274 7.21427 24.9726 7.25093 25.019 7.2887C25.4325 7.77971 25.4722 8.30312 25.4805 8.92505C25.4835 9.03826 25.4835 9.03826 25.4866 9.15376C25.4914 9.33815 25.495 9.52248 25.4976 9.70691C25.536 9.71719 25.5745 9.72746 25.6141 9.73805C27.6022 10.2741 27.6022 10.2741 28.1609 10.7625C28.5311 11.0576 28.9273 11.1469 29.3833 11.2482C29.6204 11.3011 29.8562 11.3598 30.0921 11.418C30.1384 11.4294 30.1848 11.4407 30.2326 11.4525C31.3571 11.7313 32.9852 12.2253 33.6467 13.2535C33.9351 13.7712 33.9917 14.2886 34.045 14.8676C34.0557 14.9731 34.0665 15.0786 34.0774 15.1841C34.1066 15.4689 34.1341 15.7538 34.1613 16.0388C34.1901 16.3385 34.2204 16.638 34.2505 16.9376C34.3009 17.4408 34.3502 17.9441 34.3988 18.4475C34.4549 19.0271 34.5122 19.6066 34.5702 20.186C34.6323 20.8058 34.6937 21.4257 34.7547 22.0456C34.7722 22.2228 34.7898 22.4 34.8074 22.5772C34.8352 22.8573 34.8625 23.1374 34.8894 23.4176C34.8992 23.5196 34.9093 23.6216 34.9195 23.7236C34.97 24.2289 35.0103 24.7344 35.0225 25.2422C35.026 25.3652 35.026 25.3652 35.0296 25.4908C34.9934 25.7459 34.9293 25.8234 34.7261 25.9764C34.5416 26.0186 34.5416 26.0186 34.3373 26.0363C33.5997 26.1451 33.2227 26.5672 32.7726 27.1247C32.4647 27.5042 32.1319 27.8609 31.6713 28.0486C31.6217 28.0695 31.572 28.0904 31.5209 28.1119C30.8326 28.36 29.8883 28.3439 29.2218 28.0494C28.7142 27.7784 28.2889 27.4917 27.892 27.0737C27.3588 26.5343 26.7857 26.0891 26.0108 26.0429C25.1893 26.0519 24.679 26.5165 24.0986 27.0494C23.3249 27.7527 22.5566 28.26 21.4814 28.2579C21.4276 28.2579 21.3737 28.2579 21.3183 28.2579C20.7835 28.2475 20.339 28.1201 19.8921 27.8221C19.8695 28.747 19.847 29.6719 19.8237 30.6249C19.9816 30.6249 20.1395 30.6249 20.3022 30.6249C21.4816 30.7851 22.7806 31.1283 23.5835 32.0604C23.7856 32.3776 23.761 32.7225 23.7202 33.0858C23.5512 33.6201 23.0713 33.9312 22.6008 34.1838C21.3031 34.8004 19.7974 35.0067 18.3724 35.0138C18.3078 35.0142 18.2432 35.0147 18.1766 35.0152C17.9694 35.0164 17.7623 35.0168 17.5551 35.017C17.4844 35.017 17.4138 35.0171 17.341 35.0171C15.5412 35.0152 13.1046 34.9987 11.689 33.7011C11.3264 33.3276 11.253 33.0306 11.2604 32.5194C11.3026 32.0946 11.6196 31.8245 11.932 31.5635C12.8252 30.9314 14.0899 30.6249 15.1753 30.6249C15.1527 29.7 15.1302 28.7751 15.1069 27.8221C14.8813 27.9349 14.6558 28.0477 14.4233 28.1639C13.5891 28.3725 12.6666 28.2878 11.9213 27.8558C11.5527 27.6105 11.2291 27.3197 10.9036 27.0208C10.2748 26.4506 9.76293 26.0475 8.88623 26.0448C8.15909 26.101 7.69104 26.5513 7.18579 27.0317C6.80107 27.3969 6.41992 27.7113 5.94677 27.9589C5.89135 27.9883 5.83592 28.0177 5.77881 28.0481C5.09642 28.352 4.17913 28.3556 3.47302 28.1212C2.72916 27.7898 2.1931 27.1728 1.69888 26.5415C1.36303 26.1322 0.964427 26.075 0.46227 26.0234C0.224861 25.9645 0.149115 25.8956 -0.000490763 25.703C-0.0305327 25.4908 -0.0305327 25.4908 -0.0235168 25.2422C-0.0218897 25.1746 -0.02189 25.1746 -0.02023 25.1056C-0.00451992 24.5935 0.0434598 24.0838 0.094488 23.5743C0.104748 23.4682 0.114968 23.3621 0.125152 23.2559C0.152638 22.971 0.180774 22.6862 0.209113 22.4014C0.226849 22.2229 0.244457 22.0444 0.262025 21.8659C0.323472 21.2419 0.38551 20.6179 0.448034 19.994C0.506098 19.4144 0.562756 18.8347 0.618791 18.2549C0.667181 17.7549 0.716618 17.255 0.766846 16.7552C0.796731 16.4577 0.826188 16.1601 0.854563 15.8623C0.881253 15.5826 0.909249 15.303 0.938223 15.0235C0.948584 14.9215 0.95849 14.8193 0.967886 14.7172C1.0354 13.9872 1.1617 13.3836 1.6914 12.8472C2.83269 11.9188 4.32347 11.5325 5.72888 11.2108C6.26323 11.0874 6.64843 10.9536 7.07257 10.5921C7.73698 10.0805 8.70576 9.9129 9.50146 9.70691C9.50242 9.63719 9.50242 9.63719 9.5034 9.56607C9.5071 9.35235 9.51281 9.13873 9.51855 8.92505C9.51952 8.85196 9.52049 8.77886 9.52149 8.70355C9.53866 8.14198 9.62559 7.70494 9.99733 7.27134C10.0494 7.22772 10.1015 7.1841 10.1551 7.13916C10.2074 7.09396 10.2597 7.04875 10.3135 7.00218C10.4585 6.90418 10.4585 6.90418 10.6636 6.90418C10.6639 6.55864 10.6616 6.21327 10.6569 5.86777C10.6557 5.75028 10.6551 5.63279 10.6554 5.51529C10.6556 5.34621 10.6531 5.17733 10.6502 5.00827C10.6512 4.92964 10.6512 4.92964 10.6521 4.84943C10.6519 4.68086 10.6519 4.68086 10.5952 4.44324C10.403 4.27428 10.403 4.27428 10.1851 4.1698C9.76053 3.76958 9.57003 3.42751 9.54419 2.84107C9.56065 2.01081 9.8203 1.01462 10.3965 0.392145C10.8221 0.0120493 11.1176 -0.0552284 11.689 -0.000120441ZM11.2104 1.29871C10.9802 1.80218 10.7515 2.30961 10.7319 2.87097C10.833 3.1316 10.9089 3.19404 11.1421 3.34949C11.3636 3.38357 11.4521 3.37153 11.6377 3.24268C11.7952 3.02327 11.8058 2.86621 11.8257 2.59754C11.7839 2.35149 11.7839 2.35149 11.7061 2.11048C11.6824 2.02993 11.6588 1.94939 11.6345 1.86641C11.5577 1.65536 11.4779 1.48108 11.3472 1.29871C11.302 1.29871 11.2569 1.29871 11.2104 1.29871ZM17.4311 1.29871C16.9998 2.14925 16.9998 2.14925 17.021 3.07605C17.1208 3.25564 17.1208 3.25564 17.2944 3.34949C17.5789 3.35457 17.7209 3.32279 17.9438 3.14441C18.1206 2.79097 18.0308 2.49282 17.9163 2.12676C17.8155 1.84182 17.7074 1.56705 17.5679 1.29871C17.5228 1.29871 17.4776 1.29871 17.4311 1.29871ZM23.6519 1.29871C23.381 1.79364 23.1685 2.29432 23.1776 2.8667C23.2517 3.10869 23.3001 3.2137 23.5151 3.34949C23.7544 3.34529 23.9206 3.32983 24.1218 3.19568C24.2585 2.98313 24.2755 2.79066 24.2385 2.54306C24.1249 2.1071 23.9894 1.70246 23.7886 1.29871C23.7435 1.29871 23.6983 1.29871 23.6519 1.29871ZM14.1499 4.92175C14.1499 5.53084 14.1499 6.13992 14.1499 6.76746C16.3606 6.76746 18.5714 6.76746 20.8491 6.76746C21.0413 5.08901 21.0413 5.08901 20.5757 4.57996C20.366 4.54556 20.194 4.53315 19.9842 4.53573C19.9246 4.53513 19.865 4.53453 19.8036 4.53392C19.6066 4.53241 19.4097 4.53341 19.2128 4.53456C19.0759 4.53433 18.939 4.534 18.8021 4.53357C18.5152 4.53307 18.2284 4.5338 17.9415 4.5354C17.5737 4.53734 17.2059 4.53622 16.8381 4.53418C16.5555 4.53294 16.2728 4.53333 15.9901 4.53422C15.8545 4.53445 15.7189 4.53417 15.5833 4.53337C15.3937 4.53251 15.2043 4.53383 15.0148 4.53573C14.9306 4.53469 14.9306 4.53469 14.8448 4.53363C14.4359 4.54125 14.4298 4.57192 14.1499 4.92175ZM10.8003 8.203C10.6815 8.55932 10.7164 8.93662 10.7148 9.30957C10.7134 9.3921 10.712 9.47462 10.7106 9.55964C10.7014 10.2796 10.7014 10.2796 11.0266 10.904C11.3883 11.2323 11.7652 11.2962 12.239 11.297C12.2858 11.2973 12.3327 11.2975 12.381 11.2978C12.5371 11.2985 12.6933 11.2982 12.8494 11.298C12.9618 11.2982 13.0741 11.2986 13.1864 11.299C13.4909 11.2999 13.7954 11.3 14.0999 11.2998C14.3544 11.2997 14.6089 11.3001 14.8633 11.3004C15.4639 11.3011 16.0644 11.3012 16.6649 11.3008C17.2838 11.3003 17.9026 11.3012 18.5215 11.3026C19.0534 11.3038 19.5853 11.3043 20.1172 11.304C20.4347 11.3039 20.7521 11.3041 21.0696 11.305C21.3682 11.3059 21.6668 11.3058 21.9654 11.3049C22.0747 11.3047 22.1841 11.3049 22.2934 11.3055C23.1455 11.3387 23.1455 11.3387 23.8913 10.9845C24.3316 10.5026 24.2901 9.93854 24.2884 9.32666C24.2896 9.24335 24.2907 9.16003 24.2918 9.07419C24.2919 8.9537 24.2919 8.9537 24.2919 8.83079C24.2921 8.75787 24.2923 8.68494 24.2925 8.60981C24.2633 8.37838 24.2005 8.25254 24.062 8.06629C23.8152 7.90178 23.6369 7.91005 23.3519 7.91129C23.3 7.91098 23.2482 7.91067 23.1947 7.91035C23.0204 7.90948 22.8462 7.90959 22.6719 7.90971C22.5471 7.9093 22.4224 7.90883 22.2977 7.90832C21.9584 7.90711 21.6192 7.90679 21.2799 7.9067C20.9969 7.90657 20.7138 7.90607 20.4308 7.90558C19.7632 7.90447 19.0955 7.90414 18.4279 7.90423C17.7387 7.90432 17.0496 7.90287 16.3605 7.90071C15.7692 7.89893 15.1779 7.89819 14.5866 7.89828C14.2333 7.89831 13.88 7.89792 13.5267 7.89648C13.1944 7.89516 12.8622 7.89514 12.5299 7.89614C12.4079 7.89628 12.2859 7.89596 12.1639 7.89513C11.9974 7.89408 11.831 7.89471 11.6645 7.89577C11.6162 7.89506 11.5678 7.89436 11.518 7.89363C11.1935 7.89818 11.0256 7.9699 10.8003 8.203ZM8.88623 11.1168C8.82809 11.135 8.76994 11.1532 8.71004 11.172C8.25642 11.3193 7.8547 11.5017 7.45068 11.7577C7.45068 11.8254 7.45068 11.893 7.45068 11.9628C10.9253 14.6574 18.8557 13.7304 22.9529 13.2207C25.3222 12.9596 25.3222 12.9596 27.48 12.0311C27.5251 11.9635 27.5702 11.8958 27.6167 11.8261C27.0433 11.4326 26.0687 10.8829 25.3491 10.9515C25.1521 11.037 25.1257 11.2127 25.0399 11.398C24.763 11.8779 24.3253 12.1346 23.8171 12.3142C23.35 12.4317 22.8716 12.4108 22.3931 12.4083C22.2743 12.4087 22.1555 12.4092 22.0368 12.4098C21.7162 12.411 21.3956 12.4105 21.0749 12.4097C20.7383 12.409 20.4016 12.4096 20.065 12.41C19.4998 12.4105 18.9346 12.4099 18.3694 12.4086C17.7173 12.4071 17.0654 12.4076 16.4133 12.4091C15.852 12.4103 15.2906 12.4105 14.7293 12.4098C14.3947 12.4093 14.0601 12.4093 13.7255 12.4102C13.4108 12.411 13.0962 12.4104 12.7815 12.4089C12.6665 12.4085 12.5515 12.4086 12.4365 12.4092C11.5632 12.4134 10.839 12.3323 10.1816 11.7056C9.97808 11.4719 9.83575 11.2179 9.70654 10.9374C9.41466 10.9374 9.16326 11.0299 8.88623 11.1168ZM2.32373 13.9452C2.29824 14.1397 2.29454 14.2447 2.40731 14.4082C4.4767 16.2096 8.23216 16.355 10.8516 16.624C10.9027 16.6294 10.9539 16.6348 11.0067 16.6404C13.047 16.8521 15.0924 16.9079 17.1422 16.9025C17.4399 16.9017 17.7376 16.9022 18.0353 16.9029C20.0704 16.9075 22.1009 16.8392 24.1261 16.6283C24.1812 16.6227 24.2363 16.6171 24.2931 16.6113C28.8383 16.2848 28.8383 16.2848 32.6753 14.287C32.7437 14.1192 32.7437 14.1192 32.6753 13.9452C31.8111 12.9729 30.1956 12.6542 28.9839 12.3729C28.7901 12.3613 28.7901 12.3613 28.6421 12.3729C28.6167 12.4533 28.6167 12.4533 28.5908 12.5353C28.4894 12.7484 28.4392 12.7563 28.2319 12.8514C28.1291 12.915 28.0265 12.9791 27.9243 13.0437C26.119 14.1248 23.7877 14.3057 21.7378 14.4921C21.6656 14.4992 21.5935 14.5063 21.5191 14.5137C18.8236 14.7731 15.9545 14.7726 13.2612 14.4921C13.217 14.4876 13.1727 14.4831 13.1271 14.4785C7.72068 13.9306 7.72068 13.9306 6.49365 12.578C6.44853 12.5103 6.40342 12.4427 6.35693 12.3729C5.17554 12.2348 3.15366 13.1153 2.32373 13.9452ZM2.11865 15.6542C2.02295 16.5932 1.92727 17.5321 1.83161 18.4711C1.78717 18.9073 1.74273 19.3434 1.69828 19.7796C1.65527 20.2015 1.61228 20.6235 1.5693 21.0455C1.55301 21.2054 1.53671 21.3653 1.52041 21.5252C1.48287 21.8935 1.4454 22.2617 1.40811 22.6301C1.38099 22.8977 1.35333 23.1652 1.32525 23.4328C1.31882 23.4949 1.31238 23.5571 1.30575 23.6211C1.29387 23.7358 1.28181 23.8504 1.26953 23.9651C1.23791 24.2729 1.22448 24.5733 1.22998 24.8827C1.28047 24.8994 1.33096 24.9162 1.38299 24.9334C2.22635 25.2442 2.7262 25.8011 3.27088 26.4939C3.47786 26.7284 3.68776 26.8586 3.96435 27.0018C3.98691 27.0018 4.00947 27.0018 4.03271 27.0018C4.16653 26.1397 4.30023 25.2775 4.4338 24.4152C4.49581 24.0149 4.55787 23.6146 4.62001 23.2143C4.67994 22.8283 4.73976 22.4422 4.79952 22.0561C4.82238 21.9086 4.84527 21.761 4.8682 21.6134C4.90022 21.4074 4.93212 21.2013 4.96398 20.9952C4.97356 20.9337 4.98315 20.8722 4.99303 20.8088C5.04035 20.5229 5.04035 20.5229 5.0581 20.2343C5.4416 20.2794 5.8251 20.3245 6.22021 20.371C6.19122 20.5556 6.16223 20.7401 6.13236 20.9303C6.03662 21.5401 5.94118 22.1499 5.84587 22.7598C5.78807 23.1295 5.73018 23.4993 5.67207 23.869C5.61599 24.2257 5.56017 24.5825 5.50453 24.9394C5.48325 25.0755 5.46188 25.2117 5.44042 25.3478C5.41038 25.5384 5.38067 25.7291 5.35103 25.9197C5.34208 25.976 5.33314 26.0323 5.32392 26.0904C5.28369 26.3513 5.25225 26.6001 5.26318 26.8651C5.62528 26.7751 5.84109 26.6 6.10058 26.3439C6.17913 26.2693 6.25782 26.1949 6.33664 26.1206C6.37501 26.0843 6.41339 26.0479 6.45293 26.0105C6.99554 25.5011 7.60315 25.0667 8.34389 24.9054C8.5613 24.8333 8.5613 24.8333 8.63048 24.6226C8.65609 24.4961 8.65609 24.4961 8.68222 24.3671C8.69758 24.2959 8.69758 24.2959 8.71325 24.2232C8.73638 24.1158 8.75879 24.0082 8.7806 23.9006C8.83559 23.635 8.89753 23.3711 8.95865 23.1069C9.02688 22.811 9.09332 22.5146 9.15977 22.2182C9.21155 21.9875 9.2637 21.7569 9.31588 21.5263C9.34892 21.3793 9.38195 21.2323 9.41495 21.0853C9.43054 21.0165 9.44613 20.9477 9.46219 20.8769C9.47636 20.8133 9.49053 20.7498 9.50513 20.6844C9.51767 20.6286 9.5302 20.5729 9.54311 20.5154C9.57604 20.3618 9.57604 20.3618 9.56982 20.1659C9.62507 20.1807 9.68032 20.1955 9.73725 20.2108C9.8103 20.2298 9.88335 20.2488 9.95862 20.2684C10.0308 20.2875 10.103 20.3065 10.1773 20.3261C10.3714 20.367 10.5349 20.3745 10.7319 20.371C10.7198 20.4243 10.7076 20.4777 10.6951 20.5326C10.5808 21.0354 10.4671 21.5383 10.354 22.0414C10.2959 22.3 10.2375 22.5585 10.1786 22.817C10.1218 23.0664 10.0656 23.316 10.0098 23.5656C9.98836 23.6608 9.96675 23.756 9.94491 23.8511C9.91436 23.9844 9.88466 24.1178 9.85499 24.2512C9.83784 24.3271 9.82069 24.403 9.80301 24.4812C9.7762 24.6686 9.77115 24.7775 9.84326 24.9511C9.98036 25.0296 9.98036 25.0296 10.1509 25.0792C10.7509 25.3 11.1848 25.6631 11.6518 26.0918C11.8237 26.2481 11.9975 26.4003 12.176 26.549C12.227 26.5918 12.2779 26.6346 12.3304 26.6787C12.4885 26.783 12.6178 26.8428 12.7939 26.9067C12.843 26.9246 12.8922 26.9426 12.9428 26.9611C12.9989 26.9813 12.9989 26.9813 13.0561 27.0018C13.3107 25.5654 13.5604 24.1281 13.8011 22.6893C13.8257 22.5423 13.8504 22.3953 13.8751 22.2483C13.9098 22.0415 13.9443 21.8347 13.9787 21.6279C13.9892 21.5658 13.9996 21.5038 14.0104 21.4399C14.0198 21.3829 14.0292 21.326 14.0389 21.2673C14.0513 21.1929 14.0513 21.1929 14.064 21.117C14.0861 20.9743 14.0861 20.9743 14.0815 20.7811C14.1368 20.791 14.192 20.8009 14.249 20.811C14.3585 20.8301 14.3585 20.8301 14.4703 20.8495C14.5425 20.8622 14.6147 20.8749 14.689 20.8879C14.8783 20.9145 15.0531 20.9201 15.2436 20.9178C15.2254 21.0251 15.2254 21.0251 15.2069 21.1345C15.0926 21.8073 14.9789 22.4803 14.8658 23.1533C14.8076 23.4993 14.7492 23.8453 14.6903 24.1912C14.6336 24.5249 14.5774 24.8587 14.5215 25.1925C14.5 25.32 14.4784 25.4475 14.4566 25.5749C14.4262 25.7531 14.3964 25.9313 14.3667 26.1096C14.3575 26.1626 14.3483 26.2156 14.3388 26.2701C14.3013 26.4991 14.2804 26.6415 14.355 26.8651C14.6784 26.6069 14.9497 26.3368 15.2052 26.0106C15.687 25.4113 16.1861 25.0328 16.9526 24.8827C17.7767 24.8027 18.5301 24.8842 19.2128 25.3911C19.5236 25.6573 19.7845 25.9607 20.0396 26.2794C20.2226 26.507 20.4092 26.6914 20.644 26.8651C20.7334 26.5971 20.6794 26.3811 20.6323 26.1096C20.623 26.0536 20.6137 25.9976 20.6041 25.9398C20.5731 25.7544 20.5414 25.5692 20.5097 25.3839C20.4881 25.2555 20.4666 25.127 20.4451 24.9986C20.3883 24.6603 20.3309 24.3222 20.2735 23.9841C20.2149 23.6391 20.1569 23.2941 20.0989 22.949C19.9849 22.2719 19.8704 21.5948 19.7554 20.9178C19.8049 20.9137 19.8544 20.9096 19.9054 20.9053C20.2456 20.8758 20.5816 20.8447 20.9175 20.7811C20.9331 20.8961 20.9331 20.8961 20.949 21.0133C21.0978 22.0911 21.2733 23.1643 21.4518 24.2376C21.4949 24.4968 21.5374 24.7562 21.5798 25.0156C21.6128 25.2173 21.6463 25.4189 21.6799 25.6206C21.6958 25.7163 21.7115 25.812 21.7271 25.9078C21.7487 26.0406 21.7709 26.1733 21.7932 26.306C21.8057 26.3812 21.8181 26.4564 21.8309 26.5339C21.8706 26.7111 21.9214 26.8452 22.0112 27.0018C22.539 26.8036 22.8983 26.4888 23.2972 26.1051C23.8725 25.5541 24.4871 25.1762 25.2241 24.8827C25.1345 24.3082 25.0224 23.7419 24.8946 23.1748C24.8766 23.094 24.8586 23.0132 24.84 22.93C24.7831 22.6751 24.7259 22.4202 24.6687 22.1654C24.6298 21.9913 24.5909 21.8172 24.552 21.6431C24.4573 21.219 24.3623 20.795 24.2671 20.371C24.3094 20.3665 24.3517 20.362 24.3954 20.3573C24.4786 20.3483 24.4786 20.3483 24.5635 20.3391C24.646 20.3302 24.646 20.3302 24.7302 20.3211C24.8889 20.3018 25.04 20.272 25.1942 20.23C25.2718 20.2088 25.3493 20.1877 25.4292 20.1659C25.4369 20.2149 25.4446 20.2639 25.4525 20.3144C25.5366 20.8359 25.6397 21.3509 25.7539 21.8666C25.7804 21.987 25.7804 21.987 25.8075 22.1099C25.8446 22.2779 25.8819 22.446 25.9192 22.614C25.9764 22.8717 26.0328 23.1296 26.0893 23.3875C26.1256 23.5513 26.1619 23.7151 26.1982 23.8789C26.215 23.956 26.2319 24.0332 26.2492 24.1126C26.2651 24.1838 26.2811 24.2551 26.2976 24.3285C26.3114 24.3911 26.3253 24.4538 26.3396 24.5183C26.3824 24.694 26.3824 24.694 26.5229 24.8827C26.6672 24.9399 26.6672 24.9399 26.8348 24.9767C27.7367 25.2318 28.375 25.8715 29.048 26.4934C29.2644 26.6887 29.4439 26.8052 29.7358 26.8651C29.689 26.1652 29.575 25.4759 29.4664 24.7836C29.4466 24.656 29.4267 24.5283 29.4069 24.4006C29.3551 24.0669 29.303 23.7333 29.2508 23.3997C29.1975 23.0583 29.1444 22.7169 29.0914 22.3754C28.9874 21.7072 28.8832 21.0391 28.7788 20.371C29.3541 20.3033 29.3541 20.3033 29.9409 20.2343C29.9577 20.3562 29.9744 20.4782 29.9917 20.6038C30.1945 22.0596 30.4182 23.5118 30.6459 24.9639C30.6577 25.0393 30.6577 25.0393 30.6698 25.1162C30.7683 25.7448 30.8672 26.3733 30.9663 27.0018C31.0541 26.9599 31.1416 26.9175 31.229 26.8749C31.2778 26.8514 31.3266 26.8278 31.3768 26.8035C31.5654 26.6996 31.6873 26.5679 31.8251 26.4037C31.9024 26.3138 31.9024 26.3138 31.9813 26.2221C32.072 26.1128 32.1623 26.0032 32.252 25.8931C32.6737 25.3868 33.1446 25.087 33.769 24.8827C33.7237 23.9121 33.6299 22.9479 33.5319 21.9814C33.5153 21.8158 33.4987 21.6502 33.4821 21.4846C33.4476 21.1398 33.4129 20.795 33.378 20.4503C33.3334 20.0092 33.2891 19.5681 33.2449 19.127C33.2025 18.7042 33.16 18.2813 33.1175 17.8585C33.1094 17.7785 33.1014 17.6984 33.0931 17.6159C33.0703 17.3889 33.0474 17.162 33.0244 16.935C33.0178 16.8684 33.0111 16.8019 33.0042 16.7334C32.9676 16.3729 32.9269 16.0135 32.8804 15.6542C32.8155 15.6873 32.7507 15.7204 32.6838 15.7546C29.121 17.5282 24.768 17.784 20.8491 17.9784C20.7702 17.9823 20.6913 17.9863 20.61 17.9904C15.0334 18.2557 8.22363 18.3692 2.11865 15.6542ZM16.4058 26.3866C16.3796 26.5631 16.3711 26.7104 16.3747 26.8868C16.3747 26.9375 16.3746 26.9882 16.3746 27.0404C16.3748 27.208 16.3769 27.3755 16.3791 27.5431C16.3796 27.6593 16.38 27.7755 16.3802 27.8917C16.3813 28.1975 16.384 28.5032 16.387 28.809C16.3898 29.1211 16.391 29.4331 16.3924 29.7452C16.3953 30.3574 16.4002 30.9697 16.4058 31.5819C17.1276 31.5819 17.8495 31.5819 18.5933 31.5819C18.6025 30.9193 18.6101 30.2568 18.6145 29.5942C18.6167 29.2865 18.6196 28.9789 18.6242 28.6712C18.6287 28.3742 18.6311 28.0773 18.6322 27.7803C18.6329 27.6671 18.6344 27.5538 18.6366 27.4406C18.6396 27.2818 18.64 27.1232 18.6398 26.9644C18.6413 26.9177 18.6428 26.871 18.6443 26.8228C18.6419 26.6381 18.627 26.4958 18.5072 26.3507C18.2037 26.0872 17.9013 25.9978 17.5081 25.9551C17.1163 25.9943 16.6898 26.1019 16.4058 26.3866ZM12.5093 32.6757C12.6216 32.9367 12.7428 33.0301 13.0038 33.1494C14.421 33.6978 15.93 33.8535 17.4397 33.8549C17.4873 33.8549 17.5349 33.855 17.5839 33.855C19.2292 33.8525 20.9702 33.7237 22.4214 32.8807C22.4214 32.7905 22.4214 32.7003 22.4214 32.6073C21.5664 32.125 20.7268 31.8978 19.7554 31.787C19.7412 31.8282 19.727 31.8695 19.7124 31.912C19.6913 31.9666 19.6703 32.0212 19.6486 32.0775C19.6287 32.1314 19.6089 32.1854 19.5885 32.2409C19.439 32.4672 19.2507 32.5776 19.0034 32.6757C18.7735 32.7136 18.5481 32.7141 18.3155 32.712C18.2506 32.7122 18.1857 32.7125 18.1187 32.7128C17.982 32.713 17.8453 32.7125 17.7085 32.7113C17.5001 32.7098 17.2919 32.7113 17.0835 32.713C16.9501 32.7129 16.8168 32.7125 16.6835 32.712C16.6216 32.7125 16.5598 32.7131 16.4961 32.7137C16.0905 32.7077 15.8493 32.6388 15.5171 32.4022C15.4105 32.2409 15.4105 32.2409 15.3505 32.0775C15.3294 32.0229 15.3083 31.9682 15.2866 31.912C15.2725 31.8707 15.2583 31.8295 15.2436 31.787C14.3608 31.787 13.2064 32.1379 12.5093 32.6757Z" fill="#34A853"/>
</g>
<defs>
<clipPath id="clip0_5810_43166">
<rect width="35" height="35" fill="white"/>
</clipPath>
</defs>
</svg>
