<svg width="35" height="35" viewBox="0 0 35 35" fill="none" xmlns="http://www.w3.org/2000/svg">
<g clip-path="url(#clip0_5826_47835)">
<path d="M3.56623 5.80227C3.63954 5.80206 3.63954 5.80206 3.71434 5.80185C3.87854 5.80146 4.04275 5.80156 4.20696 5.80166C4.32571 5.80148 4.44446 5.80127 4.56321 5.80104C4.88989 5.80049 5.21658 5.80037 5.54326 5.80032C5.89546 5.80019 6.24766 5.79967 6.59986 5.79921C7.37018 5.79828 8.1405 5.79787 8.91082 5.79757C9.3918 5.79738 9.87278 5.79709 10.3538 5.79679C11.6854 5.79595 13.017 5.79525 14.3487 5.79502C14.4765 5.79499 14.4765 5.79499 14.607 5.79497C14.6924 5.79496 14.7778 5.79494 14.8659 5.79493C15.039 5.7949 15.2121 5.79487 15.3853 5.79483C15.5141 5.79481 15.5141 5.79481 15.6455 5.79479C17.037 5.79452 18.4285 5.79333 19.82 5.79173C21.2485 5.79011 22.677 5.78926 24.1056 5.78918C24.9077 5.78912 25.7098 5.78873 26.5119 5.78748C27.1949 5.78643 27.878 5.78608 28.561 5.78665C28.9094 5.78691 29.2578 5.78685 29.6063 5.78589C29.9255 5.78502 30.2447 5.7851 30.5639 5.78593C30.6791 5.78606 30.7944 5.78585 30.9096 5.78526C32.1045 5.77947 33.1347 6.02003 34.0252 6.8719C34.5504 7.45084 35.0069 8.25433 35.0088 9.05537C35.0091 9.11637 35.0094 9.17736 35.0097 9.24021C35.0097 9.34031 35.0097 9.34031 35.0096 9.44244C35.0099 9.51356 35.0101 9.58467 35.0104 9.65795C35.0112 9.89702 35.0114 10.1361 35.0117 10.3752C35.0121 10.5463 35.0126 10.7174 35.013 10.8885C35.0144 11.4027 35.0151 11.9168 35.0157 12.4309C35.016 12.6732 35.0164 12.9156 35.0167 13.1579C35.0179 13.9639 35.0189 14.7698 35.0194 15.5758C35.0195 15.7849 35.0196 15.994 35.0198 16.2031C35.0198 16.255 35.0198 16.307 35.0199 16.3606C35.0204 17.2016 35.0222 18.0427 35.0244 18.8838C35.0266 19.7481 35.0279 20.6123 35.0281 21.4766C35.0282 21.9615 35.0288 22.4465 35.0306 22.9314C35.0322 23.3879 35.0325 23.8444 35.0318 24.3009C35.0317 24.4681 35.0322 24.6353 35.0331 24.8025C35.0403 26.1673 34.8895 27.1867 33.9235 28.2262C33.2365 28.8656 32.3639 29.1982 31.4329 29.1991C31.384 29.1993 31.3352 29.1994 31.2848 29.1996C31.1206 29.2 30.9564 29.1999 30.7922 29.1998C30.6734 29.1999 30.5547 29.2001 30.4359 29.2004C30.1093 29.2009 29.7826 29.2011 29.4559 29.2011C29.1037 29.2012 28.7515 29.2017 28.3993 29.2022C27.629 29.2031 26.8587 29.2035 26.0883 29.2038C25.6074 29.204 25.1264 29.2043 24.6454 29.2046C23.3138 29.2055 21.9821 29.2062 20.6505 29.2064C20.5226 29.2064 20.5226 29.2064 20.3922 29.2064C20.3068 29.2065 20.2213 29.2065 20.1333 29.2065C19.9601 29.2065 19.787 29.2066 19.6139 29.2066C19.4851 29.2066 19.4851 29.2066 19.3536 29.2066C17.9622 29.2069 16.5707 29.2081 15.1792 29.2097C13.7507 29.2113 12.3221 29.2122 10.8936 29.2122C10.0915 29.2123 9.28937 29.2127 8.48727 29.2139C7.80424 29.215 7.1212 29.2153 6.43816 29.2148C6.08973 29.2145 5.74131 29.2146 5.39289 29.2155C5.07367 29.2164 4.75447 29.2163 4.43525 29.2155C4.32001 29.2154 4.20477 29.2156 4.08954 29.2162C2.89461 29.222 1.86442 28.9814 0.973965 28.1295C0.448724 27.5506 -0.00773693 26.7471 -0.00959845 25.9461C-0.00990319 25.8851 -0.0102079 25.8241 -0.0105218 25.7612C-0.0105092 25.6945 -0.0104968 25.6277 -0.0104838 25.559C-0.0107351 25.4879 -0.0109863 25.4167 -0.0112452 25.3435C-0.012 25.1044 -0.0122627 24.8653 -0.012523 24.6262C-0.0129512 24.4551 -0.0134056 24.284 -0.0138842 24.1129C-0.0151988 23.5988 -0.0159233 23.0846 -0.0165316 22.5705C-0.0168314 22.3282 -0.0171981 22.0859 -0.0175561 21.8435C-0.0187191 21.0375 -0.0197098 20.2316 -0.020205 19.4256C-0.0203356 19.2165 -0.0204667 19.0074 -0.0206003 18.7983C-0.0206334 18.7464 -0.0206667 18.6944 -0.0207007 18.6409C-0.0212677 17.7998 -0.0229987 16.9587 -0.0252202 16.1176C-0.0274841 15.2534 -0.0287125 14.3891 -0.0289307 13.5248C-0.0290784 13.0399 -0.0296722 12.555 -0.0314231 12.07C-0.0330675 11.6135 -0.0333032 11.157 -0.0326015 10.7005C-0.0325677 10.5333 -0.0329989 10.3661 -0.0339385 10.1989C-0.0411761 8.83416 0.10964 7.81476 1.0757 6.77523C1.76265 6.13582 2.63521 5.80318 3.56623 5.80227ZM2.05036 7.99876C1.58823 8.56278 1.48277 9.07277 1.48566 9.78433C1.4854 9.85297 1.48514 9.92162 1.48487 9.99234C1.48417 10.2218 1.48444 10.4513 1.48471 10.6808C1.48441 10.8455 1.48406 11.0103 1.48365 11.175C1.48283 11.5757 1.48265 11.9765 1.48282 12.3772C1.48294 12.7031 1.48282 13.0289 1.48253 13.3547C1.48249 13.4012 1.48244 13.4476 1.4824 13.4954C1.48232 13.5898 1.48224 13.6841 1.48215 13.7784C1.48141 14.6625 1.48156 15.5466 1.48198 16.4306C1.48233 17.2387 1.48156 18.0468 1.48026 18.8548C1.47893 19.6853 1.47837 20.5158 1.47863 21.3463C1.47876 21.8123 1.47859 22.2782 1.47762 22.7442C1.47672 23.1824 1.47689 23.6206 1.47779 24.0588C1.47795 24.2195 1.47776 24.3802 1.4772 24.5408C1.47648 24.7605 1.47703 24.9801 1.4779 25.1997C1.4774 25.263 1.47689 25.3264 1.47637 25.3916C1.48215 26.0893 1.68817 26.6433 2.18708 27.1394C2.69991 27.5246 3.20337 27.7031 3.84795 27.7038C3.89606 27.7041 3.94417 27.7043 3.99374 27.7046C4.15452 27.7052 4.31529 27.7049 4.47608 27.7045C4.59269 27.7048 4.7093 27.7051 4.82591 27.7055C5.14606 27.7063 5.46619 27.7063 5.78633 27.7061C6.13173 27.7061 6.47712 27.7069 6.82252 27.7075C7.4991 27.7086 8.17569 27.709 8.85228 27.7091C9.40227 27.7092 9.95226 27.7094 10.5023 27.7099C12.0617 27.7111 13.6212 27.7117 15.1806 27.7116C15.2647 27.7116 15.3488 27.7116 15.4354 27.7116C15.5195 27.7116 15.6037 27.7116 15.6904 27.7116C17.0545 27.7115 18.4186 27.7128 19.7826 27.7148C21.1834 27.7167 22.5841 27.7177 23.9848 27.7175C24.7712 27.7175 25.5575 27.7179 26.3439 27.7193C27.0134 27.7206 27.6829 27.7209 28.3525 27.72C28.694 27.7195 29.0355 27.7195 29.377 27.7207C29.6899 27.7218 30.0027 27.7216 30.3156 27.7204C30.4286 27.7202 30.5415 27.7204 30.6544 27.7212C31.46 27.7263 32.1781 27.6508 32.8268 27.1234C33.3231 26.6325 33.5097 26.0943 33.5143 25.4099C33.514 25.3463 33.5138 25.2826 33.5135 25.2171C33.5138 25.1484 33.514 25.0798 33.5143 25.0091C33.515 24.7796 33.5147 24.5501 33.5144 24.3207C33.5147 24.1559 33.5151 23.9912 33.5155 23.8264C33.5163 23.4257 33.5165 23.0249 33.5163 22.6242C33.5162 22.2984 33.5163 21.9725 33.5166 21.6467C33.5167 21.577 33.5167 21.577 33.5168 21.506C33.5168 21.4116 33.5169 21.3173 33.517 21.223C33.5177 20.3389 33.5176 19.4548 33.5172 18.5708C33.5168 17.7627 33.5176 16.9547 33.5189 16.1466C33.5202 15.3161 33.5208 14.4856 33.5205 13.6551C33.5204 13.1892 33.5206 12.7232 33.5215 12.2573C33.5224 11.819 33.5223 11.3808 33.5214 10.9426C33.5212 10.7819 33.5214 10.6213 33.522 10.4606C33.5227 10.2409 33.5221 10.0213 33.5213 9.80169C33.5218 9.73837 33.5223 9.67506 33.5228 9.60983C33.517 8.91211 33.311 8.35815 32.8121 7.86204C32.2992 7.47679 31.7958 7.2983 31.1512 7.29758C31.1031 7.29734 31.055 7.2971 31.0054 7.29685C30.8446 7.29622 30.6839 7.29655 30.5231 7.29688C30.4065 7.29663 30.2899 7.29631 30.1732 7.29594C29.8531 7.29511 29.533 7.29513 29.2128 7.29529C28.8674 7.29531 28.522 7.29456 28.1766 7.29391C27.5 7.29278 26.8235 7.2924 26.1469 7.29232C25.5969 7.29226 25.0469 7.29198 24.4969 7.29154C22.9374 7.29034 21.378 7.28971 19.8185 7.28981C19.7345 7.28982 19.6504 7.28982 19.5638 7.28983C19.4375 7.28984 19.4375 7.28984 19.3087 7.28985C17.9447 7.2899 16.5806 7.28859 15.2165 7.28667C13.8158 7.2847 12.4151 7.28376 11.0143 7.28388C10.228 7.28392 9.44161 7.28355 8.65525 7.28207C7.98573 7.28083 7.31621 7.28053 6.64668 7.28146C6.30517 7.28191 5.96368 7.28191 5.62217 7.28073C5.30928 7.27965 4.99641 7.27985 4.68352 7.28104C4.57059 7.28125 4.45765 7.281 4.34472 7.28024C3.48571 7.27482 2.69115 7.36498 2.05036 7.99876Z" fill="black"/>
<path d="M12.3481 12.3034C12.7503 12.6438 13.0312 12.9946 13.2619 13.4674C13.2901 13.521 13.3183 13.5745 13.3473 13.6297C13.6591 14.3225 13.6675 15.2876 13.4242 16.0052C13.2304 16.4426 13.001 16.8991 12.6467 17.2271C12.7112 17.2628 12.7757 17.2985 12.8421 17.3353C14.4128 18.2263 15.4066 19.547 15.8966 21.2828C16.0778 21.953 16.181 22.5602 15.8916 23.2155C15.6447 23.6187 15.2801 23.9119 14.8342 24.0631C14.6516 24.0807 14.6516 24.0807 14.4516 24.0814C14.3754 24.0819 14.2992 24.0825 14.2207 24.0831C14.1378 24.0831 14.0549 24.083 13.9694 24.0829C13.8816 24.0834 13.7937 24.0839 13.7032 24.0843C13.4627 24.0855 13.2221 24.0859 12.9816 24.0859C12.8311 24.086 12.6807 24.0863 12.5302 24.0867C12.0048 24.088 11.4794 24.0885 10.954 24.0884C10.4651 24.0883 9.97615 24.0898 9.48723 24.0919C9.06679 24.0937 8.64635 24.0945 8.2259 24.0944C7.97509 24.0943 7.7243 24.0947 7.47349 24.0962C7.19352 24.0977 6.91359 24.0971 6.63361 24.0963C6.5511 24.0971 6.46859 24.0978 6.38358 24.0986C5.83885 24.0946 5.47149 24.0222 5.04461 23.6625C4.67041 23.2219 4.46307 22.8155 4.48385 22.2273C4.68737 20.667 5.3943 19.0598 6.63103 18.0475C6.93994 17.8263 7.26265 17.6279 7.58806 17.4322C7.68693 17.3727 7.68693 17.3727 7.7878 17.3121C7.83467 17.284 7.88155 17.256 7.92985 17.2271C7.89928 17.1915 7.8687 17.1558 7.8372 17.119C7.12228 16.2486 6.95215 15.3859 7.04118 14.2877C7.21361 13.4059 7.68962 12.698 8.40837 12.1685C9.64895 11.4042 11.1633 11.4157 12.3481 12.3034ZM9.0236 13.6725C8.64731 14.0799 8.51049 14.5169 8.52373 15.0679C8.58401 15.5668 8.85695 16.0072 9.22868 16.3385C9.65067 16.6377 10.1263 16.7282 10.6354 16.6549C11.1252 16.534 11.4868 16.2783 11.7817 15.8688C12.0342 15.4479 12.0824 15.0436 12.0314 14.5611C11.8985 14.1096 11.6652 13.692 11.2592 13.4372C10.4392 13.0011 9.733 13.0705 9.0236 13.6725ZM7.10954 19.7564C6.55602 20.5211 5.99927 21.5147 6.08415 22.4908C6.15267 22.5744 6.15267 22.5744 6.2901 22.5676C6.35103 22.5675 6.41197 22.5675 6.47475 22.5674C6.57929 22.5675 6.57929 22.5675 6.68594 22.5677C6.76303 22.5674 6.84013 22.5672 6.91957 22.5669C7.00025 22.5669 7.08094 22.567 7.16407 22.567C7.38595 22.5669 7.60782 22.5666 7.82969 22.5661C8.06134 22.5657 8.29298 22.5656 8.52463 22.5656C8.96355 22.5653 9.40248 22.5648 9.84141 22.5641C10.341 22.5633 10.8406 22.563 11.3402 22.5626C12.3681 22.5619 13.3961 22.5607 14.424 22.5592C14.5836 22.2781 14.551 22.1384 14.4667 21.8243C14.144 20.6645 13.5077 19.5274 12.4563 18.8889C10.664 17.9467 8.46775 18.1184 7.10954 19.7564Z" fill="black"/>
<path d="M19.747 13.1141C19.8324 13.1135 19.9178 13.1129 20.0057 13.1123C20.1009 13.112 20.1961 13.1117 20.2912 13.1114C20.391 13.1109 20.4909 13.1103 20.5907 13.1097C20.919 13.1079 21.2473 13.1069 21.5756 13.1059C21.6885 13.1055 21.8015 13.1052 21.9144 13.1048C22.3842 13.1033 22.854 13.102 23.3237 13.1013C23.9973 13.1002 24.6709 13.0979 25.3445 13.094C25.818 13.0913 26.2914 13.09 26.7648 13.0896C27.0477 13.0894 27.3305 13.0886 27.6134 13.0864C27.8795 13.0843 28.1456 13.0839 28.4118 13.0847C28.5094 13.0847 28.607 13.0841 28.7047 13.0829C28.838 13.0814 28.9714 13.0821 29.1048 13.083C29.1794 13.0828 29.2541 13.0826 29.3309 13.0823C29.5984 13.1386 29.7014 13.2594 29.8735 13.4664C29.9513 13.6725 29.9619 13.8627 29.9418 14.0816C29.804 14.3623 29.6856 14.5167 29.395 14.6285C29.2077 14.6461 29.2077 14.6461 28.9885 14.6468C28.8638 14.6476 28.8638 14.6476 28.7365 14.6485C28.6445 14.6485 28.5525 14.6484 28.4605 14.6484C28.3635 14.6488 28.2665 14.6492 28.1694 14.6497C27.906 14.6509 27.6426 14.6513 27.3792 14.6514C27.2146 14.6515 27.05 14.6517 26.8853 14.6521C26.3109 14.6534 25.7364 14.6539 25.162 14.6538C24.6267 14.6537 24.0915 14.6552 23.5562 14.6573C23.0965 14.6591 22.6368 14.6599 22.177 14.6598C21.9025 14.6597 21.628 14.6601 21.3535 14.6616C21.0953 14.6629 20.8371 14.6629 20.5789 14.6619C20.4843 14.6618 20.3896 14.6621 20.295 14.6629C19.4021 14.6702 19.4021 14.6702 19.0727 14.3551C18.904 14.102 18.8894 13.8967 18.936 13.6031C19.1643 13.1845 19.2853 13.1164 19.747 13.1141Z" fill="black"/>
<path d="M19.8095 16.7373C19.9357 16.7365 19.9357 16.7365 20.0645 16.7356C20.1582 16.7353 20.252 16.735 20.3458 16.7347C20.4441 16.7341 20.5425 16.7336 20.6408 16.733C20.9644 16.7312 21.2879 16.7301 21.6114 16.7292C21.7228 16.7288 21.8341 16.7284 21.9454 16.7281C22.4086 16.7266 22.8718 16.7253 23.3349 16.7245C23.9988 16.7234 24.6626 16.7212 25.3265 16.7173C25.7932 16.7146 26.2599 16.7133 26.7266 16.7129C27.0054 16.7127 27.2842 16.7119 27.563 16.7096C27.8253 16.7076 28.0877 16.7071 28.35 16.708C28.4462 16.708 28.5424 16.7074 28.6386 16.7062C29.4554 16.6966 29.4554 16.6966 29.7246 16.9117C29.9144 17.1389 29.9439 17.2661 29.9582 17.5532C29.9318 17.7948 29.8257 17.9357 29.6682 18.1151C29.431 18.2732 29.3397 18.2693 29.0597 18.2705C28.9334 18.2715 28.9334 18.2715 28.8045 18.2726C28.711 18.2726 28.6174 18.2727 28.5239 18.2727C28.4256 18.2732 28.3272 18.2738 28.2288 18.2744C27.9614 18.2759 27.6941 18.2765 27.4267 18.2769C27.2596 18.2771 27.0926 18.2776 26.9255 18.2781C26.3426 18.2797 25.7598 18.2806 25.1769 18.2809C24.6337 18.2811 24.0905 18.2832 23.5473 18.286C23.0809 18.2884 22.6145 18.2894 22.148 18.2895C21.8695 18.2895 21.591 18.2901 21.3124 18.2921C21.0503 18.2939 20.7883 18.294 20.5262 18.2929C20.4301 18.2928 20.334 18.2933 20.238 18.2944C19.4221 18.303 19.4221 18.303 19.1531 18.0869C18.9476 17.8429 18.9089 17.6928 18.9112 17.3703C18.9547 17.1159 19.0957 16.9937 19.2776 16.8162C19.4613 16.7244 19.6037 16.7384 19.8095 16.7373Z" fill="black"/>
<path d="M20.0155 20.3516C20.0956 20.3509 20.0956 20.3509 20.1773 20.3502C20.3536 20.3489 20.5299 20.3487 20.7062 20.3485C20.829 20.3481 20.9518 20.3476 21.0745 20.3471C21.3318 20.3463 21.5892 20.3461 21.8465 20.3461C22.1758 20.3462 22.5051 20.3443 22.8344 20.3419C23.088 20.3404 23.3416 20.3401 23.5952 20.3402C23.7166 20.34 23.838 20.3394 23.9593 20.3384C24.1293 20.337 24.2993 20.3374 24.4693 20.3383C24.5192 20.3375 24.569 20.3367 24.6204 20.3359C24.9668 20.3402 25.1625 20.4282 25.43 20.6449C25.567 20.841 25.5849 20.9858 25.5624 21.2217C25.5588 21.2724 25.5552 21.323 25.5515 21.3752C25.4714 21.6137 25.3517 21.7179 25.1565 21.8754C24.9543 21.9092 24.7916 21.9223 24.5897 21.9196C24.5336 21.9202 24.4774 21.9208 24.4195 21.9214C24.2343 21.9229 24.0493 21.9219 23.8641 21.9208C23.7351 21.921 23.6062 21.9213 23.4772 21.9218C23.2071 21.9223 22.9371 21.9215 22.667 21.9199C22.321 21.918 21.9751 21.9191 21.6291 21.9212C21.3629 21.9224 21.0967 21.922 20.8304 21.9211C20.7029 21.9209 20.5753 21.9212 20.4478 21.922C20.2694 21.9228 20.0911 21.9215 19.9127 21.9196C19.8339 21.9206 19.8339 21.9206 19.7534 21.9217C19.4788 21.9163 19.3594 21.8864 19.1439 21.7103C18.947 21.4614 18.9122 21.31 18.9163 20.9891C18.9472 20.7686 19.0507 20.658 19.2093 20.5082C19.4616 20.3381 19.7218 20.3513 20.0155 20.3516Z" fill="black"/>
</g>
<defs>
<clipPath id="clip0_5826_47835">
<rect width="35" height="35" fill="white"/>
</clipPath>
</defs>
</svg>
