<svg width="30" height="30" viewBox="0 0 30 30" fill="none" xmlns="http://www.w3.org/2000/svg">
<g clip-path="url(#clip0_5826_47857)">
<path d="M9.47902 0.0208767C9.52558 0.0203131 9.57215 0.0197495 9.62012 0.0191689C9.77372 0.0175403 9.92729 0.0169436 10.0809 0.0164961C10.188 0.0158888 10.2951 0.0152712 10.4021 0.0146437C10.6265 0.0135279 10.8509 0.013006 11.0753 0.0128099C11.3623 0.0124454 11.6492 0.00989404 11.9361 0.00680123C12.1573 0.00478366 12.3785 0.00429739 12.5996 0.00422955C12.7054 0.0039454 12.8112 0.00310498 12.9169 0.00168931C13.0652 -0.000137121 13.2133 0.00019475 13.3615 0.00104037C13.4457 0.000697049 13.5299 0.000353726 13.6167 0C13.9249 0.0555506 14.0352 0.162622 14.2564 0.380161C14.4678 0.749698 14.4155 1.17657 14.4142 1.58976C14.414 1.72945 14.4156 1.86904 14.4173 2.00872C14.4173 2.09753 14.4174 2.18633 14.4174 2.27783C14.4176 2.35865 14.4178 2.43946 14.418 2.52273C14.3805 2.85871 14.2657 3.07923 14.0265 3.31699C13.6467 3.48619 13.3076 3.4438 12.8938 3.42702C12.8938 3.91857 12.8938 4.41013 12.8938 4.91659C13.1187 4.93893 13.3435 4.96128 13.5751 4.9843C15.9235 5.46383 18.1988 6.68894 19.7067 8.57281C19.9108 8.48181 20.0519 8.38152 20.2088 8.22364C20.2528 8.17969 20.2968 8.13573 20.3422 8.09045C20.3897 8.04229 20.4373 7.99413 20.4863 7.94452C20.5369 7.89375 20.5876 7.84299 20.6398 7.79069C20.7497 7.68048 20.8595 7.57012 20.9691 7.45963C21.1425 7.28489 21.3165 7.11063 21.4906 6.9365C21.9854 6.44137 22.4795 5.94549 22.973 5.44901C23.2749 5.14537 23.5775 4.84238 23.8804 4.53979C23.9958 4.42426 24.111 4.30848 24.2258 4.19243C24.3863 4.03034 24.5476 3.86909 24.7091 3.70801C24.7565 3.65972 24.8039 3.61143 24.8528 3.56167C24.897 3.5179 24.9412 3.47414 24.9868 3.42905C25.0438 3.37174 25.0438 3.37174 25.102 3.31327C25.2568 3.20082 25.3756 3.17348 25.5657 3.15618C25.7212 3.23348 25.8511 3.30447 25.9745 3.42702C26.0085 3.60052 26.0085 3.60052 25.9745 3.83326C25.883 3.95809 25.883 3.95809 25.7626 4.08949C25.7191 4.1371 25.6756 4.18471 25.6308 4.23376C25.4365 4.43961 25.2391 4.64176 25.0382 4.84128C24.9943 4.88512 24.9505 4.92895 24.9053 4.97412C24.7591 5.12013 24.6126 5.26591 24.4662 5.41169C24.3599 5.51772 24.2537 5.62375 24.1475 5.7298C23.8561 6.02054 23.5646 6.31106 23.273 6.60155C22.9907 6.88287 22.7085 7.16435 22.4263 7.44581C21.5635 8.30638 20.7002 9.16644 19.8368 10.0264C19.8014 10.0616 19.7661 10.0968 19.7297 10.1331C18.3296 11.5277 16.9293 12.922 15.5285 14.3159C15.182 14.6608 14.8354 15.0057 14.4889 15.3505C14.4506 15.3886 14.4123 15.4268 14.3729 15.466C13.13 16.7029 11.8881 17.9408 10.6467 19.1792C9.37009 20.4527 8.09258 21.7254 6.81391 22.997C6.63345 23.1764 6.453 23.3559 6.27256 23.5354C6.23704 23.5707 6.20153 23.606 6.16494 23.6424C5.59301 24.2113 5.02201 24.7811 4.45134 25.3512C3.87825 25.9237 3.30418 26.4952 2.72907 27.0657C2.41744 27.375 2.10627 27.6846 1.79627 27.9955C1.51272 28.2798 1.22795 28.5628 0.942144 28.8449C0.838746 28.9473 0.735811 29.0503 0.633383 29.1537C0.494483 29.2939 0.354022 29.4323 0.213029 29.5703C0.153407 29.6317 0.153407 29.6317 0.0925812 29.6943C-0.115437 29.8942 -0.25257 29.9929 -0.547864 30C-0.799914 29.9685 -0.799914 29.9685 -0.940428 29.8627C-1.03556 29.6169 -1.0036 29.4791 -0.93617 29.2237C-0.794107 29.025 -0.622595 28.8607 -0.446881 28.6913C-0.395706 28.6404 -0.34453 28.5895 -0.291803 28.537C-0.122814 28.3694 0.0475751 28.2032 0.218017 28.037C0.335622 27.9209 0.453137 27.8046 0.570566 27.6883C0.87958 27.3828 1.1898 27.0785 1.50029 26.7744C1.81703 26.4638 2.13261 26.152 2.44828 25.8403C3.06763 25.2291 3.68821 24.6192 4.3097 24.0102C4.20951 23.7999 4.1228 23.6819 3.93925 23.5363C1.87014 21.78 0.758587 19.1259 0.525558 16.4757C0.314314 13.6897 1.17142 10.8632 2.98649 8.71653C3.21491 8.45728 3.45402 8.20964 3.69654 7.96344C3.74318 7.91369 3.78981 7.86394 3.83786 7.81269C5.31705 6.26557 7.52567 5.26555 9.62369 4.91659C9.7361 4.91659 9.84852 4.91659 9.96433 4.91659C9.96433 4.42503 9.96433 3.93347 9.96433 3.42702C9.75567 3.4333 9.75567 3.4333 9.54279 3.43971C9.13983 3.45185 8.92365 3.38201 8.6188 3.12233C8.42379 2.88976 8.45238 2.60957 8.44928 2.32332C8.44873 2.27498 8.44818 2.22664 8.44761 2.17683C8.44667 2.07456 8.44594 1.97229 8.44541 1.87002C8.44462 1.7658 8.44323 1.66159 8.44121 1.5574C8.4383 1.40644 8.4372 1.25556 8.43651 1.10458C8.43531 1.05844 8.43412 1.0123 8.43289 0.964765C8.43442 0.626578 8.52033 0.434303 8.73803 0.177038C8.97763 0.0173639 9.19544 0.023306 9.47902 0.0208767ZM9.41931 0.989532C9.41931 1.48109 9.41931 1.97265 9.41931 2.47911C10.7458 2.47911 12.0722 2.47911 13.4389 2.47911C13.4389 1.98755 13.4389 1.49599 13.4389 0.989532C12.1124 0.989532 10.786 0.989532 9.41931 0.989532ZM10.9181 3.42702C10.9181 3.89623 10.9181 4.36545 10.9181 4.84888C11.2554 4.84888 11.5926 4.84888 11.9401 4.84888C11.9401 4.37966 11.9401 3.91045 11.9401 3.42702C11.6028 3.42702 11.2656 3.42702 10.9181 3.42702ZM3.93074 9.09332C2.24084 11.0188 1.32383 13.5591 1.45678 16.1158C1.65975 18.8614 2.82745 21.3543 4.94121 23.1678C4.98012 23.2 5.01902 23.2322 5.05911 23.2654C5.36979 23.0078 5.6621 22.7407 5.94477 22.4529C5.84986 22.2327 5.74382 22.1121 5.55729 21.962C3.99388 20.637 3.08208 18.5721 2.83217 16.575C2.72671 15.2013 2.8785 13.8631 3.3559 12.5676C3.38102 12.4978 3.40614 12.4279 3.43202 12.356C3.75985 11.5111 4.25951 10.7445 4.85472 10.0624C4.90144 10.007 4.94817 9.95154 4.9963 9.89444C6.32225 8.36573 8.18904 7.48001 10.1687 7.15095C10.2206 7.14196 10.2725 7.13297 10.326 7.12371C12.6235 6.79879 14.9444 7.52162 16.7787 8.88596C17.0259 9.08194 17.2402 9.29395 17.4584 9.52072C17.5034 9.52072 17.5484 9.52072 17.5947 9.52072C17.6087 9.55703 17.6228 9.59334 17.6373 9.63075C17.7705 9.85938 17.9477 10.0153 18.1397 10.1978C18.4056 10.0904 18.5713 9.91793 18.7699 9.71538C18.8611 9.62295 18.8611 9.62295 18.9541 9.52866C19.0001 9.48135 19.0461 9.43405 19.0935 9.38531C17.8869 7.58652 15.5788 6.36871 13.4846 5.93644C12.9051 5.82523 12.3257 5.75448 11.7357 5.72908C11.6827 5.72629 11.6298 5.7235 11.5752 5.72062C8.62578 5.6399 5.92202 6.99893 3.93074 9.09332ZM6.4898 9.72385C6.44483 9.79088 6.39987 9.85791 6.35354 9.92697C6.41177 9.98405 6.46999 10.0411 6.52998 10.0999C6.60602 10.1749 6.68204 10.2498 6.75805 10.3248C6.79648 10.3624 6.8349 10.4 6.87448 10.4387C7.23489 10.7948 7.23489 10.7948 7.25198 11.1119C7.23921 11.3488 7.23921 11.3488 7.10295 11.4843C6.86078 11.5276 6.69848 11.5332 6.49033 11.3925C6.34947 11.2691 6.21522 11.1408 6.08103 11.0103C5.99081 10.932 5.90001 10.8544 5.80852 10.7776C5.70735 10.6917 5.70735 10.6917 5.60413 10.604C4.46613 11.866 3.819 13.45 3.69654 15.1405C3.73639 15.1418 3.77624 15.1432 3.8173 15.1445C3.99849 15.151 4.17964 15.1584 4.36079 15.1659C4.4235 15.168 4.4862 15.1701 4.55081 15.1722C4.6114 15.1748 4.672 15.1775 4.73443 15.1801C4.81792 15.1833 4.81792 15.1833 4.90309 15.1866C5.07456 15.2103 5.18708 15.249 5.33162 15.3436C5.40769 15.6111 5.40047 15.747 5.33162 16.0207C4.79205 16.043 4.25247 16.0654 3.69654 16.0884C3.85922 17.8345 4.46228 19.3477 5.60413 20.6925C5.85903 20.4806 6.09796 20.2706 6.32374 20.0281C6.48579 19.8642 6.55102 19.8144 6.77934 19.7446C6.9667 19.7446 6.9667 19.7446 7.17108 19.8123C7.28089 20.0306 7.26914 20.18 7.23921 20.4217C7.11436 20.6032 6.95984 20.7443 6.79638 20.8914C6.75413 20.9313 6.71189 20.9711 6.66837 21.0122C6.56448 21.1098 6.45914 21.206 6.35354 21.3019C6.4023 21.4384 6.4023 21.4384 6.4898 21.5727C6.618 21.6317 6.618 21.6317 6.76231 21.6404C6.92311 21.514 7.05873 21.39 7.20115 21.245C7.24506 21.2017 7.28897 21.1583 7.33421 21.1136C7.482 20.9673 7.62854 20.8198 7.77512 20.6723C7.88046 20.5675 7.98589 20.4628 8.09138 20.3581C8.37829 20.0731 8.66413 19.787 8.9498 19.5008C9.24825 19.202 9.54765 18.9043 9.84696 18.6064C10.3494 18.1061 10.8513 17.6052 11.3527 17.1039C11.8693 16.5874 12.3862 16.0713 12.9035 15.5557C12.9354 15.5239 12.9673 15.4922 13.0001 15.4594C13.16 15.3001 13.32 15.1407 13.4799 14.9813C14.8072 13.6587 16.1332 12.3349 17.4584 11.0103C17.391 10.8427 17.391 10.8427 17.3222 10.6718C17.0395 10.6403 17.0395 10.6403 16.8658 10.8495C16.7977 10.9255 16.7298 11.0016 16.6622 11.078C16.3018 11.4644 16.3018 11.4644 16.0424 11.5382C15.8745 11.535 15.8745 11.535 15.619 11.4843C15.527 11.0604 15.527 11.0604 15.6275 10.8495C15.7798 10.6376 15.955 10.4585 16.1427 10.2782C16.1949 10.2272 16.1949 10.2272 16.2482 10.1752C16.3334 10.0921 16.419 10.0095 16.5046 9.92697C15.2915 8.67074 13.5709 8.13077 11.8719 7.96344C11.8494 8.49969 11.827 9.03594 11.8038 9.58843C11.3269 9.65614 11.3269 9.65614 11.1651 9.60536C11.0544 9.52072 11.0544 9.52072 10.9863 9.3176C10.9763 9.21247 10.9694 9.10703 10.9647 9.00154C10.9618 8.9411 10.959 8.88066 10.9561 8.81839C10.9534 8.7555 10.9507 8.69262 10.9479 8.62783C10.945 8.56416 10.942 8.50048 10.939 8.43489C10.9318 8.27775 10.9248 8.1206 10.9181 7.96344C9.32567 7.96344 7.70019 8.74233 6.4898 9.72385Z" fill="black"/>
<path d="M19.8145 14.0145C19.896 14.0139 19.9776 14.0132 20.0616 14.0125C20.1498 14.0122 20.2381 14.0119 20.329 14.0116C20.4198 14.0112 20.5105 14.0107 20.6041 14.0103C20.7965 14.0096 20.9889 14.0092 21.1813 14.0089C21.4266 14.0085 21.6719 14.0068 21.9172 14.0048C22.1524 14.0031 22.3876 14.003 22.6228 14.0027C22.7104 14.0018 22.7979 14.0009 22.8881 14C23.5447 14.0017 24.056 14.0913 24.5513 14.5626C24.8272 14.9101 24.9955 15.3214 25.1769 15.7265C25.2444 15.8742 25.3153 16.0194 25.3882 16.1645C25.4222 16.2322 25.4222 16.2322 25.4569 16.3014C25.4787 16.3446 25.5005 16.3879 25.5229 16.4325C25.731 16.8466 25.731 16.8466 25.731 17.0863C25.8044 17.0854 25.8044 17.0854 25.8793 17.0844C26.3407 17.0787 26.8021 17.0744 27.2635 17.0716C27.5007 17.0701 27.7379 17.0681 27.9751 17.0649C28.2479 17.0612 28.5207 17.0598 28.7935 17.0585C28.8785 17.0571 28.9636 17.0556 29.0513 17.0541C29.1304 17.0541 29.2096 17.054 29.2911 17.054C29.3608 17.0534 29.4304 17.0528 29.5021 17.0521C29.7423 17.0969 29.8121 17.1765 29.9632 17.371C29.9979 17.5667 29.9979 17.5667 29.9979 17.7959C29.9986 17.8829 29.9993 17.9699 30 18.0595C29.9993 18.1557 29.9987 18.2519 29.998 18.3482C29.9982 18.4496 29.9986 18.5511 29.9991 18.6526C30.0001 18.9282 29.9993 19.2038 29.9982 19.4794C29.9972 19.768 29.9976 20.0567 29.9979 20.3454C29.9981 20.8305 29.9971 21.3156 29.9955 21.8007C29.9937 22.3607 29.9936 22.9207 29.9944 23.4807C29.9951 24.02 29.9947 24.5593 29.9937 25.0986C29.9933 25.3277 29.9933 25.5569 29.9936 25.786C29.994 26.0564 29.9933 26.3267 29.9918 26.5971C29.9914 26.696 29.9914 26.7949 29.9917 26.8938C29.9952 28.0354 29.9952 28.0354 29.6255 28.4908C29.5795 28.5292 29.5335 28.5675 29.4862 28.607C29.4406 28.6465 29.395 28.6859 29.348 28.7266C28.9964 28.9709 28.6745 28.9923 28.2589 28.9903C28.1992 28.9906 28.1394 28.9909 28.0779 28.9912C27.8778 28.9919 27.6777 28.9916 27.4776 28.9913C27.3341 28.9916 27.1906 28.992 27.0471 28.9924C26.6574 28.9934 26.2676 28.9934 25.8779 28.9932C25.5525 28.9932 25.2272 28.9935 24.9018 28.9939C24.1343 28.9946 23.3667 28.9947 22.5992 28.9942C21.8073 28.9938 21.0155 28.9947 20.2236 28.9962C19.5438 28.9975 18.8639 28.9979 18.1841 28.9977C17.778 28.9975 17.372 28.9977 16.966 28.9987C16.5841 28.9996 16.2022 28.9995 15.8203 28.9985C15.6802 28.9984 15.5401 28.9986 15.4001 28.9991C15.2087 28.9999 15.0173 28.9993 14.826 28.9984C14.7707 28.9989 14.7153 28.9995 14.6584 29C14.1042 28.9945 13.7146 28.8058 13.3122 28.4024C13.0908 28.0187 13.0262 27.711 13.0245 27.2698C13.024 27.1837 13.0235 27.0976 13.023 27.0089C13.0228 26.9137 13.0226 26.8185 13.0224 26.7233C13.022 26.6228 13.0215 26.5224 13.021 26.422C13.0196 26.0925 13.0189 25.763 13.0182 25.4336C13.0179 25.3201 13.0176 25.2066 13.0173 25.0931C13.016 24.56 13.015 24.027 13.0144 23.494C13.0137 22.8788 13.0119 22.2636 13.0091 21.6483C13.007 21.1727 13.006 20.697 13.0058 20.2213C13.0056 19.9372 13.005 19.6532 13.0032 19.3691C13.0016 19.102 13.0013 18.8348 13.002 18.5677C13.0021 18.4697 13.0016 18.3717 13.0007 18.2738C12.9995 18.1399 13.0001 18.006 13.0009 17.8721C13.0007 17.7973 13.0005 17.7224 13.0004 17.6452C13.0436 17.3893 13.1358 17.2695 13.3122 17.0863C13.4957 17.0435 13.4957 17.0435 13.7067 17.0459C13.8255 17.046 13.8255 17.046 13.9466 17.046C14.0317 17.0479 14.1167 17.0497 14.2044 17.0516C14.2918 17.0521 14.3792 17.0526 14.4692 17.0531C14.701 17.0548 14.9327 17.058 15.1645 17.0619C15.4012 17.0656 15.6379 17.0672 15.8746 17.069C16.3387 17.0729 16.8028 17.0788 17.2668 17.0863C17.286 17.0244 17.3051 16.9625 17.3249 16.8987C17.4559 16.5102 17.6325 16.145 17.8045 15.7741C17.8579 15.656 17.8579 15.656 17.9124 15.5355C18.4164 14.4487 18.4164 14.4487 18.9449 14.2128C18.9903 14.1917 19.0356 14.1706 19.0823 14.1489C19.3397 14.0442 19.5389 14.0164 19.8145 14.0145ZM19.139 15.3841C18.9503 15.6686 18.8124 15.9695 18.6717 16.2812C18.6432 16.3429 18.6147 16.4046 18.5853 16.4682C18.4342 16.7652 18.4342 16.7652 18.3769 17.0863C20.4603 17.0863 22.5438 17.0863 24.6904 17.0863C24.305 16.0177 24.305 16.0177 23.5821 15.0637C23.4052 15.0117 23.2495 15.0038 23.0653 15.0029C22.99 15.0022 22.9147 15.0015 22.8372 15.0008C22.7563 15.0009 22.6753 15.0009 22.5919 15.001C22.5084 15.0007 22.425 15.0004 22.3389 15.0001C22.1624 14.9997 21.9859 14.9996 21.8094 14.9999C21.5392 15.0002 21.2692 14.9985 20.999 14.9967C20.8275 14.9965 20.656 14.9965 20.4845 14.9965C20.3633 14.9956 20.3633 14.9956 20.2397 14.9946C20.1642 14.995 20.0887 14.9954 20.011 14.9959C19.9117 14.9958 19.9117 14.9958 19.8104 14.9958C19.5215 15.0374 19.339 15.1721 19.139 15.3841ZM14.006 18.0827C14.006 18.2941 14.006 18.5055 14.006 18.7233C14.174 18.8886 14.2927 18.9768 14.4917 19.088C14.6004 19.1543 14.7092 19.2207 14.818 19.2871C14.8771 19.3221 14.9363 19.3571 14.9972 19.3931C15.2654 19.5541 15.5275 19.7246 15.7902 19.8948C16.0019 20.0318 16.2143 20.1677 16.4269 20.3032C16.7048 20.4804 16.9821 20.6585 17.259 20.8375C17.3873 20.9201 17.5157 21.0027 17.6441 21.0852C17.7019 21.1228 17.7597 21.1604 17.8192 21.1992C18.4252 21.5873 18.9662 21.8655 19.6921 21.8617C19.7692 21.8615 19.8464 21.8612 19.9258 21.861C20.0456 21.8601 20.0456 21.8601 20.1677 21.8592C20.2895 21.8587 20.2895 21.8587 20.4137 21.8582C20.6135 21.8574 20.8134 21.8562 21.0133 21.8547C21.0159 21.7964 21.0185 21.7381 21.0211 21.6779C21.0257 21.6012 21.0303 21.5245 21.035 21.4455C21.039 21.3696 21.043 21.2936 21.0472 21.2153C21.0853 20.9849 21.1304 20.8798 21.2908 20.716C21.5035 20.6842 21.6392 20.669 21.8212 20.795C21.9592 20.9925 21.9513 21.1654 21.9629 21.4055C21.9675 21.4894 21.972 21.5734 21.9767 21.6599C21.9806 21.7563 21.9806 21.7563 21.9846 21.8547C23.5331 21.903 24.4616 21.7171 25.7513 20.8421C26.0878 20.6163 26.4302 20.3999 26.7717 20.1822C27.3028 19.8422 27.8335 19.5015 28.3631 19.1592C28.419 19.1232 28.4748 19.0872 28.5324 19.0501C28.583 19.0173 28.6337 18.9845 28.6859 18.9507C28.7301 18.9221 28.7744 18.8934 28.82 18.864C28.9216 18.8 28.9216 18.8 28.9919 18.7233C28.9919 18.5119 28.9919 18.3005 28.9919 18.0827C24.0465 18.0827 19.1012 18.0827 14.006 18.0827ZM14.006 19.9331C14.0011 20.9199 13.9975 21.9067 13.9952 22.8934C13.9941 23.3516 13.9927 23.8098 13.9903 24.268C13.988 24.71 13.9868 25.1521 13.9863 25.5942C13.9859 25.7629 13.9851 25.9317 13.984 26.1004C13.9825 26.3366 13.9823 26.5727 13.9824 26.8089C13.9816 26.8788 13.9809 26.9488 13.9801 27.0208C13.9817 27.3713 13.9845 27.6232 14.2141 27.9042C14.4334 28.0167 14.669 27.9862 14.9098 27.9863C14.9681 27.9867 15.0263 27.987 15.0863 27.9873C15.2826 27.9882 15.4788 27.9887 15.6751 27.9891C15.8154 27.9897 15.9556 27.9903 16.0959 27.9909C16.5575 27.9928 17.0191 27.9938 17.4806 27.9949C17.6393 27.9952 17.7981 27.9956 17.9568 27.996C18.6167 27.9975 19.2767 27.9989 19.9367 27.9997C20.8836 28.0008 21.8304 28.0032 22.7773 28.0072C23.4425 28.01 24.1077 28.0114 24.7729 28.0118C25.1705 28.012 25.5681 28.0129 25.9657 28.0152C26.3397 28.0173 26.7136 28.0178 27.0876 28.0169C27.2249 28.0169 27.3623 28.0175 27.4996 28.0188C27.687 28.0204 27.8742 28.0198 28.0616 28.0187C28.1161 28.0197 28.1706 28.0206 28.2268 28.0217C28.4995 28.0176 28.6319 27.9855 28.8523 27.8157C28.9975 27.6116 29.035 27.5321 29.0336 27.2849C29.034 27.2198 29.0345 27.1546 29.035 27.0875C29.0331 26.9816 29.0331 26.9816 29.0312 26.8736C29.0313 26.7985 29.0313 26.7235 29.0314 26.6462C29.0311 26.3986 29.0285 26.151 29.0257 25.9034C29.0251 25.7316 29.0246 25.5597 29.0242 25.3879C29.0229 24.9359 29.0195 24.484 29.0157 24.032C29.0121 23.5707 29.0105 23.1094 29.0088 22.648C29.0051 21.7431 28.9992 20.8381 28.9919 19.9331C28.872 19.9995 28.7523 20.0659 28.6326 20.1325C28.5659 20.1695 28.4992 20.2065 28.4305 20.2446C28.1148 20.4254 27.8123 20.6257 27.5089 20.8272C27.3759 20.9147 27.243 21.0021 27.11 21.0894C27.0092 21.1556 27.0092 21.1556 26.9064 21.2231C26.5766 21.4388 26.2453 21.6517 25.9132 21.8636C25.8543 21.9015 25.7954 21.9393 25.7347 21.9783C24.772 22.5911 23.9782 22.7817 22.8562 22.82C22.7723 22.8231 22.6885 22.8261 22.6021 22.8293C22.3963 22.8368 22.1904 22.8441 21.9846 22.8511C21.9795 22.9488 21.9795 22.9488 21.9743 23.0485C21.9691 23.1331 21.9639 23.2177 21.9586 23.3048C21.9537 23.3891 21.9489 23.4733 21.9439 23.5601C21.9152 23.7763 21.9152 23.7763 21.7764 23.9187C21.6464 23.9401 21.6464 23.9401 21.4989 23.9409C21.4503 23.9421 21.4016 23.9433 21.3515 23.9445C21.3086 23.936 21.2656 23.9275 21.2214 23.9187C21.064 23.6764 21.0573 23.5511 21.0393 23.2648C21.0341 23.1875 21.0289 23.1101 21.0236 23.0304C21.0202 22.9713 21.0168 22.9121 21.0133 22.8511C20.9634 22.8501 20.9134 22.8491 20.862 22.848C19.0182 22.8051 17.9038 22.4338 16.3687 21.4019C15.9892 21.1471 15.6044 20.9008 15.2201 20.6537C15.148 20.6071 15.0759 20.5605 15.0015 20.5125C14.9327 20.4683 14.8639 20.4241 14.793 20.3785C14.7316 20.339 14.6702 20.2995 14.607 20.2587C14.411 20.1398 14.2101 20.0367 14.006 19.9331Z" fill="black"/>
<path d="M9.62947 10.0585C9.93762 10.3745 10.1259 10.7115 10.3138 11.0802C10.3436 11.1376 10.3734 11.1949 10.4041 11.2541C10.5016 11.4421 10.5983 11.6304 10.6949 11.8188C10.7625 11.95 10.8302 12.0812 10.898 12.2124C11.003 12.4159 11.108 12.6195 11.2128 12.8231C11.4236 13.2327 11.637 13.6413 11.8531 14.0492C11.9888 14.3052 12.1236 14.5616 12.2583 14.8179C12.3226 14.9397 12.3872 15.0614 12.4522 15.183C12.5429 15.3528 12.6322 15.523 12.7211 15.6933C12.748 15.7428 12.7748 15.7922 12.8025 15.8432C12.9651 16.1585 13.0336 16.4176 12.9843 16.7574C12.8444 16.9058 12.7646 16.9658 12.5332 17C12.4652 16.9997 12.3971 16.9995 12.327 16.9992C12.2106 16.9995 12.2106 16.9995 12.0919 16.9999C12.0081 16.999 11.9242 16.9981 11.8378 16.9972C11.7506 16.997 11.6635 16.9969 11.5737 16.9968C11.3885 16.9963 11.2034 16.9953 11.0182 16.9938C10.7391 16.9916 10.4599 16.9908 10.1808 16.9904C9.66439 16.9889 9.14831 16.9828 8.63208 16.9735C8.56291 16.9724 8.49373 16.9713 8.42246 16.9702C8.24445 16.9666 8.06654 16.9606 7.88865 16.9544C7.79401 16.9512 7.69938 16.948 7.60187 16.9448C7.30024 16.8902 7.1846 16.8083 7 16.6134C7 16.3563 7.00846 16.1862 7.22216 15.986C7.58699 15.8394 7.93973 15.8748 8.34165 15.8877C8.42768 15.8896 8.5137 15.8915 8.60234 15.8935C8.87677 15.8998 9.15109 15.9077 9.42546 15.9156C9.61164 15.9201 9.79782 15.9246 9.98401 15.9289C10.4401 15.9398 10.8962 15.9521 11.3522 15.9651C11.1895 15.6527 11.0267 15.3404 10.8638 15.0281C10.724 14.7601 10.5845 14.4921 10.445 14.224C10.1165 13.5932 9.78625 12.9631 9.446 12.3362C9.39093 12.2342 9.33587 12.1322 9.28084 12.0301C9.20388 11.8874 9.12658 11.7449 9.04795 11.6028C8.97622 11.4731 8.90594 11.3429 8.83574 11.2127C8.79617 11.1406 8.7566 11.0685 8.71583 10.9942C8.61815 10.743 8.60909 10.5361 8.63208 10.2746C8.9127 9.97065 9.1867 9.95302 9.62947 10.0585Z" fill="black"/>
</g>
<defs>
<clipPath id="clip0_5826_47857">
<rect width="30" height="30" fill="white"/>
</clipPath>
</defs>
</svg>
