<svg width="35" height="35" viewBox="0 0 35 35" fill="none" xmlns="http://www.w3.org/2000/svg">
<path d="M8.76937 1.99776C8.83187 1.99465 8.89438 1.99153 8.95879 1.98832C9.16765 1.97824 9.37654 1.96959 9.58547 1.96103C9.7357 1.95426 9.88592 1.94746 10.0361 1.94064C11.4197 1.88007 12.8041 1.84537 14.1886 1.81759C14.3748 1.81378 14.5611 1.8099 14.7473 1.80595C14.7936 1.80498 14.8398 1.804 14.8875 1.80299C15.5365 1.78888 16.1844 1.76449 16.8327 1.73159C23.7881 1.37865 23.7881 1.37865 25.9565 3.27041C27.1995 4.40852 28.4735 5.94683 28.626 7.68786C28.6455 8.18789 28.591 8.67107 28.515 9.16442C28.4619 9.5421 28.4396 9.92288 28.4136 10.3032C28.3932 10.598 28.3687 10.8896 28.3281 11.1823C28.2474 11.7259 28.2474 11.7259 28.4253 12.2298C28.5809 12.3849 28.7425 12.5127 28.9165 12.6462C30.887 14.9955 31.0563 18.5919 31.3938 21.5033C31.4319 21.8316 31.4705 22.1597 31.5098 22.4878C31.5153 22.5335 31.5208 22.5792 31.5264 22.6263C31.6188 23.3921 31.7396 24.1505 31.8801 24.909C32.0038 25.5845 32.0538 26.2475 32.061 26.9333C32.0628 27.0178 32.0647 27.1023 32.0666 27.1894C32.076 27.9705 32.0308 28.751 31.9926 29.531C32.0533 29.5451 32.1139 29.5592 32.1763 29.5737C32.4453 29.6853 32.5986 29.8303 32.7446 30.0778C32.779 30.2694 32.7943 30.4187 32.7924 30.6095C32.7929 30.6594 32.7934 30.7092 32.7939 30.7606C32.7944 30.8656 32.7941 30.9705 32.7929 31.0755C32.7916 31.2351 32.7943 31.3943 32.7973 31.5538C32.802 32.4035 32.802 32.4035 32.5451 32.7099C32.2964 32.9113 32.2025 32.9573 31.8934 32.9594C31.8293 32.96 31.7653 32.9606 31.6994 32.9612C31.6289 32.9615 31.5585 32.9618 31.4859 32.9621C31.4118 32.9627 31.3378 32.9632 31.2615 32.9638C31.0157 32.9655 30.7698 32.9666 30.524 32.9676C30.4401 32.968 30.3563 32.9683 30.2699 32.9687C29.872 32.9704 29.4741 32.9717 29.0762 32.9725C28.6628 32.9735 28.2494 32.9753 27.836 32.9785C27.3926 32.9818 26.9492 32.9835 26.5058 32.984C26.3367 32.9845 26.1676 32.9855 25.9985 32.9872C25.7619 32.9893 25.5253 32.9893 25.2887 32.9888C25.2188 32.9899 25.1489 32.9911 25.0768 32.9922C24.7647 32.9895 24.5437 32.9853 24.2955 32.7835C23.9105 32.3699 23.9691 31.9397 23.9692 31.401C23.9689 31.2494 23.9665 31.098 23.9639 30.9465C23.9635 30.8494 23.9632 30.7523 23.9631 30.6551C23.9625 30.5674 23.9619 30.4796 23.9614 30.3892C24.0082 30.0463 24.1558 29.8339 24.4141 29.6087C24.7031 29.4939 24.9729 29.5092 25.2806 29.5181C25.341 29.5191 25.4014 29.52 25.4636 29.5209C25.612 29.5233 25.7603 29.527 25.9086 29.531C25.8996 29.4864 25.8905 29.4418 25.8811 29.3958C25.8691 29.3361 25.857 29.2763 25.8446 29.2148C25.8327 29.1561 25.8208 29.0974 25.8085 29.037C25.7701 28.8377 25.7369 28.6374 25.7036 28.4372C20.2895 28.4372 14.8754 28.4372 9.29731 28.4372C9.21474 28.8088 9.13998 29.157 9.09224 29.531C9.18124 29.5278 9.27024 29.5246 9.36193 29.5213C9.47996 29.5188 9.59799 29.5163 9.71601 29.5139C9.77453 29.5116 9.83304 29.5093 9.89332 29.5069C10.2765 29.501 10.5036 29.5385 10.8012 29.8044C11.0914 30.1932 11.0395 30.6212 11.0368 31.084C11.0362 31.235 11.0382 31.3858 11.0403 31.5367C11.0405 31.6335 11.0404 31.7303 11.0402 31.8271C11.0403 31.9145 11.0405 32.0018 11.0406 32.0917C10.9931 32.4265 10.8577 32.6326 10.6067 32.8563C10.4349 32.9643 10.3405 32.9751 10.1391 32.9763C10.075 32.9772 10.0109 32.9781 9.94484 32.979C9.87499 32.9789 9.80513 32.9788 9.73315 32.9787C9.65921 32.9794 9.58526 32.9801 9.50907 32.9808C9.26429 32.9828 9.01953 32.9832 8.77474 32.9834C8.60462 32.984 8.4345 32.9847 8.26438 32.9854C7.90758 32.9867 7.55079 32.987 7.19398 32.9869C6.82775 32.9868 6.46157 32.9883 6.09535 32.9911C5.65313 32.9945 5.21094 32.996 4.76869 32.9958C4.60023 32.9961 4.43177 32.997 4.26332 32.9986C4.02749 33.0006 3.79181 33 3.55598 32.9987C3.48654 32.9999 3.41709 33.001 3.34555 33.0022C2.93245 32.9967 2.70783 32.9319 2.40954 32.6401C2.14596 32.3255 2.23535 31.8136 2.23237 31.4213C2.23124 31.3123 2.22937 31.2033 2.22676 31.0943C2.223 30.9367 2.22152 30.7792 2.22052 30.6215C2.21897 30.5732 2.21742 30.5249 2.21582 30.4752C2.21692 30.214 2.25536 30.0464 2.41528 29.8446C2.61003 29.6561 2.74681 29.5918 3.00825 29.531C3.00618 29.4915 3.00411 29.452 3.00198 29.4113C2.95823 28.5619 2.92297 27.7155 2.93989 26.8649C2.94039 26.8174 2.94088 26.7699 2.94139 26.721C2.95075 26.0233 3.03905 25.3558 3.16553 24.67C3.2948 23.9446 3.40354 23.2194 3.49104 22.4878C3.49656 22.4418 3.50208 22.3957 3.50777 22.3483C3.54704 22.0196 3.58538 21.6908 3.62349 21.362C4.42283 14.4649 4.42283 14.4649 6.2895 12.4411C6.3594 12.387 6.42931 12.3329 6.50133 12.2772C6.75229 12.0243 6.74815 11.7851 6.75123 11.4409C6.74986 11.3629 6.74849 11.2849 6.74707 11.2046C6.74725 11.1216 6.74743 11.0386 6.74761 10.9531C6.74773 10.7731 6.74711 10.5933 6.74524 10.4133C6.74231 10.1283 6.74245 9.84321 6.74303 9.55811C6.74375 9.00394 6.74152 8.4498 6.73884 7.89564C6.7355 7.19128 6.73304 6.48693 6.73415 5.78257C6.73449 5.49974 6.73314 5.217 6.73043 4.93419C6.72876 4.71594 6.7293 4.49769 6.72945 4.27944C6.7276 4.16328 6.7276 4.16328 6.72571 4.04478C6.72925 3.475 6.85116 3.01328 7.24585 2.58724C7.70482 2.15153 8.15315 2.02175 8.76937 1.99776ZM7.90876 3.38349C7.69126 3.70572 7.71561 4.01159 7.71683 4.38621C7.71677 4.45115 7.71671 4.51609 7.71665 4.583C7.71654 4.80153 7.71691 5.02006 7.71729 5.23859C7.71731 5.39487 7.7173 5.55115 7.71726 5.70743C7.71724 6.13253 7.71764 6.55763 7.71812 6.98273C7.71854 7.42668 7.71858 7.87062 7.71867 8.31457C7.71885 9.05998 7.71928 9.80539 7.71989 10.5508C7.72052 11.3186 7.721 12.0864 7.72129 12.8543C7.72131 12.9016 7.72133 12.9489 7.72135 12.9976C7.72144 13.235 7.72152 13.4724 7.72161 13.7098C7.72232 15.6795 7.72353 17.6492 7.72505 19.6188C7.85361 19.5446 7.98207 19.4701 8.1105 19.3956C8.18205 19.3542 8.2536 19.3128 8.32732 19.2701C8.73708 19.0263 9.13111 18.7581 9.52669 18.4921C10.9399 17.5561 10.9399 17.5561 11.8266 17.7048C12.3488 17.8777 12.6285 18.1224 12.9033 18.5935C13.0654 19.0027 13.0567 19.4961 12.9463 19.9177C12.6892 20.5037 12.0828 20.8539 11.5574 21.174C11.4438 21.2447 11.3301 21.3155 11.2164 21.3863C11.1592 21.4218 11.102 21.4572 11.043 21.4938C10.7649 21.6662 10.4878 21.8401 10.2116 22.0157C10.1618 22.0466 10.1121 22.0776 10.0608 22.1095C9.7832 22.2774 9.7832 22.2774 9.63911 22.5583C9.65166 22.6755 9.66486 22.7928 9.68179 22.9095C9.77181 23.5347 9.79335 24.1574 9.79719 24.7885C9.79838 24.8677 9.79956 24.9468 9.80078 25.0284C9.80038 25.8683 9.67746 26.6265 9.57075 27.4802C14.8043 27.4802 20.0379 27.4802 25.4301 27.4802C25.3624 26.9613 25.2948 26.4425 25.225 25.9079C25.2093 25.5465 25.1985 25.1959 25.2037 24.8355C25.2043 24.7466 25.2048 24.6577 25.2054 24.5661C25.2143 23.8457 25.2667 23.1354 25.3618 22.4216C24.9318 22.1077 24.488 21.8201 24.0373 21.5372C23.8691 21.4313 23.701 21.3253 23.5329 21.2193C23.4376 21.1594 23.3423 21.0996 23.2469 21.04C22.7048 20.7002 22.2189 20.386 22.0122 19.7556C21.938 19.1603 22.007 18.6784 22.354 18.1833C22.7104 17.8174 23.0987 17.6919 23.5972 17.6663C24.5332 17.696 25.3308 18.3944 26.0844 18.8939C26.3253 19.0531 26.5675 19.2103 26.8101 19.3668C26.8858 19.4159 26.9615 19.4649 27.0395 19.5155C27.1843 19.6248 27.1843 19.6248 27.2758 19.6188C27.2758 15.4681 27.2758 11.3173 27.2758 7.04072C26.5314 7.01816 25.787 6.9956 25.02 6.97236C24.3976 6.83406 23.9512 6.70061 23.5887 6.16059C23.3336 5.73811 23.2906 5.25168 23.2827 4.76991C23.2807 4.69368 23.2807 4.69368 23.2787 4.61592C23.2746 4.45577 23.2714 4.29562 23.2683 4.13545C23.2656 4.02596 23.263 3.91648 23.2603 3.807C23.2537 3.54052 23.248 3.27403 23.2426 3.00752C21.3245 3.00273 19.4064 2.99911 17.4883 2.99689C16.5977 2.99583 15.7071 2.99439 14.8165 2.99205C14.0403 2.99 13.2642 2.98868 12.488 2.98822C12.077 2.98795 11.6659 2.98732 11.2549 2.98583C10.8681 2.98444 10.4813 2.98401 10.0945 2.98432C9.95245 2.98426 9.81042 2.98386 9.66839 2.98307C9.47454 2.98205 9.28073 2.98229 9.08688 2.98285C9.0025 2.98196 9.0025 2.98196 8.91641 2.98104C8.497 2.98432 8.20369 3.06465 7.90876 3.38349ZM24.268 3.75947C24.26 4.01295 24.2552 4.2664 24.2509 4.51997C24.2486 4.59152 24.2463 4.66307 24.244 4.73679C24.2387 5.1512 24.2437 5.4254 24.5415 5.74189C24.8579 6.03965 25.1321 6.04461 25.5466 6.03936C25.6181 6.03707 25.6897 6.03478 25.7634 6.03242C25.8365 6.03119 25.9097 6.02995 25.985 6.02868C26.1647 6.02547 26.3443 6.02098 26.5239 6.01533C26.2576 5.69689 25.9813 5.39421 25.6873 5.10129C25.6486 5.06252 25.6099 5.02374 25.57 4.9838C25.4891 4.9029 25.4082 4.82208 25.3272 4.74135C25.2026 4.61712 25.0783 4.49253 24.9541 4.36789C24.8753 4.28905 24.7964 4.21024 24.7174 4.13144C24.6802 4.09406 24.643 4.05669 24.6046 4.01818C24.4604 3.83994 24.4604 3.83994 24.268 3.75947ZM6.69966 13.5349C4.93355 16.0703 4.83182 19.6206 4.48145 22.5884C4.37999 23.4418 4.26369 24.2855 4.10627 25.1303C3.92184 26.1486 3.92963 27.1656 3.94659 28.1969C3.94733 28.2446 3.94806 28.2923 3.94882 28.3414C3.95813 28.7421 3.9971 29.129 4.03364 29.531C5.3646 29.531 6.69556 29.531 8.06684 29.531C8.11196 29.2377 8.15708 28.9444 8.20356 28.6423C8.25351 28.4725 8.30817 28.3039 8.37019 28.1381C8.72917 27.1324 8.83158 26.1077 8.83147 25.045C8.83161 24.8893 8.83285 24.7337 8.83415 24.578C8.83626 24.0082 8.80924 23.4531 8.73006 22.8884C8.61347 22.0436 8.61347 22.0436 8.78302 21.7951C9.02479 21.6192 9.27346 21.4589 9.52803 21.3022C9.64401 21.2297 9.75999 21.1571 9.87597 21.0846C10.0698 20.9639 10.2638 20.8435 10.4579 20.7232C10.6624 20.5963 10.8664 20.4686 11.0704 20.3409C11.1347 20.3013 11.199 20.2618 11.2653 20.221C11.627 19.9939 11.9364 19.7981 12.0958 19.3839C12.1019 19.1342 12.0339 19.0047 11.895 18.7985C11.6773 18.6486 11.554 18.5878 11.2891 18.6095C11.0563 18.6663 10.9061 18.7475 10.7064 18.8789C10.6373 18.9239 10.5681 18.9688 10.4968 19.0151C10.4239 19.0635 10.3509 19.1119 10.2757 19.1617C10.1609 19.2365 10.046 19.3114 9.9311 19.3862C9.81571 19.4613 9.7005 19.5368 9.5853 19.6123C9.12632 19.9117 8.66194 20.2026 8.19736 20.4933C8.08043 20.5673 7.96486 20.6434 7.84948 20.7198C7.43887 20.986 7.43887 20.986 7.14399 20.986C6.97309 20.9177 6.97309 20.9177 6.83638 20.781C6.81849 20.651 6.81849 20.651 6.81734 20.4894C6.81658 20.4283 6.81581 20.3671 6.81503 20.3041C6.81488 20.2368 6.81473 20.1696 6.81458 20.1003C6.81389 20.0296 6.81321 19.9589 6.8125 19.886C6.81038 19.6515 6.80922 19.417 6.80807 19.1825C6.80679 19.0203 6.80545 18.858 6.80406 18.6957C6.80054 18.268 6.79784 17.8403 6.7953 17.4126C6.79257 16.9763 6.78907 16.5401 6.78564 16.1039C6.77902 15.2476 6.77322 14.3912 6.76802 13.5349C6.74546 13.5349 6.7229 13.5349 6.69966 13.5349ZM28.2329 13.5349C28.2328 13.572 28.2327 13.6092 28.2326 13.6475C28.23 14.5512 28.226 15.4549 28.2203 16.3586C28.2176 16.7956 28.2154 17.2326 28.2143 17.6696C28.2133 18.0911 28.211 18.5126 28.2077 18.9342C28.2067 19.0952 28.2061 19.2563 28.2061 19.4173C28.2059 19.6424 28.2041 19.8674 28.2018 20.0925C28.2023 20.193 28.2023 20.193 28.2029 20.2956C28.2014 20.3875 28.2014 20.3875 28.2 20.4812C28.1996 20.5611 28.1996 20.5611 28.1992 20.6426C28.1645 20.781 28.1645 20.781 28.0381 20.9028C27.8911 20.986 27.8911 20.986 27.6901 20.9767C27.4777 20.9168 27.3274 20.8437 27.142 20.7251C27.0781 20.6847 27.0141 20.6442 26.9482 20.6025C26.88 20.5585 26.8119 20.5144 26.7418 20.4691C26.6707 20.4239 26.5996 20.3787 26.5263 20.3321C26.3364 20.2112 26.1468 20.0897 25.9575 19.9678C25.8395 19.8918 25.7214 19.8159 25.6033 19.74C25.5642 19.7149 25.525 19.6897 25.4848 19.6639C25.4065 19.6136 25.3283 19.5634 25.2501 19.5132C25.0637 19.3937 24.8776 19.2739 24.6918 19.1535C24.6244 19.1101 24.557 19.0666 24.4875 19.0218C24.4285 18.9835 24.3695 18.9453 24.3087 18.9059C23.935 18.6698 23.935 18.6698 23.5118 18.5935C23.2548 18.681 23.1375 18.792 22.9692 19.0036C22.8926 19.2078 22.8882 19.3045 22.9523 19.5127C23.2129 20.0462 23.9635 20.3707 24.4517 20.6699C24.5967 20.7596 24.7416 20.8495 24.8865 20.9393C24.956 20.9823 25.0256 21.0253 25.0973 21.0696C25.3558 21.2298 25.6136 21.3911 25.8702 21.5543C25.98 21.6237 25.98 21.6237 26.0921 21.6945C26.2504 21.8063 26.2504 21.8063 26.3188 21.9431C26.3309 22.3028 26.305 22.6368 26.252 22.9936C26.1692 23.6035 26.1549 24.2078 26.1564 24.8227C26.1565 24.8778 26.1565 24.9328 26.1565 24.9896C26.1596 26.1696 26.2894 27.2777 26.7188 28.3841C26.832 28.7562 26.8749 29.1465 26.934 29.531C28.265 29.531 29.5959 29.531 30.9672 29.531C31.0267 28.8265 31.0267 28.8265 31.0495 28.1229C31.0499 28.071 31.0503 28.0191 31.0507 27.9656C31.0513 27.8569 31.0518 27.7482 31.052 27.6395C31.0527 27.4778 31.0548 27.3162 31.057 27.1545C31.062 26.4353 30.9835 25.7565 30.8587 25.0491C30.8106 24.7649 30.7717 24.4795 30.7328 24.1938C30.7248 24.1355 30.7168 24.0772 30.7085 24.0171C30.6835 23.8342 30.6588 23.6513 30.634 23.4683C30.6252 23.4041 30.6165 23.3399 30.6074 23.2738C30.4943 22.4449 30.3875 21.6155 30.2871 20.7849C29.9784 16.8912 29.9784 16.8912 28.2329 13.5349ZM3.21333 30.488C3.21333 30.9843 3.21333 31.4806 3.21333 31.9919C5.46919 31.9919 7.72505 31.9919 10.0493 31.9919C10.0493 31.4956 10.0493 30.9993 10.0493 30.488C7.79341 30.488 5.53755 30.488 3.21333 30.488ZM24.9516 30.488C24.9516 30.9843 24.9516 31.4806 24.9516 31.9919C27.2075 31.9919 29.4633 31.9919 31.7875 31.9919C31.7875 31.4956 31.7875 30.9993 31.7875 30.488C29.5317 30.488 27.2758 30.488 24.9516 30.488Z" fill="black"/>
<path d="M15.3649 5.30051C16.037 5.73803 16.4913 6.25901 16.68 7.04074C16.7721 7.97468 16.5871 8.69075 15.9964 9.43332C16.037 9.4542 16.0776 9.47509 16.1195 9.4966C17.107 10.0418 17.7228 10.8401 18.0635 11.9039C18.1559 12.2507 18.1927 12.5823 18.196 12.9408C18.1973 13.0667 18.1973 13.0667 18.1987 13.1951C18.1992 13.2849 18.1997 13.3746 18.2002 13.4671C18.2005 13.5131 18.2007 13.5591 18.201 13.6066C18.2025 13.8498 18.2034 14.093 18.2041 14.3362C18.2048 14.5871 18.2072 14.8379 18.2099 15.0888C18.2117 15.2822 18.2123 15.4756 18.2125 15.669C18.213 15.8064 18.2148 15.9437 18.2166 16.0811C18.2164 16.1646 18.2162 16.2481 18.216 16.3342C18.2164 16.4076 18.2168 16.4811 18.2172 16.5567C18.1839 16.7478 18.1839 16.7478 18.0892 16.9081C17.8075 17.0864 17.5329 17.0598 17.206 17.0577C17.1344 17.0583 17.0628 17.0589 16.989 17.0595C16.7521 17.061 16.5153 17.0605 16.2784 17.0599C16.1139 17.0603 15.9494 17.0607 15.7849 17.0612C15.4402 17.0619 15.0954 17.0616 14.7506 17.0606C14.3083 17.0594 13.866 17.061 13.4237 17.0634C13.0841 17.0649 12.7444 17.0649 12.4048 17.0643C12.2417 17.0642 12.0786 17.0647 11.9155 17.0657C11.6876 17.0669 11.4599 17.0659 11.2321 17.0643C11.1645 17.0651 11.0968 17.0659 11.0272 17.0668C10.575 17.0605 10.575 17.0605 10.349 16.8729C10.2422 16.655 10.2203 16.5169 10.221 16.2749C10.2206 16.1951 10.2202 16.1152 10.2197 16.0329C10.2207 15.9471 10.2217 15.8613 10.2227 15.7728C10.2228 15.6839 10.2228 15.595 10.2229 15.5034C10.2231 15.3152 10.2242 15.127 10.2261 14.9388C10.2284 14.6994 10.2289 14.46 10.2288 14.2206C10.2289 13.9903 10.2301 13.7601 10.2312 13.5298C10.2314 13.4447 10.2316 13.3596 10.2317 13.2719C10.2447 12.0622 10.592 11.0271 11.4334 10.1383C11.7372 9.84329 12.0692 9.63164 12.4417 9.43332C12.4095 9.38617 12.3774 9.33903 12.3442 9.29046C11.8435 8.5346 11.6707 7.95998 11.7581 7.04074C11.932 6.30978 12.4273 5.70478 13.0594 5.31413C13.7132 4.99335 14.7074 4.97915 15.3649 5.30051ZM12.9993 6.70722C12.746 7.11884 12.724 7.52521 12.7835 7.99777C12.9531 8.44186 13.2851 8.74042 13.6893 8.97616C14.1397 9.08877 14.5719 9.08082 14.9788 8.84398C15.3521 8.5711 15.5924 8.28808 15.6973 7.83114C15.7582 7.34202 15.6351 6.96739 15.3427 6.57504C15.0423 6.25289 14.6454 6.12058 14.2191 6.04953C13.7134 6.1338 13.3221 6.30273 12.9993 6.70722ZM11.8099 11.2422C11.4791 11.7201 11.2704 12.2853 11.2718 12.8668C11.2719 12.939 11.2719 13.0111 11.2719 13.0854C11.2722 13.1608 11.2726 13.2361 11.2729 13.3138C11.273 13.3834 11.2731 13.453 11.2731 13.5247C11.2735 13.7844 11.2744 14.0442 11.2753 14.3039C11.2767 14.8848 11.2782 15.4657 11.2796 16.0642C13.2196 16.0642 15.1597 16.0642 17.1585 16.0642C17.1641 15.4819 17.1698 14.8996 17.1756 14.2997C17.1781 14.1173 17.1806 13.935 17.1831 13.7472C17.1839 13.6005 17.1846 13.4538 17.1852 13.3071C17.1873 13.1955 17.1873 13.1955 17.1895 13.0817C17.1898 12.2466 16.91 11.5358 16.3358 10.9263C15.6759 10.3036 14.9315 10.0081 14.0287 10.0275C13.1164 10.115 12.3962 10.5514 11.8099 11.2422Z" fill="black"/>
<path d="M13.0298 24.4637C13.1112 24.4634 13.1927 24.4631 13.2766 24.4628C13.4114 24.4629 13.4114 24.4629 13.5489 24.4629C13.6441 24.4627 13.7393 24.4625 13.8345 24.4622C14.0936 24.4616 14.3526 24.4615 14.6116 24.4614C14.8277 24.4613 15.0438 24.4611 15.2599 24.4609C15.7697 24.4603 16.2795 24.4601 16.7892 24.4602C17.3154 24.4602 17.8415 24.4595 18.3677 24.4584C18.8191 24.4575 19.2706 24.4572 19.722 24.4572C19.9918 24.4572 20.2615 24.457 20.5312 24.4563C20.785 24.4556 21.0387 24.4556 21.2924 24.4561C21.43 24.4562 21.5676 24.4557 21.7052 24.4551C21.787 24.4554 21.8689 24.4557 21.9532 24.4559C22.0244 24.4559 22.0955 24.4559 22.1688 24.4558C22.3577 24.4732 22.4692 24.5063 22.6271 24.6096C22.7328 24.8209 22.7155 24.992 22.6955 25.2248C22.5528 25.4147 22.4712 25.4892 22.2354 25.5326C22.1634 25.5328 22.0915 25.5329 22.0173 25.533C21.9345 25.5337 21.8517 25.5345 21.7664 25.5353C21.6748 25.5348 21.5833 25.5342 21.4917 25.5336C21.3951 25.534 21.2986 25.5345 21.202 25.5351C20.9398 25.5363 20.6777 25.5358 20.4156 25.535C20.1413 25.5343 19.867 25.5349 19.5927 25.5353C19.132 25.5358 18.6714 25.5352 18.2107 25.5339C17.6781 25.5324 17.1455 25.5329 16.6129 25.5344C16.1557 25.5356 15.6984 25.5358 15.2412 25.5351C14.9681 25.5347 14.695 25.5346 14.4219 25.5355C14.1651 25.5363 13.9084 25.5357 13.6516 25.5342C13.5574 25.5338 13.4631 25.5339 13.3689 25.5345C13.2403 25.5353 13.1116 25.5342 12.983 25.533C12.8751 25.5328 12.8751 25.5328 12.7649 25.5326C12.5292 25.4892 12.4481 25.4141 12.3049 25.2248C12.2545 24.8149 12.2545 24.8149 12.3988 24.6181C12.6187 24.4659 12.7639 24.4641 13.0298 24.4637Z" fill="black"/>
<path d="M13.0282 21.6447C13.1059 21.6441 13.1835 21.6436 13.2635 21.643C13.3484 21.6434 13.4332 21.6438 13.5207 21.6442C13.6103 21.6439 13.6999 21.6435 13.7923 21.6431C14.0379 21.6422 14.2835 21.6426 14.5291 21.6432C14.7861 21.6437 15.0432 21.6433 15.3003 21.6429C15.7319 21.6426 16.1636 21.6431 16.5953 21.644C17.0944 21.6451 17.5934 21.6448 18.0925 21.6437C18.521 21.6427 18.9495 21.6426 19.378 21.6431C19.6339 21.6435 19.8898 21.6435 20.1457 21.6428C20.431 21.6421 20.7162 21.6431 21.0015 21.6442C21.0864 21.6438 21.1713 21.6434 21.2587 21.643C21.3364 21.6436 21.414 21.6441 21.494 21.6447C21.5951 21.6448 21.5951 21.6448 21.6984 21.645C21.9061 21.6752 21.9989 21.7307 22.1488 21.8758C22.2304 22.126 22.2395 22.2382 22.1274 22.4783C22.0121 22.6278 22.0121 22.6278 21.8754 22.6962C21.754 22.7033 21.6324 22.706 21.5109 22.7067C21.4335 22.7073 21.3562 22.7079 21.2765 22.7085C21.1486 22.7089 21.1486 22.7089 21.0181 22.7093C20.9286 22.7099 20.8392 22.7105 20.747 22.711C20.4497 22.7128 20.1525 22.7139 19.8553 22.7149C19.753 22.7152 19.6507 22.7156 19.5484 22.716C19.123 22.7174 18.6975 22.7187 18.2721 22.7195C17.6622 22.7206 17.0523 22.7229 16.4424 22.7268C16.0137 22.7294 15.585 22.7307 15.1562 22.7311C14.9001 22.7313 14.644 22.7322 14.3879 22.7344C14.1021 22.7368 13.8164 22.7366 13.5306 22.736C13.4458 22.7372 13.3609 22.7383 13.2735 22.7394C12.6352 22.7348 12.6352 22.7348 12.421 22.5383C12.3051 22.3544 12.3051 22.3544 12.3008 22.1066C12.4246 21.7132 12.634 21.6452 13.0282 21.6447Z" fill="black"/>
<path d="M22.5583 14.3549C22.7293 14.6113 22.7317 14.7349 22.6951 15.0385C22.5541 15.2094 22.5541 15.2094 22.3533 15.3803C22.2773 15.4567 22.2018 15.5336 22.1268 15.611C21.9183 15.8195 21.7011 16.0146 21.4777 16.207C21.2442 16.4101 21.0164 16.6195 20.7879 16.8281C20.6136 16.9791 20.526 17.0172 20.2982 17.0636C19.8776 16.9969 19.683 16.7193 19.4138 16.4057C19.3708 16.3568 19.3278 16.3079 19.2835 16.2575C19.1113 16.0475 19.0128 15.9062 18.9609 15.6366C19.0156 15.396 19.0713 15.3124 19.2771 15.1752C19.4993 15.1239 19.4993 15.1239 19.7556 15.1752C19.9595 15.3395 20.1321 15.5238 20.3025 15.7221C20.7263 15.4254 21.0975 15.0884 21.4697 14.7306C21.5093 14.693 21.5488 14.6553 21.5896 14.6166C21.6248 14.5827 21.6599 14.5488 21.6962 14.5139C21.9886 14.2735 22.1892 14.266 22.5583 14.3549Z" fill="black"/>
<path d="M22.49 10.0487C22.6267 10.1171 22.6267 10.1171 22.6951 10.2538C22.761 10.7073 22.761 10.7073 22.6011 10.9337C22.4671 11.0696 22.3279 11.1941 22.1824 11.3176C22.1348 11.36 22.0872 11.4025 22.0382 11.4462C21.8938 11.5744 21.7478 11.7003 21.6013 11.826C21.5031 11.9115 21.405 11.997 21.3071 12.0827C21.2644 12.1198 21.2218 12.157 21.1778 12.1952C21.0522 12.3066 20.9294 12.4207 20.8066 12.5353C20.5993 12.7111 20.4459 12.7892 20.1658 12.7831C19.8565 12.6641 19.67 12.4196 19.4627 12.171C19.3909 12.0853 19.3167 12.0014 19.2389 11.9211C19.0652 11.738 19.0042 11.6243 18.9609 11.3732C19.0037 11.1424 19.0037 11.1424 19.1447 10.9715C19.3455 10.869 19.3455 10.869 19.5804 10.8562C19.9033 10.9638 20.0408 11.1446 20.2341 11.4159C20.4724 11.3758 20.5892 11.293 20.7615 11.1262C20.8084 11.0813 20.8554 11.0365 20.9037 10.9904C20.952 10.9433 21.0004 10.8962 21.0502 10.8476C21.9436 9.987 21.9436 9.987 22.49 10.0487Z" fill="black"/>
<path d="M22.4222 5.74277C22.5845 5.81113 22.5845 5.81113 22.6956 5.94785C22.7545 6.18746 22.7712 6.2687 22.6956 6.49472C22.4937 6.75216 22.2579 6.9635 22.012 7.17832C21.9648 7.22062 21.9176 7.26291 21.8689 7.30649C21.7823 7.38315 21.6951 7.45908 21.6072 7.53427C21.3804 7.72993 21.16 7.9326 20.9386 8.13428C20.5618 8.46496 20.5618 8.46496 20.3201 8.51987C19.7902 8.41796 19.436 7.88106 19.1046 7.4878C18.9819 7.27655 18.9804 7.1456 19.0042 6.90488C19.0726 6.74253 19.0726 6.74253 19.2093 6.63144C19.4414 6.58424 19.5378 6.56496 19.7562 6.63144C19.9635 6.79337 20.1342 6.97716 20.303 7.17832C20.5808 6.98139 20.844 6.78311 21.0806 6.53745C21.2705 6.34327 21.4673 6.16193 21.6745 5.9863C21.7289 5.93986 21.7832 5.89342 21.8393 5.84558C22.0507 5.71976 22.1799 5.71844 22.4222 5.74277Z" fill="black"/>
</svg>
